<?xml version="1.0"?>
<svg xmlns="http://www.w3.org/2000/svg" xmlns:xlink="http://www.w3.org/1999/xlink" viewBox="0 0 213.400000 176.000000" width="106.700000mm" height="88.000000mm" version="1.1">
<a xlink:href="lp1p-0x6000094a07e0.svg">
<rect x="0.000000" y="0.000000" width="212.400000" height="175.000000" rx="0" ry="0" style="stroke:#000000;fill:#FFFFFF;"/>
</a>
<text x="10.000000" y="7.000000" font-family="Verdana" font-size="7"></text>
<rect x="56.900000" y="34.000000" width="51.600000" height="24.000000" rx="0" ry="0" style="stroke:#000000;fill:#FFFFFF;"/>
<text x="82.700000" y="48.000000" font-family="Verdana" font-size="7" text-anchor="middle" fill="#000000">2.7182817f</text>
<circle cx="58.900000" cy="36.000000" r="1"/>
<line x1="47.900000" y1="25.000000" x2="47.900000" y2="67.000000"  style="stroke: black; stroke-linecap:round; stroke-width:0.25; stroke-dasharray:3,3;"/>
<line x1="47.900000" y1="67.000000" x2="117.500000" y2="67.000000"  style="stroke: black; stroke-linecap:round; stroke-width:0.25; stroke-dasharray:3,3;"/>
<line x1="117.500000" y1="67.000000" x2="117.500000" y2="25.000000"  style="stroke: black; stroke-linecap:round; stroke-width:0.25; stroke-dasharray:3,3;"/>
<line x1="47.900000" y1="25.000000" x2="52.900000" y2="25.000000"  style="stroke: black; stroke-linecap:round; stroke-width:0.25; stroke-dasharray:3,3;"/>
<line x1="62.575000" y1="25.000000" x2="117.500000" y2="25.000000"  style="stroke: black; stroke-linecap:round; stroke-width:0.25; stroke-dasharray:3,3;"/>
<text x="52.900000" y="27.000000" font-family="Verdana" font-size="7">E</text>
<rect x="50.700000" y="86.000000" width="24.000000" height="24.000000" rx="0" ry="0" style="stroke:#000000;fill:#FFFFFF;"/>
<text x="62.700000" y="100.000000" font-family="Verdana" font-size="7" text-anchor="middle" fill="#000000">0</text>
<circle cx="52.700000" cy="88.000000" r="1"/>
<line x1="41.700000" y1="77.000000" x2="41.700000" y2="119.000000"  style="stroke: black; stroke-linecap:round; stroke-width:0.25; stroke-dasharray:3,3;"/>
<line x1="41.700000" y1="119.000000" x2="83.700000" y2="119.000000"  style="stroke: black; stroke-linecap:round; stroke-width:0.25; stroke-dasharray:3,3;"/>
<line x1="83.700000" y1="119.000000" x2="83.700000" y2="77.000000"  style="stroke: black; stroke-linecap:round; stroke-width:0.25; stroke-dasharray:3,3;"/>
<line x1="41.700000" y1="77.000000" x2="46.700000" y2="77.000000"  style="stroke: black; stroke-linecap:round; stroke-width:0.25; stroke-dasharray:3,3;"/>
<line x1="66.050000" y1="77.000000" x2="83.700000" y2="77.000000"  style="stroke: black; stroke-linecap:round; stroke-width:0.25; stroke-dasharray:3,3;"/>
<text x="46.700000" y="79.000000" font-family="Verdana" font-size="7">SAFE</text>
<a xlink:href="omega-0x60000945dc20.svg">
<rect x="24.000000" y="128.000000" width="77.400000" height="24.000000" rx="0" ry="0" style="stroke:#000000;fill:#FFFFFF;"/>
</a>
<a xlink:href="omega-0x60000945dc20.svg">
<text x="62.700000" y="142.000000" font-family="Verdana" font-size="7" text-anchor="middle" fill="#000000">omega(0.8333333f)</text>
</a>
<circle cx="26.000000" cy="130.000000" r="1"/>
<rect x="117.400000" y="102.000000" width="24.000000" height="24.000000" rx="0" ry="0" style="stroke:#000000;fill:#FFFFFF;"/>
<text x="129.400000" y="116.000000" font-family="Verdana" font-size="7" text-anchor="middle" fill="#000000">-</text>
<circle cx="119.400000" cy="104.000000" r="1"/>
<line x1="114.400000" y1="109.000000" x2="117.400000" y2="110.000000"  transform="rotate(0.000000,117.400000,110.000000)" style="stroke: black; stroke-width:0.25;"/>
<line x1="114.400000" y1="111.000000" x2="117.400000" y2="110.000000"  transform="rotate(0.000000,117.400000,110.000000)" style="stroke: black; stroke-width:0.25;"/>
<line x1="114.400000" y1="117.000000" x2="117.400000" y2="118.000000"  transform="rotate(0.000000,117.400000,118.000000)" style="stroke: black; stroke-width:0.25;"/>
<line x1="114.400000" y1="119.000000" x2="117.400000" y2="118.000000"  transform="rotate(0.000000,117.400000,118.000000)" style="stroke: black; stroke-width:0.25;"/>
<rect x="157.400000" y="76.000000" width="24.000000" height="24.000000" rx="0" ry="0" style="stroke:#000000;fill:#FFFFFF;"/>
<text x="169.400000" y="90.000000" font-family="Verdana" font-size="7" text-anchor="middle" fill="#000000">pow</text>
<circle cx="159.400000" cy="78.000000" r="1"/>
<line x1="154.400000" y1="83.000000" x2="157.400000" y2="84.000000"  transform="rotate(0.000000,157.400000,84.000000)" style="stroke: black; stroke-width:0.25;"/>
<line x1="154.400000" y1="85.000000" x2="157.400000" y2="84.000000"  transform="rotate(0.000000,157.400000,84.000000)" style="stroke: black; stroke-width:0.25;"/>
<line x1="154.400000" y1="91.000000" x2="157.400000" y2="92.000000"  transform="rotate(0.000000,157.400000,92.000000)" style="stroke: black; stroke-width:0.25;"/>
<line x1="154.400000" y1="93.000000" x2="157.400000" y2="92.000000"  transform="rotate(0.000000,157.400000,92.000000)" style="stroke: black; stroke-width:0.25;"/>
<line x1="15.000000" y1="15.000000" x2="15.000000" y2="161.000000"  style="stroke: black; stroke-linecap:round; stroke-width:0.25; stroke-dasharray:3,3;"/>
<line x1="15.000000" y1="161.000000" x2="198.400000" y2="161.000000"  style="stroke: black; stroke-linecap:round; stroke-width:0.25; stroke-dasharray:3,3;"/>
<line x1="198.400000" y1="161.000000" x2="198.400000" y2="15.000000"  style="stroke: black; stroke-linecap:round; stroke-width:0.25; stroke-dasharray:3,3;"/>
<line x1="15.000000" y1="15.000000" x2="20.000000" y2="15.000000"  style="stroke: black; stroke-linecap:round; stroke-width:0.25; stroke-dasharray:3,3;"/>
<line x1="78.050000" y1="15.000000" x2="198.400000" y2="15.000000"  style="stroke: black; stroke-linecap:round; stroke-width:0.25; stroke-dasharray:3,3;"/>
<text x="20.000000" y="17.000000" font-family="Verdana" font-size="7">aapp(0.8333333f)</text>
<line x1="200.400000" y1="87.000000" x2="203.400000" y2="88.000000"  transform="rotate(0.000000,203.400000,88.000000)" style="stroke: black; stroke-width:0.25;"/>
<line x1="200.400000" y1="89.000000" x2="203.400000" y2="88.000000"  transform="rotate(0.000000,203.400000,88.000000)" style="stroke: black; stroke-width:0.25;"/>
<line x1="74.700000" y1="98.000000" x2="78.700000" y2="98.000000"  style="stroke:black; stroke-linecap:round; stroke-width:0.25;"/>
<line x1="78.700000" y1="98.000000" x2="88.700000" y2="98.000000"  style="stroke:black; stroke-linecap:round; stroke-width:0.25;"/>
<line x1="88.700000" y1="98.000000" x2="105.400000" y2="98.000000"  style="stroke:black; stroke-linecap:round; stroke-width:0.25;"/>
<line x1="101.400000" y1="140.000000" x2="105.400000" y2="140.000000"  style="stroke:black; stroke-linecap:round; stroke-width:0.25;"/>
<line x1="105.400000" y1="98.000000" x2="113.400000" y2="98.000000"  style="stroke:black; stroke-linecap:round; stroke-width:0.25;"/>
<line x1="105.400000" y1="118.000000" x2="113.400000" y2="118.000000"  style="stroke:black; stroke-linecap:round; stroke-width:0.25;"/>
<line x1="105.400000" y1="140.000000" x2="105.400000" y2="118.000000"  style="stroke:black; stroke-linecap:round; stroke-width:0.25;"/>
<line x1="105.400000" y1="140.000000" x2="105.400000" y2="140.000000"  style="stroke:black; stroke-linecap:round; stroke-width:0.25;"/>
<line x1="108.500000" y1="46.000000" x2="112.500000" y2="46.000000"  style="stroke:black; stroke-linecap:round; stroke-width:0.25;"/>
<line x1="112.500000" y1="46.000000" x2="122.500000" y2="46.000000"  style="stroke:black; stroke-linecap:round; stroke-width:0.25;"/>
<line x1="113.400000" y1="98.000000" x2="113.400000" y2="110.000000"  style="stroke:black; stroke-linecap:round; stroke-width:0.25;"/>
<line x1="113.400000" y1="110.000000" x2="113.400000" y2="110.000000"  style="stroke:black; stroke-linecap:round; stroke-width:0.25;"/>
<line x1="113.400000" y1="110.000000" x2="117.400000" y2="110.000000"  style="stroke:black; stroke-linecap:round; stroke-width:0.25;"/>
<line x1="113.400000" y1="118.000000" x2="117.400000" y2="118.000000"  style="stroke:black; stroke-linecap:round; stroke-width:0.25;"/>
<line x1="122.500000" y1="46.000000" x2="145.400000" y2="46.000000"  style="stroke:black; stroke-linecap:round; stroke-width:0.25;"/>
<line x1="141.400000" y1="114.000000" x2="145.400000" y2="114.000000"  style="stroke:black; stroke-linecap:round; stroke-width:0.25;"/>
<line x1="145.400000" y1="92.000000" x2="153.400000" y2="92.000000"  style="stroke:black; stroke-linecap:round; stroke-width:0.25;"/>
<line x1="145.400000" y1="114.000000" x2="145.400000" y2="92.000000"  style="stroke:black; stroke-linecap:round; stroke-width:0.25;"/>
<line x1="145.400000" y1="114.000000" x2="145.400000" y2="114.000000"  style="stroke:black; stroke-linecap:round; stroke-width:0.25;"/>
<line x1="145.400000" y1="46.000000" x2="153.400000" y2="46.000000"  style="stroke:black; stroke-linecap:round; stroke-width:0.25;"/>
<line x1="153.400000" y1="84.000000" x2="157.400000" y2="84.000000"  style="stroke:black; stroke-linecap:round; stroke-width:0.25;"/>
<line x1="153.400000" y1="92.000000" x2="157.400000" y2="92.000000"  style="stroke:black; stroke-linecap:round; stroke-width:0.25;"/>
<line x1="153.400000" y1="46.000000" x2="153.400000" y2="84.000000"  style="stroke:black; stroke-linecap:round; stroke-width:0.25;"/>
<line x1="153.400000" y1="84.000000" x2="153.400000" y2="84.000000"  style="stroke:black; stroke-linecap:round; stroke-width:0.25;"/>
<line x1="181.400000" y1="88.000000" x2="185.400000" y2="88.000000"  style="stroke:black; stroke-linecap:round; stroke-width:0.25;"/>
<line x1="185.400000" y1="88.000000" x2="185.400000" y2="88.000000"  style="stroke:black; stroke-linecap:round; stroke-width:0.25;"/>
<line x1="185.400000" y1="88.000000" x2="189.400000" y2="88.000000"  style="stroke:black; stroke-linecap:round; stroke-width:0.25;"/>
<line x1="189.400000" y1="88.000000" x2="193.400000" y2="88.000000"  style="stroke:black; stroke-linecap:round; stroke-width:0.25;"/>
<line x1="193.400000" y1="88.000000" x2="203.400000" y2="88.000000"  style="stroke:black; stroke-linecap:round; stroke-width:0.25;"/>
</svg>
