<?xml version="1.0"?>
<svg xmlns="http://www.w3.org/2000/svg" xmlns:xlink="http://www.w3.org/1999/xlink" viewBox="0 0 187.600000 176.000000" width="93.800000mm" height="88.000000mm" version="1.1">
<a xlink:href="lp1p-0x60000142f600.svg">
<rect x="0.000000" y="0.000000" width="186.600000" height="175.000000" rx="0" ry="0" style="stroke:#000000;fill:#FFFFFF;"/>
</a>
<text x="10.000000" y="7.000000" font-family="Verdana" font-size="7"></text>
<rect x="44.000000" y="34.000000" width="51.600000" height="24.000000" rx="0" ry="0" style="stroke:#000000;fill:#FFFFFF;"/>
<text x="69.800000" y="48.000000" font-family="Verdana" font-size="7" text-anchor="middle" fill="#000000">2.7182817f</text>
<circle cx="46.000000" cy="36.000000" r="1"/>
<line x1="35.000000" y1="25.000000" x2="35.000000" y2="67.000000"  style="stroke: black; stroke-linecap:round; stroke-width:0.25; stroke-dasharray:3,3;"/>
<line x1="35.000000" y1="67.000000" x2="104.600000" y2="67.000000"  style="stroke: black; stroke-linecap:round; stroke-width:0.25; stroke-dasharray:3,3;"/>
<line x1="104.600000" y1="67.000000" x2="104.600000" y2="25.000000"  style="stroke: black; stroke-linecap:round; stroke-width:0.25; stroke-dasharray:3,3;"/>
<line x1="35.000000" y1="25.000000" x2="40.000000" y2="25.000000"  style="stroke: black; stroke-linecap:round; stroke-width:0.25; stroke-dasharray:3,3;"/>
<line x1="49.675000" y1="25.000000" x2="104.600000" y2="25.000000"  style="stroke: black; stroke-linecap:round; stroke-width:0.25; stroke-dasharray:3,3;"/>
<text x="40.000000" y="27.000000" font-family="Verdana" font-size="7">E</text>
<rect x="37.800000" y="86.000000" width="24.000000" height="24.000000" rx="0" ry="0" style="stroke:#000000;fill:#FFFFFF;"/>
<text x="49.800000" y="100.000000" font-family="Verdana" font-size="7" text-anchor="middle" fill="#000000">0</text>
<circle cx="39.800000" cy="88.000000" r="1"/>
<line x1="28.800000" y1="77.000000" x2="28.800000" y2="119.000000"  style="stroke: black; stroke-linecap:round; stroke-width:0.25; stroke-dasharray:3,3;"/>
<line x1="28.800000" y1="119.000000" x2="70.800000" y2="119.000000"  style="stroke: black; stroke-linecap:round; stroke-width:0.25; stroke-dasharray:3,3;"/>
<line x1="70.800000" y1="119.000000" x2="70.800000" y2="77.000000"  style="stroke: black; stroke-linecap:round; stroke-width:0.25; stroke-dasharray:3,3;"/>
<line x1="28.800000" y1="77.000000" x2="33.800000" y2="77.000000"  style="stroke: black; stroke-linecap:round; stroke-width:0.25; stroke-dasharray:3,3;"/>
<line x1="53.150000" y1="77.000000" x2="70.800000" y2="77.000000"  style="stroke: black; stroke-linecap:round; stroke-width:0.25; stroke-dasharray:3,3;"/>
<text x="33.800000" y="79.000000" font-family="Verdana" font-size="7">SAFE</text>
<a xlink:href="omega-0x60000142c480.svg">
<rect x="24.000000" y="128.000000" width="51.600000" height="24.000000" rx="0" ry="0" style="stroke:#000000;fill:#FFFFFF;"/>
</a>
<a xlink:href="omega-0x60000142c480.svg">
<text x="49.800000" y="142.000000" font-family="Verdana" font-size="7" text-anchor="middle" fill="#000000">omega(0.5f)</text>
</a>
<circle cx="26.000000" cy="130.000000" r="1"/>
<rect x="91.600000" y="102.000000" width="24.000000" height="24.000000" rx="0" ry="0" style="stroke:#000000;fill:#FFFFFF;"/>
<text x="103.600000" y="116.000000" font-family="Verdana" font-size="7" text-anchor="middle" fill="#000000">-</text>
<circle cx="93.600000" cy="104.000000" r="1"/>
<line x1="88.600000" y1="109.000000" x2="91.600000" y2="110.000000"  transform="rotate(0.000000,91.600000,110.000000)" style="stroke: black; stroke-width:0.25;"/>
<line x1="88.600000" y1="111.000000" x2="91.600000" y2="110.000000"  transform="rotate(0.000000,91.600000,110.000000)" style="stroke: black; stroke-width:0.25;"/>
<line x1="88.600000" y1="117.000000" x2="91.600000" y2="118.000000"  transform="rotate(0.000000,91.600000,118.000000)" style="stroke: black; stroke-width:0.25;"/>
<line x1="88.600000" y1="119.000000" x2="91.600000" y2="118.000000"  transform="rotate(0.000000,91.600000,118.000000)" style="stroke: black; stroke-width:0.25;"/>
<rect x="131.600000" y="76.000000" width="24.000000" height="24.000000" rx="0" ry="0" style="stroke:#000000;fill:#FFFFFF;"/>
<text x="143.600000" y="90.000000" font-family="Verdana" font-size="7" text-anchor="middle" fill="#000000">pow</text>
<circle cx="133.600000" cy="78.000000" r="1"/>
<line x1="128.600000" y1="83.000000" x2="131.600000" y2="84.000000"  transform="rotate(0.000000,131.600000,84.000000)" style="stroke: black; stroke-width:0.25;"/>
<line x1="128.600000" y1="85.000000" x2="131.600000" y2="84.000000"  transform="rotate(0.000000,131.600000,84.000000)" style="stroke: black; stroke-width:0.25;"/>
<line x1="128.600000" y1="91.000000" x2="131.600000" y2="92.000000"  transform="rotate(0.000000,131.600000,92.000000)" style="stroke: black; stroke-width:0.25;"/>
<line x1="128.600000" y1="93.000000" x2="131.600000" y2="92.000000"  transform="rotate(0.000000,131.600000,92.000000)" style="stroke: black; stroke-width:0.25;"/>
<line x1="15.000000" y1="15.000000" x2="15.000000" y2="161.000000"  style="stroke: black; stroke-linecap:round; stroke-width:0.25; stroke-dasharray:3,3;"/>
<line x1="15.000000" y1="161.000000" x2="172.600000" y2="161.000000"  style="stroke: black; stroke-linecap:round; stroke-width:0.25; stroke-dasharray:3,3;"/>
<line x1="172.600000" y1="161.000000" x2="172.600000" y2="15.000000"  style="stroke: black; stroke-linecap:round; stroke-width:0.25; stroke-dasharray:3,3;"/>
<line x1="15.000000" y1="15.000000" x2="20.000000" y2="15.000000"  style="stroke: black; stroke-linecap:round; stroke-width:0.25; stroke-dasharray:3,3;"/>
<line x1="58.700000" y1="15.000000" x2="172.600000" y2="15.000000"  style="stroke: black; stroke-linecap:round; stroke-width:0.25; stroke-dasharray:3,3;"/>
<text x="20.000000" y="17.000000" font-family="Verdana" font-size="7">aapp(0.5f)</text>
<line x1="174.600000" y1="87.000000" x2="177.600000" y2="88.000000"  transform="rotate(0.000000,177.600000,88.000000)" style="stroke: black; stroke-width:0.25;"/>
<line x1="174.600000" y1="89.000000" x2="177.600000" y2="88.000000"  transform="rotate(0.000000,177.600000,88.000000)" style="stroke: black; stroke-width:0.25;"/>
<line x1="61.800000" y1="98.000000" x2="65.800000" y2="98.000000"  style="stroke:black; stroke-linecap:round; stroke-width:0.25;"/>
<line x1="65.800000" y1="98.000000" x2="75.800000" y2="98.000000"  style="stroke:black; stroke-linecap:round; stroke-width:0.25;"/>
<line x1="75.600000" y1="140.000000" x2="79.600000" y2="140.000000"  style="stroke:black; stroke-linecap:round; stroke-width:0.25;"/>
<line x1="75.800000" y1="98.000000" x2="79.600000" y2="98.000000"  style="stroke:black; stroke-linecap:round; stroke-width:0.25;"/>
<line x1="79.600000" y1="98.000000" x2="87.600000" y2="98.000000"  style="stroke:black; stroke-linecap:round; stroke-width:0.25;"/>
<line x1="79.600000" y1="118.000000" x2="87.600000" y2="118.000000"  style="stroke:black; stroke-linecap:round; stroke-width:0.25;"/>
<line x1="79.600000" y1="140.000000" x2="79.600000" y2="118.000000"  style="stroke:black; stroke-linecap:round; stroke-width:0.25;"/>
<line x1="79.600000" y1="140.000000" x2="79.600000" y2="140.000000"  style="stroke:black; stroke-linecap:round; stroke-width:0.25;"/>
<line x1="87.600000" y1="98.000000" x2="87.600000" y2="110.000000"  style="stroke:black; stroke-linecap:round; stroke-width:0.25;"/>
<line x1="87.600000" y1="110.000000" x2="87.600000" y2="110.000000"  style="stroke:black; stroke-linecap:round; stroke-width:0.25;"/>
<line x1="87.600000" y1="110.000000" x2="91.600000" y2="110.000000"  style="stroke:black; stroke-linecap:round; stroke-width:0.25;"/>
<line x1="87.600000" y1="118.000000" x2="91.600000" y2="118.000000"  style="stroke:black; stroke-linecap:round; stroke-width:0.25;"/>
<line x1="95.600000" y1="46.000000" x2="99.600000" y2="46.000000"  style="stroke:black; stroke-linecap:round; stroke-width:0.25;"/>
<line x1="99.600000" y1="46.000000" x2="109.600000" y2="46.000000"  style="stroke:black; stroke-linecap:round; stroke-width:0.25;"/>
<line x1="109.600000" y1="46.000000" x2="119.600000" y2="46.000000"  style="stroke:black; stroke-linecap:round; stroke-width:0.25;"/>
<line x1="115.600000" y1="114.000000" x2="119.600000" y2="114.000000"  style="stroke:black; stroke-linecap:round; stroke-width:0.25;"/>
<line x1="119.600000" y1="46.000000" x2="127.600000" y2="46.000000"  style="stroke:black; stroke-linecap:round; stroke-width:0.25;"/>
<line x1="119.600000" y1="92.000000" x2="127.600000" y2="92.000000"  style="stroke:black; stroke-linecap:round; stroke-width:0.25;"/>
<line x1="119.600000" y1="114.000000" x2="119.600000" y2="92.000000"  style="stroke:black; stroke-linecap:round; stroke-width:0.25;"/>
<line x1="119.600000" y1="114.000000" x2="119.600000" y2="114.000000"  style="stroke:black; stroke-linecap:round; stroke-width:0.25;"/>
<line x1="127.600000" y1="46.000000" x2="127.600000" y2="84.000000"  style="stroke:black; stroke-linecap:round; stroke-width:0.25;"/>
<line x1="127.600000" y1="84.000000" x2="127.600000" y2="84.000000"  style="stroke:black; stroke-linecap:round; stroke-width:0.25;"/>
<line x1="127.600000" y1="84.000000" x2="131.600000" y2="84.000000"  style="stroke:black; stroke-linecap:round; stroke-width:0.25;"/>
<line x1="127.600000" y1="92.000000" x2="131.600000" y2="92.000000"  style="stroke:black; stroke-linecap:round; stroke-width:0.25;"/>
<line x1="155.600000" y1="88.000000" x2="159.600000" y2="88.000000"  style="stroke:black; stroke-linecap:round; stroke-width:0.25;"/>
<line x1="159.600000" y1="88.000000" x2="159.600000" y2="88.000000"  style="stroke:black; stroke-linecap:round; stroke-width:0.25;"/>
<line x1="159.600000" y1="88.000000" x2="163.600000" y2="88.000000"  style="stroke:black; stroke-linecap:round; stroke-width:0.25;"/>
<line x1="163.600000" y1="88.000000" x2="167.600000" y2="88.000000"  style="stroke:black; stroke-linecap:round; stroke-width:0.25;"/>
<line x1="167.600000" y1="88.000000" x2="177.600000" y2="88.000000"  style="stroke:black; stroke-linecap:round; stroke-width:0.25;"/>
</svg>
