<?xml version="1.0"?>
<svg xmlns="http://www.w3.org/2000/svg" xmlns:xlink="http://www.w3.org/1999/xlink" viewBox="0 0 189.400000 232.000000" width="94.700000mm" height="116.000000mm" version="1.1">
<a xlink:href="noiseFbkBank2-0x60001d4ec6c0.svg">
<rect x="0.000000" y="0.000000" width="188.400000" height="231.000000" rx="0" ry="0" style="stroke:#000000;fill:#FFFFFF;"/>
</a>
<text x="10.000000" y="7.000000" font-family="Verdana" font-size="7"></text>
<a xlink:href="delayFbk-0x60001d44f4e0.svg">
<rect x="56.000000" y="24.000000" width="77.400000" height="24.000000" rx="0" ry="0" style="stroke:#000000;fill:#FFFFFF;"/>
</a>
<a xlink:href="delayFbk-0x60001d44f4e0.svg">
<text x="94.700000" y="38.000000" font-family="Verdana" font-size="7" text-anchor="middle" fill="#000000">delayFbk(0.05f)(0)</text>
</a>
<circle cx="58.000000" cy="26.000000" r="1"/>
<line x1="53.000000" y1="35.000000" x2="56.000000" y2="36.000000"  transform="rotate(0.000000,56.000000,36.000000)" style="stroke: black; stroke-width:0.25;"/>
<line x1="53.000000" y1="37.000000" x2="56.000000" y2="36.000000"  transform="rotate(0.000000,56.000000,36.000000)" style="stroke: black; stroke-width:0.25;"/>
<a xlink:href="delayFbk-0x60001d4510e0.svg">
<rect x="56.000000" y="56.000000" width="77.400000" height="24.000000" rx="0" ry="0" style="stroke:#000000;fill:#FFFFFF;"/>
</a>
<a xlink:href="delayFbk-0x60001d4510e0.svg">
<text x="94.700000" y="70.000000" font-family="Verdana" font-size="7" text-anchor="middle" fill="#000000">delayFbk(0.05f)(0)</text>
</a>
<circle cx="58.000000" cy="58.000000" r="1"/>
<line x1="53.000000" y1="67.000000" x2="56.000000" y2="68.000000"  transform="rotate(0.000000,56.000000,68.000000)" style="stroke: black; stroke-width:0.25;"/>
<line x1="53.000000" y1="69.000000" x2="56.000000" y2="68.000000"  transform="rotate(0.000000,56.000000,68.000000)" style="stroke: black; stroke-width:0.25;"/>
<a xlink:href="delayFbk-0x60001d452c70.svg">
<rect x="56.000000" y="88.000000" width="77.400000" height="24.000000" rx="0" ry="0" style="stroke:#000000;fill:#FFFFFF;"/>
</a>
<a xlink:href="delayFbk-0x60001d452c70.svg">
<text x="94.700000" y="102.000000" font-family="Verdana" font-size="7" text-anchor="middle" fill="#000000">delayFbk(0.05f)(0)</text>
</a>
<circle cx="58.000000" cy="90.000000" r="1"/>
<line x1="53.000000" y1="99.000000" x2="56.000000" y2="100.000000"  transform="rotate(0.000000,56.000000,100.000000)" style="stroke: black; stroke-width:0.25;"/>
<line x1="53.000000" y1="101.000000" x2="56.000000" y2="100.000000"  transform="rotate(0.000000,56.000000,100.000000)" style="stroke: black; stroke-width:0.25;"/>
<a xlink:href="delayFbk-0x60001d454870.svg">
<rect x="56.000000" y="120.000000" width="77.400000" height="24.000000" rx="0" ry="0" style="stroke:#000000;fill:#FFFFFF;"/>
</a>
<a xlink:href="delayFbk-0x60001d454870.svg">
<text x="94.700000" y="134.000000" font-family="Verdana" font-size="7" text-anchor="middle" fill="#000000">delayFbk(0.05f)(0)</text>
</a>
<circle cx="58.000000" cy="122.000000" r="1"/>
<line x1="53.000000" y1="131.000000" x2="56.000000" y2="132.000000"  transform="rotate(0.000000,56.000000,132.000000)" style="stroke: black; stroke-width:0.25;"/>
<line x1="53.000000" y1="133.000000" x2="56.000000" y2="132.000000"  transform="rotate(0.000000,56.000000,132.000000)" style="stroke: black; stroke-width:0.25;"/>
<a xlink:href="delayFbk-0x60001d456400.svg">
<rect x="56.000000" y="152.000000" width="77.400000" height="24.000000" rx="0" ry="0" style="stroke:#000000;fill:#FFFFFF;"/>
</a>
<a xlink:href="delayFbk-0x60001d456400.svg">
<text x="94.700000" y="166.000000" font-family="Verdana" font-size="7" text-anchor="middle" fill="#000000">delayFbk(0.05f)(0)</text>
</a>
<circle cx="58.000000" cy="154.000000" r="1"/>
<line x1="53.000000" y1="163.000000" x2="56.000000" y2="164.000000"  transform="rotate(0.000000,56.000000,164.000000)" style="stroke: black; stroke-width:0.25;"/>
<line x1="53.000000" y1="165.000000" x2="56.000000" y2="164.000000"  transform="rotate(0.000000,56.000000,164.000000)" style="stroke: black; stroke-width:0.25;"/>
<a xlink:href="delayFbk-0x60001d458000.svg">
<rect x="56.000000" y="184.000000" width="77.400000" height="24.000000" rx="0" ry="0" style="stroke:#000000;fill:#FFFFFF;"/>
</a>
<a xlink:href="delayFbk-0x60001d458000.svg">
<text x="94.700000" y="198.000000" font-family="Verdana" font-size="7" text-anchor="middle" fill="#000000">delayFbk(0.05f)(0)</text>
</a>
<circle cx="58.000000" cy="186.000000" r="1"/>
<line x1="53.000000" y1="195.000000" x2="56.000000" y2="196.000000"  transform="rotate(0.000000,56.000000,196.000000)" style="stroke: black; stroke-width:0.25;"/>
<line x1="53.000000" y1="197.000000" x2="56.000000" y2="196.000000"  transform="rotate(0.000000,56.000000,196.000000)" style="stroke: black; stroke-width:0.25;"/>
<line x1="15.000000" y1="15.000000" x2="15.000000" y2="217.000000"  style="stroke: black; stroke-linecap:round; stroke-width:0.25; stroke-dasharray:3,3;"/>
<line x1="15.000000" y1="217.000000" x2="174.400000" y2="217.000000"  style="stroke: black; stroke-linecap:round; stroke-width:0.25; stroke-dasharray:3,3;"/>
<line x1="174.400000" y1="217.000000" x2="174.400000" y2="15.000000"  style="stroke: black; stroke-linecap:round; stroke-width:0.25; stroke-dasharray:3,3;"/>
<line x1="15.000000" y1="15.000000" x2="20.000000" y2="15.000000"  style="stroke: black; stroke-linecap:round; stroke-width:0.25; stroke-dasharray:3,3;"/>
<line x1="84.500000" y1="15.000000" x2="174.400000" y2="15.000000"  style="stroke: black; stroke-linecap:round; stroke-width:0.25; stroke-dasharray:3,3;"/>
<text x="20.000000" y="17.000000" font-family="Verdana" font-size="7">bpDelEnv(0.05f)(0)</text>
<line x1="176.400000" y1="95.000000" x2="179.400000" y2="96.000000"  transform="rotate(0.000000,179.400000,96.000000)" style="stroke: black; stroke-width:0.25;"/>
<line x1="176.400000" y1="97.000000" x2="179.400000" y2="96.000000"  transform="rotate(0.000000,179.400000,96.000000)" style="stroke: black; stroke-width:0.25;"/>
<line x1="176.400000" y1="103.000000" x2="179.400000" y2="104.000000"  transform="rotate(0.000000,179.400000,104.000000)" style="stroke: black; stroke-width:0.25;"/>
<line x1="176.400000" y1="105.000000" x2="179.400000" y2="104.000000"  transform="rotate(0.000000,179.400000,104.000000)" style="stroke: black; stroke-width:0.25;"/>
<line x1="176.400000" y1="111.000000" x2="179.400000" y2="112.000000"  transform="rotate(0.000000,179.400000,112.000000)" style="stroke: black; stroke-width:0.25;"/>
<line x1="176.400000" y1="113.000000" x2="179.400000" y2="112.000000"  transform="rotate(0.000000,179.400000,112.000000)" style="stroke: black; stroke-width:0.25;"/>
<line x1="176.400000" y1="119.000000" x2="179.400000" y2="120.000000"  transform="rotate(0.000000,179.400000,120.000000)" style="stroke: black; stroke-width:0.25;"/>
<line x1="176.400000" y1="121.000000" x2="179.400000" y2="120.000000"  transform="rotate(0.000000,179.400000,120.000000)" style="stroke: black; stroke-width:0.25;"/>
<line x1="176.400000" y1="127.000000" x2="179.400000" y2="128.000000"  transform="rotate(0.000000,179.400000,128.000000)" style="stroke: black; stroke-width:0.25;"/>
<line x1="176.400000" y1="129.000000" x2="179.400000" y2="128.000000"  transform="rotate(0.000000,179.400000,128.000000)" style="stroke: black; stroke-width:0.25;"/>
<line x1="176.400000" y1="135.000000" x2="179.400000" y2="136.000000"  transform="rotate(0.000000,179.400000,136.000000)" style="stroke: black; stroke-width:0.25;"/>
<line x1="176.400000" y1="137.000000" x2="179.400000" y2="136.000000"  transform="rotate(0.000000,179.400000,136.000000)" style="stroke: black; stroke-width:0.25;"/>
<line x1="10.000000" y1="96.000000" x2="20.000000" y2="96.000000"  style="stroke:black; stroke-linecap:round; stroke-width:0.25;"/>
<line x1="10.000000" y1="104.000000" x2="20.000000" y2="104.000000"  style="stroke:black; stroke-linecap:round; stroke-width:0.25;"/>
<line x1="10.000000" y1="112.000000" x2="20.000000" y2="112.000000"  style="stroke:black; stroke-linecap:round; stroke-width:0.25;"/>
<line x1="10.000000" y1="120.000000" x2="20.000000" y2="120.000000"  style="stroke:black; stroke-linecap:round; stroke-width:0.25;"/>
<line x1="10.000000" y1="128.000000" x2="20.000000" y2="128.000000"  style="stroke:black; stroke-linecap:round; stroke-width:0.25;"/>
<line x1="10.000000" y1="136.000000" x2="20.000000" y2="136.000000"  style="stroke:black; stroke-linecap:round; stroke-width:0.25;"/>
<line x1="20.000000" y1="96.000000" x2="24.000000" y2="96.000000"  style="stroke:black; stroke-linecap:round; stroke-width:0.25;"/>
<line x1="20.000000" y1="104.000000" x2="24.000000" y2="104.000000"  style="stroke:black; stroke-linecap:round; stroke-width:0.25;"/>
<line x1="20.000000" y1="112.000000" x2="24.000000" y2="112.000000"  style="stroke:black; stroke-linecap:round; stroke-width:0.25;"/>
<line x1="20.000000" y1="120.000000" x2="24.000000" y2="120.000000"  style="stroke:black; stroke-linecap:round; stroke-width:0.25;"/>
<line x1="20.000000" y1="128.000000" x2="24.000000" y2="128.000000"  style="stroke:black; stroke-linecap:round; stroke-width:0.25;"/>
<line x1="20.000000" y1="136.000000" x2="24.000000" y2="136.000000"  style="stroke:black; stroke-linecap:round; stroke-width:0.25;"/>
<line x1="24.000000" y1="96.000000" x2="28.000000" y2="96.000000"  style="stroke:black; stroke-linecap:round; stroke-width:0.25;"/>
<line x1="24.000000" y1="104.000000" x2="28.000000" y2="104.000000"  style="stroke:black; stroke-linecap:round; stroke-width:0.25;"/>
<line x1="24.000000" y1="112.000000" x2="28.000000" y2="112.000000"  style="stroke:black; stroke-linecap:round; stroke-width:0.25;"/>
<line x1="24.000000" y1="120.000000" x2="28.000000" y2="120.000000"  style="stroke:black; stroke-linecap:round; stroke-width:0.25;"/>
<line x1="24.000000" y1="128.000000" x2="28.000000" y2="128.000000"  style="stroke:black; stroke-linecap:round; stroke-width:0.25;"/>
<line x1="24.000000" y1="136.000000" x2="28.000000" y2="136.000000"  style="stroke:black; stroke-linecap:round; stroke-width:0.25;"/>
<line x1="28.000000" y1="36.000000" x2="52.000000" y2="36.000000"  style="stroke:black; stroke-linecap:round; stroke-width:0.25;"/>
<line x1="28.000000" y1="96.000000" x2="28.000000" y2="36.000000"  style="stroke:black; stroke-linecap:round; stroke-width:0.25;"/>
<line x1="28.000000" y1="96.000000" x2="28.000000" y2="96.000000"  style="stroke:black; stroke-linecap:round; stroke-width:0.25;"/>
<line x1="28.000000" y1="104.000000" x2="36.000000" y2="104.000000"  style="stroke:black; stroke-linecap:round; stroke-width:0.25;"/>
<line x1="28.000000" y1="112.000000" x2="44.000000" y2="112.000000"  style="stroke:black; stroke-linecap:round; stroke-width:0.25;"/>
<line x1="28.000000" y1="120.000000" x2="52.000000" y2="120.000000"  style="stroke:black; stroke-linecap:round; stroke-width:0.25;"/>
<line x1="28.000000" y1="128.000000" x2="44.000000" y2="128.000000"  style="stroke:black; stroke-linecap:round; stroke-width:0.25;"/>
<line x1="28.000000" y1="136.000000" x2="36.000000" y2="136.000000"  style="stroke:black; stroke-linecap:round; stroke-width:0.25;"/>
<line x1="36.000000" y1="68.000000" x2="52.000000" y2="68.000000"  style="stroke:black; stroke-linecap:round; stroke-width:0.25;"/>
<line x1="36.000000" y1="104.000000" x2="36.000000" y2="68.000000"  style="stroke:black; stroke-linecap:round; stroke-width:0.25;"/>
<line x1="36.000000" y1="136.000000" x2="36.000000" y2="196.000000"  style="stroke:black; stroke-linecap:round; stroke-width:0.25;"/>
<line x1="36.000000" y1="196.000000" x2="52.000000" y2="196.000000"  style="stroke:black; stroke-linecap:round; stroke-width:0.25;"/>
<line x1="44.000000" y1="100.000000" x2="52.000000" y2="100.000000"  style="stroke:black; stroke-linecap:round; stroke-width:0.25;"/>
<line x1="44.000000" y1="112.000000" x2="44.000000" y2="100.000000"  style="stroke:black; stroke-linecap:round; stroke-width:0.25;"/>
<line x1="44.000000" y1="128.000000" x2="44.000000" y2="164.000000"  style="stroke:black; stroke-linecap:round; stroke-width:0.25;"/>
<line x1="44.000000" y1="164.000000" x2="52.000000" y2="164.000000"  style="stroke:black; stroke-linecap:round; stroke-width:0.25;"/>
<line x1="52.000000" y1="36.000000" x2="56.000000" y2="36.000000"  style="stroke:black; stroke-linecap:round; stroke-width:0.25;"/>
<line x1="52.000000" y1="68.000000" x2="56.000000" y2="68.000000"  style="stroke:black; stroke-linecap:round; stroke-width:0.25;"/>
<line x1="52.000000" y1="100.000000" x2="56.000000" y2="100.000000"  style="stroke:black; stroke-linecap:round; stroke-width:0.25;"/>
<line x1="52.000000" y1="120.000000" x2="52.000000" y2="132.000000"  style="stroke:black; stroke-linecap:round; stroke-width:0.25;"/>
<line x1="52.000000" y1="132.000000" x2="52.000000" y2="132.000000"  style="stroke:black; stroke-linecap:round; stroke-width:0.25;"/>
<line x1="52.000000" y1="132.000000" x2="56.000000" y2="132.000000"  style="stroke:black; stroke-linecap:round; stroke-width:0.25;"/>
<line x1="52.000000" y1="164.000000" x2="56.000000" y2="164.000000"  style="stroke:black; stroke-linecap:round; stroke-width:0.25;"/>
<line x1="52.000000" y1="196.000000" x2="56.000000" y2="196.000000"  style="stroke:black; stroke-linecap:round; stroke-width:0.25;"/>
<line x1="133.400000" y1="36.000000" x2="137.400000" y2="36.000000"  style="stroke:black; stroke-linecap:round; stroke-width:0.25;"/>
<line x1="133.400000" y1="68.000000" x2="137.400000" y2="68.000000"  style="stroke:black; stroke-linecap:round; stroke-width:0.25;"/>
<line x1="133.400000" y1="100.000000" x2="137.400000" y2="100.000000"  style="stroke:black; stroke-linecap:round; stroke-width:0.25;"/>
<line x1="133.400000" y1="132.000000" x2="137.400000" y2="132.000000"  style="stroke:black; stroke-linecap:round; stroke-width:0.25;"/>
<line x1="133.400000" y1="164.000000" x2="137.400000" y2="164.000000"  style="stroke:black; stroke-linecap:round; stroke-width:0.25;"/>
<line x1="133.400000" y1="196.000000" x2="137.400000" y2="196.000000"  style="stroke:black; stroke-linecap:round; stroke-width:0.25;"/>
<line x1="137.400000" y1="36.000000" x2="161.400000" y2="36.000000"  style="stroke:black; stroke-linecap:round; stroke-width:0.25;"/>
<line x1="137.400000" y1="68.000000" x2="153.400000" y2="68.000000"  style="stroke:black; stroke-linecap:round; stroke-width:0.25;"/>
<line x1="137.400000" y1="100.000000" x2="145.400000" y2="100.000000"  style="stroke:black; stroke-linecap:round; stroke-width:0.25;"/>
<line x1="137.400000" y1="120.000000" x2="161.400000" y2="120.000000"  style="stroke:black; stroke-linecap:round; stroke-width:0.25;"/>
<line x1="137.400000" y1="132.000000" x2="137.400000" y2="120.000000"  style="stroke:black; stroke-linecap:round; stroke-width:0.25;"/>
<line x1="137.400000" y1="132.000000" x2="137.400000" y2="132.000000"  style="stroke:black; stroke-linecap:round; stroke-width:0.25;"/>
<line x1="137.400000" y1="164.000000" x2="145.400000" y2="164.000000"  style="stroke:black; stroke-linecap:round; stroke-width:0.25;"/>
<line x1="137.400000" y1="196.000000" x2="153.400000" y2="196.000000"  style="stroke:black; stroke-linecap:round; stroke-width:0.25;"/>
<line x1="145.400000" y1="100.000000" x2="145.400000" y2="112.000000"  style="stroke:black; stroke-linecap:round; stroke-width:0.25;"/>
<line x1="145.400000" y1="112.000000" x2="161.400000" y2="112.000000"  style="stroke:black; stroke-linecap:round; stroke-width:0.25;"/>
<line x1="145.400000" y1="128.000000" x2="161.400000" y2="128.000000"  style="stroke:black; stroke-linecap:round; stroke-width:0.25;"/>
<line x1="145.400000" y1="164.000000" x2="145.400000" y2="128.000000"  style="stroke:black; stroke-linecap:round; stroke-width:0.25;"/>
<line x1="153.400000" y1="68.000000" x2="153.400000" y2="104.000000"  style="stroke:black; stroke-linecap:round; stroke-width:0.25;"/>
<line x1="153.400000" y1="104.000000" x2="161.400000" y2="104.000000"  style="stroke:black; stroke-linecap:round; stroke-width:0.25;"/>
<line x1="153.400000" y1="136.000000" x2="161.400000" y2="136.000000"  style="stroke:black; stroke-linecap:round; stroke-width:0.25;"/>
<line x1="153.400000" y1="196.000000" x2="153.400000" y2="136.000000"  style="stroke:black; stroke-linecap:round; stroke-width:0.25;"/>
<line x1="161.400000" y1="36.000000" x2="161.400000" y2="96.000000"  style="stroke:black; stroke-linecap:round; stroke-width:0.25;"/>
<line x1="161.400000" y1="96.000000" x2="161.400000" y2="96.000000"  style="stroke:black; stroke-linecap:round; stroke-width:0.25;"/>
<line x1="161.400000" y1="96.000000" x2="165.400000" y2="96.000000"  style="stroke:black; stroke-linecap:round; stroke-width:0.25;"/>
<line x1="161.400000" y1="104.000000" x2="165.400000" y2="104.000000"  style="stroke:black; stroke-linecap:round; stroke-width:0.25;"/>
<line x1="161.400000" y1="112.000000" x2="165.400000" y2="112.000000"  style="stroke:black; stroke-linecap:round; stroke-width:0.25;"/>
<line x1="161.400000" y1="120.000000" x2="165.400000" y2="120.000000"  style="stroke:black; stroke-linecap:round; stroke-width:0.25;"/>
<line x1="161.400000" y1="128.000000" x2="165.400000" y2="128.000000"  style="stroke:black; stroke-linecap:round; stroke-width:0.25;"/>
<line x1="161.400000" y1="136.000000" x2="165.400000" y2="136.000000"  style="stroke:black; stroke-linecap:round; stroke-width:0.25;"/>
<line x1="165.400000" y1="96.000000" x2="169.400000" y2="96.000000"  style="stroke:black; stroke-linecap:round; stroke-width:0.25;"/>
<line x1="165.400000" y1="104.000000" x2="169.400000" y2="104.000000"  style="stroke:black; stroke-linecap:round; stroke-width:0.25;"/>
<line x1="165.400000" y1="112.000000" x2="169.400000" y2="112.000000"  style="stroke:black; stroke-linecap:round; stroke-width:0.25;"/>
<line x1="165.400000" y1="120.000000" x2="169.400000" y2="120.000000"  style="stroke:black; stroke-linecap:round; stroke-width:0.25;"/>
<line x1="165.400000" y1="128.000000" x2="169.400000" y2="128.000000"  style="stroke:black; stroke-linecap:round; stroke-width:0.25;"/>
<line x1="165.400000" y1="136.000000" x2="169.400000" y2="136.000000"  style="stroke:black; stroke-linecap:round; stroke-width:0.25;"/>
<line x1="169.400000" y1="96.000000" x2="179.400000" y2="96.000000"  style="stroke:black; stroke-linecap:round; stroke-width:0.25;"/>
<line x1="169.400000" y1="104.000000" x2="179.400000" y2="104.000000"  style="stroke:black; stroke-linecap:round; stroke-width:0.25;"/>
<line x1="169.400000" y1="112.000000" x2="179.400000" y2="112.000000"  style="stroke:black; stroke-linecap:round; stroke-width:0.25;"/>
<line x1="169.400000" y1="120.000000" x2="179.400000" y2="120.000000"  style="stroke:black; stroke-linecap:round; stroke-width:0.25;"/>
<line x1="169.400000" y1="128.000000" x2="179.400000" y2="128.000000"  style="stroke:black; stroke-linecap:round; stroke-width:0.25;"/>
<line x1="169.400000" y1="136.000000" x2="179.400000" y2="136.000000"  style="stroke:black; stroke-linecap:round; stroke-width:0.25;"/>
</svg>
