<?xml version="1.0"?>
<svg xmlns="http://www.w3.org/2000/svg" xmlns:xlink="http://www.w3.org/1999/xlink" viewBox="0 0 272.500000 88.000000" width="136.250000mm" height="44.000000mm" version="1.1">
<a xlink:href="bpBankFmul2-0x60001175c630.svg">
<rect x="0.000000" y="0.000000" width="271.500000" height="87.000000" rx="0" ry="0" style="stroke:#000000;fill:#FFFFFF;"/>
</a>
<text x="10.000000" y="7.000000" font-family="Verdana" font-size="7"></text>
<rect x="32.000000" y="32.000000" width="38.700000" height="24.000000" rx="0" ry="0" style="stroke:#000000;fill:#FFFFFF;"/>
<text x="51.350000" y="46.000000" font-family="Verdana" font-size="7" text-anchor="middle" fill="#000000">[329] x</text>
<circle cx="34.000000" cy="34.000000" r="1"/>
<line x1="29.000000" y1="43.000000" x2="32.000000" y2="44.000000"  transform="rotate(0.000000,32.000000,44.000000)" style="stroke: black; stroke-width:0.25;"/>
<line x1="29.000000" y1="45.000000" x2="32.000000" y2="44.000000"  transform="rotate(0.000000,32.000000,44.000000)" style="stroke: black; stroke-width:0.25;"/>
<a xlink:href="loop-0x600011764900.svg">
<rect x="94.700000" y="40.000000" width="25.800000" height="24.000000" rx="0" ry="0" style="stroke:#000000;fill:#FFFFFF;"/>
</a>
<a xlink:href="loop-0x600011764900.svg">
<text x="107.600000" y="54.000000" font-family="Verdana" font-size="7" text-anchor="middle" fill="#000000">loop</text>
</a>
<circle cx="96.700000" cy="42.000000" r="1"/>
<line x1="91.700000" y1="47.000000" x2="94.700000" y2="48.000000"  transform="rotate(0.000000,94.700000,48.000000)" style="stroke: black; stroke-width:0.25;"/>
<line x1="91.700000" y1="49.000000" x2="94.700000" y2="48.000000"  transform="rotate(0.000000,94.700000,48.000000)" style="stroke: black; stroke-width:0.25;"/>
<line x1="91.700000" y1="55.000000" x2="94.700000" y2="56.000000"  transform="rotate(0.000000,94.700000,56.000000)" style="stroke: black; stroke-width:0.25;"/>
<line x1="91.700000" y1="57.000000" x2="94.700000" y2="56.000000"  transform="rotate(0.000000,94.700000,56.000000)" style="stroke: black; stroke-width:0.25;"/>
<line x1="122.500000" y1="44.000000" x2="122.500000" y2="40.000000"  style="stroke:black; stroke-linecap:round; stroke-width:0.25;"/>
<line x1="122.500000" y1="40.000000" x2="126.500000" y2="40.000000"  style="stroke:black; stroke-linecap:round; stroke-width:0.25;"/>
<line x1="126.500000" y1="40.000000" x2="126.500000" y2="44.000000"  style="stroke:black; stroke-linecap:round; stroke-width:0.25;"/>
<line x1="130.500000" y1="52.000000" x2="130.500000" y2="48.000000"  style="stroke:black; stroke-linecap:round; stroke-width:0.25;"/>
<line x1="130.500000" y1="48.000000" x2="134.500000" y2="48.000000"  style="stroke:black; stroke-linecap:round; stroke-width:0.25;"/>
<line x1="134.500000" y1="48.000000" x2="134.500000" y2="52.000000"  style="stroke:black; stroke-linecap:round; stroke-width:0.25;"/>
<rect x="168.500000" y="36.080000" width="24.000000" height="24.000000" rx="0" ry="0" style="stroke:#000000;fill:#FFFFFF;"/>
<text x="180.500000" y="50.080000" font-family="Verdana" font-size="7" text-anchor="middle" fill="#000000">10</text>
<circle cx="170.500000" cy="38.080000" r="1"/>
<rect x="208.500000" y="32.080000" width="24.000000" height="24.000000" rx="0" ry="0" style="stroke:#000000;fill:#FFFFFF;"/>
<text x="220.500000" y="46.080000" font-family="Verdana" font-size="7" text-anchor="middle" fill="#000000">*</text>
<circle cx="210.500000" cy="34.080000" r="1"/>
<line x1="205.500000" y1="39.080000" x2="208.500000" y2="40.080000"  transform="rotate(0.000000,208.500000,40.080000)" style="stroke: black; stroke-width:0.25;"/>
<line x1="205.500000" y1="41.080000" x2="208.500000" y2="40.080000"  transform="rotate(0.000000,208.500000,40.080000)" style="stroke: black; stroke-width:0.25;"/>
<line x1="205.500000" y1="47.080000" x2="208.500000" y2="48.080000"  transform="rotate(0.000000,208.500000,48.080000)" style="stroke: black; stroke-width:0.25;"/>
<line x1="205.500000" y1="49.080000" x2="208.500000" y2="48.080000"  transform="rotate(0.000000,208.500000,48.080000)" style="stroke: black; stroke-width:0.25;"/>
<line x1="15.000000" y1="15.000000" x2="15.000000" y2="73.000000"  style="stroke: black; stroke-linecap:round; stroke-width:0.25; stroke-dasharray:3,3;"/>
<line x1="15.000000" y1="73.000000" x2="257.500000" y2="73.000000"  style="stroke: black; stroke-linecap:round; stroke-width:0.25; stroke-dasharray:3,3;"/>
<line x1="257.500000" y1="73.000000" x2="257.500000" y2="15.000000"  style="stroke: black; stroke-linecap:round; stroke-width:0.25; stroke-dasharray:3,3;"/>
<line x1="15.000000" y1="15.000000" x2="20.000000" y2="15.000000"  style="stroke: black; stroke-linecap:round; stroke-width:0.25; stroke-dasharray:3,3;"/>
<line x1="119.975000" y1="15.000000" x2="257.500000" y2="15.000000"  style="stroke: black; stroke-linecap:round; stroke-width:0.25; stroke-dasharray:3,3;"/>
<text x="20.000000" y="17.000000" font-family="Verdana" font-size="7">BPTPTNormaliz... : pow) : *))</text>
<line x1="259.500000" y1="43.000000" x2="262.500000" y2="44.000000"  transform="rotate(0.000000,262.500000,44.000000)" style="stroke: black; stroke-width:0.25;"/>
<line x1="259.500000" y1="45.000000" x2="262.500000" y2="44.000000"  transform="rotate(0.000000,262.500000,44.000000)" style="stroke: black; stroke-width:0.25;"/>
<line x1="10.000000" y1="44.000000" x2="20.000000" y2="44.000000"  style="stroke:black; stroke-linecap:round; stroke-width:0.25;"/>
<line x1="20.000000" y1="44.000000" x2="24.000000" y2="44.000000"  style="stroke:black; stroke-linecap:round; stroke-width:0.25;"/>
<line x1="24.000000" y1="44.000000" x2="28.000000" y2="44.000000"  style="stroke:black; stroke-linecap:round; stroke-width:0.25;"/>
<line x1="28.000000" y1="44.000000" x2="28.000000" y2="44.000000"  style="stroke:black; stroke-linecap:round; stroke-width:0.25;"/>
<line x1="28.000000" y1="44.000000" x2="32.000000" y2="44.000000"  style="stroke:black; stroke-linecap:round; stroke-width:0.25;"/>
<line x1="82.700000" y1="24.000000" x2="82.700000" y2="56.000000"  style="stroke:black; stroke-linecap:round; stroke-width:0.25;"/>
<line x1="82.700000" y1="56.000000" x2="90.700000" y2="56.000000"  style="stroke:black; stroke-linecap:round; stroke-width:0.25;"/>
<line x1="90.700000" y1="24.000000" x2="82.700000" y2="24.000000"  style="stroke:black; stroke-linecap:round; stroke-width:0.25;"/>
<line x1="90.700000" y1="32.000000" x2="90.700000" y2="32.000000"  style="stroke:black; stroke-linecap:round; stroke-width:0.25;"/>
<line x1="90.700000" y1="32.000000" x2="90.700000" y2="48.000000"  style="stroke:black; stroke-linecap:round; stroke-width:0.25;"/>
<line x1="90.700000" y1="48.000000" x2="90.700000" y2="48.000000"  style="stroke:black; stroke-linecap:round; stroke-width:0.25;"/>
<line x1="90.700000" y1="48.000000" x2="94.700000" y2="48.000000"  style="stroke:black; stroke-linecap:round; stroke-width:0.25;"/>
<line x1="90.700000" y1="56.000000" x2="94.700000" y2="56.000000"  style="stroke:black; stroke-linecap:round; stroke-width:0.25;"/>
<line x1="107.600000" y1="24.000000" x2="90.700000" y2="24.000000"  style="stroke:black; stroke-linecap:round; stroke-width:0.25;"/>
<line x1="107.600000" y1="32.000000" x2="90.700000" y2="32.000000"  style="stroke:black; stroke-linecap:round; stroke-width:0.25;"/>
<line x1="120.500000" y1="44.000000" x2="124.500000" y2="44.000000"  style="stroke:black; stroke-linecap:round; stroke-width:0.25;"/>
<line x1="120.500000" y1="52.000000" x2="124.500000" y2="52.000000"  style="stroke:black; stroke-linecap:round; stroke-width:0.25;"/>
<line x1="120.500000" y1="60.000000" x2="124.500000" y2="60.000000"  style="stroke:black; stroke-linecap:round; stroke-width:0.25;"/>
<line x1="124.500000" y1="32.000000" x2="124.500000" y2="32.000000"  style="stroke:black; stroke-linecap:round; stroke-width:0.25;"/>
<line x1="124.500000" y1="40.000000" x2="124.500000" y2="32.000000"  style="stroke:black; stroke-linecap:round; stroke-width:0.25;"/>
<line x1="124.500000" y1="44.000000" x2="126.500000" y2="44.000000"  style="stroke:black; stroke-linecap:round; stroke-width:0.25;"/>
<line x1="124.500000" y1="52.000000" x2="134.500000" y2="52.000000"  style="stroke:black; stroke-linecap:round; stroke-width:0.25;"/>
<line x1="124.500000" y1="60.000000" x2="140.500000" y2="60.000000"  style="stroke:black; stroke-linecap:round; stroke-width:0.25;"/>
<line x1="124.500000" y1="24.000000" x2="107.600000" y2="24.000000"  style="stroke:black; stroke-linecap:round; stroke-width:0.25;"/>
<line x1="124.500000" y1="32.000000" x2="107.600000" y2="32.000000"  style="stroke:black; stroke-linecap:round; stroke-width:0.25;"/>
<line x1="132.500000" y1="24.000000" x2="124.500000" y2="24.000000"  style="stroke:black; stroke-linecap:round; stroke-width:0.25;"/>
<line x1="132.500000" y1="48.000000" x2="132.500000" y2="24.000000"  style="stroke:black; stroke-linecap:round; stroke-width:0.25;"/>
<line x1="140.500000" y1="60.000000" x2="156.500000" y2="60.000000"  style="stroke:black; stroke-linecap:round; stroke-width:0.25;"/>
<line x1="156.500000" y1="28.080000" x2="164.500000" y2="28.080000"  style="stroke:black; stroke-linecap:round; stroke-width:0.25;"/>
<line x1="156.500000" y1="60.000000" x2="156.500000" y2="28.080000"  style="stroke:black; stroke-linecap:round; stroke-width:0.25;"/>
<line x1="164.500000" y1="28.080000" x2="180.500000" y2="28.080000"  style="stroke:black; stroke-linecap:round; stroke-width:0.25;"/>
<line x1="180.500000" y1="28.080000" x2="196.500000" y2="28.080000"  style="stroke:black; stroke-linecap:round; stroke-width:0.25;"/>
<line x1="192.500000" y1="48.080000" x2="196.500000" y2="48.080000"  style="stroke:black; stroke-linecap:round; stroke-width:0.25;"/>
<line x1="196.500000" y1="28.080000" x2="204.500000" y2="28.080000"  style="stroke:black; stroke-linecap:round; stroke-width:0.25;"/>
<line x1="196.500000" y1="48.080000" x2="204.500000" y2="48.080000"  style="stroke:black; stroke-linecap:round; stroke-width:0.25;"/>
<line x1="204.500000" y1="28.080000" x2="204.500000" y2="40.080000"  style="stroke:black; stroke-linecap:round; stroke-width:0.25;"/>
<line x1="204.500000" y1="40.080000" x2="204.500000" y2="40.080000"  style="stroke:black; stroke-linecap:round; stroke-width:0.25;"/>
<line x1="204.500000" y1="40.080000" x2="208.500000" y2="40.080000"  style="stroke:black; stroke-linecap:round; stroke-width:0.25;"/>
<line x1="204.500000" y1="48.080000" x2="208.500000" y2="48.080000"  style="stroke:black; stroke-linecap:round; stroke-width:0.25;"/>
<line x1="232.500000" y1="44.080000" x2="236.500000" y2="44.080000"  style="stroke:black; stroke-linecap:round; stroke-width:0.25;"/>
<line x1="236.500000" y1="44.000000" x2="244.500000" y2="44.000000"  style="stroke:black; stroke-linecap:round; stroke-width:0.25;"/>
<line x1="236.500000" y1="44.080000" x2="236.500000" y2="44.000000"  style="stroke:black; stroke-linecap:round; stroke-width:0.25;"/>
<line x1="236.500000" y1="44.080000" x2="236.500000" y2="44.080000"  style="stroke:black; stroke-linecap:round; stroke-width:0.25;"/>
<line x1="244.500000" y1="44.000000" x2="248.500000" y2="44.000000"  style="stroke:black; stroke-linecap:round; stroke-width:0.25;"/>
<line x1="248.500000" y1="44.000000" x2="252.500000" y2="44.000000"  style="stroke:black; stroke-linecap:round; stroke-width:0.25;"/>
<line x1="252.500000" y1="44.000000" x2="262.500000" y2="44.000000"  style="stroke:black; stroke-linecap:round; stroke-width:0.25;"/>
</svg>
