<?xml version="1.0"?>
<svg xmlns="http://www.w3.org/2000/svg" xmlns:xlink="http://www.w3.org/1999/xlink" viewBox="0 0 252.500000 228.000000" width="126.250000mm" height="114.000000mm" version="1.1">
<a xlink:href="loop-0x6000196a2be0.svg">
<rect x="0.000000" y="0.000000" width="251.500000" height="227.000000" rx="0" ry="0" style="stroke:#000000;fill:#FFFFFF;"/>
</a>
<text x="10.000000" y="7.000000" font-family="Verdana" font-size="7"></text>
<rect x="54.250000" y="34.000000" width="24.000000" height="24.000000" rx="0" ry="0" style="stroke:#000000;fill:#FFFFFF;"/>
<text x="66.250000" y="48.000000" font-family="Verdana" font-size="7" text-anchor="middle" fill="#000000">0</text>
<circle cx="56.250000" cy="36.000000" r="1"/>
<line x1="45.250000" y1="25.000000" x2="45.250000" y2="67.000000"  style="stroke: black; stroke-linecap:round; stroke-width:0.25; stroke-dasharray:3,3;"/>
<line x1="45.250000" y1="67.000000" x2="87.250000" y2="67.000000"  style="stroke: black; stroke-linecap:round; stroke-width:0.25; stroke-dasharray:3,3;"/>
<line x1="87.250000" y1="67.000000" x2="87.250000" y2="25.000000"  style="stroke: black; stroke-linecap:round; stroke-width:0.25; stroke-dasharray:3,3;"/>
<line x1="45.250000" y1="25.000000" x2="50.250000" y2="25.000000"  style="stroke: black; stroke-linecap:round; stroke-width:0.25; stroke-dasharray:3,3;"/>
<line x1="69.600000" y1="25.000000" x2="87.250000" y2="25.000000"  style="stroke: black; stroke-linecap:round; stroke-width:0.25; stroke-dasharray:3,3;"/>
<text x="50.250000" y="27.000000" font-family="Verdana" font-size="7">SAFE</text>
<a xlink:href="twoPIforT-0x6000056ac900.svg">
<rect x="46.900000" y="76.000000" width="38.700000" height="24.000000" rx="0" ry="0" style="stroke:#000000;fill:#FFFFFF;"/>
</a>
<a xlink:href="twoPIforT-0x6000056ac900.svg">
<text x="66.250000" y="90.000000" font-family="Verdana" font-size="7" text-anchor="middle" fill="#000000">twoPIforT</text>
</a>
<circle cx="48.900000" cy="78.000000" r="1"/>
<rect x="104.250000" y="50.000000" width="24.000000" height="24.000000" rx="0" ry="0" style="stroke:#000000;fill:#FFFFFF;"/>
<text x="116.250000" y="64.000000" font-family="Verdana" font-size="7" text-anchor="middle" fill="#000000">-</text>
<circle cx="106.250000" cy="52.000000" r="1"/>
<line x1="101.250000" y1="57.000000" x2="104.250000" y2="58.000000"  transform="rotate(0.000000,104.250000,58.000000)" style="stroke: black; stroke-width:0.25;"/>
<line x1="101.250000" y1="59.000000" x2="104.250000" y2="58.000000"  transform="rotate(0.000000,104.250000,58.000000)" style="stroke: black; stroke-width:0.25;"/>
<line x1="101.250000" y1="65.000000" x2="104.250000" y2="66.000000"  transform="rotate(0.000000,104.250000,66.000000)" style="stroke: black; stroke-width:0.25;"/>
<line x1="101.250000" y1="67.000000" x2="104.250000" y2="66.000000"  transform="rotate(0.000000,104.250000,66.000000)" style="stroke: black; stroke-width:0.25;"/>
<rect x="34.000000" y="118.000000" width="64.500000" height="24.000000" rx="0" ry="0" style="stroke:#000000;fill:#FFFFFF;"/>
<text x="66.250000" y="132.000000" font-family="Verdana" font-size="7" text-anchor="middle" fill="#000000">1.1920929e-07f</text>
<circle cx="36.000000" cy="120.000000" r="1"/>
<line x1="25.000000" y1="109.000000" x2="25.000000" y2="151.000000"  style="stroke: black; stroke-linecap:round; stroke-width:0.25; stroke-dasharray:3,3;"/>
<line x1="25.000000" y1="151.000000" x2="107.500000" y2="151.000000"  style="stroke: black; stroke-linecap:round; stroke-width:0.25; stroke-dasharray:3,3;"/>
<line x1="107.500000" y1="151.000000" x2="107.500000" y2="109.000000"  style="stroke: black; stroke-linecap:round; stroke-width:0.25; stroke-dasharray:3,3;"/>
<line x1="25.000000" y1="109.000000" x2="30.000000" y2="109.000000"  style="stroke: black; stroke-linecap:round; stroke-width:0.25; stroke-dasharray:3,3;"/>
<line x1="59.025000" y1="109.000000" x2="107.500000" y2="109.000000"  style="stroke: black; stroke-linecap:round; stroke-width:0.25; stroke-dasharray:3,3;"/>
<text x="30.000000" y="111.000000" font-family="Verdana" font-size="7">EPSILON</text>
<rect x="53.350000" y="170.000000" width="25.800000" height="24.000000" rx="0" ry="0" style="stroke:#000000;fill:#FFFFFF;"/>
<text x="66.250000" y="184.000000" font-family="Verdana" font-size="7" text-anchor="middle" fill="#000000">0.4f</text>
<circle cx="55.350000" cy="172.000000" r="1"/>
<line x1="44.350000" y1="161.000000" x2="44.350000" y2="203.000000"  style="stroke: black; stroke-linecap:round; stroke-width:0.25; stroke-dasharray:3,3;"/>
<line x1="44.350000" y1="203.000000" x2="88.150000" y2="203.000000"  style="stroke: black; stroke-linecap:round; stroke-width:0.25; stroke-dasharray:3,3;"/>
<line x1="88.150000" y1="203.000000" x2="88.150000" y2="161.000000"  style="stroke: black; stroke-linecap:round; stroke-width:0.25; stroke-dasharray:3,3;"/>
<line x1="44.350000" y1="161.000000" x2="49.350000" y2="161.000000"  style="stroke: black; stroke-linecap:round; stroke-width:0.25; stroke-dasharray:3,3;"/>
<line x1="88.150000" y1="161.000000" x2="88.150000" y2="161.000000"  style="stroke: black; stroke-linecap:round; stroke-width:0.25; stroke-dasharray:3,3;"/>
<text x="49.350000" y="163.000000" font-family="Verdana" font-size="7">fDev(0.4f)(x107)</text>
<rect x="124.500000" y="144.000000" width="24.000000" height="24.000000" rx="0" ry="0" style="stroke:#000000;fill:#FFFFFF;"/>
<text x="136.500000" y="158.000000" font-family="Verdana" font-size="7" text-anchor="middle" fill="#000000">max</text>
<circle cx="126.500000" cy="146.000000" r="1"/>
<line x1="121.500000" y1="151.000000" x2="124.500000" y2="152.000000"  transform="rotate(0.000000,124.500000,152.000000)" style="stroke: black; stroke-width:0.25;"/>
<line x1="121.500000" y1="153.000000" x2="124.500000" y2="152.000000"  transform="rotate(0.000000,124.500000,152.000000)" style="stroke: black; stroke-width:0.25;"/>
<line x1="121.500000" y1="159.000000" x2="124.500000" y2="160.000000"  transform="rotate(0.000000,124.500000,160.000000)" style="stroke: black; stroke-width:0.25;"/>
<line x1="121.500000" y1="161.000000" x2="124.500000" y2="160.000000"  transform="rotate(0.000000,124.500000,160.000000)" style="stroke: black; stroke-width:0.25;"/>
<rect x="164.500000" y="102.000000" width="24.000000" height="24.000000" rx="0" ry="0" style="stroke:#000000;fill:#FFFFFF;"/>
<text x="176.500000" y="116.000000" font-family="Verdana" font-size="7" text-anchor="middle" fill="#000000">/</text>
<circle cx="166.500000" cy="104.000000" r="1"/>
<line x1="161.500000" y1="109.000000" x2="164.500000" y2="110.000000"  transform="rotate(0.000000,164.500000,110.000000)" style="stroke: black; stroke-width:0.25;"/>
<line x1="161.500000" y1="111.000000" x2="164.500000" y2="110.000000"  transform="rotate(0.000000,164.500000,110.000000)" style="stroke: black; stroke-width:0.25;"/>
<line x1="161.500000" y1="117.000000" x2="164.500000" y2="118.000000"  transform="rotate(0.000000,164.500000,118.000000)" style="stroke: black; stroke-width:0.25;"/>
<line x1="161.500000" y1="119.000000" x2="164.500000" y2="118.000000"  transform="rotate(0.000000,164.500000,118.000000)" style="stroke: black; stroke-width:0.25;"/>
<rect x="196.500000" y="102.000000" width="24.000000" height="24.000000" rx="0" ry="0" style="stroke:#000000;fill:#FFFFFF;"/>
<text x="208.500000" y="116.000000" font-family="Verdana" font-size="7" text-anchor="middle" fill="#000000">exp</text>
<circle cx="198.500000" cy="104.000000" r="1"/>
<line x1="193.500000" y1="113.000000" x2="196.500000" y2="114.000000"  transform="rotate(0.000000,196.500000,114.000000)" style="stroke: black; stroke-width:0.25;"/>
<line x1="193.500000" y1="115.000000" x2="196.500000" y2="114.000000"  transform="rotate(0.000000,196.500000,114.000000)" style="stroke: black; stroke-width:0.25;"/>
<line x1="15.000000" y1="15.000000" x2="15.000000" y2="213.000000"  style="stroke: black; stroke-linecap:round; stroke-width:0.25; stroke-dasharray:3,3;"/>
<line x1="15.000000" y1="213.000000" x2="237.500000" y2="213.000000"  style="stroke: black; stroke-linecap:round; stroke-width:0.25; stroke-dasharray:3,3;"/>
<line x1="237.500000" y1="213.000000" x2="237.500000" y2="15.000000"  style="stroke: black; stroke-linecap:round; stroke-width:0.25; stroke-dasharray:3,3;"/>
<line x1="15.000000" y1="15.000000" x2="20.000000" y2="15.000000"  style="stroke: black; stroke-linecap:round; stroke-width:0.25; stroke-dasharray:3,3;"/>
<line x1="42.575000" y1="15.000000" x2="237.500000" y2="15.000000"  style="stroke: black; stroke-linecap:round; stroke-width:0.25; stroke-dasharray:3,3;"/>
<text x="20.000000" y="17.000000" font-family="Verdana" font-size="7">coeff</text>
<line x1="239.500000" y1="113.000000" x2="242.500000" y2="114.000000"  transform="rotate(0.000000,242.500000,114.000000)" style="stroke: black; stroke-width:0.25;"/>
<line x1="239.500000" y1="115.000000" x2="242.500000" y2="114.000000"  transform="rotate(0.000000,242.500000,114.000000)" style="stroke: black; stroke-width:0.25;"/>
<line x1="78.250000" y1="46.000000" x2="82.250000" y2="46.000000"  style="stroke:black; stroke-linecap:round; stroke-width:0.25;"/>
<line x1="79.150000" y1="182.000000" x2="83.150000" y2="182.000000"  style="stroke:black; stroke-linecap:round; stroke-width:0.25;"/>
<line x1="82.250000" y1="46.000000" x2="92.250000" y2="46.000000"  style="stroke:black; stroke-linecap:round; stroke-width:0.25;"/>
<line x1="83.150000" y1="182.000000" x2="93.150000" y2="182.000000"  style="stroke:black; stroke-linecap:round; stroke-width:0.25;"/>
<line x1="85.600000" y1="88.000000" x2="89.600000" y2="88.000000"  style="stroke:black; stroke-linecap:round; stroke-width:0.25;"/>
<line x1="89.600000" y1="88.000000" x2="92.250000" y2="88.000000"  style="stroke:black; stroke-linecap:round; stroke-width:0.25;"/>
<line x1="92.250000" y1="46.000000" x2="100.250000" y2="46.000000"  style="stroke:black; stroke-linecap:round; stroke-width:0.25;"/>
<line x1="92.250000" y1="66.000000" x2="100.250000" y2="66.000000"  style="stroke:black; stroke-linecap:round; stroke-width:0.25;"/>
<line x1="92.250000" y1="88.000000" x2="92.250000" y2="66.000000"  style="stroke:black; stroke-linecap:round; stroke-width:0.25;"/>
<line x1="92.250000" y1="88.000000" x2="92.250000" y2="88.000000"  style="stroke:black; stroke-linecap:round; stroke-width:0.25;"/>
<line x1="93.150000" y1="182.000000" x2="112.500000" y2="182.000000"  style="stroke:black; stroke-linecap:round; stroke-width:0.25;"/>
<line x1="98.500000" y1="130.000000" x2="102.500000" y2="130.000000"  style="stroke:black; stroke-linecap:round; stroke-width:0.25;"/>
<line x1="100.250000" y1="46.000000" x2="100.250000" y2="58.000000"  style="stroke:black; stroke-linecap:round; stroke-width:0.25;"/>
<line x1="100.250000" y1="58.000000" x2="100.250000" y2="58.000000"  style="stroke:black; stroke-linecap:round; stroke-width:0.25;"/>
<line x1="100.250000" y1="58.000000" x2="104.250000" y2="58.000000"  style="stroke:black; stroke-linecap:round; stroke-width:0.25;"/>
<line x1="100.250000" y1="66.000000" x2="104.250000" y2="66.000000"  style="stroke:black; stroke-linecap:round; stroke-width:0.25;"/>
<line x1="102.500000" y1="130.000000" x2="112.500000" y2="130.000000"  style="stroke:black; stroke-linecap:round; stroke-width:0.25;"/>
<line x1="112.500000" y1="130.000000" x2="120.500000" y2="130.000000"  style="stroke:black; stroke-linecap:round; stroke-width:0.25;"/>
<line x1="112.500000" y1="160.000000" x2="120.500000" y2="160.000000"  style="stroke:black; stroke-linecap:round; stroke-width:0.25;"/>
<line x1="112.500000" y1="182.000000" x2="112.500000" y2="160.000000"  style="stroke:black; stroke-linecap:round; stroke-width:0.25;"/>
<line x1="112.500000" y1="182.000000" x2="112.500000" y2="182.000000"  style="stroke:black; stroke-linecap:round; stroke-width:0.25;"/>
<line x1="120.500000" y1="130.000000" x2="120.500000" y2="152.000000"  style="stroke:black; stroke-linecap:round; stroke-width:0.25;"/>
<line x1="120.500000" y1="152.000000" x2="120.500000" y2="152.000000"  style="stroke:black; stroke-linecap:round; stroke-width:0.25;"/>
<line x1="120.500000" y1="152.000000" x2="124.500000" y2="152.000000"  style="stroke:black; stroke-linecap:round; stroke-width:0.25;"/>
<line x1="120.500000" y1="160.000000" x2="124.500000" y2="160.000000"  style="stroke:black; stroke-linecap:round; stroke-width:0.25;"/>
<line x1="128.250000" y1="62.000000" x2="132.250000" y2="62.000000"  style="stroke:black; stroke-linecap:round; stroke-width:0.25;"/>
<line x1="132.250000" y1="62.000000" x2="152.500000" y2="62.000000"  style="stroke:black; stroke-linecap:round; stroke-width:0.25;"/>
<line x1="148.500000" y1="156.000000" x2="152.500000" y2="156.000000"  style="stroke:black; stroke-linecap:round; stroke-width:0.25;"/>
<line x1="152.500000" y1="62.000000" x2="160.500000" y2="62.000000"  style="stroke:black; stroke-linecap:round; stroke-width:0.25;"/>
<line x1="152.500000" y1="118.000000" x2="160.500000" y2="118.000000"  style="stroke:black; stroke-linecap:round; stroke-width:0.25;"/>
<line x1="152.500000" y1="156.000000" x2="152.500000" y2="118.000000"  style="stroke:black; stroke-linecap:round; stroke-width:0.25;"/>
<line x1="152.500000" y1="156.000000" x2="152.500000" y2="156.000000"  style="stroke:black; stroke-linecap:round; stroke-width:0.25;"/>
<line x1="160.500000" y1="62.000000" x2="160.500000" y2="110.000000"  style="stroke:black; stroke-linecap:round; stroke-width:0.25;"/>
<line x1="160.500000" y1="110.000000" x2="160.500000" y2="110.000000"  style="stroke:black; stroke-linecap:round; stroke-width:0.25;"/>
<line x1="160.500000" y1="110.000000" x2="164.500000" y2="110.000000"  style="stroke:black; stroke-linecap:round; stroke-width:0.25;"/>
<line x1="160.500000" y1="118.000000" x2="164.500000" y2="118.000000"  style="stroke:black; stroke-linecap:round; stroke-width:0.25;"/>
<line x1="188.500000" y1="114.000000" x2="192.500000" y2="114.000000"  style="stroke:black; stroke-linecap:round; stroke-width:0.25;"/>
<line x1="192.500000" y1="114.000000" x2="192.500000" y2="114.000000"  style="stroke:black; stroke-linecap:round; stroke-width:0.25;"/>
<line x1="192.500000" y1="114.000000" x2="196.500000" y2="114.000000"  style="stroke:black; stroke-linecap:round; stroke-width:0.25;"/>
<line x1="220.500000" y1="114.000000" x2="224.500000" y2="114.000000"  style="stroke:black; stroke-linecap:round; stroke-width:0.25;"/>
<line x1="224.500000" y1="114.000000" x2="224.500000" y2="114.000000"  style="stroke:black; stroke-linecap:round; stroke-width:0.25;"/>
<line x1="224.500000" y1="114.000000" x2="228.500000" y2="114.000000"  style="stroke:black; stroke-linecap:round; stroke-width:0.25;"/>
<line x1="228.500000" y1="114.000000" x2="232.500000" y2="114.000000"  style="stroke:black; stroke-linecap:round; stroke-width:0.25;"/>
<line x1="232.500000" y1="114.000000" x2="242.500000" y2="114.000000"  style="stroke:black; stroke-linecap:round; stroke-width:0.25;"/>
</svg>
