<?xml version="1.0"?>
<svg xmlns="http://www.w3.org/2000/svg" xmlns:xlink="http://www.w3.org/1999/xlink" viewBox="0 0 522.900000 176.000000" width="261.450000mm" height="88.000000mm" version="1.1">
<a xlink:href="chord2-0x60000d46c3f0.svg">
<rect x="0.000000" y="0.000000" width="521.900000" height="175.000000" rx="0" ry="0" style="stroke:#000000;fill:#FFFFFF;"/>
</a>
<text x="10.000000" y="7.000000" font-family="Verdana" font-size="7"></text>
<a xlink:href="dflcVARfir-0x60000d79f570.svg">
<rect x="76.000000" y="32.000000" width="129.000000" height="24.000000" rx="0" ry="0" style="stroke:#000000;fill:#FFFFFF;"/>
</a>
<a xlink:href="dflcVARfir-0x60000d79f570.svg">
<text x="140.500000" y="46.000000" font-family="Verdana" font-size="7" text-anchor="middle" fill="#000000">dflcVARfir(0....) : /) : pow)</text>
</a>
<circle cx="78.000000" cy="34.000000" r="1"/>
<line x1="73.000000" y1="43.000000" x2="76.000000" y2="44.000000"  transform="rotate(0.000000,76.000000,44.000000)" style="stroke: black; stroke-width:0.25;"/>
<line x1="73.000000" y1="45.000000" x2="76.000000" y2="44.000000"  transform="rotate(0.000000,76.000000,44.000000)" style="stroke: black; stroke-width:0.25;"/>
<a xlink:href="dflcVARfir-0x60000d7cd4d0.svg">
<rect x="76.000000" y="64.000000" width="129.000000" height="24.000000" rx="0" ry="0" style="stroke:#000000;fill:#FFFFFF;"/>
</a>
<a xlink:href="dflcVARfir-0x60000d7cd4d0.svg">
<text x="140.500000" y="78.000000" font-family="Verdana" font-size="7" text-anchor="middle" fill="#000000">dflcVARfir(0....) : /) : pow)</text>
</a>
<circle cx="78.000000" cy="66.000000" r="1"/>
<line x1="73.000000" y1="75.000000" x2="76.000000" y2="76.000000"  transform="rotate(0.000000,76.000000,76.000000)" style="stroke: black; stroke-width:0.25;"/>
<line x1="73.000000" y1="77.000000" x2="76.000000" y2="76.000000"  transform="rotate(0.000000,76.000000,76.000000)" style="stroke: black; stroke-width:0.25;"/>
<a xlink:href="dflcVARfir-0x60000d43a760.svg">
<rect x="76.000000" y="96.000000" width="129.000000" height="24.000000" rx="0" ry="0" style="stroke:#000000;fill:#FFFFFF;"/>
</a>
<a xlink:href="dflcVARfir-0x60000d43a760.svg">
<text x="140.500000" y="110.000000" font-family="Verdana" font-size="7" text-anchor="middle" fill="#000000">dflcVARfir(0....) : /) : pow)</text>
</a>
<circle cx="78.000000" cy="98.000000" r="1"/>
<line x1="73.000000" y1="107.000000" x2="76.000000" y2="108.000000"  transform="rotate(0.000000,76.000000,108.000000)" style="stroke: black; stroke-width:0.25;"/>
<line x1="73.000000" y1="109.000000" x2="76.000000" y2="108.000000"  transform="rotate(0.000000,76.000000,108.000000)" style="stroke: black; stroke-width:0.25;"/>
<a xlink:href="dflcVARfir-0x60000d467210.svg">
<rect x="76.000000" y="128.000000" width="129.000000" height="24.000000" rx="0" ry="0" style="stroke:#000000;fill:#FFFFFF;"/>
</a>
<a xlink:href="dflcVARfir-0x60000d467210.svg">
<text x="140.500000" y="142.000000" font-family="Verdana" font-size="7" text-anchor="middle" fill="#000000">dflcVARfir(0....) : /) : pow)</text>
</a>
<circle cx="78.000000" cy="130.000000" r="1"/>
<line x1="73.000000" y1="139.000000" x2="76.000000" y2="140.000000"  transform="rotate(0.000000,76.000000,140.000000)" style="stroke: black; stroke-width:0.25;"/>
<line x1="73.000000" y1="141.000000" x2="76.000000" y2="140.000000"  transform="rotate(0.000000,76.000000,140.000000)" style="stroke: black; stroke-width:0.25;"/>
<a xlink:href="apfSeries-0x6000054fdcb0.svg">
<rect x="269.000000" y="48.000000" width="141.900000" height="24.000000" rx="0" ry="0" style="stroke:#000000;fill:#FFFFFF;"/>
</a>
<a xlink:href="apfSeries-0x6000054fdcb0.svg">
<text x="339.950000" y="62.000000" font-family="Verdana" font-size="7" text-anchor="middle" fill="#000000">apfSeries(0.0...(0.70710677f)(2)</text>
</a>
<circle cx="271.000000" cy="50.000000" r="1"/>
<line x1="266.000000" y1="59.000000" x2="269.000000" y2="60.000000"  transform="rotate(0.000000,269.000000,60.000000)" style="stroke: black; stroke-width:0.25;"/>
<line x1="266.000000" y1="61.000000" x2="269.000000" y2="60.000000"  transform="rotate(0.000000,269.000000,60.000000)" style="stroke: black; stroke-width:0.25;"/>
<rect x="307.050000" y="80.000000" width="25.800000" height="24.000000" rx="0" ry="0" style="stroke:#000000;fill:#FFFFFF;"/>
<text x="319.950000" y="94.000000" font-family="Verdana" font-size="7" text-anchor="middle" fill="#000000">0.3f</text>
<circle cx="309.050000" cy="82.000000" r="1"/>
<a xlink:href="gainReve2-0x60000d46bc30.svg">
<rect x="300.600000" y="112.000000" width="38.700000" height="24.000000" rx="0" ry="0" style="stroke:#000000;fill:#FFFFFF;"/>
</a>
<a xlink:href="gainReve2-0x60000d46bc30.svg">
<text x="319.950000" y="126.000000" font-family="Verdana" font-size="7" text-anchor="middle" fill="#000000">gainReve2</text>
</a>
<circle cx="302.600000" cy="114.000000" r="1"/>
<line x1="297.600000" y1="123.000000" x2="300.600000" y2="124.000000"  transform="rotate(0.000000,300.600000,124.000000)" style="stroke: black; stroke-width:0.25;"/>
<line x1="297.600000" y1="125.000000" x2="300.600000" y2="124.000000"  transform="rotate(0.000000,300.600000,124.000000)" style="stroke: black; stroke-width:0.25;"/>
<rect x="355.300000" y="96.000000" width="24.000000" height="24.000000" rx="0" ry="0" style="stroke:#000000;fill:#FFFFFF;"/>
<text x="367.300000" y="110.000000" font-family="Verdana" font-size="7" text-anchor="middle" fill="#000000">*</text>
<circle cx="357.300000" cy="98.000000" r="1"/>
<line x1="352.300000" y1="103.000000" x2="355.300000" y2="104.000000"  transform="rotate(0.000000,355.300000,104.000000)" style="stroke: black; stroke-width:0.25;"/>
<line x1="352.300000" y1="105.000000" x2="355.300000" y2="104.000000"  transform="rotate(0.000000,355.300000,104.000000)" style="stroke: black; stroke-width:0.25;"/>
<line x1="352.300000" y1="111.000000" x2="355.300000" y2="112.000000"  transform="rotate(0.000000,355.300000,112.000000)" style="stroke: black; stroke-width:0.25;"/>
<line x1="352.300000" y1="113.000000" x2="355.300000" y2="112.000000"  transform="rotate(0.000000,355.300000,112.000000)" style="stroke: black; stroke-width:0.25;"/>
<rect x="426.900000" y="80.000000" width="24.000000" height="24.000000" rx="0" ry="0" style="stroke:#000000;fill:#FFFFFF;"/>
<text x="438.900000" y="94.000000" font-family="Verdana" font-size="7" text-anchor="middle" fill="#000000">*</text>
<circle cx="428.900000" cy="82.000000" r="1"/>
<line x1="423.900000" y1="87.000000" x2="426.900000" y2="88.000000"  transform="rotate(0.000000,426.900000,88.000000)" style="stroke: black; stroke-width:0.25;"/>
<line x1="423.900000" y1="89.000000" x2="426.900000" y2="88.000000"  transform="rotate(0.000000,426.900000,88.000000)" style="stroke: black; stroke-width:0.25;"/>
<line x1="423.900000" y1="95.000000" x2="426.900000" y2="96.000000"  transform="rotate(0.000000,426.900000,96.000000)" style="stroke: black; stroke-width:0.25;"/>
<line x1="423.900000" y1="97.000000" x2="426.900000" y2="96.000000"  transform="rotate(0.000000,426.900000,96.000000)" style="stroke: black; stroke-width:0.25;"/>
<rect x="466.900000" y="76.000000" width="24.000000" height="24.000000" rx="0" ry="0" style="stroke:#000000;fill:#FFFFFF;"/>
<text x="478.900000" y="90.000000" font-family="Verdana" font-size="7" text-anchor="middle" fill="#000000">+</text>
<circle cx="468.900000" cy="78.000000" r="1"/>
<line x1="463.900000" y1="83.000000" x2="466.900000" y2="84.000000"  transform="rotate(0.000000,466.900000,84.000000)" style="stroke: black; stroke-width:0.25;"/>
<line x1="463.900000" y1="85.000000" x2="466.900000" y2="84.000000"  transform="rotate(0.000000,466.900000,84.000000)" style="stroke: black; stroke-width:0.25;"/>
<line x1="463.900000" y1="91.000000" x2="466.900000" y2="92.000000"  transform="rotate(0.000000,466.900000,92.000000)" style="stroke: black; stroke-width:0.25;"/>
<line x1="463.900000" y1="93.000000" x2="466.900000" y2="92.000000"  transform="rotate(0.000000,466.900000,92.000000)" style="stroke: black; stroke-width:0.25;"/>
<line x1="15.000000" y1="15.000000" x2="15.000000" y2="161.000000"  style="stroke: black; stroke-linecap:round; stroke-width:0.25; stroke-dasharray:3,3;"/>
<line x1="15.000000" y1="161.000000" x2="507.900000" y2="161.000000"  style="stroke: black; stroke-linecap:round; stroke-width:0.25; stroke-dasharray:3,3;"/>
<line x1="507.900000" y1="161.000000" x2="507.900000" y2="15.000000"  style="stroke: black; stroke-linecap:round; stroke-width:0.25; stroke-dasharray:3,3;"/>
<line x1="15.000000" y1="15.000000" x2="20.000000" y2="15.000000"  style="stroke: black; stroke-linecap:round; stroke-width:0.25; stroke-dasharray:3,3;"/>
<line x1="119.975000" y1="15.000000" x2="507.900000" y2="15.000000"  style="stroke: black; stroke-linecap:round; stroke-width:0.25; stroke-dasharray:3,3;"/>
<text x="20.000000" y="17.000000" font-family="Verdana" font-size="7">combApf(x80 :..._ : min) : *)</text>
<line x1="509.900000" y1="87.000000" x2="512.900000" y2="88.000000"  transform="rotate(0.000000,512.900000,88.000000)" style="stroke: black; stroke-width:0.25;"/>
<line x1="509.900000" y1="89.000000" x2="512.900000" y2="88.000000"  transform="rotate(0.000000,512.900000,88.000000)" style="stroke: black; stroke-width:0.25;"/>
<line x1="10.000000" y1="88.000000" x2="20.000000" y2="88.000000"  style="stroke:black; stroke-linecap:round; stroke-width:0.25;"/>
<line x1="20.000000" y1="88.000000" x2="24.000000" y2="88.000000"  style="stroke:black; stroke-linecap:round; stroke-width:0.25;"/>
<line x1="24.000000" y1="88.000000" x2="28.000000" y2="88.000000"  style="stroke:black; stroke-linecap:round; stroke-width:0.25;"/>
<line x1="28.000000" y1="88.000000" x2="28.000000" y2="88.000000"  style="stroke:black; stroke-linecap:round; stroke-width:0.25;"/>
<line x1="28.000000" y1="88.000000" x2="32.000000" y2="88.000000"  style="stroke:black; stroke-linecap:round; stroke-width:0.25;"/>
<line x1="32.000000" y1="88.000000" x2="36.000000" y2="88.000000"  style="stroke:black; stroke-linecap:round; stroke-width:0.25;"/>
<line x1="36.000000" y1="88.000000" x2="72.000000" y2="24.000000"  style="stroke:black; stroke-linecap:round; stroke-width:0.25;"/>
<line x1="36.000000" y1="88.000000" x2="72.000000" y2="44.000000"  style="stroke:black; stroke-linecap:round; stroke-width:0.25;"/>
<line x1="36.000000" y1="88.000000" x2="72.000000" y2="76.000000"  style="stroke:black; stroke-linecap:round; stroke-width:0.25;"/>
<line x1="36.000000" y1="88.000000" x2="72.000000" y2="108.000000"  style="stroke:black; stroke-linecap:round; stroke-width:0.25;"/>
<line x1="36.000000" y1="88.000000" x2="72.000000" y2="140.000000"  style="stroke:black; stroke-linecap:round; stroke-width:0.25;"/>
<line x1="72.000000" y1="24.000000" x2="263.450000" y2="24.000000"  style="stroke:black; stroke-linecap:round; stroke-width:0.25;"/>
<line x1="72.000000" y1="44.000000" x2="76.000000" y2="44.000000"  style="stroke:black; stroke-linecap:round; stroke-width:0.25;"/>
<line x1="72.000000" y1="76.000000" x2="76.000000" y2="76.000000"  style="stroke:black; stroke-linecap:round; stroke-width:0.25;"/>
<line x1="72.000000" y1="108.000000" x2="76.000000" y2="108.000000"  style="stroke:black; stroke-linecap:round; stroke-width:0.25;"/>
<line x1="72.000000" y1="140.000000" x2="76.000000" y2="140.000000"  style="stroke:black; stroke-linecap:round; stroke-width:0.25;"/>
<line x1="205.000000" y1="44.000000" x2="209.000000" y2="44.000000"  style="stroke:black; stroke-linecap:round; stroke-width:0.25;"/>
<line x1="205.000000" y1="76.000000" x2="209.000000" y2="76.000000"  style="stroke:black; stroke-linecap:round; stroke-width:0.25;"/>
<line x1="205.000000" y1="108.000000" x2="209.000000" y2="108.000000"  style="stroke:black; stroke-linecap:round; stroke-width:0.25;"/>
<line x1="205.000000" y1="140.000000" x2="209.000000" y2="140.000000"  style="stroke:black; stroke-linecap:round; stroke-width:0.25;"/>
<line x1="209.000000" y1="44.000000" x2="265.000000" y2="60.000000"  style="stroke:black; stroke-linecap:round; stroke-width:0.25;"/>
<line x1="209.000000" y1="76.000000" x2="265.000000" y2="124.000000"  style="stroke:black; stroke-linecap:round; stroke-width:0.25;"/>
<line x1="209.000000" y1="108.000000" x2="265.000000" y2="60.000000"  style="stroke:black; stroke-linecap:round; stroke-width:0.25;"/>
<line x1="209.000000" y1="140.000000" x2="265.000000" y2="124.000000"  style="stroke:black; stroke-linecap:round; stroke-width:0.25;"/>
<line x1="263.450000" y1="24.000000" x2="454.900000" y2="24.000000"  style="stroke:black; stroke-linecap:round; stroke-width:0.25;"/>
<line x1="265.000000" y1="60.000000" x2="269.000000" y2="60.000000"  style="stroke:black; stroke-linecap:round; stroke-width:0.25;"/>
<line x1="265.000000" y1="124.000000" x2="296.600000" y2="124.000000"  style="stroke:black; stroke-linecap:round; stroke-width:0.25;"/>
<line x1="296.600000" y1="124.000000" x2="300.600000" y2="124.000000"  style="stroke:black; stroke-linecap:round; stroke-width:0.25;"/>
<line x1="332.850000" y1="92.000000" x2="336.850000" y2="92.000000"  style="stroke:black; stroke-linecap:round; stroke-width:0.25;"/>
<line x1="336.850000" y1="92.000000" x2="343.300000" y2="92.000000"  style="stroke:black; stroke-linecap:round; stroke-width:0.25;"/>
<line x1="339.300000" y1="124.000000" x2="343.300000" y2="124.000000"  style="stroke:black; stroke-linecap:round; stroke-width:0.25;"/>
<line x1="343.300000" y1="92.000000" x2="351.300000" y2="92.000000"  style="stroke:black; stroke-linecap:round; stroke-width:0.25;"/>
<line x1="343.300000" y1="112.000000" x2="351.300000" y2="112.000000"  style="stroke:black; stroke-linecap:round; stroke-width:0.25;"/>
<line x1="343.300000" y1="124.000000" x2="343.300000" y2="112.000000"  style="stroke:black; stroke-linecap:round; stroke-width:0.25;"/>
<line x1="343.300000" y1="124.000000" x2="343.300000" y2="124.000000"  style="stroke:black; stroke-linecap:round; stroke-width:0.25;"/>
<line x1="351.300000" y1="92.000000" x2="351.300000" y2="104.000000"  style="stroke:black; stroke-linecap:round; stroke-width:0.25;"/>
<line x1="351.300000" y1="104.000000" x2="351.300000" y2="104.000000"  style="stroke:black; stroke-linecap:round; stroke-width:0.25;"/>
<line x1="351.300000" y1="104.000000" x2="355.300000" y2="104.000000"  style="stroke:black; stroke-linecap:round; stroke-width:0.25;"/>
<line x1="351.300000" y1="112.000000" x2="355.300000" y2="112.000000"  style="stroke:black; stroke-linecap:round; stroke-width:0.25;"/>
<line x1="379.300000" y1="108.000000" x2="383.300000" y2="108.000000"  style="stroke:black; stroke-linecap:round; stroke-width:0.25;"/>
<line x1="383.300000" y1="108.000000" x2="414.900000" y2="108.000000"  style="stroke:black; stroke-linecap:round; stroke-width:0.25;"/>
<line x1="410.900000" y1="60.000000" x2="414.900000" y2="60.000000"  style="stroke:black; stroke-linecap:round; stroke-width:0.25;"/>
<line x1="414.900000" y1="60.000000" x2="422.900000" y2="60.000000"  style="stroke:black; stroke-linecap:round; stroke-width:0.25;"/>
<line x1="414.900000" y1="96.000000" x2="422.900000" y2="96.000000"  style="stroke:black; stroke-linecap:round; stroke-width:0.25;"/>
<line x1="414.900000" y1="108.000000" x2="414.900000" y2="96.000000"  style="stroke:black; stroke-linecap:round; stroke-width:0.25;"/>
<line x1="414.900000" y1="108.000000" x2="414.900000" y2="108.000000"  style="stroke:black; stroke-linecap:round; stroke-width:0.25;"/>
<line x1="422.900000" y1="60.000000" x2="422.900000" y2="88.000000"  style="stroke:black; stroke-linecap:round; stroke-width:0.25;"/>
<line x1="422.900000" y1="88.000000" x2="422.900000" y2="88.000000"  style="stroke:black; stroke-linecap:round; stroke-width:0.25;"/>
<line x1="422.900000" y1="88.000000" x2="426.900000" y2="88.000000"  style="stroke:black; stroke-linecap:round; stroke-width:0.25;"/>
<line x1="422.900000" y1="96.000000" x2="426.900000" y2="96.000000"  style="stroke:black; stroke-linecap:round; stroke-width:0.25;"/>
<line x1="450.900000" y1="92.000000" x2="454.900000" y2="92.000000"  style="stroke:black; stroke-linecap:round; stroke-width:0.25;"/>
<line x1="454.900000" y1="24.000000" x2="462.900000" y2="24.000000"  style="stroke:black; stroke-linecap:round; stroke-width:0.25;"/>
<line x1="454.900000" y1="92.000000" x2="462.900000" y2="92.000000"  style="stroke:black; stroke-linecap:round; stroke-width:0.25;"/>
<line x1="462.900000" y1="24.000000" x2="462.900000" y2="84.000000"  style="stroke:black; stroke-linecap:round; stroke-width:0.25;"/>
<line x1="462.900000" y1="84.000000" x2="462.900000" y2="84.000000"  style="stroke:black; stroke-linecap:round; stroke-width:0.25;"/>
<line x1="462.900000" y1="84.000000" x2="466.900000" y2="84.000000"  style="stroke:black; stroke-linecap:round; stroke-width:0.25;"/>
<line x1="462.900000" y1="92.000000" x2="466.900000" y2="92.000000"  style="stroke:black; stroke-linecap:round; stroke-width:0.25;"/>
<line x1="490.900000" y1="88.000000" x2="494.900000" y2="88.000000"  style="stroke:black; stroke-linecap:round; stroke-width:0.25;"/>
<line x1="494.900000" y1="88.000000" x2="494.900000" y2="88.000000"  style="stroke:black; stroke-linecap:round; stroke-width:0.25;"/>
<line x1="494.900000" y1="88.000000" x2="498.900000" y2="88.000000"  style="stroke:black; stroke-linecap:round; stroke-width:0.25;"/>
<line x1="498.900000" y1="88.000000" x2="502.900000" y2="88.000000"  style="stroke:black; stroke-linecap:round; stroke-width:0.25;"/>
<line x1="502.900000" y1="88.000000" x2="512.900000" y2="88.000000"  style="stroke:black; stroke-linecap:round; stroke-width:0.25;"/>
</svg>
