<?xml version="1.0"?>
<svg xmlns="http://www.w3.org/2000/svg" xmlns:xlink="http://www.w3.org/1999/xlink" viewBox="0 0 214.700000 88.000000" width="107.350000mm" height="44.000000mm" version="1.1">
<a xlink:href="frequenzaPicc-0x6000217ef690.svg">
<rect x="0.000000" y="0.000000" width="213.700000" height="87.000000" rx="0" ry="0" style="stroke:#000000;fill:#FFFFFF;"/>
</a>
<text x="10.000000" y="7.000000" font-family="Verdana" font-size="7"></text>
<rect x="48.000000" y="36.000000" width="24.000000" height="24.000000" rx="0" ry="0" style="stroke:#000000;fill:#FFFFFF;"/>
<text x="60.000000" y="50.000000" font-family="Verdana" font-size="7" text-anchor="middle" fill="#000000">+</text>
<circle cx="50.000000" cy="38.000000" r="1"/>
<line x1="45.000000" y1="43.000000" x2="48.000000" y2="44.000000"  transform="rotate(0.000000,48.000000,44.000000)" style="stroke: black; stroke-width:0.25;"/>
<line x1="45.000000" y1="45.000000" x2="48.000000" y2="44.000000"  transform="rotate(0.000000,48.000000,44.000000)" style="stroke: black; stroke-width:0.25;"/>
<line x1="45.000000" y1="51.000000" x2="48.000000" y2="52.000000"  transform="rotate(0.000000,48.000000,52.000000)" style="stroke: black; stroke-width:0.25;"/>
<line x1="45.000000" y1="53.000000" x2="48.000000" y2="52.000000"  transform="rotate(0.000000,48.000000,52.000000)" style="stroke: black; stroke-width:0.25;"/>
<a xlink:href="reset-0x600009451680.svg">
<rect x="88.000000" y="40.000000" width="38.700000" height="24.000000" rx="0" ry="0" style="stroke:#000000;fill:#FFFFFF;"/>
</a>
<a xlink:href="reset-0x600009451680.svg">
<text x="107.350000" y="54.000000" font-family="Verdana" font-size="7" text-anchor="middle" fill="#000000">reset(2)</text>
</a>
<circle cx="90.000000" cy="42.000000" r="1"/>
<rect x="142.700000" y="36.000000" width="24.000000" height="24.000000" rx="0" ry="0" style="stroke:#000000;fill:#FFFFFF;"/>
<text x="154.700000" y="50.000000" font-family="Verdana" font-size="7" text-anchor="middle" fill="#000000">*</text>
<circle cx="144.700000" cy="38.000000" r="1"/>
<line x1="139.700000" y1="43.000000" x2="142.700000" y2="44.000000"  transform="rotate(0.000000,142.700000,44.000000)" style="stroke: black; stroke-width:0.25;"/>
<line x1="139.700000" y1="45.000000" x2="142.700000" y2="44.000000"  transform="rotate(0.000000,142.700000,44.000000)" style="stroke: black; stroke-width:0.25;"/>
<line x1="139.700000" y1="51.000000" x2="142.700000" y2="52.000000"  transform="rotate(0.000000,142.700000,52.000000)" style="stroke: black; stroke-width:0.25;"/>
<line x1="139.700000" y1="53.000000" x2="142.700000" y2="52.000000"  transform="rotate(0.000000,142.700000,52.000000)" style="stroke: black; stroke-width:0.25;"/>
<line x1="168.700000" y1="48.000000" x2="168.700000" y2="44.000000"  style="stroke:black; stroke-linecap:round; stroke-width:0.25;"/>
<line x1="168.700000" y1="44.000000" x2="172.700000" y2="44.000000"  style="stroke:black; stroke-linecap:round; stroke-width:0.25;"/>
<line x1="172.700000" y1="44.000000" x2="172.700000" y2="48.000000"  style="stroke:black; stroke-linecap:round; stroke-width:0.25;"/>
<line x1="15.000000" y1="15.000000" x2="15.000000" y2="73.000000"  style="stroke: black; stroke-linecap:round; stroke-width:0.25; stroke-dasharray:3,3;"/>
<line x1="15.000000" y1="73.000000" x2="199.700000" y2="73.000000"  style="stroke: black; stroke-linecap:round; stroke-width:0.25; stroke-dasharray:3,3;"/>
<line x1="199.700000" y1="73.000000" x2="199.700000" y2="15.000000"  style="stroke: black; stroke-linecap:round; stroke-width:0.25; stroke-dasharray:3,3;"/>
<line x1="15.000000" y1="15.000000" x2="20.000000" y2="15.000000"  style="stroke: black; stroke-linecap:round; stroke-width:0.25; stroke-dasharray:3,3;"/>
<line x1="58.700000" y1="15.000000" x2="199.700000" y2="15.000000"  style="stroke: black; stroke-linecap:round; stroke-width:0.25; stroke-dasharray:3,3;"/>
<text x="20.000000" y="17.000000" font-family="Verdana" font-size="7">counter(2)</text>
<line x1="201.700000" y1="43.000000" x2="204.700000" y2="44.000000"  transform="rotate(0.000000,204.700000,44.000000)" style="stroke: black; stroke-width:0.25;"/>
<line x1="201.700000" y1="45.000000" x2="204.700000" y2="44.000000"  transform="rotate(0.000000,204.700000,44.000000)" style="stroke: black; stroke-width:0.25;"/>
<line x1="10.000000" y1="44.000000" x2="20.000000" y2="44.000000"  style="stroke:black; stroke-linecap:round; stroke-width:0.25;"/>
<line x1="20.000000" y1="44.000000" x2="24.000000" y2="44.000000"  style="stroke:black; stroke-linecap:round; stroke-width:0.25;"/>
<line x1="24.000000" y1="44.000000" x2="28.000000" y2="44.000000"  style="stroke:black; stroke-linecap:round; stroke-width:0.25;"/>
<line x1="28.000000" y1="44.000000" x2="28.000000" y2="44.000000"  style="stroke:black; stroke-linecap:round; stroke-width:0.25;"/>
<line x1="28.000000" y1="44.000000" x2="36.000000" y2="44.000000"  style="stroke:black; stroke-linecap:round; stroke-width:0.25;"/>
<line x1="36.000000" y1="44.000000" x2="36.000000" y2="52.000000"  style="stroke:black; stroke-linecap:round; stroke-width:0.25;"/>
<line x1="36.000000" y1="52.000000" x2="36.000000" y2="52.000000"  style="stroke:black; stroke-linecap:round; stroke-width:0.25;"/>
<line x1="36.000000" y1="52.000000" x2="44.000000" y2="52.000000"  style="stroke:black; stroke-linecap:round; stroke-width:0.25;"/>
<line x1="44.000000" y1="24.000000" x2="44.000000" y2="24.000000"  style="stroke:black; stroke-linecap:round; stroke-width:0.25;"/>
<line x1="44.000000" y1="24.000000" x2="44.000000" y2="44.000000"  style="stroke:black; stroke-linecap:round; stroke-width:0.25;"/>
<line x1="44.000000" y1="44.000000" x2="44.000000" y2="44.000000"  style="stroke:black; stroke-linecap:round; stroke-width:0.25;"/>
<line x1="44.000000" y1="44.000000" x2="48.000000" y2="44.000000"  style="stroke:black; stroke-linecap:round; stroke-width:0.25;"/>
<line x1="44.000000" y1="52.000000" x2="48.000000" y2="52.000000"  style="stroke:black; stroke-linecap:round; stroke-width:0.25;"/>
<line x1="72.000000" y1="48.000000" x2="76.000000" y2="48.000000"  style="stroke:black; stroke-linecap:round; stroke-width:0.25;"/>
<line x1="76.000000" y1="32.000000" x2="84.000000" y2="32.000000"  style="stroke:black; stroke-linecap:round; stroke-width:0.25;"/>
<line x1="76.000000" y1="48.000000" x2="76.000000" y2="32.000000"  style="stroke:black; stroke-linecap:round; stroke-width:0.25;"/>
<line x1="76.000000" y1="48.000000" x2="76.000000" y2="48.000000"  style="stroke:black; stroke-linecap:round; stroke-width:0.25;"/>
<line x1="84.000000" y1="32.000000" x2="107.350000" y2="32.000000"  style="stroke:black; stroke-linecap:round; stroke-width:0.25;"/>
<line x1="107.350000" y1="24.000000" x2="44.000000" y2="24.000000"  style="stroke:black; stroke-linecap:round; stroke-width:0.25;"/>
<line x1="107.350000" y1="32.000000" x2="130.700000" y2="32.000000"  style="stroke:black; stroke-linecap:round; stroke-width:0.25;"/>
<line x1="126.700000" y1="52.000000" x2="130.700000" y2="52.000000"  style="stroke:black; stroke-linecap:round; stroke-width:0.25;"/>
<line x1="130.700000" y1="32.000000" x2="138.700000" y2="32.000000"  style="stroke:black; stroke-linecap:round; stroke-width:0.25;"/>
<line x1="130.700000" y1="52.000000" x2="138.700000" y2="52.000000"  style="stroke:black; stroke-linecap:round; stroke-width:0.25;"/>
<line x1="138.700000" y1="32.000000" x2="138.700000" y2="44.000000"  style="stroke:black; stroke-linecap:round; stroke-width:0.25;"/>
<line x1="138.700000" y1="44.000000" x2="138.700000" y2="44.000000"  style="stroke:black; stroke-linecap:round; stroke-width:0.25;"/>
<line x1="138.700000" y1="44.000000" x2="142.700000" y2="44.000000"  style="stroke:black; stroke-linecap:round; stroke-width:0.25;"/>
<line x1="138.700000" y1="52.000000" x2="142.700000" y2="52.000000"  style="stroke:black; stroke-linecap:round; stroke-width:0.25;"/>
<line x1="166.700000" y1="48.000000" x2="170.700000" y2="48.000000"  style="stroke:black; stroke-linecap:round; stroke-width:0.25;"/>
<line x1="170.700000" y1="24.000000" x2="107.350000" y2="24.000000"  style="stroke:black; stroke-linecap:round; stroke-width:0.25;"/>
<line x1="170.700000" y1="24.000000" x2="170.700000" y2="24.000000"  style="stroke:black; stroke-linecap:round; stroke-width:0.25;"/>
<line x1="170.700000" y1="44.000000" x2="170.700000" y2="24.000000"  style="stroke:black; stroke-linecap:round; stroke-width:0.25;"/>
<line x1="170.700000" y1="48.000000" x2="172.700000" y2="48.000000"  style="stroke:black; stroke-linecap:round; stroke-width:0.25;"/>
<line x1="172.700000" y1="48.000000" x2="178.700000" y2="48.000000"  style="stroke:black; stroke-linecap:round; stroke-width:0.25;"/>
<line x1="178.700000" y1="44.000000" x2="186.700000" y2="44.000000"  style="stroke:black; stroke-linecap:round; stroke-width:0.25;"/>
<line x1="178.700000" y1="48.000000" x2="178.700000" y2="44.000000"  style="stroke:black; stroke-linecap:round; stroke-width:0.25;"/>
<line x1="178.700000" y1="48.000000" x2="178.700000" y2="48.000000"  style="stroke:black; stroke-linecap:round; stroke-width:0.25;"/>
<line x1="186.700000" y1="44.000000" x2="190.700000" y2="44.000000"  style="stroke:black; stroke-linecap:round; stroke-width:0.25;"/>
<line x1="190.700000" y1="44.000000" x2="194.700000" y2="44.000000"  style="stroke:black; stroke-linecap:round; stroke-width:0.25;"/>
<line x1="194.700000" y1="44.000000" x2="204.700000" y2="44.000000"  style="stroke:black; stroke-linecap:round; stroke-width:0.25;"/>
</svg>
