<?xml version="1.0"?>
<svg xmlns="http://www.w3.org/2000/svg" xmlns:xlink="http://www.w3.org/1999/xlink" viewBox="0 0 223.200000 104.000000" width="111.600000mm" height="52.000000mm" version="1.1">
<a xlink:href="phasor-0x6000094317a0.svg">
<rect x="0.000000" y="0.000000" width="222.200000" height="103.000000" rx="0" ry="0" style="stroke:#000000;fill:#FFFFFF;"/>
</a>
<text x="10.000000" y="7.000000" font-family="Verdana" font-size="7"></text>
<rect x="32.000000" y="40.000000" width="38.700000" height="24.000000" rx="0" ry="0" style="stroke:#000000;fill:#FFFFFF;"/>
<text x="51.350000" y="54.000000" font-family="Verdana" font-size="7" text-anchor="middle" fill="#000000">[125] n</text>
<circle cx="34.000000" cy="42.000000" r="1"/>
<line x1="29.000000" y1="51.000000" x2="32.000000" y2="52.000000"  transform="rotate(0.000000,32.000000,52.000000)" style="stroke: black; stroke-width:0.25;"/>
<line x1="29.000000" y1="53.000000" x2="32.000000" y2="52.000000"  transform="rotate(0.000000,32.000000,52.000000)" style="stroke: black; stroke-width:0.25;"/>
<rect x="95.600000" y="24.000000" width="38.700000" height="24.000000" rx="0" ry="0" style="stroke:#000000;fill:#FFFFFF;"/>
<text x="114.950000" y="38.000000" font-family="Verdana" font-size="7" text-anchor="middle" fill="#000000">[125] n</text>
<circle cx="97.600000" cy="26.000000" r="1"/>
<rect x="78.700000" y="56.000000" width="38.700000" height="24.000000" rx="0" ry="0" style="stroke:#000000;fill:#FFFFFF;"/>
<text x="98.050000" y="70.000000" font-family="Verdana" font-size="7" text-anchor="middle" fill="#000000">[125] n</text>
<circle cx="80.700000" cy="58.000000" r="1"/>
<rect x="125.400000" y="56.000000" width="25.800000" height="24.000000" rx="0" ry="0" style="stroke:#000000;fill:#FFFFFF;"/>
<text x="138.300000" y="70.000000" font-family="Verdana" font-size="7" text-anchor="middle" fill="#000000">floor</text>
<circle cx="127.400000" cy="58.000000" r="1"/>
<line x1="122.400000" y1="67.000000" x2="125.400000" y2="68.000000"  transform="rotate(0.000000,125.400000,68.000000)" style="stroke: black; stroke-width:0.25;"/>
<line x1="122.400000" y1="69.000000" x2="125.400000" y2="68.000000"  transform="rotate(0.000000,125.400000,68.000000)" style="stroke: black; stroke-width:0.25;"/>
<rect x="167.200000" y="40.000000" width="24.000000" height="24.000000" rx="0" ry="0" style="stroke:#000000;fill:#FFFFFF;"/>
<text x="179.200000" y="54.000000" font-family="Verdana" font-size="7" text-anchor="middle" fill="#000000">-</text>
<circle cx="169.200000" cy="42.000000" r="1"/>
<line x1="164.200000" y1="47.000000" x2="167.200000" y2="48.000000"  transform="rotate(0.000000,167.200000,48.000000)" style="stroke: black; stroke-width:0.25;"/>
<line x1="164.200000" y1="49.000000" x2="167.200000" y2="48.000000"  transform="rotate(0.000000,167.200000,48.000000)" style="stroke: black; stroke-width:0.25;"/>
<line x1="164.200000" y1="55.000000" x2="167.200000" y2="56.000000"  transform="rotate(0.000000,167.200000,56.000000)" style="stroke: black; stroke-width:0.25;"/>
<line x1="164.200000" y1="57.000000" x2="167.200000" y2="56.000000"  transform="rotate(0.000000,167.200000,56.000000)" style="stroke: black; stroke-width:0.25;"/>
<line x1="15.000000" y1="15.000000" x2="15.000000" y2="89.000000"  style="stroke: black; stroke-linecap:round; stroke-width:0.25; stroke-dasharray:3,3;"/>
<line x1="15.000000" y1="89.000000" x2="208.200000" y2="89.000000"  style="stroke: black; stroke-linecap:round; stroke-width:0.25; stroke-dasharray:3,3;"/>
<line x1="208.200000" y1="89.000000" x2="208.200000" y2="15.000000"  style="stroke: black; stroke-linecap:round; stroke-width:0.25; stroke-dasharray:3,3;"/>
<line x1="15.000000" y1="15.000000" x2="20.000000" y2="15.000000"  style="stroke: black; stroke-linecap:round; stroke-width:0.25; stroke-dasharray:3,3;"/>
<line x1="49.025000" y1="15.000000" x2="208.200000" y2="15.000000"  style="stroke: black; stroke-linecap:round; stroke-width:0.25; stroke-dasharray:3,3;"/>
<text x="20.000000" y="17.000000" font-family="Verdana" font-size="7">decimal</text>
<line x1="210.200000" y1="51.000000" x2="213.200000" y2="52.000000"  transform="rotate(0.000000,213.200000,52.000000)" style="stroke: black; stroke-width:0.25;"/>
<line x1="210.200000" y1="53.000000" x2="213.200000" y2="52.000000"  transform="rotate(0.000000,213.200000,52.000000)" style="stroke: black; stroke-width:0.25;"/>
<line x1="10.000000" y1="52.000000" x2="20.000000" y2="52.000000"  style="stroke:black; stroke-linecap:round; stroke-width:0.25;"/>
<line x1="20.000000" y1="52.000000" x2="24.000000" y2="52.000000"  style="stroke:black; stroke-linecap:round; stroke-width:0.25;"/>
<line x1="24.000000" y1="52.000000" x2="28.000000" y2="52.000000"  style="stroke:black; stroke-linecap:round; stroke-width:0.25;"/>
<line x1="28.000000" y1="52.000000" x2="28.000000" y2="52.000000"  style="stroke:black; stroke-linecap:round; stroke-width:0.25;"/>
<line x1="28.000000" y1="52.000000" x2="32.000000" y2="52.000000"  style="stroke:black; stroke-linecap:round; stroke-width:0.25;"/>
<line x1="117.400000" y1="68.000000" x2="121.400000" y2="68.000000"  style="stroke:black; stroke-linecap:round; stroke-width:0.25;"/>
<line x1="121.400000" y1="68.000000" x2="121.400000" y2="68.000000"  style="stroke:black; stroke-linecap:round; stroke-width:0.25;"/>
<line x1="121.400000" y1="68.000000" x2="125.400000" y2="68.000000"  style="stroke:black; stroke-linecap:round; stroke-width:0.25;"/>
<line x1="134.300000" y1="36.000000" x2="138.300000" y2="36.000000"  style="stroke:black; stroke-linecap:round; stroke-width:0.25;"/>
<line x1="138.300000" y1="36.000000" x2="155.200000" y2="36.000000"  style="stroke:black; stroke-linecap:round; stroke-width:0.25;"/>
<line x1="151.200000" y1="68.000000" x2="155.200000" y2="68.000000"  style="stroke:black; stroke-linecap:round; stroke-width:0.25;"/>
<line x1="155.200000" y1="36.000000" x2="163.200000" y2="36.000000"  style="stroke:black; stroke-linecap:round; stroke-width:0.25;"/>
<line x1="155.200000" y1="56.000000" x2="163.200000" y2="56.000000"  style="stroke:black; stroke-linecap:round; stroke-width:0.25;"/>
<line x1="155.200000" y1="68.000000" x2="155.200000" y2="56.000000"  style="stroke:black; stroke-linecap:round; stroke-width:0.25;"/>
<line x1="155.200000" y1="68.000000" x2="155.200000" y2="68.000000"  style="stroke:black; stroke-linecap:round; stroke-width:0.25;"/>
<line x1="163.200000" y1="36.000000" x2="163.200000" y2="48.000000"  style="stroke:black; stroke-linecap:round; stroke-width:0.25;"/>
<line x1="163.200000" y1="48.000000" x2="163.200000" y2="48.000000"  style="stroke:black; stroke-linecap:round; stroke-width:0.25;"/>
<line x1="163.200000" y1="48.000000" x2="167.200000" y2="48.000000"  style="stroke:black; stroke-linecap:round; stroke-width:0.25;"/>
<line x1="163.200000" y1="56.000000" x2="167.200000" y2="56.000000"  style="stroke:black; stroke-linecap:round; stroke-width:0.25;"/>
<line x1="191.200000" y1="52.000000" x2="195.200000" y2="52.000000"  style="stroke:black; stroke-linecap:round; stroke-width:0.25;"/>
<line x1="195.200000" y1="52.000000" x2="195.200000" y2="52.000000"  style="stroke:black; stroke-linecap:round; stroke-width:0.25;"/>
<line x1="195.200000" y1="52.000000" x2="199.200000" y2="52.000000"  style="stroke:black; stroke-linecap:round; stroke-width:0.25;"/>
<line x1="199.200000" y1="52.000000" x2="203.200000" y2="52.000000"  style="stroke:black; stroke-linecap:round; stroke-width:0.25;"/>
<line x1="203.200000" y1="52.000000" x2="213.200000" y2="52.000000"  style="stroke:black; stroke-linecap:round; stroke-width:0.25;"/>
</svg>
