<?xml version="1.0"?>
<svg xmlns="http://www.w3.org/2000/svg" xmlns:xlink="http://www.w3.org/1999/xlink" viewBox="0 0 335.200000 240.000000" width="167.600000mm" height="120.000000mm" version="1.1">
<a xlink:href="delayFbk-0x60001d456400.svg">
<rect x="0.000000" y="0.000000" width="334.200000" height="239.000000" rx="0" ry="0" style="stroke:#000000;fill:#FFFFFF;"/>
</a>
<text x="10.000000" y="7.000000" font-family="Verdana" font-size="7"></text>
<rect x="32.000000" y="108.000000" width="38.700000" height="24.000000" rx="0" ry="0" style="stroke:#000000;fill:#FFFFFF;"/>
<text x="51.350000" y="122.000000" font-family="Verdana" font-size="7" text-anchor="middle" fill="#000000">[717] x</text>
<circle cx="34.000000" cy="110.000000" r="1"/>
<line x1="29.000000" y1="119.000000" x2="32.000000" y2="120.000000"  transform="rotate(0.000000,32.000000,120.000000)" style="stroke: black; stroke-width:0.25;"/>
<line x1="29.000000" y1="121.000000" x2="32.000000" y2="120.000000"  transform="rotate(0.000000,32.000000,120.000000)" style="stroke: black; stroke-width:0.25;"/>
<rect x="151.600000" y="24.000000" width="38.700000" height="24.000000" rx="0" ry="0" style="stroke:#000000;fill:#FFFFFF;"/>
<text x="170.950000" y="38.000000" font-family="Verdana" font-size="7" text-anchor="middle" fill="#000000">[717] x</text>
<circle cx="153.600000" cy="26.000000" r="1"/>
<a xlink:href="SR-0x6000017c2e20.svg">
<rect x="138.950000" y="56.000000" width="24.000000" height="24.000000" rx="0" ry="0" style="stroke:#000000;fill:#FFFFFF;"/>
</a>
<a xlink:href="SR-0x6000017c2e20.svg">
<text x="150.950000" y="70.000000" font-family="Verdana" font-size="7" text-anchor="middle" fill="#000000">SR</text>
</a>
<circle cx="140.950000" cy="58.000000" r="1"/>
<rect x="118.950000" y="98.000000" width="24.000000" height="24.000000" rx="0" ry="0" style="stroke:#000000;fill:#FFFFFF;"/>
<text x="130.950000" y="112.000000" font-family="Verdana" font-size="7" text-anchor="middle" fill="#000000">0</text>
<circle cx="120.950000" cy="100.000000" r="1"/>
<line x1="109.950000" y1="89.000000" x2="109.950000" y2="131.000000"  style="stroke: black; stroke-linecap:round; stroke-width:0.25; stroke-dasharray:3,3;"/>
<line x1="109.950000" y1="131.000000" x2="151.950000" y2="131.000000"  style="stroke: black; stroke-linecap:round; stroke-width:0.25; stroke-dasharray:3,3;"/>
<line x1="151.950000" y1="131.000000" x2="151.950000" y2="89.000000"  style="stroke: black; stroke-linecap:round; stroke-width:0.25; stroke-dasharray:3,3;"/>
<line x1="109.950000" y1="89.000000" x2="114.950000" y2="89.000000"  style="stroke: black; stroke-linecap:round; stroke-width:0.25; stroke-dasharray:3,3;"/>
<line x1="134.300000" y1="89.000000" x2="151.950000" y2="89.000000"  style="stroke: black; stroke-linecap:round; stroke-width:0.25; stroke-dasharray:3,3;"/>
<text x="114.950000" y="91.000000" font-family="Verdana" font-size="7">SAFE</text>
<a xlink:href="sec2samp-0x60001d76c900.svg">
<rect x="78.700000" y="140.000000" width="64.500000" height="24.000000" rx="0" ry="0" style="stroke:#000000;fill:#FFFFFF;"/>
</a>
<a xlink:href="sec2samp-0x60001d76c900.svg">
<text x="110.950000" y="154.000000" font-family="Verdana" font-size="7" text-anchor="middle" fill="#000000">sec2samp(0.05f)</text>
</a>
<circle cx="80.700000" cy="142.000000" r="1"/>
<rect x="98.950000" y="182.000000" width="24.000000" height="24.000000" rx="0" ry="0" style="stroke:#000000;fill:#FFFFFF;"/>
<text x="110.950000" y="196.000000" font-family="Verdana" font-size="7" text-anchor="middle" fill="#000000">1</text>
<circle cx="100.950000" cy="184.000000" r="1"/>
<line x1="89.950000" y1="173.000000" x2="89.950000" y2="215.000000"  style="stroke: black; stroke-linecap:round; stroke-width:0.25; stroke-dasharray:3,3;"/>
<line x1="89.950000" y1="215.000000" x2="131.950000" y2="215.000000"  style="stroke: black; stroke-linecap:round; stroke-width:0.25; stroke-dasharray:3,3;"/>
<line x1="131.950000" y1="215.000000" x2="131.950000" y2="173.000000"  style="stroke: black; stroke-linecap:round; stroke-width:0.25; stroke-dasharray:3,3;"/>
<line x1="89.950000" y1="173.000000" x2="94.950000" y2="173.000000"  style="stroke: black; stroke-linecap:round; stroke-width:0.25; stroke-dasharray:3,3;"/>
<line x1="131.950000" y1="173.000000" x2="131.950000" y2="173.000000"  style="stroke: black; stroke-linecap:round; stroke-width:0.25; stroke-dasharray:3,3;"/>
<text x="94.950000" y="175.000000" font-family="Verdana" font-size="7">signum(90)</text>
<rect x="159.200000" y="166.000000" width="24.000000" height="24.000000" rx="0" ry="0" style="stroke:#000000;fill:#FFFFFF;"/>
<text x="171.200000" y="180.000000" font-family="Verdana" font-size="7" text-anchor="middle" fill="#000000">-</text>
<circle cx="161.200000" cy="168.000000" r="1"/>
<line x1="156.200000" y1="173.000000" x2="159.200000" y2="174.000000"  transform="rotate(0.000000,159.200000,174.000000)" style="stroke: black; stroke-width:0.25;"/>
<line x1="156.200000" y1="175.000000" x2="159.200000" y2="174.000000"  transform="rotate(0.000000,159.200000,174.000000)" style="stroke: black; stroke-width:0.25;"/>
<line x1="156.200000" y1="181.000000" x2="159.200000" y2="182.000000"  transform="rotate(0.000000,159.200000,182.000000)" style="stroke: black; stroke-width:0.25;"/>
<line x1="156.200000" y1="183.000000" x2="159.200000" y2="182.000000"  transform="rotate(0.000000,159.200000,182.000000)" style="stroke: black; stroke-width:0.25;"/>
<rect x="199.200000" y="140.000000" width="24.000000" height="24.000000" rx="0" ry="0" style="stroke:#000000;fill:#FFFFFF;"/>
<text x="211.200000" y="154.000000" font-family="Verdana" font-size="7" text-anchor="middle" fill="#000000">max</text>
<circle cx="201.200000" cy="142.000000" r="1"/>
<line x1="196.200000" y1="147.000000" x2="199.200000" y2="148.000000"  transform="rotate(0.000000,199.200000,148.000000)" style="stroke: black; stroke-width:0.25;"/>
<line x1="196.200000" y1="149.000000" x2="199.200000" y2="148.000000"  transform="rotate(0.000000,199.200000,148.000000)" style="stroke: black; stroke-width:0.25;"/>
<line x1="196.200000" y1="155.000000" x2="199.200000" y2="156.000000"  transform="rotate(0.000000,199.200000,156.000000)" style="stroke: black; stroke-width:0.25;"/>
<line x1="196.200000" y1="157.000000" x2="199.200000" y2="156.000000"  transform="rotate(0.000000,199.200000,156.000000)" style="stroke: black; stroke-width:0.25;"/>
<rect x="239.200000" y="124.000000" width="24.000000" height="24.000000" rx="0" ry="0" style="stroke:#000000;fill:#FFFFFF;"/>
<text x="251.200000" y="138.000000" font-family="Verdana" font-size="7" text-anchor="middle" fill="#000000">min</text>
<circle cx="241.200000" cy="126.000000" r="1"/>
<line x1="236.200000" y1="131.000000" x2="239.200000" y2="132.000000"  transform="rotate(0.000000,239.200000,132.000000)" style="stroke: black; stroke-width:0.25;"/>
<line x1="236.200000" y1="133.000000" x2="239.200000" y2="132.000000"  transform="rotate(0.000000,239.200000,132.000000)" style="stroke: black; stroke-width:0.25;"/>
<line x1="236.200000" y1="139.000000" x2="239.200000" y2="140.000000"  transform="rotate(0.000000,239.200000,140.000000)" style="stroke: black; stroke-width:0.25;"/>
<line x1="236.200000" y1="141.000000" x2="239.200000" y2="140.000000"  transform="rotate(0.000000,239.200000,140.000000)" style="stroke: black; stroke-width:0.25;"/>
<rect x="279.200000" y="108.000000" width="24.000000" height="24.000000" rx="0" ry="0" style="stroke:#000000;fill:#FFFFFF;"/>
<text x="291.200000" y="122.000000" font-family="Verdana" font-size="7" text-anchor="middle" fill="#000000">@</text>
<circle cx="281.200000" cy="110.000000" r="1"/>
<line x1="276.200000" y1="115.000000" x2="279.200000" y2="116.000000"  transform="rotate(0.000000,279.200000,116.000000)" style="stroke: black; stroke-width:0.25;"/>
<line x1="276.200000" y1="117.000000" x2="279.200000" y2="116.000000"  transform="rotate(0.000000,279.200000,116.000000)" style="stroke: black; stroke-width:0.25;"/>
<line x1="276.200000" y1="123.000000" x2="279.200000" y2="124.000000"  transform="rotate(0.000000,279.200000,124.000000)" style="stroke: black; stroke-width:0.25;"/>
<line x1="276.200000" y1="125.000000" x2="279.200000" y2="124.000000"  transform="rotate(0.000000,279.200000,124.000000)" style="stroke: black; stroke-width:0.25;"/>
<line x1="15.000000" y1="15.000000" x2="15.000000" y2="225.000000"  style="stroke: black; stroke-linecap:round; stroke-width:0.25; stroke-dasharray:3,3;"/>
<line x1="15.000000" y1="225.000000" x2="320.200000" y2="225.000000"  style="stroke: black; stroke-linecap:round; stroke-width:0.25; stroke-dasharray:3,3;"/>
<line x1="320.200000" y1="225.000000" x2="320.200000" y2="15.000000"  style="stroke: black; stroke-linecap:round; stroke-width:0.25; stroke-dasharray:3,3;"/>
<line x1="15.000000" y1="15.000000" x2="20.000000" y2="15.000000"  style="stroke: black; stroke-linecap:round; stroke-width:0.25; stroke-dasharray:3,3;"/>
<line x1="119.975000" y1="15.000000" x2="320.200000" y2="15.000000"  style="stroke: black; stroke-linecap:round; stroke-width:0.25; stroke-dasharray:3,3;"/>
<text x="20.000000" y="17.000000" font-family="Verdana" font-size="7">delay(1.92e+0...) : *),1 : -)</text>
<line x1="322.200000" y1="119.000000" x2="325.200000" y2="120.000000"  transform="rotate(0.000000,325.200000,120.000000)" style="stroke: black; stroke-width:0.25;"/>
<line x1="322.200000" y1="121.000000" x2="325.200000" y2="120.000000"  transform="rotate(0.000000,325.200000,120.000000)" style="stroke: black; stroke-width:0.25;"/>
<line x1="10.000000" y1="120.000000" x2="20.000000" y2="120.000000"  style="stroke:black; stroke-linecap:round; stroke-width:0.25;"/>
<line x1="20.000000" y1="120.000000" x2="24.000000" y2="120.000000"  style="stroke:black; stroke-linecap:round; stroke-width:0.25;"/>
<line x1="24.000000" y1="120.000000" x2="28.000000" y2="120.000000"  style="stroke:black; stroke-linecap:round; stroke-width:0.25;"/>
<line x1="28.000000" y1="120.000000" x2="28.000000" y2="120.000000"  style="stroke:black; stroke-linecap:round; stroke-width:0.25;"/>
<line x1="28.000000" y1="120.000000" x2="32.000000" y2="120.000000"  style="stroke:black; stroke-linecap:round; stroke-width:0.25;"/>
<line x1="122.950000" y1="194.000000" x2="126.950000" y2="194.000000"  style="stroke:black; stroke-linecap:round; stroke-width:0.25;"/>
<line x1="126.950000" y1="194.000000" x2="136.950000" y2="194.000000"  style="stroke:black; stroke-linecap:round; stroke-width:0.25;"/>
<line x1="136.950000" y1="194.000000" x2="147.200000" y2="194.000000"  style="stroke:black; stroke-linecap:round; stroke-width:0.25;"/>
<line x1="142.950000" y1="110.000000" x2="146.950000" y2="110.000000"  style="stroke:black; stroke-linecap:round; stroke-width:0.25;"/>
<line x1="143.200000" y1="152.000000" x2="147.200000" y2="152.000000"  style="stroke:black; stroke-linecap:round; stroke-width:0.25;"/>
<line x1="146.950000" y1="110.000000" x2="156.950000" y2="110.000000"  style="stroke:black; stroke-linecap:round; stroke-width:0.25;"/>
<line x1="147.200000" y1="152.000000" x2="155.200000" y2="152.000000"  style="stroke:black; stroke-linecap:round; stroke-width:0.25;"/>
<line x1="147.200000" y1="182.000000" x2="155.200000" y2="182.000000"  style="stroke:black; stroke-linecap:round; stroke-width:0.25;"/>
<line x1="147.200000" y1="194.000000" x2="147.200000" y2="182.000000"  style="stroke:black; stroke-linecap:round; stroke-width:0.25;"/>
<line x1="147.200000" y1="194.000000" x2="147.200000" y2="194.000000"  style="stroke:black; stroke-linecap:round; stroke-width:0.25;"/>
<line x1="155.200000" y1="152.000000" x2="155.200000" y2="174.000000"  style="stroke:black; stroke-linecap:round; stroke-width:0.25;"/>
<line x1="155.200000" y1="174.000000" x2="155.200000" y2="174.000000"  style="stroke:black; stroke-linecap:round; stroke-width:0.25;"/>
<line x1="155.200000" y1="174.000000" x2="159.200000" y2="174.000000"  style="stroke:black; stroke-linecap:round; stroke-width:0.25;"/>
<line x1="155.200000" y1="182.000000" x2="159.200000" y2="182.000000"  style="stroke:black; stroke-linecap:round; stroke-width:0.25;"/>
<line x1="156.950000" y1="110.000000" x2="187.200000" y2="110.000000"  style="stroke:black; stroke-linecap:round; stroke-width:0.25;"/>
<line x1="162.950000" y1="68.000000" x2="166.950000" y2="68.000000"  style="stroke:black; stroke-linecap:round; stroke-width:0.25;"/>
<line x1="166.950000" y1="68.000000" x2="227.200000" y2="68.000000"  style="stroke:black; stroke-linecap:round; stroke-width:0.25;"/>
<line x1="183.200000" y1="178.000000" x2="187.200000" y2="178.000000"  style="stroke:black; stroke-linecap:round; stroke-width:0.25;"/>
<line x1="187.200000" y1="110.000000" x2="195.200000" y2="110.000000"  style="stroke:black; stroke-linecap:round; stroke-width:0.25;"/>
<line x1="187.200000" y1="156.000000" x2="195.200000" y2="156.000000"  style="stroke:black; stroke-linecap:round; stroke-width:0.25;"/>
<line x1="187.200000" y1="178.000000" x2="187.200000" y2="156.000000"  style="stroke:black; stroke-linecap:round; stroke-width:0.25;"/>
<line x1="187.200000" y1="178.000000" x2="187.200000" y2="178.000000"  style="stroke:black; stroke-linecap:round; stroke-width:0.25;"/>
<line x1="190.300000" y1="36.000000" x2="194.300000" y2="36.000000"  style="stroke:black; stroke-linecap:round; stroke-width:0.25;"/>
<line x1="194.300000" y1="36.000000" x2="267.200000" y2="36.000000"  style="stroke:black; stroke-linecap:round; stroke-width:0.25;"/>
<line x1="195.200000" y1="110.000000" x2="195.200000" y2="148.000000"  style="stroke:black; stroke-linecap:round; stroke-width:0.25;"/>
<line x1="195.200000" y1="148.000000" x2="195.200000" y2="148.000000"  style="stroke:black; stroke-linecap:round; stroke-width:0.25;"/>
<line x1="195.200000" y1="148.000000" x2="199.200000" y2="148.000000"  style="stroke:black; stroke-linecap:round; stroke-width:0.25;"/>
<line x1="195.200000" y1="156.000000" x2="199.200000" y2="156.000000"  style="stroke:black; stroke-linecap:round; stroke-width:0.25;"/>
<line x1="223.200000" y1="152.000000" x2="227.200000" y2="152.000000"  style="stroke:black; stroke-linecap:round; stroke-width:0.25;"/>
<line x1="227.200000" y1="68.000000" x2="235.200000" y2="68.000000"  style="stroke:black; stroke-linecap:round; stroke-width:0.25;"/>
<line x1="227.200000" y1="140.000000" x2="235.200000" y2="140.000000"  style="stroke:black; stroke-linecap:round; stroke-width:0.25;"/>
<line x1="227.200000" y1="152.000000" x2="227.200000" y2="140.000000"  style="stroke:black; stroke-linecap:round; stroke-width:0.25;"/>
<line x1="227.200000" y1="152.000000" x2="227.200000" y2="152.000000"  style="stroke:black; stroke-linecap:round; stroke-width:0.25;"/>
<line x1="235.200000" y1="68.000000" x2="235.200000" y2="132.000000"  style="stroke:black; stroke-linecap:round; stroke-width:0.25;"/>
<line x1="235.200000" y1="132.000000" x2="235.200000" y2="132.000000"  style="stroke:black; stroke-linecap:round; stroke-width:0.25;"/>
<line x1="235.200000" y1="132.000000" x2="239.200000" y2="132.000000"  style="stroke:black; stroke-linecap:round; stroke-width:0.25;"/>
<line x1="235.200000" y1="140.000000" x2="239.200000" y2="140.000000"  style="stroke:black; stroke-linecap:round; stroke-width:0.25;"/>
<line x1="263.200000" y1="136.000000" x2="267.200000" y2="136.000000"  style="stroke:black; stroke-linecap:round; stroke-width:0.25;"/>
<line x1="267.200000" y1="36.000000" x2="275.200000" y2="36.000000"  style="stroke:black; stroke-linecap:round; stroke-width:0.25;"/>
<line x1="267.200000" y1="124.000000" x2="275.200000" y2="124.000000"  style="stroke:black; stroke-linecap:round; stroke-width:0.25;"/>
<line x1="267.200000" y1="136.000000" x2="267.200000" y2="124.000000"  style="stroke:black; stroke-linecap:round; stroke-width:0.25;"/>
<line x1="267.200000" y1="136.000000" x2="267.200000" y2="136.000000"  style="stroke:black; stroke-linecap:round; stroke-width:0.25;"/>
<line x1="275.200000" y1="36.000000" x2="275.200000" y2="116.000000"  style="stroke:black; stroke-linecap:round; stroke-width:0.25;"/>
<line x1="275.200000" y1="116.000000" x2="275.200000" y2="116.000000"  style="stroke:black; stroke-linecap:round; stroke-width:0.25;"/>
<line x1="275.200000" y1="116.000000" x2="279.200000" y2="116.000000"  style="stroke:black; stroke-linecap:round; stroke-width:0.25;"/>
<line x1="275.200000" y1="124.000000" x2="279.200000" y2="124.000000"  style="stroke:black; stroke-linecap:round; stroke-width:0.25;"/>
<line x1="303.200000" y1="120.000000" x2="307.200000" y2="120.000000"  style="stroke:black; stroke-linecap:round; stroke-width:0.25;"/>
<line x1="307.200000" y1="120.000000" x2="307.200000" y2="120.000000"  style="stroke:black; stroke-linecap:round; stroke-width:0.25;"/>
<line x1="307.200000" y1="120.000000" x2="311.200000" y2="120.000000"  style="stroke:black; stroke-linecap:round; stroke-width:0.25;"/>
<line x1="311.200000" y1="120.000000" x2="315.200000" y2="120.000000"  style="stroke:black; stroke-linecap:round; stroke-width:0.25;"/>
<line x1="315.200000" y1="120.000000" x2="325.200000" y2="120.000000"  style="stroke:black; stroke-linecap:round; stroke-width:0.25;"/>
</svg>
