<?xml version="1.0"?>
<svg xmlns="http://www.w3.org/2000/svg" xmlns:xlink="http://www.w3.org/1999/xlink" viewBox="0 0 274.700000 188.000000" width="137.350000mm" height="94.000000mm" version="1.1">
<a xlink:href="ddi-0x6000214126d0.svg">
<rect x="0.000000" y="0.000000" width="273.700000" height="187.000000" rx="0" ry="0" style="stroke:#000000;fill:#FFFFFF;"/>
</a>
<text x="10.000000" y="7.000000" font-family="Verdana" font-size="7"></text>
<rect x="32.000000" y="82.000000" width="38.700000" height="24.000000" rx="0" ry="0" style="stroke:#000000;fill:#FFFFFF;"/>
<text x="51.350000" y="96.000000" font-family="Verdana" font-size="7" text-anchor="middle" fill="#000000">[846] x</text>
<circle cx="34.000000" cy="84.000000" r="1"/>
<line x1="29.000000" y1="93.000000" x2="32.000000" y2="94.000000"  transform="rotate(0.000000,32.000000,94.000000)" style="stroke: black; stroke-width:0.25;"/>
<line x1="29.000000" y1="95.000000" x2="32.000000" y2="94.000000"  transform="rotate(0.000000,32.000000,94.000000)" style="stroke: black; stroke-width:0.25;"/>
<rect x="121.350000" y="24.000000" width="38.700000" height="24.000000" rx="0" ry="0" style="stroke:#000000;fill:#FFFFFF;"/>
<text x="140.700000" y="38.000000" font-family="Verdana" font-size="7" text-anchor="middle" fill="#000000">[846] x</text>
<circle cx="123.350000" cy="26.000000" r="1"/>
<a xlink:href="SR-0x6000017c2e20.svg">
<rect x="108.700000" y="56.000000" width="24.000000" height="24.000000" rx="0" ry="0" style="stroke:#000000;fill:#FFFFFF;"/>
</a>
<a xlink:href="SR-0x6000017c2e20.svg">
<text x="120.700000" y="70.000000" font-family="Verdana" font-size="7" text-anchor="middle" fill="#000000">SR</text>
</a>
<circle cx="110.700000" cy="58.000000" r="1"/>
<rect x="88.700000" y="98.000000" width="24.000000" height="24.000000" rx="0" ry="0" style="stroke:#000000;fill:#FFFFFF;"/>
<text x="100.700000" y="112.000000" font-family="Verdana" font-size="7" text-anchor="middle" fill="#000000">0</text>
<circle cx="90.700000" cy="100.000000" r="1"/>
<line x1="79.700000" y1="89.000000" x2="79.700000" y2="131.000000"  style="stroke: black; stroke-linecap:round; stroke-width:0.25; stroke-dasharray:3,3;"/>
<line x1="79.700000" y1="131.000000" x2="121.700000" y2="131.000000"  style="stroke: black; stroke-linecap:round; stroke-width:0.25; stroke-dasharray:3,3;"/>
<line x1="121.700000" y1="131.000000" x2="121.700000" y2="89.000000"  style="stroke: black; stroke-linecap:round; stroke-width:0.25; stroke-dasharray:3,3;"/>
<line x1="79.700000" y1="89.000000" x2="84.700000" y2="89.000000"  style="stroke: black; stroke-linecap:round; stroke-width:0.25; stroke-dasharray:3,3;"/>
<line x1="104.050000" y1="89.000000" x2="121.700000" y2="89.000000"  style="stroke: black; stroke-linecap:round; stroke-width:0.25; stroke-dasharray:3,3;"/>
<text x="84.700000" y="91.000000" font-family="Verdana" font-size="7">SAFE</text>
<rect x="81.350000" y="140.000000" width="38.700000" height="24.000000" rx="0" ry="0" style="stroke:#000000;fill:#FFFFFF;"/>
<text x="100.700000" y="154.000000" font-family="Verdana" font-size="7" text-anchor="middle" fill="#000000">[844] d1</text>
<circle cx="83.350000" cy="142.000000" r="1"/>
<rect x="138.700000" y="114.000000" width="24.000000" height="24.000000" rx="0" ry="0" style="stroke:#000000;fill:#FFFFFF;"/>
<text x="150.700000" y="128.000000" font-family="Verdana" font-size="7" text-anchor="middle" fill="#000000">max</text>
<circle cx="140.700000" cy="116.000000" r="1"/>
<line x1="135.700000" y1="121.000000" x2="138.700000" y2="122.000000"  transform="rotate(0.000000,138.700000,122.000000)" style="stroke: black; stroke-width:0.25;"/>
<line x1="135.700000" y1="123.000000" x2="138.700000" y2="122.000000"  transform="rotate(0.000000,138.700000,122.000000)" style="stroke: black; stroke-width:0.25;"/>
<line x1="135.700000" y1="129.000000" x2="138.700000" y2="130.000000"  transform="rotate(0.000000,138.700000,130.000000)" style="stroke: black; stroke-width:0.25;"/>
<line x1="135.700000" y1="131.000000" x2="138.700000" y2="130.000000"  transform="rotate(0.000000,138.700000,130.000000)" style="stroke: black; stroke-width:0.25;"/>
<rect x="178.700000" y="98.000000" width="24.000000" height="24.000000" rx="0" ry="0" style="stroke:#000000;fill:#FFFFFF;"/>
<text x="190.700000" y="112.000000" font-family="Verdana" font-size="7" text-anchor="middle" fill="#000000">min</text>
<circle cx="180.700000" cy="100.000000" r="1"/>
<line x1="175.700000" y1="105.000000" x2="178.700000" y2="106.000000"  transform="rotate(0.000000,178.700000,106.000000)" style="stroke: black; stroke-width:0.25;"/>
<line x1="175.700000" y1="107.000000" x2="178.700000" y2="106.000000"  transform="rotate(0.000000,178.700000,106.000000)" style="stroke: black; stroke-width:0.25;"/>
<line x1="175.700000" y1="113.000000" x2="178.700000" y2="114.000000"  transform="rotate(0.000000,178.700000,114.000000)" style="stroke: black; stroke-width:0.25;"/>
<line x1="175.700000" y1="115.000000" x2="178.700000" y2="114.000000"  transform="rotate(0.000000,178.700000,114.000000)" style="stroke: black; stroke-width:0.25;"/>
<rect x="218.700000" y="82.000000" width="24.000000" height="24.000000" rx="0" ry="0" style="stroke:#000000;fill:#FFFFFF;"/>
<text x="230.700000" y="96.000000" font-family="Verdana" font-size="7" text-anchor="middle" fill="#000000">@</text>
<circle cx="220.700000" cy="84.000000" r="1"/>
<line x1="215.700000" y1="89.000000" x2="218.700000" y2="90.000000"  transform="rotate(0.000000,218.700000,90.000000)" style="stroke: black; stroke-width:0.25;"/>
<line x1="215.700000" y1="91.000000" x2="218.700000" y2="90.000000"  transform="rotate(0.000000,218.700000,90.000000)" style="stroke: black; stroke-width:0.25;"/>
<line x1="215.700000" y1="97.000000" x2="218.700000" y2="98.000000"  transform="rotate(0.000000,218.700000,98.000000)" style="stroke: black; stroke-width:0.25;"/>
<line x1="215.700000" y1="99.000000" x2="218.700000" y2="98.000000"  transform="rotate(0.000000,218.700000,98.000000)" style="stroke: black; stroke-width:0.25;"/>
<line x1="15.000000" y1="15.000000" x2="15.000000" y2="173.000000"  style="stroke: black; stroke-linecap:round; stroke-width:0.25; stroke-dasharray:3,3;"/>
<line x1="15.000000" y1="173.000000" x2="259.700000" y2="173.000000"  style="stroke: black; stroke-linecap:round; stroke-width:0.25; stroke-dasharray:3,3;"/>
<line x1="259.700000" y1="173.000000" x2="259.700000" y2="15.000000"  style="stroke: black; stroke-linecap:round; stroke-width:0.25; stroke-dasharray:3,3;"/>
<line x1="15.000000" y1="15.000000" x2="20.000000" y2="15.000000"  style="stroke: black; stroke-linecap:round; stroke-width:0.25; stroke-dasharray:3,3;"/>
<line x1="139.325000" y1="15.000000" x2="259.700000" y2="15.000000"  style="stroke: black; stroke-linecap:round; stroke-width:0.25; stroke-dasharray:3,3;"/>
<text x="20.000000" y="17.000000" font-family="Verdana" font-size="7">delay(1.92e+0...: max) : min)(x844)</text>
<line x1="261.700000" y1="93.000000" x2="264.700000" y2="94.000000"  transform="rotate(0.000000,264.700000,94.000000)" style="stroke: black; stroke-width:0.25;"/>
<line x1="261.700000" y1="95.000000" x2="264.700000" y2="94.000000"  transform="rotate(0.000000,264.700000,94.000000)" style="stroke: black; stroke-width:0.25;"/>
<line x1="10.000000" y1="94.000000" x2="20.000000" y2="94.000000"  style="stroke:black; stroke-linecap:round; stroke-width:0.25;"/>
<line x1="20.000000" y1="94.000000" x2="24.000000" y2="94.000000"  style="stroke:black; stroke-linecap:round; stroke-width:0.25;"/>
<line x1="24.000000" y1="94.000000" x2="28.000000" y2="94.000000"  style="stroke:black; stroke-linecap:round; stroke-width:0.25;"/>
<line x1="28.000000" y1="94.000000" x2="28.000000" y2="94.000000"  style="stroke:black; stroke-linecap:round; stroke-width:0.25;"/>
<line x1="28.000000" y1="94.000000" x2="32.000000" y2="94.000000"  style="stroke:black; stroke-linecap:round; stroke-width:0.25;"/>
<line x1="112.700000" y1="110.000000" x2="116.700000" y2="110.000000"  style="stroke:black; stroke-linecap:round; stroke-width:0.25;"/>
<line x1="116.700000" y1="110.000000" x2="126.700000" y2="110.000000"  style="stroke:black; stroke-linecap:round; stroke-width:0.25;"/>
<line x1="120.050000" y1="152.000000" x2="124.050000" y2="152.000000"  style="stroke:black; stroke-linecap:round; stroke-width:0.25;"/>
<line x1="124.050000" y1="152.000000" x2="126.700000" y2="152.000000"  style="stroke:black; stroke-linecap:round; stroke-width:0.25;"/>
<line x1="126.700000" y1="110.000000" x2="134.700000" y2="110.000000"  style="stroke:black; stroke-linecap:round; stroke-width:0.25;"/>
<line x1="126.700000" y1="130.000000" x2="134.700000" y2="130.000000"  style="stroke:black; stroke-linecap:round; stroke-width:0.25;"/>
<line x1="126.700000" y1="152.000000" x2="126.700000" y2="130.000000"  style="stroke:black; stroke-linecap:round; stroke-width:0.25;"/>
<line x1="126.700000" y1="152.000000" x2="126.700000" y2="152.000000"  style="stroke:black; stroke-linecap:round; stroke-width:0.25;"/>
<line x1="132.700000" y1="68.000000" x2="136.700000" y2="68.000000"  style="stroke:black; stroke-linecap:round; stroke-width:0.25;"/>
<line x1="134.700000" y1="110.000000" x2="134.700000" y2="122.000000"  style="stroke:black; stroke-linecap:round; stroke-width:0.25;"/>
<line x1="134.700000" y1="122.000000" x2="134.700000" y2="122.000000"  style="stroke:black; stroke-linecap:round; stroke-width:0.25;"/>
<line x1="134.700000" y1="122.000000" x2="138.700000" y2="122.000000"  style="stroke:black; stroke-linecap:round; stroke-width:0.25;"/>
<line x1="134.700000" y1="130.000000" x2="138.700000" y2="130.000000"  style="stroke:black; stroke-linecap:round; stroke-width:0.25;"/>
<line x1="136.700000" y1="68.000000" x2="166.700000" y2="68.000000"  style="stroke:black; stroke-linecap:round; stroke-width:0.25;"/>
<line x1="160.050000" y1="36.000000" x2="164.050000" y2="36.000000"  style="stroke:black; stroke-linecap:round; stroke-width:0.25;"/>
<line x1="162.700000" y1="126.000000" x2="166.700000" y2="126.000000"  style="stroke:black; stroke-linecap:round; stroke-width:0.25;"/>
<line x1="164.050000" y1="36.000000" x2="206.700000" y2="36.000000"  style="stroke:black; stroke-linecap:round; stroke-width:0.25;"/>
<line x1="166.700000" y1="68.000000" x2="174.700000" y2="68.000000"  style="stroke:black; stroke-linecap:round; stroke-width:0.25;"/>
<line x1="166.700000" y1="114.000000" x2="174.700000" y2="114.000000"  style="stroke:black; stroke-linecap:round; stroke-width:0.25;"/>
<line x1="166.700000" y1="126.000000" x2="166.700000" y2="114.000000"  style="stroke:black; stroke-linecap:round; stroke-width:0.25;"/>
<line x1="166.700000" y1="126.000000" x2="166.700000" y2="126.000000"  style="stroke:black; stroke-linecap:round; stroke-width:0.25;"/>
<line x1="174.700000" y1="68.000000" x2="174.700000" y2="106.000000"  style="stroke:black; stroke-linecap:round; stroke-width:0.25;"/>
<line x1="174.700000" y1="106.000000" x2="174.700000" y2="106.000000"  style="stroke:black; stroke-linecap:round; stroke-width:0.25;"/>
<line x1="174.700000" y1="106.000000" x2="178.700000" y2="106.000000"  style="stroke:black; stroke-linecap:round; stroke-width:0.25;"/>
<line x1="174.700000" y1="114.000000" x2="178.700000" y2="114.000000"  style="stroke:black; stroke-linecap:round; stroke-width:0.25;"/>
<line x1="202.700000" y1="110.000000" x2="206.700000" y2="110.000000"  style="stroke:black; stroke-linecap:round; stroke-width:0.25;"/>
<line x1="206.700000" y1="36.000000" x2="214.700000" y2="36.000000"  style="stroke:black; stroke-linecap:round; stroke-width:0.25;"/>
<line x1="206.700000" y1="98.000000" x2="214.700000" y2="98.000000"  style="stroke:black; stroke-linecap:round; stroke-width:0.25;"/>
<line x1="206.700000" y1="110.000000" x2="206.700000" y2="98.000000"  style="stroke:black; stroke-linecap:round; stroke-width:0.25;"/>
<line x1="206.700000" y1="110.000000" x2="206.700000" y2="110.000000"  style="stroke:black; stroke-linecap:round; stroke-width:0.25;"/>
<line x1="214.700000" y1="36.000000" x2="214.700000" y2="90.000000"  style="stroke:black; stroke-linecap:round; stroke-width:0.25;"/>
<line x1="214.700000" y1="90.000000" x2="214.700000" y2="90.000000"  style="stroke:black; stroke-linecap:round; stroke-width:0.25;"/>
<line x1="214.700000" y1="90.000000" x2="218.700000" y2="90.000000"  style="stroke:black; stroke-linecap:round; stroke-width:0.25;"/>
<line x1="214.700000" y1="98.000000" x2="218.700000" y2="98.000000"  style="stroke:black; stroke-linecap:round; stroke-width:0.25;"/>
<line x1="242.700000" y1="94.000000" x2="246.700000" y2="94.000000"  style="stroke:black; stroke-linecap:round; stroke-width:0.25;"/>
<line x1="246.700000" y1="94.000000" x2="246.700000" y2="94.000000"  style="stroke:black; stroke-linecap:round; stroke-width:0.25;"/>
<line x1="246.700000" y1="94.000000" x2="250.700000" y2="94.000000"  style="stroke:black; stroke-linecap:round; stroke-width:0.25;"/>
<line x1="250.700000" y1="94.000000" x2="254.700000" y2="94.000000"  style="stroke:black; stroke-linecap:round; stroke-width:0.25;"/>
<line x1="254.700000" y1="94.000000" x2="264.700000" y2="94.000000"  style="stroke:black; stroke-linecap:round; stroke-width:0.25;"/>
</svg>
