<?xml version="1.0"?>
<svg xmlns="http://www.w3.org/2000/svg" xmlns:xlink="http://www.w3.org/1999/xlink" viewBox="0 0 365.400000 204.000000" width="182.700000mm" height="102.000000mm" version="1.1">
<a xlink:href="apf-0x6000054fdc20.svg">
<rect x="0.000000" y="0.000000" width="364.400000" height="203.000000" rx="0" ry="0" style="stroke:#000000;fill:#FFFFFF;"/>
</a>
<text x="10.000000" y="7.000000" font-family="Verdana" font-size="7"></text>
<rect x="48.000000" y="110.000000" width="24.000000" height="24.000000" rx="0" ry="0" style="stroke:#000000;fill:#FFFFFF;"/>
<text x="60.000000" y="124.000000" font-family="Verdana" font-size="7" text-anchor="middle" fill="#000000">+</text>
<circle cx="50.000000" cy="112.000000" r="1"/>
<line x1="45.000000" y1="117.000000" x2="48.000000" y2="118.000000"  transform="rotate(0.000000,48.000000,118.000000)" style="stroke: black; stroke-width:0.25;"/>
<line x1="45.000000" y1="119.000000" x2="48.000000" y2="118.000000"  transform="rotate(0.000000,48.000000,118.000000)" style="stroke: black; stroke-width:0.25;"/>
<line x1="45.000000" y1="125.000000" x2="48.000000" y2="126.000000"  transform="rotate(0.000000,48.000000,126.000000)" style="stroke: black; stroke-width:0.25;"/>
<line x1="45.000000" y1="127.000000" x2="48.000000" y2="126.000000"  transform="rotate(0.000000,48.000000,126.000000)" style="stroke: black; stroke-width:0.25;"/>
<a xlink:href="sec2samp-0x6000054f03f0.svg">
<rect x="88.000000" y="72.000000" width="77.400000" height="24.000000" rx="0" ry="0" style="stroke:#000000;fill:#FFFFFF;"/>
</a>
<a xlink:href="sec2samp-0x6000054f03f0.svg">
<text x="126.700000" y="86.000000" font-family="Verdana" font-size="7" text-anchor="middle" fill="#000000">sec2samp(0.004f)</text>
</a>
<circle cx="90.000000" cy="74.000000" r="1"/>
<rect x="113.800000" y="104.000000" width="25.800000" height="24.000000" rx="0" ry="0" style="stroke:#000000;fill:#FFFFFF;"/>
<text x="126.700000" y="118.000000" font-family="Verdana" font-size="7" text-anchor="middle" fill="#000000">1.0f</text>
<circle cx="115.800000" cy="106.000000" r="1"/>
<rect x="181.400000" y="88.000000" width="24.000000" height="24.000000" rx="0" ry="0" style="stroke:#000000;fill:#FFFFFF;"/>
<text x="193.400000" y="102.000000" font-family="Verdana" font-size="7" text-anchor="middle" fill="#000000">*</text>
<circle cx="183.400000" cy="90.000000" r="1"/>
<line x1="178.400000" y1="95.000000" x2="181.400000" y2="96.000000"  transform="rotate(0.000000,181.400000,96.000000)" style="stroke: black; stroke-width:0.25;"/>
<line x1="178.400000" y1="97.000000" x2="181.400000" y2="96.000000"  transform="rotate(0.000000,181.400000,96.000000)" style="stroke: black; stroke-width:0.25;"/>
<line x1="178.400000" y1="103.000000" x2="181.400000" y2="104.000000"  transform="rotate(0.000000,181.400000,104.000000)" style="stroke: black; stroke-width:0.25;"/>
<line x1="178.400000" y1="105.000000" x2="181.400000" y2="104.000000"  transform="rotate(0.000000,181.400000,104.000000)" style="stroke: black; stroke-width:0.25;"/>
<rect x="134.700000" y="146.000000" width="24.000000" height="24.000000" rx="0" ry="0" style="stroke:#000000;fill:#FFFFFF;"/>
<text x="146.700000" y="160.000000" font-family="Verdana" font-size="7" text-anchor="middle" fill="#000000">1</text>
<circle cx="136.700000" cy="148.000000" r="1"/>
<line x1="125.700000" y1="137.000000" x2="125.700000" y2="179.000000"  style="stroke: black; stroke-linecap:round; stroke-width:0.25; stroke-dasharray:3,3;"/>
<line x1="125.700000" y1="179.000000" x2="167.700000" y2="179.000000"  style="stroke: black; stroke-linecap:round; stroke-width:0.25; stroke-dasharray:3,3;"/>
<line x1="167.700000" y1="179.000000" x2="167.700000" y2="137.000000"  style="stroke: black; stroke-linecap:round; stroke-width:0.25; stroke-dasharray:3,3;"/>
<line x1="125.700000" y1="137.000000" x2="130.700000" y2="137.000000"  style="stroke: black; stroke-linecap:round; stroke-width:0.25; stroke-dasharray:3,3;"/>
<line x1="167.700000" y1="137.000000" x2="167.700000" y2="137.000000"  style="stroke: black; stroke-linecap:round; stroke-width:0.25; stroke-dasharray:3,3;"/>
<text x="130.700000" y="139.000000" font-family="Verdana" font-size="7">signum(90)</text>
<rect x="221.400000" y="114.000000" width="24.000000" height="24.000000" rx="0" ry="0" style="stroke:#000000;fill:#FFFFFF;"/>
<text x="233.400000" y="128.000000" font-family="Verdana" font-size="7" text-anchor="middle" fill="#000000">-</text>
<circle cx="223.400000" cy="116.000000" r="1"/>
<line x1="218.400000" y1="121.000000" x2="221.400000" y2="122.000000"  transform="rotate(0.000000,221.400000,122.000000)" style="stroke: black; stroke-width:0.25;"/>
<line x1="218.400000" y1="123.000000" x2="221.400000" y2="122.000000"  transform="rotate(0.000000,221.400000,122.000000)" style="stroke: black; stroke-width:0.25;"/>
<line x1="218.400000" y1="129.000000" x2="221.400000" y2="130.000000"  transform="rotate(0.000000,221.400000,130.000000)" style="stroke: black; stroke-width:0.25;"/>
<line x1="218.400000" y1="131.000000" x2="221.400000" y2="130.000000"  transform="rotate(0.000000,221.400000,130.000000)" style="stroke: black; stroke-width:0.25;"/>
<rect x="261.400000" y="110.000000" width="24.000000" height="24.000000" rx="0" ry="0" style="stroke:#000000;fill:#FFFFFF;"/>
<text x="273.400000" y="124.000000" font-family="Verdana" font-size="7" text-anchor="middle" fill="#000000">@</text>
<circle cx="263.400000" cy="112.000000" r="1"/>
<line x1="258.400000" y1="117.000000" x2="261.400000" y2="118.000000"  transform="rotate(0.000000,261.400000,118.000000)" style="stroke: black; stroke-width:0.25;"/>
<line x1="258.400000" y1="119.000000" x2="261.400000" y2="118.000000"  transform="rotate(0.000000,261.400000,118.000000)" style="stroke: black; stroke-width:0.25;"/>
<line x1="258.400000" y1="125.000000" x2="261.400000" y2="126.000000"  transform="rotate(0.000000,261.400000,126.000000)" style="stroke: black; stroke-width:0.25;"/>
<line x1="258.400000" y1="127.000000" x2="261.400000" y2="126.000000"  transform="rotate(0.000000,261.400000,126.000000)" style="stroke: black; stroke-width:0.25;"/>
<rect x="160.900000" y="24.000000" width="51.600000" height="24.000000" rx="0" ry="0" style="stroke:#000000;fill:#FFFFFF;"/>
<text x="186.700000" y="38.000000" font-family="Verdana" font-size="7" text-anchor="middle" fill="#000000">0.70710677f</text>
<circle cx="210.500000" cy="46.000000" r="1"/>
<rect x="120.900000" y="28.000000" width="24.000000" height="24.000000" rx="0" ry="0" style="stroke:#000000;fill:#FFFFFF;"/>
<text x="132.900000" y="42.000000" font-family="Verdana" font-size="7" text-anchor="middle" fill="#000000">*</text>
<circle cx="142.900000" cy="50.000000" r="1"/>
<line x1="147.900000" y1="43.000000" x2="144.900000" y2="44.000000"  transform="rotate(0.000000,144.900000,44.000000)" style="stroke: black; stroke-width:0.25;"/>
<line x1="147.900000" y1="45.000000" x2="144.900000" y2="44.000000"  transform="rotate(0.000000,144.900000,44.000000)" style="stroke: black; stroke-width:0.25;"/>
<line x1="147.900000" y1="35.000000" x2="144.900000" y2="36.000000"  transform="rotate(0.000000,144.900000,36.000000)" style="stroke: black; stroke-width:0.25;"/>
<line x1="147.900000" y1="37.000000" x2="144.900000" y2="36.000000"  transform="rotate(0.000000,144.900000,36.000000)" style="stroke: black; stroke-width:0.25;"/>
<line x1="287.400000" y1="122.000000" x2="287.400000" y2="118.000000"  style="stroke:black; stroke-linecap:round; stroke-width:0.25;"/>
<line x1="287.400000" y1="118.000000" x2="291.400000" y2="118.000000"  style="stroke:black; stroke-linecap:round; stroke-width:0.25;"/>
<line x1="291.400000" y1="118.000000" x2="291.400000" y2="122.000000"  style="stroke:black; stroke-linecap:round; stroke-width:0.25;"/>
<rect x="309.400000" y="90.000000" width="24.000000" height="24.000000" rx="0" ry="0" style="stroke:#000000;fill:#FFFFFF;"/>
<text x="321.400000" y="104.000000" font-family="Verdana" font-size="7" text-anchor="middle" fill="#000000">mem</text>
<circle cx="311.400000" cy="92.000000" r="1"/>
<line x1="306.400000" y1="101.000000" x2="309.400000" y2="102.000000"  transform="rotate(0.000000,309.400000,102.000000)" style="stroke: black; stroke-width:0.25;"/>
<line x1="306.400000" y1="103.000000" x2="309.400000" y2="102.000000"  transform="rotate(0.000000,309.400000,102.000000)" style="stroke: black; stroke-width:0.25;"/>
<line x1="15.000000" y1="15.000000" x2="15.000000" y2="189.000000"  style="stroke: black; stroke-linecap:round; stroke-width:0.25; stroke-dasharray:3,3;"/>
<line x1="15.000000" y1="189.000000" x2="350.400000" y2="189.000000"  style="stroke: black; stroke-linecap:round; stroke-width:0.25; stroke-dasharray:3,3;"/>
<line x1="350.400000" y1="189.000000" x2="350.400000" y2="15.000000"  style="stroke: black; stroke-linecap:round; stroke-width:0.25; stroke-dasharray:3,3;"/>
<line x1="15.000000" y1="15.000000" x2="20.000000" y2="15.000000"  style="stroke: black; stroke-linecap:round; stroke-width:0.25; stroke-dasharray:3,3;"/>
<line x1="119.975000" y1="15.000000" x2="350.400000" y2="15.000000"  style="stroke: black; stroke-linecap:round; stroke-width:0.25; stroke-dasharray:3,3;"/>
<text x="20.000000" y="17.000000" font-family="Verdana" font-size="7">dflc((0.004f,...(0.70710677f)</text>
<line x1="352.400000" y1="101.000000" x2="355.400000" y2="102.000000"  transform="rotate(0.000000,355.400000,102.000000)" style="stroke: black; stroke-width:0.25;"/>
<line x1="352.400000" y1="103.000000" x2="355.400000" y2="102.000000"  transform="rotate(0.000000,355.400000,102.000000)" style="stroke: black; stroke-width:0.25;"/>
<line x1="10.000000" y1="102.000000" x2="20.000000" y2="102.000000"  style="stroke:black; stroke-linecap:round; stroke-width:0.25;"/>
<line x1="20.000000" y1="102.000000" x2="24.000000" y2="102.000000"  style="stroke:black; stroke-linecap:round; stroke-width:0.25;"/>
<line x1="24.000000" y1="102.000000" x2="28.000000" y2="102.000000"  style="stroke:black; stroke-linecap:round; stroke-width:0.25;"/>
<line x1="28.000000" y1="102.000000" x2="36.000000" y2="102.000000"  style="stroke:black; stroke-linecap:round; stroke-width:0.25;"/>
<line x1="36.000000" y1="102.000000" x2="36.000000" y2="126.000000"  style="stroke:black; stroke-linecap:round; stroke-width:0.25;"/>
<line x1="36.000000" y1="126.000000" x2="36.000000" y2="126.000000"  style="stroke:black; stroke-linecap:round; stroke-width:0.25;"/>
<line x1="36.000000" y1="126.000000" x2="44.000000" y2="126.000000"  style="stroke:black; stroke-linecap:round; stroke-width:0.25;"/>
<line x1="44.000000" y1="40.000000" x2="44.000000" y2="40.000000"  style="stroke:black; stroke-linecap:round; stroke-width:0.25;"/>
<line x1="44.000000" y1="40.000000" x2="44.000000" y2="118.000000"  style="stroke:black; stroke-linecap:round; stroke-width:0.25;"/>
<line x1="44.000000" y1="118.000000" x2="44.000000" y2="118.000000"  style="stroke:black; stroke-linecap:round; stroke-width:0.25;"/>
<line x1="44.000000" y1="118.000000" x2="48.000000" y2="118.000000"  style="stroke:black; stroke-linecap:round; stroke-width:0.25;"/>
<line x1="44.000000" y1="126.000000" x2="48.000000" y2="126.000000"  style="stroke:black; stroke-linecap:round; stroke-width:0.25;"/>
<line x1="72.000000" y1="122.000000" x2="76.000000" y2="122.000000"  style="stroke:black; stroke-linecap:round; stroke-width:0.25;"/>
<line x1="76.000000" y1="64.000000" x2="84.000000" y2="64.000000"  style="stroke:black; stroke-linecap:round; stroke-width:0.25;"/>
<line x1="76.000000" y1="122.000000" x2="76.000000" y2="64.000000"  style="stroke:black; stroke-linecap:round; stroke-width:0.25;"/>
<line x1="76.000000" y1="122.000000" x2="76.000000" y2="122.000000"  style="stroke:black; stroke-linecap:round; stroke-width:0.25;"/>
<line x1="84.000000" y1="64.000000" x2="166.700000" y2="64.000000"  style="stroke:black; stroke-linecap:round; stroke-width:0.25;"/>
<line x1="116.900000" y1="40.000000" x2="44.000000" y2="40.000000"  style="stroke:black; stroke-linecap:round; stroke-width:0.25;"/>
<line x1="120.900000" y1="40.000000" x2="116.900000" y2="40.000000"  style="stroke:black; stroke-linecap:round; stroke-width:0.25;"/>
<line x1="139.600000" y1="116.000000" x2="143.600000" y2="116.000000"  style="stroke:black; stroke-linecap:round; stroke-width:0.25;"/>
<line x1="143.600000" y1="116.000000" x2="169.400000" y2="116.000000"  style="stroke:black; stroke-linecap:round; stroke-width:0.25;"/>
<line x1="148.900000" y1="36.000000" x2="144.900000" y2="36.000000"  style="stroke:black; stroke-linecap:round; stroke-width:0.25;"/>
<line x1="148.900000" y1="44.000000" x2="144.900000" y2="44.000000"  style="stroke:black; stroke-linecap:round; stroke-width:0.25;"/>
<line x1="148.900000" y1="44.000000" x2="148.900000" y2="44.000000"  style="stroke:black; stroke-linecap:round; stroke-width:0.25;"/>
<line x1="148.900000" y1="56.000000" x2="148.900000" y2="44.000000"  style="stroke:black; stroke-linecap:round; stroke-width:0.25;"/>
<line x1="156.900000" y1="36.000000" x2="148.900000" y2="36.000000"  style="stroke:black; stroke-linecap:round; stroke-width:0.25;"/>
<line x1="156.900000" y1="56.000000" x2="148.900000" y2="56.000000"  style="stroke:black; stroke-linecap:round; stroke-width:0.25;"/>
<line x1="158.700000" y1="158.000000" x2="162.700000" y2="158.000000"  style="stroke:black; stroke-linecap:round; stroke-width:0.25;"/>
<line x1="160.900000" y1="36.000000" x2="156.900000" y2="36.000000"  style="stroke:black; stroke-linecap:round; stroke-width:0.25;"/>
<line x1="162.700000" y1="158.000000" x2="172.700000" y2="158.000000"  style="stroke:black; stroke-linecap:round; stroke-width:0.25;"/>
<line x1="165.400000" y1="84.000000" x2="169.400000" y2="84.000000"  style="stroke:black; stroke-linecap:round; stroke-width:0.25;"/>
<line x1="166.700000" y1="64.000000" x2="249.400000" y2="64.000000"  style="stroke:black; stroke-linecap:round; stroke-width:0.25;"/>
<line x1="169.400000" y1="84.000000" x2="177.400000" y2="84.000000"  style="stroke:black; stroke-linecap:round; stroke-width:0.25;"/>
<line x1="169.400000" y1="104.000000" x2="177.400000" y2="104.000000"  style="stroke:black; stroke-linecap:round; stroke-width:0.25;"/>
<line x1="169.400000" y1="116.000000" x2="169.400000" y2="104.000000"  style="stroke:black; stroke-linecap:round; stroke-width:0.25;"/>
<line x1="169.400000" y1="116.000000" x2="169.400000" y2="116.000000"  style="stroke:black; stroke-linecap:round; stroke-width:0.25;"/>
<line x1="172.700000" y1="158.000000" x2="209.400000" y2="158.000000"  style="stroke:black; stroke-linecap:round; stroke-width:0.25;"/>
<line x1="177.400000" y1="84.000000" x2="177.400000" y2="96.000000"  style="stroke:black; stroke-linecap:round; stroke-width:0.25;"/>
<line x1="177.400000" y1="96.000000" x2="177.400000" y2="96.000000"  style="stroke:black; stroke-linecap:round; stroke-width:0.25;"/>
<line x1="177.400000" y1="96.000000" x2="181.400000" y2="96.000000"  style="stroke:black; stroke-linecap:round; stroke-width:0.25;"/>
<line x1="177.400000" y1="104.000000" x2="181.400000" y2="104.000000"  style="stroke:black; stroke-linecap:round; stroke-width:0.25;"/>
<line x1="186.700000" y1="56.000000" x2="156.900000" y2="56.000000"  style="stroke:black; stroke-linecap:round; stroke-width:0.25;"/>
<line x1="205.400000" y1="100.000000" x2="209.400000" y2="100.000000"  style="stroke:black; stroke-linecap:round; stroke-width:0.25;"/>
<line x1="209.400000" y1="100.000000" x2="217.400000" y2="100.000000"  style="stroke:black; stroke-linecap:round; stroke-width:0.25;"/>
<line x1="209.400000" y1="130.000000" x2="217.400000" y2="130.000000"  style="stroke:black; stroke-linecap:round; stroke-width:0.25;"/>
<line x1="209.400000" y1="158.000000" x2="209.400000" y2="130.000000"  style="stroke:black; stroke-linecap:round; stroke-width:0.25;"/>
<line x1="209.400000" y1="158.000000" x2="209.400000" y2="158.000000"  style="stroke:black; stroke-linecap:round; stroke-width:0.25;"/>
<line x1="216.500000" y1="56.000000" x2="186.700000" y2="56.000000"  style="stroke:black; stroke-linecap:round; stroke-width:0.25;"/>
<line x1="217.400000" y1="100.000000" x2="217.400000" y2="122.000000"  style="stroke:black; stroke-linecap:round; stroke-width:0.25;"/>
<line x1="217.400000" y1="122.000000" x2="217.400000" y2="122.000000"  style="stroke:black; stroke-linecap:round; stroke-width:0.25;"/>
<line x1="217.400000" y1="122.000000" x2="221.400000" y2="122.000000"  style="stroke:black; stroke-linecap:round; stroke-width:0.25;"/>
<line x1="217.400000" y1="130.000000" x2="221.400000" y2="130.000000"  style="stroke:black; stroke-linecap:round; stroke-width:0.25;"/>
<line x1="245.400000" y1="126.000000" x2="249.400000" y2="126.000000"  style="stroke:black; stroke-linecap:round; stroke-width:0.25;"/>
<line x1="249.400000" y1="64.000000" x2="257.400000" y2="64.000000"  style="stroke:black; stroke-linecap:round; stroke-width:0.25;"/>
<line x1="249.400000" y1="126.000000" x2="257.400000" y2="126.000000"  style="stroke:black; stroke-linecap:round; stroke-width:0.25;"/>
<line x1="257.400000" y1="64.000000" x2="257.400000" y2="118.000000"  style="stroke:black; stroke-linecap:round; stroke-width:0.25;"/>
<line x1="257.400000" y1="118.000000" x2="257.400000" y2="118.000000"  style="stroke:black; stroke-linecap:round; stroke-width:0.25;"/>
<line x1="257.400000" y1="118.000000" x2="261.400000" y2="118.000000"  style="stroke:black; stroke-linecap:round; stroke-width:0.25;"/>
<line x1="257.400000" y1="126.000000" x2="261.400000" y2="126.000000"  style="stroke:black; stroke-linecap:round; stroke-width:0.25;"/>
<line x1="285.400000" y1="122.000000" x2="289.400000" y2="122.000000"  style="stroke:black; stroke-linecap:round; stroke-width:0.25;"/>
<line x1="289.400000" y1="56.000000" x2="216.500000" y2="56.000000"  style="stroke:black; stroke-linecap:round; stroke-width:0.25;"/>
<line x1="289.400000" y1="56.000000" x2="289.400000" y2="56.000000"  style="stroke:black; stroke-linecap:round; stroke-width:0.25;"/>
<line x1="289.400000" y1="118.000000" x2="289.400000" y2="56.000000"  style="stroke:black; stroke-linecap:round; stroke-width:0.25;"/>
<line x1="289.400000" y1="122.000000" x2="291.400000" y2="122.000000"  style="stroke:black; stroke-linecap:round; stroke-width:0.25;"/>
<line x1="291.400000" y1="122.000000" x2="297.400000" y2="122.000000"  style="stroke:black; stroke-linecap:round; stroke-width:0.25;"/>
<line x1="297.400000" y1="102.000000" x2="305.400000" y2="102.000000"  style="stroke:black; stroke-linecap:round; stroke-width:0.25;"/>
<line x1="297.400000" y1="122.000000" x2="297.400000" y2="102.000000"  style="stroke:black; stroke-linecap:round; stroke-width:0.25;"/>
<line x1="297.400000" y1="122.000000" x2="297.400000" y2="122.000000"  style="stroke:black; stroke-linecap:round; stroke-width:0.25;"/>
<line x1="305.400000" y1="102.000000" x2="309.400000" y2="102.000000"  style="stroke:black; stroke-linecap:round; stroke-width:0.25;"/>
<line x1="333.400000" y1="102.000000" x2="337.400000" y2="102.000000"  style="stroke:black; stroke-linecap:round; stroke-width:0.25;"/>
<line x1="337.400000" y1="102.000000" x2="337.400000" y2="102.000000"  style="stroke:black; stroke-linecap:round; stroke-width:0.25;"/>
<line x1="337.400000" y1="102.000000" x2="341.400000" y2="102.000000"  style="stroke:black; stroke-linecap:round; stroke-width:0.25;"/>
<line x1="341.400000" y1="102.000000" x2="345.400000" y2="102.000000"  style="stroke:black; stroke-linecap:round; stroke-width:0.25;"/>
<line x1="345.400000" y1="102.000000" x2="355.400000" y2="102.000000"  style="stroke:black; stroke-linecap:round; stroke-width:0.25;"/>
</svg>
