<?xml version="1.0"?>
<svg xmlns="http://www.w3.org/2000/svg" xmlns:xlink="http://www.w3.org/1999/xlink" viewBox="0 0 221.400000 104.000000" width="110.700000mm" height="52.000000mm" version="1.1">
<a xlink:href="rilevatorePic-0x6000217ef570.svg">
<rect x="0.000000" y="0.000000" width="220.400000" height="103.000000" rx="0" ry="0" style="stroke:#000000;fill:#FFFFFF;"/>
</a>
<text x="10.000000" y="7.000000" font-family="Verdana" font-size="7"></text>
<rect x="32.000000" y="40.000000" width="38.700000" height="24.000000" rx="0" ry="0" style="stroke:#000000;fill:#FFFFFF;"/>
<text x="51.350000" y="54.000000" font-family="Verdana" font-size="7" text-anchor="middle" fill="#000000">[173] x</text>
<circle cx="34.000000" cy="42.000000" r="1"/>
<line x1="29.000000" y1="51.000000" x2="32.000000" y2="52.000000"  transform="rotate(0.000000,32.000000,52.000000)" style="stroke: black; stroke-width:0.25;"/>
<line x1="29.000000" y1="53.000000" x2="32.000000" y2="52.000000"  transform="rotate(0.000000,32.000000,52.000000)" style="stroke: black; stroke-width:0.25;"/>
<rect x="94.700000" y="24.000000" width="38.700000" height="24.000000" rx="0" ry="0" style="stroke:#000000;fill:#FFFFFF;"/>
<text x="114.050000" y="38.000000" font-family="Verdana" font-size="7" text-anchor="middle" fill="#000000">[173] x</text>
<circle cx="96.700000" cy="26.000000" r="1"/>
<rect x="78.700000" y="56.000000" width="38.700000" height="24.000000" rx="0" ry="0" style="stroke:#000000;fill:#FFFFFF;"/>
<text x="98.050000" y="70.000000" font-family="Verdana" font-size="7" text-anchor="middle" fill="#000000">[173] x</text>
<circle cx="80.700000" cy="58.000000" r="1"/>
<rect x="125.400000" y="56.000000" width="24.000000" height="24.000000" rx="0" ry="0" style="stroke:#000000;fill:#FFFFFF;"/>
<text x="137.400000" y="70.000000" font-family="Verdana" font-size="7" text-anchor="middle" fill="#000000">mem</text>
<circle cx="127.400000" cy="58.000000" r="1"/>
<line x1="122.400000" y1="67.000000" x2="125.400000" y2="68.000000"  transform="rotate(0.000000,125.400000,68.000000)" style="stroke: black; stroke-width:0.25;"/>
<line x1="122.400000" y1="69.000000" x2="125.400000" y2="68.000000"  transform="rotate(0.000000,125.400000,68.000000)" style="stroke: black; stroke-width:0.25;"/>
<rect x="165.400000" y="40.000000" width="24.000000" height="24.000000" rx="0" ry="0" style="stroke:#000000;fill:#FFFFFF;"/>
<text x="177.400000" y="54.000000" font-family="Verdana" font-size="7" text-anchor="middle" fill="#000000">&gt;</text>
<circle cx="167.400000" cy="42.000000" r="1"/>
<line x1="162.400000" y1="47.000000" x2="165.400000" y2="48.000000"  transform="rotate(0.000000,165.400000,48.000000)" style="stroke: black; stroke-width:0.25;"/>
<line x1="162.400000" y1="49.000000" x2="165.400000" y2="48.000000"  transform="rotate(0.000000,165.400000,48.000000)" style="stroke: black; stroke-width:0.25;"/>
<line x1="162.400000" y1="55.000000" x2="165.400000" y2="56.000000"  transform="rotate(0.000000,165.400000,56.000000)" style="stroke: black; stroke-width:0.25;"/>
<line x1="162.400000" y1="57.000000" x2="165.400000" y2="56.000000"  transform="rotate(0.000000,165.400000,56.000000)" style="stroke: black; stroke-width:0.25;"/>
<line x1="15.000000" y1="15.000000" x2="15.000000" y2="89.000000"  style="stroke: black; stroke-linecap:round; stroke-width:0.25; stroke-dasharray:3,3;"/>
<line x1="15.000000" y1="89.000000" x2="206.400000" y2="89.000000"  style="stroke: black; stroke-linecap:round; stroke-width:0.25; stroke-dasharray:3,3;"/>
<line x1="206.400000" y1="89.000000" x2="206.400000" y2="15.000000"  style="stroke: black; stroke-linecap:round; stroke-width:0.25; stroke-dasharray:3,3;"/>
<line x1="15.000000" y1="15.000000" x2="20.000000" y2="15.000000"  style="stroke: black; stroke-linecap:round; stroke-width:0.25; stroke-dasharray:3,3;"/>
<line x1="55.475000" y1="15.000000" x2="206.400000" y2="15.000000"  style="stroke: black; stroke-linecap:round; stroke-width:0.25; stroke-dasharray:3,3;"/>
<text x="20.000000" y="17.000000" font-family="Verdana" font-size="7">diffTresh</text>
<line x1="208.400000" y1="51.000000" x2="211.400000" y2="52.000000"  transform="rotate(0.000000,211.400000,52.000000)" style="stroke: black; stroke-width:0.25;"/>
<line x1="208.400000" y1="53.000000" x2="211.400000" y2="52.000000"  transform="rotate(0.000000,211.400000,52.000000)" style="stroke: black; stroke-width:0.25;"/>
<line x1="10.000000" y1="52.000000" x2="20.000000" y2="52.000000"  style="stroke:black; stroke-linecap:round; stroke-width:0.25;"/>
<line x1="20.000000" y1="52.000000" x2="24.000000" y2="52.000000"  style="stroke:black; stroke-linecap:round; stroke-width:0.25;"/>
<line x1="24.000000" y1="52.000000" x2="28.000000" y2="52.000000"  style="stroke:black; stroke-linecap:round; stroke-width:0.25;"/>
<line x1="28.000000" y1="52.000000" x2="28.000000" y2="52.000000"  style="stroke:black; stroke-linecap:round; stroke-width:0.25;"/>
<line x1="28.000000" y1="52.000000" x2="32.000000" y2="52.000000"  style="stroke:black; stroke-linecap:round; stroke-width:0.25;"/>
<line x1="117.400000" y1="68.000000" x2="121.400000" y2="68.000000"  style="stroke:black; stroke-linecap:round; stroke-width:0.25;"/>
<line x1="121.400000" y1="68.000000" x2="121.400000" y2="68.000000"  style="stroke:black; stroke-linecap:round; stroke-width:0.25;"/>
<line x1="121.400000" y1="68.000000" x2="125.400000" y2="68.000000"  style="stroke:black; stroke-linecap:round; stroke-width:0.25;"/>
<line x1="133.400000" y1="36.000000" x2="137.400000" y2="36.000000"  style="stroke:black; stroke-linecap:round; stroke-width:0.25;"/>
<line x1="137.400000" y1="36.000000" x2="153.400000" y2="36.000000"  style="stroke:black; stroke-linecap:round; stroke-width:0.25;"/>
<line x1="149.400000" y1="68.000000" x2="153.400000" y2="68.000000"  style="stroke:black; stroke-linecap:round; stroke-width:0.25;"/>
<line x1="153.400000" y1="36.000000" x2="161.400000" y2="36.000000"  style="stroke:black; stroke-linecap:round; stroke-width:0.25;"/>
<line x1="153.400000" y1="56.000000" x2="161.400000" y2="56.000000"  style="stroke:black; stroke-linecap:round; stroke-width:0.25;"/>
<line x1="153.400000" y1="68.000000" x2="153.400000" y2="56.000000"  style="stroke:black; stroke-linecap:round; stroke-width:0.25;"/>
<line x1="153.400000" y1="68.000000" x2="153.400000" y2="68.000000"  style="stroke:black; stroke-linecap:round; stroke-width:0.25;"/>
<line x1="161.400000" y1="36.000000" x2="161.400000" y2="48.000000"  style="stroke:black; stroke-linecap:round; stroke-width:0.25;"/>
<line x1="161.400000" y1="48.000000" x2="161.400000" y2="48.000000"  style="stroke:black; stroke-linecap:round; stroke-width:0.25;"/>
<line x1="161.400000" y1="48.000000" x2="165.400000" y2="48.000000"  style="stroke:black; stroke-linecap:round; stroke-width:0.25;"/>
<line x1="161.400000" y1="56.000000" x2="165.400000" y2="56.000000"  style="stroke:black; stroke-linecap:round; stroke-width:0.25;"/>
<line x1="189.400000" y1="52.000000" x2="193.400000" y2="52.000000"  style="stroke:black; stroke-linecap:round; stroke-width:0.25;"/>
<line x1="193.400000" y1="52.000000" x2="193.400000" y2="52.000000"  style="stroke:black; stroke-linecap:round; stroke-width:0.25;"/>
<line x1="193.400000" y1="52.000000" x2="197.400000" y2="52.000000"  style="stroke:black; stroke-linecap:round; stroke-width:0.25;"/>
<line x1="197.400000" y1="52.000000" x2="201.400000" y2="52.000000"  style="stroke:black; stroke-linecap:round; stroke-width:0.25;"/>
<line x1="201.400000" y1="52.000000" x2="211.400000" y2="52.000000"  style="stroke:black; stroke-linecap:round; stroke-width:0.25;"/>
</svg>
