<?xml version="1.0"?>
<svg xmlns="http://www.w3.org/2000/svg" xmlns:xlink="http://www.w3.org/1999/xlink" viewBox="0 0 336.500000 368.000000" width="168.250000mm" height="184.000000mm" version="1.1">
<a xlink:href="smoo-0x6000157660a0.svg">
<rect x="0.000000" y="0.000000" width="335.500000" height="367.000000" rx="0" ry="0" style="stroke:#000000;fill:#FFFFFF;"/>
</a>
<text x="10.000000" y="7.000000" font-family="Verdana" font-size="7"></text>
<rect x="32.000000" y="172.000000" width="38.700000" height="24.000000" rx="0" ry="0" style="stroke:#000000;fill:#FFFFFF;"/>
<text x="51.350000" y="186.000000" font-family="Verdana" font-size="7" text-anchor="middle" fill="#000000">[481] y</text>
<circle cx="34.000000" cy="174.000000" r="1"/>
<line x1="29.000000" y1="183.000000" x2="32.000000" y2="184.000000"  transform="rotate(0.000000,32.000000,184.000000)" style="stroke: black; stroke-width:0.25;"/>
<line x1="29.000000" y1="185.000000" x2="32.000000" y2="184.000000"  transform="rotate(0.000000,32.000000,184.000000)" style="stroke: black; stroke-width:0.25;"/>
<rect x="118.700000" y="24.000000" width="25.800000" height="24.000000" rx="0" ry="0" style="stroke:#000000;fill:#FFFFFF;"/>
<text x="131.600000" y="38.000000" font-family="Verdana" font-size="7" text-anchor="middle" fill="#000000">1.0f</text>
<circle cx="120.700000" cy="26.000000" r="1"/>
<rect x="99.600000" y="66.000000" width="24.000000" height="24.000000" rx="0" ry="0" style="stroke:#000000;fill:#FFFFFF;"/>
<text x="111.600000" y="80.000000" font-family="Verdana" font-size="7" text-anchor="middle" fill="#000000">1</text>
<circle cx="101.600000" cy="68.000000" r="1"/>
<line x1="90.600000" y1="57.000000" x2="90.600000" y2="99.000000"  style="stroke: black; stroke-linecap:round; stroke-width:0.25; stroke-dasharray:3,3;"/>
<line x1="90.600000" y1="99.000000" x2="132.600000" y2="99.000000"  style="stroke: black; stroke-linecap:round; stroke-width:0.25; stroke-dasharray:3,3;"/>
<line x1="132.600000" y1="99.000000" x2="132.600000" y2="57.000000"  style="stroke: black; stroke-linecap:round; stroke-width:0.25; stroke-dasharray:3,3;"/>
<line x1="90.600000" y1="57.000000" x2="95.600000" y2="57.000000"  style="stroke: black; stroke-linecap:round; stroke-width:0.25; stroke-dasharray:3,3;"/>
<line x1="132.600000" y1="57.000000" x2="132.600000" y2="57.000000"  style="stroke: black; stroke-linecap:round; stroke-width:0.25; stroke-dasharray:3,3;"/>
<text x="95.600000" y="59.000000" font-family="Verdana" font-size="7">signum(90)</text>
<rect x="78.700000" y="108.000000" width="25.800000" height="24.000000" rx="0" ry="0" style="stroke:#000000;fill:#FFFFFF;"/>
<text x="91.600000" y="122.000000" font-family="Verdana" font-size="7" text-anchor="middle" fill="#000000">44.1f</text>
<circle cx="80.700000" cy="110.000000" r="1"/>
<a xlink:href="SR-0x6000017c2e20.svg">
<rect x="79.600000" y="140.000000" width="24.000000" height="24.000000" rx="0" ry="0" style="stroke:#000000;fill:#FFFFFF;"/>
</a>
<a xlink:href="SR-0x6000017c2e20.svg">
<text x="91.600000" y="154.000000" font-family="Verdana" font-size="7" text-anchor="middle" fill="#000000">SR</text>
</a>
<circle cx="81.600000" cy="142.000000" r="1"/>
<rect x="120.500000" y="124.000000" width="24.000000" height="24.000000" rx="0" ry="0" style="stroke:#000000;fill:#FFFFFF;"/>
<text x="132.500000" y="138.000000" font-family="Verdana" font-size="7" text-anchor="middle" fill="#000000">/</text>
<circle cx="122.500000" cy="126.000000" r="1"/>
<line x1="117.500000" y1="131.000000" x2="120.500000" y2="132.000000"  transform="rotate(0.000000,120.500000,132.000000)" style="stroke: black; stroke-width:0.25;"/>
<line x1="117.500000" y1="133.000000" x2="120.500000" y2="132.000000"  transform="rotate(0.000000,120.500000,132.000000)" style="stroke: black; stroke-width:0.25;"/>
<line x1="117.500000" y1="139.000000" x2="120.500000" y2="140.000000"  transform="rotate(0.000000,120.500000,140.000000)" style="stroke: black; stroke-width:0.25;"/>
<line x1="117.500000" y1="141.000000" x2="120.500000" y2="140.000000"  transform="rotate(0.000000,120.500000,140.000000)" style="stroke: black; stroke-width:0.25;"/>
<rect x="160.500000" y="98.000000" width="24.000000" height="24.000000" rx="0" ry="0" style="stroke:#000000;fill:#FFFFFF;"/>
<text x="172.500000" y="112.000000" font-family="Verdana" font-size="7" text-anchor="middle" fill="#000000">-</text>
<circle cx="162.500000" cy="100.000000" r="1"/>
<line x1="157.500000" y1="105.000000" x2="160.500000" y2="106.000000"  transform="rotate(0.000000,160.500000,106.000000)" style="stroke: black; stroke-width:0.25;"/>
<line x1="157.500000" y1="107.000000" x2="160.500000" y2="106.000000"  transform="rotate(0.000000,160.500000,106.000000)" style="stroke: black; stroke-width:0.25;"/>
<line x1="157.500000" y1="113.000000" x2="160.500000" y2="114.000000"  transform="rotate(0.000000,160.500000,114.000000)" style="stroke: black; stroke-width:0.25;"/>
<line x1="157.500000" y1="115.000000" x2="160.500000" y2="114.000000"  transform="rotate(0.000000,160.500000,114.000000)" style="stroke: black; stroke-width:0.25;"/>
<rect x="200.500000" y="82.000000" width="24.000000" height="24.000000" rx="0" ry="0" style="stroke:#000000;fill:#FFFFFF;"/>
<text x="212.500000" y="96.000000" font-family="Verdana" font-size="7" text-anchor="middle" fill="#000000">-</text>
<circle cx="202.500000" cy="84.000000" r="1"/>
<line x1="197.500000" y1="89.000000" x2="200.500000" y2="90.000000"  transform="rotate(0.000000,200.500000,90.000000)" style="stroke: black; stroke-width:0.25;"/>
<line x1="197.500000" y1="91.000000" x2="200.500000" y2="90.000000"  transform="rotate(0.000000,200.500000,90.000000)" style="stroke: black; stroke-width:0.25;"/>
<line x1="197.500000" y1="97.000000" x2="200.500000" y2="98.000000"  transform="rotate(0.000000,200.500000,98.000000)" style="stroke: black; stroke-width:0.25;"/>
<line x1="197.500000" y1="99.000000" x2="200.500000" y2="98.000000"  transform="rotate(0.000000,200.500000,98.000000)" style="stroke: black; stroke-width:0.25;"/>
<rect x="132.250000" y="172.000000" width="38.700000" height="24.000000" rx="0" ry="0" style="stroke:#000000;fill:#FFFFFF;"/>
<text x="151.600000" y="186.000000" font-family="Verdana" font-size="7" text-anchor="middle" fill="#000000">[480] x</text>
<circle cx="134.250000" cy="174.000000" r="1"/>
<rect x="240.500000" y="98.000000" width="24.000000" height="24.000000" rx="0" ry="0" style="stroke:#000000;fill:#FFFFFF;"/>
<text x="252.500000" y="112.000000" font-family="Verdana" font-size="7" text-anchor="middle" fill="#000000">*</text>
<circle cx="242.500000" cy="100.000000" r="1"/>
<line x1="237.500000" y1="105.000000" x2="240.500000" y2="106.000000"  transform="rotate(0.000000,240.500000,106.000000)" style="stroke: black; stroke-width:0.25;"/>
<line x1="237.500000" y1="107.000000" x2="240.500000" y2="106.000000"  transform="rotate(0.000000,240.500000,106.000000)" style="stroke: black; stroke-width:0.25;"/>
<line x1="237.500000" y1="113.000000" x2="240.500000" y2="114.000000"  transform="rotate(0.000000,240.500000,114.000000)" style="stroke: black; stroke-width:0.25;"/>
<line x1="237.500000" y1="115.000000" x2="240.500000" y2="114.000000"  transform="rotate(0.000000,240.500000,114.000000)" style="stroke: black; stroke-width:0.25;"/>
<rect x="119.600000" y="214.000000" width="24.000000" height="24.000000" rx="0" ry="0" style="stroke:#000000;fill:#FFFFFF;"/>
<text x="131.600000" y="228.000000" font-family="Verdana" font-size="7" text-anchor="middle" fill="#000000">1</text>
<circle cx="121.600000" cy="216.000000" r="1"/>
<line x1="110.600000" y1="205.000000" x2="110.600000" y2="247.000000"  style="stroke: black; stroke-linecap:round; stroke-width:0.25; stroke-dasharray:3,3;"/>
<line x1="110.600000" y1="247.000000" x2="152.600000" y2="247.000000"  style="stroke: black; stroke-linecap:round; stroke-width:0.25; stroke-dasharray:3,3;"/>
<line x1="152.600000" y1="247.000000" x2="152.600000" y2="205.000000"  style="stroke: black; stroke-linecap:round; stroke-width:0.25; stroke-dasharray:3,3;"/>
<line x1="110.600000" y1="205.000000" x2="115.600000" y2="205.000000"  style="stroke: black; stroke-linecap:round; stroke-width:0.25; stroke-dasharray:3,3;"/>
<line x1="152.600000" y1="205.000000" x2="152.600000" y2="205.000000"  style="stroke: black; stroke-linecap:round; stroke-width:0.25; stroke-dasharray:3,3;"/>
<text x="115.600000" y="207.000000" font-family="Verdana" font-size="7">signum(90)</text>
<rect x="98.700000" y="256.000000" width="25.800000" height="24.000000" rx="0" ry="0" style="stroke:#000000;fill:#FFFFFF;"/>
<text x="111.600000" y="270.000000" font-family="Verdana" font-size="7" text-anchor="middle" fill="#000000">44.1f</text>
<circle cx="100.700000" cy="258.000000" r="1"/>
<a xlink:href="SR-0x6000017c2e20.svg">
<rect x="99.600000" y="288.000000" width="24.000000" height="24.000000" rx="0" ry="0" style="stroke:#000000;fill:#FFFFFF;"/>
</a>
<a xlink:href="SR-0x6000017c2e20.svg">
<text x="111.600000" y="302.000000" font-family="Verdana" font-size="7" text-anchor="middle" fill="#000000">SR</text>
</a>
<circle cx="101.600000" cy="290.000000" r="1"/>
<rect x="140.500000" y="272.000000" width="24.000000" height="24.000000" rx="0" ry="0" style="stroke:#000000;fill:#FFFFFF;"/>
<text x="152.500000" y="286.000000" font-family="Verdana" font-size="7" text-anchor="middle" fill="#000000">/</text>
<circle cx="142.500000" cy="274.000000" r="1"/>
<line x1="137.500000" y1="279.000000" x2="140.500000" y2="280.000000"  transform="rotate(0.000000,140.500000,280.000000)" style="stroke: black; stroke-width:0.25;"/>
<line x1="137.500000" y1="281.000000" x2="140.500000" y2="280.000000"  transform="rotate(0.000000,140.500000,280.000000)" style="stroke: black; stroke-width:0.25;"/>
<line x1="137.500000" y1="287.000000" x2="140.500000" y2="288.000000"  transform="rotate(0.000000,140.500000,288.000000)" style="stroke: black; stroke-width:0.25;"/>
<line x1="137.500000" y1="289.000000" x2="140.500000" y2="288.000000"  transform="rotate(0.000000,140.500000,288.000000)" style="stroke: black; stroke-width:0.25;"/>
<rect x="180.500000" y="246.000000" width="24.000000" height="24.000000" rx="0" ry="0" style="stroke:#000000;fill:#FFFFFF;"/>
<text x="192.500000" y="260.000000" font-family="Verdana" font-size="7" text-anchor="middle" fill="#000000">-</text>
<circle cx="182.500000" cy="248.000000" r="1"/>
<line x1="177.500000" y1="253.000000" x2="180.500000" y2="254.000000"  transform="rotate(0.000000,180.500000,254.000000)" style="stroke: black; stroke-width:0.25;"/>
<line x1="177.500000" y1="255.000000" x2="180.500000" y2="254.000000"  transform="rotate(0.000000,180.500000,254.000000)" style="stroke: black; stroke-width:0.25;"/>
<line x1="177.500000" y1="261.000000" x2="180.500000" y2="262.000000"  transform="rotate(0.000000,180.500000,262.000000)" style="stroke: black; stroke-width:0.25;"/>
<line x1="177.500000" y1="263.000000" x2="180.500000" y2="262.000000"  transform="rotate(0.000000,180.500000,262.000000)" style="stroke: black; stroke-width:0.25;"/>
<rect x="132.250000" y="320.000000" width="38.700000" height="24.000000" rx="0" ry="0" style="stroke:#000000;fill:#FFFFFF;"/>
<text x="151.600000" y="334.000000" font-family="Verdana" font-size="7" text-anchor="middle" fill="#000000">[481] y</text>
<circle cx="134.250000" cy="322.000000" r="1"/>
<rect x="220.500000" y="262.000000" width="24.000000" height="24.000000" rx="0" ry="0" style="stroke:#000000;fill:#FFFFFF;"/>
<text x="232.500000" y="276.000000" font-family="Verdana" font-size="7" text-anchor="middle" fill="#000000">*</text>
<circle cx="222.500000" cy="264.000000" r="1"/>
<line x1="217.500000" y1="269.000000" x2="220.500000" y2="270.000000"  transform="rotate(0.000000,220.500000,270.000000)" style="stroke: black; stroke-width:0.25;"/>
<line x1="217.500000" y1="271.000000" x2="220.500000" y2="270.000000"  transform="rotate(0.000000,220.500000,270.000000)" style="stroke: black; stroke-width:0.25;"/>
<line x1="217.500000" y1="277.000000" x2="220.500000" y2="278.000000"  transform="rotate(0.000000,220.500000,278.000000)" style="stroke: black; stroke-width:0.25;"/>
<line x1="217.500000" y1="279.000000" x2="220.500000" y2="278.000000"  transform="rotate(0.000000,220.500000,278.000000)" style="stroke: black; stroke-width:0.25;"/>
<rect x="280.500000" y="172.000000" width="24.000000" height="24.000000" rx="0" ry="0" style="stroke:#000000;fill:#FFFFFF;"/>
<text x="292.500000" y="186.000000" font-family="Verdana" font-size="7" text-anchor="middle" fill="#000000">+</text>
<circle cx="282.500000" cy="174.000000" r="1"/>
<line x1="277.500000" y1="179.000000" x2="280.500000" y2="180.000000"  transform="rotate(0.000000,280.500000,180.000000)" style="stroke: black; stroke-width:0.25;"/>
<line x1="277.500000" y1="181.000000" x2="280.500000" y2="180.000000"  transform="rotate(0.000000,280.500000,180.000000)" style="stroke: black; stroke-width:0.25;"/>
<line x1="277.500000" y1="187.000000" x2="280.500000" y2="188.000000"  transform="rotate(0.000000,280.500000,188.000000)" style="stroke: black; stroke-width:0.25;"/>
<line x1="277.500000" y1="189.000000" x2="280.500000" y2="188.000000"  transform="rotate(0.000000,280.500000,188.000000)" style="stroke: black; stroke-width:0.25;"/>
<line x1="15.000000" y1="15.000000" x2="15.000000" y2="353.000000"  style="stroke: black; stroke-linecap:round; stroke-width:0.25; stroke-dasharray:3,3;"/>
<line x1="15.000000" y1="353.000000" x2="321.500000" y2="353.000000"  style="stroke: black; stroke-linecap:round; stroke-width:0.25; stroke-dasharray:3,3;"/>
<line x1="321.500000" y1="353.000000" x2="321.500000" y2="15.000000"  style="stroke: black; stroke-linecap:round; stroke-width:0.25; stroke-dasharray:3,3;"/>
<line x1="15.000000" y1="15.000000" x2="20.000000" y2="15.000000"  style="stroke: black; stroke-linecap:round; stroke-width:0.25; stroke-dasharray:3,3;"/>
<line x1="32.900000" y1="15.000000" x2="321.500000" y2="15.000000"  style="stroke: black; stroke-linecap:round; stroke-width:0.25; stroke-dasharray:3,3;"/>
<text x="20.000000" y="17.000000" font-family="Verdana" font-size="7">fb</text>
<line x1="323.500000" y1="183.000000" x2="326.500000" y2="184.000000"  transform="rotate(0.000000,326.500000,184.000000)" style="stroke: black; stroke-width:0.25;"/>
<line x1="323.500000" y1="185.000000" x2="326.500000" y2="184.000000"  transform="rotate(0.000000,326.500000,184.000000)" style="stroke: black; stroke-width:0.25;"/>
<line x1="10.000000" y1="184.000000" x2="20.000000" y2="184.000000"  style="stroke:black; stroke-linecap:round; stroke-width:0.25;"/>
<line x1="20.000000" y1="184.000000" x2="24.000000" y2="184.000000"  style="stroke:black; stroke-linecap:round; stroke-width:0.25;"/>
<line x1="24.000000" y1="184.000000" x2="28.000000" y2="184.000000"  style="stroke:black; stroke-linecap:round; stroke-width:0.25;"/>
<line x1="28.000000" y1="184.000000" x2="28.000000" y2="184.000000"  style="stroke:black; stroke-linecap:round; stroke-width:0.25;"/>
<line x1="28.000000" y1="184.000000" x2="32.000000" y2="184.000000"  style="stroke:black; stroke-linecap:round; stroke-width:0.25;"/>
<line x1="103.600000" y1="152.000000" x2="107.600000" y2="152.000000"  style="stroke:black; stroke-linecap:round; stroke-width:0.25;"/>
<line x1="104.500000" y1="120.000000" x2="108.500000" y2="120.000000"  style="stroke:black; stroke-linecap:round; stroke-width:0.25;"/>
<line x1="107.600000" y1="152.000000" x2="108.500000" y2="152.000000"  style="stroke:black; stroke-linecap:round; stroke-width:0.25;"/>
<line x1="108.500000" y1="120.000000" x2="116.500000" y2="120.000000"  style="stroke:black; stroke-linecap:round; stroke-width:0.25;"/>
<line x1="108.500000" y1="140.000000" x2="116.500000" y2="140.000000"  style="stroke:black; stroke-linecap:round; stroke-width:0.25;"/>
<line x1="108.500000" y1="152.000000" x2="108.500000" y2="140.000000"  style="stroke:black; stroke-linecap:round; stroke-width:0.25;"/>
<line x1="108.500000" y1="152.000000" x2="108.500000" y2="152.000000"  style="stroke:black; stroke-linecap:round; stroke-width:0.25;"/>
<line x1="116.500000" y1="120.000000" x2="116.500000" y2="132.000000"  style="stroke:black; stroke-linecap:round; stroke-width:0.25;"/>
<line x1="116.500000" y1="132.000000" x2="116.500000" y2="132.000000"  style="stroke:black; stroke-linecap:round; stroke-width:0.25;"/>
<line x1="116.500000" y1="132.000000" x2="120.500000" y2="132.000000"  style="stroke:black; stroke-linecap:round; stroke-width:0.25;"/>
<line x1="116.500000" y1="140.000000" x2="120.500000" y2="140.000000"  style="stroke:black; stroke-linecap:round; stroke-width:0.25;"/>
<line x1="123.600000" y1="78.000000" x2="127.600000" y2="78.000000"  style="stroke:black; stroke-linecap:round; stroke-width:0.25;"/>
<line x1="123.600000" y1="300.000000" x2="127.600000" y2="300.000000"  style="stroke:black; stroke-linecap:round; stroke-width:0.25;"/>
<line x1="124.500000" y1="268.000000" x2="128.500000" y2="268.000000"  style="stroke:black; stroke-linecap:round; stroke-width:0.25;"/>
<line x1="127.600000" y1="78.000000" x2="137.600000" y2="78.000000"  style="stroke:black; stroke-linecap:round; stroke-width:0.25;"/>
<line x1="127.600000" y1="300.000000" x2="128.500000" y2="300.000000"  style="stroke:black; stroke-linecap:round; stroke-width:0.25;"/>
<line x1="128.500000" y1="268.000000" x2="136.500000" y2="268.000000"  style="stroke:black; stroke-linecap:round; stroke-width:0.25;"/>
<line x1="128.500000" y1="288.000000" x2="136.500000" y2="288.000000"  style="stroke:black; stroke-linecap:round; stroke-width:0.25;"/>
<line x1="128.500000" y1="300.000000" x2="128.500000" y2="288.000000"  style="stroke:black; stroke-linecap:round; stroke-width:0.25;"/>
<line x1="128.500000" y1="300.000000" x2="128.500000" y2="300.000000"  style="stroke:black; stroke-linecap:round; stroke-width:0.25;"/>
<line x1="136.500000" y1="268.000000" x2="136.500000" y2="280.000000"  style="stroke:black; stroke-linecap:round; stroke-width:0.25;"/>
<line x1="136.500000" y1="280.000000" x2="136.500000" y2="280.000000"  style="stroke:black; stroke-linecap:round; stroke-width:0.25;"/>
<line x1="136.500000" y1="280.000000" x2="140.500000" y2="280.000000"  style="stroke:black; stroke-linecap:round; stroke-width:0.25;"/>
<line x1="136.500000" y1="288.000000" x2="140.500000" y2="288.000000"  style="stroke:black; stroke-linecap:round; stroke-width:0.25;"/>
<line x1="137.600000" y1="78.000000" x2="148.500000" y2="78.000000"  style="stroke:black; stroke-linecap:round; stroke-width:0.25;"/>
<line x1="143.600000" y1="226.000000" x2="147.600000" y2="226.000000"  style="stroke:black; stroke-linecap:round; stroke-width:0.25;"/>
<line x1="144.500000" y1="36.000000" x2="148.500000" y2="36.000000"  style="stroke:black; stroke-linecap:round; stroke-width:0.25;"/>
<line x1="144.500000" y1="136.000000" x2="148.500000" y2="136.000000"  style="stroke:black; stroke-linecap:round; stroke-width:0.25;"/>
<line x1="147.600000" y1="226.000000" x2="157.600000" y2="226.000000"  style="stroke:black; stroke-linecap:round; stroke-width:0.25;"/>
<line x1="148.500000" y1="36.000000" x2="188.500000" y2="36.000000"  style="stroke:black; stroke-linecap:round; stroke-width:0.25;"/>
<line x1="148.500000" y1="78.000000" x2="156.500000" y2="78.000000"  style="stroke:black; stroke-linecap:round; stroke-width:0.25;"/>
<line x1="148.500000" y1="114.000000" x2="156.500000" y2="114.000000"  style="stroke:black; stroke-linecap:round; stroke-width:0.25;"/>
<line x1="148.500000" y1="136.000000" x2="148.500000" y2="114.000000"  style="stroke:black; stroke-linecap:round; stroke-width:0.25;"/>
<line x1="148.500000" y1="136.000000" x2="148.500000" y2="136.000000"  style="stroke:black; stroke-linecap:round; stroke-width:0.25;"/>
<line x1="156.500000" y1="78.000000" x2="156.500000" y2="106.000000"  style="stroke:black; stroke-linecap:round; stroke-width:0.25;"/>
<line x1="156.500000" y1="106.000000" x2="156.500000" y2="106.000000"  style="stroke:black; stroke-linecap:round; stroke-width:0.25;"/>
<line x1="156.500000" y1="106.000000" x2="160.500000" y2="106.000000"  style="stroke:black; stroke-linecap:round; stroke-width:0.25;"/>
<line x1="156.500000" y1="114.000000" x2="160.500000" y2="114.000000"  style="stroke:black; stroke-linecap:round; stroke-width:0.25;"/>
<line x1="157.600000" y1="226.000000" x2="168.500000" y2="226.000000"  style="stroke:black; stroke-linecap:round; stroke-width:0.25;"/>
<line x1="164.500000" y1="284.000000" x2="168.500000" y2="284.000000"  style="stroke:black; stroke-linecap:round; stroke-width:0.25;"/>
<line x1="168.500000" y1="226.000000" x2="176.500000" y2="226.000000"  style="stroke:black; stroke-linecap:round; stroke-width:0.25;"/>
<line x1="168.500000" y1="262.000000" x2="176.500000" y2="262.000000"  style="stroke:black; stroke-linecap:round; stroke-width:0.25;"/>
<line x1="168.500000" y1="284.000000" x2="168.500000" y2="262.000000"  style="stroke:black; stroke-linecap:round; stroke-width:0.25;"/>
<line x1="168.500000" y1="284.000000" x2="168.500000" y2="284.000000"  style="stroke:black; stroke-linecap:round; stroke-width:0.25;"/>
<line x1="170.950000" y1="184.000000" x2="174.950000" y2="184.000000"  style="stroke:black; stroke-linecap:round; stroke-width:0.25;"/>
<line x1="170.950000" y1="332.000000" x2="174.950000" y2="332.000000"  style="stroke:black; stroke-linecap:round; stroke-width:0.25;"/>
<line x1="174.950000" y1="184.000000" x2="228.500000" y2="184.000000"  style="stroke:black; stroke-linecap:round; stroke-width:0.25;"/>
<line x1="174.950000" y1="332.000000" x2="208.500000" y2="332.000000"  style="stroke:black; stroke-linecap:round; stroke-width:0.25;"/>
<line x1="176.500000" y1="226.000000" x2="176.500000" y2="254.000000"  style="stroke:black; stroke-linecap:round; stroke-width:0.25;"/>
<line x1="176.500000" y1="254.000000" x2="176.500000" y2="254.000000"  style="stroke:black; stroke-linecap:round; stroke-width:0.25;"/>
<line x1="176.500000" y1="254.000000" x2="180.500000" y2="254.000000"  style="stroke:black; stroke-linecap:round; stroke-width:0.25;"/>
<line x1="176.500000" y1="262.000000" x2="180.500000" y2="262.000000"  style="stroke:black; stroke-linecap:round; stroke-width:0.25;"/>
<line x1="184.500000" y1="110.000000" x2="188.500000" y2="110.000000"  style="stroke:black; stroke-linecap:round; stroke-width:0.25;"/>
<line x1="188.500000" y1="36.000000" x2="196.500000" y2="36.000000"  style="stroke:black; stroke-linecap:round; stroke-width:0.25;"/>
<line x1="188.500000" y1="98.000000" x2="196.500000" y2="98.000000"  style="stroke:black; stroke-linecap:round; stroke-width:0.25;"/>
<line x1="188.500000" y1="110.000000" x2="188.500000" y2="98.000000"  style="stroke:black; stroke-linecap:round; stroke-width:0.25;"/>
<line x1="188.500000" y1="110.000000" x2="188.500000" y2="110.000000"  style="stroke:black; stroke-linecap:round; stroke-width:0.25;"/>
<line x1="196.500000" y1="36.000000" x2="196.500000" y2="90.000000"  style="stroke:black; stroke-linecap:round; stroke-width:0.25;"/>
<line x1="196.500000" y1="90.000000" x2="196.500000" y2="90.000000"  style="stroke:black; stroke-linecap:round; stroke-width:0.25;"/>
<line x1="196.500000" y1="90.000000" x2="200.500000" y2="90.000000"  style="stroke:black; stroke-linecap:round; stroke-width:0.25;"/>
<line x1="196.500000" y1="98.000000" x2="200.500000" y2="98.000000"  style="stroke:black; stroke-linecap:round; stroke-width:0.25;"/>
<line x1="204.500000" y1="258.000000" x2="208.500000" y2="258.000000"  style="stroke:black; stroke-linecap:round; stroke-width:0.25;"/>
<line x1="208.500000" y1="258.000000" x2="216.500000" y2="258.000000"  style="stroke:black; stroke-linecap:round; stroke-width:0.25;"/>
<line x1="208.500000" y1="278.000000" x2="216.500000" y2="278.000000"  style="stroke:black; stroke-linecap:round; stroke-width:0.25;"/>
<line x1="208.500000" y1="332.000000" x2="208.500000" y2="278.000000"  style="stroke:black; stroke-linecap:round; stroke-width:0.25;"/>
<line x1="208.500000" y1="332.000000" x2="208.500000" y2="332.000000"  style="stroke:black; stroke-linecap:round; stroke-width:0.25;"/>
<line x1="216.500000" y1="258.000000" x2="216.500000" y2="270.000000"  style="stroke:black; stroke-linecap:round; stroke-width:0.25;"/>
<line x1="216.500000" y1="270.000000" x2="216.500000" y2="270.000000"  style="stroke:black; stroke-linecap:round; stroke-width:0.25;"/>
<line x1="216.500000" y1="270.000000" x2="220.500000" y2="270.000000"  style="stroke:black; stroke-linecap:round; stroke-width:0.25;"/>
<line x1="216.500000" y1="278.000000" x2="220.500000" y2="278.000000"  style="stroke:black; stroke-linecap:round; stroke-width:0.25;"/>
<line x1="224.500000" y1="94.000000" x2="228.500000" y2="94.000000"  style="stroke:black; stroke-linecap:round; stroke-width:0.25;"/>
<line x1="228.500000" y1="94.000000" x2="236.500000" y2="94.000000"  style="stroke:black; stroke-linecap:round; stroke-width:0.25;"/>
<line x1="228.500000" y1="114.000000" x2="236.500000" y2="114.000000"  style="stroke:black; stroke-linecap:round; stroke-width:0.25;"/>
<line x1="228.500000" y1="184.000000" x2="228.500000" y2="114.000000"  style="stroke:black; stroke-linecap:round; stroke-width:0.25;"/>
<line x1="228.500000" y1="184.000000" x2="228.500000" y2="184.000000"  style="stroke:black; stroke-linecap:round; stroke-width:0.25;"/>
<line x1="236.500000" y1="94.000000" x2="236.500000" y2="106.000000"  style="stroke:black; stroke-linecap:round; stroke-width:0.25;"/>
<line x1="236.500000" y1="106.000000" x2="236.500000" y2="106.000000"  style="stroke:black; stroke-linecap:round; stroke-width:0.25;"/>
<line x1="236.500000" y1="106.000000" x2="240.500000" y2="106.000000"  style="stroke:black; stroke-linecap:round; stroke-width:0.25;"/>
<line x1="236.500000" y1="114.000000" x2="240.500000" y2="114.000000"  style="stroke:black; stroke-linecap:round; stroke-width:0.25;"/>
<line x1="244.500000" y1="274.000000" x2="248.500000" y2="274.000000"  style="stroke:black; stroke-linecap:round; stroke-width:0.25;"/>
<line x1="248.500000" y1="274.000000" x2="268.500000" y2="274.000000"  style="stroke:black; stroke-linecap:round; stroke-width:0.25;"/>
<line x1="264.500000" y1="110.000000" x2="268.500000" y2="110.000000"  style="stroke:black; stroke-linecap:round; stroke-width:0.25;"/>
<line x1="268.500000" y1="110.000000" x2="276.500000" y2="110.000000"  style="stroke:black; stroke-linecap:round; stroke-width:0.25;"/>
<line x1="268.500000" y1="188.000000" x2="276.500000" y2="188.000000"  style="stroke:black; stroke-linecap:round; stroke-width:0.25;"/>
<line x1="268.500000" y1="274.000000" x2="268.500000" y2="188.000000"  style="stroke:black; stroke-linecap:round; stroke-width:0.25;"/>
<line x1="268.500000" y1="274.000000" x2="268.500000" y2="274.000000"  style="stroke:black; stroke-linecap:round; stroke-width:0.25;"/>
<line x1="276.500000" y1="110.000000" x2="276.500000" y2="180.000000"  style="stroke:black; stroke-linecap:round; stroke-width:0.25;"/>
<line x1="276.500000" y1="180.000000" x2="276.500000" y2="180.000000"  style="stroke:black; stroke-linecap:round; stroke-width:0.25;"/>
<line x1="276.500000" y1="180.000000" x2="280.500000" y2="180.000000"  style="stroke:black; stroke-linecap:round; stroke-width:0.25;"/>
<line x1="276.500000" y1="188.000000" x2="280.500000" y2="188.000000"  style="stroke:black; stroke-linecap:round; stroke-width:0.25;"/>
<line x1="304.500000" y1="184.000000" x2="308.500000" y2="184.000000"  style="stroke:black; stroke-linecap:round; stroke-width:0.25;"/>
<line x1="308.500000" y1="184.000000" x2="308.500000" y2="184.000000"  style="stroke:black; stroke-linecap:round; stroke-width:0.25;"/>
<line x1="308.500000" y1="184.000000" x2="312.500000" y2="184.000000"  style="stroke:black; stroke-linecap:round; stroke-width:0.25;"/>
<line x1="312.500000" y1="184.000000" x2="316.500000" y2="184.000000"  style="stroke:black; stroke-linecap:round; stroke-width:0.25;"/>
<line x1="316.500000" y1="184.000000" x2="326.500000" y2="184.000000"  style="stroke:black; stroke-linecap:round; stroke-width:0.25;"/>
</svg>
