<?xml version="1.0"?>
<svg xmlns="http://www.w3.org/2000/svg" xmlns:xlink="http://www.w3.org/1999/xlink" viewBox="0 0 311.700000 136.000000" width="155.850000mm" height="68.000000mm" version="1.1">
<a xlink:href="g-0x6000196ff180.svg">
<rect x="0.000000" y="0.000000" width="310.700000" height="135.000000" rx="0" ry="0" style="stroke:#000000;fill:#FFFFFF;"/>
</a>
<text x="10.000000" y="7.000000" font-family="Verdana" font-size="7"></text>
<rect x="118.950000" y="24.000000" width="25.800000" height="24.000000" rx="0" ry="0" style="stroke:#000000;fill:#FFFFFF;"/>
<text x="131.850000" y="38.000000" font-family="Verdana" font-size="7" text-anchor="middle" fill="#000000">1.2f</text>
<circle cx="120.950000" cy="26.000000" r="1"/>
<rect x="98.950000" y="56.000000" width="25.800000" height="24.000000" rx="0" ry="0" style="stroke:#000000;fill:#FFFFFF;"/>
<text x="111.850000" y="70.000000" font-family="Verdana" font-size="7" text-anchor="middle" fill="#000000">0.08f</text>
<circle cx="100.950000" cy="58.000000" r="1"/>
<a xlink:href="peakenvelope-0x6000196a2c70.svg">
<rect x="24.000000" y="88.000000" width="103.200000" height="24.000000" rx="0" ry="0" style="stroke:#000000;fill:#FFFFFF;"/>
</a>
<a xlink:href="peakenvelope-0x6000196a2c70.svg">
<text x="75.600000" y="102.000000" font-family="Verdana" font-size="7" text-anchor="middle" fill="#000000">peakenvelope(0.4f)(x516)</text>
</a>
<circle cx="26.000000" cy="90.000000" r="1"/>
<a xlink:href="peakHolder-0x6000196b4990.svg">
<rect x="135.200000" y="88.000000" width="64.500000" height="24.000000" rx="0" ry="0" style="stroke:#000000;fill:#FFFFFF;"/>
</a>
<a xlink:href="peakHolder-0x6000196b4990.svg">
<text x="167.450000" y="102.000000" font-family="Verdana" font-size="7" text-anchor="middle" fill="#000000">peakHolder(6)</text>
</a>
<circle cx="137.200000" cy="90.000000" r="1"/>
<line x1="132.200000" y1="99.000000" x2="135.200000" y2="100.000000"  transform="rotate(0.000000,135.200000,100.000000)" style="stroke: black; stroke-width:0.25;"/>
<line x1="132.200000" y1="101.000000" x2="135.200000" y2="100.000000"  transform="rotate(0.000000,135.200000,100.000000)" style="stroke: black; stroke-width:0.25;"/>
<rect x="215.700000" y="72.000000" width="24.000000" height="24.000000" rx="0" ry="0" style="stroke:#000000;fill:#FFFFFF;"/>
<text x="227.700000" y="86.000000" font-family="Verdana" font-size="7" text-anchor="middle" fill="#000000">*</text>
<circle cx="217.700000" cy="74.000000" r="1"/>
<line x1="212.700000" y1="79.000000" x2="215.700000" y2="80.000000"  transform="rotate(0.000000,215.700000,80.000000)" style="stroke: black; stroke-width:0.25;"/>
<line x1="212.700000" y1="81.000000" x2="215.700000" y2="80.000000"  transform="rotate(0.000000,215.700000,80.000000)" style="stroke: black; stroke-width:0.25;"/>
<line x1="212.700000" y1="87.000000" x2="215.700000" y2="88.000000"  transform="rotate(0.000000,215.700000,88.000000)" style="stroke: black; stroke-width:0.25;"/>
<line x1="212.700000" y1="89.000000" x2="215.700000" y2="88.000000"  transform="rotate(0.000000,215.700000,88.000000)" style="stroke: black; stroke-width:0.25;"/>
<rect x="255.700000" y="56.000000" width="24.000000" height="24.000000" rx="0" ry="0" style="stroke:#000000;fill:#FFFFFF;"/>
<text x="267.700000" y="70.000000" font-family="Verdana" font-size="7" text-anchor="middle" fill="#000000">+</text>
<circle cx="257.700000" cy="58.000000" r="1"/>
<line x1="252.700000" y1="63.000000" x2="255.700000" y2="64.000000"  transform="rotate(0.000000,255.700000,64.000000)" style="stroke: black; stroke-width:0.25;"/>
<line x1="252.700000" y1="65.000000" x2="255.700000" y2="64.000000"  transform="rotate(0.000000,255.700000,64.000000)" style="stroke: black; stroke-width:0.25;"/>
<line x1="252.700000" y1="71.000000" x2="255.700000" y2="72.000000"  transform="rotate(0.000000,255.700000,72.000000)" style="stroke: black; stroke-width:0.25;"/>
<line x1="252.700000" y1="73.000000" x2="255.700000" y2="72.000000"  transform="rotate(0.000000,255.700000,72.000000)" style="stroke: black; stroke-width:0.25;"/>
<line x1="15.000000" y1="15.000000" x2="15.000000" y2="121.000000"  style="stroke: black; stroke-linecap:round; stroke-width:0.25; stroke-dasharray:3,3;"/>
<line x1="15.000000" y1="121.000000" x2="296.700000" y2="121.000000"  style="stroke: black; stroke-linecap:round; stroke-width:0.25; stroke-dasharray:3,3;"/>
<line x1="296.700000" y1="121.000000" x2="296.700000" y2="15.000000"  style="stroke: black; stroke-linecap:round; stroke-width:0.25; stroke-dasharray:3,3;"/>
<line x1="15.000000" y1="15.000000" x2="20.000000" y2="15.000000"  style="stroke: black; stroke-linecap:round; stroke-width:0.25; stroke-dasharray:3,3;"/>
<line x1="81.275000" y1="15.000000" x2="296.700000" y2="15.000000"  style="stroke: black; stroke-linecap:round; stroke-width:0.25; stroke-dasharray:3,3;"/>
<text x="20.000000" y="17.000000" font-family="Verdana" font-size="7">fDev3(1.2f)(x516)</text>
<line x1="298.700000" y1="67.000000" x2="301.700000" y2="68.000000"  transform="rotate(0.000000,301.700000,68.000000)" style="stroke: black; stroke-width:0.25;"/>
<line x1="298.700000" y1="69.000000" x2="301.700000" y2="68.000000"  transform="rotate(0.000000,301.700000,68.000000)" style="stroke: black; stroke-width:0.25;"/>
<line x1="124.750000" y1="68.000000" x2="128.750000" y2="68.000000"  style="stroke:black; stroke-linecap:round; stroke-width:0.25;"/>
<line x1="127.200000" y1="100.000000" x2="131.200000" y2="100.000000"  style="stroke:black; stroke-linecap:round; stroke-width:0.25;"/>
<line x1="128.750000" y1="68.000000" x2="203.700000" y2="68.000000"  style="stroke:black; stroke-linecap:round; stroke-width:0.25;"/>
<line x1="131.200000" y1="100.000000" x2="131.200000" y2="100.000000"  style="stroke:black; stroke-linecap:round; stroke-width:0.25;"/>
<line x1="131.200000" y1="100.000000" x2="135.200000" y2="100.000000"  style="stroke:black; stroke-linecap:round; stroke-width:0.25;"/>
<line x1="144.750000" y1="36.000000" x2="148.750000" y2="36.000000"  style="stroke:black; stroke-linecap:round; stroke-width:0.25;"/>
<line x1="148.750000" y1="36.000000" x2="243.700000" y2="36.000000"  style="stroke:black; stroke-linecap:round; stroke-width:0.25;"/>
<line x1="199.700000" y1="100.000000" x2="203.700000" y2="100.000000"  style="stroke:black; stroke-linecap:round; stroke-width:0.25;"/>
<line x1="203.700000" y1="68.000000" x2="211.700000" y2="68.000000"  style="stroke:black; stroke-linecap:round; stroke-width:0.25;"/>
<line x1="203.700000" y1="88.000000" x2="211.700000" y2="88.000000"  style="stroke:black; stroke-linecap:round; stroke-width:0.25;"/>
<line x1="203.700000" y1="100.000000" x2="203.700000" y2="88.000000"  style="stroke:black; stroke-linecap:round; stroke-width:0.25;"/>
<line x1="203.700000" y1="100.000000" x2="203.700000" y2="100.000000"  style="stroke:black; stroke-linecap:round; stroke-width:0.25;"/>
<line x1="211.700000" y1="68.000000" x2="211.700000" y2="80.000000"  style="stroke:black; stroke-linecap:round; stroke-width:0.25;"/>
<line x1="211.700000" y1="80.000000" x2="211.700000" y2="80.000000"  style="stroke:black; stroke-linecap:round; stroke-width:0.25;"/>
<line x1="211.700000" y1="80.000000" x2="215.700000" y2="80.000000"  style="stroke:black; stroke-linecap:round; stroke-width:0.25;"/>
<line x1="211.700000" y1="88.000000" x2="215.700000" y2="88.000000"  style="stroke:black; stroke-linecap:round; stroke-width:0.25;"/>
<line x1="239.700000" y1="84.000000" x2="243.700000" y2="84.000000"  style="stroke:black; stroke-linecap:round; stroke-width:0.25;"/>
<line x1="243.700000" y1="36.000000" x2="251.700000" y2="36.000000"  style="stroke:black; stroke-linecap:round; stroke-width:0.25;"/>
<line x1="243.700000" y1="72.000000" x2="251.700000" y2="72.000000"  style="stroke:black; stroke-linecap:round; stroke-width:0.25;"/>
<line x1="243.700000" y1="84.000000" x2="243.700000" y2="72.000000"  style="stroke:black; stroke-linecap:round; stroke-width:0.25;"/>
<line x1="243.700000" y1="84.000000" x2="243.700000" y2="84.000000"  style="stroke:black; stroke-linecap:round; stroke-width:0.25;"/>
<line x1="251.700000" y1="36.000000" x2="251.700000" y2="64.000000"  style="stroke:black; stroke-linecap:round; stroke-width:0.25;"/>
<line x1="251.700000" y1="64.000000" x2="251.700000" y2="64.000000"  style="stroke:black; stroke-linecap:round; stroke-width:0.25;"/>
<line x1="251.700000" y1="64.000000" x2="255.700000" y2="64.000000"  style="stroke:black; stroke-linecap:round; stroke-width:0.25;"/>
<line x1="251.700000" y1="72.000000" x2="255.700000" y2="72.000000"  style="stroke:black; stroke-linecap:round; stroke-width:0.25;"/>
<line x1="279.700000" y1="68.000000" x2="283.700000" y2="68.000000"  style="stroke:black; stroke-linecap:round; stroke-width:0.25;"/>
<line x1="283.700000" y1="68.000000" x2="283.700000" y2="68.000000"  style="stroke:black; stroke-linecap:round; stroke-width:0.25;"/>
<line x1="283.700000" y1="68.000000" x2="287.700000" y2="68.000000"  style="stroke:black; stroke-linecap:round; stroke-width:0.25;"/>
<line x1="287.700000" y1="68.000000" x2="291.700000" y2="68.000000"  style="stroke:black; stroke-linecap:round; stroke-width:0.25;"/>
<line x1="291.700000" y1="68.000000" x2="301.700000" y2="68.000000"  style="stroke:black; stroke-linecap:round; stroke-width:0.25;"/>
</svg>
