<?xml version="1.0"?>
<svg xmlns="http://www.w3.org/2000/svg" xmlns:xlink="http://www.w3.org/1999/xlink" viewBox="0 0 314.700000 272.000000" width="157.350000mm" height="136.000000mm" version="1.1">
<a xlink:href="line-0x6000217010e0.svg">
<rect x="0.000000" y="0.000000" width="313.700000" height="271.000000" rx="0" ry="0" style="stroke:#000000;fill:#FFFFFF;"/>
</a>
<text x="10.000000" y="7.000000" font-family="Verdana" font-size="7"></text>
<rect x="32.000000" y="124.000000" width="38.700000" height="24.000000" rx="0" ry="0" style="stroke:#000000;fill:#FFFFFF;"/>
<text x="51.350000" y="138.000000" font-family="Verdana" font-size="7" text-anchor="middle" fill="#000000">[793] x</text>
<circle cx="34.000000" cy="126.000000" r="1"/>
<line x1="29.000000" y1="135.000000" x2="32.000000" y2="136.000000"  transform="rotate(0.000000,32.000000,136.000000)" style="stroke: black; stroke-width:0.25;"/>
<line x1="29.000000" y1="137.000000" x2="32.000000" y2="136.000000"  transform="rotate(0.000000,32.000000,136.000000)" style="stroke: black; stroke-width:0.25;"/>
<rect x="101.350000" y="24.000000" width="38.700000" height="24.000000" rx="0" ry="0" style="stroke:#000000;fill:#FFFFFF;"/>
<text x="120.700000" y="38.000000" font-family="Verdana" font-size="7" text-anchor="middle" fill="#000000">[793] x</text>
<circle cx="103.350000" cy="26.000000" r="1"/>
<rect x="108.700000" y="66.000000" width="24.000000" height="24.000000" rx="0" ry="0" style="stroke:#000000;fill:#FFFFFF;"/>
<text x="120.700000" y="80.000000" font-family="Verdana" font-size="7" text-anchor="middle" fill="#000000">0</text>
<circle cx="110.700000" cy="68.000000" r="1"/>
<line x1="99.700000" y1="57.000000" x2="99.700000" y2="99.000000"  style="stroke: black; stroke-linecap:round; stroke-width:0.25; stroke-dasharray:3,3;"/>
<line x1="99.700000" y1="99.000000" x2="141.700000" y2="99.000000"  style="stroke: black; stroke-linecap:round; stroke-width:0.25; stroke-dasharray:3,3;"/>
<line x1="141.700000" y1="99.000000" x2="141.700000" y2="57.000000"  style="stroke: black; stroke-linecap:round; stroke-width:0.25; stroke-dasharray:3,3;"/>
<line x1="99.700000" y1="57.000000" x2="104.700000" y2="57.000000"  style="stroke: black; stroke-linecap:round; stroke-width:0.25; stroke-dasharray:3,3;"/>
<line x1="124.050000" y1="57.000000" x2="141.700000" y2="57.000000"  style="stroke: black; stroke-linecap:round; stroke-width:0.25; stroke-dasharray:3,3;"/>
<text x="104.700000" y="59.000000" font-family="Verdana" font-size="7">SAFE</text>
<rect x="158.700000" y="50.000000" width="24.000000" height="24.000000" rx="0" ry="0" style="stroke:#000000;fill:#FFFFFF;"/>
<text x="170.700000" y="64.000000" font-family="Verdana" font-size="7" text-anchor="middle" fill="#000000">&gt;</text>
<circle cx="160.700000" cy="52.000000" r="1"/>
<line x1="155.700000" y1="57.000000" x2="158.700000" y2="58.000000"  transform="rotate(0.000000,158.700000,58.000000)" style="stroke: black; stroke-width:0.25;"/>
<line x1="155.700000" y1="59.000000" x2="158.700000" y2="58.000000"  transform="rotate(0.000000,158.700000,58.000000)" style="stroke: black; stroke-width:0.25;"/>
<line x1="155.700000" y1="65.000000" x2="158.700000" y2="66.000000"  transform="rotate(0.000000,158.700000,66.000000)" style="stroke: black; stroke-width:0.25;"/>
<line x1="155.700000" y1="67.000000" x2="158.700000" y2="66.000000"  transform="rotate(0.000000,158.700000,66.000000)" style="stroke: black; stroke-width:0.25;"/>
<rect x="101.350000" y="108.000000" width="38.700000" height="24.000000" rx="0" ry="0" style="stroke:#000000;fill:#FFFFFF;"/>
<text x="120.700000" y="122.000000" font-family="Verdana" font-size="7" text-anchor="middle" fill="#000000">[793] x</text>
<circle cx="103.350000" cy="110.000000" r="1"/>
<rect x="81.350000" y="140.000000" width="38.700000" height="24.000000" rx="0" ry="0" style="stroke:#000000;fill:#FFFFFF;"/>
<text x="100.700000" y="154.000000" font-family="Verdana" font-size="7" text-anchor="middle" fill="#000000">[793] x</text>
<circle cx="83.350000" cy="142.000000" r="1"/>
<rect x="88.700000" y="182.000000" width="24.000000" height="24.000000" rx="0" ry="0" style="stroke:#000000;fill:#FFFFFF;"/>
<text x="100.700000" y="196.000000" font-family="Verdana" font-size="7" text-anchor="middle" fill="#000000">0</text>
<circle cx="90.700000" cy="184.000000" r="1"/>
<line x1="79.700000" y1="173.000000" x2="79.700000" y2="215.000000"  style="stroke: black; stroke-linecap:round; stroke-width:0.25; stroke-dasharray:3,3;"/>
<line x1="79.700000" y1="215.000000" x2="121.700000" y2="215.000000"  style="stroke: black; stroke-linecap:round; stroke-width:0.25; stroke-dasharray:3,3;"/>
<line x1="121.700000" y1="215.000000" x2="121.700000" y2="173.000000"  style="stroke: black; stroke-linecap:round; stroke-width:0.25; stroke-dasharray:3,3;"/>
<line x1="79.700000" y1="173.000000" x2="84.700000" y2="173.000000"  style="stroke: black; stroke-linecap:round; stroke-width:0.25; stroke-dasharray:3,3;"/>
<line x1="104.050000" y1="173.000000" x2="121.700000" y2="173.000000"  style="stroke: black; stroke-linecap:round; stroke-width:0.25; stroke-dasharray:3,3;"/>
<text x="84.700000" y="175.000000" font-family="Verdana" font-size="7">SAFE</text>
<rect x="138.700000" y="166.000000" width="24.000000" height="24.000000" rx="0" ry="0" style="stroke:#000000;fill:#FFFFFF;"/>
<text x="150.700000" y="180.000000" font-family="Verdana" font-size="7" text-anchor="middle" fill="#000000">&gt;</text>
<circle cx="140.700000" cy="168.000000" r="1"/>
<line x1="135.700000" y1="173.000000" x2="138.700000" y2="174.000000"  transform="rotate(0.000000,138.700000,174.000000)" style="stroke: black; stroke-width:0.25;"/>
<line x1="135.700000" y1="175.000000" x2="138.700000" y2="174.000000"  transform="rotate(0.000000,138.700000,174.000000)" style="stroke: black; stroke-width:0.25;"/>
<line x1="135.700000" y1="181.000000" x2="138.700000" y2="182.000000"  transform="rotate(0.000000,138.700000,182.000000)" style="stroke: black; stroke-width:0.25;"/>
<line x1="135.700000" y1="183.000000" x2="138.700000" y2="182.000000"  transform="rotate(0.000000,138.700000,182.000000)" style="stroke: black; stroke-width:0.25;"/>
<rect x="178.700000" y="150.000000" width="24.000000" height="24.000000" rx="0" ry="0" style="stroke:#000000;fill:#FFFFFF;"/>
<text x="190.700000" y="164.000000" font-family="Verdana" font-size="7" text-anchor="middle" fill="#000000">*</text>
<circle cx="180.700000" cy="152.000000" r="1"/>
<line x1="175.700000" y1="157.000000" x2="178.700000" y2="158.000000"  transform="rotate(0.000000,178.700000,158.000000)" style="stroke: black; stroke-width:0.25;"/>
<line x1="175.700000" y1="159.000000" x2="178.700000" y2="158.000000"  transform="rotate(0.000000,178.700000,158.000000)" style="stroke: black; stroke-width:0.25;"/>
<line x1="175.700000" y1="165.000000" x2="178.700000" y2="166.000000"  transform="rotate(0.000000,178.700000,166.000000)" style="stroke: black; stroke-width:0.25;"/>
<line x1="175.700000" y1="167.000000" x2="178.700000" y2="166.000000"  transform="rotate(0.000000,178.700000,166.000000)" style="stroke: black; stroke-width:0.25;"/>
<rect x="218.700000" y="108.000000" width="24.000000" height="24.000000" rx="0" ry="0" style="stroke:#000000;fill:#FFFFFF;"/>
<text x="230.700000" y="122.000000" font-family="Verdana" font-size="7" text-anchor="middle" fill="#000000">+</text>
<circle cx="220.700000" cy="110.000000" r="1"/>
<line x1="215.700000" y1="115.000000" x2="218.700000" y2="116.000000"  transform="rotate(0.000000,218.700000,116.000000)" style="stroke: black; stroke-width:0.25;"/>
<line x1="215.700000" y1="117.000000" x2="218.700000" y2="116.000000"  transform="rotate(0.000000,218.700000,116.000000)" style="stroke: black; stroke-width:0.25;"/>
<line x1="215.700000" y1="123.000000" x2="218.700000" y2="124.000000"  transform="rotate(0.000000,218.700000,124.000000)" style="stroke: black; stroke-width:0.25;"/>
<line x1="215.700000" y1="125.000000" x2="218.700000" y2="124.000000"  transform="rotate(0.000000,218.700000,124.000000)" style="stroke: black; stroke-width:0.25;"/>
<a xlink:href="y-0x60002173ec70.svg">
<rect x="148.700000" y="224.000000" width="24.000000" height="24.000000" rx="0" ry="0" style="stroke:#000000;fill:#FFFFFF;"/>
</a>
<a xlink:href="y-0x60002173ec70.svg">
<text x="160.700000" y="238.000000" font-family="Verdana" font-size="7" text-anchor="middle" fill="#000000">y</text>
</a>
<circle cx="150.700000" cy="226.000000" r="1"/>
<rect x="258.700000" y="124.000000" width="24.000000" height="24.000000" rx="0" ry="0" style="stroke:#000000;fill:#FFFFFF;"/>
<text x="270.700000" y="138.000000" font-family="Verdana" font-size="7" text-anchor="middle" fill="#000000">+</text>
<circle cx="260.700000" cy="126.000000" r="1"/>
<line x1="255.700000" y1="131.000000" x2="258.700000" y2="132.000000"  transform="rotate(0.000000,258.700000,132.000000)" style="stroke: black; stroke-width:0.25;"/>
<line x1="255.700000" y1="133.000000" x2="258.700000" y2="132.000000"  transform="rotate(0.000000,258.700000,132.000000)" style="stroke: black; stroke-width:0.25;"/>
<line x1="255.700000" y1="139.000000" x2="258.700000" y2="140.000000"  transform="rotate(0.000000,258.700000,140.000000)" style="stroke: black; stroke-width:0.25;"/>
<line x1="255.700000" y1="141.000000" x2="258.700000" y2="140.000000"  transform="rotate(0.000000,258.700000,140.000000)" style="stroke: black; stroke-width:0.25;"/>
<line x1="15.000000" y1="15.000000" x2="15.000000" y2="257.000000"  style="stroke: black; stroke-linecap:round; stroke-width:0.25; stroke-dasharray:3,3;"/>
<line x1="15.000000" y1="257.000000" x2="299.700000" y2="257.000000"  style="stroke: black; stroke-linecap:round; stroke-width:0.25; stroke-dasharray:3,3;"/>
<line x1="299.700000" y1="257.000000" x2="299.700000" y2="15.000000"  style="stroke: black; stroke-linecap:round; stroke-width:0.25; stroke-dasharray:3,3;"/>
<line x1="15.000000" y1="15.000000" x2="20.000000" y2="15.000000"  style="stroke: black; stroke-linecap:round; stroke-width:0.25; stroke-dasharray:3,3;"/>
<line x1="42.575000" y1="15.000000" x2="299.700000" y2="15.000000"  style="stroke: black; stroke-linecap:round; stroke-width:0.25; stroke-dasharray:3,3;"/>
<text x="20.000000" y="17.000000" font-family="Verdana" font-size="7">feedf</text>
<line x1="301.700000" y1="135.000000" x2="304.700000" y2="136.000000"  transform="rotate(0.000000,304.700000,136.000000)" style="stroke: black; stroke-width:0.25;"/>
<line x1="301.700000" y1="137.000000" x2="304.700000" y2="136.000000"  transform="rotate(0.000000,304.700000,136.000000)" style="stroke: black; stroke-width:0.25;"/>
<line x1="10.000000" y1="136.000000" x2="20.000000" y2="136.000000"  style="stroke:black; stroke-linecap:round; stroke-width:0.25;"/>
<line x1="20.000000" y1="136.000000" x2="24.000000" y2="136.000000"  style="stroke:black; stroke-linecap:round; stroke-width:0.25;"/>
<line x1="24.000000" y1="136.000000" x2="28.000000" y2="136.000000"  style="stroke:black; stroke-linecap:round; stroke-width:0.25;"/>
<line x1="28.000000" y1="136.000000" x2="28.000000" y2="136.000000"  style="stroke:black; stroke-linecap:round; stroke-width:0.25;"/>
<line x1="28.000000" y1="136.000000" x2="32.000000" y2="136.000000"  style="stroke:black; stroke-linecap:round; stroke-width:0.25;"/>
<line x1="112.700000" y1="194.000000" x2="116.700000" y2="194.000000"  style="stroke:black; stroke-linecap:round; stroke-width:0.25;"/>
<line x1="116.700000" y1="194.000000" x2="126.700000" y2="194.000000"  style="stroke:black; stroke-linecap:round; stroke-width:0.25;"/>
<line x1="120.050000" y1="152.000000" x2="124.050000" y2="152.000000"  style="stroke:black; stroke-linecap:round; stroke-width:0.25;"/>
<line x1="124.050000" y1="152.000000" x2="126.700000" y2="152.000000"  style="stroke:black; stroke-linecap:round; stroke-width:0.25;"/>
<line x1="126.700000" y1="152.000000" x2="134.700000" y2="152.000000"  style="stroke:black; stroke-linecap:round; stroke-width:0.25;"/>
<line x1="126.700000" y1="182.000000" x2="134.700000" y2="182.000000"  style="stroke:black; stroke-linecap:round; stroke-width:0.25;"/>
<line x1="126.700000" y1="194.000000" x2="126.700000" y2="182.000000"  style="stroke:black; stroke-linecap:round; stroke-width:0.25;"/>
<line x1="126.700000" y1="194.000000" x2="126.700000" y2="194.000000"  style="stroke:black; stroke-linecap:round; stroke-width:0.25;"/>
<line x1="132.700000" y1="78.000000" x2="136.700000" y2="78.000000"  style="stroke:black; stroke-linecap:round; stroke-width:0.25;"/>
<line x1="134.700000" y1="152.000000" x2="134.700000" y2="174.000000"  style="stroke:black; stroke-linecap:round; stroke-width:0.25;"/>
<line x1="134.700000" y1="174.000000" x2="134.700000" y2="174.000000"  style="stroke:black; stroke-linecap:round; stroke-width:0.25;"/>
<line x1="134.700000" y1="174.000000" x2="138.700000" y2="174.000000"  style="stroke:black; stroke-linecap:round; stroke-width:0.25;"/>
<line x1="134.700000" y1="182.000000" x2="138.700000" y2="182.000000"  style="stroke:black; stroke-linecap:round; stroke-width:0.25;"/>
<line x1="136.700000" y1="78.000000" x2="146.700000" y2="78.000000"  style="stroke:black; stroke-linecap:round; stroke-width:0.25;"/>
<line x1="140.050000" y1="36.000000" x2="144.050000" y2="36.000000"  style="stroke:black; stroke-linecap:round; stroke-width:0.25;"/>
<line x1="140.050000" y1="120.000000" x2="144.050000" y2="120.000000"  style="stroke:black; stroke-linecap:round; stroke-width:0.25;"/>
<line x1="144.050000" y1="36.000000" x2="146.700000" y2="36.000000"  style="stroke:black; stroke-linecap:round; stroke-width:0.25;"/>
<line x1="144.050000" y1="120.000000" x2="166.700000" y2="120.000000"  style="stroke:black; stroke-linecap:round; stroke-width:0.25;"/>
<line x1="146.700000" y1="36.000000" x2="154.700000" y2="36.000000"  style="stroke:black; stroke-linecap:round; stroke-width:0.25;"/>
<line x1="146.700000" y1="66.000000" x2="154.700000" y2="66.000000"  style="stroke:black; stroke-linecap:round; stroke-width:0.25;"/>
<line x1="146.700000" y1="78.000000" x2="146.700000" y2="66.000000"  style="stroke:black; stroke-linecap:round; stroke-width:0.25;"/>
<line x1="146.700000" y1="78.000000" x2="146.700000" y2="78.000000"  style="stroke:black; stroke-linecap:round; stroke-width:0.25;"/>
<line x1="154.700000" y1="36.000000" x2="154.700000" y2="58.000000"  style="stroke:black; stroke-linecap:round; stroke-width:0.25;"/>
<line x1="154.700000" y1="58.000000" x2="154.700000" y2="58.000000"  style="stroke:black; stroke-linecap:round; stroke-width:0.25;"/>
<line x1="154.700000" y1="58.000000" x2="158.700000" y2="58.000000"  style="stroke:black; stroke-linecap:round; stroke-width:0.25;"/>
<line x1="154.700000" y1="66.000000" x2="158.700000" y2="66.000000"  style="stroke:black; stroke-linecap:round; stroke-width:0.25;"/>
<line x1="162.700000" y1="178.000000" x2="166.700000" y2="178.000000"  style="stroke:black; stroke-linecap:round; stroke-width:0.25;"/>
<line x1="166.700000" y1="120.000000" x2="174.700000" y2="120.000000"  style="stroke:black; stroke-linecap:round; stroke-width:0.25;"/>
<line x1="166.700000" y1="166.000000" x2="174.700000" y2="166.000000"  style="stroke:black; stroke-linecap:round; stroke-width:0.25;"/>
<line x1="166.700000" y1="178.000000" x2="166.700000" y2="166.000000"  style="stroke:black; stroke-linecap:round; stroke-width:0.25;"/>
<line x1="166.700000" y1="178.000000" x2="166.700000" y2="178.000000"  style="stroke:black; stroke-linecap:round; stroke-width:0.25;"/>
<line x1="172.700000" y1="236.000000" x2="176.700000" y2="236.000000"  style="stroke:black; stroke-linecap:round; stroke-width:0.25;"/>
<line x1="174.700000" y1="120.000000" x2="174.700000" y2="158.000000"  style="stroke:black; stroke-linecap:round; stroke-width:0.25;"/>
<line x1="174.700000" y1="158.000000" x2="174.700000" y2="158.000000"  style="stroke:black; stroke-linecap:round; stroke-width:0.25;"/>
<line x1="174.700000" y1="158.000000" x2="178.700000" y2="158.000000"  style="stroke:black; stroke-linecap:round; stroke-width:0.25;"/>
<line x1="174.700000" y1="166.000000" x2="178.700000" y2="166.000000"  style="stroke:black; stroke-linecap:round; stroke-width:0.25;"/>
<line x1="176.700000" y1="236.000000" x2="246.700000" y2="236.000000"  style="stroke:black; stroke-linecap:round; stroke-width:0.25;"/>
<line x1="182.700000" y1="62.000000" x2="186.700000" y2="62.000000"  style="stroke:black; stroke-linecap:round; stroke-width:0.25;"/>
<line x1="186.700000" y1="62.000000" x2="206.700000" y2="62.000000"  style="stroke:black; stroke-linecap:round; stroke-width:0.25;"/>
<line x1="202.700000" y1="162.000000" x2="206.700000" y2="162.000000"  style="stroke:black; stroke-linecap:round; stroke-width:0.25;"/>
<line x1="206.700000" y1="62.000000" x2="214.700000" y2="62.000000"  style="stroke:black; stroke-linecap:round; stroke-width:0.25;"/>
<line x1="206.700000" y1="124.000000" x2="214.700000" y2="124.000000"  style="stroke:black; stroke-linecap:round; stroke-width:0.25;"/>
<line x1="206.700000" y1="162.000000" x2="206.700000" y2="124.000000"  style="stroke:black; stroke-linecap:round; stroke-width:0.25;"/>
<line x1="206.700000" y1="162.000000" x2="206.700000" y2="162.000000"  style="stroke:black; stroke-linecap:round; stroke-width:0.25;"/>
<line x1="214.700000" y1="62.000000" x2="214.700000" y2="116.000000"  style="stroke:black; stroke-linecap:round; stroke-width:0.25;"/>
<line x1="214.700000" y1="116.000000" x2="214.700000" y2="116.000000"  style="stroke:black; stroke-linecap:round; stroke-width:0.25;"/>
<line x1="214.700000" y1="116.000000" x2="218.700000" y2="116.000000"  style="stroke:black; stroke-linecap:round; stroke-width:0.25;"/>
<line x1="214.700000" y1="124.000000" x2="218.700000" y2="124.000000"  style="stroke:black; stroke-linecap:round; stroke-width:0.25;"/>
<line x1="242.700000" y1="120.000000" x2="246.700000" y2="120.000000"  style="stroke:black; stroke-linecap:round; stroke-width:0.25;"/>
<line x1="246.700000" y1="120.000000" x2="254.700000" y2="120.000000"  style="stroke:black; stroke-linecap:round; stroke-width:0.25;"/>
<line x1="246.700000" y1="140.000000" x2="254.700000" y2="140.000000"  style="stroke:black; stroke-linecap:round; stroke-width:0.25;"/>
<line x1="246.700000" y1="236.000000" x2="246.700000" y2="140.000000"  style="stroke:black; stroke-linecap:round; stroke-width:0.25;"/>
<line x1="246.700000" y1="236.000000" x2="246.700000" y2="236.000000"  style="stroke:black; stroke-linecap:round; stroke-width:0.25;"/>
<line x1="254.700000" y1="120.000000" x2="254.700000" y2="132.000000"  style="stroke:black; stroke-linecap:round; stroke-width:0.25;"/>
<line x1="254.700000" y1="132.000000" x2="254.700000" y2="132.000000"  style="stroke:black; stroke-linecap:round; stroke-width:0.25;"/>
<line x1="254.700000" y1="132.000000" x2="258.700000" y2="132.000000"  style="stroke:black; stroke-linecap:round; stroke-width:0.25;"/>
<line x1="254.700000" y1="140.000000" x2="258.700000" y2="140.000000"  style="stroke:black; stroke-linecap:round; stroke-width:0.25;"/>
<line x1="282.700000" y1="136.000000" x2="286.700000" y2="136.000000"  style="stroke:black; stroke-linecap:round; stroke-width:0.25;"/>
<line x1="286.700000" y1="136.000000" x2="286.700000" y2="136.000000"  style="stroke:black; stroke-linecap:round; stroke-width:0.25;"/>
<line x1="286.700000" y1="136.000000" x2="290.700000" y2="136.000000"  style="stroke:black; stroke-linecap:round; stroke-width:0.25;"/>
<line x1="290.700000" y1="136.000000" x2="294.700000" y2="136.000000"  style="stroke:black; stroke-linecap:round; stroke-width:0.25;"/>
<line x1="294.700000" y1="136.000000" x2="304.700000" y2="136.000000"  style="stroke:black; stroke-linecap:round; stroke-width:0.25;"/>
</svg>
