<?xml version="1.0"?>
<svg xmlns="http://www.w3.org/2000/svg" xmlns:xlink="http://www.w3.org/1999/xlink" viewBox="0 0 301.800000 272.000000" width="150.900000mm" height="136.000000mm" version="1.1">
<a xlink:href="line-0x6000056b7840.svg">
<rect x="0.000000" y="0.000000" width="300.800000" height="271.000000" rx="0" ry="0" style="stroke:#000000;fill:#FFFFFF;"/>
</a>
<text x="10.000000" y="7.000000" font-family="Verdana" font-size="7"></text>
<rect x="32.000000" y="124.000000" width="25.800000" height="24.000000" rx="0" ry="0" style="stroke:#000000;fill:#FFFFFF;"/>
<text x="44.900000" y="138.000000" font-family="Verdana" font-size="7" text-anchor="middle" fill="#000000">[16] x</text>
<circle cx="34.000000" cy="126.000000" r="1"/>
<line x1="29.000000" y1="135.000000" x2="32.000000" y2="136.000000"  transform="rotate(0.000000,32.000000,136.000000)" style="stroke: black; stroke-width:0.25;"/>
<line x1="29.000000" y1="137.000000" x2="32.000000" y2="136.000000"  transform="rotate(0.000000,32.000000,136.000000)" style="stroke: black; stroke-width:0.25;"/>
<rect x="94.900000" y="24.000000" width="25.800000" height="24.000000" rx="0" ry="0" style="stroke:#000000;fill:#FFFFFF;"/>
<text x="107.800000" y="38.000000" font-family="Verdana" font-size="7" text-anchor="middle" fill="#000000">[16] x</text>
<circle cx="96.900000" cy="26.000000" r="1"/>
<rect x="95.800000" y="66.000000" width="24.000000" height="24.000000" rx="0" ry="0" style="stroke:#000000;fill:#FFFFFF;"/>
<text x="107.800000" y="80.000000" font-family="Verdana" font-size="7" text-anchor="middle" fill="#000000">0</text>
<circle cx="97.800000" cy="68.000000" r="1"/>
<line x1="86.800000" y1="57.000000" x2="86.800000" y2="99.000000"  style="stroke: black; stroke-linecap:round; stroke-width:0.25; stroke-dasharray:3,3;"/>
<line x1="86.800000" y1="99.000000" x2="128.800000" y2="99.000000"  style="stroke: black; stroke-linecap:round; stroke-width:0.25; stroke-dasharray:3,3;"/>
<line x1="128.800000" y1="99.000000" x2="128.800000" y2="57.000000"  style="stroke: black; stroke-linecap:round; stroke-width:0.25; stroke-dasharray:3,3;"/>
<line x1="86.800000" y1="57.000000" x2="91.800000" y2="57.000000"  style="stroke: black; stroke-linecap:round; stroke-width:0.25; stroke-dasharray:3,3;"/>
<line x1="111.150000" y1="57.000000" x2="128.800000" y2="57.000000"  style="stroke: black; stroke-linecap:round; stroke-width:0.25; stroke-dasharray:3,3;"/>
<text x="91.800000" y="59.000000" font-family="Verdana" font-size="7">SAFE</text>
<rect x="145.800000" y="50.000000" width="24.000000" height="24.000000" rx="0" ry="0" style="stroke:#000000;fill:#FFFFFF;"/>
<text x="157.800000" y="64.000000" font-family="Verdana" font-size="7" text-anchor="middle" fill="#000000">&gt;</text>
<circle cx="147.800000" cy="52.000000" r="1"/>
<line x1="142.800000" y1="57.000000" x2="145.800000" y2="58.000000"  transform="rotate(0.000000,145.800000,58.000000)" style="stroke: black; stroke-width:0.25;"/>
<line x1="142.800000" y1="59.000000" x2="145.800000" y2="58.000000"  transform="rotate(0.000000,145.800000,58.000000)" style="stroke: black; stroke-width:0.25;"/>
<line x1="142.800000" y1="65.000000" x2="145.800000" y2="66.000000"  transform="rotate(0.000000,145.800000,66.000000)" style="stroke: black; stroke-width:0.25;"/>
<line x1="142.800000" y1="67.000000" x2="145.800000" y2="66.000000"  transform="rotate(0.000000,145.800000,66.000000)" style="stroke: black; stroke-width:0.25;"/>
<rect x="94.900000" y="108.000000" width="25.800000" height="24.000000" rx="0" ry="0" style="stroke:#000000;fill:#FFFFFF;"/>
<text x="107.800000" y="122.000000" font-family="Verdana" font-size="7" text-anchor="middle" fill="#000000">[16] x</text>
<circle cx="96.900000" cy="110.000000" r="1"/>
<rect x="74.900000" y="140.000000" width="25.800000" height="24.000000" rx="0" ry="0" style="stroke:#000000;fill:#FFFFFF;"/>
<text x="87.800000" y="154.000000" font-family="Verdana" font-size="7" text-anchor="middle" fill="#000000">[16] x</text>
<circle cx="76.900000" cy="142.000000" r="1"/>
<rect x="75.800000" y="182.000000" width="24.000000" height="24.000000" rx="0" ry="0" style="stroke:#000000;fill:#FFFFFF;"/>
<text x="87.800000" y="196.000000" font-family="Verdana" font-size="7" text-anchor="middle" fill="#000000">0</text>
<circle cx="77.800000" cy="184.000000" r="1"/>
<line x1="66.800000" y1="173.000000" x2="66.800000" y2="215.000000"  style="stroke: black; stroke-linecap:round; stroke-width:0.25; stroke-dasharray:3,3;"/>
<line x1="66.800000" y1="215.000000" x2="108.800000" y2="215.000000"  style="stroke: black; stroke-linecap:round; stroke-width:0.25; stroke-dasharray:3,3;"/>
<line x1="108.800000" y1="215.000000" x2="108.800000" y2="173.000000"  style="stroke: black; stroke-linecap:round; stroke-width:0.25; stroke-dasharray:3,3;"/>
<line x1="66.800000" y1="173.000000" x2="71.800000" y2="173.000000"  style="stroke: black; stroke-linecap:round; stroke-width:0.25; stroke-dasharray:3,3;"/>
<line x1="91.150000" y1="173.000000" x2="108.800000" y2="173.000000"  style="stroke: black; stroke-linecap:round; stroke-width:0.25; stroke-dasharray:3,3;"/>
<text x="71.800000" y="175.000000" font-family="Verdana" font-size="7">SAFE</text>
<rect x="125.800000" y="166.000000" width="24.000000" height="24.000000" rx="0" ry="0" style="stroke:#000000;fill:#FFFFFF;"/>
<text x="137.800000" y="180.000000" font-family="Verdana" font-size="7" text-anchor="middle" fill="#000000">&gt;</text>
<circle cx="127.800000" cy="168.000000" r="1"/>
<line x1="122.800000" y1="173.000000" x2="125.800000" y2="174.000000"  transform="rotate(0.000000,125.800000,174.000000)" style="stroke: black; stroke-width:0.25;"/>
<line x1="122.800000" y1="175.000000" x2="125.800000" y2="174.000000"  transform="rotate(0.000000,125.800000,174.000000)" style="stroke: black; stroke-width:0.25;"/>
<line x1="122.800000" y1="181.000000" x2="125.800000" y2="182.000000"  transform="rotate(0.000000,125.800000,182.000000)" style="stroke: black; stroke-width:0.25;"/>
<line x1="122.800000" y1="183.000000" x2="125.800000" y2="182.000000"  transform="rotate(0.000000,125.800000,182.000000)" style="stroke: black; stroke-width:0.25;"/>
<rect x="165.800000" y="150.000000" width="24.000000" height="24.000000" rx="0" ry="0" style="stroke:#000000;fill:#FFFFFF;"/>
<text x="177.800000" y="164.000000" font-family="Verdana" font-size="7" text-anchor="middle" fill="#000000">*</text>
<circle cx="167.800000" cy="152.000000" r="1"/>
<line x1="162.800000" y1="157.000000" x2="165.800000" y2="158.000000"  transform="rotate(0.000000,165.800000,158.000000)" style="stroke: black; stroke-width:0.25;"/>
<line x1="162.800000" y1="159.000000" x2="165.800000" y2="158.000000"  transform="rotate(0.000000,165.800000,158.000000)" style="stroke: black; stroke-width:0.25;"/>
<line x1="162.800000" y1="165.000000" x2="165.800000" y2="166.000000"  transform="rotate(0.000000,165.800000,166.000000)" style="stroke: black; stroke-width:0.25;"/>
<line x1="162.800000" y1="167.000000" x2="165.800000" y2="166.000000"  transform="rotate(0.000000,165.800000,166.000000)" style="stroke: black; stroke-width:0.25;"/>
<rect x="205.800000" y="108.000000" width="24.000000" height="24.000000" rx="0" ry="0" style="stroke:#000000;fill:#FFFFFF;"/>
<text x="217.800000" y="122.000000" font-family="Verdana" font-size="7" text-anchor="middle" fill="#000000">+</text>
<circle cx="207.800000" cy="110.000000" r="1"/>
<line x1="202.800000" y1="115.000000" x2="205.800000" y2="116.000000"  transform="rotate(0.000000,205.800000,116.000000)" style="stroke: black; stroke-width:0.25;"/>
<line x1="202.800000" y1="117.000000" x2="205.800000" y2="116.000000"  transform="rotate(0.000000,205.800000,116.000000)" style="stroke: black; stroke-width:0.25;"/>
<line x1="202.800000" y1="123.000000" x2="205.800000" y2="124.000000"  transform="rotate(0.000000,205.800000,124.000000)" style="stroke: black; stroke-width:0.25;"/>
<line x1="202.800000" y1="125.000000" x2="205.800000" y2="124.000000"  transform="rotate(0.000000,205.800000,124.000000)" style="stroke: black; stroke-width:0.25;"/>
<a xlink:href="y-0x6000056b5cb0.svg">
<rect x="135.800000" y="224.000000" width="24.000000" height="24.000000" rx="0" ry="0" style="stroke:#000000;fill:#FFFFFF;"/>
</a>
<a xlink:href="y-0x6000056b5cb0.svg">
<text x="147.800000" y="238.000000" font-family="Verdana" font-size="7" text-anchor="middle" fill="#000000">y</text>
</a>
<circle cx="137.800000" cy="226.000000" r="1"/>
<rect x="245.800000" y="124.000000" width="24.000000" height="24.000000" rx="0" ry="0" style="stroke:#000000;fill:#FFFFFF;"/>
<text x="257.800000" y="138.000000" font-family="Verdana" font-size="7" text-anchor="middle" fill="#000000">+</text>
<circle cx="247.800000" cy="126.000000" r="1"/>
<line x1="242.800000" y1="131.000000" x2="245.800000" y2="132.000000"  transform="rotate(0.000000,245.800000,132.000000)" style="stroke: black; stroke-width:0.25;"/>
<line x1="242.800000" y1="133.000000" x2="245.800000" y2="132.000000"  transform="rotate(0.000000,245.800000,132.000000)" style="stroke: black; stroke-width:0.25;"/>
<line x1="242.800000" y1="139.000000" x2="245.800000" y2="140.000000"  transform="rotate(0.000000,245.800000,140.000000)" style="stroke: black; stroke-width:0.25;"/>
<line x1="242.800000" y1="141.000000" x2="245.800000" y2="140.000000"  transform="rotate(0.000000,245.800000,140.000000)" style="stroke: black; stroke-width:0.25;"/>
<line x1="15.000000" y1="15.000000" x2="15.000000" y2="257.000000"  style="stroke: black; stroke-linecap:round; stroke-width:0.25; stroke-dasharray:3,3;"/>
<line x1="15.000000" y1="257.000000" x2="286.800000" y2="257.000000"  style="stroke: black; stroke-linecap:round; stroke-width:0.25; stroke-dasharray:3,3;"/>
<line x1="286.800000" y1="257.000000" x2="286.800000" y2="15.000000"  style="stroke: black; stroke-linecap:round; stroke-width:0.25; stroke-dasharray:3,3;"/>
<line x1="15.000000" y1="15.000000" x2="20.000000" y2="15.000000"  style="stroke: black; stroke-linecap:round; stroke-width:0.25; stroke-dasharray:3,3;"/>
<line x1="42.575000" y1="15.000000" x2="286.800000" y2="15.000000"  style="stroke: black; stroke-linecap:round; stroke-width:0.25; stroke-dasharray:3,3;"/>
<text x="20.000000" y="17.000000" font-family="Verdana" font-size="7">feedf</text>
<line x1="288.800000" y1="135.000000" x2="291.800000" y2="136.000000"  transform="rotate(0.000000,291.800000,136.000000)" style="stroke: black; stroke-width:0.25;"/>
<line x1="288.800000" y1="137.000000" x2="291.800000" y2="136.000000"  transform="rotate(0.000000,291.800000,136.000000)" style="stroke: black; stroke-width:0.25;"/>
<line x1="10.000000" y1="136.000000" x2="20.000000" y2="136.000000"  style="stroke:black; stroke-linecap:round; stroke-width:0.25;"/>
<line x1="20.000000" y1="136.000000" x2="24.000000" y2="136.000000"  style="stroke:black; stroke-linecap:round; stroke-width:0.25;"/>
<line x1="24.000000" y1="136.000000" x2="28.000000" y2="136.000000"  style="stroke:black; stroke-linecap:round; stroke-width:0.25;"/>
<line x1="28.000000" y1="136.000000" x2="28.000000" y2="136.000000"  style="stroke:black; stroke-linecap:round; stroke-width:0.25;"/>
<line x1="28.000000" y1="136.000000" x2="32.000000" y2="136.000000"  style="stroke:black; stroke-linecap:round; stroke-width:0.25;"/>
<line x1="99.800000" y1="194.000000" x2="103.800000" y2="194.000000"  style="stroke:black; stroke-linecap:round; stroke-width:0.25;"/>
<line x1="100.700000" y1="152.000000" x2="104.700000" y2="152.000000"  style="stroke:black; stroke-linecap:round; stroke-width:0.25;"/>
<line x1="103.800000" y1="194.000000" x2="113.800000" y2="194.000000"  style="stroke:black; stroke-linecap:round; stroke-width:0.25;"/>
<line x1="104.700000" y1="152.000000" x2="113.800000" y2="152.000000"  style="stroke:black; stroke-linecap:round; stroke-width:0.25;"/>
<line x1="113.800000" y1="182.000000" x2="121.800000" y2="182.000000"  style="stroke:black; stroke-linecap:round; stroke-width:0.25;"/>
<line x1="113.800000" y1="194.000000" x2="113.800000" y2="182.000000"  style="stroke:black; stroke-linecap:round; stroke-width:0.25;"/>
<line x1="113.800000" y1="194.000000" x2="113.800000" y2="194.000000"  style="stroke:black; stroke-linecap:round; stroke-width:0.25;"/>
<line x1="113.800000" y1="152.000000" x2="121.800000" y2="152.000000"  style="stroke:black; stroke-linecap:round; stroke-width:0.25;"/>
<line x1="119.800000" y1="78.000000" x2="123.800000" y2="78.000000"  style="stroke:black; stroke-linecap:round; stroke-width:0.25;"/>
<line x1="120.700000" y1="36.000000" x2="124.700000" y2="36.000000"  style="stroke:black; stroke-linecap:round; stroke-width:0.25;"/>
<line x1="120.700000" y1="120.000000" x2="124.700000" y2="120.000000"  style="stroke:black; stroke-linecap:round; stroke-width:0.25;"/>
<line x1="121.800000" y1="174.000000" x2="125.800000" y2="174.000000"  style="stroke:black; stroke-linecap:round; stroke-width:0.25;"/>
<line x1="121.800000" y1="182.000000" x2="125.800000" y2="182.000000"  style="stroke:black; stroke-linecap:round; stroke-width:0.25;"/>
<line x1="121.800000" y1="152.000000" x2="121.800000" y2="174.000000"  style="stroke:black; stroke-linecap:round; stroke-width:0.25;"/>
<line x1="121.800000" y1="174.000000" x2="121.800000" y2="174.000000"  style="stroke:black; stroke-linecap:round; stroke-width:0.25;"/>
<line x1="123.800000" y1="78.000000" x2="133.800000" y2="78.000000"  style="stroke:black; stroke-linecap:round; stroke-width:0.25;"/>
<line x1="124.700000" y1="36.000000" x2="133.800000" y2="36.000000"  style="stroke:black; stroke-linecap:round; stroke-width:0.25;"/>
<line x1="124.700000" y1="120.000000" x2="153.800000" y2="120.000000"  style="stroke:black; stroke-linecap:round; stroke-width:0.25;"/>
<line x1="133.800000" y1="36.000000" x2="141.800000" y2="36.000000"  style="stroke:black; stroke-linecap:round; stroke-width:0.25;"/>
<line x1="133.800000" y1="66.000000" x2="141.800000" y2="66.000000"  style="stroke:black; stroke-linecap:round; stroke-width:0.25;"/>
<line x1="133.800000" y1="78.000000" x2="133.800000" y2="66.000000"  style="stroke:black; stroke-linecap:round; stroke-width:0.25;"/>
<line x1="133.800000" y1="78.000000" x2="133.800000" y2="78.000000"  style="stroke:black; stroke-linecap:round; stroke-width:0.25;"/>
<line x1="141.800000" y1="36.000000" x2="141.800000" y2="58.000000"  style="stroke:black; stroke-linecap:round; stroke-width:0.25;"/>
<line x1="141.800000" y1="58.000000" x2="141.800000" y2="58.000000"  style="stroke:black; stroke-linecap:round; stroke-width:0.25;"/>
<line x1="141.800000" y1="58.000000" x2="145.800000" y2="58.000000"  style="stroke:black; stroke-linecap:round; stroke-width:0.25;"/>
<line x1="141.800000" y1="66.000000" x2="145.800000" y2="66.000000"  style="stroke:black; stroke-linecap:round; stroke-width:0.25;"/>
<line x1="149.800000" y1="178.000000" x2="153.800000" y2="178.000000"  style="stroke:black; stroke-linecap:round; stroke-width:0.25;"/>
<line x1="153.800000" y1="120.000000" x2="161.800000" y2="120.000000"  style="stroke:black; stroke-linecap:round; stroke-width:0.25;"/>
<line x1="153.800000" y1="166.000000" x2="161.800000" y2="166.000000"  style="stroke:black; stroke-linecap:round; stroke-width:0.25;"/>
<line x1="153.800000" y1="178.000000" x2="153.800000" y2="166.000000"  style="stroke:black; stroke-linecap:round; stroke-width:0.25;"/>
<line x1="153.800000" y1="178.000000" x2="153.800000" y2="178.000000"  style="stroke:black; stroke-linecap:round; stroke-width:0.25;"/>
<line x1="159.800000" y1="236.000000" x2="163.800000" y2="236.000000"  style="stroke:black; stroke-linecap:round; stroke-width:0.25;"/>
<line x1="161.800000" y1="120.000000" x2="161.800000" y2="158.000000"  style="stroke:black; stroke-linecap:round; stroke-width:0.25;"/>
<line x1="161.800000" y1="158.000000" x2="161.800000" y2="158.000000"  style="stroke:black; stroke-linecap:round; stroke-width:0.25;"/>
<line x1="161.800000" y1="158.000000" x2="165.800000" y2="158.000000"  style="stroke:black; stroke-linecap:round; stroke-width:0.25;"/>
<line x1="161.800000" y1="166.000000" x2="165.800000" y2="166.000000"  style="stroke:black; stroke-linecap:round; stroke-width:0.25;"/>
<line x1="163.800000" y1="236.000000" x2="233.800000" y2="236.000000"  style="stroke:black; stroke-linecap:round; stroke-width:0.25;"/>
<line x1="169.800000" y1="62.000000" x2="173.800000" y2="62.000000"  style="stroke:black; stroke-linecap:round; stroke-width:0.25;"/>
<line x1="173.800000" y1="62.000000" x2="193.800000" y2="62.000000"  style="stroke:black; stroke-linecap:round; stroke-width:0.25;"/>
<line x1="189.800000" y1="162.000000" x2="193.800000" y2="162.000000"  style="stroke:black; stroke-linecap:round; stroke-width:0.25;"/>
<line x1="193.800000" y1="62.000000" x2="201.800000" y2="62.000000"  style="stroke:black; stroke-linecap:round; stroke-width:0.25;"/>
<line x1="193.800000" y1="124.000000" x2="201.800000" y2="124.000000"  style="stroke:black; stroke-linecap:round; stroke-width:0.25;"/>
<line x1="193.800000" y1="162.000000" x2="193.800000" y2="124.000000"  style="stroke:black; stroke-linecap:round; stroke-width:0.25;"/>
<line x1="193.800000" y1="162.000000" x2="193.800000" y2="162.000000"  style="stroke:black; stroke-linecap:round; stroke-width:0.25;"/>
<line x1="201.800000" y1="62.000000" x2="201.800000" y2="116.000000"  style="stroke:black; stroke-linecap:round; stroke-width:0.25;"/>
<line x1="201.800000" y1="116.000000" x2="201.800000" y2="116.000000"  style="stroke:black; stroke-linecap:round; stroke-width:0.25;"/>
<line x1="201.800000" y1="116.000000" x2="205.800000" y2="116.000000"  style="stroke:black; stroke-linecap:round; stroke-width:0.25;"/>
<line x1="201.800000" y1="124.000000" x2="205.800000" y2="124.000000"  style="stroke:black; stroke-linecap:round; stroke-width:0.25;"/>
<line x1="229.800000" y1="120.000000" x2="233.800000" y2="120.000000"  style="stroke:black; stroke-linecap:round; stroke-width:0.25;"/>
<line x1="233.800000" y1="120.000000" x2="241.800000" y2="120.000000"  style="stroke:black; stroke-linecap:round; stroke-width:0.25;"/>
<line x1="233.800000" y1="140.000000" x2="241.800000" y2="140.000000"  style="stroke:black; stroke-linecap:round; stroke-width:0.25;"/>
<line x1="233.800000" y1="236.000000" x2="233.800000" y2="140.000000"  style="stroke:black; stroke-linecap:round; stroke-width:0.25;"/>
<line x1="233.800000" y1="236.000000" x2="233.800000" y2="236.000000"  style="stroke:black; stroke-linecap:round; stroke-width:0.25;"/>
<line x1="241.800000" y1="120.000000" x2="241.800000" y2="132.000000"  style="stroke:black; stroke-linecap:round; stroke-width:0.25;"/>
<line x1="241.800000" y1="132.000000" x2="241.800000" y2="132.000000"  style="stroke:black; stroke-linecap:round; stroke-width:0.25;"/>
<line x1="241.800000" y1="132.000000" x2="245.800000" y2="132.000000"  style="stroke:black; stroke-linecap:round; stroke-width:0.25;"/>
<line x1="241.800000" y1="140.000000" x2="245.800000" y2="140.000000"  style="stroke:black; stroke-linecap:round; stroke-width:0.25;"/>
<line x1="269.800000" y1="136.000000" x2="273.800000" y2="136.000000"  style="stroke:black; stroke-linecap:round; stroke-width:0.25;"/>
<line x1="273.800000" y1="136.000000" x2="273.800000" y2="136.000000"  style="stroke:black; stroke-linecap:round; stroke-width:0.25;"/>
<line x1="273.800000" y1="136.000000" x2="277.800000" y2="136.000000"  style="stroke:black; stroke-linecap:round; stroke-width:0.25;"/>
<line x1="277.800000" y1="136.000000" x2="281.800000" y2="136.000000"  style="stroke:black; stroke-linecap:round; stroke-width:0.25;"/>
<line x1="281.800000" y1="136.000000" x2="291.800000" y2="136.000000"  style="stroke:black; stroke-linecap:round; stroke-width:0.25;"/>
</svg>
