<?xml version="1.0"?>
<svg xmlns="http://www.w3.org/2000/svg" xmlns:xlink="http://www.w3.org/1999/xlink" viewBox="0 0 205.800000 144.000000" width="102.900000mm" height="72.000000mm" version="1.1">
<a xlink:href="dflcVARfir-0x6000214ae490.svg">
<rect x="0.000000" y="0.000000" width="204.800000" height="143.000000" rx="0" ry="0" style="stroke:#000000;fill:#FFFFFF;"/>
</a>
<text x="10.000000" y="7.000000" font-family="Verdana" font-size="7"></text>
<rect x="68.000000" y="32.000000" width="25.800000" height="24.000000" rx="0" ry="0" style="stroke:#000000;fill:#FFFFFF;"/>
<text x="80.900000" y="46.000000" font-family="Verdana" font-size="7" text-anchor="middle" fill="#000000">0.5f</text>
<circle cx="70.000000" cy="34.000000" r="1"/>
<rect x="109.800000" y="28.000000" width="24.000000" height="24.000000" rx="0" ry="0" style="stroke:#000000;fill:#FFFFFF;"/>
<text x="121.800000" y="42.000000" font-family="Verdana" font-size="7" text-anchor="middle" fill="#000000">*</text>
<circle cx="111.800000" cy="30.000000" r="1"/>
<line x1="106.800000" y1="35.000000" x2="109.800000" y2="36.000000"  transform="rotate(0.000000,109.800000,36.000000)" style="stroke: black; stroke-width:0.25;"/>
<line x1="106.800000" y1="37.000000" x2="109.800000" y2="36.000000"  transform="rotate(0.000000,109.800000,36.000000)" style="stroke: black; stroke-width:0.25;"/>
<line x1="106.800000" y1="43.000000" x2="109.800000" y2="44.000000"  transform="rotate(0.000000,109.800000,44.000000)" style="stroke: black; stroke-width:0.25;"/>
<line x1="106.800000" y1="45.000000" x2="109.800000" y2="44.000000"  transform="rotate(0.000000,109.800000,44.000000)" style="stroke: black; stroke-width:0.25;"/>
<rect x="68.900000" y="64.000000" width="24.000000" height="24.000000" rx="0" ry="0" style="stroke:#000000;fill:#FFFFFF;"/>
<text x="80.900000" y="78.000000" font-family="Verdana" font-size="7" text-anchor="middle" fill="#000000">mem</text>
<circle cx="70.900000" cy="66.000000" r="1"/>
<line x1="65.900000" y1="75.000000" x2="68.900000" y2="76.000000"  transform="rotate(0.000000,68.900000,76.000000)" style="stroke: black; stroke-width:0.25;"/>
<line x1="65.900000" y1="77.000000" x2="68.900000" y2="76.000000"  transform="rotate(0.000000,68.900000,76.000000)" style="stroke: black; stroke-width:0.25;"/>
<rect x="68.000000" y="96.000000" width="25.800000" height="24.000000" rx="0" ry="0" style="stroke:#000000;fill:#FFFFFF;"/>
<text x="80.900000" y="110.000000" font-family="Verdana" font-size="7" text-anchor="middle" fill="#000000">0.5f</text>
<circle cx="70.000000" cy="98.000000" r="1"/>
<rect x="109.800000" y="80.000000" width="24.000000" height="24.000000" rx="0" ry="0" style="stroke:#000000;fill:#FFFFFF;"/>
<text x="121.800000" y="94.000000" font-family="Verdana" font-size="7" text-anchor="middle" fill="#000000">*</text>
<circle cx="111.800000" cy="82.000000" r="1"/>
<line x1="106.800000" y1="87.000000" x2="109.800000" y2="88.000000"  transform="rotate(0.000000,109.800000,88.000000)" style="stroke: black; stroke-width:0.25;"/>
<line x1="106.800000" y1="89.000000" x2="109.800000" y2="88.000000"  transform="rotate(0.000000,109.800000,88.000000)" style="stroke: black; stroke-width:0.25;"/>
<line x1="106.800000" y1="95.000000" x2="109.800000" y2="96.000000"  transform="rotate(0.000000,109.800000,96.000000)" style="stroke: black; stroke-width:0.25;"/>
<line x1="106.800000" y1="97.000000" x2="109.800000" y2="96.000000"  transform="rotate(0.000000,109.800000,96.000000)" style="stroke: black; stroke-width:0.25;"/>
<rect x="149.800000" y="60.000000" width="24.000000" height="24.000000" rx="0" ry="0" style="stroke:#000000;fill:#FFFFFF;"/>
<text x="161.800000" y="74.000000" font-family="Verdana" font-size="7" text-anchor="middle" fill="#000000">+</text>
<circle cx="151.800000" cy="62.000000" r="1"/>
<line x1="146.800000" y1="67.000000" x2="149.800000" y2="68.000000"  transform="rotate(0.000000,149.800000,68.000000)" style="stroke: black; stroke-width:0.25;"/>
<line x1="146.800000" y1="69.000000" x2="149.800000" y2="68.000000"  transform="rotate(0.000000,149.800000,68.000000)" style="stroke: black; stroke-width:0.25;"/>
<line x1="146.800000" y1="75.000000" x2="149.800000" y2="76.000000"  transform="rotate(0.000000,149.800000,76.000000)" style="stroke: black; stroke-width:0.25;"/>
<line x1="146.800000" y1="77.000000" x2="149.800000" y2="76.000000"  transform="rotate(0.000000,149.800000,76.000000)" style="stroke: black; stroke-width:0.25;"/>
<line x1="15.000000" y1="15.000000" x2="15.000000" y2="129.000000"  style="stroke: black; stroke-linecap:round; stroke-width:0.25; stroke-dasharray:3,3;"/>
<line x1="15.000000" y1="129.000000" x2="190.800000" y2="129.000000"  style="stroke: black; stroke-linecap:round; stroke-width:0.25; stroke-dasharray:3,3;"/>
<line x1="190.800000" y1="129.000000" x2="190.800000" y2="15.000000"  style="stroke: black; stroke-linecap:round; stroke-width:0.25; stroke-dasharray:3,3;"/>
<line x1="15.000000" y1="15.000000" x2="20.000000" y2="15.000000"  style="stroke: black; stroke-linecap:round; stroke-width:0.25; stroke-dasharray:3,3;"/>
<line x1="55.475000" y1="15.000000" x2="190.800000" y2="15.000000"  style="stroke: black; stroke-linecap:round; stroke-width:0.25; stroke-dasharray:3,3;"/>
<text x="20.000000" y="17.000000" font-family="Verdana" font-size="7">firModule</text>
<line x1="192.800000" y1="71.000000" x2="195.800000" y2="72.000000"  transform="rotate(0.000000,195.800000,72.000000)" style="stroke: black; stroke-width:0.25;"/>
<line x1="192.800000" y1="73.000000" x2="195.800000" y2="72.000000"  transform="rotate(0.000000,195.800000,72.000000)" style="stroke: black; stroke-width:0.25;"/>
<line x1="10.000000" y1="72.000000" x2="20.000000" y2="72.000000"  style="stroke:black; stroke-linecap:round; stroke-width:0.25;"/>
<line x1="20.000000" y1="72.000000" x2="24.000000" y2="72.000000"  style="stroke:black; stroke-linecap:round; stroke-width:0.25;"/>
<line x1="24.000000" y1="72.000000" x2="28.000000" y2="72.000000"  style="stroke:black; stroke-linecap:round; stroke-width:0.25;"/>
<line x1="28.000000" y1="72.000000" x2="28.000000" y2="72.000000"  style="stroke:black; stroke-linecap:round; stroke-width:0.25;"/>
<line x1="28.000000" y1="72.000000" x2="32.000000" y2="72.000000"  style="stroke:black; stroke-linecap:round; stroke-width:0.25;"/>
<line x1="32.000000" y1="72.000000" x2="36.000000" y2="72.000000"  style="stroke:black; stroke-linecap:round; stroke-width:0.25;"/>
<line x1="36.000000" y1="72.000000" x2="64.000000" y2="24.000000"  style="stroke:black; stroke-linecap:round; stroke-width:0.25;"/>
<line x1="36.000000" y1="72.000000" x2="64.000000" y2="76.000000"  style="stroke:black; stroke-linecap:round; stroke-width:0.25;"/>
<line x1="64.000000" y1="24.000000" x2="80.900000" y2="24.000000"  style="stroke:black; stroke-linecap:round; stroke-width:0.25;"/>
<line x1="64.000000" y1="76.000000" x2="64.900000" y2="76.000000"  style="stroke:black; stroke-linecap:round; stroke-width:0.25;"/>
<line x1="64.900000" y1="76.000000" x2="64.900000" y2="76.000000"  style="stroke:black; stroke-linecap:round; stroke-width:0.25;"/>
<line x1="64.900000" y1="76.000000" x2="68.900000" y2="76.000000"  style="stroke:black; stroke-linecap:round; stroke-width:0.25;"/>
<line x1="80.900000" y1="24.000000" x2="97.800000" y2="24.000000"  style="stroke:black; stroke-linecap:round; stroke-width:0.25;"/>
<line x1="92.900000" y1="76.000000" x2="96.900000" y2="76.000000"  style="stroke:black; stroke-linecap:round; stroke-width:0.25;"/>
<line x1="93.800000" y1="44.000000" x2="97.800000" y2="44.000000"  style="stroke:black; stroke-linecap:round; stroke-width:0.25;"/>
<line x1="93.800000" y1="108.000000" x2="97.800000" y2="108.000000"  style="stroke:black; stroke-linecap:round; stroke-width:0.25;"/>
<line x1="96.900000" y1="76.000000" x2="97.800000" y2="76.000000"  style="stroke:black; stroke-linecap:round; stroke-width:0.25;"/>
<line x1="97.800000" y1="44.000000" x2="105.800000" y2="44.000000"  style="stroke:black; stroke-linecap:round; stroke-width:0.25;"/>
<line x1="97.800000" y1="96.000000" x2="105.800000" y2="96.000000"  style="stroke:black; stroke-linecap:round; stroke-width:0.25;"/>
<line x1="97.800000" y1="108.000000" x2="97.800000" y2="96.000000"  style="stroke:black; stroke-linecap:round; stroke-width:0.25;"/>
<line x1="97.800000" y1="108.000000" x2="97.800000" y2="108.000000"  style="stroke:black; stroke-linecap:round; stroke-width:0.25;"/>
<line x1="97.800000" y1="24.000000" x2="105.800000" y2="24.000000"  style="stroke:black; stroke-linecap:round; stroke-width:0.25;"/>
<line x1="97.800000" y1="76.000000" x2="105.800000" y2="76.000000"  style="stroke:black; stroke-linecap:round; stroke-width:0.25;"/>
<line x1="105.800000" y1="36.000000" x2="109.800000" y2="36.000000"  style="stroke:black; stroke-linecap:round; stroke-width:0.25;"/>
<line x1="105.800000" y1="44.000000" x2="109.800000" y2="44.000000"  style="stroke:black; stroke-linecap:round; stroke-width:0.25;"/>
<line x1="105.800000" y1="88.000000" x2="109.800000" y2="88.000000"  style="stroke:black; stroke-linecap:round; stroke-width:0.25;"/>
<line x1="105.800000" y1="96.000000" x2="109.800000" y2="96.000000"  style="stroke:black; stroke-linecap:round; stroke-width:0.25;"/>
<line x1="105.800000" y1="24.000000" x2="105.800000" y2="36.000000"  style="stroke:black; stroke-linecap:round; stroke-width:0.25;"/>
<line x1="105.800000" y1="36.000000" x2="105.800000" y2="36.000000"  style="stroke:black; stroke-linecap:round; stroke-width:0.25;"/>
<line x1="105.800000" y1="76.000000" x2="105.800000" y2="88.000000"  style="stroke:black; stroke-linecap:round; stroke-width:0.25;"/>
<line x1="105.800000" y1="88.000000" x2="105.800000" y2="88.000000"  style="stroke:black; stroke-linecap:round; stroke-width:0.25;"/>
<line x1="133.800000" y1="40.000000" x2="137.800000" y2="40.000000"  style="stroke:black; stroke-linecap:round; stroke-width:0.25;"/>
<line x1="133.800000" y1="92.000000" x2="137.800000" y2="92.000000"  style="stroke:black; stroke-linecap:round; stroke-width:0.25;"/>
<line x1="137.800000" y1="40.000000" x2="145.800000" y2="40.000000"  style="stroke:black; stroke-linecap:round; stroke-width:0.25;"/>
<line x1="137.800000" y1="76.000000" x2="145.800000" y2="76.000000"  style="stroke:black; stroke-linecap:round; stroke-width:0.25;"/>
<line x1="137.800000" y1="92.000000" x2="137.800000" y2="76.000000"  style="stroke:black; stroke-linecap:round; stroke-width:0.25;"/>
<line x1="137.800000" y1="92.000000" x2="137.800000" y2="92.000000"  style="stroke:black; stroke-linecap:round; stroke-width:0.25;"/>
<line x1="145.800000" y1="40.000000" x2="145.800000" y2="68.000000"  style="stroke:black; stroke-linecap:round; stroke-width:0.25;"/>
<line x1="145.800000" y1="68.000000" x2="145.800000" y2="68.000000"  style="stroke:black; stroke-linecap:round; stroke-width:0.25;"/>
<line x1="145.800000" y1="68.000000" x2="149.800000" y2="68.000000"  style="stroke:black; stroke-linecap:round; stroke-width:0.25;"/>
<line x1="145.800000" y1="76.000000" x2="149.800000" y2="76.000000"  style="stroke:black; stroke-linecap:round; stroke-width:0.25;"/>
<line x1="173.800000" y1="72.000000" x2="177.800000" y2="72.000000"  style="stroke:black; stroke-linecap:round; stroke-width:0.25;"/>
<line x1="177.800000" y1="72.000000" x2="177.800000" y2="72.000000"  style="stroke:black; stroke-linecap:round; stroke-width:0.25;"/>
<line x1="177.800000" y1="72.000000" x2="181.800000" y2="72.000000"  style="stroke:black; stroke-linecap:round; stroke-width:0.25;"/>
<line x1="181.800000" y1="72.000000" x2="185.800000" y2="72.000000"  style="stroke:black; stroke-linecap:round; stroke-width:0.25;"/>
<line x1="185.800000" y1="72.000000" x2="195.800000" y2="72.000000"  style="stroke:black; stroke-linecap:round; stroke-width:0.25;"/>
</svg>
