<?xml version="1.0"?>
<svg xmlns="http://www.w3.org/2000/svg" xmlns:xlink="http://www.w3.org/1999/xlink" viewBox="0 0 471.400000 104.000000" width="235.700000mm" height="52.000000mm" version="1.1">
<a xlink:href="mappingQfilter6-0x600015429830.svg">
<rect x="0.000000" y="0.000000" width="470.400000" height="103.000000" rx="0" ry="0" style="stroke:#000000;fill:#FFFFFF;"/>
</a>
<text x="10.000000" y="7.000000" font-family="Verdana" font-size="7"></text>
<a xlink:href="rilevatorePic-0x6000157dc1b0.svg">
<rect x="32.000000" y="40.000000" width="129.000000" height="24.000000" rx="0" ry="0" style="stroke:#000000;fill:#FFFFFF;"/>
</a>
<a xlink:href="rilevatorePic-0x6000157dc1b0.svg">
<text x="96.500000" y="54.000000" font-family="Verdana" font-size="7" text-anchor="middle" fill="#000000">rilevatorePic...AYER2[nil]}])</text>
</a>
<circle cx="34.000000" cy="42.000000" r="1"/>
<line x1="29.000000" y1="51.000000" x2="32.000000" y2="52.000000"  transform="rotate(0.000000,32.000000,52.000000)" style="stroke: black; stroke-width:0.25;"/>
<line x1="29.000000" y1="53.000000" x2="32.000000" y2="52.000000"  transform="rotate(0.000000,32.000000,52.000000)" style="stroke: black; stroke-width:0.25;"/>
<a xlink:href="counter-0x6000057b77b0.svg">
<rect x="177.000000" y="24.000000" width="64.500000" height="24.000000" rx="0" ry="0" style="stroke:#000000;fill:#FFFFFF;"/>
</a>
<a xlink:href="counter-0x6000057b77b0.svg">
<text x="209.250000" y="38.000000" font-family="Verdana" font-size="7" text-anchor="middle" fill="#000000">counter(1.7f)</text>
</a>
<circle cx="179.000000" cy="26.000000" r="1"/>
<line x1="174.000000" y1="35.000000" x2="177.000000" y2="36.000000"  transform="rotate(0.000000,177.000000,36.000000)" style="stroke: black; stroke-width:0.25;"/>
<line x1="174.000000" y1="37.000000" x2="177.000000" y2="36.000000"  transform="rotate(0.000000,177.000000,36.000000)" style="stroke: black; stroke-width:0.25;"/>
<rect x="196.350000" y="56.000000" width="25.800000" height="24.000000" rx="0" ry="0" style="stroke:#000000;fill:#FFFFFF;"/>
<text x="209.250000" y="70.000000" font-family="Verdana" font-size="7" text-anchor="middle" fill="#000000">1.7f</text>
<circle cx="198.350000" cy="58.000000" r="1"/>
<rect x="257.500000" y="40.000000" width="24.000000" height="24.000000" rx="0" ry="0" style="stroke:#000000;fill:#FFFFFF;"/>
<text x="269.500000" y="54.000000" font-family="Verdana" font-size="7" text-anchor="middle" fill="#000000">/</text>
<circle cx="259.500000" cy="42.000000" r="1"/>
<line x1="254.500000" y1="47.000000" x2="257.500000" y2="48.000000"  transform="rotate(0.000000,257.500000,48.000000)" style="stroke: black; stroke-width:0.25;"/>
<line x1="254.500000" y1="49.000000" x2="257.500000" y2="48.000000"  transform="rotate(0.000000,257.500000,48.000000)" style="stroke: black; stroke-width:0.25;"/>
<line x1="254.500000" y1="55.000000" x2="257.500000" y2="56.000000"  transform="rotate(0.000000,257.500000,56.000000)" style="stroke: black; stroke-width:0.25;"/>
<line x1="254.500000" y1="57.000000" x2="257.500000" y2="56.000000"  transform="rotate(0.000000,257.500000,56.000000)" style="stroke: black; stroke-width:0.25;"/>
<a xlink:href="peakMaxTimer-0x6000057bbe70.svg">
<rect x="289.500000" y="40.000000" width="77.400000" height="24.000000" rx="0" ry="0" style="stroke:#000000;fill:#FFFFFF;"/>
</a>
<a xlink:href="peakMaxTimer-0x6000057bbe70.svg">
<text x="328.200000" y="54.000000" font-family="Verdana" font-size="7" text-anchor="middle" fill="#000000">peakMaxTimer(1.7f)</text>
</a>
<circle cx="291.500000" cy="42.000000" r="1"/>
<line x1="286.500000" y1="51.000000" x2="289.500000" y2="52.000000"  transform="rotate(0.000000,289.500000,52.000000)" style="stroke: black; stroke-width:0.25;"/>
<line x1="286.500000" y1="53.000000" x2="289.500000" y2="52.000000"  transform="rotate(0.000000,289.500000,52.000000)" style="stroke: black; stroke-width:0.25;"/>
<a xlink:href="integrator-0x60000142f720.svg">
<rect x="374.900000" y="40.000000" width="64.500000" height="24.000000" rx="0" ry="0" style="stroke:#000000;fill:#FFFFFF;"/>
</a>
<a xlink:href="integrator-0x60000142f720.svg">
<text x="407.150000" y="54.000000" font-family="Verdana" font-size="7" text-anchor="middle" fill="#000000">integrator(2)</text>
</a>
<circle cx="376.900000" cy="42.000000" r="1"/>
<line x1="371.900000" y1="51.000000" x2="374.900000" y2="52.000000"  transform="rotate(0.000000,374.900000,52.000000)" style="stroke: black; stroke-width:0.25;"/>
<line x1="371.900000" y1="53.000000" x2="374.900000" y2="52.000000"  transform="rotate(0.000000,374.900000,52.000000)" style="stroke: black; stroke-width:0.25;"/>
<line x1="15.000000" y1="15.000000" x2="15.000000" y2="89.000000"  style="stroke: black; stroke-linecap:round; stroke-width:0.25; stroke-dasharray:3,3;"/>
<line x1="15.000000" y1="89.000000" x2="456.400000" y2="89.000000"  style="stroke: black; stroke-linecap:round; stroke-width:0.25; stroke-dasharray:3,3;"/>
<line x1="456.400000" y1="89.000000" x2="456.400000" y2="15.000000"  style="stroke: black; stroke-linecap:round; stroke-width:0.25; stroke-dasharray:3,3;"/>
<line x1="15.000000" y1="15.000000" x2="20.000000" y2="15.000000"  style="stroke: black; stroke-linecap:round; stroke-width:0.25; stroke-dasharray:3,3;"/>
<line x1="149.000000" y1="15.000000" x2="456.400000" y2="15.000000"  style="stroke: black; stroke-linecap:round; stroke-width:0.25; stroke-dasharray:3,3;"/>
<text x="20.000000" y="17.000000" font-family="Verdana" font-size="7">frequenzaPicc...AYER2[nil]}])(1.7f)(2)</text>
<line x1="458.400000" y1="51.000000" x2="461.400000" y2="52.000000"  transform="rotate(0.000000,461.400000,52.000000)" style="stroke: black; stroke-width:0.25;"/>
<line x1="458.400000" y1="53.000000" x2="461.400000" y2="52.000000"  transform="rotate(0.000000,461.400000,52.000000)" style="stroke: black; stroke-width:0.25;"/>
<line x1="10.000000" y1="52.000000" x2="20.000000" y2="52.000000"  style="stroke:black; stroke-linecap:round; stroke-width:0.25;"/>
<line x1="20.000000" y1="52.000000" x2="24.000000" y2="52.000000"  style="stroke:black; stroke-linecap:round; stroke-width:0.25;"/>
<line x1="24.000000" y1="52.000000" x2="28.000000" y2="52.000000"  style="stroke:black; stroke-linecap:round; stroke-width:0.25;"/>
<line x1="28.000000" y1="52.000000" x2="28.000000" y2="52.000000"  style="stroke:black; stroke-linecap:round; stroke-width:0.25;"/>
<line x1="28.000000" y1="52.000000" x2="32.000000" y2="52.000000"  style="stroke:black; stroke-linecap:round; stroke-width:0.25;"/>
<line x1="161.000000" y1="52.000000" x2="165.000000" y2="52.000000"  style="stroke:black; stroke-linecap:round; stroke-width:0.25;"/>
<line x1="165.000000" y1="36.000000" x2="173.000000" y2="36.000000"  style="stroke:black; stroke-linecap:round; stroke-width:0.25;"/>
<line x1="165.000000" y1="52.000000" x2="165.000000" y2="36.000000"  style="stroke:black; stroke-linecap:round; stroke-width:0.25;"/>
<line x1="165.000000" y1="52.000000" x2="165.000000" y2="52.000000"  style="stroke:black; stroke-linecap:round; stroke-width:0.25;"/>
<line x1="173.000000" y1="36.000000" x2="177.000000" y2="36.000000"  style="stroke:black; stroke-linecap:round; stroke-width:0.25;"/>
<line x1="222.150000" y1="68.000000" x2="226.150000" y2="68.000000"  style="stroke:black; stroke-linecap:round; stroke-width:0.25;"/>
<line x1="226.150000" y1="68.000000" x2="245.500000" y2="68.000000"  style="stroke:black; stroke-linecap:round; stroke-width:0.25;"/>
<line x1="241.500000" y1="36.000000" x2="245.500000" y2="36.000000"  style="stroke:black; stroke-linecap:round; stroke-width:0.25;"/>
<line x1="245.500000" y1="56.000000" x2="253.500000" y2="56.000000"  style="stroke:black; stroke-linecap:round; stroke-width:0.25;"/>
<line x1="245.500000" y1="68.000000" x2="245.500000" y2="56.000000"  style="stroke:black; stroke-linecap:round; stroke-width:0.25;"/>
<line x1="245.500000" y1="68.000000" x2="245.500000" y2="68.000000"  style="stroke:black; stroke-linecap:round; stroke-width:0.25;"/>
<line x1="245.500000" y1="36.000000" x2="253.500000" y2="36.000000"  style="stroke:black; stroke-linecap:round; stroke-width:0.25;"/>
<line x1="253.500000" y1="36.000000" x2="253.500000" y2="48.000000"  style="stroke:black; stroke-linecap:round; stroke-width:0.25;"/>
<line x1="253.500000" y1="48.000000" x2="253.500000" y2="48.000000"  style="stroke:black; stroke-linecap:round; stroke-width:0.25;"/>
<line x1="253.500000" y1="48.000000" x2="257.500000" y2="48.000000"  style="stroke:black; stroke-linecap:round; stroke-width:0.25;"/>
<line x1="253.500000" y1="56.000000" x2="257.500000" y2="56.000000"  style="stroke:black; stroke-linecap:round; stroke-width:0.25;"/>
<line x1="281.500000" y1="52.000000" x2="285.500000" y2="52.000000"  style="stroke:black; stroke-linecap:round; stroke-width:0.25;"/>
<line x1="285.500000" y1="52.000000" x2="285.500000" y2="52.000000"  style="stroke:black; stroke-linecap:round; stroke-width:0.25;"/>
<line x1="285.500000" y1="52.000000" x2="289.500000" y2="52.000000"  style="stroke:black; stroke-linecap:round; stroke-width:0.25;"/>
<line x1="366.900000" y1="52.000000" x2="370.900000" y2="52.000000"  style="stroke:black; stroke-linecap:round; stroke-width:0.25;"/>
<line x1="370.900000" y1="52.000000" x2="370.900000" y2="52.000000"  style="stroke:black; stroke-linecap:round; stroke-width:0.25;"/>
<line x1="370.900000" y1="52.000000" x2="374.900000" y2="52.000000"  style="stroke:black; stroke-linecap:round; stroke-width:0.25;"/>
<line x1="439.400000" y1="52.000000" x2="443.400000" y2="52.000000"  style="stroke:black; stroke-linecap:round; stroke-width:0.25;"/>
<line x1="443.400000" y1="52.000000" x2="443.400000" y2="52.000000"  style="stroke:black; stroke-linecap:round; stroke-width:0.25;"/>
<line x1="443.400000" y1="52.000000" x2="447.400000" y2="52.000000"  style="stroke:black; stroke-linecap:round; stroke-width:0.25;"/>
<line x1="447.400000" y1="52.000000" x2="451.400000" y2="52.000000"  style="stroke:black; stroke-linecap:round; stroke-width:0.25;"/>
<line x1="451.400000" y1="52.000000" x2="461.400000" y2="52.000000"  style="stroke:black; stroke-linecap:round; stroke-width:0.25;"/>
</svg>
