<?xml version="1.0"?>
<svg xmlns="http://www.w3.org/2000/svg" xmlns:xlink="http://www.w3.org/1999/xlink" viewBox="0 0 445.600000 104.000000" width="222.800000mm" height="52.000000mm" version="1.1">
<a xlink:href="radianFun-0x6000114f1200.svg">
<rect x="0.000000" y="0.000000" width="444.600000" height="103.000000" rx="0" ry="0" style="stroke:#000000;fill:#FFFFFF;"/>
</a>
<text x="10.000000" y="7.000000" font-family="Verdana" font-size="7"></text>
<a xlink:href="rilevatorePic-0x6000114f0f30.svg">
<rect x="32.000000" y="40.000000" width="129.000000" height="24.000000" rx="0" ry="0" style="stroke:#000000;fill:#FFFFFF;"/>
</a>
<a xlink:href="rilevatorePic-0x6000114f0f30.svg">
<text x="96.500000" y="54.000000" font-family="Verdana" font-size="7" text-anchor="middle" fill="#000000">rilevatorePic...AYER2[nil]}])</text>
</a>
<circle cx="34.000000" cy="42.000000" r="1"/>
<line x1="29.000000" y1="51.000000" x2="32.000000" y2="52.000000"  transform="rotate(0.000000,32.000000,52.000000)" style="stroke: black; stroke-width:0.25;"/>
<line x1="29.000000" y1="53.000000" x2="32.000000" y2="52.000000"  transform="rotate(0.000000,32.000000,52.000000)" style="stroke: black; stroke-width:0.25;"/>
<a xlink:href="counter-0x600009451b00.svg">
<rect x="177.000000" y="24.000000" width="51.600000" height="24.000000" rx="0" ry="0" style="stroke:#000000;fill:#FFFFFF;"/>
</a>
<a xlink:href="counter-0x600009451b00.svg">
<text x="202.800000" y="38.000000" font-family="Verdana" font-size="7" text-anchor="middle" fill="#000000">counter(2)</text>
</a>
<circle cx="179.000000" cy="26.000000" r="1"/>
<line x1="174.000000" y1="35.000000" x2="177.000000" y2="36.000000"  transform="rotate(0.000000,177.000000,36.000000)" style="stroke: black; stroke-width:0.25;"/>
<line x1="174.000000" y1="37.000000" x2="177.000000" y2="36.000000"  transform="rotate(0.000000,177.000000,36.000000)" style="stroke: black; stroke-width:0.25;"/>
<rect x="190.800000" y="56.000000" width="24.000000" height="24.000000" rx="0" ry="0" style="stroke:#000000;fill:#FFFFFF;"/>
<text x="202.800000" y="70.000000" font-family="Verdana" font-size="7" text-anchor="middle" fill="#000000">2</text>
<circle cx="192.800000" cy="58.000000" r="1"/>
<rect x="244.600000" y="40.000000" width="24.000000" height="24.000000" rx="0" ry="0" style="stroke:#000000;fill:#FFFFFF;"/>
<text x="256.600000" y="54.000000" font-family="Verdana" font-size="7" text-anchor="middle" fill="#000000">/</text>
<circle cx="246.600000" cy="42.000000" r="1"/>
<line x1="241.600000" y1="47.000000" x2="244.600000" y2="48.000000"  transform="rotate(0.000000,244.600000,48.000000)" style="stroke: black; stroke-width:0.25;"/>
<line x1="241.600000" y1="49.000000" x2="244.600000" y2="48.000000"  transform="rotate(0.000000,244.600000,48.000000)" style="stroke: black; stroke-width:0.25;"/>
<line x1="241.600000" y1="55.000000" x2="244.600000" y2="56.000000"  transform="rotate(0.000000,244.600000,56.000000)" style="stroke: black; stroke-width:0.25;"/>
<line x1="241.600000" y1="57.000000" x2="244.600000" y2="56.000000"  transform="rotate(0.000000,244.600000,56.000000)" style="stroke: black; stroke-width:0.25;"/>
<a xlink:href="peakMaxTimer-0x600009456130.svg">
<rect x="276.600000" y="40.000000" width="64.500000" height="24.000000" rx="0" ry="0" style="stroke:#000000;fill:#FFFFFF;"/>
</a>
<a xlink:href="peakMaxTimer-0x600009456130.svg">
<text x="308.850000" y="54.000000" font-family="Verdana" font-size="7" text-anchor="middle" fill="#000000">peakMaxTimer(2)</text>
</a>
<circle cx="278.600000" cy="42.000000" r="1"/>
<line x1="273.600000" y1="51.000000" x2="276.600000" y2="52.000000"  transform="rotate(0.000000,276.600000,52.000000)" style="stroke: black; stroke-width:0.25;"/>
<line x1="273.600000" y1="53.000000" x2="276.600000" y2="52.000000"  transform="rotate(0.000000,276.600000,52.000000)" style="stroke: black; stroke-width:0.25;"/>
<a xlink:href="integrator-0x6000014358c0.svg">
<rect x="349.100000" y="40.000000" width="64.500000" height="24.000000" rx="0" ry="0" style="stroke:#000000;fill:#FFFFFF;"/>
</a>
<a xlink:href="integrator-0x6000014358c0.svg">
<text x="381.350000" y="54.000000" font-family="Verdana" font-size="7" text-anchor="middle" fill="#000000">integrator(1)</text>
</a>
<circle cx="351.100000" cy="42.000000" r="1"/>
<line x1="346.100000" y1="51.000000" x2="349.100000" y2="52.000000"  transform="rotate(0.000000,349.100000,52.000000)" style="stroke: black; stroke-width:0.25;"/>
<line x1="346.100000" y1="53.000000" x2="349.100000" y2="52.000000"  transform="rotate(0.000000,349.100000,52.000000)" style="stroke: black; stroke-width:0.25;"/>
<line x1="15.000000" y1="15.000000" x2="15.000000" y2="89.000000"  style="stroke: black; stroke-linecap:round; stroke-width:0.25; stroke-dasharray:3,3;"/>
<line x1="15.000000" y1="89.000000" x2="430.600000" y2="89.000000"  style="stroke: black; stroke-linecap:round; stroke-width:0.25; stroke-dasharray:3,3;"/>
<line x1="430.600000" y1="89.000000" x2="430.600000" y2="15.000000"  style="stroke: black; stroke-linecap:round; stroke-width:0.25; stroke-dasharray:3,3;"/>
<line x1="15.000000" y1="15.000000" x2="20.000000" y2="15.000000"  style="stroke: black; stroke-linecap:round; stroke-width:0.25; stroke-dasharray:3,3;"/>
<line x1="139.325000" y1="15.000000" x2="430.600000" y2="15.000000"  style="stroke: black; stroke-linecap:round; stroke-width:0.25; stroke-dasharray:3,3;"/>
<text x="20.000000" y="17.000000" font-family="Verdana" font-size="7">frequenzaPicc...AYER2[nil]}])(2)(1)</text>
<line x1="432.600000" y1="51.000000" x2="435.600000" y2="52.000000"  transform="rotate(0.000000,435.600000,52.000000)" style="stroke: black; stroke-width:0.25;"/>
<line x1="432.600000" y1="53.000000" x2="435.600000" y2="52.000000"  transform="rotate(0.000000,435.600000,52.000000)" style="stroke: black; stroke-width:0.25;"/>
<line x1="10.000000" y1="52.000000" x2="20.000000" y2="52.000000"  style="stroke:black; stroke-linecap:round; stroke-width:0.25;"/>
<line x1="20.000000" y1="52.000000" x2="24.000000" y2="52.000000"  style="stroke:black; stroke-linecap:round; stroke-width:0.25;"/>
<line x1="24.000000" y1="52.000000" x2="28.000000" y2="52.000000"  style="stroke:black; stroke-linecap:round; stroke-width:0.25;"/>
<line x1="28.000000" y1="52.000000" x2="28.000000" y2="52.000000"  style="stroke:black; stroke-linecap:round; stroke-width:0.25;"/>
<line x1="28.000000" y1="52.000000" x2="32.000000" y2="52.000000"  style="stroke:black; stroke-linecap:round; stroke-width:0.25;"/>
<line x1="161.000000" y1="52.000000" x2="165.000000" y2="52.000000"  style="stroke:black; stroke-linecap:round; stroke-width:0.25;"/>
<line x1="165.000000" y1="36.000000" x2="173.000000" y2="36.000000"  style="stroke:black; stroke-linecap:round; stroke-width:0.25;"/>
<line x1="165.000000" y1="52.000000" x2="165.000000" y2="36.000000"  style="stroke:black; stroke-linecap:round; stroke-width:0.25;"/>
<line x1="165.000000" y1="52.000000" x2="165.000000" y2="52.000000"  style="stroke:black; stroke-linecap:round; stroke-width:0.25;"/>
<line x1="173.000000" y1="36.000000" x2="177.000000" y2="36.000000"  style="stroke:black; stroke-linecap:round; stroke-width:0.25;"/>
<line x1="214.800000" y1="68.000000" x2="218.800000" y2="68.000000"  style="stroke:black; stroke-linecap:round; stroke-width:0.25;"/>
<line x1="218.800000" y1="68.000000" x2="232.600000" y2="68.000000"  style="stroke:black; stroke-linecap:round; stroke-width:0.25;"/>
<line x1="228.600000" y1="36.000000" x2="232.600000" y2="36.000000"  style="stroke:black; stroke-linecap:round; stroke-width:0.25;"/>
<line x1="232.600000" y1="36.000000" x2="240.600000" y2="36.000000"  style="stroke:black; stroke-linecap:round; stroke-width:0.25;"/>
<line x1="232.600000" y1="56.000000" x2="240.600000" y2="56.000000"  style="stroke:black; stroke-linecap:round; stroke-width:0.25;"/>
<line x1="232.600000" y1="68.000000" x2="232.600000" y2="56.000000"  style="stroke:black; stroke-linecap:round; stroke-width:0.25;"/>
<line x1="232.600000" y1="68.000000" x2="232.600000" y2="68.000000"  style="stroke:black; stroke-linecap:round; stroke-width:0.25;"/>
<line x1="240.600000" y1="36.000000" x2="240.600000" y2="48.000000"  style="stroke:black; stroke-linecap:round; stroke-width:0.25;"/>
<line x1="240.600000" y1="48.000000" x2="240.600000" y2="48.000000"  style="stroke:black; stroke-linecap:round; stroke-width:0.25;"/>
<line x1="240.600000" y1="48.000000" x2="244.600000" y2="48.000000"  style="stroke:black; stroke-linecap:round; stroke-width:0.25;"/>
<line x1="240.600000" y1="56.000000" x2="244.600000" y2="56.000000"  style="stroke:black; stroke-linecap:round; stroke-width:0.25;"/>
<line x1="268.600000" y1="52.000000" x2="272.600000" y2="52.000000"  style="stroke:black; stroke-linecap:round; stroke-width:0.25;"/>
<line x1="272.600000" y1="52.000000" x2="272.600000" y2="52.000000"  style="stroke:black; stroke-linecap:round; stroke-width:0.25;"/>
<line x1="272.600000" y1="52.000000" x2="276.600000" y2="52.000000"  style="stroke:black; stroke-linecap:round; stroke-width:0.25;"/>
<line x1="341.100000" y1="52.000000" x2="345.100000" y2="52.000000"  style="stroke:black; stroke-linecap:round; stroke-width:0.25;"/>
<line x1="345.100000" y1="52.000000" x2="345.100000" y2="52.000000"  style="stroke:black; stroke-linecap:round; stroke-width:0.25;"/>
<line x1="345.100000" y1="52.000000" x2="349.100000" y2="52.000000"  style="stroke:black; stroke-linecap:round; stroke-width:0.25;"/>
<line x1="413.600000" y1="52.000000" x2="417.600000" y2="52.000000"  style="stroke:black; stroke-linecap:round; stroke-width:0.25;"/>
<line x1="417.600000" y1="52.000000" x2="417.600000" y2="52.000000"  style="stroke:black; stroke-linecap:round; stroke-width:0.25;"/>
<line x1="417.600000" y1="52.000000" x2="421.600000" y2="52.000000"  style="stroke:black; stroke-linecap:round; stroke-width:0.25;"/>
<line x1="421.600000" y1="52.000000" x2="425.600000" y2="52.000000"  style="stroke:black; stroke-linecap:round; stroke-width:0.25;"/>
<line x1="425.600000" y1="52.000000" x2="435.600000" y2="52.000000"  style="stroke:black; stroke-linecap:round; stroke-width:0.25;"/>
</svg>
