<?xml version="1.0"?>
<svg xmlns="http://www.w3.org/2000/svg" xmlns:xlink="http://www.w3.org/1999/xlink" viewBox="0 0 462.400000 252.000000" width="231.200000mm" height="126.000000mm" version="1.1">
<a xlink:href="v1-0x6000196e3a80.svg">
<rect x="0.000000" y="0.000000" width="461.400000" height="251.000000" rx="0" ry="0" style="stroke:#000000;fill:#FFFFFF;"/>
</a>
<text x="10.000000" y="7.000000" font-family="Verdana" font-size="7"></text>
<rect x="75.600000" y="24.000000" width="25.800000" height="24.000000" rx="0" ry="0" style="stroke:#000000;fill:#FFFFFF;"/>
<text x="88.500000" y="38.000000" font-family="Verdana" font-size="7" text-anchor="middle" fill="#000000">4946</text>
<circle cx="77.600000" cy="26.000000" r="1"/>
<a xlink:href="fDev3-0x6000196b4c60.svg">
<rect x="49.800000" y="56.000000" width="77.400000" height="24.000000" rx="0" ry="0" style="stroke:#000000;fill:#FFFFFF;"/>
</a>
<a xlink:href="fDev3-0x6000196b4c60.svg">
<text x="88.500000" y="70.000000" font-family="Verdana" font-size="7" text-anchor="middle" fill="#000000">fDev3(1.2f)(x516)</text>
</a>
<circle cx="51.800000" cy="58.000000" r="1"/>
<rect x="143.200000" y="40.000000" width="24.000000" height="24.000000" rx="0" ry="0" style="stroke:#000000;fill:#FFFFFF;"/>
<text x="155.200000" y="54.000000" font-family="Verdana" font-size="7" text-anchor="middle" fill="#000000">*</text>
<circle cx="145.200000" cy="42.000000" r="1"/>
<line x1="140.200000" y1="47.000000" x2="143.200000" y2="48.000000"  transform="rotate(0.000000,143.200000,48.000000)" style="stroke: black; stroke-width:0.25;"/>
<line x1="140.200000" y1="49.000000" x2="143.200000" y2="48.000000"  transform="rotate(0.000000,143.200000,48.000000)" style="stroke: black; stroke-width:0.25;"/>
<line x1="140.200000" y1="55.000000" x2="143.200000" y2="56.000000"  transform="rotate(0.000000,143.200000,56.000000)" style="stroke: black; stroke-width:0.25;"/>
<line x1="140.200000" y1="57.000000" x2="143.200000" y2="56.000000"  transform="rotate(0.000000,143.200000,56.000000)" style="stroke: black; stroke-width:0.25;"/>
<a xlink:href="osc-0x600009431a70.svg">
<rect x="24.000000" y="88.000000" width="129.000000" height="24.000000" rx="0" ry="0" style="stroke:#000000;fill:#FFFFFF;"/>
</a>
<a xlink:href="osc-0x600009431a70.svg">
<text x="88.500000" y="102.000000" font-family="Verdana" font-size="7" text-anchor="middle" fill="#000000">osc(1,((65536...,10 : *) : +)</text>
</a>
<circle cx="26.000000" cy="90.000000" r="1"/>
<rect x="76.500000" y="120.000000" width="24.000000" height="24.000000" rx="0" ry="0" style="stroke:#000000;fill:#FFFFFF;"/>
<text x="88.500000" y="134.000000" font-family="Verdana" font-size="7" text-anchor="middle" fill="#000000">20</text>
<circle cx="78.500000" cy="122.000000" r="1"/>
<rect x="169.000000" y="104.000000" width="24.000000" height="24.000000" rx="0" ry="0" style="stroke:#000000;fill:#FFFFFF;"/>
<text x="181.000000" y="118.000000" font-family="Verdana" font-size="7" text-anchor="middle" fill="#000000">*</text>
<circle cx="171.000000" cy="106.000000" r="1"/>
<line x1="166.000000" y1="111.000000" x2="169.000000" y2="112.000000"  transform="rotate(0.000000,169.000000,112.000000)" style="stroke: black; stroke-width:0.25;"/>
<line x1="166.000000" y1="113.000000" x2="169.000000" y2="112.000000"  transform="rotate(0.000000,169.000000,112.000000)" style="stroke: black; stroke-width:0.25;"/>
<line x1="166.000000" y1="119.000000" x2="169.000000" y2="120.000000"  transform="rotate(0.000000,169.000000,120.000000)" style="stroke: black; stroke-width:0.25;"/>
<line x1="166.000000" y1="121.000000" x2="169.000000" y2="120.000000"  transform="rotate(0.000000,169.000000,120.000000)" style="stroke: black; stroke-width:0.25;"/>
<rect x="209.000000" y="72.000000" width="24.000000" height="24.000000" rx="0" ry="0" style="stroke:#000000;fill:#FFFFFF;"/>
<text x="221.000000" y="86.000000" font-family="Verdana" font-size="7" text-anchor="middle" fill="#000000">+</text>
<circle cx="211.000000" cy="74.000000" r="1"/>
<line x1="206.000000" y1="79.000000" x2="209.000000" y2="80.000000"  transform="rotate(0.000000,209.000000,80.000000)" style="stroke: black; stroke-width:0.25;"/>
<line x1="206.000000" y1="81.000000" x2="209.000000" y2="80.000000"  transform="rotate(0.000000,209.000000,80.000000)" style="stroke: black; stroke-width:0.25;"/>
<line x1="206.000000" y1="87.000000" x2="209.000000" y2="88.000000"  transform="rotate(0.000000,209.000000,88.000000)" style="stroke: black; stroke-width:0.25;"/>
<line x1="206.000000" y1="89.000000" x2="209.000000" y2="88.000000"  transform="rotate(0.000000,209.000000,88.000000)" style="stroke: black; stroke-width:0.25;"/>
<a xlink:href="integrator-0x60000571a6d0.svg">
<rect x="241.000000" y="72.000000" width="77.400000" height="24.000000" rx="0" ry="0" style="stroke:#000000;fill:#FFFFFF;"/>
</a>
<a xlink:href="integrator-0x60000571a6d0.svg">
<text x="279.700000" y="86.000000" font-family="Verdana" font-size="7" text-anchor="middle" fill="#000000">integrator(0.3f)</text>
</a>
<circle cx="243.000000" cy="74.000000" r="1"/>
<line x1="238.000000" y1="83.000000" x2="241.000000" y2="84.000000"  transform="rotate(0.000000,241.000000,84.000000)" style="stroke: black; stroke-width:0.25;"/>
<line x1="238.000000" y1="85.000000" x2="241.000000" y2="84.000000"  transform="rotate(0.000000,241.000000,84.000000)" style="stroke: black; stroke-width:0.25;"/>
<rect x="145.400000" y="162.000000" width="51.600000" height="24.000000" rx="0" ry="0" style="stroke:#000000;fill:#FFFFFF;"/>
<text x="171.200000" y="176.000000" font-family="Verdana" font-size="7" text-anchor="middle" fill="#000000">3.1415927f</text>
<circle cx="147.400000" cy="164.000000" r="1"/>
<line x1="136.400000" y1="153.000000" x2="136.400000" y2="195.000000"  style="stroke: black; stroke-linecap:round; stroke-width:0.25; stroke-dasharray:3,3;"/>
<line x1="136.400000" y1="195.000000" x2="206.000000" y2="195.000000"  style="stroke: black; stroke-linecap:round; stroke-width:0.25; stroke-dasharray:3,3;"/>
<line x1="206.000000" y1="195.000000" x2="206.000000" y2="153.000000"  style="stroke: black; stroke-linecap:round; stroke-width:0.25; stroke-dasharray:3,3;"/>
<line x1="136.400000" y1="153.000000" x2="141.400000" y2="153.000000"  style="stroke: black; stroke-linecap:round; stroke-width:0.25; stroke-dasharray:3,3;"/>
<line x1="154.300000" y1="153.000000" x2="206.000000" y2="153.000000"  style="stroke: black; stroke-linecap:round; stroke-width:0.25; stroke-dasharray:3,3;"/>
<text x="141.400000" y="155.000000" font-family="Verdana" font-size="7">PI</text>
<rect x="334.400000" y="98.000000" width="24.000000" height="24.000000" rx="0" ry="0" style="stroke:#000000;fill:#FFFFFF;"/>
<text x="346.400000" y="112.000000" font-family="Verdana" font-size="7" text-anchor="middle" fill="#000000">*</text>
<circle cx="336.400000" cy="100.000000" r="1"/>
<line x1="331.400000" y1="105.000000" x2="334.400000" y2="106.000000"  transform="rotate(0.000000,334.400000,106.000000)" style="stroke: black; stroke-width:0.25;"/>
<line x1="331.400000" y1="107.000000" x2="334.400000" y2="106.000000"  transform="rotate(0.000000,334.400000,106.000000)" style="stroke: black; stroke-width:0.25;"/>
<line x1="331.400000" y1="113.000000" x2="334.400000" y2="114.000000"  transform="rotate(0.000000,334.400000,114.000000)" style="stroke: black; stroke-width:0.25;"/>
<line x1="331.400000" y1="115.000000" x2="334.400000" y2="114.000000"  transform="rotate(0.000000,334.400000,114.000000)" style="stroke: black; stroke-width:0.25;"/>
<a xlink:href="T-0x6000056ac7e0.svg">
<rect x="179.200000" y="204.000000" width="24.000000" height="24.000000" rx="0" ry="0" style="stroke:#000000;fill:#FFFFFF;"/>
</a>
<a xlink:href="T-0x6000056ac7e0.svg">
<text x="191.200000" y="218.000000" font-family="Verdana" font-size="7" text-anchor="middle" fill="#000000">T</text>
</a>
<circle cx="181.200000" cy="206.000000" r="1"/>
<rect x="374.400000" y="114.000000" width="24.000000" height="24.000000" rx="0" ry="0" style="stroke:#000000;fill:#FFFFFF;"/>
<text x="386.400000" y="128.000000" font-family="Verdana" font-size="7" text-anchor="middle" fill="#000000">*</text>
<circle cx="376.400000" cy="116.000000" r="1"/>
<line x1="371.400000" y1="121.000000" x2="374.400000" y2="122.000000"  transform="rotate(0.000000,374.400000,122.000000)" style="stroke: black; stroke-width:0.25;"/>
<line x1="371.400000" y1="123.000000" x2="374.400000" y2="122.000000"  transform="rotate(0.000000,374.400000,122.000000)" style="stroke: black; stroke-width:0.25;"/>
<line x1="371.400000" y1="129.000000" x2="374.400000" y2="130.000000"  transform="rotate(0.000000,374.400000,130.000000)" style="stroke: black; stroke-width:0.25;"/>
<line x1="371.400000" y1="131.000000" x2="374.400000" y2="130.000000"  transform="rotate(0.000000,374.400000,130.000000)" style="stroke: black; stroke-width:0.25;"/>
<rect x="406.400000" y="114.000000" width="24.000000" height="24.000000" rx="0" ry="0" style="stroke:#000000;fill:#FFFFFF;"/>
<text x="418.400000" y="128.000000" font-family="Verdana" font-size="7" text-anchor="middle" fill="#000000">tan</text>
<circle cx="408.400000" cy="116.000000" r="1"/>
<line x1="403.400000" y1="125.000000" x2="406.400000" y2="126.000000"  transform="rotate(0.000000,406.400000,126.000000)" style="stroke: black; stroke-width:0.25;"/>
<line x1="403.400000" y1="127.000000" x2="406.400000" y2="126.000000"  transform="rotate(0.000000,406.400000,126.000000)" style="stroke: black; stroke-width:0.25;"/>
<line x1="15.000000" y1="15.000000" x2="15.000000" y2="237.000000"  style="stroke: black; stroke-linecap:round; stroke-width:0.25; stroke-dasharray:3,3;"/>
<line x1="15.000000" y1="237.000000" x2="447.400000" y2="237.000000"  style="stroke: black; stroke-linecap:round; stroke-width:0.25; stroke-dasharray:3,3;"/>
<line x1="447.400000" y1="237.000000" x2="447.400000" y2="15.000000"  style="stroke: black; stroke-linecap:round; stroke-width:0.25; stroke-dasharray:3,3;"/>
<line x1="15.000000" y1="15.000000" x2="20.000000" y2="15.000000"  style="stroke: black; stroke-linecap:round; stroke-width:0.25; stroke-dasharray:3,3;"/>
<line x1="29.675000" y1="15.000000" x2="447.400000" y2="15.000000"  style="stroke: black; stroke-linecap:round; stroke-width:0.25; stroke-dasharray:3,3;"/>
<text x="20.000000" y="17.000000" font-family="Verdana" font-size="7">g</text>
<line x1="449.400000" y1="125.000000" x2="452.400000" y2="126.000000"  transform="rotate(0.000000,452.400000,126.000000)" style="stroke: black; stroke-width:0.25;"/>
<line x1="449.400000" y1="127.000000" x2="452.400000" y2="126.000000"  transform="rotate(0.000000,452.400000,126.000000)" style="stroke: black; stroke-width:0.25;"/>
<line x1="100.500000" y1="132.000000" x2="104.500000" y2="132.000000"  style="stroke:black; stroke-linecap:round; stroke-width:0.25;"/>
<line x1="101.400000" y1="36.000000" x2="105.400000" y2="36.000000"  style="stroke:black; stroke-linecap:round; stroke-width:0.25;"/>
<line x1="104.500000" y1="132.000000" x2="157.000000" y2="132.000000"  style="stroke:black; stroke-linecap:round; stroke-width:0.25;"/>
<line x1="105.400000" y1="36.000000" x2="131.200000" y2="36.000000"  style="stroke:black; stroke-linecap:round; stroke-width:0.25;"/>
<line x1="127.200000" y1="68.000000" x2="131.200000" y2="68.000000"  style="stroke:black; stroke-linecap:round; stroke-width:0.25;"/>
<line x1="131.200000" y1="36.000000" x2="139.200000" y2="36.000000"  style="stroke:black; stroke-linecap:round; stroke-width:0.25;"/>
<line x1="131.200000" y1="56.000000" x2="139.200000" y2="56.000000"  style="stroke:black; stroke-linecap:round; stroke-width:0.25;"/>
<line x1="131.200000" y1="68.000000" x2="131.200000" y2="56.000000"  style="stroke:black; stroke-linecap:round; stroke-width:0.25;"/>
<line x1="131.200000" y1="68.000000" x2="131.200000" y2="68.000000"  style="stroke:black; stroke-linecap:round; stroke-width:0.25;"/>
<line x1="139.200000" y1="36.000000" x2="139.200000" y2="48.000000"  style="stroke:black; stroke-linecap:round; stroke-width:0.25;"/>
<line x1="139.200000" y1="48.000000" x2="139.200000" y2="48.000000"  style="stroke:black; stroke-linecap:round; stroke-width:0.25;"/>
<line x1="139.200000" y1="48.000000" x2="143.200000" y2="48.000000"  style="stroke:black; stroke-linecap:round; stroke-width:0.25;"/>
<line x1="139.200000" y1="56.000000" x2="143.200000" y2="56.000000"  style="stroke:black; stroke-linecap:round; stroke-width:0.25;"/>
<line x1="153.000000" y1="100.000000" x2="157.000000" y2="100.000000"  style="stroke:black; stroke-linecap:round; stroke-width:0.25;"/>
<line x1="157.000000" y1="100.000000" x2="165.000000" y2="100.000000"  style="stroke:black; stroke-linecap:round; stroke-width:0.25;"/>
<line x1="157.000000" y1="120.000000" x2="165.000000" y2="120.000000"  style="stroke:black; stroke-linecap:round; stroke-width:0.25;"/>
<line x1="157.000000" y1="132.000000" x2="157.000000" y2="120.000000"  style="stroke:black; stroke-linecap:round; stroke-width:0.25;"/>
<line x1="157.000000" y1="132.000000" x2="157.000000" y2="132.000000"  style="stroke:black; stroke-linecap:round; stroke-width:0.25;"/>
<line x1="165.000000" y1="100.000000" x2="165.000000" y2="112.000000"  style="stroke:black; stroke-linecap:round; stroke-width:0.25;"/>
<line x1="165.000000" y1="112.000000" x2="165.000000" y2="112.000000"  style="stroke:black; stroke-linecap:round; stroke-width:0.25;"/>
<line x1="165.000000" y1="112.000000" x2="169.000000" y2="112.000000"  style="stroke:black; stroke-linecap:round; stroke-width:0.25;"/>
<line x1="165.000000" y1="120.000000" x2="169.000000" y2="120.000000"  style="stroke:black; stroke-linecap:round; stroke-width:0.25;"/>
<line x1="167.200000" y1="52.000000" x2="171.200000" y2="52.000000"  style="stroke:black; stroke-linecap:round; stroke-width:0.25;"/>
<line x1="171.200000" y1="52.000000" x2="197.000000" y2="52.000000"  style="stroke:black; stroke-linecap:round; stroke-width:0.25;"/>
<line x1="193.000000" y1="116.000000" x2="197.000000" y2="116.000000"  style="stroke:black; stroke-linecap:round; stroke-width:0.25;"/>
<line x1="197.000000" y1="174.000000" x2="201.000000" y2="174.000000"  style="stroke:black; stroke-linecap:round; stroke-width:0.25;"/>
<line x1="197.000000" y1="52.000000" x2="205.000000" y2="52.000000"  style="stroke:black; stroke-linecap:round; stroke-width:0.25;"/>
<line x1="197.000000" y1="88.000000" x2="205.000000" y2="88.000000"  style="stroke:black; stroke-linecap:round; stroke-width:0.25;"/>
<line x1="197.000000" y1="116.000000" x2="197.000000" y2="88.000000"  style="stroke:black; stroke-linecap:round; stroke-width:0.25;"/>
<line x1="197.000000" y1="116.000000" x2="197.000000" y2="116.000000"  style="stroke:black; stroke-linecap:round; stroke-width:0.25;"/>
<line x1="201.000000" y1="174.000000" x2="211.000000" y2="174.000000"  style="stroke:black; stroke-linecap:round; stroke-width:0.25;"/>
<line x1="203.200000" y1="216.000000" x2="207.200000" y2="216.000000"  style="stroke:black; stroke-linecap:round; stroke-width:0.25;"/>
<line x1="205.000000" y1="52.000000" x2="205.000000" y2="80.000000"  style="stroke:black; stroke-linecap:round; stroke-width:0.25;"/>
<line x1="205.000000" y1="80.000000" x2="205.000000" y2="80.000000"  style="stroke:black; stroke-linecap:round; stroke-width:0.25;"/>
<line x1="205.000000" y1="80.000000" x2="209.000000" y2="80.000000"  style="stroke:black; stroke-linecap:round; stroke-width:0.25;"/>
<line x1="205.000000" y1="88.000000" x2="209.000000" y2="88.000000"  style="stroke:black; stroke-linecap:round; stroke-width:0.25;"/>
<line x1="207.200000" y1="216.000000" x2="362.400000" y2="216.000000"  style="stroke:black; stroke-linecap:round; stroke-width:0.25;"/>
<line x1="211.000000" y1="174.000000" x2="322.400000" y2="174.000000"  style="stroke:black; stroke-linecap:round; stroke-width:0.25;"/>
<line x1="233.000000" y1="84.000000" x2="237.000000" y2="84.000000"  style="stroke:black; stroke-linecap:round; stroke-width:0.25;"/>
<line x1="237.000000" y1="84.000000" x2="237.000000" y2="84.000000"  style="stroke:black; stroke-linecap:round; stroke-width:0.25;"/>
<line x1="237.000000" y1="84.000000" x2="241.000000" y2="84.000000"  style="stroke:black; stroke-linecap:round; stroke-width:0.25;"/>
<line x1="318.400000" y1="84.000000" x2="322.400000" y2="84.000000"  style="stroke:black; stroke-linecap:round; stroke-width:0.25;"/>
<line x1="322.400000" y1="84.000000" x2="330.400000" y2="84.000000"  style="stroke:black; stroke-linecap:round; stroke-width:0.25;"/>
<line x1="322.400000" y1="114.000000" x2="330.400000" y2="114.000000"  style="stroke:black; stroke-linecap:round; stroke-width:0.25;"/>
<line x1="322.400000" y1="174.000000" x2="322.400000" y2="114.000000"  style="stroke:black; stroke-linecap:round; stroke-width:0.25;"/>
<line x1="322.400000" y1="174.000000" x2="322.400000" y2="174.000000"  style="stroke:black; stroke-linecap:round; stroke-width:0.25;"/>
<line x1="330.400000" y1="84.000000" x2="330.400000" y2="106.000000"  style="stroke:black; stroke-linecap:round; stroke-width:0.25;"/>
<line x1="330.400000" y1="106.000000" x2="330.400000" y2="106.000000"  style="stroke:black; stroke-linecap:round; stroke-width:0.25;"/>
<line x1="330.400000" y1="106.000000" x2="334.400000" y2="106.000000"  style="stroke:black; stroke-linecap:round; stroke-width:0.25;"/>
<line x1="330.400000" y1="114.000000" x2="334.400000" y2="114.000000"  style="stroke:black; stroke-linecap:round; stroke-width:0.25;"/>
<line x1="358.400000" y1="110.000000" x2="362.400000" y2="110.000000"  style="stroke:black; stroke-linecap:round; stroke-width:0.25;"/>
<line x1="362.400000" y1="110.000000" x2="370.400000" y2="110.000000"  style="stroke:black; stroke-linecap:round; stroke-width:0.25;"/>
<line x1="362.400000" y1="130.000000" x2="370.400000" y2="130.000000"  style="stroke:black; stroke-linecap:round; stroke-width:0.25;"/>
<line x1="362.400000" y1="216.000000" x2="362.400000" y2="130.000000"  style="stroke:black; stroke-linecap:round; stroke-width:0.25;"/>
<line x1="362.400000" y1="216.000000" x2="362.400000" y2="216.000000"  style="stroke:black; stroke-linecap:round; stroke-width:0.25;"/>
<line x1="370.400000" y1="110.000000" x2="370.400000" y2="122.000000"  style="stroke:black; stroke-linecap:round; stroke-width:0.25;"/>
<line x1="370.400000" y1="122.000000" x2="370.400000" y2="122.000000"  style="stroke:black; stroke-linecap:round; stroke-width:0.25;"/>
<line x1="370.400000" y1="122.000000" x2="374.400000" y2="122.000000"  style="stroke:black; stroke-linecap:round; stroke-width:0.25;"/>
<line x1="370.400000" y1="130.000000" x2="374.400000" y2="130.000000"  style="stroke:black; stroke-linecap:round; stroke-width:0.25;"/>
<line x1="398.400000" y1="126.000000" x2="402.400000" y2="126.000000"  style="stroke:black; stroke-linecap:round; stroke-width:0.25;"/>
<line x1="402.400000" y1="126.000000" x2="402.400000" y2="126.000000"  style="stroke:black; stroke-linecap:round; stroke-width:0.25;"/>
<line x1="402.400000" y1="126.000000" x2="406.400000" y2="126.000000"  style="stroke:black; stroke-linecap:round; stroke-width:0.25;"/>
<line x1="430.400000" y1="126.000000" x2="434.400000" y2="126.000000"  style="stroke:black; stroke-linecap:round; stroke-width:0.25;"/>
<line x1="434.400000" y1="126.000000" x2="434.400000" y2="126.000000"  style="stroke:black; stroke-linecap:round; stroke-width:0.25;"/>
<line x1="434.400000" y1="126.000000" x2="438.400000" y2="126.000000"  style="stroke:black; stroke-linecap:round; stroke-width:0.25;"/>
<line x1="438.400000" y1="126.000000" x2="442.400000" y2="126.000000"  style="stroke:black; stroke-linecap:round; stroke-width:0.25;"/>
<line x1="442.400000" y1="126.000000" x2="452.400000" y2="126.000000"  style="stroke:black; stroke-linecap:round; stroke-width:0.25;"/>
</svg>
