<?xml version="1.0"?>
<svg xmlns="http://www.w3.org/2000/svg" xmlns:xlink="http://www.w3.org/1999/xlink" viewBox="0 0 281.800000 264.000000" width="140.900000mm" height="132.000000mm" version="1.1">
<a xlink:href="hp-0x600011763d50.svg">
<rect x="0.000000" y="0.000000" width="280.800000" height="263.000000" rx="0" ry="0" style="stroke:#000000;fill:#FFFFFF;"/>
</a>
<text x="10.000000" y="7.000000" font-family="Verdana" font-size="7"></text>
<rect x="104.000000" y="24.000000" width="25.800000" height="24.000000" rx="0" ry="0" style="stroke:#000000;fill:#FFFFFF;"/>
<text x="116.900000" y="38.000000" font-family="Verdana" font-size="7" text-anchor="middle" fill="#000000">1.0f</text>
<circle cx="106.000000" cy="26.000000" r="1"/>
<rect x="64.000000" y="56.000000" width="25.800000" height="24.000000" rx="0" ry="0" style="stroke:#000000;fill:#FFFFFF;"/>
<text x="76.900000" y="70.000000" font-family="Verdana" font-size="7" text-anchor="middle" fill="#000000">1.0f</text>
<circle cx="66.000000" cy="58.000000" r="1"/>
<rect x="24.000000" y="88.000000" width="25.800000" height="24.000000" rx="0" ry="0" style="stroke:#000000;fill:#FFFFFF;"/>
<text x="36.900000" y="102.000000" font-family="Verdana" font-size="7" text-anchor="middle" fill="#000000">2.0f</text>
<circle cx="26.000000" cy="90.000000" r="1"/>
<a xlink:href="R-0x60001170e910.svg">
<rect x="24.900000" y="120.000000" width="24.000000" height="24.000000" rx="0" ry="0" style="stroke:#000000;fill:#FFFFFF;"/>
</a>
<a xlink:href="R-0x60001170e910.svg">
<text x="36.900000" y="134.000000" font-family="Verdana" font-size="7" text-anchor="middle" fill="#000000">R</text>
</a>
<circle cx="26.900000" cy="122.000000" r="1"/>
<rect x="65.800000" y="104.000000" width="24.000000" height="24.000000" rx="0" ry="0" style="stroke:#000000;fill:#FFFFFF;"/>
<text x="77.800000" y="118.000000" font-family="Verdana" font-size="7" text-anchor="middle" fill="#000000">*</text>
<circle cx="67.800000" cy="106.000000" r="1"/>
<line x1="62.800000" y1="111.000000" x2="65.800000" y2="112.000000"  transform="rotate(0.000000,65.800000,112.000000)" style="stroke: black; stroke-width:0.25;"/>
<line x1="62.800000" y1="113.000000" x2="65.800000" y2="112.000000"  transform="rotate(0.000000,65.800000,112.000000)" style="stroke: black; stroke-width:0.25;"/>
<line x1="62.800000" y1="119.000000" x2="65.800000" y2="120.000000"  transform="rotate(0.000000,65.800000,120.000000)" style="stroke: black; stroke-width:0.25;"/>
<line x1="62.800000" y1="121.000000" x2="65.800000" y2="120.000000"  transform="rotate(0.000000,65.800000,120.000000)" style="stroke: black; stroke-width:0.25;"/>
<a xlink:href="g-0x6000117632a0.svg">
<rect x="44.900000" y="152.000000" width="24.000000" height="24.000000" rx="0" ry="0" style="stroke:#000000;fill:#FFFFFF;"/>
</a>
<a xlink:href="g-0x6000117632a0.svg">
<text x="56.900000" y="166.000000" font-family="Verdana" font-size="7" text-anchor="middle" fill="#000000">g</text>
</a>
<circle cx="46.900000" cy="154.000000" r="1"/>
<rect x="105.800000" y="120.000000" width="24.000000" height="24.000000" rx="0" ry="0" style="stroke:#000000;fill:#FFFFFF;"/>
<text x="117.800000" y="134.000000" font-family="Verdana" font-size="7" text-anchor="middle" fill="#000000">*</text>
<circle cx="107.800000" cy="122.000000" r="1"/>
<line x1="102.800000" y1="127.000000" x2="105.800000" y2="128.000000"  transform="rotate(0.000000,105.800000,128.000000)" style="stroke: black; stroke-width:0.25;"/>
<line x1="102.800000" y1="129.000000" x2="105.800000" y2="128.000000"  transform="rotate(0.000000,105.800000,128.000000)" style="stroke: black; stroke-width:0.25;"/>
<line x1="102.800000" y1="135.000000" x2="105.800000" y2="136.000000"  transform="rotate(0.000000,105.800000,136.000000)" style="stroke: black; stroke-width:0.25;"/>
<line x1="102.800000" y1="137.000000" x2="105.800000" y2="136.000000"  transform="rotate(0.000000,105.800000,136.000000)" style="stroke: black; stroke-width:0.25;"/>
<rect x="145.800000" y="104.000000" width="24.000000" height="24.000000" rx="0" ry="0" style="stroke:#000000;fill:#FFFFFF;"/>
<text x="157.800000" y="118.000000" font-family="Verdana" font-size="7" text-anchor="middle" fill="#000000">+</text>
<circle cx="147.800000" cy="106.000000" r="1"/>
<line x1="142.800000" y1="111.000000" x2="145.800000" y2="112.000000"  transform="rotate(0.000000,145.800000,112.000000)" style="stroke: black; stroke-width:0.25;"/>
<line x1="142.800000" y1="113.000000" x2="145.800000" y2="112.000000"  transform="rotate(0.000000,145.800000,112.000000)" style="stroke: black; stroke-width:0.25;"/>
<line x1="142.800000" y1="119.000000" x2="145.800000" y2="120.000000"  transform="rotate(0.000000,145.800000,120.000000)" style="stroke: black; stroke-width:0.25;"/>
<line x1="142.800000" y1="121.000000" x2="145.800000" y2="120.000000"  transform="rotate(0.000000,145.800000,120.000000)" style="stroke: black; stroke-width:0.25;"/>
<a xlink:href="g-0x6000117632a0.svg">
<rect x="64.900000" y="184.000000" width="24.000000" height="24.000000" rx="0" ry="0" style="stroke:#000000;fill:#FFFFFF;"/>
</a>
<a xlink:href="g-0x6000117632a0.svg">
<text x="76.900000" y="198.000000" font-family="Verdana" font-size="7" text-anchor="middle" fill="#000000">g</text>
</a>
<circle cx="66.900000" cy="186.000000" r="1"/>
<a xlink:href="g-0x6000117632a0.svg">
<rect x="64.900000" y="216.000000" width="24.000000" height="24.000000" rx="0" ry="0" style="stroke:#000000;fill:#FFFFFF;"/>
</a>
<a xlink:href="g-0x6000117632a0.svg">
<text x="76.900000" y="230.000000" font-family="Verdana" font-size="7" text-anchor="middle" fill="#000000">g</text>
</a>
<circle cx="66.900000" cy="218.000000" r="1"/>
<rect x="104.900000" y="200.000000" width="24.000000" height="24.000000" rx="0" ry="0" style="stroke:#000000;fill:#FFFFFF;"/>
<text x="116.900000" y="214.000000" font-family="Verdana" font-size="7" text-anchor="middle" fill="#000000">*</text>
<circle cx="106.900000" cy="202.000000" r="1"/>
<line x1="101.900000" y1="207.000000" x2="104.900000" y2="208.000000"  transform="rotate(0.000000,104.900000,208.000000)" style="stroke: black; stroke-width:0.25;"/>
<line x1="101.900000" y1="209.000000" x2="104.900000" y2="208.000000"  transform="rotate(0.000000,104.900000,208.000000)" style="stroke: black; stroke-width:0.25;"/>
<line x1="101.900000" y1="215.000000" x2="104.900000" y2="216.000000"  transform="rotate(0.000000,104.900000,216.000000)" style="stroke: black; stroke-width:0.25;"/>
<line x1="101.900000" y1="217.000000" x2="104.900000" y2="216.000000"  transform="rotate(0.000000,104.900000,216.000000)" style="stroke: black; stroke-width:0.25;"/>
<rect x="185.800000" y="136.000000" width="24.000000" height="24.000000" rx="0" ry="0" style="stroke:#000000;fill:#FFFFFF;"/>
<text x="197.800000" y="150.000000" font-family="Verdana" font-size="7" text-anchor="middle" fill="#000000">+</text>
<circle cx="187.800000" cy="138.000000" r="1"/>
<line x1="182.800000" y1="143.000000" x2="185.800000" y2="144.000000"  transform="rotate(0.000000,185.800000,144.000000)" style="stroke: black; stroke-width:0.25;"/>
<line x1="182.800000" y1="145.000000" x2="185.800000" y2="144.000000"  transform="rotate(0.000000,185.800000,144.000000)" style="stroke: black; stroke-width:0.25;"/>
<line x1="182.800000" y1="151.000000" x2="185.800000" y2="152.000000"  transform="rotate(0.000000,185.800000,152.000000)" style="stroke: black; stroke-width:0.25;"/>
<line x1="182.800000" y1="153.000000" x2="185.800000" y2="152.000000"  transform="rotate(0.000000,185.800000,152.000000)" style="stroke: black; stroke-width:0.25;"/>
<rect x="225.800000" y="120.000000" width="24.000000" height="24.000000" rx="0" ry="0" style="stroke:#000000;fill:#FFFFFF;"/>
<text x="237.800000" y="134.000000" font-family="Verdana" font-size="7" text-anchor="middle" fill="#000000">/</text>
<circle cx="227.800000" cy="122.000000" r="1"/>
<line x1="222.800000" y1="127.000000" x2="225.800000" y2="128.000000"  transform="rotate(0.000000,225.800000,128.000000)" style="stroke: black; stroke-width:0.25;"/>
<line x1="222.800000" y1="129.000000" x2="225.800000" y2="128.000000"  transform="rotate(0.000000,225.800000,128.000000)" style="stroke: black; stroke-width:0.25;"/>
<line x1="222.800000" y1="135.000000" x2="225.800000" y2="136.000000"  transform="rotate(0.000000,225.800000,136.000000)" style="stroke: black; stroke-width:0.25;"/>
<line x1="222.800000" y1="137.000000" x2="225.800000" y2="136.000000"  transform="rotate(0.000000,225.800000,136.000000)" style="stroke: black; stroke-width:0.25;"/>
<line x1="15.000000" y1="15.000000" x2="15.000000" y2="249.000000"  style="stroke: black; stroke-linecap:round; stroke-width:0.25; stroke-dasharray:3,3;"/>
<line x1="15.000000" y1="249.000000" x2="266.800000" y2="249.000000"  style="stroke: black; stroke-linecap:round; stroke-width:0.25; stroke-dasharray:3,3;"/>
<line x1="266.800000" y1="249.000000" x2="266.800000" y2="15.000000"  style="stroke: black; stroke-linecap:round; stroke-width:0.25; stroke-dasharray:3,3;"/>
<line x1="15.000000" y1="15.000000" x2="20.000000" y2="15.000000"  style="stroke: black; stroke-linecap:round; stroke-width:0.25; stroke-dasharray:3,3;"/>
<line x1="32.900000" y1="15.000000" x2="266.800000" y2="15.000000"  style="stroke: black; stroke-linecap:round; stroke-width:0.25; stroke-dasharray:3,3;"/>
<text x="20.000000" y="17.000000" font-family="Verdana" font-size="7">G1</text>
<line x1="268.800000" y1="131.000000" x2="271.800000" y2="132.000000"  transform="rotate(0.000000,271.800000,132.000000)" style="stroke: black; stroke-width:0.25;"/>
<line x1="268.800000" y1="133.000000" x2="271.800000" y2="132.000000"  transform="rotate(0.000000,271.800000,132.000000)" style="stroke: black; stroke-width:0.25;"/>
<line x1="48.900000" y1="132.000000" x2="52.900000" y2="132.000000"  style="stroke:black; stroke-linecap:round; stroke-width:0.25;"/>
<line x1="49.800000" y1="100.000000" x2="53.800000" y2="100.000000"  style="stroke:black; stroke-linecap:round; stroke-width:0.25;"/>
<line x1="52.900000" y1="132.000000" x2="53.800000" y2="132.000000"  style="stroke:black; stroke-linecap:round; stroke-width:0.25;"/>
<line x1="53.800000" y1="100.000000" x2="61.800000" y2="100.000000"  style="stroke:black; stroke-linecap:round; stroke-width:0.25;"/>
<line x1="53.800000" y1="120.000000" x2="61.800000" y2="120.000000"  style="stroke:black; stroke-linecap:round; stroke-width:0.25;"/>
<line x1="53.800000" y1="132.000000" x2="53.800000" y2="120.000000"  style="stroke:black; stroke-linecap:round; stroke-width:0.25;"/>
<line x1="53.800000" y1="132.000000" x2="53.800000" y2="132.000000"  style="stroke:black; stroke-linecap:round; stroke-width:0.25;"/>
<line x1="61.800000" y1="100.000000" x2="61.800000" y2="112.000000"  style="stroke:black; stroke-linecap:round; stroke-width:0.25;"/>
<line x1="61.800000" y1="112.000000" x2="61.800000" y2="112.000000"  style="stroke:black; stroke-linecap:round; stroke-width:0.25;"/>
<line x1="61.800000" y1="112.000000" x2="65.800000" y2="112.000000"  style="stroke:black; stroke-linecap:round; stroke-width:0.25;"/>
<line x1="61.800000" y1="120.000000" x2="65.800000" y2="120.000000"  style="stroke:black; stroke-linecap:round; stroke-width:0.25;"/>
<line x1="68.900000" y1="164.000000" x2="72.900000" y2="164.000000"  style="stroke:black; stroke-linecap:round; stroke-width:0.25;"/>
<line x1="72.900000" y1="164.000000" x2="93.800000" y2="164.000000"  style="stroke:black; stroke-linecap:round; stroke-width:0.25;"/>
<line x1="88.900000" y1="196.000000" x2="92.900000" y2="196.000000"  style="stroke:black; stroke-linecap:round; stroke-width:0.25;"/>
<line x1="88.900000" y1="228.000000" x2="92.900000" y2="228.000000"  style="stroke:black; stroke-linecap:round; stroke-width:0.25;"/>
<line x1="89.800000" y1="68.000000" x2="93.800000" y2="68.000000"  style="stroke:black; stroke-linecap:round; stroke-width:0.25;"/>
<line x1="89.800000" y1="116.000000" x2="93.800000" y2="116.000000"  style="stroke:black; stroke-linecap:round; stroke-width:0.25;"/>
<line x1="92.900000" y1="196.000000" x2="100.900000" y2="196.000000"  style="stroke:black; stroke-linecap:round; stroke-width:0.25;"/>
<line x1="92.900000" y1="216.000000" x2="100.900000" y2="216.000000"  style="stroke:black; stroke-linecap:round; stroke-width:0.25;"/>
<line x1="92.900000" y1="228.000000" x2="92.900000" y2="216.000000"  style="stroke:black; stroke-linecap:round; stroke-width:0.25;"/>
<line x1="92.900000" y1="228.000000" x2="92.900000" y2="228.000000"  style="stroke:black; stroke-linecap:round; stroke-width:0.25;"/>
<line x1="93.800000" y1="68.000000" x2="133.800000" y2="68.000000"  style="stroke:black; stroke-linecap:round; stroke-width:0.25;"/>
<line x1="93.800000" y1="116.000000" x2="101.800000" y2="116.000000"  style="stroke:black; stroke-linecap:round; stroke-width:0.25;"/>
<line x1="93.800000" y1="136.000000" x2="101.800000" y2="136.000000"  style="stroke:black; stroke-linecap:round; stroke-width:0.25;"/>
<line x1="93.800000" y1="164.000000" x2="93.800000" y2="136.000000"  style="stroke:black; stroke-linecap:round; stroke-width:0.25;"/>
<line x1="93.800000" y1="164.000000" x2="93.800000" y2="164.000000"  style="stroke:black; stroke-linecap:round; stroke-width:0.25;"/>
<line x1="100.900000" y1="196.000000" x2="100.900000" y2="208.000000"  style="stroke:black; stroke-linecap:round; stroke-width:0.25;"/>
<line x1="100.900000" y1="208.000000" x2="100.900000" y2="208.000000"  style="stroke:black; stroke-linecap:round; stroke-width:0.25;"/>
<line x1="100.900000" y1="208.000000" x2="104.900000" y2="208.000000"  style="stroke:black; stroke-linecap:round; stroke-width:0.25;"/>
<line x1="100.900000" y1="216.000000" x2="104.900000" y2="216.000000"  style="stroke:black; stroke-linecap:round; stroke-width:0.25;"/>
<line x1="101.800000" y1="116.000000" x2="101.800000" y2="128.000000"  style="stroke:black; stroke-linecap:round; stroke-width:0.25;"/>
<line x1="101.800000" y1="128.000000" x2="101.800000" y2="128.000000"  style="stroke:black; stroke-linecap:round; stroke-width:0.25;"/>
<line x1="101.800000" y1="128.000000" x2="105.800000" y2="128.000000"  style="stroke:black; stroke-linecap:round; stroke-width:0.25;"/>
<line x1="101.800000" y1="136.000000" x2="105.800000" y2="136.000000"  style="stroke:black; stroke-linecap:round; stroke-width:0.25;"/>
<line x1="128.900000" y1="212.000000" x2="132.900000" y2="212.000000"  style="stroke:black; stroke-linecap:round; stroke-width:0.25;"/>
<line x1="129.800000" y1="36.000000" x2="133.800000" y2="36.000000"  style="stroke:black; stroke-linecap:round; stroke-width:0.25;"/>
<line x1="129.800000" y1="132.000000" x2="133.800000" y2="132.000000"  style="stroke:black; stroke-linecap:round; stroke-width:0.25;"/>
<line x1="132.900000" y1="212.000000" x2="173.800000" y2="212.000000"  style="stroke:black; stroke-linecap:round; stroke-width:0.25;"/>
<line x1="133.800000" y1="36.000000" x2="213.800000" y2="36.000000"  style="stroke:black; stroke-linecap:round; stroke-width:0.25;"/>
<line x1="133.800000" y1="68.000000" x2="141.800000" y2="68.000000"  style="stroke:black; stroke-linecap:round; stroke-width:0.25;"/>
<line x1="133.800000" y1="120.000000" x2="141.800000" y2="120.000000"  style="stroke:black; stroke-linecap:round; stroke-width:0.25;"/>
<line x1="133.800000" y1="132.000000" x2="133.800000" y2="120.000000"  style="stroke:black; stroke-linecap:round; stroke-width:0.25;"/>
<line x1="133.800000" y1="132.000000" x2="133.800000" y2="132.000000"  style="stroke:black; stroke-linecap:round; stroke-width:0.25;"/>
<line x1="141.800000" y1="68.000000" x2="141.800000" y2="112.000000"  style="stroke:black; stroke-linecap:round; stroke-width:0.25;"/>
<line x1="141.800000" y1="112.000000" x2="141.800000" y2="112.000000"  style="stroke:black; stroke-linecap:round; stroke-width:0.25;"/>
<line x1="141.800000" y1="112.000000" x2="145.800000" y2="112.000000"  style="stroke:black; stroke-linecap:round; stroke-width:0.25;"/>
<line x1="141.800000" y1="120.000000" x2="145.800000" y2="120.000000"  style="stroke:black; stroke-linecap:round; stroke-width:0.25;"/>
<line x1="169.800000" y1="116.000000" x2="173.800000" y2="116.000000"  style="stroke:black; stroke-linecap:round; stroke-width:0.25;"/>
<line x1="173.800000" y1="116.000000" x2="181.800000" y2="116.000000"  style="stroke:black; stroke-linecap:round; stroke-width:0.25;"/>
<line x1="173.800000" y1="152.000000" x2="181.800000" y2="152.000000"  style="stroke:black; stroke-linecap:round; stroke-width:0.25;"/>
<line x1="173.800000" y1="212.000000" x2="173.800000" y2="152.000000"  style="stroke:black; stroke-linecap:round; stroke-width:0.25;"/>
<line x1="173.800000" y1="212.000000" x2="173.800000" y2="212.000000"  style="stroke:black; stroke-linecap:round; stroke-width:0.25;"/>
<line x1="181.800000" y1="116.000000" x2="181.800000" y2="144.000000"  style="stroke:black; stroke-linecap:round; stroke-width:0.25;"/>
<line x1="181.800000" y1="144.000000" x2="181.800000" y2="144.000000"  style="stroke:black; stroke-linecap:round; stroke-width:0.25;"/>
<line x1="181.800000" y1="144.000000" x2="185.800000" y2="144.000000"  style="stroke:black; stroke-linecap:round; stroke-width:0.25;"/>
<line x1="181.800000" y1="152.000000" x2="185.800000" y2="152.000000"  style="stroke:black; stroke-linecap:round; stroke-width:0.25;"/>
<line x1="209.800000" y1="148.000000" x2="213.800000" y2="148.000000"  style="stroke:black; stroke-linecap:round; stroke-width:0.25;"/>
<line x1="213.800000" y1="36.000000" x2="221.800000" y2="36.000000"  style="stroke:black; stroke-linecap:round; stroke-width:0.25;"/>
<line x1="213.800000" y1="136.000000" x2="221.800000" y2="136.000000"  style="stroke:black; stroke-linecap:round; stroke-width:0.25;"/>
<line x1="213.800000" y1="148.000000" x2="213.800000" y2="136.000000"  style="stroke:black; stroke-linecap:round; stroke-width:0.25;"/>
<line x1="213.800000" y1="148.000000" x2="213.800000" y2="148.000000"  style="stroke:black; stroke-linecap:round; stroke-width:0.25;"/>
<line x1="221.800000" y1="36.000000" x2="221.800000" y2="128.000000"  style="stroke:black; stroke-linecap:round; stroke-width:0.25;"/>
<line x1="221.800000" y1="128.000000" x2="221.800000" y2="128.000000"  style="stroke:black; stroke-linecap:round; stroke-width:0.25;"/>
<line x1="221.800000" y1="128.000000" x2="225.800000" y2="128.000000"  style="stroke:black; stroke-linecap:round; stroke-width:0.25;"/>
<line x1="221.800000" y1="136.000000" x2="225.800000" y2="136.000000"  style="stroke:black; stroke-linecap:round; stroke-width:0.25;"/>
<line x1="249.800000" y1="132.000000" x2="253.800000" y2="132.000000"  style="stroke:black; stroke-linecap:round; stroke-width:0.25;"/>
<line x1="253.800000" y1="132.000000" x2="253.800000" y2="132.000000"  style="stroke:black; stroke-linecap:round; stroke-width:0.25;"/>
<line x1="253.800000" y1="132.000000" x2="257.800000" y2="132.000000"  style="stroke:black; stroke-linecap:round; stroke-width:0.25;"/>
<line x1="257.800000" y1="132.000000" x2="261.800000" y2="132.000000"  style="stroke:black; stroke-linecap:round; stroke-width:0.25;"/>
<line x1="261.800000" y1="132.000000" x2="271.800000" y2="132.000000"  style="stroke:black; stroke-linecap:round; stroke-width:0.25;"/>
</svg>
