<?xml version="1.0"?>
<svg xmlns="http://www.w3.org/2000/svg" xmlns:xlink="http://www.w3.org/1999/xlink" viewBox="0 0 241.800000 232.000000" width="120.900000mm" height="116.000000mm" version="1.1">
<a xlink:href="hp-0x6000056f9ef0.svg">
<rect x="0.000000" y="0.000000" width="240.800000" height="231.000000" rx="0" ry="0" style="stroke:#000000;fill:#FFFFFF;"/>
</a>
<text x="10.000000" y="7.000000" font-family="Verdana" font-size="7"></text>
<rect x="84.000000" y="24.000000" width="25.800000" height="24.000000" rx="0" ry="0" style="stroke:#000000;fill:#FFFFFF;"/>
<text x="96.900000" y="38.000000" font-family="Verdana" font-size="7" text-anchor="middle" fill="#000000">1.0f</text>
<circle cx="86.000000" cy="26.000000" r="1"/>
<rect x="44.000000" y="56.000000" width="25.800000" height="24.000000" rx="0" ry="0" style="stroke:#000000;fill:#FFFFFF;"/>
<text x="56.900000" y="70.000000" font-family="Verdana" font-size="7" text-anchor="middle" fill="#000000">1.0f</text>
<circle cx="46.000000" cy="58.000000" r="1"/>
<rect x="24.000000" y="88.000000" width="25.800000" height="24.000000" rx="0" ry="0" style="stroke:#000000;fill:#FFFFFF;"/>
<text x="36.900000" y="102.000000" font-family="Verdana" font-size="7" text-anchor="middle" fill="#000000">0.001f</text>
<circle cx="26.000000" cy="90.000000" r="1"/>
<a xlink:href="g-0x6000056f79f0.svg">
<rect x="24.900000" y="120.000000" width="24.000000" height="24.000000" rx="0" ry="0" style="stroke:#000000;fill:#FFFFFF;"/>
</a>
<a xlink:href="g-0x6000056f79f0.svg">
<text x="36.900000" y="134.000000" font-family="Verdana" font-size="7" text-anchor="middle" fill="#000000">g</text>
</a>
<circle cx="26.900000" cy="122.000000" r="1"/>
<rect x="65.800000" y="104.000000" width="24.000000" height="24.000000" rx="0" ry="0" style="stroke:#000000;fill:#FFFFFF;"/>
<text x="77.800000" y="118.000000" font-family="Verdana" font-size="7" text-anchor="middle" fill="#000000">*</text>
<circle cx="67.800000" cy="106.000000" r="1"/>
<line x1="62.800000" y1="111.000000" x2="65.800000" y2="112.000000"  transform="rotate(0.000000,65.800000,112.000000)" style="stroke: black; stroke-width:0.25;"/>
<line x1="62.800000" y1="113.000000" x2="65.800000" y2="112.000000"  transform="rotate(0.000000,65.800000,112.000000)" style="stroke: black; stroke-width:0.25;"/>
<line x1="62.800000" y1="119.000000" x2="65.800000" y2="120.000000"  transform="rotate(0.000000,65.800000,120.000000)" style="stroke: black; stroke-width:0.25;"/>
<line x1="62.800000" y1="121.000000" x2="65.800000" y2="120.000000"  transform="rotate(0.000000,65.800000,120.000000)" style="stroke: black; stroke-width:0.25;"/>
<rect x="105.800000" y="88.000000" width="24.000000" height="24.000000" rx="0" ry="0" style="stroke:#000000;fill:#FFFFFF;"/>
<text x="117.800000" y="102.000000" font-family="Verdana" font-size="7" text-anchor="middle" fill="#000000">+</text>
<circle cx="107.800000" cy="90.000000" r="1"/>
<line x1="102.800000" y1="95.000000" x2="105.800000" y2="96.000000"  transform="rotate(0.000000,105.800000,96.000000)" style="stroke: black; stroke-width:0.25;"/>
<line x1="102.800000" y1="97.000000" x2="105.800000" y2="96.000000"  transform="rotate(0.000000,105.800000,96.000000)" style="stroke: black; stroke-width:0.25;"/>
<line x1="102.800000" y1="103.000000" x2="105.800000" y2="104.000000"  transform="rotate(0.000000,105.800000,104.000000)" style="stroke: black; stroke-width:0.25;"/>
<line x1="102.800000" y1="105.000000" x2="105.800000" y2="104.000000"  transform="rotate(0.000000,105.800000,104.000000)" style="stroke: black; stroke-width:0.25;"/>
<a xlink:href="g-0x6000056f79f0.svg">
<rect x="44.900000" y="152.000000" width="24.000000" height="24.000000" rx="0" ry="0" style="stroke:#000000;fill:#FFFFFF;"/>
</a>
<a xlink:href="g-0x6000056f79f0.svg">
<text x="56.900000" y="166.000000" font-family="Verdana" font-size="7" text-anchor="middle" fill="#000000">g</text>
</a>
<circle cx="46.900000" cy="154.000000" r="1"/>
<a xlink:href="g-0x6000056f79f0.svg">
<rect x="44.900000" y="184.000000" width="24.000000" height="24.000000" rx="0" ry="0" style="stroke:#000000;fill:#FFFFFF;"/>
</a>
<a xlink:href="g-0x6000056f79f0.svg">
<text x="56.900000" y="198.000000" font-family="Verdana" font-size="7" text-anchor="middle" fill="#000000">g</text>
</a>
<circle cx="46.900000" cy="186.000000" r="1"/>
<rect x="84.900000" y="168.000000" width="24.000000" height="24.000000" rx="0" ry="0" style="stroke:#000000;fill:#FFFFFF;"/>
<text x="96.900000" y="182.000000" font-family="Verdana" font-size="7" text-anchor="middle" fill="#000000">*</text>
<circle cx="86.900000" cy="170.000000" r="1"/>
<line x1="81.900000" y1="175.000000" x2="84.900000" y2="176.000000"  transform="rotate(0.000000,84.900000,176.000000)" style="stroke: black; stroke-width:0.25;"/>
<line x1="81.900000" y1="177.000000" x2="84.900000" y2="176.000000"  transform="rotate(0.000000,84.900000,176.000000)" style="stroke: black; stroke-width:0.25;"/>
<line x1="81.900000" y1="183.000000" x2="84.900000" y2="184.000000"  transform="rotate(0.000000,84.900000,184.000000)" style="stroke: black; stroke-width:0.25;"/>
<line x1="81.900000" y1="185.000000" x2="84.900000" y2="184.000000"  transform="rotate(0.000000,84.900000,184.000000)" style="stroke: black; stroke-width:0.25;"/>
<rect x="145.800000" y="120.000000" width="24.000000" height="24.000000" rx="0" ry="0" style="stroke:#000000;fill:#FFFFFF;"/>
<text x="157.800000" y="134.000000" font-family="Verdana" font-size="7" text-anchor="middle" fill="#000000">+</text>
<circle cx="147.800000" cy="122.000000" r="1"/>
<line x1="142.800000" y1="127.000000" x2="145.800000" y2="128.000000"  transform="rotate(0.000000,145.800000,128.000000)" style="stroke: black; stroke-width:0.25;"/>
<line x1="142.800000" y1="129.000000" x2="145.800000" y2="128.000000"  transform="rotate(0.000000,145.800000,128.000000)" style="stroke: black; stroke-width:0.25;"/>
<line x1="142.800000" y1="135.000000" x2="145.800000" y2="136.000000"  transform="rotate(0.000000,145.800000,136.000000)" style="stroke: black; stroke-width:0.25;"/>
<line x1="142.800000" y1="137.000000" x2="145.800000" y2="136.000000"  transform="rotate(0.000000,145.800000,136.000000)" style="stroke: black; stroke-width:0.25;"/>
<rect x="185.800000" y="104.000000" width="24.000000" height="24.000000" rx="0" ry="0" style="stroke:#000000;fill:#FFFFFF;"/>
<text x="197.800000" y="118.000000" font-family="Verdana" font-size="7" text-anchor="middle" fill="#000000">/</text>
<circle cx="187.800000" cy="106.000000" r="1"/>
<line x1="182.800000" y1="111.000000" x2="185.800000" y2="112.000000"  transform="rotate(0.000000,185.800000,112.000000)" style="stroke: black; stroke-width:0.25;"/>
<line x1="182.800000" y1="113.000000" x2="185.800000" y2="112.000000"  transform="rotate(0.000000,185.800000,112.000000)" style="stroke: black; stroke-width:0.25;"/>
<line x1="182.800000" y1="119.000000" x2="185.800000" y2="120.000000"  transform="rotate(0.000000,185.800000,120.000000)" style="stroke: black; stroke-width:0.25;"/>
<line x1="182.800000" y1="121.000000" x2="185.800000" y2="120.000000"  transform="rotate(0.000000,185.800000,120.000000)" style="stroke: black; stroke-width:0.25;"/>
<line x1="15.000000" y1="15.000000" x2="15.000000" y2="217.000000"  style="stroke: black; stroke-linecap:round; stroke-width:0.25; stroke-dasharray:3,3;"/>
<line x1="15.000000" y1="217.000000" x2="226.800000" y2="217.000000"  style="stroke: black; stroke-linecap:round; stroke-width:0.25; stroke-dasharray:3,3;"/>
<line x1="226.800000" y1="217.000000" x2="226.800000" y2="15.000000"  style="stroke: black; stroke-linecap:round; stroke-width:0.25; stroke-dasharray:3,3;"/>
<line x1="15.000000" y1="15.000000" x2="20.000000" y2="15.000000"  style="stroke: black; stroke-linecap:round; stroke-width:0.25; stroke-dasharray:3,3;"/>
<line x1="32.900000" y1="15.000000" x2="226.800000" y2="15.000000"  style="stroke: black; stroke-linecap:round; stroke-width:0.25; stroke-dasharray:3,3;"/>
<text x="20.000000" y="17.000000" font-family="Verdana" font-size="7">G1</text>
<line x1="228.800000" y1="115.000000" x2="231.800000" y2="116.000000"  transform="rotate(0.000000,231.800000,116.000000)" style="stroke: black; stroke-width:0.25;"/>
<line x1="228.800000" y1="117.000000" x2="231.800000" y2="116.000000"  transform="rotate(0.000000,231.800000,116.000000)" style="stroke: black; stroke-width:0.25;"/>
<line x1="48.900000" y1="132.000000" x2="52.900000" y2="132.000000"  style="stroke:black; stroke-linecap:round; stroke-width:0.25;"/>
<line x1="49.800000" y1="100.000000" x2="53.800000" y2="100.000000"  style="stroke:black; stroke-linecap:round; stroke-width:0.25;"/>
<line x1="52.900000" y1="132.000000" x2="53.800000" y2="132.000000"  style="stroke:black; stroke-linecap:round; stroke-width:0.25;"/>
<line x1="53.800000" y1="100.000000" x2="61.800000" y2="100.000000"  style="stroke:black; stroke-linecap:round; stroke-width:0.25;"/>
<line x1="53.800000" y1="120.000000" x2="61.800000" y2="120.000000"  style="stroke:black; stroke-linecap:round; stroke-width:0.25;"/>
<line x1="53.800000" y1="132.000000" x2="53.800000" y2="120.000000"  style="stroke:black; stroke-linecap:round; stroke-width:0.25;"/>
<line x1="53.800000" y1="132.000000" x2="53.800000" y2="132.000000"  style="stroke:black; stroke-linecap:round; stroke-width:0.25;"/>
<line x1="61.800000" y1="100.000000" x2="61.800000" y2="112.000000"  style="stroke:black; stroke-linecap:round; stroke-width:0.25;"/>
<line x1="61.800000" y1="112.000000" x2="61.800000" y2="112.000000"  style="stroke:black; stroke-linecap:round; stroke-width:0.25;"/>
<line x1="61.800000" y1="112.000000" x2="65.800000" y2="112.000000"  style="stroke:black; stroke-linecap:round; stroke-width:0.25;"/>
<line x1="61.800000" y1="120.000000" x2="65.800000" y2="120.000000"  style="stroke:black; stroke-linecap:round; stroke-width:0.25;"/>
<line x1="68.900000" y1="164.000000" x2="72.900000" y2="164.000000"  style="stroke:black; stroke-linecap:round; stroke-width:0.25;"/>
<line x1="68.900000" y1="196.000000" x2="72.900000" y2="196.000000"  style="stroke:black; stroke-linecap:round; stroke-width:0.25;"/>
<line x1="69.800000" y1="68.000000" x2="73.800000" y2="68.000000"  style="stroke:black; stroke-linecap:round; stroke-width:0.25;"/>
<line x1="72.900000" y1="164.000000" x2="80.900000" y2="164.000000"  style="stroke:black; stroke-linecap:round; stroke-width:0.25;"/>
<line x1="72.900000" y1="184.000000" x2="80.900000" y2="184.000000"  style="stroke:black; stroke-linecap:round; stroke-width:0.25;"/>
<line x1="72.900000" y1="196.000000" x2="72.900000" y2="184.000000"  style="stroke:black; stroke-linecap:round; stroke-width:0.25;"/>
<line x1="72.900000" y1="196.000000" x2="72.900000" y2="196.000000"  style="stroke:black; stroke-linecap:round; stroke-width:0.25;"/>
<line x1="73.800000" y1="68.000000" x2="93.800000" y2="68.000000"  style="stroke:black; stroke-linecap:round; stroke-width:0.25;"/>
<line x1="80.900000" y1="164.000000" x2="80.900000" y2="176.000000"  style="stroke:black; stroke-linecap:round; stroke-width:0.25;"/>
<line x1="80.900000" y1="176.000000" x2="80.900000" y2="176.000000"  style="stroke:black; stroke-linecap:round; stroke-width:0.25;"/>
<line x1="80.900000" y1="176.000000" x2="84.900000" y2="176.000000"  style="stroke:black; stroke-linecap:round; stroke-width:0.25;"/>
<line x1="80.900000" y1="184.000000" x2="84.900000" y2="184.000000"  style="stroke:black; stroke-linecap:round; stroke-width:0.25;"/>
<line x1="89.800000" y1="116.000000" x2="93.800000" y2="116.000000"  style="stroke:black; stroke-linecap:round; stroke-width:0.25;"/>
<line x1="93.800000" y1="68.000000" x2="101.800000" y2="68.000000"  style="stroke:black; stroke-linecap:round; stroke-width:0.25;"/>
<line x1="93.800000" y1="104.000000" x2="101.800000" y2="104.000000"  style="stroke:black; stroke-linecap:round; stroke-width:0.25;"/>
<line x1="93.800000" y1="116.000000" x2="93.800000" y2="104.000000"  style="stroke:black; stroke-linecap:round; stroke-width:0.25;"/>
<line x1="93.800000" y1="116.000000" x2="93.800000" y2="116.000000"  style="stroke:black; stroke-linecap:round; stroke-width:0.25;"/>
<line x1="101.800000" y1="68.000000" x2="101.800000" y2="96.000000"  style="stroke:black; stroke-linecap:round; stroke-width:0.25;"/>
<line x1="101.800000" y1="96.000000" x2="101.800000" y2="96.000000"  style="stroke:black; stroke-linecap:round; stroke-width:0.25;"/>
<line x1="101.800000" y1="96.000000" x2="105.800000" y2="96.000000"  style="stroke:black; stroke-linecap:round; stroke-width:0.25;"/>
<line x1="101.800000" y1="104.000000" x2="105.800000" y2="104.000000"  style="stroke:black; stroke-linecap:round; stroke-width:0.25;"/>
<line x1="108.900000" y1="180.000000" x2="112.900000" y2="180.000000"  style="stroke:black; stroke-linecap:round; stroke-width:0.25;"/>
<line x1="109.800000" y1="36.000000" x2="113.800000" y2="36.000000"  style="stroke:black; stroke-linecap:round; stroke-width:0.25;"/>
<line x1="112.900000" y1="180.000000" x2="133.800000" y2="180.000000"  style="stroke:black; stroke-linecap:round; stroke-width:0.25;"/>
<line x1="113.800000" y1="36.000000" x2="173.800000" y2="36.000000"  style="stroke:black; stroke-linecap:round; stroke-width:0.25;"/>
<line x1="129.800000" y1="100.000000" x2="133.800000" y2="100.000000"  style="stroke:black; stroke-linecap:round; stroke-width:0.25;"/>
<line x1="133.800000" y1="100.000000" x2="141.800000" y2="100.000000"  style="stroke:black; stroke-linecap:round; stroke-width:0.25;"/>
<line x1="133.800000" y1="136.000000" x2="141.800000" y2="136.000000"  style="stroke:black; stroke-linecap:round; stroke-width:0.25;"/>
<line x1="133.800000" y1="180.000000" x2="133.800000" y2="136.000000"  style="stroke:black; stroke-linecap:round; stroke-width:0.25;"/>
<line x1="133.800000" y1="180.000000" x2="133.800000" y2="180.000000"  style="stroke:black; stroke-linecap:round; stroke-width:0.25;"/>
<line x1="141.800000" y1="100.000000" x2="141.800000" y2="128.000000"  style="stroke:black; stroke-linecap:round; stroke-width:0.25;"/>
<line x1="141.800000" y1="128.000000" x2="141.800000" y2="128.000000"  style="stroke:black; stroke-linecap:round; stroke-width:0.25;"/>
<line x1="141.800000" y1="128.000000" x2="145.800000" y2="128.000000"  style="stroke:black; stroke-linecap:round; stroke-width:0.25;"/>
<line x1="141.800000" y1="136.000000" x2="145.800000" y2="136.000000"  style="stroke:black; stroke-linecap:round; stroke-width:0.25;"/>
<line x1="169.800000" y1="132.000000" x2="173.800000" y2="132.000000"  style="stroke:black; stroke-linecap:round; stroke-width:0.25;"/>
<line x1="173.800000" y1="36.000000" x2="181.800000" y2="36.000000"  style="stroke:black; stroke-linecap:round; stroke-width:0.25;"/>
<line x1="173.800000" y1="120.000000" x2="181.800000" y2="120.000000"  style="stroke:black; stroke-linecap:round; stroke-width:0.25;"/>
<line x1="173.800000" y1="132.000000" x2="173.800000" y2="120.000000"  style="stroke:black; stroke-linecap:round; stroke-width:0.25;"/>
<line x1="173.800000" y1="132.000000" x2="173.800000" y2="132.000000"  style="stroke:black; stroke-linecap:round; stroke-width:0.25;"/>
<line x1="181.800000" y1="36.000000" x2="181.800000" y2="112.000000"  style="stroke:black; stroke-linecap:round; stroke-width:0.25;"/>
<line x1="181.800000" y1="112.000000" x2="181.800000" y2="112.000000"  style="stroke:black; stroke-linecap:round; stroke-width:0.25;"/>
<line x1="181.800000" y1="112.000000" x2="185.800000" y2="112.000000"  style="stroke:black; stroke-linecap:round; stroke-width:0.25;"/>
<line x1="181.800000" y1="120.000000" x2="185.800000" y2="120.000000"  style="stroke:black; stroke-linecap:round; stroke-width:0.25;"/>
<line x1="209.800000" y1="116.000000" x2="213.800000" y2="116.000000"  style="stroke:black; stroke-linecap:round; stroke-width:0.25;"/>
<line x1="213.800000" y1="116.000000" x2="213.800000" y2="116.000000"  style="stroke:black; stroke-linecap:round; stroke-width:0.25;"/>
<line x1="213.800000" y1="116.000000" x2="217.800000" y2="116.000000"  style="stroke:black; stroke-linecap:round; stroke-width:0.25;"/>
<line x1="217.800000" y1="116.000000" x2="221.800000" y2="116.000000"  style="stroke:black; stroke-linecap:round; stroke-width:0.25;"/>
<line x1="221.800000" y1="116.000000" x2="231.800000" y2="116.000000"  style="stroke:black; stroke-linecap:round; stroke-width:0.25;"/>
</svg>
