<?xml version="1.0"?>
<svg xmlns="http://www.w3.org/2000/svg" xmlns:xlink="http://www.w3.org/1999/xlink" viewBox="0 0 398.800000 100.000000" width="199.400000mm" height="50.000000mm" version="1.1">
<a xlink:href="combApf-0x60001d680fc0.svg">
<rect x="0.000000" y="0.000000" width="397.800000" height="99.000000" rx="0" ry="0" style="stroke:#000000;fill:#FFFFFF;"/>
</a>
<text x="10.000000" y="7.000000" font-family="Verdana" font-size="7"></text>
<a xlink:href="frequenzaPicc-0x60001576eb50.svg">
<rect x="32.000000" y="38.000000" width="154.800000" height="24.000000" rx="0" ry="0" style="stroke:#000000;fill:#FFFFFF;"/>
</a>
<a xlink:href="frequenzaPicc-0x60001576eb50.svg">
<text x="109.400000" y="52.000000" font-family="Verdana" font-size="7" text-anchor="middle" fill="#000000">frequenzaPicc...AYER2[nil]}])(7)(2)</text>
</a>
<circle cx="34.000000" cy="40.000000" r="1"/>
<line x1="29.000000" y1="49.000000" x2="32.000000" y2="50.000000"  transform="rotate(0.000000,32.000000,50.000000)" style="stroke: black; stroke-width:0.25;"/>
<line x1="29.000000" y1="51.000000" x2="32.000000" y2="50.000000"  transform="rotate(0.000000,32.000000,50.000000)" style="stroke: black; stroke-width:0.25;"/>
<rect x="202.800000" y="42.000000" width="24.000000" height="24.000000" rx="0" ry="0" style="stroke:#000000;fill:#FFFFFF;"/>
<text x="214.800000" y="56.000000" font-family="Verdana" font-size="7" text-anchor="middle" fill="#000000">2</text>
<circle cx="204.800000" cy="44.000000" r="1"/>
<rect x="242.800000" y="38.000000" width="24.000000" height="24.000000" rx="0" ry="0" style="stroke:#000000;fill:#FFFFFF;"/>
<text x="254.800000" y="52.000000" font-family="Verdana" font-size="7" text-anchor="middle" fill="#000000">/</text>
<circle cx="244.800000" cy="40.000000" r="1"/>
<line x1="239.800000" y1="45.000000" x2="242.800000" y2="46.000000"  transform="rotate(0.000000,242.800000,46.000000)" style="stroke: black; stroke-width:0.25;"/>
<line x1="239.800000" y1="47.000000" x2="242.800000" y2="46.000000"  transform="rotate(0.000000,242.800000,46.000000)" style="stroke: black; stroke-width:0.25;"/>
<line x1="239.800000" y1="53.000000" x2="242.800000" y2="54.000000"  transform="rotate(0.000000,242.800000,54.000000)" style="stroke: black; stroke-width:0.25;"/>
<line x1="239.800000" y1="55.000000" x2="242.800000" y2="54.000000"  transform="rotate(0.000000,242.800000,54.000000)" style="stroke: black; stroke-width:0.25;"/>
<rect x="292.800000" y="34.000000" width="24.000000" height="24.000000" rx="0" ry="0" style="stroke:#000000;fill:#FFFFFF;"/>
<text x="304.800000" y="48.000000" font-family="Verdana" font-size="7" text-anchor="middle" fill="#000000">1</text>
<circle cx="294.800000" cy="36.000000" r="1"/>
<line x1="283.800000" y1="25.000000" x2="283.800000" y2="67.000000"  style="stroke: black; stroke-linecap:round; stroke-width:0.25; stroke-dasharray:3,3;"/>
<line x1="283.800000" y1="67.000000" x2="325.800000" y2="67.000000"  style="stroke: black; stroke-linecap:round; stroke-width:0.25; stroke-dasharray:3,3;"/>
<line x1="325.800000" y1="67.000000" x2="325.800000" y2="25.000000"  style="stroke: black; stroke-linecap:round; stroke-width:0.25; stroke-dasharray:3,3;"/>
<line x1="283.800000" y1="25.000000" x2="288.800000" y2="25.000000"  style="stroke: black; stroke-linecap:round; stroke-width:0.25; stroke-dasharray:3,3;"/>
<line x1="325.800000" y1="25.000000" x2="325.800000" y2="25.000000"  style="stroke: black; stroke-linecap:round; stroke-width:0.25; stroke-dasharray:3,3;"/>
<text x="288.800000" y="27.000000" font-family="Verdana" font-size="7">signum(90)</text>
<rect x="342.800000" y="38.000000" width="24.000000" height="24.000000" rx="0" ry="0" style="stroke:#000000;fill:#FFFFFF;"/>
<text x="354.800000" y="52.000000" font-family="Verdana" font-size="7" text-anchor="middle" fill="#000000">min</text>
<circle cx="344.800000" cy="40.000000" r="1"/>
<line x1="339.800000" y1="45.000000" x2="342.800000" y2="46.000000"  transform="rotate(0.000000,342.800000,46.000000)" style="stroke: black; stroke-width:0.25;"/>
<line x1="339.800000" y1="47.000000" x2="342.800000" y2="46.000000"  transform="rotate(0.000000,342.800000,46.000000)" style="stroke: black; stroke-width:0.25;"/>
<line x1="339.800000" y1="53.000000" x2="342.800000" y2="54.000000"  transform="rotate(0.000000,342.800000,54.000000)" style="stroke: black; stroke-width:0.25;"/>
<line x1="339.800000" y1="55.000000" x2="342.800000" y2="54.000000"  transform="rotate(0.000000,342.800000,54.000000)" style="stroke: black; stroke-width:0.25;"/>
<line x1="15.000000" y1="15.000000" x2="15.000000" y2="85.000000"  style="stroke: black; stroke-linecap:round; stroke-width:0.25; stroke-dasharray:3,3;"/>
<line x1="15.000000" y1="85.000000" x2="383.800000" y2="85.000000"  style="stroke: black; stroke-linecap:round; stroke-width:0.25; stroke-dasharray:3,3;"/>
<line x1="383.800000" y1="85.000000" x2="383.800000" y2="15.000000"  style="stroke: black; stroke-linecap:round; stroke-width:0.25; stroke-dasharray:3,3;"/>
<line x1="15.000000" y1="15.000000" x2="20.000000" y2="15.000000"  style="stroke: black; stroke-linecap:round; stroke-width:0.25; stroke-dasharray:3,3;"/>
<line x1="55.475000" y1="15.000000" x2="383.800000" y2="15.000000"  style="stroke: black; stroke-linecap:round; stroke-width:0.25; stroke-dasharray:3,3;"/>
<text x="20.000000" y="17.000000" font-family="Verdana" font-size="7">gainReve1</text>
<line x1="385.800000" y1="49.000000" x2="388.800000" y2="50.000000"  transform="rotate(0.000000,388.800000,50.000000)" style="stroke: black; stroke-width:0.25;"/>
<line x1="385.800000" y1="51.000000" x2="388.800000" y2="50.000000"  transform="rotate(0.000000,388.800000,50.000000)" style="stroke: black; stroke-width:0.25;"/>
<line x1="10.000000" y1="50.000000" x2="20.000000" y2="50.000000"  style="stroke:black; stroke-linecap:round; stroke-width:0.25;"/>
<line x1="20.000000" y1="50.000000" x2="24.000000" y2="50.000000"  style="stroke:black; stroke-linecap:round; stroke-width:0.25;"/>
<line x1="24.000000" y1="50.000000" x2="28.000000" y2="50.000000"  style="stroke:black; stroke-linecap:round; stroke-width:0.25;"/>
<line x1="28.000000" y1="50.000000" x2="28.000000" y2="50.000000"  style="stroke:black; stroke-linecap:round; stroke-width:0.25;"/>
<line x1="28.000000" y1="50.000000" x2="32.000000" y2="50.000000"  style="stroke:black; stroke-linecap:round; stroke-width:0.25;"/>
<line x1="186.800000" y1="50.000000" x2="190.800000" y2="50.000000"  style="stroke:black; stroke-linecap:round; stroke-width:0.25;"/>
<line x1="190.800000" y1="34.000000" x2="198.800000" y2="34.000000"  style="stroke:black; stroke-linecap:round; stroke-width:0.25;"/>
<line x1="190.800000" y1="50.000000" x2="190.800000" y2="34.000000"  style="stroke:black; stroke-linecap:round; stroke-width:0.25;"/>
<line x1="190.800000" y1="50.000000" x2="190.800000" y2="50.000000"  style="stroke:black; stroke-linecap:round; stroke-width:0.25;"/>
<line x1="198.800000" y1="34.000000" x2="214.800000" y2="34.000000"  style="stroke:black; stroke-linecap:round; stroke-width:0.25;"/>
<line x1="214.800000" y1="34.000000" x2="230.800000" y2="34.000000"  style="stroke:black; stroke-linecap:round; stroke-width:0.25;"/>
<line x1="226.800000" y1="54.000000" x2="230.800000" y2="54.000000"  style="stroke:black; stroke-linecap:round; stroke-width:0.25;"/>
<line x1="230.800000" y1="34.000000" x2="238.800000" y2="34.000000"  style="stroke:black; stroke-linecap:round; stroke-width:0.25;"/>
<line x1="230.800000" y1="54.000000" x2="238.800000" y2="54.000000"  style="stroke:black; stroke-linecap:round; stroke-width:0.25;"/>
<line x1="238.800000" y1="34.000000" x2="238.800000" y2="46.000000"  style="stroke:black; stroke-linecap:round; stroke-width:0.25;"/>
<line x1="238.800000" y1="46.000000" x2="238.800000" y2="46.000000"  style="stroke:black; stroke-linecap:round; stroke-width:0.25;"/>
<line x1="238.800000" y1="46.000000" x2="242.800000" y2="46.000000"  style="stroke:black; stroke-linecap:round; stroke-width:0.25;"/>
<line x1="238.800000" y1="54.000000" x2="242.800000" y2="54.000000"  style="stroke:black; stroke-linecap:round; stroke-width:0.25;"/>
<line x1="266.800000" y1="50.000000" x2="270.800000" y2="50.000000"  style="stroke:black; stroke-linecap:round; stroke-width:0.25;"/>
<line x1="270.800000" y1="50.000000" x2="278.800000" y2="50.000000"  style="stroke:black; stroke-linecap:round; stroke-width:0.25;"/>
<line x1="278.800000" y1="50.000000" x2="278.800000" y2="76.000000"  style="stroke:black; stroke-linecap:round; stroke-width:0.25;"/>
<line x1="278.800000" y1="76.000000" x2="278.800000" y2="76.000000"  style="stroke:black; stroke-linecap:round; stroke-width:0.25;"/>
<line x1="278.800000" y1="76.000000" x2="304.800000" y2="76.000000"  style="stroke:black; stroke-linecap:round; stroke-width:0.25;"/>
<line x1="304.800000" y1="76.000000" x2="330.800000" y2="76.000000"  style="stroke:black; stroke-linecap:round; stroke-width:0.25;"/>
<line x1="316.800000" y1="46.000000" x2="320.800000" y2="46.000000"  style="stroke:black; stroke-linecap:round; stroke-width:0.25;"/>
<line x1="320.800000" y1="46.000000" x2="330.800000" y2="46.000000"  style="stroke:black; stroke-linecap:round; stroke-width:0.25;"/>
<line x1="330.800000" y1="46.000000" x2="338.800000" y2="46.000000"  style="stroke:black; stroke-linecap:round; stroke-width:0.25;"/>
<line x1="330.800000" y1="54.000000" x2="338.800000" y2="54.000000"  style="stroke:black; stroke-linecap:round; stroke-width:0.25;"/>
<line x1="330.800000" y1="76.000000" x2="330.800000" y2="54.000000"  style="stroke:black; stroke-linecap:round; stroke-width:0.25;"/>
<line x1="330.800000" y1="76.000000" x2="330.800000" y2="76.000000"  style="stroke:black; stroke-linecap:round; stroke-width:0.25;"/>
<line x1="338.800000" y1="46.000000" x2="342.800000" y2="46.000000"  style="stroke:black; stroke-linecap:round; stroke-width:0.25;"/>
<line x1="338.800000" y1="54.000000" x2="342.800000" y2="54.000000"  style="stroke:black; stroke-linecap:round; stroke-width:0.25;"/>
<line x1="366.800000" y1="50.000000" x2="370.800000" y2="50.000000"  style="stroke:black; stroke-linecap:round; stroke-width:0.25;"/>
<line x1="370.800000" y1="50.000000" x2="370.800000" y2="50.000000"  style="stroke:black; stroke-linecap:round; stroke-width:0.25;"/>
<line x1="370.800000" y1="50.000000" x2="374.800000" y2="50.000000"  style="stroke:black; stroke-linecap:round; stroke-width:0.25;"/>
<line x1="374.800000" y1="50.000000" x2="378.800000" y2="50.000000"  style="stroke:black; stroke-linecap:round; stroke-width:0.25;"/>
<line x1="378.800000" y1="50.000000" x2="388.800000" y2="50.000000"  style="stroke:black; stroke-linecap:round; stroke-width:0.25;"/>
</svg>
