<?xml version="1.0"?>
<svg xmlns="http://www.w3.org/2000/svg" xmlns:xlink="http://www.w3.org/1999/xlink" viewBox="0 0 387.700000 104.000000" width="193.850000mm" height="52.000000mm" version="1.1">
<a xlink:href="combApf-0x6000214ae880.svg">
<rect x="0.000000" y="0.000000" width="386.700000" height="103.000000" rx="0" ry="0" style="stroke:#000000;fill:#FFFFFF;"/>
</a>
<text x="10.000000" y="7.000000" font-family="Verdana" font-size="7"></text>
<a xlink:href="movingAverageRMS-0x60000d46ba80.svg">
<rect x="40.000000" y="24.000000" width="103.200000" height="24.000000" rx="0" ry="0" style="stroke:#000000;fill:#FFFFFF;"/>
</a>
<a xlink:href="movingAverageRMS-0x60000d46ba80.svg">
<text x="91.600000" y="38.000000" font-family="Verdana" font-size="7" text-anchor="middle" fill="#000000">movingAverageRMS(0.5f)</text>
</a>
<circle cx="42.000000" cy="26.000000" r="1"/>
<line x1="37.000000" y1="35.000000" x2="40.000000" y2="36.000000"  transform="rotate(0.000000,40.000000,36.000000)" style="stroke: black; stroke-width:0.25;"/>
<line x1="37.000000" y1="37.000000" x2="40.000000" y2="36.000000"  transform="rotate(0.000000,40.000000,36.000000)" style="stroke: black; stroke-width:0.25;"/>
<rect x="79.600000" y="56.000000" width="24.000000" height="24.000000" rx="0" ry="0" style="stroke:#000000;fill:#FFFFFF;"/>
<text x="91.600000" y="70.000000" font-family="Verdana" font-size="7" text-anchor="middle" fill="#000000">10</text>
<circle cx="81.600000" cy="58.000000" r="1"/>
<rect x="159.200000" y="40.000000" width="24.000000" height="24.000000" rx="0" ry="0" style="stroke:#000000;fill:#FFFFFF;"/>
<text x="171.200000" y="54.000000" font-family="Verdana" font-size="7" text-anchor="middle" fill="#000000">*</text>
<circle cx="161.200000" cy="42.000000" r="1"/>
<line x1="156.200000" y1="47.000000" x2="159.200000" y2="48.000000"  transform="rotate(0.000000,159.200000,48.000000)" style="stroke: black; stroke-width:0.25;"/>
<line x1="156.200000" y1="49.000000" x2="159.200000" y2="48.000000"  transform="rotate(0.000000,159.200000,48.000000)" style="stroke: black; stroke-width:0.25;"/>
<line x1="156.200000" y1="55.000000" x2="159.200000" y2="56.000000"  transform="rotate(0.000000,159.200000,56.000000)" style="stroke: black; stroke-width:0.25;"/>
<line x1="156.200000" y1="57.000000" x2="159.200000" y2="56.000000"  transform="rotate(0.000000,159.200000,56.000000)" style="stroke: black; stroke-width:0.25;"/>
<a xlink:href="integrator-0x6000014358c0.svg">
<rect x="191.200000" y="40.000000" width="64.500000" height="24.000000" rx="0" ry="0" style="stroke:#000000;fill:#FFFFFF;"/>
</a>
<a xlink:href="integrator-0x6000014358c0.svg">
<text x="223.450000" y="54.000000" font-family="Verdana" font-size="7" text-anchor="middle" fill="#000000">integrator(1)</text>
</a>
<circle cx="193.200000" cy="42.000000" r="1"/>
<line x1="188.200000" y1="51.000000" x2="191.200000" y2="52.000000"  transform="rotate(0.000000,191.200000,52.000000)" style="stroke: black; stroke-width:0.25;"/>
<line x1="188.200000" y1="53.000000" x2="191.200000" y2="52.000000"  transform="rotate(0.000000,191.200000,52.000000)" style="stroke: black; stroke-width:0.25;"/>
<rect x="281.700000" y="36.000000" width="24.000000" height="24.000000" rx="0" ry="0" style="stroke:#000000;fill:#FFFFFF;"/>
<text x="293.700000" y="50.000000" font-family="Verdana" font-size="7" text-anchor="middle" fill="#000000">1</text>
<circle cx="283.700000" cy="38.000000" r="1"/>
<line x1="272.700000" y1="27.000000" x2="272.700000" y2="69.000000"  style="stroke: black; stroke-linecap:round; stroke-width:0.25; stroke-dasharray:3,3;"/>
<line x1="272.700000" y1="69.000000" x2="314.700000" y2="69.000000"  style="stroke: black; stroke-linecap:round; stroke-width:0.25; stroke-dasharray:3,3;"/>
<line x1="314.700000" y1="69.000000" x2="314.700000" y2="27.000000"  style="stroke: black; stroke-linecap:round; stroke-width:0.25; stroke-dasharray:3,3;"/>
<line x1="272.700000" y1="27.000000" x2="277.700000" y2="27.000000"  style="stroke: black; stroke-linecap:round; stroke-width:0.25; stroke-dasharray:3,3;"/>
<line x1="314.700000" y1="27.000000" x2="314.700000" y2="27.000000"  style="stroke: black; stroke-linecap:round; stroke-width:0.25; stroke-dasharray:3,3;"/>
<text x="277.700000" y="29.000000" font-family="Verdana" font-size="7">signum(90)</text>
<rect x="331.700000" y="40.000000" width="24.000000" height="24.000000" rx="0" ry="0" style="stroke:#000000;fill:#FFFFFF;"/>
<text x="343.700000" y="54.000000" font-family="Verdana" font-size="7" text-anchor="middle" fill="#000000">min</text>
<circle cx="333.700000" cy="42.000000" r="1"/>
<line x1="328.700000" y1="47.000000" x2="331.700000" y2="48.000000"  transform="rotate(0.000000,331.700000,48.000000)" style="stroke: black; stroke-width:0.25;"/>
<line x1="328.700000" y1="49.000000" x2="331.700000" y2="48.000000"  transform="rotate(0.000000,331.700000,48.000000)" style="stroke: black; stroke-width:0.25;"/>
<line x1="328.700000" y1="55.000000" x2="331.700000" y2="56.000000"  transform="rotate(0.000000,331.700000,56.000000)" style="stroke: black; stroke-width:0.25;"/>
<line x1="328.700000" y1="57.000000" x2="331.700000" y2="56.000000"  transform="rotate(0.000000,331.700000,56.000000)" style="stroke: black; stroke-width:0.25;"/>
<line x1="15.000000" y1="15.000000" x2="15.000000" y2="89.000000"  style="stroke: black; stroke-linecap:round; stroke-width:0.25; stroke-dasharray:3,3;"/>
<line x1="15.000000" y1="89.000000" x2="372.700000" y2="89.000000"  style="stroke: black; stroke-linecap:round; stroke-width:0.25; stroke-dasharray:3,3;"/>
<line x1="372.700000" y1="89.000000" x2="372.700000" y2="15.000000"  style="stroke: black; stroke-linecap:round; stroke-width:0.25; stroke-dasharray:3,3;"/>
<line x1="15.000000" y1="15.000000" x2="20.000000" y2="15.000000"  style="stroke: black; stroke-linecap:round; stroke-width:0.25; stroke-dasharray:3,3;"/>
<line x1="55.475000" y1="15.000000" x2="372.700000" y2="15.000000"  style="stroke: black; stroke-linecap:round; stroke-width:0.25; stroke-dasharray:3,3;"/>
<text x="20.000000" y="17.000000" font-family="Verdana" font-size="7">gainReve2</text>
<line x1="374.700000" y1="51.000000" x2="377.700000" y2="52.000000"  transform="rotate(0.000000,377.700000,52.000000)" style="stroke: black; stroke-width:0.25;"/>
<line x1="374.700000" y1="53.000000" x2="377.700000" y2="52.000000"  transform="rotate(0.000000,377.700000,52.000000)" style="stroke: black; stroke-width:0.25;"/>
<line x1="10.000000" y1="52.000000" x2="20.000000" y2="52.000000"  style="stroke:black; stroke-linecap:round; stroke-width:0.25;"/>
<line x1="20.000000" y1="52.000000" x2="24.000000" y2="52.000000"  style="stroke:black; stroke-linecap:round; stroke-width:0.25;"/>
<line x1="24.000000" y1="52.000000" x2="28.000000" y2="52.000000"  style="stroke:black; stroke-linecap:round; stroke-width:0.25;"/>
<line x1="28.000000" y1="36.000000" x2="36.000000" y2="36.000000"  style="stroke:black; stroke-linecap:round; stroke-width:0.25;"/>
<line x1="28.000000" y1="52.000000" x2="28.000000" y2="36.000000"  style="stroke:black; stroke-linecap:round; stroke-width:0.25;"/>
<line x1="28.000000" y1="52.000000" x2="28.000000" y2="52.000000"  style="stroke:black; stroke-linecap:round; stroke-width:0.25;"/>
<line x1="36.000000" y1="36.000000" x2="40.000000" y2="36.000000"  style="stroke:black; stroke-linecap:round; stroke-width:0.25;"/>
<line x1="103.600000" y1="68.000000" x2="107.600000" y2="68.000000"  style="stroke:black; stroke-linecap:round; stroke-width:0.25;"/>
<line x1="107.600000" y1="68.000000" x2="147.200000" y2="68.000000"  style="stroke:black; stroke-linecap:round; stroke-width:0.25;"/>
<line x1="143.200000" y1="36.000000" x2="147.200000" y2="36.000000"  style="stroke:black; stroke-linecap:round; stroke-width:0.25;"/>
<line x1="147.200000" y1="36.000000" x2="155.200000" y2="36.000000"  style="stroke:black; stroke-linecap:round; stroke-width:0.25;"/>
<line x1="147.200000" y1="56.000000" x2="155.200000" y2="56.000000"  style="stroke:black; stroke-linecap:round; stroke-width:0.25;"/>
<line x1="147.200000" y1="68.000000" x2="147.200000" y2="56.000000"  style="stroke:black; stroke-linecap:round; stroke-width:0.25;"/>
<line x1="147.200000" y1="68.000000" x2="147.200000" y2="68.000000"  style="stroke:black; stroke-linecap:round; stroke-width:0.25;"/>
<line x1="155.200000" y1="36.000000" x2="155.200000" y2="48.000000"  style="stroke:black; stroke-linecap:round; stroke-width:0.25;"/>
<line x1="155.200000" y1="48.000000" x2="155.200000" y2="48.000000"  style="stroke:black; stroke-linecap:round; stroke-width:0.25;"/>
<line x1="155.200000" y1="48.000000" x2="159.200000" y2="48.000000"  style="stroke:black; stroke-linecap:round; stroke-width:0.25;"/>
<line x1="155.200000" y1="56.000000" x2="159.200000" y2="56.000000"  style="stroke:black; stroke-linecap:round; stroke-width:0.25;"/>
<line x1="183.200000" y1="52.000000" x2="187.200000" y2="52.000000"  style="stroke:black; stroke-linecap:round; stroke-width:0.25;"/>
<line x1="187.200000" y1="52.000000" x2="187.200000" y2="52.000000"  style="stroke:black; stroke-linecap:round; stroke-width:0.25;"/>
<line x1="187.200000" y1="52.000000" x2="191.200000" y2="52.000000"  style="stroke:black; stroke-linecap:round; stroke-width:0.25;"/>
<line x1="255.700000" y1="52.000000" x2="259.700000" y2="52.000000"  style="stroke:black; stroke-linecap:round; stroke-width:0.25;"/>
<line x1="259.700000" y1="52.000000" x2="267.700000" y2="52.000000"  style="stroke:black; stroke-linecap:round; stroke-width:0.25;"/>
<line x1="267.700000" y1="52.000000" x2="267.700000" y2="78.000000"  style="stroke:black; stroke-linecap:round; stroke-width:0.25;"/>
<line x1="267.700000" y1="78.000000" x2="267.700000" y2="78.000000"  style="stroke:black; stroke-linecap:round; stroke-width:0.25;"/>
<line x1="267.700000" y1="78.000000" x2="293.700000" y2="78.000000"  style="stroke:black; stroke-linecap:round; stroke-width:0.25;"/>
<line x1="293.700000" y1="78.000000" x2="319.700000" y2="78.000000"  style="stroke:black; stroke-linecap:round; stroke-width:0.25;"/>
<line x1="305.700000" y1="48.000000" x2="309.700000" y2="48.000000"  style="stroke:black; stroke-linecap:round; stroke-width:0.25;"/>
<line x1="309.700000" y1="48.000000" x2="319.700000" y2="48.000000"  style="stroke:black; stroke-linecap:round; stroke-width:0.25;"/>
<line x1="319.700000" y1="48.000000" x2="327.700000" y2="48.000000"  style="stroke:black; stroke-linecap:round; stroke-width:0.25;"/>
<line x1="319.700000" y1="56.000000" x2="327.700000" y2="56.000000"  style="stroke:black; stroke-linecap:round; stroke-width:0.25;"/>
<line x1="319.700000" y1="78.000000" x2="319.700000" y2="56.000000"  style="stroke:black; stroke-linecap:round; stroke-width:0.25;"/>
<line x1="319.700000" y1="78.000000" x2="319.700000" y2="78.000000"  style="stroke:black; stroke-linecap:round; stroke-width:0.25;"/>
<line x1="327.700000" y1="48.000000" x2="331.700000" y2="48.000000"  style="stroke:black; stroke-linecap:round; stroke-width:0.25;"/>
<line x1="327.700000" y1="56.000000" x2="331.700000" y2="56.000000"  style="stroke:black; stroke-linecap:round; stroke-width:0.25;"/>
<line x1="355.700000" y1="52.000000" x2="359.700000" y2="52.000000"  style="stroke:black; stroke-linecap:round; stroke-width:0.25;"/>
<line x1="359.700000" y1="52.000000" x2="359.700000" y2="52.000000"  style="stroke:black; stroke-linecap:round; stroke-width:0.25;"/>
<line x1="359.700000" y1="52.000000" x2="363.700000" y2="52.000000"  style="stroke:black; stroke-linecap:round; stroke-width:0.25;"/>
<line x1="363.700000" y1="52.000000" x2="367.700000" y2="52.000000"  style="stroke:black; stroke-linecap:round; stroke-width:0.25;"/>
<line x1="367.700000" y1="52.000000" x2="377.700000" y2="52.000000"  style="stroke:black; stroke-linecap:round; stroke-width:0.25;"/>
</svg>
