<?xml version="1.0"?>
<svg xmlns="http://www.w3.org/2000/svg" xmlns:xlink="http://www.w3.org/1999/xlink" viewBox="0 0 220.000000 220.000000" width="110.000000mm" height="110.000000mm" version="1.1">
<a xlink:href="dflcVARfir-0x6000214ae490.svg">
<rect x="0.000000" y="0.000000" width="219.000000" height="219.000000" rx="0" ry="0" style="stroke:#000000;fill:#FFFFFF;"/>
</a>
<text x="10.000000" y="7.000000" font-family="Verdana" font-size="7"></text>
<rect x="74.000000" y="24.000000" width="24.000000" height="24.000000" rx="0" ry="0" style="stroke:#000000;fill:#FFFFFF;"/>
<text x="86.000000" y="38.000000" font-family="Verdana" font-size="7" text-anchor="middle" fill="#000000">10</text>
<circle cx="76.000000" cy="26.000000" r="1"/>
<rect x="34.000000" y="56.000000" width="24.000000" height="24.000000" rx="0" ry="0" style="stroke:#000000;fill:#FFFFFF;"/>
<text x="46.000000" y="70.000000" font-family="Verdana" font-size="7" text-anchor="middle" fill="#000000">-3</text>
<circle cx="36.000000" cy="58.000000" r="1"/>
<a xlink:href="t4-0x6000054e03f0.svg">
<rect x="34.000000" y="88.000000" width="24.000000" height="24.000000" rx="0" ry="0" style="stroke:#000000;fill:#FFFFFF;"/>
</a>
<a xlink:href="t4-0x6000054e03f0.svg">
<text x="46.000000" y="102.000000" font-family="Verdana" font-size="7" text-anchor="middle" fill="#000000">t4</text>
</a>
<circle cx="36.000000" cy="90.000000" r="1"/>
<rect x="74.000000" y="72.000000" width="24.000000" height="24.000000" rx="0" ry="0" style="stroke:#000000;fill:#FFFFFF;"/>
<text x="86.000000" y="86.000000" font-family="Verdana" font-size="7" text-anchor="middle" fill="#000000">*</text>
<circle cx="76.000000" cy="74.000000" r="1"/>
<line x1="71.000000" y1="79.000000" x2="74.000000" y2="80.000000"  transform="rotate(0.000000,74.000000,80.000000)" style="stroke: black; stroke-width:0.25;"/>
<line x1="71.000000" y1="81.000000" x2="74.000000" y2="80.000000"  transform="rotate(0.000000,74.000000,80.000000)" style="stroke: black; stroke-width:0.25;"/>
<line x1="71.000000" y1="87.000000" x2="74.000000" y2="88.000000"  transform="rotate(0.000000,74.000000,88.000000)" style="stroke: black; stroke-width:0.25;"/>
<line x1="71.000000" y1="89.000000" x2="74.000000" y2="88.000000"  transform="rotate(0.000000,74.000000,88.000000)" style="stroke: black; stroke-width:0.25;"/>
<rect x="34.000000" y="130.000000" width="24.000000" height="24.000000" rx="0" ry="0" style="stroke:#000000;fill:#FFFFFF;"/>
<text x="46.000000" y="144.000000" font-family="Verdana" font-size="7" text-anchor="middle" fill="#000000">6</text>
<circle cx="36.000000" cy="132.000000" r="1"/>
<line x1="25.000000" y1="121.000000" x2="25.000000" y2="163.000000"  style="stroke: black; stroke-linecap:round; stroke-width:0.25; stroke-dasharray:3,3;"/>
<line x1="25.000000" y1="163.000000" x2="67.000000" y2="163.000000"  style="stroke: black; stroke-linecap:round; stroke-width:0.25; stroke-dasharray:3,3;"/>
<line x1="67.000000" y1="163.000000" x2="67.000000" y2="121.000000"  style="stroke: black; stroke-linecap:round; stroke-width:0.25; stroke-dasharray:3,3;"/>
<line x1="25.000000" y1="121.000000" x2="30.000000" y2="121.000000"  style="stroke: black; stroke-linecap:round; stroke-width:0.25; stroke-dasharray:3,3;"/>
<line x1="39.675000" y1="121.000000" x2="67.000000" y2="121.000000"  style="stroke: black; stroke-linecap:round; stroke-width:0.25; stroke-dasharray:3,3;"/>
<text x="30.000000" y="123.000000" font-family="Verdana" font-size="7">T</text>
<a xlink:href="SR-0x6000017c2e20.svg">
<rect x="34.000000" y="172.000000" width="24.000000" height="24.000000" rx="0" ry="0" style="stroke:#000000;fill:#FFFFFF;"/>
</a>
<a xlink:href="SR-0x6000017c2e20.svg">
<text x="46.000000" y="186.000000" font-family="Verdana" font-size="7" text-anchor="middle" fill="#000000">SR</text>
</a>
<circle cx="36.000000" cy="174.000000" r="1"/>
<rect x="84.000000" y="146.000000" width="24.000000" height="24.000000" rx="0" ry="0" style="stroke:#000000;fill:#FFFFFF;"/>
<text x="96.000000" y="160.000000" font-family="Verdana" font-size="7" text-anchor="middle" fill="#000000">*</text>
<circle cx="86.000000" cy="148.000000" r="1"/>
<line x1="81.000000" y1="153.000000" x2="84.000000" y2="154.000000"  transform="rotate(0.000000,84.000000,154.000000)" style="stroke: black; stroke-width:0.25;"/>
<line x1="81.000000" y1="155.000000" x2="84.000000" y2="154.000000"  transform="rotate(0.000000,84.000000,154.000000)" style="stroke: black; stroke-width:0.25;"/>
<line x1="81.000000" y1="161.000000" x2="84.000000" y2="162.000000"  transform="rotate(0.000000,84.000000,162.000000)" style="stroke: black; stroke-width:0.25;"/>
<line x1="81.000000" y1="163.000000" x2="84.000000" y2="162.000000"  transform="rotate(0.000000,84.000000,162.000000)" style="stroke: black; stroke-width:0.25;"/>
<rect x="124.000000" y="114.000000" width="24.000000" height="24.000000" rx="0" ry="0" style="stroke:#000000;fill:#FFFFFF;"/>
<text x="136.000000" y="128.000000" font-family="Verdana" font-size="7" text-anchor="middle" fill="#000000">/</text>
<circle cx="126.000000" cy="116.000000" r="1"/>
<line x1="121.000000" y1="121.000000" x2="124.000000" y2="122.000000"  transform="rotate(0.000000,124.000000,122.000000)" style="stroke: black; stroke-width:0.25;"/>
<line x1="121.000000" y1="123.000000" x2="124.000000" y2="122.000000"  transform="rotate(0.000000,124.000000,122.000000)" style="stroke: black; stroke-width:0.25;"/>
<line x1="121.000000" y1="129.000000" x2="124.000000" y2="130.000000"  transform="rotate(0.000000,124.000000,130.000000)" style="stroke: black; stroke-width:0.25;"/>
<line x1="121.000000" y1="131.000000" x2="124.000000" y2="130.000000"  transform="rotate(0.000000,124.000000,130.000000)" style="stroke: black; stroke-width:0.25;"/>
<rect x="164.000000" y="98.000000" width="24.000000" height="24.000000" rx="0" ry="0" style="stroke:#000000;fill:#FFFFFF;"/>
<text x="176.000000" y="112.000000" font-family="Verdana" font-size="7" text-anchor="middle" fill="#000000">pow</text>
<circle cx="166.000000" cy="100.000000" r="1"/>
<line x1="161.000000" y1="105.000000" x2="164.000000" y2="106.000000"  transform="rotate(0.000000,164.000000,106.000000)" style="stroke: black; stroke-width:0.25;"/>
<line x1="161.000000" y1="107.000000" x2="164.000000" y2="106.000000"  transform="rotate(0.000000,164.000000,106.000000)" style="stroke: black; stroke-width:0.25;"/>
<line x1="161.000000" y1="113.000000" x2="164.000000" y2="114.000000"  transform="rotate(0.000000,164.000000,114.000000)" style="stroke: black; stroke-width:0.25;"/>
<line x1="161.000000" y1="115.000000" x2="164.000000" y2="114.000000"  transform="rotate(0.000000,164.000000,114.000000)" style="stroke: black; stroke-width:0.25;"/>
<line x1="15.000000" y1="15.000000" x2="15.000000" y2="205.000000"  style="stroke: black; stroke-linecap:round; stroke-width:0.25; stroke-dasharray:3,3;"/>
<line x1="15.000000" y1="205.000000" x2="205.000000" y2="205.000000"  style="stroke: black; stroke-linecap:round; stroke-width:0.25; stroke-dasharray:3,3;"/>
<line x1="205.000000" y1="205.000000" x2="205.000000" y2="15.000000"  style="stroke: black; stroke-linecap:round; stroke-width:0.25; stroke-dasharray:3,3;"/>
<line x1="15.000000" y1="15.000000" x2="20.000000" y2="15.000000"  style="stroke: black; stroke-linecap:round; stroke-width:0.25; stroke-dasharray:3,3;"/>
<line x1="119.975000" y1="15.000000" x2="205.000000" y2="15.000000"  style="stroke: black; stroke-linecap:round; stroke-width:0.25; stroke-dasharray:3,3;"/>
<text x="20.000000" y="17.000000" font-family="Verdana" font-size="7">gNth(0.0424f,... : 3,_ : min)</text>
<line x1="207.000000" y1="109.000000" x2="210.000000" y2="110.000000"  transform="rotate(0.000000,210.000000,110.000000)" style="stroke: black; stroke-width:0.25;"/>
<line x1="207.000000" y1="111.000000" x2="210.000000" y2="110.000000"  transform="rotate(0.000000,210.000000,110.000000)" style="stroke: black; stroke-width:0.25;"/>
<line x1="58.000000" y1="68.000000" x2="62.000000" y2="68.000000"  style="stroke:black; stroke-linecap:round; stroke-width:0.25;"/>
<line x1="58.000000" y1="100.000000" x2="62.000000" y2="100.000000"  style="stroke:black; stroke-linecap:round; stroke-width:0.25;"/>
<line x1="58.000000" y1="142.000000" x2="62.000000" y2="142.000000"  style="stroke:black; stroke-linecap:round; stroke-width:0.25;"/>
<line x1="58.000000" y1="184.000000" x2="62.000000" y2="184.000000"  style="stroke:black; stroke-linecap:round; stroke-width:0.25;"/>
<line x1="62.000000" y1="68.000000" x2="70.000000" y2="68.000000"  style="stroke:black; stroke-linecap:round; stroke-width:0.25;"/>
<line x1="62.000000" y1="88.000000" x2="70.000000" y2="88.000000"  style="stroke:black; stroke-linecap:round; stroke-width:0.25;"/>
<line x1="62.000000" y1="100.000000" x2="62.000000" y2="88.000000"  style="stroke:black; stroke-linecap:round; stroke-width:0.25;"/>
<line x1="62.000000" y1="100.000000" x2="62.000000" y2="100.000000"  style="stroke:black; stroke-linecap:round; stroke-width:0.25;"/>
<line x1="62.000000" y1="142.000000" x2="72.000000" y2="142.000000"  style="stroke:black; stroke-linecap:round; stroke-width:0.25;"/>
<line x1="62.000000" y1="184.000000" x2="72.000000" y2="184.000000"  style="stroke:black; stroke-linecap:round; stroke-width:0.25;"/>
<line x1="70.000000" y1="68.000000" x2="70.000000" y2="80.000000"  style="stroke:black; stroke-linecap:round; stroke-width:0.25;"/>
<line x1="70.000000" y1="80.000000" x2="70.000000" y2="80.000000"  style="stroke:black; stroke-linecap:round; stroke-width:0.25;"/>
<line x1="70.000000" y1="80.000000" x2="74.000000" y2="80.000000"  style="stroke:black; stroke-linecap:round; stroke-width:0.25;"/>
<line x1="70.000000" y1="88.000000" x2="74.000000" y2="88.000000"  style="stroke:black; stroke-linecap:round; stroke-width:0.25;"/>
<line x1="72.000000" y1="142.000000" x2="80.000000" y2="142.000000"  style="stroke:black; stroke-linecap:round; stroke-width:0.25;"/>
<line x1="72.000000" y1="162.000000" x2="80.000000" y2="162.000000"  style="stroke:black; stroke-linecap:round; stroke-width:0.25;"/>
<line x1="72.000000" y1="184.000000" x2="72.000000" y2="162.000000"  style="stroke:black; stroke-linecap:round; stroke-width:0.25;"/>
<line x1="72.000000" y1="184.000000" x2="72.000000" y2="184.000000"  style="stroke:black; stroke-linecap:round; stroke-width:0.25;"/>
<line x1="80.000000" y1="142.000000" x2="80.000000" y2="154.000000"  style="stroke:black; stroke-linecap:round; stroke-width:0.25;"/>
<line x1="80.000000" y1="154.000000" x2="80.000000" y2="154.000000"  style="stroke:black; stroke-linecap:round; stroke-width:0.25;"/>
<line x1="80.000000" y1="154.000000" x2="84.000000" y2="154.000000"  style="stroke:black; stroke-linecap:round; stroke-width:0.25;"/>
<line x1="80.000000" y1="162.000000" x2="84.000000" y2="162.000000"  style="stroke:black; stroke-linecap:round; stroke-width:0.25;"/>
<line x1="98.000000" y1="36.000000" x2="102.000000" y2="36.000000"  style="stroke:black; stroke-linecap:round; stroke-width:0.25;"/>
<line x1="98.000000" y1="84.000000" x2="102.000000" y2="84.000000"  style="stroke:black; stroke-linecap:round; stroke-width:0.25;"/>
<line x1="102.000000" y1="36.000000" x2="152.000000" y2="36.000000"  style="stroke:black; stroke-linecap:round; stroke-width:0.25;"/>
<line x1="102.000000" y1="84.000000" x2="112.000000" y2="84.000000"  style="stroke:black; stroke-linecap:round; stroke-width:0.25;"/>
<line x1="108.000000" y1="158.000000" x2="112.000000" y2="158.000000"  style="stroke:black; stroke-linecap:round; stroke-width:0.25;"/>
<line x1="112.000000" y1="84.000000" x2="120.000000" y2="84.000000"  style="stroke:black; stroke-linecap:round; stroke-width:0.25;"/>
<line x1="112.000000" y1="130.000000" x2="120.000000" y2="130.000000"  style="stroke:black; stroke-linecap:round; stroke-width:0.25;"/>
<line x1="112.000000" y1="158.000000" x2="112.000000" y2="130.000000"  style="stroke:black; stroke-linecap:round; stroke-width:0.25;"/>
<line x1="112.000000" y1="158.000000" x2="112.000000" y2="158.000000"  style="stroke:black; stroke-linecap:round; stroke-width:0.25;"/>
<line x1="120.000000" y1="84.000000" x2="120.000000" y2="122.000000"  style="stroke:black; stroke-linecap:round; stroke-width:0.25;"/>
<line x1="120.000000" y1="122.000000" x2="120.000000" y2="122.000000"  style="stroke:black; stroke-linecap:round; stroke-width:0.25;"/>
<line x1="120.000000" y1="122.000000" x2="124.000000" y2="122.000000"  style="stroke:black; stroke-linecap:round; stroke-width:0.25;"/>
<line x1="120.000000" y1="130.000000" x2="124.000000" y2="130.000000"  style="stroke:black; stroke-linecap:round; stroke-width:0.25;"/>
<line x1="148.000000" y1="126.000000" x2="152.000000" y2="126.000000"  style="stroke:black; stroke-linecap:round; stroke-width:0.25;"/>
<line x1="152.000000" y1="36.000000" x2="160.000000" y2="36.000000"  style="stroke:black; stroke-linecap:round; stroke-width:0.25;"/>
<line x1="152.000000" y1="114.000000" x2="160.000000" y2="114.000000"  style="stroke:black; stroke-linecap:round; stroke-width:0.25;"/>
<line x1="152.000000" y1="126.000000" x2="152.000000" y2="114.000000"  style="stroke:black; stroke-linecap:round; stroke-width:0.25;"/>
<line x1="152.000000" y1="126.000000" x2="152.000000" y2="126.000000"  style="stroke:black; stroke-linecap:round; stroke-width:0.25;"/>
<line x1="160.000000" y1="36.000000" x2="160.000000" y2="106.000000"  style="stroke:black; stroke-linecap:round; stroke-width:0.25;"/>
<line x1="160.000000" y1="106.000000" x2="160.000000" y2="106.000000"  style="stroke:black; stroke-linecap:round; stroke-width:0.25;"/>
<line x1="160.000000" y1="106.000000" x2="164.000000" y2="106.000000"  style="stroke:black; stroke-linecap:round; stroke-width:0.25;"/>
<line x1="160.000000" y1="114.000000" x2="164.000000" y2="114.000000"  style="stroke:black; stroke-linecap:round; stroke-width:0.25;"/>
<line x1="188.000000" y1="110.000000" x2="192.000000" y2="110.000000"  style="stroke:black; stroke-linecap:round; stroke-width:0.25;"/>
<line x1="192.000000" y1="110.000000" x2="192.000000" y2="110.000000"  style="stroke:black; stroke-linecap:round; stroke-width:0.25;"/>
<line x1="192.000000" y1="110.000000" x2="196.000000" y2="110.000000"  style="stroke:black; stroke-linecap:round; stroke-width:0.25;"/>
<line x1="196.000000" y1="110.000000" x2="200.000000" y2="110.000000"  style="stroke:black; stroke-linecap:round; stroke-width:0.25;"/>
<line x1="200.000000" y1="110.000000" x2="210.000000" y2="110.000000"  style="stroke:black; stroke-linecap:round; stroke-width:0.25;"/>
</svg>
