<?xml version="1.0"?>
<svg xmlns="http://www.w3.org/2000/svg" xmlns:xlink="http://www.w3.org/1999/xlink" viewBox="0 0 254.700000 200.000000" width="127.350000mm" height="100.000000mm" version="1.1">
<a xlink:href="v1-0x6000056e57a0.svg">
<rect x="0.000000" y="0.000000" width="253.700000" height="199.000000" rx="0" ry="0" style="stroke:#000000;fill:#FFFFFF;"/>
</a>
<text x="10.000000" y="7.000000" font-family="Verdana" font-size="7"></text>
<rect x="50.450000" y="24.000000" width="25.800000" height="24.000000" rx="0" ry="0" style="stroke:#000000;fill:#FFFFFF;"/>
<text x="63.350000" y="38.000000" font-family="Verdana" font-size="7" text-anchor="middle" fill="#000000">[25] x</text>
<circle cx="52.450000" cy="26.000000" r="1"/>
<rect x="24.000000" y="56.000000" width="38.700000" height="24.000000" rx="0" ry="0" style="stroke:#000000;fill:#FFFFFF;"/>
<text x="43.350000" y="70.000000" font-family="Verdana" font-size="7" text-anchor="middle" fill="#000000">[26] s1</text>
<circle cx="26.000000" cy="58.000000" r="1"/>
<a xlink:href="G2-0x6000056e2be0.svg">
<rect x="31.350000" y="88.000000" width="24.000000" height="24.000000" rx="0" ry="0" style="stroke:#000000;fill:#FFFFFF;"/>
</a>
<a xlink:href="G2-0x6000056e2be0.svg">
<text x="43.350000" y="102.000000" font-family="Verdana" font-size="7" text-anchor="middle" fill="#000000">G2</text>
</a>
<circle cx="33.350000" cy="90.000000" r="1"/>
<rect x="78.700000" y="72.000000" width="24.000000" height="24.000000" rx="0" ry="0" style="stroke:#000000;fill:#FFFFFF;"/>
<text x="90.700000" y="86.000000" font-family="Verdana" font-size="7" text-anchor="middle" fill="#000000">*</text>
<circle cx="80.700000" cy="74.000000" r="1"/>
<line x1="75.700000" y1="79.000000" x2="78.700000" y2="80.000000"  transform="rotate(0.000000,78.700000,80.000000)" style="stroke: black; stroke-width:0.25;"/>
<line x1="75.700000" y1="81.000000" x2="78.700000" y2="80.000000"  transform="rotate(0.000000,78.700000,80.000000)" style="stroke: black; stroke-width:0.25;"/>
<line x1="75.700000" y1="87.000000" x2="78.700000" y2="88.000000"  transform="rotate(0.000000,78.700000,88.000000)" style="stroke: black; stroke-width:0.25;"/>
<line x1="75.700000" y1="89.000000" x2="78.700000" y2="88.000000"  transform="rotate(0.000000,78.700000,88.000000)" style="stroke: black; stroke-width:0.25;"/>
<rect x="118.700000" y="56.000000" width="24.000000" height="24.000000" rx="0" ry="0" style="stroke:#000000;fill:#FFFFFF;"/>
<text x="130.700000" y="70.000000" font-family="Verdana" font-size="7" text-anchor="middle" fill="#000000">-</text>
<circle cx="120.700000" cy="58.000000" r="1"/>
<line x1="115.700000" y1="63.000000" x2="118.700000" y2="64.000000"  transform="rotate(0.000000,118.700000,64.000000)" style="stroke: black; stroke-width:0.25;"/>
<line x1="115.700000" y1="65.000000" x2="118.700000" y2="64.000000"  transform="rotate(0.000000,118.700000,64.000000)" style="stroke: black; stroke-width:0.25;"/>
<line x1="115.700000" y1="71.000000" x2="118.700000" y2="72.000000"  transform="rotate(0.000000,118.700000,72.000000)" style="stroke: black; stroke-width:0.25;"/>
<line x1="115.700000" y1="73.000000" x2="118.700000" y2="72.000000"  transform="rotate(0.000000,118.700000,72.000000)" style="stroke: black; stroke-width:0.25;"/>
<rect x="64.000000" y="120.000000" width="38.700000" height="24.000000" rx="0" ry="0" style="stroke:#000000;fill:#FFFFFF;"/>
<text x="83.350000" y="134.000000" font-family="Verdana" font-size="7" text-anchor="middle" fill="#000000">[27] s2</text>
<circle cx="66.000000" cy="122.000000" r="1"/>
<rect x="158.700000" y="72.000000" width="24.000000" height="24.000000" rx="0" ry="0" style="stroke:#000000;fill:#FFFFFF;"/>
<text x="170.700000" y="86.000000" font-family="Verdana" font-size="7" text-anchor="middle" fill="#000000">-</text>
<circle cx="160.700000" cy="74.000000" r="1"/>
<line x1="155.700000" y1="79.000000" x2="158.700000" y2="80.000000"  transform="rotate(0.000000,158.700000,80.000000)" style="stroke: black; stroke-width:0.25;"/>
<line x1="155.700000" y1="81.000000" x2="158.700000" y2="80.000000"  transform="rotate(0.000000,158.700000,80.000000)" style="stroke: black; stroke-width:0.25;"/>
<line x1="155.700000" y1="87.000000" x2="158.700000" y2="88.000000"  transform="rotate(0.000000,158.700000,88.000000)" style="stroke: black; stroke-width:0.25;"/>
<line x1="155.700000" y1="89.000000" x2="158.700000" y2="88.000000"  transform="rotate(0.000000,158.700000,88.000000)" style="stroke: black; stroke-width:0.25;"/>
<a xlink:href="G1-0x6000056e4e10.svg">
<rect x="91.350000" y="152.000000" width="24.000000" height="24.000000" rx="0" ry="0" style="stroke:#000000;fill:#FFFFFF;"/>
</a>
<a xlink:href="G1-0x6000056e4e10.svg">
<text x="103.350000" y="166.000000" font-family="Verdana" font-size="7" text-anchor="middle" fill="#000000">G1</text>
</a>
<circle cx="93.350000" cy="154.000000" r="1"/>
<rect x="198.700000" y="88.000000" width="24.000000" height="24.000000" rx="0" ry="0" style="stroke:#000000;fill:#FFFFFF;"/>
<text x="210.700000" y="102.000000" font-family="Verdana" font-size="7" text-anchor="middle" fill="#000000">*</text>
<circle cx="200.700000" cy="90.000000" r="1"/>
<line x1="195.700000" y1="95.000000" x2="198.700000" y2="96.000000"  transform="rotate(0.000000,198.700000,96.000000)" style="stroke: black; stroke-width:0.25;"/>
<line x1="195.700000" y1="97.000000" x2="198.700000" y2="96.000000"  transform="rotate(0.000000,198.700000,96.000000)" style="stroke: black; stroke-width:0.25;"/>
<line x1="195.700000" y1="103.000000" x2="198.700000" y2="104.000000"  transform="rotate(0.000000,198.700000,104.000000)" style="stroke: black; stroke-width:0.25;"/>
<line x1="195.700000" y1="105.000000" x2="198.700000" y2="104.000000"  transform="rotate(0.000000,198.700000,104.000000)" style="stroke: black; stroke-width:0.25;"/>
<line x1="15.000000" y1="15.000000" x2="15.000000" y2="185.000000"  style="stroke: black; stroke-linecap:round; stroke-width:0.25; stroke-dasharray:3,3;"/>
<line x1="15.000000" y1="185.000000" x2="239.700000" y2="185.000000"  style="stroke: black; stroke-linecap:round; stroke-width:0.25; stroke-dasharray:3,3;"/>
<line x1="239.700000" y1="185.000000" x2="239.700000" y2="15.000000"  style="stroke: black; stroke-linecap:round; stroke-width:0.25; stroke-dasharray:3,3;"/>
<line x1="15.000000" y1="15.000000" x2="20.000000" y2="15.000000"  style="stroke: black; stroke-linecap:round; stroke-width:0.25; stroke-dasharray:3,3;"/>
<line x1="32.900000" y1="15.000000" x2="239.700000" y2="15.000000"  style="stroke: black; stroke-linecap:round; stroke-width:0.25; stroke-dasharray:3,3;"/>
<text x="20.000000" y="17.000000" font-family="Verdana" font-size="7">hp</text>
<line x1="241.700000" y1="99.000000" x2="244.700000" y2="100.000000"  transform="rotate(0.000000,244.700000,100.000000)" style="stroke: black; stroke-width:0.25;"/>
<line x1="241.700000" y1="101.000000" x2="244.700000" y2="100.000000"  transform="rotate(0.000000,244.700000,100.000000)" style="stroke: black; stroke-width:0.25;"/>
<line x1="55.350000" y1="100.000000" x2="59.350000" y2="100.000000"  style="stroke:black; stroke-linecap:round; stroke-width:0.25;"/>
<line x1="59.350000" y1="100.000000" x2="66.700000" y2="100.000000"  style="stroke:black; stroke-linecap:round; stroke-width:0.25;"/>
<line x1="62.700000" y1="68.000000" x2="66.700000" y2="68.000000"  style="stroke:black; stroke-linecap:round; stroke-width:0.25;"/>
<line x1="66.700000" y1="68.000000" x2="74.700000" y2="68.000000"  style="stroke:black; stroke-linecap:round; stroke-width:0.25;"/>
<line x1="66.700000" y1="88.000000" x2="74.700000" y2="88.000000"  style="stroke:black; stroke-linecap:round; stroke-width:0.25;"/>
<line x1="66.700000" y1="100.000000" x2="66.700000" y2="88.000000"  style="stroke:black; stroke-linecap:round; stroke-width:0.25;"/>
<line x1="66.700000" y1="100.000000" x2="66.700000" y2="100.000000"  style="stroke:black; stroke-linecap:round; stroke-width:0.25;"/>
<line x1="74.700000" y1="68.000000" x2="74.700000" y2="80.000000"  style="stroke:black; stroke-linecap:round; stroke-width:0.25;"/>
<line x1="74.700000" y1="80.000000" x2="74.700000" y2="80.000000"  style="stroke:black; stroke-linecap:round; stroke-width:0.25;"/>
<line x1="74.700000" y1="80.000000" x2="78.700000" y2="80.000000"  style="stroke:black; stroke-linecap:round; stroke-width:0.25;"/>
<line x1="74.700000" y1="88.000000" x2="78.700000" y2="88.000000"  style="stroke:black; stroke-linecap:round; stroke-width:0.25;"/>
<line x1="76.250000" y1="36.000000" x2="80.250000" y2="36.000000"  style="stroke:black; stroke-linecap:round; stroke-width:0.25;"/>
<line x1="80.250000" y1="36.000000" x2="106.700000" y2="36.000000"  style="stroke:black; stroke-linecap:round; stroke-width:0.25;"/>
<line x1="102.700000" y1="84.000000" x2="106.700000" y2="84.000000"  style="stroke:black; stroke-linecap:round; stroke-width:0.25;"/>
<line x1="102.700000" y1="132.000000" x2="106.700000" y2="132.000000"  style="stroke:black; stroke-linecap:round; stroke-width:0.25;"/>
<line x1="106.700000" y1="36.000000" x2="114.700000" y2="36.000000"  style="stroke:black; stroke-linecap:round; stroke-width:0.25;"/>
<line x1="106.700000" y1="72.000000" x2="114.700000" y2="72.000000"  style="stroke:black; stroke-linecap:round; stroke-width:0.25;"/>
<line x1="106.700000" y1="84.000000" x2="106.700000" y2="72.000000"  style="stroke:black; stroke-linecap:round; stroke-width:0.25;"/>
<line x1="106.700000" y1="84.000000" x2="106.700000" y2="84.000000"  style="stroke:black; stroke-linecap:round; stroke-width:0.25;"/>
<line x1="106.700000" y1="132.000000" x2="146.700000" y2="132.000000"  style="stroke:black; stroke-linecap:round; stroke-width:0.25;"/>
<line x1="114.700000" y1="36.000000" x2="114.700000" y2="64.000000"  style="stroke:black; stroke-linecap:round; stroke-width:0.25;"/>
<line x1="114.700000" y1="64.000000" x2="114.700000" y2="64.000000"  style="stroke:black; stroke-linecap:round; stroke-width:0.25;"/>
<line x1="114.700000" y1="64.000000" x2="118.700000" y2="64.000000"  style="stroke:black; stroke-linecap:round; stroke-width:0.25;"/>
<line x1="114.700000" y1="72.000000" x2="118.700000" y2="72.000000"  style="stroke:black; stroke-linecap:round; stroke-width:0.25;"/>
<line x1="115.350000" y1="164.000000" x2="119.350000" y2="164.000000"  style="stroke:black; stroke-linecap:round; stroke-width:0.25;"/>
<line x1="119.350000" y1="164.000000" x2="186.700000" y2="164.000000"  style="stroke:black; stroke-linecap:round; stroke-width:0.25;"/>
<line x1="142.700000" y1="68.000000" x2="146.700000" y2="68.000000"  style="stroke:black; stroke-linecap:round; stroke-width:0.25;"/>
<line x1="146.700000" y1="68.000000" x2="154.700000" y2="68.000000"  style="stroke:black; stroke-linecap:round; stroke-width:0.25;"/>
<line x1="146.700000" y1="88.000000" x2="154.700000" y2="88.000000"  style="stroke:black; stroke-linecap:round; stroke-width:0.25;"/>
<line x1="146.700000" y1="132.000000" x2="146.700000" y2="88.000000"  style="stroke:black; stroke-linecap:round; stroke-width:0.25;"/>
<line x1="146.700000" y1="132.000000" x2="146.700000" y2="132.000000"  style="stroke:black; stroke-linecap:round; stroke-width:0.25;"/>
<line x1="154.700000" y1="68.000000" x2="154.700000" y2="80.000000"  style="stroke:black; stroke-linecap:round; stroke-width:0.25;"/>
<line x1="154.700000" y1="80.000000" x2="154.700000" y2="80.000000"  style="stroke:black; stroke-linecap:round; stroke-width:0.25;"/>
<line x1="154.700000" y1="80.000000" x2="158.700000" y2="80.000000"  style="stroke:black; stroke-linecap:round; stroke-width:0.25;"/>
<line x1="154.700000" y1="88.000000" x2="158.700000" y2="88.000000"  style="stroke:black; stroke-linecap:round; stroke-width:0.25;"/>
<line x1="182.700000" y1="84.000000" x2="186.700000" y2="84.000000"  style="stroke:black; stroke-linecap:round; stroke-width:0.25;"/>
<line x1="186.700000" y1="84.000000" x2="194.700000" y2="84.000000"  style="stroke:black; stroke-linecap:round; stroke-width:0.25;"/>
<line x1="186.700000" y1="104.000000" x2="194.700000" y2="104.000000"  style="stroke:black; stroke-linecap:round; stroke-width:0.25;"/>
<line x1="186.700000" y1="164.000000" x2="186.700000" y2="104.000000"  style="stroke:black; stroke-linecap:round; stroke-width:0.25;"/>
<line x1="186.700000" y1="164.000000" x2="186.700000" y2="164.000000"  style="stroke:black; stroke-linecap:round; stroke-width:0.25;"/>
<line x1="194.700000" y1="84.000000" x2="194.700000" y2="96.000000"  style="stroke:black; stroke-linecap:round; stroke-width:0.25;"/>
<line x1="194.700000" y1="96.000000" x2="194.700000" y2="96.000000"  style="stroke:black; stroke-linecap:round; stroke-width:0.25;"/>
<line x1="194.700000" y1="96.000000" x2="198.700000" y2="96.000000"  style="stroke:black; stroke-linecap:round; stroke-width:0.25;"/>
<line x1="194.700000" y1="104.000000" x2="198.700000" y2="104.000000"  style="stroke:black; stroke-linecap:round; stroke-width:0.25;"/>
<line x1="222.700000" y1="100.000000" x2="226.700000" y2="100.000000"  style="stroke:black; stroke-linecap:round; stroke-width:0.25;"/>
<line x1="226.700000" y1="100.000000" x2="226.700000" y2="100.000000"  style="stroke:black; stroke-linecap:round; stroke-width:0.25;"/>
<line x1="226.700000" y1="100.000000" x2="230.700000" y2="100.000000"  style="stroke:black; stroke-linecap:round; stroke-width:0.25;"/>
<line x1="230.700000" y1="100.000000" x2="234.700000" y2="100.000000"  style="stroke:black; stroke-linecap:round; stroke-width:0.25;"/>
<line x1="234.700000" y1="100.000000" x2="244.700000" y2="100.000000"  style="stroke:black; stroke-linecap:round; stroke-width:0.25;"/>
</svg>
