<?xml version="1.0"?>
<svg xmlns="http://www.w3.org/2000/svg" xmlns:xlink="http://www.w3.org/1999/xlink" viewBox="0 0 282.700000 368.000000" width="141.350000mm" height="184.000000mm" version="1.1">
<a xlink:href="if-0x60000d7bf330.svg">
<rect x="0.000000" y="0.000000" width="281.700000" height="367.000000" rx="0" ry="0" style="stroke:#000000;fill:#FFFFFF;"/>
</a>
<text x="10.000000" y="7.000000" font-family="Verdana" font-size="7"></text>
<rect x="46.650000" y="24.000000" width="38.700000" height="24.000000" rx="0" ry="0" style="stroke:#000000;fill:#FFFFFF;"/>
<text x="66.000000" y="38.000000" font-family="Verdana" font-size="7" text-anchor="middle" fill="#000000">[252] ip</text>
<circle cx="48.650000" cy="26.000000" r="1"/>
<rect x="53.100000" y="56.000000" width="25.800000" height="24.000000" rx="0" ry="0" style="stroke:#000000;fill:#FFFFFF;"/>
<text x="66.000000" y="70.000000" font-family="Verdana" font-size="7" text-anchor="middle" fill="#000000">1.0f</text>
<circle cx="55.100000" cy="58.000000" r="1"/>
<rect x="101.350000" y="40.000000" width="24.000000" height="24.000000" rx="0" ry="0" style="stroke:#000000;fill:#FFFFFF;"/>
<text x="113.350000" y="54.000000" font-family="Verdana" font-size="7" text-anchor="middle" fill="#000000">==</text>
<circle cx="103.350000" cy="42.000000" r="1"/>
<line x1="98.350000" y1="47.000000" x2="101.350000" y2="48.000000"  transform="rotate(0.000000,101.350000,48.000000)" style="stroke: black; stroke-width:0.25;"/>
<line x1="98.350000" y1="49.000000" x2="101.350000" y2="48.000000"  transform="rotate(0.000000,101.350000,48.000000)" style="stroke: black; stroke-width:0.25;"/>
<line x1="98.350000" y1="55.000000" x2="101.350000" y2="56.000000"  transform="rotate(0.000000,101.350000,56.000000)" style="stroke: black; stroke-width:0.25;"/>
<line x1="98.350000" y1="57.000000" x2="101.350000" y2="56.000000"  transform="rotate(0.000000,101.350000,56.000000)" style="stroke: black; stroke-width:0.25;"/>
<a xlink:href="t1-0x60000546a9a0.svg">
<rect x="34.000000" y="88.000000" width="24.000000" height="24.000000" rx="0" ry="0" style="stroke:#000000;fill:#FFFFFF;"/>
</a>
<a xlink:href="t1-0x60000546a9a0.svg">
<text x="46.000000" y="102.000000" font-family="Verdana" font-size="7" text-anchor="middle" fill="#000000">t1</text>
</a>
<circle cx="36.000000" cy="90.000000" r="1"/>
<rect x="34.000000" y="130.000000" width="24.000000" height="24.000000" rx="0" ry="0" style="stroke:#000000;fill:#FFFFFF;"/>
<text x="46.000000" y="144.000000" font-family="Verdana" font-size="7" text-anchor="middle" fill="#000000">1</text>
<circle cx="36.000000" cy="132.000000" r="1"/>
<line x1="25.000000" y1="121.000000" x2="25.000000" y2="163.000000"  style="stroke: black; stroke-linecap:round; stroke-width:0.25; stroke-dasharray:3,3;"/>
<line x1="25.000000" y1="163.000000" x2="67.000000" y2="163.000000"  style="stroke: black; stroke-linecap:round; stroke-width:0.25; stroke-dasharray:3,3;"/>
<line x1="67.000000" y1="163.000000" x2="67.000000" y2="121.000000"  style="stroke: black; stroke-linecap:round; stroke-width:0.25; stroke-dasharray:3,3;"/>
<line x1="25.000000" y1="121.000000" x2="30.000000" y2="121.000000"  style="stroke: black; stroke-linecap:round; stroke-width:0.25; stroke-dasharray:3,3;"/>
<line x1="67.000000" y1="121.000000" x2="67.000000" y2="121.000000"  style="stroke: black; stroke-linecap:round; stroke-width:0.25; stroke-dasharray:3,3;"/>
<text x="30.000000" y="123.000000" font-family="Verdana" font-size="7">signum(90)</text>
<rect x="84.000000" y="114.000000" width="24.000000" height="24.000000" rx="0" ry="0" style="stroke:#000000;fill:#FFFFFF;"/>
<text x="96.000000" y="128.000000" font-family="Verdana" font-size="7" text-anchor="middle" fill="#000000">-</text>
<circle cx="86.000000" cy="116.000000" r="1"/>
<line x1="81.000000" y1="121.000000" x2="84.000000" y2="122.000000"  transform="rotate(0.000000,84.000000,122.000000)" style="stroke: black; stroke-width:0.25;"/>
<line x1="81.000000" y1="123.000000" x2="84.000000" y2="122.000000"  transform="rotate(0.000000,84.000000,122.000000)" style="stroke: black; stroke-width:0.25;"/>
<line x1="81.000000" y1="129.000000" x2="84.000000" y2="130.000000"  transform="rotate(0.000000,84.000000,130.000000)" style="stroke: black; stroke-width:0.25;"/>
<line x1="81.000000" y1="131.000000" x2="84.000000" y2="130.000000"  transform="rotate(0.000000,84.000000,130.000000)" style="stroke: black; stroke-width:0.25;"/>
<rect x="46.650000" y="172.000000" width="38.700000" height="24.000000" rx="0" ry="0" style="stroke:#000000;fill:#FFFFFF;"/>
<text x="66.000000" y="186.000000" font-family="Verdana" font-size="7" text-anchor="middle" fill="#000000">[254] d1</text>
<circle cx="48.650000" cy="174.000000" r="1"/>
<rect x="124.000000" y="130.000000" width="24.000000" height="24.000000" rx="0" ry="0" style="stroke:#000000;fill:#FFFFFF;"/>
<text x="136.000000" y="144.000000" font-family="Verdana" font-size="7" text-anchor="middle" fill="#000000">!=</text>
<circle cx="126.000000" cy="132.000000" r="1"/>
<line x1="121.000000" y1="137.000000" x2="124.000000" y2="138.000000"  transform="rotate(0.000000,124.000000,138.000000)" style="stroke: black; stroke-width:0.25;"/>
<line x1="121.000000" y1="139.000000" x2="124.000000" y2="138.000000"  transform="rotate(0.000000,124.000000,138.000000)" style="stroke: black; stroke-width:0.25;"/>
<line x1="121.000000" y1="145.000000" x2="124.000000" y2="146.000000"  transform="rotate(0.000000,124.000000,146.000000)" style="stroke: black; stroke-width:0.25;"/>
<line x1="121.000000" y1="147.000000" x2="124.000000" y2="146.000000"  transform="rotate(0.000000,124.000000,146.000000)" style="stroke: black; stroke-width:0.25;"/>
<rect x="164.000000" y="98.000000" width="24.000000" height="24.000000" rx="0" ry="0" style="stroke:#000000;fill:#FFFFFF;"/>
<text x="176.000000" y="112.000000" font-family="Verdana" font-size="7" text-anchor="middle" fill="#000000">&amp;</text>
<circle cx="166.000000" cy="100.000000" r="1"/>
<line x1="161.000000" y1="105.000000" x2="164.000000" y2="106.000000"  transform="rotate(0.000000,164.000000,106.000000)" style="stroke: black; stroke-width:0.25;"/>
<line x1="161.000000" y1="107.000000" x2="164.000000" y2="106.000000"  transform="rotate(0.000000,164.000000,106.000000)" style="stroke: black; stroke-width:0.25;"/>
<line x1="161.000000" y1="113.000000" x2="164.000000" y2="114.000000"  transform="rotate(0.000000,164.000000,114.000000)" style="stroke: black; stroke-width:0.25;"/>
<line x1="161.000000" y1="115.000000" x2="164.000000" y2="114.000000"  transform="rotate(0.000000,164.000000,114.000000)" style="stroke: black; stroke-width:0.25;"/>
<rect x="94.000000" y="214.000000" width="24.000000" height="24.000000" rx="0" ry="0" style="stroke:#000000;fill:#FFFFFF;"/>
<text x="106.000000" y="228.000000" font-family="Verdana" font-size="7" text-anchor="middle" fill="#000000">0</text>
<circle cx="96.000000" cy="216.000000" r="1"/>
<line x1="85.000000" y1="205.000000" x2="85.000000" y2="247.000000"  style="stroke: black; stroke-linecap:round; stroke-width:0.25; stroke-dasharray:3,3;"/>
<line x1="85.000000" y1="247.000000" x2="127.000000" y2="247.000000"  style="stroke: black; stroke-linecap:round; stroke-width:0.25; stroke-dasharray:3,3;"/>
<line x1="127.000000" y1="247.000000" x2="127.000000" y2="205.000000"  style="stroke: black; stroke-linecap:round; stroke-width:0.25; stroke-dasharray:3,3;"/>
<line x1="85.000000" y1="205.000000" x2="90.000000" y2="205.000000"  style="stroke: black; stroke-linecap:round; stroke-width:0.25; stroke-dasharray:3,3;"/>
<line x1="109.350000" y1="205.000000" x2="127.000000" y2="205.000000"  style="stroke: black; stroke-linecap:round; stroke-width:0.25; stroke-dasharray:3,3;"/>
<text x="90.000000" y="207.000000" font-family="Verdana" font-size="7">SAFE</text>
<rect x="73.100000" y="256.000000" width="25.800000" height="24.000000" rx="0" ry="0" style="stroke:#000000;fill:#FFFFFF;"/>
<text x="86.000000" y="270.000000" font-family="Verdana" font-size="7" text-anchor="middle" fill="#000000">-1.0f</text>
<circle cx="75.100000" cy="258.000000" r="1"/>
<a xlink:href="SR-0x6000017c2e20.svg">
<rect x="54.000000" y="288.000000" width="24.000000" height="24.000000" rx="0" ry="0" style="stroke:#000000;fill:#FFFFFF;"/>
</a>
<a xlink:href="SR-0x6000017c2e20.svg">
<text x="66.000000" y="302.000000" font-family="Verdana" font-size="7" text-anchor="middle" fill="#000000">SR</text>
</a>
<circle cx="56.000000" cy="290.000000" r="1"/>
<rect x="54.000000" y="320.000000" width="24.000000" height="24.000000" rx="0" ry="0" style="stroke:#000000;fill:#FFFFFF;"/>
<text x="66.000000" y="334.000000" font-family="Verdana" font-size="7" text-anchor="middle" fill="#000000">100</text>
<circle cx="56.000000" cy="322.000000" r="1"/>
<rect x="94.000000" y="304.000000" width="24.000000" height="24.000000" rx="0" ry="0" style="stroke:#000000;fill:#FFFFFF;"/>
<text x="106.000000" y="318.000000" font-family="Verdana" font-size="7" text-anchor="middle" fill="#000000">/</text>
<circle cx="96.000000" cy="306.000000" r="1"/>
<line x1="91.000000" y1="311.000000" x2="94.000000" y2="312.000000"  transform="rotate(0.000000,94.000000,312.000000)" style="stroke: black; stroke-width:0.25;"/>
<line x1="91.000000" y1="313.000000" x2="94.000000" y2="312.000000"  transform="rotate(0.000000,94.000000,312.000000)" style="stroke: black; stroke-width:0.25;"/>
<line x1="91.000000" y1="319.000000" x2="94.000000" y2="320.000000"  transform="rotate(0.000000,94.000000,320.000000)" style="stroke: black; stroke-width:0.25;"/>
<line x1="91.000000" y1="321.000000" x2="94.000000" y2="320.000000"  transform="rotate(0.000000,94.000000,320.000000)" style="stroke: black; stroke-width:0.25;"/>
<rect x="134.000000" y="288.000000" width="24.000000" height="24.000000" rx="0" ry="0" style="stroke:#000000;fill:#FFFFFF;"/>
<text x="146.000000" y="302.000000" font-family="Verdana" font-size="7" text-anchor="middle" fill="#000000">/</text>
<circle cx="136.000000" cy="290.000000" r="1"/>
<line x1="131.000000" y1="295.000000" x2="134.000000" y2="296.000000"  transform="rotate(0.000000,134.000000,296.000000)" style="stroke: black; stroke-width:0.25;"/>
<line x1="131.000000" y1="297.000000" x2="134.000000" y2="296.000000"  transform="rotate(0.000000,134.000000,296.000000)" style="stroke: black; stroke-width:0.25;"/>
<line x1="131.000000" y1="303.000000" x2="134.000000" y2="304.000000"  transform="rotate(0.000000,134.000000,304.000000)" style="stroke: black; stroke-width:0.25;"/>
<line x1="131.000000" y1="305.000000" x2="134.000000" y2="304.000000"  transform="rotate(0.000000,134.000000,304.000000)" style="stroke: black; stroke-width:0.25;"/>
<rect x="212.000000" y="172.000000" width="38.700000" height="24.000000" rx="0" ry="0" style="stroke:#000000;fill:#FFFFFF;"/>
<text x="231.350000" y="186.000000" font-family="Verdana" font-size="7" text-anchor="middle" fill="#000000">select2</text>
<circle cx="214.000000" cy="174.000000" r="1"/>
<line x1="209.000000" y1="175.000000" x2="212.000000" y2="176.000000"  transform="rotate(0.000000,212.000000,176.000000)" style="stroke: black; stroke-width:0.25;"/>
<line x1="209.000000" y1="177.000000" x2="212.000000" y2="176.000000"  transform="rotate(0.000000,212.000000,176.000000)" style="stroke: black; stroke-width:0.25;"/>
<line x1="209.000000" y1="183.000000" x2="212.000000" y2="184.000000"  transform="rotate(0.000000,212.000000,184.000000)" style="stroke: black; stroke-width:0.25;"/>
<line x1="209.000000" y1="185.000000" x2="212.000000" y2="184.000000"  transform="rotate(0.000000,212.000000,184.000000)" style="stroke: black; stroke-width:0.25;"/>
<line x1="209.000000" y1="191.000000" x2="212.000000" y2="192.000000"  transform="rotate(0.000000,212.000000,192.000000)" style="stroke: black; stroke-width:0.25;"/>
<line x1="209.000000" y1="193.000000" x2="212.000000" y2="192.000000"  transform="rotate(0.000000,212.000000,192.000000)" style="stroke: black; stroke-width:0.25;"/>
<line x1="15.000000" y1="15.000000" x2="15.000000" y2="353.000000"  style="stroke: black; stroke-linecap:round; stroke-width:0.25; stroke-dasharray:3,3;"/>
<line x1="15.000000" y1="353.000000" x2="267.700000" y2="353.000000"  style="stroke: black; stroke-linecap:round; stroke-width:0.25; stroke-dasharray:3,3;"/>
<line x1="267.700000" y1="353.000000" x2="267.700000" y2="15.000000"  style="stroke: black; stroke-linecap:round; stroke-width:0.25; stroke-dasharray:3,3;"/>
<line x1="15.000000" y1="15.000000" x2="20.000000" y2="15.000000"  style="stroke: black; stroke-linecap:round; stroke-width:0.25; stroke-dasharray:3,3;"/>
<line x1="129.650000" y1="15.000000" x2="267.700000" y2="15.000000"  style="stroke: black; stroke-linecap:round; stroke-width:0.25; stroke-dasharray:3,3;"/>
<text x="20.000000" y="17.000000" font-family="Verdana" font-size="7">if((x252,1.0f...100 : /) : /)(0)</text>
<line x1="269.700000" y1="183.000000" x2="272.700000" y2="184.000000"  transform="rotate(0.000000,272.700000,184.000000)" style="stroke: black; stroke-width:0.25;"/>
<line x1="269.700000" y1="185.000000" x2="272.700000" y2="184.000000"  transform="rotate(0.000000,272.700000,184.000000)" style="stroke: black; stroke-width:0.25;"/>
<line x1="58.000000" y1="100.000000" x2="62.000000" y2="100.000000"  style="stroke:black; stroke-linecap:round; stroke-width:0.25;"/>
<line x1="58.000000" y1="142.000000" x2="62.000000" y2="142.000000"  style="stroke:black; stroke-linecap:round; stroke-width:0.25;"/>
<line x1="62.000000" y1="100.000000" x2="72.000000" y2="100.000000"  style="stroke:black; stroke-linecap:round; stroke-width:0.25;"/>
<line x1="62.000000" y1="142.000000" x2="72.000000" y2="142.000000"  style="stroke:black; stroke-linecap:round; stroke-width:0.25;"/>
<line x1="72.000000" y1="100.000000" x2="80.000000" y2="100.000000"  style="stroke:black; stroke-linecap:round; stroke-width:0.25;"/>
<line x1="72.000000" y1="130.000000" x2="80.000000" y2="130.000000"  style="stroke:black; stroke-linecap:round; stroke-width:0.25;"/>
<line x1="72.000000" y1="142.000000" x2="72.000000" y2="130.000000"  style="stroke:black; stroke-linecap:round; stroke-width:0.25;"/>
<line x1="72.000000" y1="142.000000" x2="72.000000" y2="142.000000"  style="stroke:black; stroke-linecap:round; stroke-width:0.25;"/>
<line x1="78.000000" y1="300.000000" x2="82.000000" y2="300.000000"  style="stroke:black; stroke-linecap:round; stroke-width:0.25;"/>
<line x1="78.000000" y1="332.000000" x2="82.000000" y2="332.000000"  style="stroke:black; stroke-linecap:round; stroke-width:0.25;"/>
<line x1="78.900000" y1="68.000000" x2="82.900000" y2="68.000000"  style="stroke:black; stroke-linecap:round; stroke-width:0.25;"/>
<line x1="80.000000" y1="100.000000" x2="80.000000" y2="122.000000"  style="stroke:black; stroke-linecap:round; stroke-width:0.25;"/>
<line x1="80.000000" y1="122.000000" x2="80.000000" y2="122.000000"  style="stroke:black; stroke-linecap:round; stroke-width:0.25;"/>
<line x1="80.000000" y1="122.000000" x2="84.000000" y2="122.000000"  style="stroke:black; stroke-linecap:round; stroke-width:0.25;"/>
<line x1="80.000000" y1="130.000000" x2="84.000000" y2="130.000000"  style="stroke:black; stroke-linecap:round; stroke-width:0.25;"/>
<line x1="82.000000" y1="300.000000" x2="90.000000" y2="300.000000"  style="stroke:black; stroke-linecap:round; stroke-width:0.25;"/>
<line x1="82.000000" y1="320.000000" x2="90.000000" y2="320.000000"  style="stroke:black; stroke-linecap:round; stroke-width:0.25;"/>
<line x1="82.000000" y1="332.000000" x2="82.000000" y2="320.000000"  style="stroke:black; stroke-linecap:round; stroke-width:0.25;"/>
<line x1="82.000000" y1="332.000000" x2="82.000000" y2="332.000000"  style="stroke:black; stroke-linecap:round; stroke-width:0.25;"/>
<line x1="82.900000" y1="68.000000" x2="89.350000" y2="68.000000"  style="stroke:black; stroke-linecap:round; stroke-width:0.25;"/>
<line x1="85.350000" y1="36.000000" x2="89.350000" y2="36.000000"  style="stroke:black; stroke-linecap:round; stroke-width:0.25;"/>
<line x1="85.350000" y1="184.000000" x2="89.350000" y2="184.000000"  style="stroke:black; stroke-linecap:round; stroke-width:0.25;"/>
<line x1="89.350000" y1="36.000000" x2="97.350000" y2="36.000000"  style="stroke:black; stroke-linecap:round; stroke-width:0.25;"/>
<line x1="89.350000" y1="184.000000" x2="112.000000" y2="184.000000"  style="stroke:black; stroke-linecap:round; stroke-width:0.25;"/>
<line x1="89.350000" y1="56.000000" x2="97.350000" y2="56.000000"  style="stroke:black; stroke-linecap:round; stroke-width:0.25;"/>
<line x1="89.350000" y1="68.000000" x2="89.350000" y2="56.000000"  style="stroke:black; stroke-linecap:round; stroke-width:0.25;"/>
<line x1="89.350000" y1="68.000000" x2="89.350000" y2="68.000000"  style="stroke:black; stroke-linecap:round; stroke-width:0.25;"/>
<line x1="90.000000" y1="300.000000" x2="90.000000" y2="312.000000"  style="stroke:black; stroke-linecap:round; stroke-width:0.25;"/>
<line x1="90.000000" y1="312.000000" x2="90.000000" y2="312.000000"  style="stroke:black; stroke-linecap:round; stroke-width:0.25;"/>
<line x1="90.000000" y1="312.000000" x2="94.000000" y2="312.000000"  style="stroke:black; stroke-linecap:round; stroke-width:0.25;"/>
<line x1="90.000000" y1="320.000000" x2="94.000000" y2="320.000000"  style="stroke:black; stroke-linecap:round; stroke-width:0.25;"/>
<line x1="97.350000" y1="36.000000" x2="97.350000" y2="48.000000"  style="stroke:black; stroke-linecap:round; stroke-width:0.25;"/>
<line x1="97.350000" y1="48.000000" x2="97.350000" y2="48.000000"  style="stroke:black; stroke-linecap:round; stroke-width:0.25;"/>
<line x1="97.350000" y1="48.000000" x2="101.350000" y2="48.000000"  style="stroke:black; stroke-linecap:round; stroke-width:0.25;"/>
<line x1="97.350000" y1="56.000000" x2="101.350000" y2="56.000000"  style="stroke:black; stroke-linecap:round; stroke-width:0.25;"/>
<line x1="98.900000" y1="268.000000" x2="102.900000" y2="268.000000"  style="stroke:black; stroke-linecap:round; stroke-width:0.25;"/>
<line x1="102.900000" y1="268.000000" x2="122.000000" y2="268.000000"  style="stroke:black; stroke-linecap:round; stroke-width:0.25;"/>
<line x1="108.000000" y1="126.000000" x2="112.000000" y2="126.000000"  style="stroke:black; stroke-linecap:round; stroke-width:0.25;"/>
<line x1="112.000000" y1="126.000000" x2="120.000000" y2="126.000000"  style="stroke:black; stroke-linecap:round; stroke-width:0.25;"/>
<line x1="112.000000" y1="146.000000" x2="120.000000" y2="146.000000"  style="stroke:black; stroke-linecap:round; stroke-width:0.25;"/>
<line x1="112.000000" y1="184.000000" x2="112.000000" y2="146.000000"  style="stroke:black; stroke-linecap:round; stroke-width:0.25;"/>
<line x1="112.000000" y1="184.000000" x2="112.000000" y2="184.000000"  style="stroke:black; stroke-linecap:round; stroke-width:0.25;"/>
<line x1="118.000000" y1="226.000000" x2="122.000000" y2="226.000000"  style="stroke:black; stroke-linecap:round; stroke-width:0.25;"/>
<line x1="118.000000" y1="316.000000" x2="122.000000" y2="316.000000"  style="stroke:black; stroke-linecap:round; stroke-width:0.25;"/>
<line x1="120.000000" y1="126.000000" x2="120.000000" y2="138.000000"  style="stroke:black; stroke-linecap:round; stroke-width:0.25;"/>
<line x1="120.000000" y1="138.000000" x2="120.000000" y2="138.000000"  style="stroke:black; stroke-linecap:round; stroke-width:0.25;"/>
<line x1="120.000000" y1="138.000000" x2="124.000000" y2="138.000000"  style="stroke:black; stroke-linecap:round; stroke-width:0.25;"/>
<line x1="120.000000" y1="146.000000" x2="124.000000" y2="146.000000"  style="stroke:black; stroke-linecap:round; stroke-width:0.25;"/>
<line x1="122.000000" y1="226.000000" x2="132.000000" y2="226.000000"  style="stroke:black; stroke-linecap:round; stroke-width:0.25;"/>
<line x1="122.000000" y1="268.000000" x2="130.000000" y2="268.000000"  style="stroke:black; stroke-linecap:round; stroke-width:0.25;"/>
<line x1="122.000000" y1="304.000000" x2="130.000000" y2="304.000000"  style="stroke:black; stroke-linecap:round; stroke-width:0.25;"/>
<line x1="122.000000" y1="316.000000" x2="122.000000" y2="304.000000"  style="stroke:black; stroke-linecap:round; stroke-width:0.25;"/>
<line x1="122.000000" y1="316.000000" x2="122.000000" y2="316.000000"  style="stroke:black; stroke-linecap:round; stroke-width:0.25;"/>
<line x1="125.350000" y1="52.000000" x2="129.350000" y2="52.000000"  style="stroke:black; stroke-linecap:round; stroke-width:0.25;"/>
<line x1="129.350000" y1="52.000000" x2="152.000000" y2="52.000000"  style="stroke:black; stroke-linecap:round; stroke-width:0.25;"/>
<line x1="130.000000" y1="268.000000" x2="130.000000" y2="296.000000"  style="stroke:black; stroke-linecap:round; stroke-width:0.25;"/>
<line x1="130.000000" y1="296.000000" x2="130.000000" y2="296.000000"  style="stroke:black; stroke-linecap:round; stroke-width:0.25;"/>
<line x1="130.000000" y1="296.000000" x2="134.000000" y2="296.000000"  style="stroke:black; stroke-linecap:round; stroke-width:0.25;"/>
<line x1="130.000000" y1="304.000000" x2="134.000000" y2="304.000000"  style="stroke:black; stroke-linecap:round; stroke-width:0.25;"/>
<line x1="132.000000" y1="226.000000" x2="162.000000" y2="226.000000"  style="stroke:black; stroke-linecap:round; stroke-width:0.25;"/>
<line x1="148.000000" y1="142.000000" x2="152.000000" y2="142.000000"  style="stroke:black; stroke-linecap:round; stroke-width:0.25;"/>
<line x1="152.000000" y1="52.000000" x2="160.000000" y2="52.000000"  style="stroke:black; stroke-linecap:round; stroke-width:0.25;"/>
<line x1="152.000000" y1="114.000000" x2="160.000000" y2="114.000000"  style="stroke:black; stroke-linecap:round; stroke-width:0.25;"/>
<line x1="152.000000" y1="142.000000" x2="152.000000" y2="114.000000"  style="stroke:black; stroke-linecap:round; stroke-width:0.25;"/>
<line x1="152.000000" y1="142.000000" x2="152.000000" y2="142.000000"  style="stroke:black; stroke-linecap:round; stroke-width:0.25;"/>
<line x1="158.000000" y1="300.000000" x2="162.000000" y2="300.000000"  style="stroke:black; stroke-linecap:round; stroke-width:0.25;"/>
<line x1="160.000000" y1="52.000000" x2="160.000000" y2="106.000000"  style="stroke:black; stroke-linecap:round; stroke-width:0.25;"/>
<line x1="160.000000" y1="106.000000" x2="160.000000" y2="106.000000"  style="stroke:black; stroke-linecap:round; stroke-width:0.25;"/>
<line x1="160.000000" y1="106.000000" x2="164.000000" y2="106.000000"  style="stroke:black; stroke-linecap:round; stroke-width:0.25;"/>
<line x1="160.000000" y1="114.000000" x2="164.000000" y2="114.000000"  style="stroke:black; stroke-linecap:round; stroke-width:0.25;"/>
<line x1="162.000000" y1="226.000000" x2="192.000000" y2="226.000000"  style="stroke:black; stroke-linecap:round; stroke-width:0.25;"/>
<line x1="162.000000" y1="300.000000" x2="192.000000" y2="300.000000"  style="stroke:black; stroke-linecap:round; stroke-width:0.25;"/>
<line x1="188.000000" y1="110.000000" x2="192.000000" y2="110.000000"  style="stroke:black; stroke-linecap:round; stroke-width:0.25;"/>
<line x1="192.000000" y1="110.000000" x2="208.000000" y2="110.000000"  style="stroke:black; stroke-linecap:round; stroke-width:0.25;"/>
<line x1="192.000000" y1="184.000000" x2="208.000000" y2="184.000000"  style="stroke:black; stroke-linecap:round; stroke-width:0.25;"/>
<line x1="192.000000" y1="226.000000" x2="192.000000" y2="184.000000"  style="stroke:black; stroke-linecap:round; stroke-width:0.25;"/>
<line x1="192.000000" y1="226.000000" x2="192.000000" y2="226.000000"  style="stroke:black; stroke-linecap:round; stroke-width:0.25;"/>
<line x1="192.000000" y1="300.000000" x2="200.000000" y2="300.000000"  style="stroke:black; stroke-linecap:round; stroke-width:0.25;"/>
<line x1="200.000000" y1="192.000000" x2="208.000000" y2="192.000000"  style="stroke:black; stroke-linecap:round; stroke-width:0.25;"/>
<line x1="200.000000" y1="300.000000" x2="200.000000" y2="192.000000"  style="stroke:black; stroke-linecap:round; stroke-width:0.25;"/>
<line x1="208.000000" y1="110.000000" x2="208.000000" y2="176.000000"  style="stroke:black; stroke-linecap:round; stroke-width:0.25;"/>
<line x1="208.000000" y1="176.000000" x2="208.000000" y2="176.000000"  style="stroke:black; stroke-linecap:round; stroke-width:0.25;"/>
<line x1="208.000000" y1="176.000000" x2="212.000000" y2="176.000000"  style="stroke:black; stroke-linecap:round; stroke-width:0.25;"/>
<line x1="208.000000" y1="184.000000" x2="212.000000" y2="184.000000"  style="stroke:black; stroke-linecap:round; stroke-width:0.25;"/>
<line x1="208.000000" y1="192.000000" x2="212.000000" y2="192.000000"  style="stroke:black; stroke-linecap:round; stroke-width:0.25;"/>
<line x1="250.700000" y1="184.000000" x2="254.700000" y2="184.000000"  style="stroke:black; stroke-linecap:round; stroke-width:0.25;"/>
<line x1="254.700000" y1="184.000000" x2="254.700000" y2="184.000000"  style="stroke:black; stroke-linecap:round; stroke-width:0.25;"/>
<line x1="254.700000" y1="184.000000" x2="258.700000" y2="184.000000"  style="stroke:black; stroke-linecap:round; stroke-width:0.25;"/>
<line x1="258.700000" y1="184.000000" x2="262.700000" y2="184.000000"  style="stroke:black; stroke-linecap:round; stroke-width:0.25;"/>
<line x1="262.700000" y1="184.000000" x2="272.700000" y2="184.000000"  style="stroke:black; stroke-linecap:round; stroke-width:0.25;"/>
</svg>
