<?xml version="1.0"?>
<svg xmlns="http://www.w3.org/2000/svg" xmlns:xlink="http://www.w3.org/1999/xlink" viewBox="0 0 227.600000 188.000000" width="113.800000mm" height="94.000000mm" version="1.1">
<a xlink:href="phasor-0x6000094317a0.svg">
<rect x="0.000000" y="0.000000" width="226.600000" height="187.000000" rx="0" ry="0" style="stroke:#000000;fill:#FFFFFF;"/>
</a>
<text x="10.000000" y="7.000000" font-family="Verdana" font-size="7"></text>
<rect x="57.800000" y="34.000000" width="24.000000" height="24.000000" rx="0" ry="0" style="stroke:#000000;fill:#FFFFFF;"/>
<text x="69.800000" y="48.000000" font-family="Verdana" font-size="7" text-anchor="middle" fill="#000000">1</text>
<circle cx="59.800000" cy="36.000000" r="1"/>
<line x1="48.800000" y1="25.000000" x2="48.800000" y2="67.000000"  style="stroke: black; stroke-linecap:round; stroke-width:0.25; stroke-dasharray:3,3;"/>
<line x1="48.800000" y1="67.000000" x2="90.800000" y2="67.000000"  style="stroke: black; stroke-linecap:round; stroke-width:0.25; stroke-dasharray:3,3;"/>
<line x1="90.800000" y1="67.000000" x2="90.800000" y2="25.000000"  style="stroke: black; stroke-linecap:round; stroke-width:0.25; stroke-dasharray:3,3;"/>
<line x1="48.800000" y1="25.000000" x2="53.800000" y2="25.000000"  style="stroke: black; stroke-linecap:round; stroke-width:0.25; stroke-dasharray:3,3;"/>
<line x1="90.800000" y1="25.000000" x2="90.800000" y2="25.000000"  style="stroke: black; stroke-linecap:round; stroke-width:0.25; stroke-dasharray:3,3;"/>
<text x="53.800000" y="27.000000" font-family="Verdana" font-size="7">signum(90)</text>
<a xlink:href="osc-0x600009430000.svg">
<rect x="24.000000" y="76.000000" width="51.600000" height="24.000000" rx="0" ry="0" style="stroke:#000000;fill:#FFFFFF;"/>
</a>
<a xlink:href="osc-0x600009430000.svg">
<text x="49.800000" y="90.000000" font-family="Verdana" font-size="7" text-anchor="middle" fill="#000000">osc(0.26f)</text>
</a>
<circle cx="26.000000" cy="78.000000" r="1"/>
<rect x="37.800000" y="108.000000" width="24.000000" height="24.000000" rx="0" ry="0" style="stroke:#000000;fill:#FFFFFF;"/>
<text x="49.800000" y="122.000000" font-family="Verdana" font-size="7" text-anchor="middle" fill="#000000">10</text>
<circle cx="39.800000" cy="110.000000" r="1"/>
<rect x="91.600000" y="92.000000" width="24.000000" height="24.000000" rx="0" ry="0" style="stroke:#000000;fill:#FFFFFF;"/>
<text x="103.600000" y="106.000000" font-family="Verdana" font-size="7" text-anchor="middle" fill="#000000">*</text>
<circle cx="93.600000" cy="94.000000" r="1"/>
<line x1="88.600000" y1="99.000000" x2="91.600000" y2="100.000000"  transform="rotate(0.000000,91.600000,100.000000)" style="stroke: black; stroke-width:0.25;"/>
<line x1="88.600000" y1="101.000000" x2="91.600000" y2="100.000000"  transform="rotate(0.000000,91.600000,100.000000)" style="stroke: black; stroke-width:0.25;"/>
<line x1="88.600000" y1="107.000000" x2="91.600000" y2="108.000000"  transform="rotate(0.000000,91.600000,108.000000)" style="stroke: black; stroke-width:0.25;"/>
<line x1="88.600000" y1="109.000000" x2="91.600000" y2="108.000000"  transform="rotate(0.000000,91.600000,108.000000)" style="stroke: black; stroke-width:0.25;"/>
<rect x="131.600000" y="66.000000" width="24.000000" height="24.000000" rx="0" ry="0" style="stroke:#000000;fill:#FFFFFF;"/>
<text x="143.600000" y="80.000000" font-family="Verdana" font-size="7" text-anchor="middle" fill="#000000">+</text>
<circle cx="133.600000" cy="68.000000" r="1"/>
<line x1="128.600000" y1="73.000000" x2="131.600000" y2="74.000000"  transform="rotate(0.000000,131.600000,74.000000)" style="stroke: black; stroke-width:0.25;"/>
<line x1="128.600000" y1="75.000000" x2="131.600000" y2="74.000000"  transform="rotate(0.000000,131.600000,74.000000)" style="stroke: black; stroke-width:0.25;"/>
<line x1="128.600000" y1="81.000000" x2="131.600000" y2="82.000000"  transform="rotate(0.000000,131.600000,82.000000)" style="stroke: black; stroke-width:0.25;"/>
<line x1="128.600000" y1="83.000000" x2="131.600000" y2="82.000000"  transform="rotate(0.000000,131.600000,82.000000)" style="stroke: black; stroke-width:0.25;"/>
<a xlink:href="SR-0x6000017c2e20.svg">
<rect x="77.800000" y="140.000000" width="24.000000" height="24.000000" rx="0" ry="0" style="stroke:#000000;fill:#FFFFFF;"/>
</a>
<a xlink:href="SR-0x6000017c2e20.svg">
<text x="89.800000" y="154.000000" font-family="Verdana" font-size="7" text-anchor="middle" fill="#000000">SR</text>
</a>
<circle cx="79.800000" cy="142.000000" r="1"/>
<rect x="171.600000" y="82.000000" width="24.000000" height="24.000000" rx="0" ry="0" style="stroke:#000000;fill:#FFFFFF;"/>
<text x="183.600000" y="96.000000" font-family="Verdana" font-size="7" text-anchor="middle" fill="#000000">/</text>
<circle cx="173.600000" cy="84.000000" r="1"/>
<line x1="168.600000" y1="89.000000" x2="171.600000" y2="90.000000"  transform="rotate(0.000000,171.600000,90.000000)" style="stroke: black; stroke-width:0.25;"/>
<line x1="168.600000" y1="91.000000" x2="171.600000" y2="90.000000"  transform="rotate(0.000000,171.600000,90.000000)" style="stroke: black; stroke-width:0.25;"/>
<line x1="168.600000" y1="97.000000" x2="171.600000" y2="98.000000"  transform="rotate(0.000000,171.600000,98.000000)" style="stroke: black; stroke-width:0.25;"/>
<line x1="168.600000" y1="99.000000" x2="171.600000" y2="98.000000"  transform="rotate(0.000000,171.600000,98.000000)" style="stroke: black; stroke-width:0.25;"/>
<line x1="15.000000" y1="15.000000" x2="15.000000" y2="173.000000"  style="stroke: black; stroke-linecap:round; stroke-width:0.25; stroke-dasharray:3,3;"/>
<line x1="15.000000" y1="173.000000" x2="212.600000" y2="173.000000"  style="stroke: black; stroke-linecap:round; stroke-width:0.25; stroke-dasharray:3,3;"/>
<line x1="212.600000" y1="173.000000" x2="212.600000" y2="15.000000"  style="stroke: black; stroke-linecap:round; stroke-width:0.25; stroke-dasharray:3,3;"/>
<line x1="15.000000" y1="15.000000" x2="20.000000" y2="15.000000"  style="stroke: black; stroke-linecap:round; stroke-width:0.25; stroke-dasharray:3,3;"/>
<line x1="52.250000" y1="15.000000" x2="212.600000" y2="15.000000"  style="stroke: black; stroke-linecap:round; stroke-width:0.25; stroke-dasharray:3,3;"/>
<text x="20.000000" y="17.000000" font-family="Verdana" font-size="7">incr_aux</text>
<line x1="214.600000" y1="93.000000" x2="217.600000" y2="94.000000"  transform="rotate(0.000000,217.600000,94.000000)" style="stroke: black; stroke-width:0.25;"/>
<line x1="214.600000" y1="95.000000" x2="217.600000" y2="94.000000"  transform="rotate(0.000000,217.600000,94.000000)" style="stroke: black; stroke-width:0.25;"/>
<line x1="61.800000" y1="120.000000" x2="65.800000" y2="120.000000"  style="stroke:black; stroke-linecap:round; stroke-width:0.25;"/>
<line x1="65.800000" y1="120.000000" x2="79.600000" y2="120.000000"  style="stroke:black; stroke-linecap:round; stroke-width:0.25;"/>
<line x1="75.600000" y1="88.000000" x2="79.600000" y2="88.000000"  style="stroke:black; stroke-linecap:round; stroke-width:0.25;"/>
<line x1="79.600000" y1="88.000000" x2="87.600000" y2="88.000000"  style="stroke:black; stroke-linecap:round; stroke-width:0.25;"/>
<line x1="79.600000" y1="108.000000" x2="87.600000" y2="108.000000"  style="stroke:black; stroke-linecap:round; stroke-width:0.25;"/>
<line x1="79.600000" y1="120.000000" x2="79.600000" y2="108.000000"  style="stroke:black; stroke-linecap:round; stroke-width:0.25;"/>
<line x1="79.600000" y1="120.000000" x2="79.600000" y2="120.000000"  style="stroke:black; stroke-linecap:round; stroke-width:0.25;"/>
<line x1="81.800000" y1="46.000000" x2="85.800000" y2="46.000000"  style="stroke:black; stroke-linecap:round; stroke-width:0.25;"/>
<line x1="85.800000" y1="46.000000" x2="95.800000" y2="46.000000"  style="stroke:black; stroke-linecap:round; stroke-width:0.25;"/>
<line x1="87.600000" y1="88.000000" x2="87.600000" y2="100.000000"  style="stroke:black; stroke-linecap:round; stroke-width:0.25;"/>
<line x1="87.600000" y1="100.000000" x2="87.600000" y2="100.000000"  style="stroke:black; stroke-linecap:round; stroke-width:0.25;"/>
<line x1="87.600000" y1="100.000000" x2="91.600000" y2="100.000000"  style="stroke:black; stroke-linecap:round; stroke-width:0.25;"/>
<line x1="87.600000" y1="108.000000" x2="91.600000" y2="108.000000"  style="stroke:black; stroke-linecap:round; stroke-width:0.25;"/>
<line x1="95.800000" y1="46.000000" x2="119.600000" y2="46.000000"  style="stroke:black; stroke-linecap:round; stroke-width:0.25;"/>
<line x1="101.800000" y1="152.000000" x2="105.800000" y2="152.000000"  style="stroke:black; stroke-linecap:round; stroke-width:0.25;"/>
<line x1="105.800000" y1="152.000000" x2="159.600000" y2="152.000000"  style="stroke:black; stroke-linecap:round; stroke-width:0.25;"/>
<line x1="115.600000" y1="104.000000" x2="119.600000" y2="104.000000"  style="stroke:black; stroke-linecap:round; stroke-width:0.25;"/>
<line x1="119.600000" y1="46.000000" x2="127.600000" y2="46.000000"  style="stroke:black; stroke-linecap:round; stroke-width:0.25;"/>
<line x1="119.600000" y1="82.000000" x2="127.600000" y2="82.000000"  style="stroke:black; stroke-linecap:round; stroke-width:0.25;"/>
<line x1="119.600000" y1="104.000000" x2="119.600000" y2="82.000000"  style="stroke:black; stroke-linecap:round; stroke-width:0.25;"/>
<line x1="119.600000" y1="104.000000" x2="119.600000" y2="104.000000"  style="stroke:black; stroke-linecap:round; stroke-width:0.25;"/>
<line x1="127.600000" y1="46.000000" x2="127.600000" y2="74.000000"  style="stroke:black; stroke-linecap:round; stroke-width:0.25;"/>
<line x1="127.600000" y1="74.000000" x2="127.600000" y2="74.000000"  style="stroke:black; stroke-linecap:round; stroke-width:0.25;"/>
<line x1="127.600000" y1="74.000000" x2="131.600000" y2="74.000000"  style="stroke:black; stroke-linecap:round; stroke-width:0.25;"/>
<line x1="127.600000" y1="82.000000" x2="131.600000" y2="82.000000"  style="stroke:black; stroke-linecap:round; stroke-width:0.25;"/>
<line x1="155.600000" y1="78.000000" x2="159.600000" y2="78.000000"  style="stroke:black; stroke-linecap:round; stroke-width:0.25;"/>
<line x1="159.600000" y1="78.000000" x2="167.600000" y2="78.000000"  style="stroke:black; stroke-linecap:round; stroke-width:0.25;"/>
<line x1="159.600000" y1="98.000000" x2="167.600000" y2="98.000000"  style="stroke:black; stroke-linecap:round; stroke-width:0.25;"/>
<line x1="159.600000" y1="152.000000" x2="159.600000" y2="98.000000"  style="stroke:black; stroke-linecap:round; stroke-width:0.25;"/>
<line x1="159.600000" y1="152.000000" x2="159.600000" y2="152.000000"  style="stroke:black; stroke-linecap:round; stroke-width:0.25;"/>
<line x1="167.600000" y1="78.000000" x2="167.600000" y2="90.000000"  style="stroke:black; stroke-linecap:round; stroke-width:0.25;"/>
<line x1="167.600000" y1="90.000000" x2="167.600000" y2="90.000000"  style="stroke:black; stroke-linecap:round; stroke-width:0.25;"/>
<line x1="167.600000" y1="90.000000" x2="171.600000" y2="90.000000"  style="stroke:black; stroke-linecap:round; stroke-width:0.25;"/>
<line x1="167.600000" y1="98.000000" x2="171.600000" y2="98.000000"  style="stroke:black; stroke-linecap:round; stroke-width:0.25;"/>
<line x1="195.600000" y1="94.000000" x2="199.600000" y2="94.000000"  style="stroke:black; stroke-linecap:round; stroke-width:0.25;"/>
<line x1="199.600000" y1="94.000000" x2="199.600000" y2="94.000000"  style="stroke:black; stroke-linecap:round; stroke-width:0.25;"/>
<line x1="199.600000" y1="94.000000" x2="203.600000" y2="94.000000"  style="stroke:black; stroke-linecap:round; stroke-width:0.25;"/>
<line x1="203.600000" y1="94.000000" x2="207.600000" y2="94.000000"  style="stroke:black; stroke-linecap:round; stroke-width:0.25;"/>
<line x1="207.600000" y1="94.000000" x2="217.600000" y2="94.000000"  style="stroke:black; stroke-linecap:round; stroke-width:0.25;"/>
</svg>
