<?xml version="1.0"?>
<svg xmlns="http://www.w3.org/2000/svg" xmlns:xlink="http://www.w3.org/1999/xlink" viewBox="0 0 118.700000 232.000000" width="59.350000mm" height="116.000000mm" version="1.1">
<a xlink:href="noiseFbkBank2-0x60001d4ec6c0.svg">
<rect x="0.000000" y="0.000000" width="117.700000" height="231.000000" rx="0" ry="0" style="stroke:#000000;fill:#FFFFFF;"/>
</a>
<text x="10.000000" y="7.000000" font-family="Verdana" font-size="7"></text>
<a xlink:href="inNoise-0x6000096154d0.svg">
<rect x="24.000000" y="24.000000" width="38.700000" height="24.000000" rx="0" ry="0" style="stroke:#000000;fill:#FFFFFF;"/>
</a>
<a xlink:href="inNoise-0x6000096154d0.svg">
<text x="43.350000" y="38.000000" font-family="Verdana" font-size="7" text-anchor="middle" fill="#000000">inNoise</text>
</a>
<circle cx="26.000000" cy="26.000000" r="1"/>
<a xlink:href="inNoise-0x6000096154d0.svg">
<rect x="24.000000" y="56.000000" width="38.700000" height="24.000000" rx="0" ry="0" style="stroke:#000000;fill:#FFFFFF;"/>
</a>
<a xlink:href="inNoise-0x6000096154d0.svg">
<text x="43.350000" y="70.000000" font-family="Verdana" font-size="7" text-anchor="middle" fill="#000000">inNoise</text>
</a>
<circle cx="26.000000" cy="58.000000" r="1"/>
<a xlink:href="inNoise-0x6000096154d0.svg">
<rect x="24.000000" y="88.000000" width="38.700000" height="24.000000" rx="0" ry="0" style="stroke:#000000;fill:#FFFFFF;"/>
</a>
<a xlink:href="inNoise-0x6000096154d0.svg">
<text x="43.350000" y="102.000000" font-family="Verdana" font-size="7" text-anchor="middle" fill="#000000">inNoise</text>
</a>
<circle cx="26.000000" cy="90.000000" r="1"/>
<a xlink:href="inNoise-0x6000096154d0.svg">
<rect x="24.000000" y="120.000000" width="38.700000" height="24.000000" rx="0" ry="0" style="stroke:#000000;fill:#FFFFFF;"/>
</a>
<a xlink:href="inNoise-0x6000096154d0.svg">
<text x="43.350000" y="134.000000" font-family="Verdana" font-size="7" text-anchor="middle" fill="#000000">inNoise</text>
</a>
<circle cx="26.000000" cy="122.000000" r="1"/>
<a xlink:href="inNoise-0x6000096154d0.svg">
<rect x="24.000000" y="152.000000" width="38.700000" height="24.000000" rx="0" ry="0" style="stroke:#000000;fill:#FFFFFF;"/>
</a>
<a xlink:href="inNoise-0x6000096154d0.svg">
<text x="43.350000" y="166.000000" font-family="Verdana" font-size="7" text-anchor="middle" fill="#000000">inNoise</text>
</a>
<circle cx="26.000000" cy="154.000000" r="1"/>
<a xlink:href="inNoise-0x6000096154d0.svg">
<rect x="24.000000" y="184.000000" width="38.700000" height="24.000000" rx="0" ry="0" style="stroke:#000000;fill:#FFFFFF;"/>
</a>
<a xlink:href="inNoise-0x6000096154d0.svg">
<text x="43.350000" y="198.000000" font-family="Verdana" font-size="7" text-anchor="middle" fill="#000000">inNoise</text>
</a>
<circle cx="26.000000" cy="186.000000" r="1"/>
<line x1="15.000000" y1="15.000000" x2="15.000000" y2="217.000000"  style="stroke: black; stroke-linecap:round; stroke-width:0.25; stroke-dasharray:3,3;"/>
<line x1="15.000000" y1="217.000000" x2="103.700000" y2="217.000000"  style="stroke: black; stroke-linecap:round; stroke-width:0.25; stroke-dasharray:3,3;"/>
<line x1="103.700000" y1="217.000000" x2="103.700000" y2="15.000000"  style="stroke: black; stroke-linecap:round; stroke-width:0.25; stroke-dasharray:3,3;"/>
<line x1="15.000000" y1="15.000000" x2="20.000000" y2="15.000000"  style="stroke: black; stroke-linecap:round; stroke-width:0.25; stroke-dasharray:3,3;"/>
<line x1="61.925000" y1="15.000000" x2="103.700000" y2="15.000000"  style="stroke: black; stroke-linecap:round; stroke-width:0.25; stroke-dasharray:3,3;"/>
<text x="20.000000" y="17.000000" font-family="Verdana" font-size="7">inNoiseBank</text>
<line x1="105.700000" y1="95.000000" x2="108.700000" y2="96.000000"  transform="rotate(0.000000,108.700000,96.000000)" style="stroke: black; stroke-width:0.25;"/>
<line x1="105.700000" y1="97.000000" x2="108.700000" y2="96.000000"  transform="rotate(0.000000,108.700000,96.000000)" style="stroke: black; stroke-width:0.25;"/>
<line x1="105.700000" y1="103.000000" x2="108.700000" y2="104.000000"  transform="rotate(0.000000,108.700000,104.000000)" style="stroke: black; stroke-width:0.25;"/>
<line x1="105.700000" y1="105.000000" x2="108.700000" y2="104.000000"  transform="rotate(0.000000,108.700000,104.000000)" style="stroke: black; stroke-width:0.25;"/>
<line x1="105.700000" y1="111.000000" x2="108.700000" y2="112.000000"  transform="rotate(0.000000,108.700000,112.000000)" style="stroke: black; stroke-width:0.25;"/>
<line x1="105.700000" y1="113.000000" x2="108.700000" y2="112.000000"  transform="rotate(0.000000,108.700000,112.000000)" style="stroke: black; stroke-width:0.25;"/>
<line x1="105.700000" y1="119.000000" x2="108.700000" y2="120.000000"  transform="rotate(0.000000,108.700000,120.000000)" style="stroke: black; stroke-width:0.25;"/>
<line x1="105.700000" y1="121.000000" x2="108.700000" y2="120.000000"  transform="rotate(0.000000,108.700000,120.000000)" style="stroke: black; stroke-width:0.25;"/>
<line x1="105.700000" y1="127.000000" x2="108.700000" y2="128.000000"  transform="rotate(0.000000,108.700000,128.000000)" style="stroke: black; stroke-width:0.25;"/>
<line x1="105.700000" y1="129.000000" x2="108.700000" y2="128.000000"  transform="rotate(0.000000,108.700000,128.000000)" style="stroke: black; stroke-width:0.25;"/>
<line x1="105.700000" y1="135.000000" x2="108.700000" y2="136.000000"  transform="rotate(0.000000,108.700000,136.000000)" style="stroke: black; stroke-width:0.25;"/>
<line x1="105.700000" y1="137.000000" x2="108.700000" y2="136.000000"  transform="rotate(0.000000,108.700000,136.000000)" style="stroke: black; stroke-width:0.25;"/>
<line x1="62.700000" y1="36.000000" x2="66.700000" y2="36.000000"  style="stroke:black; stroke-linecap:round; stroke-width:0.25;"/>
<line x1="62.700000" y1="68.000000" x2="66.700000" y2="68.000000"  style="stroke:black; stroke-linecap:round; stroke-width:0.25;"/>
<line x1="62.700000" y1="100.000000" x2="66.700000" y2="100.000000"  style="stroke:black; stroke-linecap:round; stroke-width:0.25;"/>
<line x1="62.700000" y1="132.000000" x2="66.700000" y2="132.000000"  style="stroke:black; stroke-linecap:round; stroke-width:0.25;"/>
<line x1="62.700000" y1="164.000000" x2="66.700000" y2="164.000000"  style="stroke:black; stroke-linecap:round; stroke-width:0.25;"/>
<line x1="62.700000" y1="196.000000" x2="66.700000" y2="196.000000"  style="stroke:black; stroke-linecap:round; stroke-width:0.25;"/>
<line x1="66.700000" y1="36.000000" x2="90.700000" y2="36.000000"  style="stroke:black; stroke-linecap:round; stroke-width:0.25;"/>
<line x1="66.700000" y1="68.000000" x2="82.700000" y2="68.000000"  style="stroke:black; stroke-linecap:round; stroke-width:0.25;"/>
<line x1="66.700000" y1="100.000000" x2="74.700000" y2="100.000000"  style="stroke:black; stroke-linecap:round; stroke-width:0.25;"/>
<line x1="66.700000" y1="120.000000" x2="90.700000" y2="120.000000"  style="stroke:black; stroke-linecap:round; stroke-width:0.25;"/>
<line x1="66.700000" y1="132.000000" x2="66.700000" y2="120.000000"  style="stroke:black; stroke-linecap:round; stroke-width:0.25;"/>
<line x1="66.700000" y1="132.000000" x2="66.700000" y2="132.000000"  style="stroke:black; stroke-linecap:round; stroke-width:0.25;"/>
<line x1="66.700000" y1="164.000000" x2="74.700000" y2="164.000000"  style="stroke:black; stroke-linecap:round; stroke-width:0.25;"/>
<line x1="66.700000" y1="196.000000" x2="82.700000" y2="196.000000"  style="stroke:black; stroke-linecap:round; stroke-width:0.25;"/>
<line x1="74.700000" y1="100.000000" x2="74.700000" y2="112.000000"  style="stroke:black; stroke-linecap:round; stroke-width:0.25;"/>
<line x1="74.700000" y1="112.000000" x2="90.700000" y2="112.000000"  style="stroke:black; stroke-linecap:round; stroke-width:0.25;"/>
<line x1="74.700000" y1="128.000000" x2="90.700000" y2="128.000000"  style="stroke:black; stroke-linecap:round; stroke-width:0.25;"/>
<line x1="74.700000" y1="164.000000" x2="74.700000" y2="128.000000"  style="stroke:black; stroke-linecap:round; stroke-width:0.25;"/>
<line x1="82.700000" y1="68.000000" x2="82.700000" y2="104.000000"  style="stroke:black; stroke-linecap:round; stroke-width:0.25;"/>
<line x1="82.700000" y1="104.000000" x2="90.700000" y2="104.000000"  style="stroke:black; stroke-linecap:round; stroke-width:0.25;"/>
<line x1="82.700000" y1="136.000000" x2="90.700000" y2="136.000000"  style="stroke:black; stroke-linecap:round; stroke-width:0.25;"/>
<line x1="82.700000" y1="196.000000" x2="82.700000" y2="136.000000"  style="stroke:black; stroke-linecap:round; stroke-width:0.25;"/>
<line x1="90.700000" y1="36.000000" x2="90.700000" y2="96.000000"  style="stroke:black; stroke-linecap:round; stroke-width:0.25;"/>
<line x1="90.700000" y1="96.000000" x2="90.700000" y2="96.000000"  style="stroke:black; stroke-linecap:round; stroke-width:0.25;"/>
<line x1="90.700000" y1="96.000000" x2="94.700000" y2="96.000000"  style="stroke:black; stroke-linecap:round; stroke-width:0.25;"/>
<line x1="90.700000" y1="104.000000" x2="94.700000" y2="104.000000"  style="stroke:black; stroke-linecap:round; stroke-width:0.25;"/>
<line x1="90.700000" y1="112.000000" x2="94.700000" y2="112.000000"  style="stroke:black; stroke-linecap:round; stroke-width:0.25;"/>
<line x1="90.700000" y1="120.000000" x2="94.700000" y2="120.000000"  style="stroke:black; stroke-linecap:round; stroke-width:0.25;"/>
<line x1="90.700000" y1="128.000000" x2="94.700000" y2="128.000000"  style="stroke:black; stroke-linecap:round; stroke-width:0.25;"/>
<line x1="90.700000" y1="136.000000" x2="94.700000" y2="136.000000"  style="stroke:black; stroke-linecap:round; stroke-width:0.25;"/>
<line x1="94.700000" y1="96.000000" x2="98.700000" y2="96.000000"  style="stroke:black; stroke-linecap:round; stroke-width:0.25;"/>
<line x1="94.700000" y1="104.000000" x2="98.700000" y2="104.000000"  style="stroke:black; stroke-linecap:round; stroke-width:0.25;"/>
<line x1="94.700000" y1="112.000000" x2="98.700000" y2="112.000000"  style="stroke:black; stroke-linecap:round; stroke-width:0.25;"/>
<line x1="94.700000" y1="120.000000" x2="98.700000" y2="120.000000"  style="stroke:black; stroke-linecap:round; stroke-width:0.25;"/>
<line x1="94.700000" y1="128.000000" x2="98.700000" y2="128.000000"  style="stroke:black; stroke-linecap:round; stroke-width:0.25;"/>
<line x1="94.700000" y1="136.000000" x2="98.700000" y2="136.000000"  style="stroke:black; stroke-linecap:round; stroke-width:0.25;"/>
<line x1="98.700000" y1="96.000000" x2="108.700000" y2="96.000000"  style="stroke:black; stroke-linecap:round; stroke-width:0.25;"/>
<line x1="98.700000" y1="104.000000" x2="108.700000" y2="104.000000"  style="stroke:black; stroke-linecap:round; stroke-width:0.25;"/>
<line x1="98.700000" y1="112.000000" x2="108.700000" y2="112.000000"  style="stroke:black; stroke-linecap:round; stroke-width:0.25;"/>
<line x1="98.700000" y1="120.000000" x2="108.700000" y2="120.000000"  style="stroke:black; stroke-linecap:round; stroke-width:0.25;"/>
<line x1="98.700000" y1="128.000000" x2="108.700000" y2="128.000000"  style="stroke:black; stroke-linecap:round; stroke-width:0.25;"/>
<line x1="98.700000" y1="136.000000" x2="108.700000" y2="136.000000"  style="stroke:black; stroke-linecap:round; stroke-width:0.25;"/>
</svg>
