<?xml version="1.0"?>
<svg xmlns="http://www.w3.org/2000/svg" xmlns:xlink="http://www.w3.org/1999/xlink" viewBox="0 0 512.400000 360.000000" width="256.200000mm" height="180.000000mm" version="1.1">
<a xlink:href="process.svg">
<rect x="0.000000" y="0.000000" width="511.400000" height="359.000000" rx="0" ry="0" style="stroke:#000000;fill:#FFFFFF;"/>
</a>
<text x="10.000000" y="7.000000" font-family="Verdana" font-size="7"></text>
<rect x="90.000000" y="92.000000" width="24.000000" height="24.000000" rx="0" ry="0" style="stroke:#000000;fill:#FFFFFF;"/>
<text x="102.000000" y="106.000000" font-family="Verdana" font-size="7" text-anchor="middle" fill="#000000">abs</text>
<circle cx="92.000000" cy="94.000000" r="1"/>
<line x1="87.000000" y1="103.000000" x2="90.000000" y2="104.000000"  transform="rotate(0.000000,90.000000,104.000000)" style="stroke: black; stroke-width:0.25;"/>
<line x1="87.000000" y1="105.000000" x2="90.000000" y2="104.000000"  transform="rotate(0.000000,90.000000,104.000000)" style="stroke: black; stroke-width:0.25;"/>
<a xlink:href="linear2db-0x6000017899e0.svg">
<rect x="122.000000" y="92.000000" width="38.700000" height="24.000000" rx="0" ry="0" style="stroke:#000000;fill:#FFFFFF;"/>
</a>
<a xlink:href="linear2db-0x6000017899e0.svg">
<text x="141.350000" y="106.000000" font-family="Verdana" font-size="7" text-anchor="middle" fill="#000000">linear2db</text>
</a>
<circle cx="124.000000" cy="94.000000" r="1"/>
<line x1="119.000000" y1="103.000000" x2="122.000000" y2="104.000000"  transform="rotate(0.000000,122.000000,104.000000)" style="stroke: black; stroke-width:0.25;"/>
<line x1="119.000000" y1="105.000000" x2="122.000000" y2="104.000000"  transform="rotate(0.000000,122.000000,104.000000)" style="stroke: black; stroke-width:0.25;"/>
<rect x="228.700000" y="92.000000" width="141.900000" height="24.000000" rx="0" ry="0" style="stroke:#000000;fill:#FFFFFF;"/>
<text x="299.650000" y="106.000000" font-family="Verdana" font-size="7" text-anchor="middle" fill="#000000">vbargraph(Level 0, -6e+01f, 0.0f)</text>
<circle cx="230.700000" cy="94.000000" r="1"/>
<line x1="225.700000" y1="103.000000" x2="228.700000" y2="104.000000"  transform="rotate(0.000000,228.700000,104.000000)" style="stroke: black; stroke-width:0.25;"/>
<line x1="225.700000" y1="105.000000" x2="228.700000" y2="104.000000"  transform="rotate(0.000000,228.700000,104.000000)" style="stroke: black; stroke-width:0.25;"/>
<line x1="219.700000" y1="83.000000" x2="219.700000" y2="125.000000"  style="stroke: black; stroke-linecap:round; stroke-width:0.25; stroke-dasharray:3,3;"/>
<line x1="219.700000" y1="125.000000" x2="379.600000" y2="125.000000"  style="stroke: black; stroke-linecap:round; stroke-width:0.25; stroke-dasharray:3,3;"/>
<line x1="379.600000" y1="125.000000" x2="379.600000" y2="83.000000"  style="stroke: black; stroke-linecap:round; stroke-width:0.25; stroke-dasharray:3,3;"/>
<line x1="219.700000" y1="83.000000" x2="224.700000" y2="83.000000"  style="stroke: black; stroke-linecap:round; stroke-width:0.25; stroke-dasharray:3,3;"/>
<line x1="273.075000" y1="83.000000" x2="379.600000" y2="83.000000"  style="stroke: black; stroke-linecap:round; stroke-width:0.25; stroke-dasharray:3,3;"/>
<text x="224.700000" y="85.000000" font-family="Verdana" font-size="7">hgroup(input)</text>
<line x1="209.700000" y1="73.000000" x2="209.700000" y2="135.000000"  style="stroke: black; stroke-linecap:round; stroke-width:0.25; stroke-dasharray:3,3;"/>
<line x1="209.700000" y1="135.000000" x2="389.600000" y2="135.000000"  style="stroke: black; stroke-linecap:round; stroke-width:0.25; stroke-dasharray:3,3;"/>
<line x1="389.600000" y1="135.000000" x2="389.600000" y2="73.000000"  style="stroke: black; stroke-linecap:round; stroke-width:0.25; stroke-dasharray:3,3;"/>
<line x1="209.700000" y1="73.000000" x2="214.700000" y2="73.000000"  style="stroke: black; stroke-linecap:round; stroke-width:0.25; stroke-dasharray:3,3;"/>
<line x1="314.675000" y1="73.000000" x2="389.600000" y2="73.000000"  style="stroke: black; stroke-linecap:round; stroke-width:0.25; stroke-dasharray:3,3;"/>
<text x="214.700000" y="75.000000" font-family="Verdana" font-size="7">subgroup(vbar...e+01f, 0.0f))</text>
<line x1="199.700000" y1="63.000000" x2="199.700000" y2="145.000000"  style="stroke: black; stroke-linecap:round; stroke-width:0.25; stroke-dasharray:3,3;"/>
<line x1="199.700000" y1="145.000000" x2="399.600000" y2="145.000000"  style="stroke: black; stroke-linecap:round; stroke-width:0.25; stroke-dasharray:3,3;"/>
<line x1="399.600000" y1="145.000000" x2="399.600000" y2="63.000000"  style="stroke: black; stroke-linecap:round; stroke-width:0.25; stroke-dasharray:3,3;"/>
<line x1="199.700000" y1="63.000000" x2="204.700000" y2="63.000000"  style="stroke: black; stroke-linecap:round; stroke-width:0.25; stroke-dasharray:3,3;"/>
<line x1="278.875000" y1="63.000000" x2="399.600000" y2="63.000000"  style="stroke: black; stroke-linecap:round; stroke-width:0.25; stroke-dasharray:3,3;"/>
<text x="204.700000" y="65.000000" font-family="Verdana" font-size="7">hgroup(INPUT-general)</text>
<line x1="189.700000" y1="53.000000" x2="189.700000" y2="155.000000"  style="stroke: black; stroke-linecap:round; stroke-width:0.25; stroke-dasharray:3,3;"/>
<line x1="189.700000" y1="155.000000" x2="409.600000" y2="155.000000"  style="stroke: black; stroke-linecap:round; stroke-width:0.25; stroke-dasharray:3,3;"/>
<line x1="409.600000" y1="155.000000" x2="409.600000" y2="53.000000"  style="stroke: black; stroke-linecap:round; stroke-width:0.25; stroke-dasharray:3,3;"/>
<line x1="189.700000" y1="53.000000" x2="194.700000" y2="53.000000"  style="stroke: black; stroke-linecap:round; stroke-width:0.25; stroke-dasharray:3,3;"/>
<line x1="294.675000" y1="53.000000" x2="409.600000" y2="53.000000"  style="stroke: black; stroke-linecap:round; stroke-width:0.25; stroke-dasharray:3,3;"/>
<text x="194.700000" y="55.000000" font-family="Verdana" font-size="7">group(hgroup(...+01f, 0.0f)))</text>
<line x1="179.700000" y1="43.000000" x2="179.700000" y2="165.000000"  style="stroke: black; stroke-linecap:round; stroke-width:0.25; stroke-dasharray:3,3;"/>
<line x1="179.700000" y1="165.000000" x2="419.600000" y2="165.000000"  style="stroke: black; stroke-linecap:round; stroke-width:0.25; stroke-dasharray:3,3;"/>
<line x1="419.600000" y1="165.000000" x2="419.600000" y2="43.000000"  style="stroke: black; stroke-linecap:round; stroke-width:0.25; stroke-dasharray:3,3;"/>
<line x1="179.700000" y1="43.000000" x2="184.700000" y2="43.000000"  style="stroke: black; stroke-linecap:round; stroke-width:0.25; stroke-dasharray:3,3;"/>
<line x1="229.850000" y1="43.000000" x2="419.600000" y2="43.000000"  style="stroke: black; stroke-linecap:round; stroke-width:0.25; stroke-dasharray:3,3;"/>
<text x="184.700000" y="45.000000" font-family="Verdana" font-size="7">hgroup(Main)</text>
<line x1="169.700000" y1="33.000000" x2="169.700000" y2="175.000000"  style="stroke: black; stroke-linecap:round; stroke-width:0.25; stroke-dasharray:3,3;"/>
<line x1="169.700000" y1="175.000000" x2="429.600000" y2="175.000000"  style="stroke: black; stroke-linecap:round; stroke-width:0.25; stroke-dasharray:3,3;"/>
<line x1="429.600000" y1="175.000000" x2="429.600000" y2="33.000000"  style="stroke: black; stroke-linecap:round; stroke-width:0.25; stroke-dasharray:3,3;"/>
<line x1="169.700000" y1="33.000000" x2="174.700000" y2="33.000000"  style="stroke: black; stroke-linecap:round; stroke-width:0.25; stroke-dasharray:3,3;"/>
<line x1="274.675000" y1="33.000000" x2="429.600000" y2="33.000000"  style="stroke: black; stroke-linecap:round; stroke-width:0.25; stroke-dasharray:3,3;"/>
<text x="174.700000" y="35.000000" font-family="Verdana" font-size="7">mainPatch(hgr...01f, 0.0f))))</text>
<rect x="446.600000" y="88.000000" width="25.800000" height="24.000000" rx="0" ry="0" style="stroke:#000000;fill:#FFFFFF;"/>
<text x="459.500000" y="102.000000" font-family="Verdana" font-size="7" text-anchor="middle" fill="#000000">attach</text>
<circle cx="448.600000" cy="90.000000" r="1"/>
<line x1="443.600000" y1="95.000000" x2="446.600000" y2="96.000000"  transform="rotate(0.000000,446.600000,96.000000)" style="stroke: black; stroke-width:0.25;"/>
<line x1="443.600000" y1="97.000000" x2="446.600000" y2="96.000000"  transform="rotate(0.000000,446.600000,96.000000)" style="stroke: black; stroke-width:0.25;"/>
<line x1="443.600000" y1="103.000000" x2="446.600000" y2="104.000000"  transform="rotate(0.000000,446.600000,104.000000)" style="stroke: black; stroke-width:0.25;"/>
<line x1="443.600000" y1="105.000000" x2="446.600000" y2="104.000000"  transform="rotate(0.000000,446.600000,104.000000)" style="stroke: black; stroke-width:0.25;"/>
<rect x="90.000000" y="252.000000" width="24.000000" height="24.000000" rx="0" ry="0" style="stroke:#000000;fill:#FFFFFF;"/>
<text x="102.000000" y="266.000000" font-family="Verdana" font-size="7" text-anchor="middle" fill="#000000">abs</text>
<circle cx="92.000000" cy="254.000000" r="1"/>
<line x1="87.000000" y1="263.000000" x2="90.000000" y2="264.000000"  transform="rotate(0.000000,90.000000,264.000000)" style="stroke: black; stroke-width:0.25;"/>
<line x1="87.000000" y1="265.000000" x2="90.000000" y2="264.000000"  transform="rotate(0.000000,90.000000,264.000000)" style="stroke: black; stroke-width:0.25;"/>
<a xlink:href="linear2db-0x6000017899e0.svg">
<rect x="122.000000" y="252.000000" width="38.700000" height="24.000000" rx="0" ry="0" style="stroke:#000000;fill:#FFFFFF;"/>
</a>
<a xlink:href="linear2db-0x6000017899e0.svg">
<text x="141.350000" y="266.000000" font-family="Verdana" font-size="7" text-anchor="middle" fill="#000000">linear2db</text>
</a>
<circle cx="124.000000" cy="254.000000" r="1"/>
<line x1="119.000000" y1="263.000000" x2="122.000000" y2="264.000000"  transform="rotate(0.000000,122.000000,264.000000)" style="stroke: black; stroke-width:0.25;"/>
<line x1="119.000000" y1="265.000000" x2="122.000000" y2="264.000000"  transform="rotate(0.000000,122.000000,264.000000)" style="stroke: black; stroke-width:0.25;"/>
<rect x="228.700000" y="252.000000" width="141.900000" height="24.000000" rx="0" ry="0" style="stroke:#000000;fill:#FFFFFF;"/>
<text x="299.650000" y="266.000000" font-family="Verdana" font-size="7" text-anchor="middle" fill="#000000">vbargraph(Level 1, -6e+01f, 0.0f)</text>
<circle cx="230.700000" cy="254.000000" r="1"/>
<line x1="225.700000" y1="263.000000" x2="228.700000" y2="264.000000"  transform="rotate(0.000000,228.700000,264.000000)" style="stroke: black; stroke-width:0.25;"/>
<line x1="225.700000" y1="265.000000" x2="228.700000" y2="264.000000"  transform="rotate(0.000000,228.700000,264.000000)" style="stroke: black; stroke-width:0.25;"/>
<line x1="219.700000" y1="243.000000" x2="219.700000" y2="285.000000"  style="stroke: black; stroke-linecap:round; stroke-width:0.25; stroke-dasharray:3,3;"/>
<line x1="219.700000" y1="285.000000" x2="379.600000" y2="285.000000"  style="stroke: black; stroke-linecap:round; stroke-width:0.25; stroke-dasharray:3,3;"/>
<line x1="379.600000" y1="285.000000" x2="379.600000" y2="243.000000"  style="stroke: black; stroke-linecap:round; stroke-width:0.25; stroke-dasharray:3,3;"/>
<line x1="219.700000" y1="243.000000" x2="224.700000" y2="243.000000"  style="stroke: black; stroke-linecap:round; stroke-width:0.25; stroke-dasharray:3,3;"/>
<line x1="273.075000" y1="243.000000" x2="379.600000" y2="243.000000"  style="stroke: black; stroke-linecap:round; stroke-width:0.25; stroke-dasharray:3,3;"/>
<text x="224.700000" y="245.000000" font-family="Verdana" font-size="7">hgroup(input)</text>
<line x1="209.700000" y1="233.000000" x2="209.700000" y2="295.000000"  style="stroke: black; stroke-linecap:round; stroke-width:0.25; stroke-dasharray:3,3;"/>
<line x1="209.700000" y1="295.000000" x2="389.600000" y2="295.000000"  style="stroke: black; stroke-linecap:round; stroke-width:0.25; stroke-dasharray:3,3;"/>
<line x1="389.600000" y1="295.000000" x2="389.600000" y2="233.000000"  style="stroke: black; stroke-linecap:round; stroke-width:0.25; stroke-dasharray:3,3;"/>
<line x1="209.700000" y1="233.000000" x2="214.700000" y2="233.000000"  style="stroke: black; stroke-linecap:round; stroke-width:0.25; stroke-dasharray:3,3;"/>
<line x1="314.675000" y1="233.000000" x2="389.600000" y2="233.000000"  style="stroke: black; stroke-linecap:round; stroke-width:0.25; stroke-dasharray:3,3;"/>
<text x="214.700000" y="235.000000" font-family="Verdana" font-size="7">subgroup(vbar...e+01f, 0.0f))</text>
<line x1="199.700000" y1="223.000000" x2="199.700000" y2="305.000000"  style="stroke: black; stroke-linecap:round; stroke-width:0.25; stroke-dasharray:3,3;"/>
<line x1="199.700000" y1="305.000000" x2="399.600000" y2="305.000000"  style="stroke: black; stroke-linecap:round; stroke-width:0.25; stroke-dasharray:3,3;"/>
<line x1="399.600000" y1="305.000000" x2="399.600000" y2="223.000000"  style="stroke: black; stroke-linecap:round; stroke-width:0.25; stroke-dasharray:3,3;"/>
<line x1="199.700000" y1="223.000000" x2="204.700000" y2="223.000000"  style="stroke: black; stroke-linecap:round; stroke-width:0.25; stroke-dasharray:3,3;"/>
<line x1="278.875000" y1="223.000000" x2="399.600000" y2="223.000000"  style="stroke: black; stroke-linecap:round; stroke-width:0.25; stroke-dasharray:3,3;"/>
<text x="204.700000" y="225.000000" font-family="Verdana" font-size="7">hgroup(INPUT-general)</text>
<line x1="189.700000" y1="213.000000" x2="189.700000" y2="315.000000"  style="stroke: black; stroke-linecap:round; stroke-width:0.25; stroke-dasharray:3,3;"/>
<line x1="189.700000" y1="315.000000" x2="409.600000" y2="315.000000"  style="stroke: black; stroke-linecap:round; stroke-width:0.25; stroke-dasharray:3,3;"/>
<line x1="409.600000" y1="315.000000" x2="409.600000" y2="213.000000"  style="stroke: black; stroke-linecap:round; stroke-width:0.25; stroke-dasharray:3,3;"/>
<line x1="189.700000" y1="213.000000" x2="194.700000" y2="213.000000"  style="stroke: black; stroke-linecap:round; stroke-width:0.25; stroke-dasharray:3,3;"/>
<line x1="294.675000" y1="213.000000" x2="409.600000" y2="213.000000"  style="stroke: black; stroke-linecap:round; stroke-width:0.25; stroke-dasharray:3,3;"/>
<text x="194.700000" y="215.000000" font-family="Verdana" font-size="7">group(hgroup(...+01f, 0.0f)))</text>
<line x1="179.700000" y1="203.000000" x2="179.700000" y2="325.000000"  style="stroke: black; stroke-linecap:round; stroke-width:0.25; stroke-dasharray:3,3;"/>
<line x1="179.700000" y1="325.000000" x2="419.600000" y2="325.000000"  style="stroke: black; stroke-linecap:round; stroke-width:0.25; stroke-dasharray:3,3;"/>
<line x1="419.600000" y1="325.000000" x2="419.600000" y2="203.000000"  style="stroke: black; stroke-linecap:round; stroke-width:0.25; stroke-dasharray:3,3;"/>
<line x1="179.700000" y1="203.000000" x2="184.700000" y2="203.000000"  style="stroke: black; stroke-linecap:round; stroke-width:0.25; stroke-dasharray:3,3;"/>
<line x1="229.850000" y1="203.000000" x2="419.600000" y2="203.000000"  style="stroke: black; stroke-linecap:round; stroke-width:0.25; stroke-dasharray:3,3;"/>
<text x="184.700000" y="205.000000" font-family="Verdana" font-size="7">hgroup(Main)</text>
<line x1="169.700000" y1="193.000000" x2="169.700000" y2="335.000000"  style="stroke: black; stroke-linecap:round; stroke-width:0.25; stroke-dasharray:3,3;"/>
<line x1="169.700000" y1="335.000000" x2="429.600000" y2="335.000000"  style="stroke: black; stroke-linecap:round; stroke-width:0.25; stroke-dasharray:3,3;"/>
<line x1="429.600000" y1="335.000000" x2="429.600000" y2="193.000000"  style="stroke: black; stroke-linecap:round; stroke-width:0.25; stroke-dasharray:3,3;"/>
<line x1="169.700000" y1="193.000000" x2="174.700000" y2="193.000000"  style="stroke: black; stroke-linecap:round; stroke-width:0.25; stroke-dasharray:3,3;"/>
<line x1="274.675000" y1="193.000000" x2="429.600000" y2="193.000000"  style="stroke: black; stroke-linecap:round; stroke-width:0.25; stroke-dasharray:3,3;"/>
<text x="174.700000" y="195.000000" font-family="Verdana" font-size="7">mainPatch(hgr...01f, 0.0f))))</text>
<rect x="446.600000" y="248.000000" width="25.800000" height="24.000000" rx="0" ry="0" style="stroke:#000000;fill:#FFFFFF;"/>
<text x="459.500000" y="262.000000" font-family="Verdana" font-size="7" text-anchor="middle" fill="#000000">attach</text>
<circle cx="448.600000" cy="250.000000" r="1"/>
<line x1="443.600000" y1="255.000000" x2="446.600000" y2="256.000000"  transform="rotate(0.000000,446.600000,256.000000)" style="stroke: black; stroke-width:0.25;"/>
<line x1="443.600000" y1="257.000000" x2="446.600000" y2="256.000000"  transform="rotate(0.000000,446.600000,256.000000)" style="stroke: black; stroke-width:0.25;"/>
<line x1="443.600000" y1="263.000000" x2="446.600000" y2="264.000000"  transform="rotate(0.000000,446.600000,264.000000)" style="stroke: black; stroke-width:0.25;"/>
<line x1="443.600000" y1="265.000000" x2="446.600000" y2="264.000000"  transform="rotate(0.000000,446.600000,264.000000)" style="stroke: black; stroke-width:0.25;"/>
<line x1="15.000000" y1="15.000000" x2="15.000000" y2="345.000000"  style="stroke: black; stroke-linecap:round; stroke-width:0.25; stroke-dasharray:3,3;"/>
<line x1="15.000000" y1="345.000000" x2="497.400000" y2="345.000000"  style="stroke: black; stroke-linecap:round; stroke-width:0.25; stroke-dasharray:3,3;"/>
<line x1="497.400000" y1="345.000000" x2="497.400000" y2="15.000000"  style="stroke: black; stroke-linecap:round; stroke-width:0.25; stroke-dasharray:3,3;"/>
<line x1="15.000000" y1="15.000000" x2="20.000000" y2="15.000000"  style="stroke: black; stroke-linecap:round; stroke-width:0.25; stroke-dasharray:3,3;"/>
<line x1="42.575000" y1="15.000000" x2="497.400000" y2="15.000000"  style="stroke: black; stroke-linecap:round; stroke-width:0.25; stroke-dasharray:3,3;"/>
<text x="20.000000" y="17.000000" font-family="Verdana" font-size="7">input</text>
<line x1="499.400000" y1="175.000000" x2="502.400000" y2="176.000000"  transform="rotate(0.000000,502.400000,176.000000)" style="stroke: black; stroke-width:0.25;"/>
<line x1="499.400000" y1="177.000000" x2="502.400000" y2="176.000000"  transform="rotate(0.000000,502.400000,176.000000)" style="stroke: black; stroke-width:0.25;"/>
<line x1="499.400000" y1="183.000000" x2="502.400000" y2="184.000000"  transform="rotate(0.000000,502.400000,184.000000)" style="stroke: black; stroke-width:0.25;"/>
<line x1="499.400000" y1="185.000000" x2="502.400000" y2="184.000000"  transform="rotate(0.000000,502.400000,184.000000)" style="stroke: black; stroke-width:0.25;"/>
<line x1="10.000000" y1="176.000000" x2="20.000000" y2="176.000000"  style="stroke:black; stroke-linecap:round; stroke-width:0.25;"/>
<line x1="10.000000" y1="184.000000" x2="20.000000" y2="184.000000"  style="stroke:black; stroke-linecap:round; stroke-width:0.25;"/>
<line x1="20.000000" y1="176.000000" x2="24.000000" y2="176.000000"  style="stroke:black; stroke-linecap:round; stroke-width:0.25;"/>
<line x1="20.000000" y1="184.000000" x2="24.000000" y2="184.000000"  style="stroke:black; stroke-linecap:round; stroke-width:0.25;"/>
<line x1="24.000000" y1="176.000000" x2="28.000000" y2="176.000000"  style="stroke:black; stroke-linecap:round; stroke-width:0.25;"/>
<line x1="24.000000" y1="184.000000" x2="28.000000" y2="184.000000"  style="stroke:black; stroke-linecap:round; stroke-width:0.25;"/>
<line x1="28.000000" y1="100.000000" x2="36.000000" y2="100.000000"  style="stroke:black; stroke-linecap:round; stroke-width:0.25;"/>
<line x1="28.000000" y1="176.000000" x2="28.000000" y2="100.000000"  style="stroke:black; stroke-linecap:round; stroke-width:0.25;"/>
<line x1="28.000000" y1="176.000000" x2="28.000000" y2="176.000000"  style="stroke:black; stroke-linecap:round; stroke-width:0.25;"/>
<line x1="28.000000" y1="184.000000" x2="36.000000" y2="184.000000"  style="stroke:black; stroke-linecap:round; stroke-width:0.25;"/>
<line x1="36.000000" y1="100.000000" x2="40.000000" y2="100.000000"  style="stroke:black; stroke-linecap:round; stroke-width:0.25;"/>
<line x1="36.000000" y1="184.000000" x2="36.000000" y2="260.000000"  style="stroke:black; stroke-linecap:round; stroke-width:0.25;"/>
<line x1="36.000000" y1="260.000000" x2="36.000000" y2="260.000000"  style="stroke:black; stroke-linecap:round; stroke-width:0.25;"/>
<line x1="36.000000" y1="260.000000" x2="40.000000" y2="260.000000"  style="stroke:black; stroke-linecap:round; stroke-width:0.25;"/>
<line x1="40.000000" y1="100.000000" x2="44.000000" y2="100.000000"  style="stroke:black; stroke-linecap:round; stroke-width:0.25;"/>
<line x1="40.000000" y1="260.000000" x2="44.000000" y2="260.000000"  style="stroke:black; stroke-linecap:round; stroke-width:0.25;"/>
<line x1="44.000000" y1="100.000000" x2="86.000000" y2="24.000000"  style="stroke:black; stroke-linecap:round; stroke-width:0.25;"/>
<line x1="44.000000" y1="100.000000" x2="86.000000" y2="104.000000"  style="stroke:black; stroke-linecap:round; stroke-width:0.25;"/>
<line x1="44.000000" y1="260.000000" x2="86.000000" y2="184.000000"  style="stroke:black; stroke-linecap:round; stroke-width:0.25;"/>
<line x1="44.000000" y1="260.000000" x2="86.000000" y2="264.000000"  style="stroke:black; stroke-linecap:round; stroke-width:0.25;"/>
<line x1="86.000000" y1="24.000000" x2="260.300000" y2="24.000000"  style="stroke:black; stroke-linecap:round; stroke-width:0.25;"/>
<line x1="86.000000" y1="184.000000" x2="260.300000" y2="184.000000"  style="stroke:black; stroke-linecap:round; stroke-width:0.25;"/>
<line x1="86.000000" y1="104.000000" x2="90.000000" y2="104.000000"  style="stroke:black; stroke-linecap:round; stroke-width:0.25;"/>
<line x1="86.000000" y1="264.000000" x2="90.000000" y2="264.000000"  style="stroke:black; stroke-linecap:round; stroke-width:0.25;"/>
<line x1="114.000000" y1="104.000000" x2="118.000000" y2="104.000000"  style="stroke:black; stroke-linecap:round; stroke-width:0.25;"/>
<line x1="114.000000" y1="264.000000" x2="118.000000" y2="264.000000"  style="stroke:black; stroke-linecap:round; stroke-width:0.25;"/>
<line x1="118.000000" y1="104.000000" x2="118.000000" y2="104.000000"  style="stroke:black; stroke-linecap:round; stroke-width:0.25;"/>
<line x1="118.000000" y1="104.000000" x2="122.000000" y2="104.000000"  style="stroke:black; stroke-linecap:round; stroke-width:0.25;"/>
<line x1="118.000000" y1="264.000000" x2="118.000000" y2="264.000000"  style="stroke:black; stroke-linecap:round; stroke-width:0.25;"/>
<line x1="118.000000" y1="264.000000" x2="122.000000" y2="264.000000"  style="stroke:black; stroke-linecap:round; stroke-width:0.25;"/>
<line x1="160.700000" y1="104.000000" x2="164.700000" y2="104.000000"  style="stroke:black; stroke-linecap:round; stroke-width:0.25;"/>
<line x1="160.700000" y1="264.000000" x2="164.700000" y2="264.000000"  style="stroke:black; stroke-linecap:round; stroke-width:0.25;"/>
<line x1="164.700000" y1="104.000000" x2="164.700000" y2="104.000000"  style="stroke:black; stroke-linecap:round; stroke-width:0.25;"/>
<line x1="164.700000" y1="104.000000" x2="174.700000" y2="104.000000"  style="stroke:black; stroke-linecap:round; stroke-width:0.25;"/>
<line x1="164.700000" y1="264.000000" x2="164.700000" y2="264.000000"  style="stroke:black; stroke-linecap:round; stroke-width:0.25;"/>
<line x1="164.700000" y1="264.000000" x2="174.700000" y2="264.000000"  style="stroke:black; stroke-linecap:round; stroke-width:0.25;"/>
<line x1="174.700000" y1="104.000000" x2="184.700000" y2="104.000000"  style="stroke:black; stroke-linecap:round; stroke-width:0.25;"/>
<line x1="174.700000" y1="264.000000" x2="184.700000" y2="264.000000"  style="stroke:black; stroke-linecap:round; stroke-width:0.25;"/>
<line x1="184.700000" y1="104.000000" x2="194.700000" y2="104.000000"  style="stroke:black; stroke-linecap:round; stroke-width:0.25;"/>
<line x1="184.700000" y1="264.000000" x2="194.700000" y2="264.000000"  style="stroke:black; stroke-linecap:round; stroke-width:0.25;"/>
<line x1="194.700000" y1="104.000000" x2="204.700000" y2="104.000000"  style="stroke:black; stroke-linecap:round; stroke-width:0.25;"/>
<line x1="194.700000" y1="264.000000" x2="204.700000" y2="264.000000"  style="stroke:black; stroke-linecap:round; stroke-width:0.25;"/>
<line x1="204.700000" y1="104.000000" x2="214.700000" y2="104.000000"  style="stroke:black; stroke-linecap:round; stroke-width:0.25;"/>
<line x1="204.700000" y1="264.000000" x2="214.700000" y2="264.000000"  style="stroke:black; stroke-linecap:round; stroke-width:0.25;"/>
<line x1="214.700000" y1="104.000000" x2="224.700000" y2="104.000000"  style="stroke:black; stroke-linecap:round; stroke-width:0.25;"/>
<line x1="214.700000" y1="264.000000" x2="224.700000" y2="264.000000"  style="stroke:black; stroke-linecap:round; stroke-width:0.25;"/>
<line x1="224.700000" y1="104.000000" x2="228.700000" y2="104.000000"  style="stroke:black; stroke-linecap:round; stroke-width:0.25;"/>
<line x1="224.700000" y1="264.000000" x2="228.700000" y2="264.000000"  style="stroke:black; stroke-linecap:round; stroke-width:0.25;"/>
<line x1="260.300000" y1="24.000000" x2="434.600000" y2="24.000000"  style="stroke:black; stroke-linecap:round; stroke-width:0.25;"/>
<line x1="260.300000" y1="184.000000" x2="434.600000" y2="184.000000"  style="stroke:black; stroke-linecap:round; stroke-width:0.25;"/>
<line x1="370.600000" y1="104.000000" x2="374.600000" y2="104.000000"  style="stroke:black; stroke-linecap:round; stroke-width:0.25;"/>
<line x1="370.600000" y1="264.000000" x2="374.600000" y2="264.000000"  style="stroke:black; stroke-linecap:round; stroke-width:0.25;"/>
<line x1="374.600000" y1="104.000000" x2="384.600000" y2="104.000000"  style="stroke:black; stroke-linecap:round; stroke-width:0.25;"/>
<line x1="374.600000" y1="264.000000" x2="384.600000" y2="264.000000"  style="stroke:black; stroke-linecap:round; stroke-width:0.25;"/>
<line x1="384.600000" y1="104.000000" x2="394.600000" y2="104.000000"  style="stroke:black; stroke-linecap:round; stroke-width:0.25;"/>
<line x1="384.600000" y1="264.000000" x2="394.600000" y2="264.000000"  style="stroke:black; stroke-linecap:round; stroke-width:0.25;"/>
<line x1="394.600000" y1="104.000000" x2="404.600000" y2="104.000000"  style="stroke:black; stroke-linecap:round; stroke-width:0.25;"/>
<line x1="394.600000" y1="264.000000" x2="404.600000" y2="264.000000"  style="stroke:black; stroke-linecap:round; stroke-width:0.25;"/>
<line x1="404.600000" y1="104.000000" x2="414.600000" y2="104.000000"  style="stroke:black; stroke-linecap:round; stroke-width:0.25;"/>
<line x1="404.600000" y1="264.000000" x2="414.600000" y2="264.000000"  style="stroke:black; stroke-linecap:round; stroke-width:0.25;"/>
<line x1="414.600000" y1="104.000000" x2="424.600000" y2="104.000000"  style="stroke:black; stroke-linecap:round; stroke-width:0.25;"/>
<line x1="414.600000" y1="264.000000" x2="424.600000" y2="264.000000"  style="stroke:black; stroke-linecap:round; stroke-width:0.25;"/>
<line x1="424.600000" y1="104.000000" x2="434.600000" y2="104.000000"  style="stroke:black; stroke-linecap:round; stroke-width:0.25;"/>
<line x1="424.600000" y1="264.000000" x2="434.600000" y2="264.000000"  style="stroke:black; stroke-linecap:round; stroke-width:0.25;"/>
<line x1="434.600000" y1="24.000000" x2="442.600000" y2="24.000000"  style="stroke:black; stroke-linecap:round; stroke-width:0.25;"/>
<line x1="434.600000" y1="184.000000" x2="442.600000" y2="184.000000"  style="stroke:black; stroke-linecap:round; stroke-width:0.25;"/>
<line x1="434.600000" y1="104.000000" x2="442.600000" y2="104.000000"  style="stroke:black; stroke-linecap:round; stroke-width:0.25;"/>
<line x1="434.600000" y1="264.000000" x2="442.600000" y2="264.000000"  style="stroke:black; stroke-linecap:round; stroke-width:0.25;"/>
<line x1="442.600000" y1="24.000000" x2="442.600000" y2="96.000000"  style="stroke:black; stroke-linecap:round; stroke-width:0.25;"/>
<line x1="442.600000" y1="96.000000" x2="442.600000" y2="96.000000"  style="stroke:black; stroke-linecap:round; stroke-width:0.25;"/>
<line x1="442.600000" y1="184.000000" x2="442.600000" y2="256.000000"  style="stroke:black; stroke-linecap:round; stroke-width:0.25;"/>
<line x1="442.600000" y1="256.000000" x2="442.600000" y2="256.000000"  style="stroke:black; stroke-linecap:round; stroke-width:0.25;"/>
<line x1="442.600000" y1="96.000000" x2="446.600000" y2="96.000000"  style="stroke:black; stroke-linecap:round; stroke-width:0.25;"/>
<line x1="442.600000" y1="104.000000" x2="446.600000" y2="104.000000"  style="stroke:black; stroke-linecap:round; stroke-width:0.25;"/>
<line x1="442.600000" y1="256.000000" x2="446.600000" y2="256.000000"  style="stroke:black; stroke-linecap:round; stroke-width:0.25;"/>
<line x1="442.600000" y1="264.000000" x2="446.600000" y2="264.000000"  style="stroke:black; stroke-linecap:round; stroke-width:0.25;"/>
<line x1="472.400000" y1="100.000000" x2="476.400000" y2="100.000000"  style="stroke:black; stroke-linecap:round; stroke-width:0.25;"/>
<line x1="472.400000" y1="260.000000" x2="476.400000" y2="260.000000"  style="stroke:black; stroke-linecap:round; stroke-width:0.25;"/>
<line x1="476.400000" y1="100.000000" x2="484.400000" y2="100.000000"  style="stroke:black; stroke-linecap:round; stroke-width:0.25;"/>
<line x1="476.400000" y1="184.000000" x2="484.400000" y2="184.000000"  style="stroke:black; stroke-linecap:round; stroke-width:0.25;"/>
<line x1="476.400000" y1="260.000000" x2="476.400000" y2="184.000000"  style="stroke:black; stroke-linecap:round; stroke-width:0.25;"/>
<line x1="476.400000" y1="260.000000" x2="476.400000" y2="260.000000"  style="stroke:black; stroke-linecap:round; stroke-width:0.25;"/>
<line x1="484.400000" y1="100.000000" x2="484.400000" y2="176.000000"  style="stroke:black; stroke-linecap:round; stroke-width:0.25;"/>
<line x1="484.400000" y1="176.000000" x2="484.400000" y2="176.000000"  style="stroke:black; stroke-linecap:round; stroke-width:0.25;"/>
<line x1="484.400000" y1="176.000000" x2="488.400000" y2="176.000000"  style="stroke:black; stroke-linecap:round; stroke-width:0.25;"/>
<line x1="484.400000" y1="184.000000" x2="488.400000" y2="184.000000"  style="stroke:black; stroke-linecap:round; stroke-width:0.25;"/>
<line x1="488.400000" y1="176.000000" x2="492.400000" y2="176.000000"  style="stroke:black; stroke-linecap:round; stroke-width:0.25;"/>
<line x1="488.400000" y1="184.000000" x2="492.400000" y2="184.000000"  style="stroke:black; stroke-linecap:round; stroke-width:0.25;"/>
<line x1="492.400000" y1="176.000000" x2="502.400000" y2="176.000000"  style="stroke:black; stroke-linecap:round; stroke-width:0.25;"/>
<line x1="492.400000" y1="184.000000" x2="502.400000" y2="184.000000"  style="stroke:black; stroke-linecap:round; stroke-width:0.25;"/>
</svg>
