<?xml version="1.0"?>
<svg xmlns="http://www.w3.org/2000/svg" xmlns:xlink="http://www.w3.org/1999/xlink" viewBox="0 0 295.200000 200.000000" width="147.600000mm" height="100.000000mm" version="1.1">
<a xlink:href="process.svg">
<rect x="0.000000" y="0.000000" width="294.200000" height="199.000000" rx="0" ry="0" style="stroke:#000000;fill:#FFFFFF;"/>
</a>
<text x="10.000000" y="7.000000" font-family="Verdana" font-size="7"></text>
<rect x="48.000000" y="32.000000" width="51.600000" height="24.000000" rx="0" ry="0" style="stroke:#000000;fill:#FFFFFF;"/>
<text x="73.800000" y="46.000000" font-family="Verdana" font-size="7" text-anchor="middle" fill="#000000">checkbox(1)</text>
<circle cx="50.000000" cy="34.000000" r="1"/>
<rect x="115.600000" y="28.000000" width="24.000000" height="24.000000" rx="0" ry="0" style="stroke:#000000;fill:#FFFFFF;"/>
<text x="127.600000" y="42.000000" font-family="Verdana" font-size="7" text-anchor="middle" fill="#000000">*</text>
<circle cx="117.600000" cy="30.000000" r="1"/>
<line x1="112.600000" y1="35.000000" x2="115.600000" y2="36.000000"  transform="rotate(0.000000,115.600000,36.000000)" style="stroke: black; stroke-width:0.25;"/>
<line x1="112.600000" y1="37.000000" x2="115.600000" y2="36.000000"  transform="rotate(0.000000,115.600000,36.000000)" style="stroke: black; stroke-width:0.25;"/>
<line x1="112.600000" y1="43.000000" x2="115.600000" y2="44.000000"  transform="rotate(0.000000,115.600000,44.000000)" style="stroke: black; stroke-width:0.25;"/>
<line x1="112.600000" y1="45.000000" x2="115.600000" y2="44.000000"  transform="rotate(0.000000,115.600000,44.000000)" style="stroke: black; stroke-width:0.25;"/>
<a xlink:href="volumePlus-0x6000014055f0.svg">
<rect x="155.600000" y="32.000000" width="51.600000" height="24.000000" rx="0" ry="0" style="stroke:#000000;fill:#FFFFFF;"/>
</a>
<a xlink:href="volumePlus-0x6000014055f0.svg">
<text x="181.400000" y="46.000000" font-family="Verdana" font-size="7" text-anchor="middle" fill="#000000">volumePlus</text>
</a>
<circle cx="157.600000" cy="34.000000" r="1"/>
<rect x="223.200000" y="28.000000" width="24.000000" height="24.000000" rx="0" ry="0" style="stroke:#000000;fill:#FFFFFF;"/>
<text x="235.200000" y="42.000000" font-family="Verdana" font-size="7" text-anchor="middle" fill="#000000">*</text>
<circle cx="225.200000" cy="30.000000" r="1"/>
<line x1="220.200000" y1="35.000000" x2="223.200000" y2="36.000000"  transform="rotate(0.000000,223.200000,36.000000)" style="stroke: black; stroke-width:0.25;"/>
<line x1="220.200000" y1="37.000000" x2="223.200000" y2="36.000000"  transform="rotate(0.000000,223.200000,36.000000)" style="stroke: black; stroke-width:0.25;"/>
<line x1="220.200000" y1="43.000000" x2="223.200000" y2="44.000000"  transform="rotate(0.000000,223.200000,44.000000)" style="stroke: black; stroke-width:0.25;"/>
<line x1="220.200000" y1="45.000000" x2="223.200000" y2="44.000000"  transform="rotate(0.000000,223.200000,44.000000)" style="stroke: black; stroke-width:0.25;"/>
<rect x="48.000000" y="72.000000" width="51.600000" height="24.000000" rx="0" ry="0" style="stroke:#000000;fill:#FFFFFF;"/>
<text x="73.800000" y="86.000000" font-family="Verdana" font-size="7" text-anchor="middle" fill="#000000">checkbox(1)</text>
<circle cx="50.000000" cy="74.000000" r="1"/>
<rect x="115.600000" y="68.000000" width="24.000000" height="24.000000" rx="0" ry="0" style="stroke:#000000;fill:#FFFFFF;"/>
<text x="127.600000" y="82.000000" font-family="Verdana" font-size="7" text-anchor="middle" fill="#000000">*</text>
<circle cx="117.600000" cy="70.000000" r="1"/>
<line x1="112.600000" y1="75.000000" x2="115.600000" y2="76.000000"  transform="rotate(0.000000,115.600000,76.000000)" style="stroke: black; stroke-width:0.25;"/>
<line x1="112.600000" y1="77.000000" x2="115.600000" y2="76.000000"  transform="rotate(0.000000,115.600000,76.000000)" style="stroke: black; stroke-width:0.25;"/>
<line x1="112.600000" y1="83.000000" x2="115.600000" y2="84.000000"  transform="rotate(0.000000,115.600000,84.000000)" style="stroke: black; stroke-width:0.25;"/>
<line x1="112.600000" y1="85.000000" x2="115.600000" y2="84.000000"  transform="rotate(0.000000,115.600000,84.000000)" style="stroke: black; stroke-width:0.25;"/>
<a xlink:href="volumePlus-0x6000014055f0.svg">
<rect x="155.600000" y="72.000000" width="51.600000" height="24.000000" rx="0" ry="0" style="stroke:#000000;fill:#FFFFFF;"/>
</a>
<a xlink:href="volumePlus-0x6000014055f0.svg">
<text x="181.400000" y="86.000000" font-family="Verdana" font-size="7" text-anchor="middle" fill="#000000">volumePlus</text>
</a>
<circle cx="157.600000" cy="74.000000" r="1"/>
<rect x="223.200000" y="68.000000" width="24.000000" height="24.000000" rx="0" ry="0" style="stroke:#000000;fill:#FFFFFF;"/>
<text x="235.200000" y="82.000000" font-family="Verdana" font-size="7" text-anchor="middle" fill="#000000">*</text>
<circle cx="225.200000" cy="70.000000" r="1"/>
<line x1="220.200000" y1="75.000000" x2="223.200000" y2="76.000000"  transform="rotate(0.000000,223.200000,76.000000)" style="stroke: black; stroke-width:0.25;"/>
<line x1="220.200000" y1="77.000000" x2="223.200000" y2="76.000000"  transform="rotate(0.000000,223.200000,76.000000)" style="stroke: black; stroke-width:0.25;"/>
<line x1="220.200000" y1="83.000000" x2="223.200000" y2="84.000000"  transform="rotate(0.000000,223.200000,84.000000)" style="stroke: black; stroke-width:0.25;"/>
<line x1="220.200000" y1="85.000000" x2="223.200000" y2="84.000000"  transform="rotate(0.000000,223.200000,84.000000)" style="stroke: black; stroke-width:0.25;"/>
<rect x="48.000000" y="112.000000" width="51.600000" height="24.000000" rx="0" ry="0" style="stroke:#000000;fill:#FFFFFF;"/>
<text x="73.800000" y="126.000000" font-family="Verdana" font-size="7" text-anchor="middle" fill="#000000">checkbox(2)</text>
<circle cx="50.000000" cy="114.000000" r="1"/>
<rect x="115.600000" y="108.000000" width="24.000000" height="24.000000" rx="0" ry="0" style="stroke:#000000;fill:#FFFFFF;"/>
<text x="127.600000" y="122.000000" font-family="Verdana" font-size="7" text-anchor="middle" fill="#000000">*</text>
<circle cx="117.600000" cy="110.000000" r="1"/>
<line x1="112.600000" y1="115.000000" x2="115.600000" y2="116.000000"  transform="rotate(0.000000,115.600000,116.000000)" style="stroke: black; stroke-width:0.25;"/>
<line x1="112.600000" y1="117.000000" x2="115.600000" y2="116.000000"  transform="rotate(0.000000,115.600000,116.000000)" style="stroke: black; stroke-width:0.25;"/>
<line x1="112.600000" y1="123.000000" x2="115.600000" y2="124.000000"  transform="rotate(0.000000,115.600000,124.000000)" style="stroke: black; stroke-width:0.25;"/>
<line x1="112.600000" y1="125.000000" x2="115.600000" y2="124.000000"  transform="rotate(0.000000,115.600000,124.000000)" style="stroke: black; stroke-width:0.25;"/>
<a xlink:href="volumePlus-0x6000014055f0.svg">
<rect x="155.600000" y="112.000000" width="51.600000" height="24.000000" rx="0" ry="0" style="stroke:#000000;fill:#FFFFFF;"/>
</a>
<a xlink:href="volumePlus-0x6000014055f0.svg">
<text x="181.400000" y="126.000000" font-family="Verdana" font-size="7" text-anchor="middle" fill="#000000">volumePlus</text>
</a>
<circle cx="157.600000" cy="114.000000" r="1"/>
<rect x="223.200000" y="108.000000" width="24.000000" height="24.000000" rx="0" ry="0" style="stroke:#000000;fill:#FFFFFF;"/>
<text x="235.200000" y="122.000000" font-family="Verdana" font-size="7" text-anchor="middle" fill="#000000">*</text>
<circle cx="225.200000" cy="110.000000" r="1"/>
<line x1="220.200000" y1="115.000000" x2="223.200000" y2="116.000000"  transform="rotate(0.000000,223.200000,116.000000)" style="stroke: black; stroke-width:0.25;"/>
<line x1="220.200000" y1="117.000000" x2="223.200000" y2="116.000000"  transform="rotate(0.000000,223.200000,116.000000)" style="stroke: black; stroke-width:0.25;"/>
<line x1="220.200000" y1="123.000000" x2="223.200000" y2="124.000000"  transform="rotate(0.000000,223.200000,124.000000)" style="stroke: black; stroke-width:0.25;"/>
<line x1="220.200000" y1="125.000000" x2="223.200000" y2="124.000000"  transform="rotate(0.000000,223.200000,124.000000)" style="stroke: black; stroke-width:0.25;"/>
<rect x="48.000000" y="152.000000" width="51.600000" height="24.000000" rx="0" ry="0" style="stroke:#000000;fill:#FFFFFF;"/>
<text x="73.800000" y="166.000000" font-family="Verdana" font-size="7" text-anchor="middle" fill="#000000">checkbox(2)</text>
<circle cx="50.000000" cy="154.000000" r="1"/>
<rect x="115.600000" y="148.000000" width="24.000000" height="24.000000" rx="0" ry="0" style="stroke:#000000;fill:#FFFFFF;"/>
<text x="127.600000" y="162.000000" font-family="Verdana" font-size="7" text-anchor="middle" fill="#000000">*</text>
<circle cx="117.600000" cy="150.000000" r="1"/>
<line x1="112.600000" y1="155.000000" x2="115.600000" y2="156.000000"  transform="rotate(0.000000,115.600000,156.000000)" style="stroke: black; stroke-width:0.25;"/>
<line x1="112.600000" y1="157.000000" x2="115.600000" y2="156.000000"  transform="rotate(0.000000,115.600000,156.000000)" style="stroke: black; stroke-width:0.25;"/>
<line x1="112.600000" y1="163.000000" x2="115.600000" y2="164.000000"  transform="rotate(0.000000,115.600000,164.000000)" style="stroke: black; stroke-width:0.25;"/>
<line x1="112.600000" y1="165.000000" x2="115.600000" y2="164.000000"  transform="rotate(0.000000,115.600000,164.000000)" style="stroke: black; stroke-width:0.25;"/>
<a xlink:href="volumePlus-0x6000014055f0.svg">
<rect x="155.600000" y="152.000000" width="51.600000" height="24.000000" rx="0" ry="0" style="stroke:#000000;fill:#FFFFFF;"/>
</a>
<a xlink:href="volumePlus-0x6000014055f0.svg">
<text x="181.400000" y="166.000000" font-family="Verdana" font-size="7" text-anchor="middle" fill="#000000">volumePlus</text>
</a>
<circle cx="157.600000" cy="154.000000" r="1"/>
<rect x="223.200000" y="148.000000" width="24.000000" height="24.000000" rx="0" ry="0" style="stroke:#000000;fill:#FFFFFF;"/>
<text x="235.200000" y="162.000000" font-family="Verdana" font-size="7" text-anchor="middle" fill="#000000">*</text>
<circle cx="225.200000" cy="150.000000" r="1"/>
<line x1="220.200000" y1="155.000000" x2="223.200000" y2="156.000000"  transform="rotate(0.000000,223.200000,156.000000)" style="stroke: black; stroke-width:0.25;"/>
<line x1="220.200000" y1="157.000000" x2="223.200000" y2="156.000000"  transform="rotate(0.000000,223.200000,156.000000)" style="stroke: black; stroke-width:0.25;"/>
<line x1="220.200000" y1="163.000000" x2="223.200000" y2="164.000000"  transform="rotate(0.000000,223.200000,164.000000)" style="stroke: black; stroke-width:0.25;"/>
<line x1="220.200000" y1="165.000000" x2="223.200000" y2="164.000000"  transform="rotate(0.000000,223.200000,164.000000)" style="stroke: black; stroke-width:0.25;"/>
<line x1="15.000000" y1="15.000000" x2="15.000000" y2="185.000000"  style="stroke: black; stroke-linecap:round; stroke-width:0.25; stroke-dasharray:3,3;"/>
<line x1="15.000000" y1="185.000000" x2="280.200000" y2="185.000000"  style="stroke: black; stroke-linecap:round; stroke-width:0.25; stroke-dasharray:3,3;"/>
<line x1="280.200000" y1="185.000000" x2="280.200000" y2="15.000000"  style="stroke: black; stroke-linecap:round; stroke-width:0.25; stroke-dasharray:3,3;"/>
<line x1="15.000000" y1="15.000000" x2="20.000000" y2="15.000000"  style="stroke: black; stroke-linecap:round; stroke-width:0.25; stroke-dasharray:3,3;"/>
<line x1="90.950000" y1="15.000000" x2="280.200000" y2="15.000000"  style="stroke: black; stroke-linecap:round; stroke-width:0.25; stroke-dasharray:3,3;"/>
<text x="20.000000" y="17.000000" font-family="Verdana" font-size="7">interruttori_noInput</text>
<line x1="282.200000" y1="87.000000" x2="285.200000" y2="88.000000"  transform="rotate(0.000000,285.200000,88.000000)" style="stroke: black; stroke-width:0.25;"/>
<line x1="282.200000" y1="89.000000" x2="285.200000" y2="88.000000"  transform="rotate(0.000000,285.200000,88.000000)" style="stroke: black; stroke-width:0.25;"/>
<line x1="282.200000" y1="95.000000" x2="285.200000" y2="96.000000"  transform="rotate(0.000000,285.200000,96.000000)" style="stroke: black; stroke-width:0.25;"/>
<line x1="282.200000" y1="97.000000" x2="285.200000" y2="96.000000"  transform="rotate(0.000000,285.200000,96.000000)" style="stroke: black; stroke-width:0.25;"/>
<line x1="282.200000" y1="103.000000" x2="285.200000" y2="104.000000"  transform="rotate(0.000000,285.200000,104.000000)" style="stroke: black; stroke-width:0.25;"/>
<line x1="282.200000" y1="105.000000" x2="285.200000" y2="104.000000"  transform="rotate(0.000000,285.200000,104.000000)" style="stroke: black; stroke-width:0.25;"/>
<line x1="282.200000" y1="111.000000" x2="285.200000" y2="112.000000"  transform="rotate(0.000000,285.200000,112.000000)" style="stroke: black; stroke-width:0.25;"/>
<line x1="282.200000" y1="113.000000" x2="285.200000" y2="112.000000"  transform="rotate(0.000000,285.200000,112.000000)" style="stroke: black; stroke-width:0.25;"/>
<line x1="10.000000" y1="88.000000" x2="20.000000" y2="88.000000"  style="stroke:black; stroke-linecap:round; stroke-width:0.25;"/>
<line x1="10.000000" y1="96.000000" x2="20.000000" y2="96.000000"  style="stroke:black; stroke-linecap:round; stroke-width:0.25;"/>
<line x1="10.000000" y1="104.000000" x2="20.000000" y2="104.000000"  style="stroke:black; stroke-linecap:round; stroke-width:0.25;"/>
<line x1="10.000000" y1="112.000000" x2="20.000000" y2="112.000000"  style="stroke:black; stroke-linecap:round; stroke-width:0.25;"/>
<line x1="20.000000" y1="88.000000" x2="24.000000" y2="88.000000"  style="stroke:black; stroke-linecap:round; stroke-width:0.25;"/>
<line x1="20.000000" y1="96.000000" x2="24.000000" y2="96.000000"  style="stroke:black; stroke-linecap:round; stroke-width:0.25;"/>
<line x1="20.000000" y1="104.000000" x2="24.000000" y2="104.000000"  style="stroke:black; stroke-linecap:round; stroke-width:0.25;"/>
<line x1="20.000000" y1="112.000000" x2="24.000000" y2="112.000000"  style="stroke:black; stroke-linecap:round; stroke-width:0.25;"/>
<line x1="24.000000" y1="88.000000" x2="28.000000" y2="88.000000"  style="stroke:black; stroke-linecap:round; stroke-width:0.25;"/>
<line x1="24.000000" y1="96.000000" x2="28.000000" y2="96.000000"  style="stroke:black; stroke-linecap:round; stroke-width:0.25;"/>
<line x1="24.000000" y1="104.000000" x2="28.000000" y2="104.000000"  style="stroke:black; stroke-linecap:round; stroke-width:0.25;"/>
<line x1="24.000000" y1="112.000000" x2="28.000000" y2="112.000000"  style="stroke:black; stroke-linecap:round; stroke-width:0.25;"/>
<line x1="28.000000" y1="24.000000" x2="44.000000" y2="24.000000"  style="stroke:black; stroke-linecap:round; stroke-width:0.25;"/>
<line x1="28.000000" y1="88.000000" x2="28.000000" y2="24.000000"  style="stroke:black; stroke-linecap:round; stroke-width:0.25;"/>
<line x1="28.000000" y1="88.000000" x2="28.000000" y2="88.000000"  style="stroke:black; stroke-linecap:round; stroke-width:0.25;"/>
<line x1="28.000000" y1="96.000000" x2="28.000000" y2="96.000000"  style="stroke:black; stroke-linecap:round; stroke-width:0.25;"/>
<line x1="28.000000" y1="96.000000" x2="36.000000" y2="96.000000"  style="stroke:black; stroke-linecap:round; stroke-width:0.25;"/>
<line x1="28.000000" y1="104.000000" x2="28.000000" y2="104.000000"  style="stroke:black; stroke-linecap:round; stroke-width:0.25;"/>
<line x1="28.000000" y1="104.000000" x2="44.000000" y2="104.000000"  style="stroke:black; stroke-linecap:round; stroke-width:0.25;"/>
<line x1="28.000000" y1="112.000000" x2="28.000000" y2="112.000000"  style="stroke:black; stroke-linecap:round; stroke-width:0.25;"/>
<line x1="28.000000" y1="112.000000" x2="44.000000" y2="112.000000"  style="stroke:black; stroke-linecap:round; stroke-width:0.25;"/>
<line x1="36.000000" y1="64.000000" x2="44.000000" y2="64.000000"  style="stroke:black; stroke-linecap:round; stroke-width:0.25;"/>
<line x1="36.000000" y1="96.000000" x2="36.000000" y2="64.000000"  style="stroke:black; stroke-linecap:round; stroke-width:0.25;"/>
<line x1="44.000000" y1="24.000000" x2="73.800000" y2="24.000000"  style="stroke:black; stroke-linecap:round; stroke-width:0.25;"/>
<line x1="44.000000" y1="64.000000" x2="73.800000" y2="64.000000"  style="stroke:black; stroke-linecap:round; stroke-width:0.25;"/>
<line x1="44.000000" y1="104.000000" x2="73.800000" y2="104.000000"  style="stroke:black; stroke-linecap:round; stroke-width:0.25;"/>
<line x1="44.000000" y1="112.000000" x2="44.000000" y2="144.000000"  style="stroke:black; stroke-linecap:round; stroke-width:0.25;"/>
<line x1="44.000000" y1="144.000000" x2="44.000000" y2="144.000000"  style="stroke:black; stroke-linecap:round; stroke-width:0.25;"/>
<line x1="44.000000" y1="144.000000" x2="73.800000" y2="144.000000"  style="stroke:black; stroke-linecap:round; stroke-width:0.25;"/>
<line x1="73.800000" y1="24.000000" x2="103.600000" y2="24.000000"  style="stroke:black; stroke-linecap:round; stroke-width:0.25;"/>
<line x1="73.800000" y1="64.000000" x2="103.600000" y2="64.000000"  style="stroke:black; stroke-linecap:round; stroke-width:0.25;"/>
<line x1="73.800000" y1="104.000000" x2="103.600000" y2="104.000000"  style="stroke:black; stroke-linecap:round; stroke-width:0.25;"/>
<line x1="73.800000" y1="144.000000" x2="103.600000" y2="144.000000"  style="stroke:black; stroke-linecap:round; stroke-width:0.25;"/>
<line x1="99.600000" y1="44.000000" x2="103.600000" y2="44.000000"  style="stroke:black; stroke-linecap:round; stroke-width:0.25;"/>
<line x1="99.600000" y1="84.000000" x2="103.600000" y2="84.000000"  style="stroke:black; stroke-linecap:round; stroke-width:0.25;"/>
<line x1="99.600000" y1="124.000000" x2="103.600000" y2="124.000000"  style="stroke:black; stroke-linecap:round; stroke-width:0.25;"/>
<line x1="99.600000" y1="164.000000" x2="103.600000" y2="164.000000"  style="stroke:black; stroke-linecap:round; stroke-width:0.25;"/>
<line x1="103.600000" y1="24.000000" x2="111.600000" y2="24.000000"  style="stroke:black; stroke-linecap:round; stroke-width:0.25;"/>
<line x1="103.600000" y1="44.000000" x2="111.600000" y2="44.000000"  style="stroke:black; stroke-linecap:round; stroke-width:0.25;"/>
<line x1="103.600000" y1="64.000000" x2="111.600000" y2="64.000000"  style="stroke:black; stroke-linecap:round; stroke-width:0.25;"/>
<line x1="103.600000" y1="84.000000" x2="111.600000" y2="84.000000"  style="stroke:black; stroke-linecap:round; stroke-width:0.25;"/>
<line x1="103.600000" y1="104.000000" x2="111.600000" y2="104.000000"  style="stroke:black; stroke-linecap:round; stroke-width:0.25;"/>
<line x1="103.600000" y1="124.000000" x2="111.600000" y2="124.000000"  style="stroke:black; stroke-linecap:round; stroke-width:0.25;"/>
<line x1="103.600000" y1="144.000000" x2="111.600000" y2="144.000000"  style="stroke:black; stroke-linecap:round; stroke-width:0.25;"/>
<line x1="103.600000" y1="164.000000" x2="111.600000" y2="164.000000"  style="stroke:black; stroke-linecap:round; stroke-width:0.25;"/>
<line x1="111.600000" y1="24.000000" x2="111.600000" y2="36.000000"  style="stroke:black; stroke-linecap:round; stroke-width:0.25;"/>
<line x1="111.600000" y1="36.000000" x2="111.600000" y2="36.000000"  style="stroke:black; stroke-linecap:round; stroke-width:0.25;"/>
<line x1="111.600000" y1="36.000000" x2="115.600000" y2="36.000000"  style="stroke:black; stroke-linecap:round; stroke-width:0.25;"/>
<line x1="111.600000" y1="44.000000" x2="115.600000" y2="44.000000"  style="stroke:black; stroke-linecap:round; stroke-width:0.25;"/>
<line x1="111.600000" y1="64.000000" x2="111.600000" y2="76.000000"  style="stroke:black; stroke-linecap:round; stroke-width:0.25;"/>
<line x1="111.600000" y1="76.000000" x2="111.600000" y2="76.000000"  style="stroke:black; stroke-linecap:round; stroke-width:0.25;"/>
<line x1="111.600000" y1="76.000000" x2="115.600000" y2="76.000000"  style="stroke:black; stroke-linecap:round; stroke-width:0.25;"/>
<line x1="111.600000" y1="84.000000" x2="115.600000" y2="84.000000"  style="stroke:black; stroke-linecap:round; stroke-width:0.25;"/>
<line x1="111.600000" y1="104.000000" x2="111.600000" y2="116.000000"  style="stroke:black; stroke-linecap:round; stroke-width:0.25;"/>
<line x1="111.600000" y1="116.000000" x2="111.600000" y2="116.000000"  style="stroke:black; stroke-linecap:round; stroke-width:0.25;"/>
<line x1="111.600000" y1="116.000000" x2="115.600000" y2="116.000000"  style="stroke:black; stroke-linecap:round; stroke-width:0.25;"/>
<line x1="111.600000" y1="124.000000" x2="115.600000" y2="124.000000"  style="stroke:black; stroke-linecap:round; stroke-width:0.25;"/>
<line x1="111.600000" y1="144.000000" x2="111.600000" y2="156.000000"  style="stroke:black; stroke-linecap:round; stroke-width:0.25;"/>
<line x1="111.600000" y1="156.000000" x2="111.600000" y2="156.000000"  style="stroke:black; stroke-linecap:round; stroke-width:0.25;"/>
<line x1="111.600000" y1="156.000000" x2="115.600000" y2="156.000000"  style="stroke:black; stroke-linecap:round; stroke-width:0.25;"/>
<line x1="111.600000" y1="164.000000" x2="115.600000" y2="164.000000"  style="stroke:black; stroke-linecap:round; stroke-width:0.25;"/>
<line x1="139.600000" y1="40.000000" x2="143.600000" y2="40.000000"  style="stroke:black; stroke-linecap:round; stroke-width:0.25;"/>
<line x1="139.600000" y1="80.000000" x2="143.600000" y2="80.000000"  style="stroke:black; stroke-linecap:round; stroke-width:0.25;"/>
<line x1="139.600000" y1="120.000000" x2="143.600000" y2="120.000000"  style="stroke:black; stroke-linecap:round; stroke-width:0.25;"/>
<line x1="139.600000" y1="160.000000" x2="143.600000" y2="160.000000"  style="stroke:black; stroke-linecap:round; stroke-width:0.25;"/>
<line x1="143.600000" y1="24.000000" x2="151.600000" y2="24.000000"  style="stroke:black; stroke-linecap:round; stroke-width:0.25;"/>
<line x1="143.600000" y1="40.000000" x2="143.600000" y2="24.000000"  style="stroke:black; stroke-linecap:round; stroke-width:0.25;"/>
<line x1="143.600000" y1="40.000000" x2="143.600000" y2="40.000000"  style="stroke:black; stroke-linecap:round; stroke-width:0.25;"/>
<line x1="143.600000" y1="64.000000" x2="151.600000" y2="64.000000"  style="stroke:black; stroke-linecap:round; stroke-width:0.25;"/>
<line x1="143.600000" y1="80.000000" x2="143.600000" y2="64.000000"  style="stroke:black; stroke-linecap:round; stroke-width:0.25;"/>
<line x1="143.600000" y1="80.000000" x2="143.600000" y2="80.000000"  style="stroke:black; stroke-linecap:round; stroke-width:0.25;"/>
<line x1="143.600000" y1="104.000000" x2="151.600000" y2="104.000000"  style="stroke:black; stroke-linecap:round; stroke-width:0.25;"/>
<line x1="143.600000" y1="120.000000" x2="143.600000" y2="104.000000"  style="stroke:black; stroke-linecap:round; stroke-width:0.25;"/>
<line x1="143.600000" y1="120.000000" x2="143.600000" y2="120.000000"  style="stroke:black; stroke-linecap:round; stroke-width:0.25;"/>
<line x1="143.600000" y1="144.000000" x2="151.600000" y2="144.000000"  style="stroke:black; stroke-linecap:round; stroke-width:0.25;"/>
<line x1="143.600000" y1="160.000000" x2="143.600000" y2="144.000000"  style="stroke:black; stroke-linecap:round; stroke-width:0.25;"/>
<line x1="143.600000" y1="160.000000" x2="143.600000" y2="160.000000"  style="stroke:black; stroke-linecap:round; stroke-width:0.25;"/>
<line x1="151.600000" y1="24.000000" x2="181.400000" y2="24.000000"  style="stroke:black; stroke-linecap:round; stroke-width:0.25;"/>
<line x1="151.600000" y1="64.000000" x2="181.400000" y2="64.000000"  style="stroke:black; stroke-linecap:round; stroke-width:0.25;"/>
<line x1="151.600000" y1="104.000000" x2="181.400000" y2="104.000000"  style="stroke:black; stroke-linecap:round; stroke-width:0.25;"/>
<line x1="151.600000" y1="144.000000" x2="181.400000" y2="144.000000"  style="stroke:black; stroke-linecap:round; stroke-width:0.25;"/>
<line x1="181.400000" y1="24.000000" x2="211.200000" y2="24.000000"  style="stroke:black; stroke-linecap:round; stroke-width:0.25;"/>
<line x1="181.400000" y1="64.000000" x2="211.200000" y2="64.000000"  style="stroke:black; stroke-linecap:round; stroke-width:0.25;"/>
<line x1="181.400000" y1="104.000000" x2="211.200000" y2="104.000000"  style="stroke:black; stroke-linecap:round; stroke-width:0.25;"/>
<line x1="181.400000" y1="144.000000" x2="211.200000" y2="144.000000"  style="stroke:black; stroke-linecap:round; stroke-width:0.25;"/>
<line x1="207.200000" y1="44.000000" x2="211.200000" y2="44.000000"  style="stroke:black; stroke-linecap:round; stroke-width:0.25;"/>
<line x1="207.200000" y1="84.000000" x2="211.200000" y2="84.000000"  style="stroke:black; stroke-linecap:round; stroke-width:0.25;"/>
<line x1="207.200000" y1="124.000000" x2="211.200000" y2="124.000000"  style="stroke:black; stroke-linecap:round; stroke-width:0.25;"/>
<line x1="207.200000" y1="164.000000" x2="211.200000" y2="164.000000"  style="stroke:black; stroke-linecap:round; stroke-width:0.25;"/>
<line x1="211.200000" y1="24.000000" x2="219.200000" y2="24.000000"  style="stroke:black; stroke-linecap:round; stroke-width:0.25;"/>
<line x1="211.200000" y1="44.000000" x2="219.200000" y2="44.000000"  style="stroke:black; stroke-linecap:round; stroke-width:0.25;"/>
<line x1="211.200000" y1="64.000000" x2="219.200000" y2="64.000000"  style="stroke:black; stroke-linecap:round; stroke-width:0.25;"/>
<line x1="211.200000" y1="84.000000" x2="219.200000" y2="84.000000"  style="stroke:black; stroke-linecap:round; stroke-width:0.25;"/>
<line x1="211.200000" y1="104.000000" x2="219.200000" y2="104.000000"  style="stroke:black; stroke-linecap:round; stroke-width:0.25;"/>
<line x1="211.200000" y1="124.000000" x2="219.200000" y2="124.000000"  style="stroke:black; stroke-linecap:round; stroke-width:0.25;"/>
<line x1="211.200000" y1="144.000000" x2="219.200000" y2="144.000000"  style="stroke:black; stroke-linecap:round; stroke-width:0.25;"/>
<line x1="211.200000" y1="164.000000" x2="219.200000" y2="164.000000"  style="stroke:black; stroke-linecap:round; stroke-width:0.25;"/>
<line x1="219.200000" y1="24.000000" x2="219.200000" y2="36.000000"  style="stroke:black; stroke-linecap:round; stroke-width:0.25;"/>
<line x1="219.200000" y1="36.000000" x2="219.200000" y2="36.000000"  style="stroke:black; stroke-linecap:round; stroke-width:0.25;"/>
<line x1="219.200000" y1="36.000000" x2="223.200000" y2="36.000000"  style="stroke:black; stroke-linecap:round; stroke-width:0.25;"/>
<line x1="219.200000" y1="44.000000" x2="223.200000" y2="44.000000"  style="stroke:black; stroke-linecap:round; stroke-width:0.25;"/>
<line x1="219.200000" y1="64.000000" x2="219.200000" y2="76.000000"  style="stroke:black; stroke-linecap:round; stroke-width:0.25;"/>
<line x1="219.200000" y1="76.000000" x2="219.200000" y2="76.000000"  style="stroke:black; stroke-linecap:round; stroke-width:0.25;"/>
<line x1="219.200000" y1="76.000000" x2="223.200000" y2="76.000000"  style="stroke:black; stroke-linecap:round; stroke-width:0.25;"/>
<line x1="219.200000" y1="84.000000" x2="223.200000" y2="84.000000"  style="stroke:black; stroke-linecap:round; stroke-width:0.25;"/>
<line x1="219.200000" y1="104.000000" x2="219.200000" y2="116.000000"  style="stroke:black; stroke-linecap:round; stroke-width:0.25;"/>
<line x1="219.200000" y1="116.000000" x2="219.200000" y2="116.000000"  style="stroke:black; stroke-linecap:round; stroke-width:0.25;"/>
<line x1="219.200000" y1="116.000000" x2="223.200000" y2="116.000000"  style="stroke:black; stroke-linecap:round; stroke-width:0.25;"/>
<line x1="219.200000" y1="124.000000" x2="223.200000" y2="124.000000"  style="stroke:black; stroke-linecap:round; stroke-width:0.25;"/>
<line x1="219.200000" y1="144.000000" x2="219.200000" y2="156.000000"  style="stroke:black; stroke-linecap:round; stroke-width:0.25;"/>
<line x1="219.200000" y1="156.000000" x2="219.200000" y2="156.000000"  style="stroke:black; stroke-linecap:round; stroke-width:0.25;"/>
<line x1="219.200000" y1="156.000000" x2="223.200000" y2="156.000000"  style="stroke:black; stroke-linecap:round; stroke-width:0.25;"/>
<line x1="219.200000" y1="164.000000" x2="223.200000" y2="164.000000"  style="stroke:black; stroke-linecap:round; stroke-width:0.25;"/>
<line x1="247.200000" y1="40.000000" x2="251.200000" y2="40.000000"  style="stroke:black; stroke-linecap:round; stroke-width:0.25;"/>
<line x1="247.200000" y1="80.000000" x2="251.200000" y2="80.000000"  style="stroke:black; stroke-linecap:round; stroke-width:0.25;"/>
<line x1="247.200000" y1="120.000000" x2="251.200000" y2="120.000000"  style="stroke:black; stroke-linecap:round; stroke-width:0.25;"/>
<line x1="247.200000" y1="160.000000" x2="251.200000" y2="160.000000"  style="stroke:black; stroke-linecap:round; stroke-width:0.25;"/>
<line x1="251.200000" y1="40.000000" x2="267.200000" y2="40.000000"  style="stroke:black; stroke-linecap:round; stroke-width:0.25;"/>
<line x1="251.200000" y1="80.000000" x2="259.200000" y2="80.000000"  style="stroke:black; stroke-linecap:round; stroke-width:0.25;"/>
<line x1="251.200000" y1="104.000000" x2="267.200000" y2="104.000000"  style="stroke:black; stroke-linecap:round; stroke-width:0.25;"/>
<line x1="251.200000" y1="120.000000" x2="251.200000" y2="104.000000"  style="stroke:black; stroke-linecap:round; stroke-width:0.25;"/>
<line x1="251.200000" y1="120.000000" x2="251.200000" y2="120.000000"  style="stroke:black; stroke-linecap:round; stroke-width:0.25;"/>
<line x1="251.200000" y1="160.000000" x2="259.200000" y2="160.000000"  style="stroke:black; stroke-linecap:round; stroke-width:0.25;"/>
<line x1="259.200000" y1="80.000000" x2="259.200000" y2="96.000000"  style="stroke:black; stroke-linecap:round; stroke-width:0.25;"/>
<line x1="259.200000" y1="96.000000" x2="267.200000" y2="96.000000"  style="stroke:black; stroke-linecap:round; stroke-width:0.25;"/>
<line x1="259.200000" y1="112.000000" x2="267.200000" y2="112.000000"  style="stroke:black; stroke-linecap:round; stroke-width:0.25;"/>
<line x1="259.200000" y1="160.000000" x2="259.200000" y2="112.000000"  style="stroke:black; stroke-linecap:round; stroke-width:0.25;"/>
<line x1="267.200000" y1="40.000000" x2="267.200000" y2="88.000000"  style="stroke:black; stroke-linecap:round; stroke-width:0.25;"/>
<line x1="267.200000" y1="88.000000" x2="267.200000" y2="88.000000"  style="stroke:black; stroke-linecap:round; stroke-width:0.25;"/>
<line x1="267.200000" y1="88.000000" x2="271.200000" y2="88.000000"  style="stroke:black; stroke-linecap:round; stroke-width:0.25;"/>
<line x1="267.200000" y1="96.000000" x2="271.200000" y2="96.000000"  style="stroke:black; stroke-linecap:round; stroke-width:0.25;"/>
<line x1="267.200000" y1="104.000000" x2="271.200000" y2="104.000000"  style="stroke:black; stroke-linecap:round; stroke-width:0.25;"/>
<line x1="267.200000" y1="112.000000" x2="271.200000" y2="112.000000"  style="stroke:black; stroke-linecap:round; stroke-width:0.25;"/>
<line x1="271.200000" y1="88.000000" x2="275.200000" y2="88.000000"  style="stroke:black; stroke-linecap:round; stroke-width:0.25;"/>
<line x1="271.200000" y1="96.000000" x2="275.200000" y2="96.000000"  style="stroke:black; stroke-linecap:round; stroke-width:0.25;"/>
<line x1="271.200000" y1="104.000000" x2="275.200000" y2="104.000000"  style="stroke:black; stroke-linecap:round; stroke-width:0.25;"/>
<line x1="271.200000" y1="112.000000" x2="275.200000" y2="112.000000"  style="stroke:black; stroke-linecap:round; stroke-width:0.25;"/>
<line x1="275.200000" y1="88.000000" x2="285.200000" y2="88.000000"  style="stroke:black; stroke-linecap:round; stroke-width:0.25;"/>
<line x1="275.200000" y1="96.000000" x2="285.200000" y2="96.000000"  style="stroke:black; stroke-linecap:round; stroke-width:0.25;"/>
<line x1="275.200000" y1="104.000000" x2="285.200000" y2="104.000000"  style="stroke:black; stroke-linecap:round; stroke-width:0.25;"/>
<line x1="275.200000" y1="112.000000" x2="285.200000" y2="112.000000"  style="stroke:black; stroke-linecap:round; stroke-width:0.25;"/>
</svg>
