<?xml version="1.0"?>
<svg xmlns="http://www.w3.org/2000/svg" xmlns:xlink="http://www.w3.org/1999/xlink" viewBox="0 0 244.000000 288.000000" width="122.000000mm" height="144.000000mm" version="1.1">
<a xlink:href="multichord-0x6000214b1440.svg">
<rect x="0.000000" y="0.000000" width="243.000000" height="287.000000" rx="0" ry="0" style="stroke:#000000;fill:#FFFFFF;"/>
</a>
<text x="10.000000" y="7.000000" font-family="Verdana" font-size="7"></text>
<rect x="50.000000" y="42.000000" width="24.000000" height="24.000000" rx="0" ry="0" style="stroke:#000000;fill:#FFFFFF;"/>
<text x="62.000000" y="56.000000" font-family="Verdana" font-size="7" text-anchor="middle" fill="#000000">1</text>
<circle cx="52.000000" cy="44.000000" r="1"/>
<line x1="41.000000" y1="33.000000" x2="41.000000" y2="75.000000"  style="stroke: black; stroke-linecap:round; stroke-width:0.25; stroke-dasharray:3,3;"/>
<line x1="41.000000" y1="75.000000" x2="83.000000" y2="75.000000"  style="stroke: black; stroke-linecap:round; stroke-width:0.25; stroke-dasharray:3,3;"/>
<line x1="83.000000" y1="75.000000" x2="83.000000" y2="33.000000"  style="stroke: black; stroke-linecap:round; stroke-width:0.25; stroke-dasharray:3,3;"/>
<line x1="41.000000" y1="33.000000" x2="46.000000" y2="33.000000"  style="stroke: black; stroke-linecap:round; stroke-width:0.25; stroke-dasharray:3,3;"/>
<line x1="83.000000" y1="33.000000" x2="83.000000" y2="33.000000"  style="stroke: black; stroke-linecap:round; stroke-width:0.25; stroke-dasharray:3,3;"/>
<text x="46.000000" y="35.000000" font-family="Verdana" font-size="7">signum(90)</text>
<rect x="42.650000" y="84.000000" width="38.700000" height="24.000000" rx="0" ry="0" style="stroke:#000000;fill:#FFFFFF;"/>
<text x="62.000000" y="98.000000" font-family="Verdana" font-size="7" text-anchor="middle" fill="#000000">[44] amp1</text>
<circle cx="44.650000" cy="86.000000" r="1"/>
<rect x="100.000000" y="58.000000" width="24.000000" height="24.000000" rx="0" ry="0" style="stroke:#000000;fill:#FFFFFF;"/>
<text x="112.000000" y="72.000000" font-family="Verdana" font-size="7" text-anchor="middle" fill="#000000">-</text>
<circle cx="102.000000" cy="60.000000" r="1"/>
<line x1="97.000000" y1="65.000000" x2="100.000000" y2="66.000000"  transform="rotate(0.000000,100.000000,66.000000)" style="stroke: black; stroke-width:0.25;"/>
<line x1="97.000000" y1="67.000000" x2="100.000000" y2="66.000000"  transform="rotate(0.000000,100.000000,66.000000)" style="stroke: black; stroke-width:0.25;"/>
<line x1="97.000000" y1="73.000000" x2="100.000000" y2="74.000000"  transform="rotate(0.000000,100.000000,74.000000)" style="stroke: black; stroke-width:0.25;"/>
<line x1="97.000000" y1="75.000000" x2="100.000000" y2="74.000000"  transform="rotate(0.000000,100.000000,74.000000)" style="stroke: black; stroke-width:0.25;"/>
<rect x="70.000000" y="116.000000" width="24.000000" height="24.000000" rx="0" ry="0" style="stroke:#000000;fill:#FFFFFF;"/>
<text x="82.000000" y="130.000000" font-family="Verdana" font-size="7" text-anchor="middle" fill="#000000">2</text>
<circle cx="72.000000" cy="118.000000" r="1"/>
<rect x="140.000000" y="74.000000" width="24.000000" height="24.000000" rx="0" ry="0" style="stroke:#000000;fill:#FFFFFF;"/>
<text x="152.000000" y="88.000000" font-family="Verdana" font-size="7" text-anchor="middle" fill="#000000">pow</text>
<circle cx="142.000000" cy="76.000000" r="1"/>
<line x1="137.000000" y1="81.000000" x2="140.000000" y2="82.000000"  transform="rotate(0.000000,140.000000,82.000000)" style="stroke: black; stroke-width:0.25;"/>
<line x1="137.000000" y1="83.000000" x2="140.000000" y2="82.000000"  transform="rotate(0.000000,140.000000,82.000000)" style="stroke: black; stroke-width:0.25;"/>
<line x1="137.000000" y1="89.000000" x2="140.000000" y2="90.000000"  transform="rotate(0.000000,140.000000,90.000000)" style="stroke: black; stroke-width:0.25;"/>
<line x1="137.000000" y1="91.000000" x2="140.000000" y2="90.000000"  transform="rotate(0.000000,140.000000,90.000000)" style="stroke: black; stroke-width:0.25;"/>
<rect x="180.000000" y="70.000000" width="24.000000" height="24.000000" rx="0" ry="0" style="stroke:#000000;fill:#FFFFFF;"/>
<text x="192.000000" y="84.000000" font-family="Verdana" font-size="7" text-anchor="middle" fill="#000000">*</text>
<circle cx="182.000000" cy="72.000000" r="1"/>
<line x1="177.000000" y1="77.000000" x2="180.000000" y2="78.000000"  transform="rotate(0.000000,180.000000,78.000000)" style="stroke: black; stroke-width:0.25;"/>
<line x1="177.000000" y1="79.000000" x2="180.000000" y2="78.000000"  transform="rotate(0.000000,180.000000,78.000000)" style="stroke: black; stroke-width:0.25;"/>
<line x1="177.000000" y1="85.000000" x2="180.000000" y2="86.000000"  transform="rotate(0.000000,180.000000,86.000000)" style="stroke: black; stroke-width:0.25;"/>
<line x1="177.000000" y1="87.000000" x2="180.000000" y2="86.000000"  transform="rotate(0.000000,180.000000,86.000000)" style="stroke: black; stroke-width:0.25;"/>
<rect x="50.000000" y="166.000000" width="24.000000" height="24.000000" rx="0" ry="0" style="stroke:#000000;fill:#FFFFFF;"/>
<text x="62.000000" y="180.000000" font-family="Verdana" font-size="7" text-anchor="middle" fill="#000000">1</text>
<circle cx="52.000000" cy="168.000000" r="1"/>
<line x1="41.000000" y1="157.000000" x2="41.000000" y2="199.000000"  style="stroke: black; stroke-linecap:round; stroke-width:0.25; stroke-dasharray:3,3;"/>
<line x1="41.000000" y1="199.000000" x2="83.000000" y2="199.000000"  style="stroke: black; stroke-linecap:round; stroke-width:0.25; stroke-dasharray:3,3;"/>
<line x1="83.000000" y1="199.000000" x2="83.000000" y2="157.000000"  style="stroke: black; stroke-linecap:round; stroke-width:0.25; stroke-dasharray:3,3;"/>
<line x1="41.000000" y1="157.000000" x2="46.000000" y2="157.000000"  style="stroke: black; stroke-linecap:round; stroke-width:0.25; stroke-dasharray:3,3;"/>
<line x1="83.000000" y1="157.000000" x2="83.000000" y2="157.000000"  style="stroke: black; stroke-linecap:round; stroke-width:0.25; stroke-dasharray:3,3;"/>
<text x="46.000000" y="159.000000" font-family="Verdana" font-size="7">signum(90)</text>
<rect x="42.650000" y="208.000000" width="38.700000" height="24.000000" rx="0" ry="0" style="stroke:#000000;fill:#FFFFFF;"/>
<text x="62.000000" y="222.000000" font-family="Verdana" font-size="7" text-anchor="middle" fill="#000000">[44] amp1</text>
<circle cx="44.650000" cy="210.000000" r="1"/>
<rect x="100.000000" y="182.000000" width="24.000000" height="24.000000" rx="0" ry="0" style="stroke:#000000;fill:#FFFFFF;"/>
<text x="112.000000" y="196.000000" font-family="Verdana" font-size="7" text-anchor="middle" fill="#000000">-</text>
<circle cx="102.000000" cy="184.000000" r="1"/>
<line x1="97.000000" y1="189.000000" x2="100.000000" y2="190.000000"  transform="rotate(0.000000,100.000000,190.000000)" style="stroke: black; stroke-width:0.25;"/>
<line x1="97.000000" y1="191.000000" x2="100.000000" y2="190.000000"  transform="rotate(0.000000,100.000000,190.000000)" style="stroke: black; stroke-width:0.25;"/>
<line x1="97.000000" y1="197.000000" x2="100.000000" y2="198.000000"  transform="rotate(0.000000,100.000000,198.000000)" style="stroke: black; stroke-width:0.25;"/>
<line x1="97.000000" y1="199.000000" x2="100.000000" y2="198.000000"  transform="rotate(0.000000,100.000000,198.000000)" style="stroke: black; stroke-width:0.25;"/>
<rect x="70.000000" y="240.000000" width="24.000000" height="24.000000" rx="0" ry="0" style="stroke:#000000;fill:#FFFFFF;"/>
<text x="82.000000" y="254.000000" font-family="Verdana" font-size="7" text-anchor="middle" fill="#000000">2</text>
<circle cx="72.000000" cy="242.000000" r="1"/>
<rect x="140.000000" y="198.000000" width="24.000000" height="24.000000" rx="0" ry="0" style="stroke:#000000;fill:#FFFFFF;"/>
<text x="152.000000" y="212.000000" font-family="Verdana" font-size="7" text-anchor="middle" fill="#000000">pow</text>
<circle cx="142.000000" cy="200.000000" r="1"/>
<line x1="137.000000" y1="205.000000" x2="140.000000" y2="206.000000"  transform="rotate(0.000000,140.000000,206.000000)" style="stroke: black; stroke-width:0.25;"/>
<line x1="137.000000" y1="207.000000" x2="140.000000" y2="206.000000"  transform="rotate(0.000000,140.000000,206.000000)" style="stroke: black; stroke-width:0.25;"/>
<line x1="137.000000" y1="213.000000" x2="140.000000" y2="214.000000"  transform="rotate(0.000000,140.000000,214.000000)" style="stroke: black; stroke-width:0.25;"/>
<line x1="137.000000" y1="215.000000" x2="140.000000" y2="214.000000"  transform="rotate(0.000000,140.000000,214.000000)" style="stroke: black; stroke-width:0.25;"/>
<rect x="180.000000" y="194.000000" width="24.000000" height="24.000000" rx="0" ry="0" style="stroke:#000000;fill:#FFFFFF;"/>
<text x="192.000000" y="208.000000" font-family="Verdana" font-size="7" text-anchor="middle" fill="#000000">*</text>
<circle cx="182.000000" cy="196.000000" r="1"/>
<line x1="177.000000" y1="201.000000" x2="180.000000" y2="202.000000"  transform="rotate(0.000000,180.000000,202.000000)" style="stroke: black; stroke-width:0.25;"/>
<line x1="177.000000" y1="203.000000" x2="180.000000" y2="202.000000"  transform="rotate(0.000000,180.000000,202.000000)" style="stroke: black; stroke-width:0.25;"/>
<line x1="177.000000" y1="209.000000" x2="180.000000" y2="210.000000"  transform="rotate(0.000000,180.000000,210.000000)" style="stroke: black; stroke-width:0.25;"/>
<line x1="177.000000" y1="211.000000" x2="180.000000" y2="210.000000"  transform="rotate(0.000000,180.000000,210.000000)" style="stroke: black; stroke-width:0.25;"/>
<line x1="15.000000" y1="15.000000" x2="15.000000" y2="273.000000"  style="stroke: black; stroke-linecap:round; stroke-width:0.25; stroke-dasharray:3,3;"/>
<line x1="15.000000" y1="273.000000" x2="229.000000" y2="273.000000"  style="stroke: black; stroke-linecap:round; stroke-width:0.25; stroke-dasharray:3,3;"/>
<line x1="229.000000" y1="273.000000" x2="229.000000" y2="15.000000"  style="stroke: black; stroke-linecap:round; stroke-width:0.25; stroke-dasharray:3,3;"/>
<line x1="15.000000" y1="15.000000" x2="20.000000" y2="15.000000"  style="stroke: black; stroke-linecap:round; stroke-width:0.25; stroke-dasharray:3,3;"/>
<line x1="132.875000" y1="15.000000" x2="229.000000" y2="15.000000"  style="stroke: black; stroke-linecap:round; stroke-width:0.25; stroke-dasharray:3,3;"/>
<text x="20.000000" y="17.000000" font-family="Verdana" font-size="7">inviluppiFbk((1,x44 : -),2 : pow)</text>
<line x1="231.000000" y1="139.000000" x2="234.000000" y2="140.000000"  transform="rotate(0.000000,234.000000,140.000000)" style="stroke: black; stroke-width:0.25;"/>
<line x1="231.000000" y1="141.000000" x2="234.000000" y2="140.000000"  transform="rotate(0.000000,234.000000,140.000000)" style="stroke: black; stroke-width:0.25;"/>
<line x1="231.000000" y1="147.000000" x2="234.000000" y2="148.000000"  transform="rotate(0.000000,234.000000,148.000000)" style="stroke: black; stroke-width:0.25;"/>
<line x1="231.000000" y1="149.000000" x2="234.000000" y2="148.000000"  transform="rotate(0.000000,234.000000,148.000000)" style="stroke: black; stroke-width:0.25;"/>
<line x1="10.000000" y1="140.000000" x2="20.000000" y2="140.000000"  style="stroke:black; stroke-linecap:round; stroke-width:0.25;"/>
<line x1="10.000000" y1="148.000000" x2="20.000000" y2="148.000000"  style="stroke:black; stroke-linecap:round; stroke-width:0.25;"/>
<line x1="20.000000" y1="140.000000" x2="24.000000" y2="140.000000"  style="stroke:black; stroke-linecap:round; stroke-width:0.25;"/>
<line x1="20.000000" y1="148.000000" x2="24.000000" y2="148.000000"  style="stroke:black; stroke-linecap:round; stroke-width:0.25;"/>
<line x1="24.000000" y1="140.000000" x2="28.000000" y2="140.000000"  style="stroke:black; stroke-linecap:round; stroke-width:0.25;"/>
<line x1="24.000000" y1="148.000000" x2="28.000000" y2="148.000000"  style="stroke:black; stroke-linecap:round; stroke-width:0.25;"/>
<line x1="28.000000" y1="24.000000" x2="36.000000" y2="24.000000"  style="stroke:black; stroke-linecap:round; stroke-width:0.25;"/>
<line x1="28.000000" y1="140.000000" x2="28.000000" y2="24.000000"  style="stroke:black; stroke-linecap:round; stroke-width:0.25;"/>
<line x1="28.000000" y1="140.000000" x2="28.000000" y2="140.000000"  style="stroke:black; stroke-linecap:round; stroke-width:0.25;"/>
<line x1="28.000000" y1="148.000000" x2="36.000000" y2="148.000000"  style="stroke:black; stroke-linecap:round; stroke-width:0.25;"/>
<line x1="36.000000" y1="24.000000" x2="102.000000" y2="24.000000"  style="stroke:black; stroke-linecap:round; stroke-width:0.25;"/>
<line x1="36.000000" y1="148.000000" x2="102.000000" y2="148.000000"  style="stroke:black; stroke-linecap:round; stroke-width:0.25;"/>
<line x1="74.000000" y1="54.000000" x2="78.000000" y2="54.000000"  style="stroke:black; stroke-linecap:round; stroke-width:0.25;"/>
<line x1="74.000000" y1="178.000000" x2="78.000000" y2="178.000000"  style="stroke:black; stroke-linecap:round; stroke-width:0.25;"/>
<line x1="78.000000" y1="54.000000" x2="88.000000" y2="54.000000"  style="stroke:black; stroke-linecap:round; stroke-width:0.25;"/>
<line x1="78.000000" y1="178.000000" x2="88.000000" y2="178.000000"  style="stroke:black; stroke-linecap:round; stroke-width:0.25;"/>
<line x1="81.350000" y1="96.000000" x2="85.350000" y2="96.000000"  style="stroke:black; stroke-linecap:round; stroke-width:0.25;"/>
<line x1="81.350000" y1="220.000000" x2="85.350000" y2="220.000000"  style="stroke:black; stroke-linecap:round; stroke-width:0.25;"/>
<line x1="85.350000" y1="96.000000" x2="88.000000" y2="96.000000"  style="stroke:black; stroke-linecap:round; stroke-width:0.25;"/>
<line x1="85.350000" y1="220.000000" x2="88.000000" y2="220.000000"  style="stroke:black; stroke-linecap:round; stroke-width:0.25;"/>
<line x1="88.000000" y1="54.000000" x2="96.000000" y2="54.000000"  style="stroke:black; stroke-linecap:round; stroke-width:0.25;"/>
<line x1="88.000000" y1="74.000000" x2="96.000000" y2="74.000000"  style="stroke:black; stroke-linecap:round; stroke-width:0.25;"/>
<line x1="88.000000" y1="96.000000" x2="88.000000" y2="74.000000"  style="stroke:black; stroke-linecap:round; stroke-width:0.25;"/>
<line x1="88.000000" y1="96.000000" x2="88.000000" y2="96.000000"  style="stroke:black; stroke-linecap:round; stroke-width:0.25;"/>
<line x1="88.000000" y1="178.000000" x2="96.000000" y2="178.000000"  style="stroke:black; stroke-linecap:round; stroke-width:0.25;"/>
<line x1="88.000000" y1="198.000000" x2="96.000000" y2="198.000000"  style="stroke:black; stroke-linecap:round; stroke-width:0.25;"/>
<line x1="88.000000" y1="220.000000" x2="88.000000" y2="198.000000"  style="stroke:black; stroke-linecap:round; stroke-width:0.25;"/>
<line x1="88.000000" y1="220.000000" x2="88.000000" y2="220.000000"  style="stroke:black; stroke-linecap:round; stroke-width:0.25;"/>
<line x1="94.000000" y1="128.000000" x2="98.000000" y2="128.000000"  style="stroke:black; stroke-linecap:round; stroke-width:0.25;"/>
<line x1="94.000000" y1="252.000000" x2="98.000000" y2="252.000000"  style="stroke:black; stroke-linecap:round; stroke-width:0.25;"/>
<line x1="96.000000" y1="54.000000" x2="96.000000" y2="66.000000"  style="stroke:black; stroke-linecap:round; stroke-width:0.25;"/>
<line x1="96.000000" y1="66.000000" x2="96.000000" y2="66.000000"  style="stroke:black; stroke-linecap:round; stroke-width:0.25;"/>
<line x1="96.000000" y1="66.000000" x2="100.000000" y2="66.000000"  style="stroke:black; stroke-linecap:round; stroke-width:0.25;"/>
<line x1="96.000000" y1="74.000000" x2="100.000000" y2="74.000000"  style="stroke:black; stroke-linecap:round; stroke-width:0.25;"/>
<line x1="96.000000" y1="178.000000" x2="96.000000" y2="190.000000"  style="stroke:black; stroke-linecap:round; stroke-width:0.25;"/>
<line x1="96.000000" y1="190.000000" x2="96.000000" y2="190.000000"  style="stroke:black; stroke-linecap:round; stroke-width:0.25;"/>
<line x1="96.000000" y1="190.000000" x2="100.000000" y2="190.000000"  style="stroke:black; stroke-linecap:round; stroke-width:0.25;"/>
<line x1="96.000000" y1="198.000000" x2="100.000000" y2="198.000000"  style="stroke:black; stroke-linecap:round; stroke-width:0.25;"/>
<line x1="98.000000" y1="128.000000" x2="128.000000" y2="128.000000"  style="stroke:black; stroke-linecap:round; stroke-width:0.25;"/>
<line x1="98.000000" y1="252.000000" x2="128.000000" y2="252.000000"  style="stroke:black; stroke-linecap:round; stroke-width:0.25;"/>
<line x1="102.000000" y1="24.000000" x2="168.000000" y2="24.000000"  style="stroke:black; stroke-linecap:round; stroke-width:0.25;"/>
<line x1="102.000000" y1="148.000000" x2="168.000000" y2="148.000000"  style="stroke:black; stroke-linecap:round; stroke-width:0.25;"/>
<line x1="124.000000" y1="70.000000" x2="128.000000" y2="70.000000"  style="stroke:black; stroke-linecap:round; stroke-width:0.25;"/>
<line x1="124.000000" y1="194.000000" x2="128.000000" y2="194.000000"  style="stroke:black; stroke-linecap:round; stroke-width:0.25;"/>
<line x1="128.000000" y1="70.000000" x2="136.000000" y2="70.000000"  style="stroke:black; stroke-linecap:round; stroke-width:0.25;"/>
<line x1="128.000000" y1="90.000000" x2="136.000000" y2="90.000000"  style="stroke:black; stroke-linecap:round; stroke-width:0.25;"/>
<line x1="128.000000" y1="128.000000" x2="128.000000" y2="90.000000"  style="stroke:black; stroke-linecap:round; stroke-width:0.25;"/>
<line x1="128.000000" y1="128.000000" x2="128.000000" y2="128.000000"  style="stroke:black; stroke-linecap:round; stroke-width:0.25;"/>
<line x1="128.000000" y1="194.000000" x2="136.000000" y2="194.000000"  style="stroke:black; stroke-linecap:round; stroke-width:0.25;"/>
<line x1="128.000000" y1="214.000000" x2="136.000000" y2="214.000000"  style="stroke:black; stroke-linecap:round; stroke-width:0.25;"/>
<line x1="128.000000" y1="252.000000" x2="128.000000" y2="214.000000"  style="stroke:black; stroke-linecap:round; stroke-width:0.25;"/>
<line x1="128.000000" y1="252.000000" x2="128.000000" y2="252.000000"  style="stroke:black; stroke-linecap:round; stroke-width:0.25;"/>
<line x1="136.000000" y1="70.000000" x2="136.000000" y2="82.000000"  style="stroke:black; stroke-linecap:round; stroke-width:0.25;"/>
<line x1="136.000000" y1="82.000000" x2="136.000000" y2="82.000000"  style="stroke:black; stroke-linecap:round; stroke-width:0.25;"/>
<line x1="136.000000" y1="82.000000" x2="140.000000" y2="82.000000"  style="stroke:black; stroke-linecap:round; stroke-width:0.25;"/>
<line x1="136.000000" y1="90.000000" x2="140.000000" y2="90.000000"  style="stroke:black; stroke-linecap:round; stroke-width:0.25;"/>
<line x1="136.000000" y1="194.000000" x2="136.000000" y2="206.000000"  style="stroke:black; stroke-linecap:round; stroke-width:0.25;"/>
<line x1="136.000000" y1="206.000000" x2="136.000000" y2="206.000000"  style="stroke:black; stroke-linecap:round; stroke-width:0.25;"/>
<line x1="136.000000" y1="206.000000" x2="140.000000" y2="206.000000"  style="stroke:black; stroke-linecap:round; stroke-width:0.25;"/>
<line x1="136.000000" y1="214.000000" x2="140.000000" y2="214.000000"  style="stroke:black; stroke-linecap:round; stroke-width:0.25;"/>
<line x1="164.000000" y1="86.000000" x2="168.000000" y2="86.000000"  style="stroke:black; stroke-linecap:round; stroke-width:0.25;"/>
<line x1="164.000000" y1="210.000000" x2="168.000000" y2="210.000000"  style="stroke:black; stroke-linecap:round; stroke-width:0.25;"/>
<line x1="168.000000" y1="24.000000" x2="176.000000" y2="24.000000"  style="stroke:black; stroke-linecap:round; stroke-width:0.25;"/>
<line x1="168.000000" y1="86.000000" x2="176.000000" y2="86.000000"  style="stroke:black; stroke-linecap:round; stroke-width:0.25;"/>
<line x1="168.000000" y1="148.000000" x2="176.000000" y2="148.000000"  style="stroke:black; stroke-linecap:round; stroke-width:0.25;"/>
<line x1="168.000000" y1="210.000000" x2="176.000000" y2="210.000000"  style="stroke:black; stroke-linecap:round; stroke-width:0.25;"/>
<line x1="176.000000" y1="24.000000" x2="176.000000" y2="78.000000"  style="stroke:black; stroke-linecap:round; stroke-width:0.25;"/>
<line x1="176.000000" y1="78.000000" x2="176.000000" y2="78.000000"  style="stroke:black; stroke-linecap:round; stroke-width:0.25;"/>
<line x1="176.000000" y1="78.000000" x2="180.000000" y2="78.000000"  style="stroke:black; stroke-linecap:round; stroke-width:0.25;"/>
<line x1="176.000000" y1="86.000000" x2="180.000000" y2="86.000000"  style="stroke:black; stroke-linecap:round; stroke-width:0.25;"/>
<line x1="176.000000" y1="148.000000" x2="176.000000" y2="202.000000"  style="stroke:black; stroke-linecap:round; stroke-width:0.25;"/>
<line x1="176.000000" y1="202.000000" x2="176.000000" y2="202.000000"  style="stroke:black; stroke-linecap:round; stroke-width:0.25;"/>
<line x1="176.000000" y1="202.000000" x2="180.000000" y2="202.000000"  style="stroke:black; stroke-linecap:round; stroke-width:0.25;"/>
<line x1="176.000000" y1="210.000000" x2="180.000000" y2="210.000000"  style="stroke:black; stroke-linecap:round; stroke-width:0.25;"/>
<line x1="204.000000" y1="82.000000" x2="208.000000" y2="82.000000"  style="stroke:black; stroke-linecap:round; stroke-width:0.25;"/>
<line x1="204.000000" y1="206.000000" x2="208.000000" y2="206.000000"  style="stroke:black; stroke-linecap:round; stroke-width:0.25;"/>
<line x1="208.000000" y1="82.000000" x2="216.000000" y2="82.000000"  style="stroke:black; stroke-linecap:round; stroke-width:0.25;"/>
<line x1="208.000000" y1="148.000000" x2="216.000000" y2="148.000000"  style="stroke:black; stroke-linecap:round; stroke-width:0.25;"/>
<line x1="208.000000" y1="206.000000" x2="208.000000" y2="148.000000"  style="stroke:black; stroke-linecap:round; stroke-width:0.25;"/>
<line x1="208.000000" y1="206.000000" x2="208.000000" y2="206.000000"  style="stroke:black; stroke-linecap:round; stroke-width:0.25;"/>
<line x1="216.000000" y1="82.000000" x2="216.000000" y2="140.000000"  style="stroke:black; stroke-linecap:round; stroke-width:0.25;"/>
<line x1="216.000000" y1="140.000000" x2="216.000000" y2="140.000000"  style="stroke:black; stroke-linecap:round; stroke-width:0.25;"/>
<line x1="216.000000" y1="140.000000" x2="220.000000" y2="140.000000"  style="stroke:black; stroke-linecap:round; stroke-width:0.25;"/>
<line x1="216.000000" y1="148.000000" x2="220.000000" y2="148.000000"  style="stroke:black; stroke-linecap:round; stroke-width:0.25;"/>
<line x1="220.000000" y1="140.000000" x2="224.000000" y2="140.000000"  style="stroke:black; stroke-linecap:round; stroke-width:0.25;"/>
<line x1="220.000000" y1="148.000000" x2="224.000000" y2="148.000000"  style="stroke:black; stroke-linecap:round; stroke-width:0.25;"/>
<line x1="224.000000" y1="140.000000" x2="234.000000" y2="140.000000"  style="stroke:black; stroke-linecap:round; stroke-width:0.25;"/>
<line x1="224.000000" y1="148.000000" x2="234.000000" y2="148.000000"  style="stroke:black; stroke-linecap:round; stroke-width:0.25;"/>
</svg>
