<?xml version="1.0"?>
<svg xmlns="http://www.w3.org/2000/svg" xmlns:xlink="http://www.w3.org/1999/xlink" viewBox="0 0 158.700000 120.000000" width="79.350000mm" height="60.000000mm" version="1.1">
<a xlink:href="multichord-0x6000214b1440.svg">
<rect x="0.000000" y="0.000000" width="157.700000" height="119.000000" rx="0" ry="0" style="stroke:#000000;fill:#FFFFFF;"/>
</a>
<text x="10.000000" y="7.000000" font-family="Verdana" font-size="7"></text>
<rect x="40.000000" y="32.000000" width="38.700000" height="24.000000" rx="0" ry="0" style="stroke:#000000;fill:#FFFFFF;"/>
<text x="59.350000" y="46.000000" font-family="Verdana" font-size="7" text-anchor="middle" fill="#000000">[44] amp1</text>
<circle cx="42.000000" cy="34.000000" r="1"/>
<rect x="94.700000" y="28.000000" width="24.000000" height="24.000000" rx="0" ry="0" style="stroke:#000000;fill:#FFFFFF;"/>
<text x="106.700000" y="42.000000" font-family="Verdana" font-size="7" text-anchor="middle" fill="#000000">*</text>
<circle cx="96.700000" cy="30.000000" r="1"/>
<line x1="91.700000" y1="35.000000" x2="94.700000" y2="36.000000"  transform="rotate(0.000000,94.700000,36.000000)" style="stroke: black; stroke-width:0.25;"/>
<line x1="91.700000" y1="37.000000" x2="94.700000" y2="36.000000"  transform="rotate(0.000000,94.700000,36.000000)" style="stroke: black; stroke-width:0.25;"/>
<line x1="91.700000" y1="43.000000" x2="94.700000" y2="44.000000"  transform="rotate(0.000000,94.700000,44.000000)" style="stroke: black; stroke-width:0.25;"/>
<line x1="91.700000" y1="45.000000" x2="94.700000" y2="44.000000"  transform="rotate(0.000000,94.700000,44.000000)" style="stroke: black; stroke-width:0.25;"/>
<rect x="40.000000" y="72.000000" width="38.700000" height="24.000000" rx="0" ry="0" style="stroke:#000000;fill:#FFFFFF;"/>
<text x="59.350000" y="86.000000" font-family="Verdana" font-size="7" text-anchor="middle" fill="#000000">[44] amp1</text>
<circle cx="42.000000" cy="74.000000" r="1"/>
<rect x="94.700000" y="68.000000" width="24.000000" height="24.000000" rx="0" ry="0" style="stroke:#000000;fill:#FFFFFF;"/>
<text x="106.700000" y="82.000000" font-family="Verdana" font-size="7" text-anchor="middle" fill="#000000">*</text>
<circle cx="96.700000" cy="70.000000" r="1"/>
<line x1="91.700000" y1="75.000000" x2="94.700000" y2="76.000000"  transform="rotate(0.000000,94.700000,76.000000)" style="stroke: black; stroke-width:0.25;"/>
<line x1="91.700000" y1="77.000000" x2="94.700000" y2="76.000000"  transform="rotate(0.000000,94.700000,76.000000)" style="stroke: black; stroke-width:0.25;"/>
<line x1="91.700000" y1="83.000000" x2="94.700000" y2="84.000000"  transform="rotate(0.000000,94.700000,84.000000)" style="stroke: black; stroke-width:0.25;"/>
<line x1="91.700000" y1="85.000000" x2="94.700000" y2="84.000000"  transform="rotate(0.000000,94.700000,84.000000)" style="stroke: black; stroke-width:0.25;"/>
<line x1="15.000000" y1="15.000000" x2="15.000000" y2="105.000000"  style="stroke: black; stroke-linecap:round; stroke-width:0.25; stroke-dasharray:3,3;"/>
<line x1="15.000000" y1="105.000000" x2="143.700000" y2="105.000000"  style="stroke: black; stroke-linecap:round; stroke-width:0.25; stroke-dasharray:3,3;"/>
<line x1="143.700000" y1="105.000000" x2="143.700000" y2="15.000000"  style="stroke: black; stroke-linecap:round; stroke-width:0.25; stroke-dasharray:3,3;"/>
<line x1="15.000000" y1="15.000000" x2="20.000000" y2="15.000000"  style="stroke: black; stroke-linecap:round; stroke-width:0.25; stroke-dasharray:3,3;"/>
<line x1="81.275000" y1="15.000000" x2="143.700000" y2="15.000000"  style="stroke: black; stroke-linecap:round; stroke-width:0.25; stroke-dasharray:3,3;"/>
<text x="20.000000" y="17.000000" font-family="Verdana" font-size="7">inviluppiFbk(x44)</text>
<line x1="145.700000" y1="55.000000" x2="148.700000" y2="56.000000"  transform="rotate(0.000000,148.700000,56.000000)" style="stroke: black; stroke-width:0.25;"/>
<line x1="145.700000" y1="57.000000" x2="148.700000" y2="56.000000"  transform="rotate(0.000000,148.700000,56.000000)" style="stroke: black; stroke-width:0.25;"/>
<line x1="145.700000" y1="63.000000" x2="148.700000" y2="64.000000"  transform="rotate(0.000000,148.700000,64.000000)" style="stroke: black; stroke-width:0.25;"/>
<line x1="145.700000" y1="65.000000" x2="148.700000" y2="64.000000"  transform="rotate(0.000000,148.700000,64.000000)" style="stroke: black; stroke-width:0.25;"/>
<line x1="10.000000" y1="56.000000" x2="20.000000" y2="56.000000"  style="stroke:black; stroke-linecap:round; stroke-width:0.25;"/>
<line x1="10.000000" y1="64.000000" x2="20.000000" y2="64.000000"  style="stroke:black; stroke-linecap:round; stroke-width:0.25;"/>
<line x1="20.000000" y1="56.000000" x2="24.000000" y2="56.000000"  style="stroke:black; stroke-linecap:round; stroke-width:0.25;"/>
<line x1="20.000000" y1="64.000000" x2="24.000000" y2="64.000000"  style="stroke:black; stroke-linecap:round; stroke-width:0.25;"/>
<line x1="24.000000" y1="56.000000" x2="28.000000" y2="56.000000"  style="stroke:black; stroke-linecap:round; stroke-width:0.25;"/>
<line x1="24.000000" y1="64.000000" x2="28.000000" y2="64.000000"  style="stroke:black; stroke-linecap:round; stroke-width:0.25;"/>
<line x1="28.000000" y1="24.000000" x2="36.000000" y2="24.000000"  style="stroke:black; stroke-linecap:round; stroke-width:0.25;"/>
<line x1="28.000000" y1="56.000000" x2="28.000000" y2="24.000000"  style="stroke:black; stroke-linecap:round; stroke-width:0.25;"/>
<line x1="28.000000" y1="56.000000" x2="28.000000" y2="56.000000"  style="stroke:black; stroke-linecap:round; stroke-width:0.25;"/>
<line x1="28.000000" y1="64.000000" x2="36.000000" y2="64.000000"  style="stroke:black; stroke-linecap:round; stroke-width:0.25;"/>
<line x1="36.000000" y1="24.000000" x2="59.350000" y2="24.000000"  style="stroke:black; stroke-linecap:round; stroke-width:0.25;"/>
<line x1="36.000000" y1="64.000000" x2="59.350000" y2="64.000000"  style="stroke:black; stroke-linecap:round; stroke-width:0.25;"/>
<line x1="59.350000" y1="24.000000" x2="82.700000" y2="24.000000"  style="stroke:black; stroke-linecap:round; stroke-width:0.25;"/>
<line x1="59.350000" y1="64.000000" x2="82.700000" y2="64.000000"  style="stroke:black; stroke-linecap:round; stroke-width:0.25;"/>
<line x1="78.700000" y1="44.000000" x2="82.700000" y2="44.000000"  style="stroke:black; stroke-linecap:round; stroke-width:0.25;"/>
<line x1="78.700000" y1="84.000000" x2="82.700000" y2="84.000000"  style="stroke:black; stroke-linecap:round; stroke-width:0.25;"/>
<line x1="82.700000" y1="24.000000" x2="90.700000" y2="24.000000"  style="stroke:black; stroke-linecap:round; stroke-width:0.25;"/>
<line x1="82.700000" y1="44.000000" x2="90.700000" y2="44.000000"  style="stroke:black; stroke-linecap:round; stroke-width:0.25;"/>
<line x1="82.700000" y1="64.000000" x2="90.700000" y2="64.000000"  style="stroke:black; stroke-linecap:round; stroke-width:0.25;"/>
<line x1="82.700000" y1="84.000000" x2="90.700000" y2="84.000000"  style="stroke:black; stroke-linecap:round; stroke-width:0.25;"/>
<line x1="90.700000" y1="24.000000" x2="90.700000" y2="36.000000"  style="stroke:black; stroke-linecap:round; stroke-width:0.25;"/>
<line x1="90.700000" y1="36.000000" x2="90.700000" y2="36.000000"  style="stroke:black; stroke-linecap:round; stroke-width:0.25;"/>
<line x1="90.700000" y1="36.000000" x2="94.700000" y2="36.000000"  style="stroke:black; stroke-linecap:round; stroke-width:0.25;"/>
<line x1="90.700000" y1="44.000000" x2="94.700000" y2="44.000000"  style="stroke:black; stroke-linecap:round; stroke-width:0.25;"/>
<line x1="90.700000" y1="64.000000" x2="90.700000" y2="76.000000"  style="stroke:black; stroke-linecap:round; stroke-width:0.25;"/>
<line x1="90.700000" y1="76.000000" x2="90.700000" y2="76.000000"  style="stroke:black; stroke-linecap:round; stroke-width:0.25;"/>
<line x1="90.700000" y1="76.000000" x2="94.700000" y2="76.000000"  style="stroke:black; stroke-linecap:round; stroke-width:0.25;"/>
<line x1="90.700000" y1="84.000000" x2="94.700000" y2="84.000000"  style="stroke:black; stroke-linecap:round; stroke-width:0.25;"/>
<line x1="118.700000" y1="40.000000" x2="122.700000" y2="40.000000"  style="stroke:black; stroke-linecap:round; stroke-width:0.25;"/>
<line x1="118.700000" y1="80.000000" x2="122.700000" y2="80.000000"  style="stroke:black; stroke-linecap:round; stroke-width:0.25;"/>
<line x1="122.700000" y1="40.000000" x2="130.700000" y2="40.000000"  style="stroke:black; stroke-linecap:round; stroke-width:0.25;"/>
<line x1="122.700000" y1="64.000000" x2="130.700000" y2="64.000000"  style="stroke:black; stroke-linecap:round; stroke-width:0.25;"/>
<line x1="122.700000" y1="80.000000" x2="122.700000" y2="64.000000"  style="stroke:black; stroke-linecap:round; stroke-width:0.25;"/>
<line x1="122.700000" y1="80.000000" x2="122.700000" y2="80.000000"  style="stroke:black; stroke-linecap:round; stroke-width:0.25;"/>
<line x1="130.700000" y1="40.000000" x2="130.700000" y2="56.000000"  style="stroke:black; stroke-linecap:round; stroke-width:0.25;"/>
<line x1="130.700000" y1="56.000000" x2="130.700000" y2="56.000000"  style="stroke:black; stroke-linecap:round; stroke-width:0.25;"/>
<line x1="130.700000" y1="56.000000" x2="134.700000" y2="56.000000"  style="stroke:black; stroke-linecap:round; stroke-width:0.25;"/>
<line x1="130.700000" y1="64.000000" x2="134.700000" y2="64.000000"  style="stroke:black; stroke-linecap:round; stroke-width:0.25;"/>
<line x1="134.700000" y1="56.000000" x2="138.700000" y2="56.000000"  style="stroke:black; stroke-linecap:round; stroke-width:0.25;"/>
<line x1="134.700000" y1="64.000000" x2="138.700000" y2="64.000000"  style="stroke:black; stroke-linecap:round; stroke-width:0.25;"/>
<line x1="138.700000" y1="56.000000" x2="148.700000" y2="56.000000"  style="stroke:black; stroke-linecap:round; stroke-width:0.25;"/>
<line x1="138.700000" y1="64.000000" x2="148.700000" y2="64.000000"  style="stroke:black; stroke-linecap:round; stroke-width:0.25;"/>
</svg>
