<?xml version="1.0"?>
<svg xmlns="http://www.w3.org/2000/svg" xmlns:xlink="http://www.w3.org/1999/xlink" viewBox="0 0 200.500000 156.000000" width="100.250000mm" height="78.000000mm" version="1.1">
<a xlink:href="bypass-0x600021499050.svg">
<rect x="0.000000" y="0.000000" width="199.500000" height="155.000000" rx="0" ry="0" style="stroke:#000000;fill:#FFFFFF;"/>
</a>
<text x="10.000000" y="7.000000" font-family="Verdana" font-size="7"></text>
<rect x="37.550000" y="24.000000" width="77.400000" height="24.000000" rx="0" ry="0" style="stroke:#000000;fill:#FFFFFF;"/>
<text x="76.250000" y="38.000000" font-family="Verdana" font-size="7" text-anchor="middle" fill="#000000">[885] timerState</text>
<circle cx="39.550000" cy="26.000000" r="1"/>
<a xlink:href="sec2samp-0x600009620fc0.svg">
<rect x="24.000000" y="56.000000" width="64.500000" height="24.000000" rx="0" ry="0" style="stroke:#000000;fill:#FFFFFF;"/>
</a>
<a xlink:href="sec2samp-0x600009620fc0.svg">
<text x="56.250000" y="70.000000" font-family="Verdana" font-size="7" text-anchor="middle" fill="#000000">sec2samp(0.01f)</text>
</a>
<circle cx="26.000000" cy="58.000000" r="1"/>
<rect x="44.250000" y="98.000000" width="24.000000" height="24.000000" rx="0" ry="0" style="stroke:#000000;fill:#FFFFFF;"/>
<text x="56.250000" y="112.000000" font-family="Verdana" font-size="7" text-anchor="middle" fill="#000000">1</text>
<circle cx="46.250000" cy="100.000000" r="1"/>
<line x1="35.250000" y1="89.000000" x2="35.250000" y2="131.000000"  style="stroke: black; stroke-linecap:round; stroke-width:0.25; stroke-dasharray:3,3;"/>
<line x1="35.250000" y1="131.000000" x2="77.250000" y2="131.000000"  style="stroke: black; stroke-linecap:round; stroke-width:0.25; stroke-dasharray:3,3;"/>
<line x1="77.250000" y1="131.000000" x2="77.250000" y2="89.000000"  style="stroke: black; stroke-linecap:round; stroke-width:0.25; stroke-dasharray:3,3;"/>
<line x1="35.250000" y1="89.000000" x2="40.250000" y2="89.000000"  style="stroke: black; stroke-linecap:round; stroke-width:0.25; stroke-dasharray:3,3;"/>
<line x1="77.250000" y1="89.000000" x2="77.250000" y2="89.000000"  style="stroke: black; stroke-linecap:round; stroke-width:0.25; stroke-dasharray:3,3;"/>
<text x="40.250000" y="91.000000" font-family="Verdana" font-size="7">signum(90)</text>
<rect x="104.500000" y="82.000000" width="24.000000" height="24.000000" rx="0" ry="0" style="stroke:#000000;fill:#FFFFFF;"/>
<text x="116.500000" y="96.000000" font-family="Verdana" font-size="7" text-anchor="middle" fill="#000000">-</text>
<circle cx="106.500000" cy="84.000000" r="1"/>
<line x1="101.500000" y1="89.000000" x2="104.500000" y2="90.000000"  transform="rotate(0.000000,104.500000,90.000000)" style="stroke: black; stroke-width:0.25;"/>
<line x1="101.500000" y1="91.000000" x2="104.500000" y2="90.000000"  transform="rotate(0.000000,104.500000,90.000000)" style="stroke: black; stroke-width:0.25;"/>
<line x1="101.500000" y1="97.000000" x2="104.500000" y2="98.000000"  transform="rotate(0.000000,104.500000,98.000000)" style="stroke: black; stroke-width:0.25;"/>
<line x1="101.500000" y1="99.000000" x2="104.500000" y2="98.000000"  transform="rotate(0.000000,104.500000,98.000000)" style="stroke: black; stroke-width:0.25;"/>
<rect x="144.500000" y="66.000000" width="24.000000" height="24.000000" rx="0" ry="0" style="stroke:#000000;fill:#FFFFFF;"/>
<text x="156.500000" y="80.000000" font-family="Verdana" font-size="7" text-anchor="middle" fill="#000000">&gt;=</text>
<circle cx="146.500000" cy="68.000000" r="1"/>
<line x1="141.500000" y1="73.000000" x2="144.500000" y2="74.000000"  transform="rotate(0.000000,144.500000,74.000000)" style="stroke: black; stroke-width:0.25;"/>
<line x1="141.500000" y1="75.000000" x2="144.500000" y2="74.000000"  transform="rotate(0.000000,144.500000,74.000000)" style="stroke: black; stroke-width:0.25;"/>
<line x1="141.500000" y1="81.000000" x2="144.500000" y2="82.000000"  transform="rotate(0.000000,144.500000,82.000000)" style="stroke: black; stroke-width:0.25;"/>
<line x1="141.500000" y1="83.000000" x2="144.500000" y2="82.000000"  transform="rotate(0.000000,144.500000,82.000000)" style="stroke: black; stroke-width:0.25;"/>
<line x1="15.000000" y1="15.000000" x2="15.000000" y2="141.000000"  style="stroke: black; stroke-linecap:round; stroke-width:0.25; stroke-dasharray:3,3;"/>
<line x1="15.000000" y1="141.000000" x2="185.500000" y2="141.000000"  style="stroke: black; stroke-linecap:round; stroke-width:0.25; stroke-dasharray:3,3;"/>
<line x1="185.500000" y1="141.000000" x2="185.500000" y2="15.000000"  style="stroke: black; stroke-linecap:round; stroke-width:0.25; stroke-dasharray:3,3;"/>
<line x1="15.000000" y1="15.000000" x2="20.000000" y2="15.000000"  style="stroke: black; stroke-linecap:round; stroke-width:0.25; stroke-dasharray:3,3;"/>
<line x1="55.475000" y1="15.000000" x2="185.500000" y2="15.000000"  style="stroke: black; stroke-linecap:round; stroke-width:0.25; stroke-dasharray:3,3;"/>
<text x="20.000000" y="17.000000" font-family="Verdana" font-size="7">isTimeOut</text>
<line x1="187.500000" y1="77.000000" x2="190.500000" y2="78.000000"  transform="rotate(0.000000,190.500000,78.000000)" style="stroke: black; stroke-width:0.25;"/>
<line x1="187.500000" y1="79.000000" x2="190.500000" y2="78.000000"  transform="rotate(0.000000,190.500000,78.000000)" style="stroke: black; stroke-width:0.25;"/>
<line x1="68.250000" y1="110.000000" x2="72.250000" y2="110.000000"  style="stroke:black; stroke-linecap:round; stroke-width:0.25;"/>
<line x1="72.250000" y1="110.000000" x2="82.250000" y2="110.000000"  style="stroke:black; stroke-linecap:round; stroke-width:0.25;"/>
<line x1="82.250000" y1="110.000000" x2="92.500000" y2="110.000000"  style="stroke:black; stroke-linecap:round; stroke-width:0.25;"/>
<line x1="88.500000" y1="68.000000" x2="92.500000" y2="68.000000"  style="stroke:black; stroke-linecap:round; stroke-width:0.25;"/>
<line x1="92.500000" y1="68.000000" x2="100.500000" y2="68.000000"  style="stroke:black; stroke-linecap:round; stroke-width:0.25;"/>
<line x1="92.500000" y1="98.000000" x2="100.500000" y2="98.000000"  style="stroke:black; stroke-linecap:round; stroke-width:0.25;"/>
<line x1="92.500000" y1="110.000000" x2="92.500000" y2="98.000000"  style="stroke:black; stroke-linecap:round; stroke-width:0.25;"/>
<line x1="92.500000" y1="110.000000" x2="92.500000" y2="110.000000"  style="stroke:black; stroke-linecap:round; stroke-width:0.25;"/>
<line x1="100.500000" y1="68.000000" x2="100.500000" y2="90.000000"  style="stroke:black; stroke-linecap:round; stroke-width:0.25;"/>
<line x1="100.500000" y1="90.000000" x2="100.500000" y2="90.000000"  style="stroke:black; stroke-linecap:round; stroke-width:0.25;"/>
<line x1="100.500000" y1="90.000000" x2="104.500000" y2="90.000000"  style="stroke:black; stroke-linecap:round; stroke-width:0.25;"/>
<line x1="100.500000" y1="98.000000" x2="104.500000" y2="98.000000"  style="stroke:black; stroke-linecap:round; stroke-width:0.25;"/>
<line x1="114.950000" y1="36.000000" x2="118.950000" y2="36.000000"  style="stroke:black; stroke-linecap:round; stroke-width:0.25;"/>
<line x1="118.950000" y1="36.000000" x2="132.500000" y2="36.000000"  style="stroke:black; stroke-linecap:round; stroke-width:0.25;"/>
<line x1="128.500000" y1="94.000000" x2="132.500000" y2="94.000000"  style="stroke:black; stroke-linecap:round; stroke-width:0.25;"/>
<line x1="132.500000" y1="36.000000" x2="140.500000" y2="36.000000"  style="stroke:black; stroke-linecap:round; stroke-width:0.25;"/>
<line x1="132.500000" y1="82.000000" x2="140.500000" y2="82.000000"  style="stroke:black; stroke-linecap:round; stroke-width:0.25;"/>
<line x1="132.500000" y1="94.000000" x2="132.500000" y2="82.000000"  style="stroke:black; stroke-linecap:round; stroke-width:0.25;"/>
<line x1="132.500000" y1="94.000000" x2="132.500000" y2="94.000000"  style="stroke:black; stroke-linecap:round; stroke-width:0.25;"/>
<line x1="140.500000" y1="36.000000" x2="140.500000" y2="74.000000"  style="stroke:black; stroke-linecap:round; stroke-width:0.25;"/>
<line x1="140.500000" y1="74.000000" x2="140.500000" y2="74.000000"  style="stroke:black; stroke-linecap:round; stroke-width:0.25;"/>
<line x1="140.500000" y1="74.000000" x2="144.500000" y2="74.000000"  style="stroke:black; stroke-linecap:round; stroke-width:0.25;"/>
<line x1="140.500000" y1="82.000000" x2="144.500000" y2="82.000000"  style="stroke:black; stroke-linecap:round; stroke-width:0.25;"/>
<line x1="168.500000" y1="78.000000" x2="172.500000" y2="78.000000"  style="stroke:black; stroke-linecap:round; stroke-width:0.25;"/>
<line x1="172.500000" y1="78.000000" x2="172.500000" y2="78.000000"  style="stroke:black; stroke-linecap:round; stroke-width:0.25;"/>
<line x1="172.500000" y1="78.000000" x2="176.500000" y2="78.000000"  style="stroke:black; stroke-linecap:round; stroke-width:0.25;"/>
<line x1="176.500000" y1="78.000000" x2="180.500000" y2="78.000000"  style="stroke:black; stroke-linecap:round; stroke-width:0.25;"/>
<line x1="180.500000" y1="78.000000" x2="190.500000" y2="78.000000"  style="stroke:black; stroke-linecap:round; stroke-width:0.25;"/>
</svg>
