<?xml version="1.0"?>
<svg xmlns="http://www.w3.org/2000/svg" xmlns:xlink="http://www.w3.org/1999/xlink" viewBox="0 0 572.700000 268.000000" width="286.350000mm" height="134.000000mm" version="1.1">
<a xlink:href="process.svg">
<rect x="0.000000" y="0.000000" width="571.700000" height="267.000000" rx="0" ry="0" style="stroke:#000000;fill:#FFFFFF;"/>
</a>
<text x="10.000000" y="7.000000" font-family="Verdana" font-size="7"></text>
<rect x="32.000000" y="122.000000" width="38.700000" height="24.000000" rx="0" ry="0" style="stroke:#000000;fill:#FFFFFF;"/>
<text x="51.350000" y="136.000000" font-family="Verdana" font-size="7" text-anchor="middle" fill="#000000">[875] x</text>
<circle cx="34.000000" cy="124.000000" r="1"/>
<line x1="29.000000" y1="133.000000" x2="32.000000" y2="134.000000"  transform="rotate(0.000000,32.000000,134.000000)" style="stroke: black; stroke-width:0.25;"/>
<line x1="29.000000" y1="135.000000" x2="32.000000" y2="134.000000"  transform="rotate(0.000000,32.000000,134.000000)" style="stroke: black; stroke-width:0.25;"/>
<rect x="78.700000" y="122.000000" width="38.700000" height="24.000000" rx="0" ry="0" style="stroke:#000000;fill:#FFFFFF;"/>
<text x="98.050000" y="136.000000" font-family="Verdana" font-size="7" text-anchor="middle" fill="#000000">[875] x</text>
<circle cx="80.700000" cy="124.000000" r="1"/>
<a xlink:href="peakHolder-0x600021482520.svg">
<rect x="125.400000" y="122.000000" width="77.400000" height="24.000000" rx="0" ry="0" style="stroke:#000000;fill:#FFFFFF;"/>
</a>
<a xlink:href="peakHolder-0x600021482520.svg">
<text x="164.100000" y="136.000000" font-family="Verdana" font-size="7" text-anchor="middle" fill="#000000">peakHolder(0.01f)</text>
</a>
<circle cx="127.400000" cy="124.000000" r="1"/>
<line x1="122.400000" y1="133.000000" x2="125.400000" y2="134.000000"  transform="rotate(0.000000,125.400000,134.000000)" style="stroke: black; stroke-width:0.25;"/>
<line x1="122.400000" y1="135.000000" x2="125.400000" y2="134.000000"  transform="rotate(0.000000,125.400000,134.000000)" style="stroke: black; stroke-width:0.25;"/>
<a xlink:href="LPTPT-0x60002148b9f0.svg">
<rect x="210.800000" y="122.000000" width="64.500000" height="24.000000" rx="0" ry="0" style="stroke:#000000;fill:#FFFFFF;"/>
</a>
<a xlink:href="LPTPT-0x60002148b9f0.svg">
<text x="243.050000" y="136.000000" font-family="Verdana" font-size="7" text-anchor="middle" fill="#000000">LPTPT(1e+02f)</text>
</a>
<circle cx="212.800000" cy="124.000000" r="1"/>
<line x1="207.800000" y1="133.000000" x2="210.800000" y2="134.000000"  transform="rotate(0.000000,210.800000,134.000000)" style="stroke: black; stroke-width:0.25;"/>
<line x1="207.800000" y1="135.000000" x2="210.800000" y2="134.000000"  transform="rotate(0.000000,210.800000,134.000000)" style="stroke: black; stroke-width:0.25;"/>
<a xlink:href="peakenvelope-0x600021490120.svg">
<rect x="283.300000" y="122.000000" width="77.400000" height="24.000000" rx="0" ry="0" style="stroke:#000000;fill:#FFFFFF;"/>
</a>
<a xlink:href="peakenvelope-0x600021490120.svg">
<text x="322.000000" y="136.000000" font-family="Verdana" font-size="7" text-anchor="middle" fill="#000000">peakenvelope(0.1f)</text>
</a>
<circle cx="285.300000" cy="124.000000" r="1"/>
<line x1="280.300000" y1="133.000000" x2="283.300000" y2="134.000000"  transform="rotate(0.000000,283.300000,134.000000)" style="stroke: black; stroke-width:0.25;"/>
<line x1="280.300000" y1="135.000000" x2="283.300000" y2="134.000000"  transform="rotate(0.000000,283.300000,134.000000)" style="stroke: black; stroke-width:0.25;"/>
<rect x="386.700000" y="34.000000" width="24.000000" height="24.000000" rx="0" ry="0" style="stroke:#000000;fill:#FFFFFF;"/>
<text x="398.700000" y="48.000000" font-family="Verdana" font-size="7" text-anchor="middle" fill="#000000">1</text>
<circle cx="388.700000" cy="36.000000" r="1"/>
<line x1="377.700000" y1="25.000000" x2="377.700000" y2="67.000000"  style="stroke: black; stroke-linecap:round; stroke-width:0.25; stroke-dasharray:3,3;"/>
<line x1="377.700000" y1="67.000000" x2="419.700000" y2="67.000000"  style="stroke: black; stroke-linecap:round; stroke-width:0.25; stroke-dasharray:3,3;"/>
<line x1="419.700000" y1="67.000000" x2="419.700000" y2="25.000000"  style="stroke: black; stroke-linecap:round; stroke-width:0.25; stroke-dasharray:3,3;"/>
<line x1="377.700000" y1="25.000000" x2="382.700000" y2="25.000000"  style="stroke: black; stroke-linecap:round; stroke-width:0.25; stroke-dasharray:3,3;"/>
<line x1="419.700000" y1="25.000000" x2="419.700000" y2="25.000000"  style="stroke: black; stroke-linecap:round; stroke-width:0.25; stroke-dasharray:3,3;"/>
<text x="382.700000" y="27.000000" font-family="Verdana" font-size="7">signum(90)</text>
<rect x="386.700000" y="86.000000" width="24.000000" height="24.000000" rx="0" ry="0" style="stroke:#000000;fill:#FFFFFF;"/>
<text x="398.700000" y="100.000000" font-family="Verdana" font-size="7" text-anchor="middle" fill="#000000">1</text>
<circle cx="388.700000" cy="88.000000" r="1"/>
<line x1="377.700000" y1="77.000000" x2="377.700000" y2="119.000000"  style="stroke: black; stroke-linecap:round; stroke-width:0.25; stroke-dasharray:3,3;"/>
<line x1="377.700000" y1="119.000000" x2="419.700000" y2="119.000000"  style="stroke: black; stroke-linecap:round; stroke-width:0.25; stroke-dasharray:3,3;"/>
<line x1="419.700000" y1="119.000000" x2="419.700000" y2="77.000000"  style="stroke: black; stroke-linecap:round; stroke-width:0.25; stroke-dasharray:3,3;"/>
<line x1="377.700000" y1="77.000000" x2="382.700000" y2="77.000000"  style="stroke: black; stroke-linecap:round; stroke-width:0.25; stroke-dasharray:3,3;"/>
<line x1="419.700000" y1="77.000000" x2="419.700000" y2="77.000000"  style="stroke: black; stroke-linecap:round; stroke-width:0.25; stroke-dasharray:3,3;"/>
<text x="382.700000" y="79.000000" font-family="Verdana" font-size="7">signum(90)</text>
<rect x="436.700000" y="60.000000" width="24.000000" height="24.000000" rx="0" ry="0" style="stroke:#000000;fill:#FFFFFF;"/>
<text x="448.700000" y="74.000000" font-family="Verdana" font-size="7" text-anchor="middle" fill="#000000">min</text>
<circle cx="438.700000" cy="62.000000" r="1"/>
<line x1="433.700000" y1="67.000000" x2="436.700000" y2="68.000000"  transform="rotate(0.000000,436.700000,68.000000)" style="stroke: black; stroke-width:0.25;"/>
<line x1="433.700000" y1="69.000000" x2="436.700000" y2="68.000000"  transform="rotate(0.000000,436.700000,68.000000)" style="stroke: black; stroke-width:0.25;"/>
<line x1="433.700000" y1="75.000000" x2="436.700000" y2="76.000000"  transform="rotate(0.000000,436.700000,76.000000)" style="stroke: black; stroke-width:0.25;"/>
<line x1="433.700000" y1="77.000000" x2="436.700000" y2="76.000000"  transform="rotate(0.000000,436.700000,76.000000)" style="stroke: black; stroke-width:0.25;"/>
<rect x="386.700000" y="138.000000" width="24.000000" height="24.000000" rx="0" ry="0" style="stroke:#000000;fill:#FFFFFF;"/>
<text x="398.700000" y="152.000000" font-family="Verdana" font-size="7" text-anchor="middle" fill="#000000">1</text>
<circle cx="388.700000" cy="140.000000" r="1"/>
<line x1="377.700000" y1="129.000000" x2="377.700000" y2="171.000000"  style="stroke: black; stroke-linecap:round; stroke-width:0.25; stroke-dasharray:3,3;"/>
<line x1="377.700000" y1="171.000000" x2="419.700000" y2="171.000000"  style="stroke: black; stroke-linecap:round; stroke-width:0.25; stroke-dasharray:3,3;"/>
<line x1="419.700000" y1="171.000000" x2="419.700000" y2="129.000000"  style="stroke: black; stroke-linecap:round; stroke-width:0.25; stroke-dasharray:3,3;"/>
<line x1="377.700000" y1="129.000000" x2="382.700000" y2="129.000000"  style="stroke: black; stroke-linecap:round; stroke-width:0.25; stroke-dasharray:3,3;"/>
<line x1="419.700000" y1="129.000000" x2="419.700000" y2="129.000000"  style="stroke: black; stroke-linecap:round; stroke-width:0.25; stroke-dasharray:3,3;"/>
<text x="382.700000" y="131.000000" font-family="Verdana" font-size="7">signum(90)</text>
<rect x="436.700000" y="142.000000" width="24.000000" height="24.000000" rx="0" ry="0" style="stroke:#000000;fill:#FFFFFF;"/>
<text x="448.700000" y="156.000000" font-family="Verdana" font-size="7" text-anchor="middle" fill="#000000">max</text>
<circle cx="438.700000" cy="144.000000" r="1"/>
<line x1="433.700000" y1="149.000000" x2="436.700000" y2="150.000000"  transform="rotate(0.000000,436.700000,150.000000)" style="stroke: black; stroke-width:0.25;"/>
<line x1="433.700000" y1="151.000000" x2="436.700000" y2="150.000000"  transform="rotate(0.000000,436.700000,150.000000)" style="stroke: black; stroke-width:0.25;"/>
<line x1="433.700000" y1="157.000000" x2="436.700000" y2="158.000000"  transform="rotate(0.000000,436.700000,158.000000)" style="stroke: black; stroke-width:0.25;"/>
<line x1="433.700000" y1="159.000000" x2="436.700000" y2="158.000000"  transform="rotate(0.000000,436.700000,158.000000)" style="stroke: black; stroke-width:0.25;"/>
<rect x="476.700000" y="90.000000" width="24.000000" height="24.000000" rx="0" ry="0" style="stroke:#000000;fill:#FFFFFF;"/>
<text x="488.700000" y="104.000000" font-family="Verdana" font-size="7" text-anchor="middle" fill="#000000">/</text>
<circle cx="478.700000" cy="92.000000" r="1"/>
<line x1="473.700000" y1="97.000000" x2="476.700000" y2="98.000000"  transform="rotate(0.000000,476.700000,98.000000)" style="stroke: black; stroke-width:0.25;"/>
<line x1="473.700000" y1="99.000000" x2="476.700000" y2="98.000000"  transform="rotate(0.000000,476.700000,98.000000)" style="stroke: black; stroke-width:0.25;"/>
<line x1="473.700000" y1="105.000000" x2="476.700000" y2="106.000000"  transform="rotate(0.000000,476.700000,106.000000)" style="stroke: black; stroke-width:0.25;"/>
<line x1="473.700000" y1="107.000000" x2="476.700000" y2="106.000000"  transform="rotate(0.000000,476.700000,106.000000)" style="stroke: black; stroke-width:0.25;"/>
<rect x="399.350000" y="188.000000" width="38.700000" height="24.000000" rx="0" ry="0" style="stroke:#000000;fill:#FFFFFF;"/>
<text x="418.700000" y="202.000000" font-family="Verdana" font-size="7" text-anchor="middle" fill="#000000">[875] x</text>
<circle cx="401.350000" cy="190.000000" r="1"/>
<a xlink:href="sec2samp-0x600009620fc0.svg">
<rect x="386.450000" y="220.000000" width="64.500000" height="24.000000" rx="0" ry="0" style="stroke:#000000;fill:#FFFFFF;"/>
</a>
<a xlink:href="sec2samp-0x600009620fc0.svg">
<text x="418.700000" y="234.000000" font-family="Verdana" font-size="7" text-anchor="middle" fill="#000000">sec2samp(0.01f)</text>
</a>
<circle cx="388.450000" cy="222.000000" r="1"/>
<rect x="466.950000" y="204.000000" width="24.000000" height="24.000000" rx="0" ry="0" style="stroke:#000000;fill:#FFFFFF;"/>
<text x="478.950000" y="218.000000" font-family="Verdana" font-size="7" text-anchor="middle" fill="#000000">@</text>
<circle cx="468.950000" cy="206.000000" r="1"/>
<line x1="463.950000" y1="211.000000" x2="466.950000" y2="212.000000"  transform="rotate(0.000000,466.950000,212.000000)" style="stroke: black; stroke-width:0.25;"/>
<line x1="463.950000" y1="213.000000" x2="466.950000" y2="212.000000"  transform="rotate(0.000000,466.950000,212.000000)" style="stroke: black; stroke-width:0.25;"/>
<line x1="463.950000" y1="219.000000" x2="466.950000" y2="220.000000"  transform="rotate(0.000000,466.950000,220.000000)" style="stroke: black; stroke-width:0.25;"/>
<line x1="463.950000" y1="221.000000" x2="466.950000" y2="220.000000"  transform="rotate(0.000000,466.950000,220.000000)" style="stroke: black; stroke-width:0.25;"/>
<rect x="516.700000" y="122.000000" width="24.000000" height="24.000000" rx="0" ry="0" style="stroke:#000000;fill:#FFFFFF;"/>
<text x="528.700000" y="136.000000" font-family="Verdana" font-size="7" text-anchor="middle" fill="#000000">*</text>
<circle cx="518.700000" cy="124.000000" r="1"/>
<line x1="513.700000" y1="129.000000" x2="516.700000" y2="130.000000"  transform="rotate(0.000000,516.700000,130.000000)" style="stroke: black; stroke-width:0.25;"/>
<line x1="513.700000" y1="131.000000" x2="516.700000" y2="130.000000"  transform="rotate(0.000000,516.700000,130.000000)" style="stroke: black; stroke-width:0.25;"/>
<line x1="513.700000" y1="137.000000" x2="516.700000" y2="138.000000"  transform="rotate(0.000000,516.700000,138.000000)" style="stroke: black; stroke-width:0.25;"/>
<line x1="513.700000" y1="139.000000" x2="516.700000" y2="138.000000"  transform="rotate(0.000000,516.700000,138.000000)" style="stroke: black; stroke-width:0.25;"/>
<line x1="15.000000" y1="15.000000" x2="15.000000" y2="253.000000"  style="stroke: black; stroke-linecap:round; stroke-width:0.25; stroke-dasharray:3,3;"/>
<line x1="15.000000" y1="253.000000" x2="557.700000" y2="253.000000"  style="stroke: black; stroke-linecap:round; stroke-width:0.25; stroke-dasharray:3,3;"/>
<line x1="557.700000" y1="253.000000" x2="557.700000" y2="15.000000"  style="stroke: black; stroke-linecap:round; stroke-width:0.25; stroke-dasharray:3,3;"/>
<line x1="15.000000" y1="15.000000" x2="20.000000" y2="15.000000"  style="stroke: black; stroke-linecap:round; stroke-width:0.25; stroke-dasharray:3,3;"/>
<line x1="129.650000" y1="15.000000" x2="557.700000" y2="15.000000"  style="stroke: black; stroke-linecap:round; stroke-width:0.25; stroke-dasharray:3,3;"/>
<text x="20.000000" y="17.000000" font-family="Verdana" font-size="7">LookaheadLimiter(1)(0.01f)(0.1f)</text>
<line x1="559.700000" y1="133.000000" x2="562.700000" y2="134.000000"  transform="rotate(0.000000,562.700000,134.000000)" style="stroke: black; stroke-width:0.25;"/>
<line x1="559.700000" y1="135.000000" x2="562.700000" y2="134.000000"  transform="rotate(0.000000,562.700000,134.000000)" style="stroke: black; stroke-width:0.25;"/>
<line x1="10.000000" y1="134.000000" x2="20.000000" y2="134.000000"  style="stroke:black; stroke-linecap:round; stroke-width:0.25;"/>
<line x1="20.000000" y1="134.000000" x2="24.000000" y2="134.000000"  style="stroke:black; stroke-linecap:round; stroke-width:0.25;"/>
<line x1="24.000000" y1="134.000000" x2="28.000000" y2="134.000000"  style="stroke:black; stroke-linecap:round; stroke-width:0.25;"/>
<line x1="28.000000" y1="134.000000" x2="28.000000" y2="134.000000"  style="stroke:black; stroke-linecap:round; stroke-width:0.25;"/>
<line x1="28.000000" y1="134.000000" x2="32.000000" y2="134.000000"  style="stroke:black; stroke-linecap:round; stroke-width:0.25;"/>
<line x1="117.400000" y1="134.000000" x2="121.400000" y2="134.000000"  style="stroke:black; stroke-linecap:round; stroke-width:0.25;"/>
<line x1="121.400000" y1="134.000000" x2="121.400000" y2="134.000000"  style="stroke:black; stroke-linecap:round; stroke-width:0.25;"/>
<line x1="121.400000" y1="134.000000" x2="125.400000" y2="134.000000"  style="stroke:black; stroke-linecap:round; stroke-width:0.25;"/>
<line x1="202.800000" y1="134.000000" x2="206.800000" y2="134.000000"  style="stroke:black; stroke-linecap:round; stroke-width:0.25;"/>
<line x1="206.800000" y1="134.000000" x2="206.800000" y2="134.000000"  style="stroke:black; stroke-linecap:round; stroke-width:0.25;"/>
<line x1="206.800000" y1="134.000000" x2="210.800000" y2="134.000000"  style="stroke:black; stroke-linecap:round; stroke-width:0.25;"/>
<line x1="275.300000" y1="134.000000" x2="279.300000" y2="134.000000"  style="stroke:black; stroke-linecap:round; stroke-width:0.25;"/>
<line x1="279.300000" y1="134.000000" x2="279.300000" y2="134.000000"  style="stroke:black; stroke-linecap:round; stroke-width:0.25;"/>
<line x1="279.300000" y1="134.000000" x2="283.300000" y2="134.000000"  style="stroke:black; stroke-linecap:round; stroke-width:0.25;"/>
<line x1="360.700000" y1="134.000000" x2="364.700000" y2="134.000000"  style="stroke:black; stroke-linecap:round; stroke-width:0.25;"/>
<line x1="364.700000" y1="134.000000" x2="372.700000" y2="134.000000"  style="stroke:black; stroke-linecap:round; stroke-width:0.25;"/>
<line x1="372.700000" y1="134.000000" x2="372.700000" y2="180.000000"  style="stroke:black; stroke-linecap:round; stroke-width:0.25;"/>
<line x1="372.700000" y1="180.000000" x2="372.700000" y2="180.000000"  style="stroke:black; stroke-linecap:round; stroke-width:0.25;"/>
<line x1="372.700000" y1="180.000000" x2="398.700000" y2="180.000000"  style="stroke:black; stroke-linecap:round; stroke-width:0.25;"/>
<line x1="398.700000" y1="180.000000" x2="424.700000" y2="180.000000"  style="stroke:black; stroke-linecap:round; stroke-width:0.25;"/>
<line x1="410.700000" y1="46.000000" x2="414.700000" y2="46.000000"  style="stroke:black; stroke-linecap:round; stroke-width:0.25;"/>
<line x1="410.700000" y1="98.000000" x2="414.700000" y2="98.000000"  style="stroke:black; stroke-linecap:round; stroke-width:0.25;"/>
<line x1="410.700000" y1="150.000000" x2="414.700000" y2="150.000000"  style="stroke:black; stroke-linecap:round; stroke-width:0.25;"/>
<line x1="414.700000" y1="46.000000" x2="424.700000" y2="46.000000"  style="stroke:black; stroke-linecap:round; stroke-width:0.25;"/>
<line x1="414.700000" y1="98.000000" x2="424.700000" y2="98.000000"  style="stroke:black; stroke-linecap:round; stroke-width:0.25;"/>
<line x1="414.700000" y1="150.000000" x2="424.700000" y2="150.000000"  style="stroke:black; stroke-linecap:round; stroke-width:0.25;"/>
<line x1="424.700000" y1="46.000000" x2="432.700000" y2="46.000000"  style="stroke:black; stroke-linecap:round; stroke-width:0.25;"/>
<line x1="424.700000" y1="76.000000" x2="432.700000" y2="76.000000"  style="stroke:black; stroke-linecap:round; stroke-width:0.25;"/>
<line x1="424.700000" y1="98.000000" x2="424.700000" y2="76.000000"  style="stroke:black; stroke-linecap:round; stroke-width:0.25;"/>
<line x1="424.700000" y1="98.000000" x2="424.700000" y2="98.000000"  style="stroke:black; stroke-linecap:round; stroke-width:0.25;"/>
<line x1="424.700000" y1="150.000000" x2="432.700000" y2="150.000000"  style="stroke:black; stroke-linecap:round; stroke-width:0.25;"/>
<line x1="424.700000" y1="158.000000" x2="432.700000" y2="158.000000"  style="stroke:black; stroke-linecap:round; stroke-width:0.25;"/>
<line x1="424.700000" y1="180.000000" x2="424.700000" y2="158.000000"  style="stroke:black; stroke-linecap:round; stroke-width:0.25;"/>
<line x1="424.700000" y1="180.000000" x2="424.700000" y2="180.000000"  style="stroke:black; stroke-linecap:round; stroke-width:0.25;"/>
<line x1="432.700000" y1="46.000000" x2="432.700000" y2="68.000000"  style="stroke:black; stroke-linecap:round; stroke-width:0.25;"/>
<line x1="432.700000" y1="68.000000" x2="432.700000" y2="68.000000"  style="stroke:black; stroke-linecap:round; stroke-width:0.25;"/>
<line x1="432.700000" y1="68.000000" x2="436.700000" y2="68.000000"  style="stroke:black; stroke-linecap:round; stroke-width:0.25;"/>
<line x1="432.700000" y1="76.000000" x2="436.700000" y2="76.000000"  style="stroke:black; stroke-linecap:round; stroke-width:0.25;"/>
<line x1="432.700000" y1="150.000000" x2="436.700000" y2="150.000000"  style="stroke:black; stroke-linecap:round; stroke-width:0.25;"/>
<line x1="432.700000" y1="158.000000" x2="436.700000" y2="158.000000"  style="stroke:black; stroke-linecap:round; stroke-width:0.25;"/>
<line x1="438.050000" y1="200.000000" x2="442.050000" y2="200.000000"  style="stroke:black; stroke-linecap:round; stroke-width:0.25;"/>
<line x1="442.050000" y1="200.000000" x2="454.950000" y2="200.000000"  style="stroke:black; stroke-linecap:round; stroke-width:0.25;"/>
<line x1="450.950000" y1="232.000000" x2="454.950000" y2="232.000000"  style="stroke:black; stroke-linecap:round; stroke-width:0.25;"/>
<line x1="454.950000" y1="200.000000" x2="462.950000" y2="200.000000"  style="stroke:black; stroke-linecap:round; stroke-width:0.25;"/>
<line x1="454.950000" y1="220.000000" x2="462.950000" y2="220.000000"  style="stroke:black; stroke-linecap:round; stroke-width:0.25;"/>
<line x1="454.950000" y1="232.000000" x2="454.950000" y2="220.000000"  style="stroke:black; stroke-linecap:round; stroke-width:0.25;"/>
<line x1="454.950000" y1="232.000000" x2="454.950000" y2="232.000000"  style="stroke:black; stroke-linecap:round; stroke-width:0.25;"/>
<line x1="460.700000" y1="72.000000" x2="464.700000" y2="72.000000"  style="stroke:black; stroke-linecap:round; stroke-width:0.25;"/>
<line x1="460.700000" y1="154.000000" x2="464.700000" y2="154.000000"  style="stroke:black; stroke-linecap:round; stroke-width:0.25;"/>
<line x1="462.950000" y1="200.000000" x2="462.950000" y2="212.000000"  style="stroke:black; stroke-linecap:round; stroke-width:0.25;"/>
<line x1="462.950000" y1="212.000000" x2="462.950000" y2="212.000000"  style="stroke:black; stroke-linecap:round; stroke-width:0.25;"/>
<line x1="462.950000" y1="212.000000" x2="466.950000" y2="212.000000"  style="stroke:black; stroke-linecap:round; stroke-width:0.25;"/>
<line x1="462.950000" y1="220.000000" x2="466.950000" y2="220.000000"  style="stroke:black; stroke-linecap:round; stroke-width:0.25;"/>
<line x1="464.700000" y1="72.000000" x2="472.700000" y2="72.000000"  style="stroke:black; stroke-linecap:round; stroke-width:0.25;"/>
<line x1="464.700000" y1="106.000000" x2="472.700000" y2="106.000000"  style="stroke:black; stroke-linecap:round; stroke-width:0.25;"/>
<line x1="464.700000" y1="154.000000" x2="464.700000" y2="106.000000"  style="stroke:black; stroke-linecap:round; stroke-width:0.25;"/>
<line x1="464.700000" y1="154.000000" x2="464.700000" y2="154.000000"  style="stroke:black; stroke-linecap:round; stroke-width:0.25;"/>
<line x1="472.700000" y1="72.000000" x2="472.700000" y2="98.000000"  style="stroke:black; stroke-linecap:round; stroke-width:0.25;"/>
<line x1="472.700000" y1="98.000000" x2="472.700000" y2="98.000000"  style="stroke:black; stroke-linecap:round; stroke-width:0.25;"/>
<line x1="472.700000" y1="98.000000" x2="476.700000" y2="98.000000"  style="stroke:black; stroke-linecap:round; stroke-width:0.25;"/>
<line x1="472.700000" y1="106.000000" x2="476.700000" y2="106.000000"  style="stroke:black; stroke-linecap:round; stroke-width:0.25;"/>
<line x1="490.950000" y1="216.000000" x2="494.950000" y2="216.000000"  style="stroke:black; stroke-linecap:round; stroke-width:0.25;"/>
<line x1="494.950000" y1="216.000000" x2="504.700000" y2="216.000000"  style="stroke:black; stroke-linecap:round; stroke-width:0.25;"/>
<line x1="500.700000" y1="102.000000" x2="504.700000" y2="102.000000"  style="stroke:black; stroke-linecap:round; stroke-width:0.25;"/>
<line x1="504.700000" y1="102.000000" x2="512.700000" y2="102.000000"  style="stroke:black; stroke-linecap:round; stroke-width:0.25;"/>
<line x1="504.700000" y1="138.000000" x2="512.700000" y2="138.000000"  style="stroke:black; stroke-linecap:round; stroke-width:0.25;"/>
<line x1="504.700000" y1="216.000000" x2="504.700000" y2="138.000000"  style="stroke:black; stroke-linecap:round; stroke-width:0.25;"/>
<line x1="504.700000" y1="216.000000" x2="504.700000" y2="216.000000"  style="stroke:black; stroke-linecap:round; stroke-width:0.25;"/>
<line x1="512.700000" y1="102.000000" x2="512.700000" y2="130.000000"  style="stroke:black; stroke-linecap:round; stroke-width:0.25;"/>
<line x1="512.700000" y1="130.000000" x2="512.700000" y2="130.000000"  style="stroke:black; stroke-linecap:round; stroke-width:0.25;"/>
<line x1="512.700000" y1="130.000000" x2="516.700000" y2="130.000000"  style="stroke:black; stroke-linecap:round; stroke-width:0.25;"/>
<line x1="512.700000" y1="138.000000" x2="516.700000" y2="138.000000"  style="stroke:black; stroke-linecap:round; stroke-width:0.25;"/>
<line x1="540.700000" y1="134.000000" x2="544.700000" y2="134.000000"  style="stroke:black; stroke-linecap:round; stroke-width:0.25;"/>
<line x1="544.700000" y1="134.000000" x2="544.700000" y2="134.000000"  style="stroke:black; stroke-linecap:round; stroke-width:0.25;"/>
<line x1="544.700000" y1="134.000000" x2="548.700000" y2="134.000000"  style="stroke:black; stroke-linecap:round; stroke-width:0.25;"/>
<line x1="548.700000" y1="134.000000" x2="552.700000" y2="134.000000"  style="stroke:black; stroke-linecap:round; stroke-width:0.25;"/>
<line x1="552.700000" y1="134.000000" x2="562.700000" y2="134.000000"  style="stroke:black; stroke-linecap:round; stroke-width:0.25;"/>
</svg>
