<?xml version="1.0"?>
<svg xmlns="http://www.w3.org/2000/svg" xmlns:xlink="http://www.w3.org/1999/xlink" viewBox="0 0 229.400000 136.000000" width="114.700000mm" height="68.000000mm" version="1.1">
<a xlink:href="peakenvelope-0x600021751320.svg">
<rect x="0.000000" y="0.000000" width="228.400000" height="135.000000" rx="0" ry="0" style="stroke:#000000;fill:#FFFFFF;"/>
</a>
<text x="10.000000" y="7.000000" font-family="Verdana" font-size="7"></text>
<rect x="32.000000" y="56.000000" width="38.700000" height="24.000000" rx="0" ry="0" style="stroke:#000000;fill:#FFFFFF;"/>
<text x="51.350000" y="70.000000" font-family="Verdana" font-size="7" text-anchor="middle" fill="#000000">[806] y</text>
<circle cx="34.000000" cy="58.000000" r="1"/>
<line x1="29.000000" y1="67.000000" x2="32.000000" y2="68.000000"  transform="rotate(0.000000,32.000000,68.000000)" style="stroke: black; stroke-width:0.25;"/>
<line x1="29.000000" y1="69.000000" x2="32.000000" y2="68.000000"  transform="rotate(0.000000,32.000000,68.000000)" style="stroke: black; stroke-width:0.25;"/>
<rect x="82.700000" y="24.000000" width="38.700000" height="24.000000" rx="0" ry="0" style="stroke:#000000;fill:#FFFFFF;"/>
<text x="102.050000" y="38.000000" font-family="Verdana" font-size="7" text-anchor="middle" fill="#000000">[805] x</text>
<circle cx="84.700000" cy="26.000000" r="1"/>
<rect x="129.400000" y="24.000000" width="24.000000" height="24.000000" rx="0" ry="0" style="stroke:#000000;fill:#FFFFFF;"/>
<text x="141.400000" y="38.000000" font-family="Verdana" font-size="7" text-anchor="middle" fill="#000000">abs</text>
<circle cx="131.400000" cy="26.000000" r="1"/>
<line x1="126.400000" y1="35.000000" x2="129.400000" y2="36.000000"  transform="rotate(0.000000,129.400000,36.000000)" style="stroke: black; stroke-width:0.25;"/>
<line x1="126.400000" y1="37.000000" x2="129.400000" y2="36.000000"  transform="rotate(0.000000,129.400000,36.000000)" style="stroke: black; stroke-width:0.25;"/>
<rect x="78.700000" y="56.000000" width="38.700000" height="24.000000" rx="0" ry="0" style="stroke:#000000;fill:#FFFFFF;"/>
<text x="98.050000" y="70.000000" font-family="Verdana" font-size="7" text-anchor="middle" fill="#000000">[806] y</text>
<circle cx="80.700000" cy="58.000000" r="1"/>
<a xlink:href="coeff-0x6000056ade60.svg">
<rect x="85.150000" y="88.000000" width="25.800000" height="24.000000" rx="0" ry="0" style="stroke:#000000;fill:#FFFFFF;"/>
</a>
<a xlink:href="coeff-0x6000056ade60.svg">
<text x="98.050000" y="102.000000" font-family="Verdana" font-size="7" text-anchor="middle" fill="#000000">coeff</text>
</a>
<circle cx="87.150000" cy="90.000000" r="1"/>
<rect x="133.400000" y="72.000000" width="24.000000" height="24.000000" rx="0" ry="0" style="stroke:#000000;fill:#FFFFFF;"/>
<text x="145.400000" y="86.000000" font-family="Verdana" font-size="7" text-anchor="middle" fill="#000000">*</text>
<circle cx="135.400000" cy="74.000000" r="1"/>
<line x1="130.400000" y1="79.000000" x2="133.400000" y2="80.000000"  transform="rotate(0.000000,133.400000,80.000000)" style="stroke: black; stroke-width:0.25;"/>
<line x1="130.400000" y1="81.000000" x2="133.400000" y2="80.000000"  transform="rotate(0.000000,133.400000,80.000000)" style="stroke: black; stroke-width:0.25;"/>
<line x1="130.400000" y1="87.000000" x2="133.400000" y2="88.000000"  transform="rotate(0.000000,133.400000,88.000000)" style="stroke: black; stroke-width:0.25;"/>
<line x1="130.400000" y1="89.000000" x2="133.400000" y2="88.000000"  transform="rotate(0.000000,133.400000,88.000000)" style="stroke: black; stroke-width:0.25;"/>
<rect x="173.400000" y="56.000000" width="24.000000" height="24.000000" rx="0" ry="0" style="stroke:#000000;fill:#FFFFFF;"/>
<text x="185.400000" y="70.000000" font-family="Verdana" font-size="7" text-anchor="middle" fill="#000000">max</text>
<circle cx="175.400000" cy="58.000000" r="1"/>
<line x1="170.400000" y1="63.000000" x2="173.400000" y2="64.000000"  transform="rotate(0.000000,173.400000,64.000000)" style="stroke: black; stroke-width:0.25;"/>
<line x1="170.400000" y1="65.000000" x2="173.400000" y2="64.000000"  transform="rotate(0.000000,173.400000,64.000000)" style="stroke: black; stroke-width:0.25;"/>
<line x1="170.400000" y1="71.000000" x2="173.400000" y2="72.000000"  transform="rotate(0.000000,173.400000,72.000000)" style="stroke: black; stroke-width:0.25;"/>
<line x1="170.400000" y1="73.000000" x2="173.400000" y2="72.000000"  transform="rotate(0.000000,173.400000,72.000000)" style="stroke: black; stroke-width:0.25;"/>
<line x1="15.000000" y1="15.000000" x2="15.000000" y2="121.000000"  style="stroke: black; stroke-linecap:round; stroke-width:0.25; stroke-dasharray:3,3;"/>
<line x1="15.000000" y1="121.000000" x2="214.400000" y2="121.000000"  style="stroke: black; stroke-linecap:round; stroke-width:0.25; stroke-dasharray:3,3;"/>
<line x1="214.400000" y1="121.000000" x2="214.400000" y2="15.000000"  style="stroke: black; stroke-linecap:round; stroke-width:0.25; stroke-dasharray:3,3;"/>
<line x1="15.000000" y1="15.000000" x2="20.000000" y2="15.000000"  style="stroke: black; stroke-linecap:round; stroke-width:0.25; stroke-dasharray:3,3;"/>
<line x1="39.350000" y1="15.000000" x2="214.400000" y2="15.000000"  style="stroke: black; stroke-linecap:round; stroke-width:0.25; stroke-dasharray:3,3;"/>
<text x="20.000000" y="17.000000" font-family="Verdana" font-size="7">loop</text>
<line x1="216.400000" y1="67.000000" x2="219.400000" y2="68.000000"  transform="rotate(0.000000,219.400000,68.000000)" style="stroke: black; stroke-width:0.25;"/>
<line x1="216.400000" y1="69.000000" x2="219.400000" y2="68.000000"  transform="rotate(0.000000,219.400000,68.000000)" style="stroke: black; stroke-width:0.25;"/>
<line x1="10.000000" y1="68.000000" x2="20.000000" y2="68.000000"  style="stroke:black; stroke-linecap:round; stroke-width:0.25;"/>
<line x1="20.000000" y1="68.000000" x2="24.000000" y2="68.000000"  style="stroke:black; stroke-linecap:round; stroke-width:0.25;"/>
<line x1="24.000000" y1="68.000000" x2="28.000000" y2="68.000000"  style="stroke:black; stroke-linecap:round; stroke-width:0.25;"/>
<line x1="28.000000" y1="68.000000" x2="28.000000" y2="68.000000"  style="stroke:black; stroke-linecap:round; stroke-width:0.25;"/>
<line x1="28.000000" y1="68.000000" x2="32.000000" y2="68.000000"  style="stroke:black; stroke-linecap:round; stroke-width:0.25;"/>
<line x1="110.950000" y1="100.000000" x2="114.950000" y2="100.000000"  style="stroke:black; stroke-linecap:round; stroke-width:0.25;"/>
<line x1="114.950000" y1="100.000000" x2="121.400000" y2="100.000000"  style="stroke:black; stroke-linecap:round; stroke-width:0.25;"/>
<line x1="117.400000" y1="68.000000" x2="121.400000" y2="68.000000"  style="stroke:black; stroke-linecap:round; stroke-width:0.25;"/>
<line x1="121.400000" y1="36.000000" x2="125.400000" y2="36.000000"  style="stroke:black; stroke-linecap:round; stroke-width:0.25;"/>
<line x1="121.400000" y1="68.000000" x2="129.400000" y2="68.000000"  style="stroke:black; stroke-linecap:round; stroke-width:0.25;"/>
<line x1="121.400000" y1="88.000000" x2="129.400000" y2="88.000000"  style="stroke:black; stroke-linecap:round; stroke-width:0.25;"/>
<line x1="121.400000" y1="100.000000" x2="121.400000" y2="88.000000"  style="stroke:black; stroke-linecap:round; stroke-width:0.25;"/>
<line x1="121.400000" y1="100.000000" x2="121.400000" y2="100.000000"  style="stroke:black; stroke-linecap:round; stroke-width:0.25;"/>
<line x1="125.400000" y1="36.000000" x2="125.400000" y2="36.000000"  style="stroke:black; stroke-linecap:round; stroke-width:0.25;"/>
<line x1="125.400000" y1="36.000000" x2="129.400000" y2="36.000000"  style="stroke:black; stroke-linecap:round; stroke-width:0.25;"/>
<line x1="129.400000" y1="68.000000" x2="129.400000" y2="80.000000"  style="stroke:black; stroke-linecap:round; stroke-width:0.25;"/>
<line x1="129.400000" y1="80.000000" x2="129.400000" y2="80.000000"  style="stroke:black; stroke-linecap:round; stroke-width:0.25;"/>
<line x1="129.400000" y1="80.000000" x2="133.400000" y2="80.000000"  style="stroke:black; stroke-linecap:round; stroke-width:0.25;"/>
<line x1="129.400000" y1="88.000000" x2="133.400000" y2="88.000000"  style="stroke:black; stroke-linecap:round; stroke-width:0.25;"/>
<line x1="153.400000" y1="36.000000" x2="157.400000" y2="36.000000"  style="stroke:black; stroke-linecap:round; stroke-width:0.25;"/>
<line x1="157.400000" y1="36.000000" x2="161.400000" y2="36.000000"  style="stroke:black; stroke-linecap:round; stroke-width:0.25;"/>
<line x1="157.400000" y1="84.000000" x2="161.400000" y2="84.000000"  style="stroke:black; stroke-linecap:round; stroke-width:0.25;"/>
<line x1="161.400000" y1="36.000000" x2="169.400000" y2="36.000000"  style="stroke:black; stroke-linecap:round; stroke-width:0.25;"/>
<line x1="161.400000" y1="72.000000" x2="169.400000" y2="72.000000"  style="stroke:black; stroke-linecap:round; stroke-width:0.25;"/>
<line x1="161.400000" y1="84.000000" x2="161.400000" y2="72.000000"  style="stroke:black; stroke-linecap:round; stroke-width:0.25;"/>
<line x1="161.400000" y1="84.000000" x2="161.400000" y2="84.000000"  style="stroke:black; stroke-linecap:round; stroke-width:0.25;"/>
<line x1="169.400000" y1="36.000000" x2="169.400000" y2="64.000000"  style="stroke:black; stroke-linecap:round; stroke-width:0.25;"/>
<line x1="169.400000" y1="64.000000" x2="169.400000" y2="64.000000"  style="stroke:black; stroke-linecap:round; stroke-width:0.25;"/>
<line x1="169.400000" y1="64.000000" x2="173.400000" y2="64.000000"  style="stroke:black; stroke-linecap:round; stroke-width:0.25;"/>
<line x1="169.400000" y1="72.000000" x2="173.400000" y2="72.000000"  style="stroke:black; stroke-linecap:round; stroke-width:0.25;"/>
<line x1="197.400000" y1="68.000000" x2="201.400000" y2="68.000000"  style="stroke:black; stroke-linecap:round; stroke-width:0.25;"/>
<line x1="201.400000" y1="68.000000" x2="201.400000" y2="68.000000"  style="stroke:black; stroke-linecap:round; stroke-width:0.25;"/>
<line x1="201.400000" y1="68.000000" x2="205.400000" y2="68.000000"  style="stroke:black; stroke-linecap:round; stroke-width:0.25;"/>
<line x1="205.400000" y1="68.000000" x2="209.400000" y2="68.000000"  style="stroke:black; stroke-linecap:round; stroke-width:0.25;"/>
<line x1="209.400000" y1="68.000000" x2="219.400000" y2="68.000000"  style="stroke:black; stroke-linecap:round; stroke-width:0.25;"/>
</svg>
