<?xml version="1.0"?>
<svg xmlns="http://www.w3.org/2000/svg" xmlns:xlink="http://www.w3.org/1999/xlink" viewBox="0 0 314.800000 136.000000" width="157.400000mm" height="68.000000mm" version="1.1">
<a xlink:href="peakenvelope-0x600005694a20.svg">
<rect x="0.000000" y="0.000000" width="313.800000" height="135.000000" rx="0" ry="0" style="stroke:#000000;fill:#FFFFFF;"/>
</a>
<text x="10.000000" y="7.000000" font-family="Verdana" font-size="7"></text>
<rect x="40.000000" y="52.000000" width="25.800000" height="24.000000" rx="0" ry="0" style="stroke:#000000;fill:#FFFFFF;"/>
<text x="52.900000" y="66.000000" font-family="Verdana" font-size="7" text-anchor="middle" fill="#000000">[20] y</text>
<circle cx="42.000000" cy="54.000000" r="1"/>
<line x1="37.000000" y1="63.000000" x2="40.000000" y2="64.000000"  transform="rotate(0.000000,40.000000,64.000000)" style="stroke: black; stroke-width:0.25;"/>
<line x1="37.000000" y1="65.000000" x2="40.000000" y2="64.000000"  transform="rotate(0.000000,40.000000,64.000000)" style="stroke: black; stroke-width:0.25;"/>
<a xlink:href="BPTPTNormalized-0x600005694090.svg">
<rect x="81.800000" y="24.000000" width="129.000000" height="24.000000" rx="0" ry="0" style="stroke:#000000;fill:#FFFFFF;"/>
</a>
<a xlink:href="BPTPTNormalized-0x600005694090.svg">
<text x="146.300000" y="38.000000" font-family="Verdana" font-size="7" text-anchor="middle" fill="#000000">BPTPTNormalized(20)(1000)(713)</text>
</a>
<circle cx="83.800000" cy="26.000000" r="1"/>
<line x1="78.800000" y1="35.000000" x2="81.800000" y2="36.000000"  transform="rotate(0.000000,81.800000,36.000000)" style="stroke: black; stroke-width:0.25;"/>
<line x1="78.800000" y1="37.000000" x2="81.800000" y2="36.000000"  transform="rotate(0.000000,81.800000,36.000000)" style="stroke: black; stroke-width:0.25;"/>
<rect x="218.800000" y="24.000000" width="24.000000" height="24.000000" rx="0" ry="0" style="stroke:#000000;fill:#FFFFFF;"/>
<text x="230.800000" y="38.000000" font-family="Verdana" font-size="7" text-anchor="middle" fill="#000000">abs</text>
<circle cx="220.800000" cy="26.000000" r="1"/>
<line x1="215.800000" y1="35.000000" x2="218.800000" y2="36.000000"  transform="rotate(0.000000,218.800000,36.000000)" style="stroke: black; stroke-width:0.25;"/>
<line x1="215.800000" y1="37.000000" x2="218.800000" y2="36.000000"  transform="rotate(0.000000,218.800000,36.000000)" style="stroke: black; stroke-width:0.25;"/>
<rect x="129.400000" y="56.000000" width="25.800000" height="24.000000" rx="0" ry="0" style="stroke:#000000;fill:#FFFFFF;"/>
<text x="142.300000" y="70.000000" font-family="Verdana" font-size="7" text-anchor="middle" fill="#000000">[20] y</text>
<circle cx="131.400000" cy="58.000000" r="1"/>
<a xlink:href="coeff-0x6000056ade60.svg">
<rect x="129.400000" y="88.000000" width="25.800000" height="24.000000" rx="0" ry="0" style="stroke:#000000;fill:#FFFFFF;"/>
</a>
<a xlink:href="coeff-0x6000056ade60.svg">
<text x="142.300000" y="102.000000" font-family="Verdana" font-size="7" text-anchor="middle" fill="#000000">coeff</text>
</a>
<circle cx="131.400000" cy="90.000000" r="1"/>
<rect x="171.200000" y="72.000000" width="24.000000" height="24.000000" rx="0" ry="0" style="stroke:#000000;fill:#FFFFFF;"/>
<text x="183.200000" y="86.000000" font-family="Verdana" font-size="7" text-anchor="middle" fill="#000000">*</text>
<circle cx="173.200000" cy="74.000000" r="1"/>
<line x1="168.200000" y1="79.000000" x2="171.200000" y2="80.000000"  transform="rotate(0.000000,171.200000,80.000000)" style="stroke: black; stroke-width:0.25;"/>
<line x1="168.200000" y1="81.000000" x2="171.200000" y2="80.000000"  transform="rotate(0.000000,171.200000,80.000000)" style="stroke: black; stroke-width:0.25;"/>
<line x1="168.200000" y1="87.000000" x2="171.200000" y2="88.000000"  transform="rotate(0.000000,171.200000,88.000000)" style="stroke: black; stroke-width:0.25;"/>
<line x1="168.200000" y1="89.000000" x2="171.200000" y2="88.000000"  transform="rotate(0.000000,171.200000,88.000000)" style="stroke: black; stroke-width:0.25;"/>
<rect x="258.800000" y="56.000000" width="24.000000" height="24.000000" rx="0" ry="0" style="stroke:#000000;fill:#FFFFFF;"/>
<text x="270.800000" y="70.000000" font-family="Verdana" font-size="7" text-anchor="middle" fill="#000000">max</text>
<circle cx="260.800000" cy="58.000000" r="1"/>
<line x1="255.800000" y1="63.000000" x2="258.800000" y2="64.000000"  transform="rotate(0.000000,258.800000,64.000000)" style="stroke: black; stroke-width:0.25;"/>
<line x1="255.800000" y1="65.000000" x2="258.800000" y2="64.000000"  transform="rotate(0.000000,258.800000,64.000000)" style="stroke: black; stroke-width:0.25;"/>
<line x1="255.800000" y1="71.000000" x2="258.800000" y2="72.000000"  transform="rotate(0.000000,258.800000,72.000000)" style="stroke: black; stroke-width:0.25;"/>
<line x1="255.800000" y1="73.000000" x2="258.800000" y2="72.000000"  transform="rotate(0.000000,258.800000,72.000000)" style="stroke: black; stroke-width:0.25;"/>
<line x1="15.000000" y1="15.000000" x2="15.000000" y2="121.000000"  style="stroke: black; stroke-linecap:round; stroke-width:0.25; stroke-dasharray:3,3;"/>
<line x1="15.000000" y1="121.000000" x2="299.800000" y2="121.000000"  style="stroke: black; stroke-linecap:round; stroke-width:0.25; stroke-dasharray:3,3;"/>
<line x1="299.800000" y1="121.000000" x2="299.800000" y2="15.000000"  style="stroke: black; stroke-linecap:round; stroke-width:0.25; stroke-dasharray:3,3;"/>
<line x1="15.000000" y1="15.000000" x2="20.000000" y2="15.000000"  style="stroke: black; stroke-linecap:round; stroke-width:0.25; stroke-dasharray:3,3;"/>
<line x1="39.350000" y1="15.000000" x2="299.800000" y2="15.000000"  style="stroke: black; stroke-linecap:round; stroke-width:0.25; stroke-dasharray:3,3;"/>
<text x="20.000000" y="17.000000" font-family="Verdana" font-size="7">loop</text>
<line x1="301.800000" y1="67.000000" x2="304.800000" y2="68.000000"  transform="rotate(0.000000,304.800000,68.000000)" style="stroke: black; stroke-width:0.25;"/>
<line x1="301.800000" y1="69.000000" x2="304.800000" y2="68.000000"  transform="rotate(0.000000,304.800000,68.000000)" style="stroke: black; stroke-width:0.25;"/>
<line x1="10.000000" y1="64.000000" x2="20.000000" y2="64.000000"  style="stroke:black; stroke-linecap:round; stroke-width:0.25;"/>
<line x1="10.000000" y1="72.000000" x2="20.000000" y2="72.000000"  style="stroke:black; stroke-linecap:round; stroke-width:0.25;"/>
<line x1="20.000000" y1="64.000000" x2="24.000000" y2="64.000000"  style="stroke:black; stroke-linecap:round; stroke-width:0.25;"/>
<line x1="20.000000" y1="72.000000" x2="24.000000" y2="72.000000"  style="stroke:black; stroke-linecap:round; stroke-width:0.25;"/>
<line x1="24.000000" y1="64.000000" x2="28.000000" y2="64.000000"  style="stroke:black; stroke-linecap:round; stroke-width:0.25;"/>
<line x1="24.000000" y1="72.000000" x2="28.000000" y2="72.000000"  style="stroke:black; stroke-linecap:round; stroke-width:0.25;"/>
<line x1="28.000000" y1="64.000000" x2="36.000000" y2="64.000000"  style="stroke:black; stroke-linecap:round; stroke-width:0.25;"/>
<line x1="28.000000" y1="72.000000" x2="36.000000" y2="72.000000"  style="stroke:black; stroke-linecap:round; stroke-width:0.25;"/>
<line x1="36.000000" y1="64.000000" x2="40.000000" y2="64.000000"  style="stroke:black; stroke-linecap:round; stroke-width:0.25;"/>
<line x1="36.000000" y1="72.000000" x2="36.000000" y2="84.000000"  style="stroke:black; stroke-linecap:round; stroke-width:0.25;"/>
<line x1="36.000000" y1="84.000000" x2="36.000000" y2="84.000000"  style="stroke:black; stroke-linecap:round; stroke-width:0.25;"/>
<line x1="36.000000" y1="84.000000" x2="52.900000" y2="84.000000"  style="stroke:black; stroke-linecap:round; stroke-width:0.25;"/>
<line x1="52.900000" y1="84.000000" x2="69.800000" y2="84.000000"  style="stroke:black; stroke-linecap:round; stroke-width:0.25;"/>
<line x1="69.800000" y1="36.000000" x2="77.800000" y2="36.000000"  style="stroke:black; stroke-linecap:round; stroke-width:0.25;"/>
<line x1="69.800000" y1="84.000000" x2="69.800000" y2="36.000000"  style="stroke:black; stroke-linecap:round; stroke-width:0.25;"/>
<line x1="69.800000" y1="84.000000" x2="69.800000" y2="84.000000"  style="stroke:black; stroke-linecap:round; stroke-width:0.25;"/>
<line x1="77.800000" y1="36.000000" x2="81.800000" y2="36.000000"  style="stroke:black; stroke-linecap:round; stroke-width:0.25;"/>
<line x1="155.200000" y1="68.000000" x2="159.200000" y2="68.000000"  style="stroke:black; stroke-linecap:round; stroke-width:0.25;"/>
<line x1="155.200000" y1="100.000000" x2="159.200000" y2="100.000000"  style="stroke:black; stroke-linecap:round; stroke-width:0.25;"/>
<line x1="159.200000" y1="68.000000" x2="167.200000" y2="68.000000"  style="stroke:black; stroke-linecap:round; stroke-width:0.25;"/>
<line x1="159.200000" y1="88.000000" x2="167.200000" y2="88.000000"  style="stroke:black; stroke-linecap:round; stroke-width:0.25;"/>
<line x1="159.200000" y1="100.000000" x2="159.200000" y2="88.000000"  style="stroke:black; stroke-linecap:round; stroke-width:0.25;"/>
<line x1="159.200000" y1="100.000000" x2="159.200000" y2="100.000000"  style="stroke:black; stroke-linecap:round; stroke-width:0.25;"/>
<line x1="167.200000" y1="68.000000" x2="167.200000" y2="80.000000"  style="stroke:black; stroke-linecap:round; stroke-width:0.25;"/>
<line x1="167.200000" y1="80.000000" x2="167.200000" y2="80.000000"  style="stroke:black; stroke-linecap:round; stroke-width:0.25;"/>
<line x1="167.200000" y1="80.000000" x2="171.200000" y2="80.000000"  style="stroke:black; stroke-linecap:round; stroke-width:0.25;"/>
<line x1="167.200000" y1="88.000000" x2="171.200000" y2="88.000000"  style="stroke:black; stroke-linecap:round; stroke-width:0.25;"/>
<line x1="195.200000" y1="84.000000" x2="199.200000" y2="84.000000"  style="stroke:black; stroke-linecap:round; stroke-width:0.25;"/>
<line x1="199.200000" y1="84.000000" x2="246.800000" y2="84.000000"  style="stroke:black; stroke-linecap:round; stroke-width:0.25;"/>
<line x1="210.800000" y1="36.000000" x2="214.800000" y2="36.000000"  style="stroke:black; stroke-linecap:round; stroke-width:0.25;"/>
<line x1="214.800000" y1="36.000000" x2="214.800000" y2="36.000000"  style="stroke:black; stroke-linecap:round; stroke-width:0.25;"/>
<line x1="214.800000" y1="36.000000" x2="218.800000" y2="36.000000"  style="stroke:black; stroke-linecap:round; stroke-width:0.25;"/>
<line x1="242.800000" y1="36.000000" x2="246.800000" y2="36.000000"  style="stroke:black; stroke-linecap:round; stroke-width:0.25;"/>
<line x1="246.800000" y1="72.000000" x2="254.800000" y2="72.000000"  style="stroke:black; stroke-linecap:round; stroke-width:0.25;"/>
<line x1="246.800000" y1="84.000000" x2="246.800000" y2="72.000000"  style="stroke:black; stroke-linecap:round; stroke-width:0.25;"/>
<line x1="246.800000" y1="84.000000" x2="246.800000" y2="84.000000"  style="stroke:black; stroke-linecap:round; stroke-width:0.25;"/>
<line x1="246.800000" y1="36.000000" x2="254.800000" y2="36.000000"  style="stroke:black; stroke-linecap:round; stroke-width:0.25;"/>
<line x1="254.800000" y1="36.000000" x2="254.800000" y2="64.000000"  style="stroke:black; stroke-linecap:round; stroke-width:0.25;"/>
<line x1="254.800000" y1="64.000000" x2="254.800000" y2="64.000000"  style="stroke:black; stroke-linecap:round; stroke-width:0.25;"/>
<line x1="254.800000" y1="64.000000" x2="258.800000" y2="64.000000"  style="stroke:black; stroke-linecap:round; stroke-width:0.25;"/>
<line x1="254.800000" y1="72.000000" x2="258.800000" y2="72.000000"  style="stroke:black; stroke-linecap:round; stroke-width:0.25;"/>
<line x1="282.800000" y1="68.000000" x2="286.800000" y2="68.000000"  style="stroke:black; stroke-linecap:round; stroke-width:0.25;"/>
<line x1="286.800000" y1="68.000000" x2="286.800000" y2="68.000000"  style="stroke:black; stroke-linecap:round; stroke-width:0.25;"/>
<line x1="286.800000" y1="68.000000" x2="290.800000" y2="68.000000"  style="stroke:black; stroke-linecap:round; stroke-width:0.25;"/>
<line x1="290.800000" y1="68.000000" x2="294.800000" y2="68.000000"  style="stroke:black; stroke-linecap:round; stroke-width:0.25;"/>
<line x1="294.800000" y1="68.000000" x2="304.800000" y2="68.000000"  style="stroke:black; stroke-linecap:round; stroke-width:0.25;"/>
</svg>
