<?xml version="1.0"?>
<svg xmlns="http://www.w3.org/2000/svg" xmlns:xlink="http://www.w3.org/1999/xlink" viewBox="0 0 327.700000 136.000000" width="163.850000mm" height="68.000000mm" version="1.1">
<a xlink:href="peakenvelope-0x6000057286c0.svg">
<rect x="0.000000" y="0.000000" width="326.700000" height="135.000000" rx="0" ry="0" style="stroke:#000000;fill:#FFFFFF;"/>
</a>
<text x="10.000000" y="7.000000" font-family="Verdana" font-size="7"></text>
<rect x="40.000000" y="52.000000" width="25.800000" height="24.000000" rx="0" ry="0" style="stroke:#000000;fill:#FFFFFF;"/>
<text x="52.900000" y="66.000000" font-family="Verdana" font-size="7" text-anchor="middle" fill="#000000">[36] y</text>
<circle cx="42.000000" cy="54.000000" r="1"/>
<line x1="37.000000" y1="63.000000" x2="40.000000" y2="64.000000"  transform="rotate(0.000000,40.000000,64.000000)" style="stroke: black; stroke-width:0.25;"/>
<line x1="37.000000" y1="65.000000" x2="40.000000" y2="64.000000"  transform="rotate(0.000000,40.000000,64.000000)" style="stroke: black; stroke-width:0.25;"/>
<a xlink:href="BPTPTNormalized-0x600005728090.svg">
<rect x="81.800000" y="24.000000" width="141.900000" height="24.000000" rx="0" ry="0" style="stroke:#000000;fill:#FFFFFF;"/>
</a>
<a xlink:href="BPTPTNormalized-0x600005728090.svg">
<text x="152.750000" y="38.000000" font-family="Verdana" font-size="7" text-anchor="middle" fill="#000000">BPTPTNormalized(100)(1000)(6788)</text>
</a>
<circle cx="83.800000" cy="26.000000" r="1"/>
<line x1="78.800000" y1="35.000000" x2="81.800000" y2="36.000000"  transform="rotate(0.000000,81.800000,36.000000)" style="stroke: black; stroke-width:0.25;"/>
<line x1="78.800000" y1="37.000000" x2="81.800000" y2="36.000000"  transform="rotate(0.000000,81.800000,36.000000)" style="stroke: black; stroke-width:0.25;"/>
<rect x="231.700000" y="24.000000" width="24.000000" height="24.000000" rx="0" ry="0" style="stroke:#000000;fill:#FFFFFF;"/>
<text x="243.700000" y="38.000000" font-family="Verdana" font-size="7" text-anchor="middle" fill="#000000">abs</text>
<circle cx="233.700000" cy="26.000000" r="1"/>
<line x1="228.700000" y1="35.000000" x2="231.700000" y2="36.000000"  transform="rotate(0.000000,231.700000,36.000000)" style="stroke: black; stroke-width:0.25;"/>
<line x1="228.700000" y1="37.000000" x2="231.700000" y2="36.000000"  transform="rotate(0.000000,231.700000,36.000000)" style="stroke: black; stroke-width:0.25;"/>
<rect x="135.850000" y="56.000000" width="25.800000" height="24.000000" rx="0" ry="0" style="stroke:#000000;fill:#FFFFFF;"/>
<text x="148.750000" y="70.000000" font-family="Verdana" font-size="7" text-anchor="middle" fill="#000000">[36] y</text>
<circle cx="137.850000" cy="58.000000" r="1"/>
<a xlink:href="coeff-0x6000056ade60.svg">
<rect x="135.850000" y="88.000000" width="25.800000" height="24.000000" rx="0" ry="0" style="stroke:#000000;fill:#FFFFFF;"/>
</a>
<a xlink:href="coeff-0x6000056ade60.svg">
<text x="148.750000" y="102.000000" font-family="Verdana" font-size="7" text-anchor="middle" fill="#000000">coeff</text>
</a>
<circle cx="137.850000" cy="90.000000" r="1"/>
<rect x="177.650000" y="72.000000" width="24.000000" height="24.000000" rx="0" ry="0" style="stroke:#000000;fill:#FFFFFF;"/>
<text x="189.650000" y="86.000000" font-family="Verdana" font-size="7" text-anchor="middle" fill="#000000">*</text>
<circle cx="179.650000" cy="74.000000" r="1"/>
<line x1="174.650000" y1="79.000000" x2="177.650000" y2="80.000000"  transform="rotate(0.000000,177.650000,80.000000)" style="stroke: black; stroke-width:0.25;"/>
<line x1="174.650000" y1="81.000000" x2="177.650000" y2="80.000000"  transform="rotate(0.000000,177.650000,80.000000)" style="stroke: black; stroke-width:0.25;"/>
<line x1="174.650000" y1="87.000000" x2="177.650000" y2="88.000000"  transform="rotate(0.000000,177.650000,88.000000)" style="stroke: black; stroke-width:0.25;"/>
<line x1="174.650000" y1="89.000000" x2="177.650000" y2="88.000000"  transform="rotate(0.000000,177.650000,88.000000)" style="stroke: black; stroke-width:0.25;"/>
<rect x="271.700000" y="56.000000" width="24.000000" height="24.000000" rx="0" ry="0" style="stroke:#000000;fill:#FFFFFF;"/>
<text x="283.700000" y="70.000000" font-family="Verdana" font-size="7" text-anchor="middle" fill="#000000">max</text>
<circle cx="273.700000" cy="58.000000" r="1"/>
<line x1="268.700000" y1="63.000000" x2="271.700000" y2="64.000000"  transform="rotate(0.000000,271.700000,64.000000)" style="stroke: black; stroke-width:0.25;"/>
<line x1="268.700000" y1="65.000000" x2="271.700000" y2="64.000000"  transform="rotate(0.000000,271.700000,64.000000)" style="stroke: black; stroke-width:0.25;"/>
<line x1="268.700000" y1="71.000000" x2="271.700000" y2="72.000000"  transform="rotate(0.000000,271.700000,72.000000)" style="stroke: black; stroke-width:0.25;"/>
<line x1="268.700000" y1="73.000000" x2="271.700000" y2="72.000000"  transform="rotate(0.000000,271.700000,72.000000)" style="stroke: black; stroke-width:0.25;"/>
<line x1="15.000000" y1="15.000000" x2="15.000000" y2="121.000000"  style="stroke: black; stroke-linecap:round; stroke-width:0.25; stroke-dasharray:3,3;"/>
<line x1="15.000000" y1="121.000000" x2="312.700000" y2="121.000000"  style="stroke: black; stroke-linecap:round; stroke-width:0.25; stroke-dasharray:3,3;"/>
<line x1="312.700000" y1="121.000000" x2="312.700000" y2="15.000000"  style="stroke: black; stroke-linecap:round; stroke-width:0.25; stroke-dasharray:3,3;"/>
<line x1="15.000000" y1="15.000000" x2="20.000000" y2="15.000000"  style="stroke: black; stroke-linecap:round; stroke-width:0.25; stroke-dasharray:3,3;"/>
<line x1="39.350000" y1="15.000000" x2="312.700000" y2="15.000000"  style="stroke: black; stroke-linecap:round; stroke-width:0.25; stroke-dasharray:3,3;"/>
<text x="20.000000" y="17.000000" font-family="Verdana" font-size="7">loop</text>
<line x1="314.700000" y1="67.000000" x2="317.700000" y2="68.000000"  transform="rotate(0.000000,317.700000,68.000000)" style="stroke: black; stroke-width:0.25;"/>
<line x1="314.700000" y1="69.000000" x2="317.700000" y2="68.000000"  transform="rotate(0.000000,317.700000,68.000000)" style="stroke: black; stroke-width:0.25;"/>
<line x1="10.000000" y1="64.000000" x2="20.000000" y2="64.000000"  style="stroke:black; stroke-linecap:round; stroke-width:0.25;"/>
<line x1="10.000000" y1="72.000000" x2="20.000000" y2="72.000000"  style="stroke:black; stroke-linecap:round; stroke-width:0.25;"/>
<line x1="20.000000" y1="64.000000" x2="24.000000" y2="64.000000"  style="stroke:black; stroke-linecap:round; stroke-width:0.25;"/>
<line x1="20.000000" y1="72.000000" x2="24.000000" y2="72.000000"  style="stroke:black; stroke-linecap:round; stroke-width:0.25;"/>
<line x1="24.000000" y1="64.000000" x2="28.000000" y2="64.000000"  style="stroke:black; stroke-linecap:round; stroke-width:0.25;"/>
<line x1="24.000000" y1="72.000000" x2="28.000000" y2="72.000000"  style="stroke:black; stroke-linecap:round; stroke-width:0.25;"/>
<line x1="28.000000" y1="64.000000" x2="36.000000" y2="64.000000"  style="stroke:black; stroke-linecap:round; stroke-width:0.25;"/>
<line x1="28.000000" y1="72.000000" x2="36.000000" y2="72.000000"  style="stroke:black; stroke-linecap:round; stroke-width:0.25;"/>
<line x1="36.000000" y1="64.000000" x2="40.000000" y2="64.000000"  style="stroke:black; stroke-linecap:round; stroke-width:0.25;"/>
<line x1="36.000000" y1="72.000000" x2="36.000000" y2="84.000000"  style="stroke:black; stroke-linecap:round; stroke-width:0.25;"/>
<line x1="36.000000" y1="84.000000" x2="36.000000" y2="84.000000"  style="stroke:black; stroke-linecap:round; stroke-width:0.25;"/>
<line x1="36.000000" y1="84.000000" x2="52.900000" y2="84.000000"  style="stroke:black; stroke-linecap:round; stroke-width:0.25;"/>
<line x1="52.900000" y1="84.000000" x2="69.800000" y2="84.000000"  style="stroke:black; stroke-linecap:round; stroke-width:0.25;"/>
<line x1="69.800000" y1="36.000000" x2="77.800000" y2="36.000000"  style="stroke:black; stroke-linecap:round; stroke-width:0.25;"/>
<line x1="69.800000" y1="84.000000" x2="69.800000" y2="36.000000"  style="stroke:black; stroke-linecap:round; stroke-width:0.25;"/>
<line x1="69.800000" y1="84.000000" x2="69.800000" y2="84.000000"  style="stroke:black; stroke-linecap:round; stroke-width:0.25;"/>
<line x1="77.800000" y1="36.000000" x2="81.800000" y2="36.000000"  style="stroke:black; stroke-linecap:round; stroke-width:0.25;"/>
<line x1="161.650000" y1="68.000000" x2="165.650000" y2="68.000000"  style="stroke:black; stroke-linecap:round; stroke-width:0.25;"/>
<line x1="161.650000" y1="100.000000" x2="165.650000" y2="100.000000"  style="stroke:black; stroke-linecap:round; stroke-width:0.25;"/>
<line x1="165.650000" y1="68.000000" x2="173.650000" y2="68.000000"  style="stroke:black; stroke-linecap:round; stroke-width:0.25;"/>
<line x1="165.650000" y1="88.000000" x2="173.650000" y2="88.000000"  style="stroke:black; stroke-linecap:round; stroke-width:0.25;"/>
<line x1="165.650000" y1="100.000000" x2="165.650000" y2="88.000000"  style="stroke:black; stroke-linecap:round; stroke-width:0.25;"/>
<line x1="165.650000" y1="100.000000" x2="165.650000" y2="100.000000"  style="stroke:black; stroke-linecap:round; stroke-width:0.25;"/>
<line x1="173.650000" y1="68.000000" x2="173.650000" y2="80.000000"  style="stroke:black; stroke-linecap:round; stroke-width:0.25;"/>
<line x1="173.650000" y1="80.000000" x2="173.650000" y2="80.000000"  style="stroke:black; stroke-linecap:round; stroke-width:0.25;"/>
<line x1="173.650000" y1="80.000000" x2="177.650000" y2="80.000000"  style="stroke:black; stroke-linecap:round; stroke-width:0.25;"/>
<line x1="173.650000" y1="88.000000" x2="177.650000" y2="88.000000"  style="stroke:black; stroke-linecap:round; stroke-width:0.25;"/>
<line x1="201.650000" y1="84.000000" x2="205.650000" y2="84.000000"  style="stroke:black; stroke-linecap:round; stroke-width:0.25;"/>
<line x1="205.650000" y1="84.000000" x2="259.700000" y2="84.000000"  style="stroke:black; stroke-linecap:round; stroke-width:0.25;"/>
<line x1="223.700000" y1="36.000000" x2="227.700000" y2="36.000000"  style="stroke:black; stroke-linecap:round; stroke-width:0.25;"/>
<line x1="227.700000" y1="36.000000" x2="227.700000" y2="36.000000"  style="stroke:black; stroke-linecap:round; stroke-width:0.25;"/>
<line x1="227.700000" y1="36.000000" x2="231.700000" y2="36.000000"  style="stroke:black; stroke-linecap:round; stroke-width:0.25;"/>
<line x1="255.700000" y1="36.000000" x2="259.700000" y2="36.000000"  style="stroke:black; stroke-linecap:round; stroke-width:0.25;"/>
<line x1="259.700000" y1="36.000000" x2="267.700000" y2="36.000000"  style="stroke:black; stroke-linecap:round; stroke-width:0.25;"/>
<line x1="259.700000" y1="72.000000" x2="267.700000" y2="72.000000"  style="stroke:black; stroke-linecap:round; stroke-width:0.25;"/>
<line x1="259.700000" y1="84.000000" x2="259.700000" y2="72.000000"  style="stroke:black; stroke-linecap:round; stroke-width:0.25;"/>
<line x1="259.700000" y1="84.000000" x2="259.700000" y2="84.000000"  style="stroke:black; stroke-linecap:round; stroke-width:0.25;"/>
<line x1="267.700000" y1="36.000000" x2="267.700000" y2="64.000000"  style="stroke:black; stroke-linecap:round; stroke-width:0.25;"/>
<line x1="267.700000" y1="64.000000" x2="267.700000" y2="64.000000"  style="stroke:black; stroke-linecap:round; stroke-width:0.25;"/>
<line x1="267.700000" y1="64.000000" x2="271.700000" y2="64.000000"  style="stroke:black; stroke-linecap:round; stroke-width:0.25;"/>
<line x1="267.700000" y1="72.000000" x2="271.700000" y2="72.000000"  style="stroke:black; stroke-linecap:round; stroke-width:0.25;"/>
<line x1="295.700000" y1="68.000000" x2="299.700000" y2="68.000000"  style="stroke:black; stroke-linecap:round; stroke-width:0.25;"/>
<line x1="299.700000" y1="68.000000" x2="299.700000" y2="68.000000"  style="stroke:black; stroke-linecap:round; stroke-width:0.25;"/>
<line x1="299.700000" y1="68.000000" x2="303.700000" y2="68.000000"  style="stroke:black; stroke-linecap:round; stroke-width:0.25;"/>
<line x1="303.700000" y1="68.000000" x2="307.700000" y2="68.000000"  style="stroke:black; stroke-linecap:round; stroke-width:0.25;"/>
<line x1="307.700000" y1="68.000000" x2="317.700000" y2="68.000000"  style="stroke:black; stroke-linecap:round; stroke-width:0.25;"/>
</svg>
