<?xml version="1.0"?>
<svg xmlns="http://www.w3.org/2000/svg" xmlns:xlink="http://www.w3.org/1999/xlink" viewBox="0 0 240.500000 200.000000" width="120.250000mm" height="100.000000mm" version="1.1">
<a xlink:href="BPTPTNormaliz-0x600011764ab0.svg">
<rect x="0.000000" y="0.000000" width="239.500000" height="199.000000" rx="0" ry="0" style="stroke:#000000;fill:#FFFFFF;"/>
</a>
<text x="10.000000" y="7.000000" font-family="Verdana" font-size="7"></text>
<rect x="40.000000" y="72.000000" width="38.700000" height="24.000000" rx="0" ry="0" style="stroke:#000000;fill:#FFFFFF;"/>
<text x="59.350000" y="86.000000" font-family="Verdana" font-size="7" text-anchor="middle" fill="#000000">[330] s1</text>
<circle cx="42.000000" cy="74.000000" r="1"/>
<line x1="37.000000" y1="83.000000" x2="40.000000" y2="84.000000"  transform="rotate(0.000000,40.000000,84.000000)" style="stroke: black; stroke-width:0.25;"/>
<line x1="37.000000" y1="85.000000" x2="40.000000" y2="84.000000"  transform="rotate(0.000000,40.000000,84.000000)" style="stroke: black; stroke-width:0.25;"/>
<rect x="40.000000" y="104.000000" width="38.700000" height="24.000000" rx="0" ry="0" style="stroke:#000000;fill:#FFFFFF;"/>
<text x="59.350000" y="118.000000" font-family="Verdana" font-size="7" text-anchor="middle" fill="#000000">[331] s2</text>
<circle cx="42.000000" cy="106.000000" r="1"/>
<line x1="37.000000" y1="115.000000" x2="40.000000" y2="116.000000"  transform="rotate(0.000000,40.000000,116.000000)" style="stroke: black; stroke-width:0.25;"/>
<line x1="37.000000" y1="117.000000" x2="40.000000" y2="116.000000"  transform="rotate(0.000000,40.000000,116.000000)" style="stroke: black; stroke-width:0.25;"/>
<a xlink:href="u1-0x600011764120.svg">
<rect x="127.600000" y="24.000000" width="24.000000" height="24.000000" rx="0" ry="0" style="stroke:#000000;fill:#FFFFFF;"/>
</a>
<a xlink:href="u1-0x600011764120.svg">
<text x="139.600000" y="38.000000" font-family="Verdana" font-size="7" text-anchor="middle" fill="#000000">u1</text>
</a>
<circle cx="129.600000" cy="26.000000" r="1"/>
<a xlink:href="u2-0x600011764480.svg">
<rect x="127.600000" y="56.000000" width="24.000000" height="24.000000" rx="0" ry="0" style="stroke:#000000;fill:#FFFFFF;"/>
</a>
<a xlink:href="u2-0x600011764480.svg">
<text x="139.600000" y="70.000000" font-family="Verdana" font-size="7" text-anchor="middle" fill="#000000">u2</text>
</a>
<circle cx="129.600000" cy="58.000000" r="1"/>
<a xlink:href="bp-0x600011764000.svg">
<rect x="87.600000" y="88.000000" width="24.000000" height="24.000000" rx="0" ry="0" style="stroke:#000000;fill:#FFFFFF;"/>
</a>
<a xlink:href="bp-0x600011764000.svg">
<text x="99.600000" y="102.000000" font-family="Verdana" font-size="7" text-anchor="middle" fill="#000000">bp</text>
</a>
<circle cx="89.600000" cy="90.000000" r="1"/>
<rect x="86.700000" y="120.000000" width="25.800000" height="24.000000" rx="0" ry="0" style="stroke:#000000;fill:#FFFFFF;"/>
<text x="99.600000" y="134.000000" font-family="Verdana" font-size="7" text-anchor="middle" fill="#000000">2.0f</text>
<circle cx="88.700000" cy="122.000000" r="1"/>
<rect x="128.500000" y="104.000000" width="24.000000" height="24.000000" rx="0" ry="0" style="stroke:#000000;fill:#FFFFFF;"/>
<text x="140.500000" y="118.000000" font-family="Verdana" font-size="7" text-anchor="middle" fill="#000000">*</text>
<circle cx="130.500000" cy="106.000000" r="1"/>
<line x1="125.500000" y1="111.000000" x2="128.500000" y2="112.000000"  transform="rotate(0.000000,128.500000,112.000000)" style="stroke: black; stroke-width:0.25;"/>
<line x1="125.500000" y1="113.000000" x2="128.500000" y2="112.000000"  transform="rotate(0.000000,128.500000,112.000000)" style="stroke: black; stroke-width:0.25;"/>
<line x1="125.500000" y1="119.000000" x2="128.500000" y2="120.000000"  transform="rotate(0.000000,128.500000,120.000000)" style="stroke: black; stroke-width:0.25;"/>
<line x1="125.500000" y1="121.000000" x2="128.500000" y2="120.000000"  transform="rotate(0.000000,128.500000,120.000000)" style="stroke: black; stroke-width:0.25;"/>
<a xlink:href="R-0x60001170e910.svg">
<rect x="107.600000" y="152.000000" width="24.000000" height="24.000000" rx="0" ry="0" style="stroke:#000000;fill:#FFFFFF;"/>
</a>
<a xlink:href="R-0x60001170e910.svg">
<text x="119.600000" y="166.000000" font-family="Verdana" font-size="7" text-anchor="middle" fill="#000000">R</text>
</a>
<circle cx="109.600000" cy="154.000000" r="1"/>
<rect x="168.500000" y="120.000000" width="24.000000" height="24.000000" rx="0" ry="0" style="stroke:#000000;fill:#FFFFFF;"/>
<text x="180.500000" y="134.000000" font-family="Verdana" font-size="7" text-anchor="middle" fill="#000000">*</text>
<circle cx="170.500000" cy="122.000000" r="1"/>
<line x1="165.500000" y1="127.000000" x2="168.500000" y2="128.000000"  transform="rotate(0.000000,168.500000,128.000000)" style="stroke: black; stroke-width:0.25;"/>
<line x1="165.500000" y1="129.000000" x2="168.500000" y2="128.000000"  transform="rotate(0.000000,168.500000,128.000000)" style="stroke: black; stroke-width:0.25;"/>
<line x1="165.500000" y1="135.000000" x2="168.500000" y2="136.000000"  transform="rotate(0.000000,168.500000,136.000000)" style="stroke: black; stroke-width:0.25;"/>
<line x1="165.500000" y1="137.000000" x2="168.500000" y2="136.000000"  transform="rotate(0.000000,168.500000,136.000000)" style="stroke: black; stroke-width:0.25;"/>
<line x1="15.000000" y1="15.000000" x2="15.000000" y2="185.000000"  style="stroke: black; stroke-linecap:round; stroke-width:0.25; stroke-dasharray:3,3;"/>
<line x1="15.000000" y1="185.000000" x2="225.500000" y2="185.000000"  style="stroke: black; stroke-linecap:round; stroke-width:0.25; stroke-dasharray:3,3;"/>
<line x1="225.500000" y1="185.000000" x2="225.500000" y2="15.000000"  style="stroke: black; stroke-linecap:round; stroke-width:0.25; stroke-dasharray:3,3;"/>
<line x1="15.000000" y1="15.000000" x2="20.000000" y2="15.000000"  style="stroke: black; stroke-linecap:round; stroke-width:0.25; stroke-dasharray:3,3;"/>
<line x1="39.350000" y1="15.000000" x2="225.500000" y2="15.000000"  style="stroke: black; stroke-linecap:round; stroke-width:0.25; stroke-dasharray:3,3;"/>
<text x="20.000000" y="17.000000" font-family="Verdana" font-size="7">loop</text>
<line x1="227.500000" y1="91.000000" x2="230.500000" y2="92.000000"  transform="rotate(0.000000,230.500000,92.000000)" style="stroke: black; stroke-width:0.25;"/>
<line x1="227.500000" y1="93.000000" x2="230.500000" y2="92.000000"  transform="rotate(0.000000,230.500000,92.000000)" style="stroke: black; stroke-width:0.25;"/>
<line x1="227.500000" y1="99.000000" x2="230.500000" y2="100.000000"  transform="rotate(0.000000,230.500000,100.000000)" style="stroke: black; stroke-width:0.25;"/>
<line x1="227.500000" y1="101.000000" x2="230.500000" y2="100.000000"  transform="rotate(0.000000,230.500000,100.000000)" style="stroke: black; stroke-width:0.25;"/>
<line x1="227.500000" y1="107.000000" x2="230.500000" y2="108.000000"  transform="rotate(0.000000,230.500000,108.000000)" style="stroke: black; stroke-width:0.25;"/>
<line x1="227.500000" y1="109.000000" x2="230.500000" y2="108.000000"  transform="rotate(0.000000,230.500000,108.000000)" style="stroke: black; stroke-width:0.25;"/>
<line x1="10.000000" y1="96.000000" x2="20.000000" y2="96.000000"  style="stroke:black; stroke-linecap:round; stroke-width:0.25;"/>
<line x1="10.000000" y1="104.000000" x2="20.000000" y2="104.000000"  style="stroke:black; stroke-linecap:round; stroke-width:0.25;"/>
<line x1="20.000000" y1="96.000000" x2="24.000000" y2="96.000000"  style="stroke:black; stroke-linecap:round; stroke-width:0.25;"/>
<line x1="20.000000" y1="104.000000" x2="24.000000" y2="104.000000"  style="stroke:black; stroke-linecap:round; stroke-width:0.25;"/>
<line x1="24.000000" y1="96.000000" x2="28.000000" y2="96.000000"  style="stroke:black; stroke-linecap:round; stroke-width:0.25;"/>
<line x1="24.000000" y1="104.000000" x2="28.000000" y2="104.000000"  style="stroke:black; stroke-linecap:round; stroke-width:0.25;"/>
<line x1="28.000000" y1="84.000000" x2="36.000000" y2="84.000000"  style="stroke:black; stroke-linecap:round; stroke-width:0.25;"/>
<line x1="28.000000" y1="96.000000" x2="28.000000" y2="84.000000"  style="stroke:black; stroke-linecap:round; stroke-width:0.25;"/>
<line x1="28.000000" y1="96.000000" x2="28.000000" y2="96.000000"  style="stroke:black; stroke-linecap:round; stroke-width:0.25;"/>
<line x1="28.000000" y1="104.000000" x2="36.000000" y2="104.000000"  style="stroke:black; stroke-linecap:round; stroke-width:0.25;"/>
<line x1="36.000000" y1="84.000000" x2="40.000000" y2="84.000000"  style="stroke:black; stroke-linecap:round; stroke-width:0.25;"/>
<line x1="36.000000" y1="104.000000" x2="36.000000" y2="116.000000"  style="stroke:black; stroke-linecap:round; stroke-width:0.25;"/>
<line x1="36.000000" y1="116.000000" x2="36.000000" y2="116.000000"  style="stroke:black; stroke-linecap:round; stroke-width:0.25;"/>
<line x1="36.000000" y1="116.000000" x2="40.000000" y2="116.000000"  style="stroke:black; stroke-linecap:round; stroke-width:0.25;"/>
<line x1="111.600000" y1="100.000000" x2="115.600000" y2="100.000000"  style="stroke:black; stroke-linecap:round; stroke-width:0.25;"/>
<line x1="112.500000" y1="132.000000" x2="116.500000" y2="132.000000"  style="stroke:black; stroke-linecap:round; stroke-width:0.25;"/>
<line x1="115.600000" y1="100.000000" x2="116.500000" y2="100.000000"  style="stroke:black; stroke-linecap:round; stroke-width:0.25;"/>
<line x1="116.500000" y1="120.000000" x2="124.500000" y2="120.000000"  style="stroke:black; stroke-linecap:round; stroke-width:0.25;"/>
<line x1="116.500000" y1="132.000000" x2="116.500000" y2="120.000000"  style="stroke:black; stroke-linecap:round; stroke-width:0.25;"/>
<line x1="116.500000" y1="132.000000" x2="116.500000" y2="132.000000"  style="stroke:black; stroke-linecap:round; stroke-width:0.25;"/>
<line x1="116.500000" y1="100.000000" x2="124.500000" y2="100.000000"  style="stroke:black; stroke-linecap:round; stroke-width:0.25;"/>
<line x1="124.500000" y1="112.000000" x2="128.500000" y2="112.000000"  style="stroke:black; stroke-linecap:round; stroke-width:0.25;"/>
<line x1="124.500000" y1="120.000000" x2="128.500000" y2="120.000000"  style="stroke:black; stroke-linecap:round; stroke-width:0.25;"/>
<line x1="124.500000" y1="100.000000" x2="124.500000" y2="112.000000"  style="stroke:black; stroke-linecap:round; stroke-width:0.25;"/>
<line x1="124.500000" y1="112.000000" x2="124.500000" y2="112.000000"  style="stroke:black; stroke-linecap:round; stroke-width:0.25;"/>
<line x1="131.600000" y1="164.000000" x2="135.600000" y2="164.000000"  style="stroke:black; stroke-linecap:round; stroke-width:0.25;"/>
<line x1="135.600000" y1="164.000000" x2="156.500000" y2="164.000000"  style="stroke:black; stroke-linecap:round; stroke-width:0.25;"/>
<line x1="151.600000" y1="36.000000" x2="155.600000" y2="36.000000"  style="stroke:black; stroke-linecap:round; stroke-width:0.25;"/>
<line x1="151.600000" y1="68.000000" x2="155.600000" y2="68.000000"  style="stroke:black; stroke-linecap:round; stroke-width:0.25;"/>
<line x1="152.500000" y1="116.000000" x2="156.500000" y2="116.000000"  style="stroke:black; stroke-linecap:round; stroke-width:0.25;"/>
<line x1="155.600000" y1="36.000000" x2="196.500000" y2="36.000000"  style="stroke:black; stroke-linecap:round; stroke-width:0.25;"/>
<line x1="155.600000" y1="68.000000" x2="196.500000" y2="68.000000"  style="stroke:black; stroke-linecap:round; stroke-width:0.25;"/>
<line x1="156.500000" y1="116.000000" x2="164.500000" y2="116.000000"  style="stroke:black; stroke-linecap:round; stroke-width:0.25;"/>
<line x1="156.500000" y1="136.000000" x2="164.500000" y2="136.000000"  style="stroke:black; stroke-linecap:round; stroke-width:0.25;"/>
<line x1="156.500000" y1="164.000000" x2="156.500000" y2="136.000000"  style="stroke:black; stroke-linecap:round; stroke-width:0.25;"/>
<line x1="156.500000" y1="164.000000" x2="156.500000" y2="164.000000"  style="stroke:black; stroke-linecap:round; stroke-width:0.25;"/>
<line x1="164.500000" y1="116.000000" x2="164.500000" y2="128.000000"  style="stroke:black; stroke-linecap:round; stroke-width:0.25;"/>
<line x1="164.500000" y1="128.000000" x2="164.500000" y2="128.000000"  style="stroke:black; stroke-linecap:round; stroke-width:0.25;"/>
<line x1="164.500000" y1="128.000000" x2="168.500000" y2="128.000000"  style="stroke:black; stroke-linecap:round; stroke-width:0.25;"/>
<line x1="164.500000" y1="136.000000" x2="168.500000" y2="136.000000"  style="stroke:black; stroke-linecap:round; stroke-width:0.25;"/>
<line x1="192.500000" y1="132.000000" x2="196.500000" y2="132.000000"  style="stroke:black; stroke-linecap:round; stroke-width:0.25;"/>
<line x1="196.500000" y1="36.000000" x2="212.500000" y2="36.000000"  style="stroke:black; stroke-linecap:round; stroke-width:0.25;"/>
<line x1="196.500000" y1="68.000000" x2="204.500000" y2="68.000000"  style="stroke:black; stroke-linecap:round; stroke-width:0.25;"/>
<line x1="196.500000" y1="108.000000" x2="212.500000" y2="108.000000"  style="stroke:black; stroke-linecap:round; stroke-width:0.25;"/>
<line x1="196.500000" y1="132.000000" x2="196.500000" y2="108.000000"  style="stroke:black; stroke-linecap:round; stroke-width:0.25;"/>
<line x1="196.500000" y1="132.000000" x2="196.500000" y2="132.000000"  style="stroke:black; stroke-linecap:round; stroke-width:0.25;"/>
<line x1="204.500000" y1="68.000000" x2="204.500000" y2="100.000000"  style="stroke:black; stroke-linecap:round; stroke-width:0.25;"/>
<line x1="204.500000" y1="100.000000" x2="212.500000" y2="100.000000"  style="stroke:black; stroke-linecap:round; stroke-width:0.25;"/>
<line x1="212.500000" y1="36.000000" x2="212.500000" y2="92.000000"  style="stroke:black; stroke-linecap:round; stroke-width:0.25;"/>
<line x1="212.500000" y1="92.000000" x2="212.500000" y2="92.000000"  style="stroke:black; stroke-linecap:round; stroke-width:0.25;"/>
<line x1="212.500000" y1="92.000000" x2="216.500000" y2="92.000000"  style="stroke:black; stroke-linecap:round; stroke-width:0.25;"/>
<line x1="212.500000" y1="100.000000" x2="216.500000" y2="100.000000"  style="stroke:black; stroke-linecap:round; stroke-width:0.25;"/>
<line x1="212.500000" y1="108.000000" x2="216.500000" y2="108.000000"  style="stroke:black; stroke-linecap:round; stroke-width:0.25;"/>
<line x1="216.500000" y1="92.000000" x2="220.500000" y2="92.000000"  style="stroke:black; stroke-linecap:round; stroke-width:0.25;"/>
<line x1="216.500000" y1="100.000000" x2="220.500000" y2="100.000000"  style="stroke:black; stroke-linecap:round; stroke-width:0.25;"/>
<line x1="216.500000" y1="108.000000" x2="220.500000" y2="108.000000"  style="stroke:black; stroke-linecap:round; stroke-width:0.25;"/>
<line x1="220.500000" y1="92.000000" x2="230.500000" y2="92.000000"  style="stroke:black; stroke-linecap:round; stroke-width:0.25;"/>
<line x1="220.500000" y1="100.000000" x2="230.500000" y2="100.000000"  style="stroke:black; stroke-linecap:round; stroke-width:0.25;"/>
<line x1="220.500000" y1="108.000000" x2="230.500000" y2="108.000000"  style="stroke:black; stroke-linecap:round; stroke-width:0.25;"/>
</svg>
