<?xml version="1.0"?>
<svg xmlns="http://www.w3.org/2000/svg" xmlns:xlink="http://www.w3.org/1999/xlink" viewBox="0 0 335.200000 132.000000" width="167.600000mm" height="66.000000mm" version="1.1">
<a xlink:href="integrator-0x60000142f720.svg">
<rect x="0.000000" y="0.000000" width="334.200000" height="131.000000" rx="0" ry="0" style="stroke:#000000;fill:#FFFFFF;"/>
</a>
<text x="10.000000" y="7.000000" font-family="Verdana" font-size="7"></text>
<rect x="53.800000" y="42.000000" width="24.000000" height="24.000000" rx="0" ry="0" style="stroke:#000000;fill:#FFFFFF;"/>
<text x="65.800000" y="56.000000" font-family="Verdana" font-size="7" text-anchor="middle" fill="#000000">1</text>
<circle cx="55.800000" cy="44.000000" r="1"/>
<line x1="44.800000" y1="33.000000" x2="44.800000" y2="75.000000"  style="stroke: black; stroke-linecap:round; stroke-width:0.25; stroke-dasharray:3,3;"/>
<line x1="44.800000" y1="75.000000" x2="86.800000" y2="75.000000"  style="stroke: black; stroke-linecap:round; stroke-width:0.25; stroke-dasharray:3,3;"/>
<line x1="86.800000" y1="75.000000" x2="86.800000" y2="33.000000"  style="stroke: black; stroke-linecap:round; stroke-width:0.25; stroke-dasharray:3,3;"/>
<line x1="44.800000" y1="33.000000" x2="49.800000" y2="33.000000"  style="stroke: black; stroke-linecap:round; stroke-width:0.25; stroke-dasharray:3,3;"/>
<line x1="86.800000" y1="33.000000" x2="86.800000" y2="33.000000"  style="stroke: black; stroke-linecap:round; stroke-width:0.25; stroke-dasharray:3,3;"/>
<text x="49.800000" y="35.000000" font-family="Verdana" font-size="7">signum(90)</text>
<a xlink:href="aapp-0x60000142d0e0.svg">
<rect x="40.000000" y="84.000000" width="51.600000" height="24.000000" rx="0" ry="0" style="stroke:#000000;fill:#FFFFFF;"/>
</a>
<a xlink:href="aapp-0x60000142d0e0.svg">
<text x="65.800000" y="98.000000" font-family="Verdana" font-size="7" text-anchor="middle" fill="#000000">aapp(0.5f)</text>
</a>
<circle cx="42.000000" cy="86.000000" r="1"/>
<rect x="107.600000" y="58.000000" width="24.000000" height="24.000000" rx="0" ry="0" style="stroke:#000000;fill:#FFFFFF;"/>
<text x="119.600000" y="72.000000" font-family="Verdana" font-size="7" text-anchor="middle" fill="#000000">-</text>
<circle cx="109.600000" cy="60.000000" r="1"/>
<line x1="104.600000" y1="65.000000" x2="107.600000" y2="66.000000"  transform="rotate(0.000000,107.600000,66.000000)" style="stroke: black; stroke-width:0.25;"/>
<line x1="104.600000" y1="67.000000" x2="107.600000" y2="66.000000"  transform="rotate(0.000000,107.600000,66.000000)" style="stroke: black; stroke-width:0.25;"/>
<line x1="104.600000" y1="73.000000" x2="107.600000" y2="74.000000"  transform="rotate(0.000000,107.600000,74.000000)" style="stroke: black; stroke-width:0.25;"/>
<line x1="104.600000" y1="75.000000" x2="107.600000" y2="74.000000"  transform="rotate(0.000000,107.600000,74.000000)" style="stroke: black; stroke-width:0.25;"/>
<rect x="147.600000" y="54.000000" width="24.000000" height="24.000000" rx="0" ry="0" style="stroke:#000000;fill:#FFFFFF;"/>
<text x="159.600000" y="68.000000" font-family="Verdana" font-size="7" text-anchor="middle" fill="#000000">*</text>
<circle cx="149.600000" cy="56.000000" r="1"/>
<line x1="144.600000" y1="61.000000" x2="147.600000" y2="62.000000"  transform="rotate(0.000000,147.600000,62.000000)" style="stroke: black; stroke-width:0.25;"/>
<line x1="144.600000" y1="63.000000" x2="147.600000" y2="62.000000"  transform="rotate(0.000000,147.600000,62.000000)" style="stroke: black; stroke-width:0.25;"/>
<line x1="144.600000" y1="69.000000" x2="147.600000" y2="70.000000"  transform="rotate(0.000000,147.600000,70.000000)" style="stroke: black; stroke-width:0.25;"/>
<line x1="144.600000" y1="71.000000" x2="147.600000" y2="70.000000"  transform="rotate(0.000000,147.600000,70.000000)" style="stroke: black; stroke-width:0.25;"/>
<rect x="229.400000" y="74.000000" width="24.000000" height="24.000000" rx="0" ry="0" style="stroke:#000000;fill:#FFFFFF;"/>
<text x="241.400000" y="88.000000" font-family="Verdana" font-size="7" text-anchor="middle" fill="#000000">+</text>
<circle cx="231.400000" cy="76.000000" r="1"/>
<line x1="226.400000" y1="81.000000" x2="229.400000" y2="82.000000"  transform="rotate(0.000000,229.400000,82.000000)" style="stroke: black; stroke-width:0.25;"/>
<line x1="226.400000" y1="83.000000" x2="229.400000" y2="82.000000"  transform="rotate(0.000000,229.400000,82.000000)" style="stroke: black; stroke-width:0.25;"/>
<line x1="226.400000" y1="89.000000" x2="229.400000" y2="90.000000"  transform="rotate(0.000000,229.400000,90.000000)" style="stroke: black; stroke-width:0.25;"/>
<line x1="226.400000" y1="91.000000" x2="229.400000" y2="90.000000"  transform="rotate(0.000000,229.400000,90.000000)" style="stroke: black; stroke-width:0.25;"/>
<a xlink:href="aapp-0x60000142d0e0.svg">
<rect x="235.600000" y="34.000000" width="51.600000" height="24.000000" rx="0" ry="0" style="stroke:#000000;fill:#FFFFFF;"/>
</a>
<a xlink:href="aapp-0x60000142d0e0.svg">
<text x="261.400000" y="48.000000" font-family="Verdana" font-size="7" text-anchor="middle" fill="#000000">aapp(0.5f)</text>
</a>
<circle cx="285.200000" cy="56.000000" r="1"/>
<rect x="195.600000" y="38.000000" width="24.000000" height="24.000000" rx="0" ry="0" style="stroke:#000000;fill:#FFFFFF;"/>
<text x="207.600000" y="52.000000" font-family="Verdana" font-size="7" text-anchor="middle" fill="#000000">*</text>
<circle cx="217.600000" cy="60.000000" r="1"/>
<line x1="222.600000" y1="53.000000" x2="219.600000" y2="54.000000"  transform="rotate(0.000000,219.600000,54.000000)" style="stroke: black; stroke-width:0.25;"/>
<line x1="222.600000" y1="55.000000" x2="219.600000" y2="54.000000"  transform="rotate(0.000000,219.600000,54.000000)" style="stroke: black; stroke-width:0.25;"/>
<line x1="222.600000" y1="45.000000" x2="219.600000" y2="46.000000"  transform="rotate(0.000000,219.600000,46.000000)" style="stroke: black; stroke-width:0.25;"/>
<line x1="222.600000" y1="47.000000" x2="219.600000" y2="46.000000"  transform="rotate(0.000000,219.600000,46.000000)" style="stroke: black; stroke-width:0.25;"/>
<line x1="289.200000" y1="86.000000" x2="289.200000" y2="82.000000"  style="stroke:black; stroke-linecap:round; stroke-width:0.25;"/>
<line x1="289.200000" y1="82.000000" x2="293.200000" y2="82.000000"  style="stroke:black; stroke-linecap:round; stroke-width:0.25;"/>
<line x1="293.200000" y1="82.000000" x2="293.200000" y2="86.000000"  style="stroke:black; stroke-linecap:round; stroke-width:0.25;"/>
<line x1="15.000000" y1="15.000000" x2="15.000000" y2="117.000000"  style="stroke: black; stroke-linecap:round; stroke-width:0.25; stroke-dasharray:3,3;"/>
<line x1="15.000000" y1="117.000000" x2="320.200000" y2="117.000000"  style="stroke: black; stroke-linecap:round; stroke-width:0.25; stroke-dasharray:3,3;"/>
<line x1="320.200000" y1="117.000000" x2="320.200000" y2="15.000000"  style="stroke: black; stroke-linecap:round; stroke-width:0.25; stroke-dasharray:3,3;"/>
<line x1="15.000000" y1="15.000000" x2="20.000000" y2="15.000000"  style="stroke: black; stroke-linecap:round; stroke-width:0.25; stroke-dasharray:3,3;"/>
<line x1="119.975000" y1="15.000000" x2="320.200000" y2="15.000000"  style="stroke: black; stroke-linecap:round; stroke-width:0.25; stroke-dasharray:3,3;"/>
<text x="20.000000" y="17.000000" font-family="Verdana" font-size="7">lp1p(2.718281...) : -) : pow)</text>
<line x1="322.200000" y1="65.000000" x2="325.200000" y2="66.000000"  transform="rotate(0.000000,325.200000,66.000000)" style="stroke: black; stroke-width:0.25;"/>
<line x1="322.200000" y1="67.000000" x2="325.200000" y2="66.000000"  transform="rotate(0.000000,325.200000,66.000000)" style="stroke: black; stroke-width:0.25;"/>
<line x1="10.000000" y1="66.000000" x2="20.000000" y2="66.000000"  style="stroke:black; stroke-linecap:round; stroke-width:0.25;"/>
<line x1="20.000000" y1="66.000000" x2="24.000000" y2="66.000000"  style="stroke:black; stroke-linecap:round; stroke-width:0.25;"/>
<line x1="24.000000" y1="66.000000" x2="28.000000" y2="66.000000"  style="stroke:black; stroke-linecap:round; stroke-width:0.25;"/>
<line x1="28.000000" y1="24.000000" x2="36.000000" y2="24.000000"  style="stroke:black; stroke-linecap:round; stroke-width:0.25;"/>
<line x1="28.000000" y1="66.000000" x2="28.000000" y2="24.000000"  style="stroke:black; stroke-linecap:round; stroke-width:0.25;"/>
<line x1="28.000000" y1="66.000000" x2="28.000000" y2="66.000000"  style="stroke:black; stroke-linecap:round; stroke-width:0.25;"/>
<line x1="36.000000" y1="24.000000" x2="85.800000" y2="24.000000"  style="stroke:black; stroke-linecap:round; stroke-width:0.25;"/>
<line x1="77.800000" y1="54.000000" x2="81.800000" y2="54.000000"  style="stroke:black; stroke-linecap:round; stroke-width:0.25;"/>
<line x1="81.800000" y1="54.000000" x2="91.800000" y2="54.000000"  style="stroke:black; stroke-linecap:round; stroke-width:0.25;"/>
<line x1="85.800000" y1="24.000000" x2="135.600000" y2="24.000000"  style="stroke:black; stroke-linecap:round; stroke-width:0.25;"/>
<line x1="91.600000" y1="96.000000" x2="95.600000" y2="96.000000"  style="stroke:black; stroke-linecap:round; stroke-width:0.25;"/>
<line x1="91.800000" y1="54.000000" x2="95.600000" y2="54.000000"  style="stroke:black; stroke-linecap:round; stroke-width:0.25;"/>
<line x1="95.600000" y1="54.000000" x2="103.600000" y2="54.000000"  style="stroke:black; stroke-linecap:round; stroke-width:0.25;"/>
<line x1="95.600000" y1="74.000000" x2="103.600000" y2="74.000000"  style="stroke:black; stroke-linecap:round; stroke-width:0.25;"/>
<line x1="95.600000" y1="96.000000" x2="95.600000" y2="74.000000"  style="stroke:black; stroke-linecap:round; stroke-width:0.25;"/>
<line x1="95.600000" y1="96.000000" x2="95.600000" y2="96.000000"  style="stroke:black; stroke-linecap:round; stroke-width:0.25;"/>
<line x1="103.600000" y1="54.000000" x2="103.600000" y2="66.000000"  style="stroke:black; stroke-linecap:round; stroke-width:0.25;"/>
<line x1="103.600000" y1="66.000000" x2="103.600000" y2="66.000000"  style="stroke:black; stroke-linecap:round; stroke-width:0.25;"/>
<line x1="103.600000" y1="66.000000" x2="107.600000" y2="66.000000"  style="stroke:black; stroke-linecap:round; stroke-width:0.25;"/>
<line x1="103.600000" y1="74.000000" x2="107.600000" y2="74.000000"  style="stroke:black; stroke-linecap:round; stroke-width:0.25;"/>
<line x1="131.600000" y1="70.000000" x2="135.600000" y2="70.000000"  style="stroke:black; stroke-linecap:round; stroke-width:0.25;"/>
<line x1="135.600000" y1="24.000000" x2="143.600000" y2="24.000000"  style="stroke:black; stroke-linecap:round; stroke-width:0.25;"/>
<line x1="135.600000" y1="70.000000" x2="143.600000" y2="70.000000"  style="stroke:black; stroke-linecap:round; stroke-width:0.25;"/>
<line x1="143.600000" y1="24.000000" x2="143.600000" y2="62.000000"  style="stroke:black; stroke-linecap:round; stroke-width:0.25;"/>
<line x1="143.600000" y1="62.000000" x2="143.600000" y2="62.000000"  style="stroke:black; stroke-linecap:round; stroke-width:0.25;"/>
<line x1="143.600000" y1="62.000000" x2="147.600000" y2="62.000000"  style="stroke:black; stroke-linecap:round; stroke-width:0.25;"/>
<line x1="143.600000" y1="70.000000" x2="147.600000" y2="70.000000"  style="stroke:black; stroke-linecap:round; stroke-width:0.25;"/>
<line x1="171.600000" y1="66.000000" x2="175.600000" y2="66.000000"  style="stroke:black; stroke-linecap:round; stroke-width:0.25;"/>
<line x1="175.600000" y1="66.000000" x2="183.600000" y2="66.000000"  style="stroke:black; stroke-linecap:round; stroke-width:0.25;"/>
<line x1="183.600000" y1="90.000000" x2="191.600000" y2="90.000000"  style="stroke:black; stroke-linecap:round; stroke-width:0.25;"/>
<line x1="183.600000" y1="66.000000" x2="183.600000" y2="90.000000"  style="stroke:black; stroke-linecap:round; stroke-width:0.25;"/>
<line x1="183.600000" y1="90.000000" x2="183.600000" y2="90.000000"  style="stroke:black; stroke-linecap:round; stroke-width:0.25;"/>
<line x1="191.600000" y1="82.000000" x2="225.400000" y2="82.000000"  style="stroke:black; stroke-linecap:round; stroke-width:0.25;"/>
<line x1="191.600000" y1="90.000000" x2="225.400000" y2="90.000000"  style="stroke:black; stroke-linecap:round; stroke-width:0.25;"/>
<line x1="191.600000" y1="50.000000" x2="191.600000" y2="50.000000"  style="stroke:black; stroke-linecap:round; stroke-width:0.25;"/>
<line x1="191.600000" y1="50.000000" x2="191.600000" y2="82.000000"  style="stroke:black; stroke-linecap:round; stroke-width:0.25;"/>
<line x1="191.600000" y1="82.000000" x2="191.600000" y2="82.000000"  style="stroke:black; stroke-linecap:round; stroke-width:0.25;"/>
<line x1="195.600000" y1="50.000000" x2="191.600000" y2="50.000000"  style="stroke:black; stroke-linecap:round; stroke-width:0.25;"/>
<line x1="223.600000" y1="54.000000" x2="223.600000" y2="54.000000"  style="stroke:black; stroke-linecap:round; stroke-width:0.25;"/>
<line x1="223.600000" y1="66.000000" x2="223.600000" y2="54.000000"  style="stroke:black; stroke-linecap:round; stroke-width:0.25;"/>
<line x1="223.600000" y1="46.000000" x2="219.600000" y2="46.000000"  style="stroke:black; stroke-linecap:round; stroke-width:0.25;"/>
<line x1="223.600000" y1="54.000000" x2="219.600000" y2="54.000000"  style="stroke:black; stroke-linecap:round; stroke-width:0.25;"/>
<line x1="225.400000" y1="82.000000" x2="229.400000" y2="82.000000"  style="stroke:black; stroke-linecap:round; stroke-width:0.25;"/>
<line x1="225.400000" y1="90.000000" x2="229.400000" y2="90.000000"  style="stroke:black; stroke-linecap:round; stroke-width:0.25;"/>
<line x1="231.600000" y1="66.000000" x2="223.600000" y2="66.000000"  style="stroke:black; stroke-linecap:round; stroke-width:0.25;"/>
<line x1="231.600000" y1="46.000000" x2="223.600000" y2="46.000000"  style="stroke:black; stroke-linecap:round; stroke-width:0.25;"/>
<line x1="235.600000" y1="46.000000" x2="231.600000" y2="46.000000"  style="stroke:black; stroke-linecap:round; stroke-width:0.25;"/>
<line x1="253.400000" y1="86.000000" x2="257.400000" y2="86.000000"  style="stroke:black; stroke-linecap:round; stroke-width:0.25;"/>
<line x1="257.400000" y1="86.000000" x2="291.200000" y2="86.000000"  style="stroke:black; stroke-linecap:round; stroke-width:0.25;"/>
<line x1="261.400000" y1="66.000000" x2="231.600000" y2="66.000000"  style="stroke:black; stroke-linecap:round; stroke-width:0.25;"/>
<line x1="291.200000" y1="66.000000" x2="261.400000" y2="66.000000"  style="stroke:black; stroke-linecap:round; stroke-width:0.25;"/>
<line x1="291.200000" y1="66.000000" x2="291.200000" y2="66.000000"  style="stroke:black; stroke-linecap:round; stroke-width:0.25;"/>
<line x1="291.200000" y1="82.000000" x2="291.200000" y2="66.000000"  style="stroke:black; stroke-linecap:round; stroke-width:0.25;"/>
<line x1="291.200000" y1="86.000000" x2="293.200000" y2="86.000000"  style="stroke:black; stroke-linecap:round; stroke-width:0.25;"/>
<line x1="293.200000" y1="86.000000" x2="299.200000" y2="86.000000"  style="stroke:black; stroke-linecap:round; stroke-width:0.25;"/>
<line x1="299.200000" y1="66.000000" x2="307.200000" y2="66.000000"  style="stroke:black; stroke-linecap:round; stroke-width:0.25;"/>
<line x1="299.200000" y1="86.000000" x2="299.200000" y2="66.000000"  style="stroke:black; stroke-linecap:round; stroke-width:0.25;"/>
<line x1="299.200000" y1="86.000000" x2="299.200000" y2="86.000000"  style="stroke:black; stroke-linecap:round; stroke-width:0.25;"/>
<line x1="307.200000" y1="66.000000" x2="311.200000" y2="66.000000"  style="stroke:black; stroke-linecap:round; stroke-width:0.25;"/>
<line x1="311.200000" y1="66.000000" x2="315.200000" y2="66.000000"  style="stroke:black; stroke-linecap:round; stroke-width:0.25;"/>
<line x1="315.200000" y1="66.000000" x2="325.200000" y2="66.000000"  style="stroke:black; stroke-linecap:round; stroke-width:0.25;"/>
</svg>
