<?xml version="1.0"?>
<svg xmlns="http://www.w3.org/2000/svg" xmlns:xlink="http://www.w3.org/1999/xlink" viewBox="0 0 386.800000 132.000000" width="193.400000mm" height="66.000000mm" version="1.1">
<a xlink:href="integrator-0x6000094a0870.svg">
<rect x="0.000000" y="0.000000" width="385.800000" height="131.000000" rx="0" ry="0" style="stroke:#000000;fill:#FFFFFF;"/>
</a>
<text x="10.000000" y="7.000000" font-family="Verdana" font-size="7"></text>
<rect x="66.700000" y="42.000000" width="24.000000" height="24.000000" rx="0" ry="0" style="stroke:#000000;fill:#FFFFFF;"/>
<text x="78.700000" y="56.000000" font-family="Verdana" font-size="7" text-anchor="middle" fill="#000000">1</text>
<circle cx="68.700000" cy="44.000000" r="1"/>
<line x1="57.700000" y1="33.000000" x2="57.700000" y2="75.000000"  style="stroke: black; stroke-linecap:round; stroke-width:0.25; stroke-dasharray:3,3;"/>
<line x1="57.700000" y1="75.000000" x2="99.700000" y2="75.000000"  style="stroke: black; stroke-linecap:round; stroke-width:0.25; stroke-dasharray:3,3;"/>
<line x1="99.700000" y1="75.000000" x2="99.700000" y2="33.000000"  style="stroke: black; stroke-linecap:round; stroke-width:0.25; stroke-dasharray:3,3;"/>
<line x1="57.700000" y1="33.000000" x2="62.700000" y2="33.000000"  style="stroke: black; stroke-linecap:round; stroke-width:0.25; stroke-dasharray:3,3;"/>
<line x1="99.700000" y1="33.000000" x2="99.700000" y2="33.000000"  style="stroke: black; stroke-linecap:round; stroke-width:0.25; stroke-dasharray:3,3;"/>
<text x="62.700000" y="35.000000" font-family="Verdana" font-size="7">signum(90)</text>
<a xlink:href="aapp-0x60000945e2e0.svg">
<rect x="40.000000" y="84.000000" width="77.400000" height="24.000000" rx="0" ry="0" style="stroke:#000000;fill:#FFFFFF;"/>
</a>
<a xlink:href="aapp-0x60000945e2e0.svg">
<text x="78.700000" y="98.000000" font-family="Verdana" font-size="7" text-anchor="middle" fill="#000000">aapp(0.8333333f)</text>
</a>
<circle cx="42.000000" cy="86.000000" r="1"/>
<rect x="133.400000" y="58.000000" width="24.000000" height="24.000000" rx="0" ry="0" style="stroke:#000000;fill:#FFFFFF;"/>
<text x="145.400000" y="72.000000" font-family="Verdana" font-size="7" text-anchor="middle" fill="#000000">-</text>
<circle cx="135.400000" cy="60.000000" r="1"/>
<line x1="130.400000" y1="65.000000" x2="133.400000" y2="66.000000"  transform="rotate(0.000000,133.400000,66.000000)" style="stroke: black; stroke-width:0.25;"/>
<line x1="130.400000" y1="67.000000" x2="133.400000" y2="66.000000"  transform="rotate(0.000000,133.400000,66.000000)" style="stroke: black; stroke-width:0.25;"/>
<line x1="130.400000" y1="73.000000" x2="133.400000" y2="74.000000"  transform="rotate(0.000000,133.400000,74.000000)" style="stroke: black; stroke-width:0.25;"/>
<line x1="130.400000" y1="75.000000" x2="133.400000" y2="74.000000"  transform="rotate(0.000000,133.400000,74.000000)" style="stroke: black; stroke-width:0.25;"/>
<rect x="173.400000" y="54.000000" width="24.000000" height="24.000000" rx="0" ry="0" style="stroke:#000000;fill:#FFFFFF;"/>
<text x="185.400000" y="68.000000" font-family="Verdana" font-size="7" text-anchor="middle" fill="#000000">*</text>
<circle cx="175.400000" cy="56.000000" r="1"/>
<line x1="170.400000" y1="61.000000" x2="173.400000" y2="62.000000"  transform="rotate(0.000000,173.400000,62.000000)" style="stroke: black; stroke-width:0.25;"/>
<line x1="170.400000" y1="63.000000" x2="173.400000" y2="62.000000"  transform="rotate(0.000000,173.400000,62.000000)" style="stroke: black; stroke-width:0.25;"/>
<line x1="170.400000" y1="69.000000" x2="173.400000" y2="70.000000"  transform="rotate(0.000000,173.400000,70.000000)" style="stroke: black; stroke-width:0.25;"/>
<line x1="170.400000" y1="71.000000" x2="173.400000" y2="70.000000"  transform="rotate(0.000000,173.400000,70.000000)" style="stroke: black; stroke-width:0.25;"/>
<rect x="268.100000" y="74.000000" width="24.000000" height="24.000000" rx="0" ry="0" style="stroke:#000000;fill:#FFFFFF;"/>
<text x="280.100000" y="88.000000" font-family="Verdana" font-size="7" text-anchor="middle" fill="#000000">+</text>
<circle cx="270.100000" cy="76.000000" r="1"/>
<line x1="265.100000" y1="81.000000" x2="268.100000" y2="82.000000"  transform="rotate(0.000000,268.100000,82.000000)" style="stroke: black; stroke-width:0.25;"/>
<line x1="265.100000" y1="83.000000" x2="268.100000" y2="82.000000"  transform="rotate(0.000000,268.100000,82.000000)" style="stroke: black; stroke-width:0.25;"/>
<line x1="265.100000" y1="89.000000" x2="268.100000" y2="90.000000"  transform="rotate(0.000000,268.100000,90.000000)" style="stroke: black; stroke-width:0.25;"/>
<line x1="265.100000" y1="91.000000" x2="268.100000" y2="90.000000"  transform="rotate(0.000000,268.100000,90.000000)" style="stroke: black; stroke-width:0.25;"/>
<a xlink:href="aapp-0x60000945e2e0.svg">
<rect x="261.400000" y="34.000000" width="77.400000" height="24.000000" rx="0" ry="0" style="stroke:#000000;fill:#FFFFFF;"/>
</a>
<a xlink:href="aapp-0x60000945e2e0.svg">
<text x="300.100000" y="48.000000" font-family="Verdana" font-size="7" text-anchor="middle" fill="#000000">aapp(0.8333333f)</text>
</a>
<circle cx="336.800000" cy="56.000000" r="1"/>
<rect x="221.400000" y="38.000000" width="24.000000" height="24.000000" rx="0" ry="0" style="stroke:#000000;fill:#FFFFFF;"/>
<text x="233.400000" y="52.000000" font-family="Verdana" font-size="7" text-anchor="middle" fill="#000000">*</text>
<circle cx="243.400000" cy="60.000000" r="1"/>
<line x1="248.400000" y1="53.000000" x2="245.400000" y2="54.000000"  transform="rotate(0.000000,245.400000,54.000000)" style="stroke: black; stroke-width:0.25;"/>
<line x1="248.400000" y1="55.000000" x2="245.400000" y2="54.000000"  transform="rotate(0.000000,245.400000,54.000000)" style="stroke: black; stroke-width:0.25;"/>
<line x1="248.400000" y1="45.000000" x2="245.400000" y2="46.000000"  transform="rotate(0.000000,245.400000,46.000000)" style="stroke: black; stroke-width:0.25;"/>
<line x1="248.400000" y1="47.000000" x2="245.400000" y2="46.000000"  transform="rotate(0.000000,245.400000,46.000000)" style="stroke: black; stroke-width:0.25;"/>
<line x1="340.800000" y1="86.000000" x2="340.800000" y2="82.000000"  style="stroke:black; stroke-linecap:round; stroke-width:0.25;"/>
<line x1="340.800000" y1="82.000000" x2="344.800000" y2="82.000000"  style="stroke:black; stroke-linecap:round; stroke-width:0.25;"/>
<line x1="344.800000" y1="82.000000" x2="344.800000" y2="86.000000"  style="stroke:black; stroke-linecap:round; stroke-width:0.25;"/>
<line x1="15.000000" y1="15.000000" x2="15.000000" y2="117.000000"  style="stroke: black; stroke-linecap:round; stroke-width:0.25; stroke-dasharray:3,3;"/>
<line x1="15.000000" y1="117.000000" x2="371.800000" y2="117.000000"  style="stroke: black; stroke-linecap:round; stroke-width:0.25; stroke-dasharray:3,3;"/>
<line x1="371.800000" y1="117.000000" x2="371.800000" y2="15.000000"  style="stroke: black; stroke-linecap:round; stroke-width:0.25; stroke-dasharray:3,3;"/>
<line x1="15.000000" y1="15.000000" x2="20.000000" y2="15.000000"  style="stroke: black; stroke-linecap:round; stroke-width:0.25; stroke-dasharray:3,3;"/>
<line x1="119.975000" y1="15.000000" x2="371.800000" y2="15.000000"  style="stroke: black; stroke-linecap:round; stroke-width:0.25; stroke-dasharray:3,3;"/>
<text x="20.000000" y="17.000000" font-family="Verdana" font-size="7">lp1p(2.718281...) : -) : pow)</text>
<line x1="373.800000" y1="65.000000" x2="376.800000" y2="66.000000"  transform="rotate(0.000000,376.800000,66.000000)" style="stroke: black; stroke-width:0.25;"/>
<line x1="373.800000" y1="67.000000" x2="376.800000" y2="66.000000"  transform="rotate(0.000000,376.800000,66.000000)" style="stroke: black; stroke-width:0.25;"/>
<line x1="10.000000" y1="66.000000" x2="20.000000" y2="66.000000"  style="stroke:black; stroke-linecap:round; stroke-width:0.25;"/>
<line x1="20.000000" y1="66.000000" x2="24.000000" y2="66.000000"  style="stroke:black; stroke-linecap:round; stroke-width:0.25;"/>
<line x1="24.000000" y1="66.000000" x2="28.000000" y2="66.000000"  style="stroke:black; stroke-linecap:round; stroke-width:0.25;"/>
<line x1="28.000000" y1="24.000000" x2="36.000000" y2="24.000000"  style="stroke:black; stroke-linecap:round; stroke-width:0.25;"/>
<line x1="28.000000" y1="66.000000" x2="28.000000" y2="24.000000"  style="stroke:black; stroke-linecap:round; stroke-width:0.25;"/>
<line x1="28.000000" y1="66.000000" x2="28.000000" y2="66.000000"  style="stroke:black; stroke-linecap:round; stroke-width:0.25;"/>
<line x1="36.000000" y1="24.000000" x2="98.700000" y2="24.000000"  style="stroke:black; stroke-linecap:round; stroke-width:0.25;"/>
<line x1="90.700000" y1="54.000000" x2="94.700000" y2="54.000000"  style="stroke:black; stroke-linecap:round; stroke-width:0.25;"/>
<line x1="94.700000" y1="54.000000" x2="104.700000" y2="54.000000"  style="stroke:black; stroke-linecap:round; stroke-width:0.25;"/>
<line x1="98.700000" y1="24.000000" x2="161.400000" y2="24.000000"  style="stroke:black; stroke-linecap:round; stroke-width:0.25;"/>
<line x1="104.700000" y1="54.000000" x2="121.400000" y2="54.000000"  style="stroke:black; stroke-linecap:round; stroke-width:0.25;"/>
<line x1="117.400000" y1="96.000000" x2="121.400000" y2="96.000000"  style="stroke:black; stroke-linecap:round; stroke-width:0.25;"/>
<line x1="121.400000" y1="54.000000" x2="129.400000" y2="54.000000"  style="stroke:black; stroke-linecap:round; stroke-width:0.25;"/>
<line x1="121.400000" y1="74.000000" x2="129.400000" y2="74.000000"  style="stroke:black; stroke-linecap:round; stroke-width:0.25;"/>
<line x1="121.400000" y1="96.000000" x2="121.400000" y2="74.000000"  style="stroke:black; stroke-linecap:round; stroke-width:0.25;"/>
<line x1="121.400000" y1="96.000000" x2="121.400000" y2="96.000000"  style="stroke:black; stroke-linecap:round; stroke-width:0.25;"/>
<line x1="129.400000" y1="54.000000" x2="129.400000" y2="66.000000"  style="stroke:black; stroke-linecap:round; stroke-width:0.25;"/>
<line x1="129.400000" y1="66.000000" x2="129.400000" y2="66.000000"  style="stroke:black; stroke-linecap:round; stroke-width:0.25;"/>
<line x1="129.400000" y1="66.000000" x2="133.400000" y2="66.000000"  style="stroke:black; stroke-linecap:round; stroke-width:0.25;"/>
<line x1="129.400000" y1="74.000000" x2="133.400000" y2="74.000000"  style="stroke:black; stroke-linecap:round; stroke-width:0.25;"/>
<line x1="157.400000" y1="70.000000" x2="161.400000" y2="70.000000"  style="stroke:black; stroke-linecap:round; stroke-width:0.25;"/>
<line x1="161.400000" y1="24.000000" x2="169.400000" y2="24.000000"  style="stroke:black; stroke-linecap:round; stroke-width:0.25;"/>
<line x1="161.400000" y1="70.000000" x2="169.400000" y2="70.000000"  style="stroke:black; stroke-linecap:round; stroke-width:0.25;"/>
<line x1="169.400000" y1="24.000000" x2="169.400000" y2="62.000000"  style="stroke:black; stroke-linecap:round; stroke-width:0.25;"/>
<line x1="169.400000" y1="62.000000" x2="169.400000" y2="62.000000"  style="stroke:black; stroke-linecap:round; stroke-width:0.25;"/>
<line x1="169.400000" y1="62.000000" x2="173.400000" y2="62.000000"  style="stroke:black; stroke-linecap:round; stroke-width:0.25;"/>
<line x1="169.400000" y1="70.000000" x2="173.400000" y2="70.000000"  style="stroke:black; stroke-linecap:round; stroke-width:0.25;"/>
<line x1="197.400000" y1="66.000000" x2="201.400000" y2="66.000000"  style="stroke:black; stroke-linecap:round; stroke-width:0.25;"/>
<line x1="201.400000" y1="66.000000" x2="209.400000" y2="66.000000"  style="stroke:black; stroke-linecap:round; stroke-width:0.25;"/>
<line x1="209.400000" y1="66.000000" x2="209.400000" y2="90.000000"  style="stroke:black; stroke-linecap:round; stroke-width:0.25;"/>
<line x1="209.400000" y1="90.000000" x2="209.400000" y2="90.000000"  style="stroke:black; stroke-linecap:round; stroke-width:0.25;"/>
<line x1="209.400000" y1="90.000000" x2="217.400000" y2="90.000000"  style="stroke:black; stroke-linecap:round; stroke-width:0.25;"/>
<line x1="217.400000" y1="50.000000" x2="217.400000" y2="50.000000"  style="stroke:black; stroke-linecap:round; stroke-width:0.25;"/>
<line x1="217.400000" y1="50.000000" x2="217.400000" y2="82.000000"  style="stroke:black; stroke-linecap:round; stroke-width:0.25;"/>
<line x1="217.400000" y1="82.000000" x2="217.400000" y2="82.000000"  style="stroke:black; stroke-linecap:round; stroke-width:0.25;"/>
<line x1="217.400000" y1="82.000000" x2="264.100000" y2="82.000000"  style="stroke:black; stroke-linecap:round; stroke-width:0.25;"/>
<line x1="217.400000" y1="90.000000" x2="264.100000" y2="90.000000"  style="stroke:black; stroke-linecap:round; stroke-width:0.25;"/>
<line x1="221.400000" y1="50.000000" x2="217.400000" y2="50.000000"  style="stroke:black; stroke-linecap:round; stroke-width:0.25;"/>
<line x1="249.400000" y1="46.000000" x2="245.400000" y2="46.000000"  style="stroke:black; stroke-linecap:round; stroke-width:0.25;"/>
<line x1="249.400000" y1="54.000000" x2="245.400000" y2="54.000000"  style="stroke:black; stroke-linecap:round; stroke-width:0.25;"/>
<line x1="249.400000" y1="54.000000" x2="249.400000" y2="54.000000"  style="stroke:black; stroke-linecap:round; stroke-width:0.25;"/>
<line x1="249.400000" y1="66.000000" x2="249.400000" y2="54.000000"  style="stroke:black; stroke-linecap:round; stroke-width:0.25;"/>
<line x1="257.400000" y1="46.000000" x2="249.400000" y2="46.000000"  style="stroke:black; stroke-linecap:round; stroke-width:0.25;"/>
<line x1="257.400000" y1="66.000000" x2="249.400000" y2="66.000000"  style="stroke:black; stroke-linecap:round; stroke-width:0.25;"/>
<line x1="261.400000" y1="46.000000" x2="257.400000" y2="46.000000"  style="stroke:black; stroke-linecap:round; stroke-width:0.25;"/>
<line x1="264.100000" y1="82.000000" x2="268.100000" y2="82.000000"  style="stroke:black; stroke-linecap:round; stroke-width:0.25;"/>
<line x1="264.100000" y1="90.000000" x2="268.100000" y2="90.000000"  style="stroke:black; stroke-linecap:round; stroke-width:0.25;"/>
<line x1="292.100000" y1="86.000000" x2="296.100000" y2="86.000000"  style="stroke:black; stroke-linecap:round; stroke-width:0.25;"/>
<line x1="296.100000" y1="86.000000" x2="342.800000" y2="86.000000"  style="stroke:black; stroke-linecap:round; stroke-width:0.25;"/>
<line x1="300.100000" y1="66.000000" x2="257.400000" y2="66.000000"  style="stroke:black; stroke-linecap:round; stroke-width:0.25;"/>
<line x1="342.800000" y1="66.000000" x2="300.100000" y2="66.000000"  style="stroke:black; stroke-linecap:round; stroke-width:0.25;"/>
<line x1="342.800000" y1="66.000000" x2="342.800000" y2="66.000000"  style="stroke:black; stroke-linecap:round; stroke-width:0.25;"/>
<line x1="342.800000" y1="82.000000" x2="342.800000" y2="66.000000"  style="stroke:black; stroke-linecap:round; stroke-width:0.25;"/>
<line x1="342.800000" y1="86.000000" x2="344.800000" y2="86.000000"  style="stroke:black; stroke-linecap:round; stroke-width:0.25;"/>
<line x1="344.800000" y1="86.000000" x2="350.800000" y2="86.000000"  style="stroke:black; stroke-linecap:round; stroke-width:0.25;"/>
<line x1="350.800000" y1="66.000000" x2="358.800000" y2="66.000000"  style="stroke:black; stroke-linecap:round; stroke-width:0.25;"/>
<line x1="350.800000" y1="86.000000" x2="350.800000" y2="66.000000"  style="stroke:black; stroke-linecap:round; stroke-width:0.25;"/>
<line x1="350.800000" y1="86.000000" x2="350.800000" y2="86.000000"  style="stroke:black; stroke-linecap:round; stroke-width:0.25;"/>
<line x1="358.800000" y1="66.000000" x2="362.800000" y2="66.000000"  style="stroke:black; stroke-linecap:round; stroke-width:0.25;"/>
<line x1="362.800000" y1="66.000000" x2="366.800000" y2="66.000000"  style="stroke:black; stroke-linecap:round; stroke-width:0.25;"/>
<line x1="366.800000" y1="66.000000" x2="376.800000" y2="66.000000"  style="stroke:black; stroke-linecap:round; stroke-width:0.25;"/>
</svg>
