<?xml version="1.0"?>
<svg xmlns="http://www.w3.org/2000/svg" xmlns:xlink="http://www.w3.org/1999/xlink" viewBox="0 0 314.700000 132.000000" width="157.350000mm" height="66.000000mm" version="1.1">
<a xlink:href="integrator-0x6000014358c0.svg">
<rect x="0.000000" y="0.000000" width="313.700000" height="131.000000" rx="0" ry="0" style="stroke:#000000;fill:#FFFFFF;"/>
</a>
<text x="10.000000" y="7.000000" font-family="Verdana" font-size="7"></text>
<rect x="50.000000" y="42.000000" width="24.000000" height="24.000000" rx="0" ry="0" style="stroke:#000000;fill:#FFFFFF;"/>
<text x="62.000000" y="56.000000" font-family="Verdana" font-size="7" text-anchor="middle" fill="#000000">1</text>
<circle cx="52.000000" cy="44.000000" r="1"/>
<line x1="41.000000" y1="33.000000" x2="41.000000" y2="75.000000"  style="stroke: black; stroke-linecap:round; stroke-width:0.25; stroke-dasharray:3,3;"/>
<line x1="41.000000" y1="75.000000" x2="83.000000" y2="75.000000"  style="stroke: black; stroke-linecap:round; stroke-width:0.25; stroke-dasharray:3,3;"/>
<line x1="83.000000" y1="75.000000" x2="83.000000" y2="33.000000"  style="stroke: black; stroke-linecap:round; stroke-width:0.25; stroke-dasharray:3,3;"/>
<line x1="41.000000" y1="33.000000" x2="46.000000" y2="33.000000"  style="stroke: black; stroke-linecap:round; stroke-width:0.25; stroke-dasharray:3,3;"/>
<line x1="83.000000" y1="33.000000" x2="83.000000" y2="33.000000"  style="stroke: black; stroke-linecap:round; stroke-width:0.25; stroke-dasharray:3,3;"/>
<text x="46.000000" y="35.000000" font-family="Verdana" font-size="7">signum(90)</text>
<a xlink:href="aapp-0x6000014334e0.svg">
<rect x="42.650000" y="84.000000" width="38.700000" height="24.000000" rx="0" ry="0" style="stroke:#000000;fill:#FFFFFF;"/>
</a>
<a xlink:href="aapp-0x6000014334e0.svg">
<text x="62.000000" y="98.000000" font-family="Verdana" font-size="7" text-anchor="middle" fill="#000000">aapp(1)</text>
</a>
<circle cx="44.650000" cy="86.000000" r="1"/>
<rect x="100.000000" y="58.000000" width="24.000000" height="24.000000" rx="0" ry="0" style="stroke:#000000;fill:#FFFFFF;"/>
<text x="112.000000" y="72.000000" font-family="Verdana" font-size="7" text-anchor="middle" fill="#000000">-</text>
<circle cx="102.000000" cy="60.000000" r="1"/>
<line x1="97.000000" y1="65.000000" x2="100.000000" y2="66.000000"  transform="rotate(0.000000,100.000000,66.000000)" style="stroke: black; stroke-width:0.25;"/>
<line x1="97.000000" y1="67.000000" x2="100.000000" y2="66.000000"  transform="rotate(0.000000,100.000000,66.000000)" style="stroke: black; stroke-width:0.25;"/>
<line x1="97.000000" y1="73.000000" x2="100.000000" y2="74.000000"  transform="rotate(0.000000,100.000000,74.000000)" style="stroke: black; stroke-width:0.25;"/>
<line x1="97.000000" y1="75.000000" x2="100.000000" y2="74.000000"  transform="rotate(0.000000,100.000000,74.000000)" style="stroke: black; stroke-width:0.25;"/>
<rect x="140.000000" y="54.000000" width="24.000000" height="24.000000" rx="0" ry="0" style="stroke:#000000;fill:#FFFFFF;"/>
<text x="152.000000" y="68.000000" font-family="Verdana" font-size="7" text-anchor="middle" fill="#000000">*</text>
<circle cx="142.000000" cy="56.000000" r="1"/>
<line x1="137.000000" y1="61.000000" x2="140.000000" y2="62.000000"  transform="rotate(0.000000,140.000000,62.000000)" style="stroke: black; stroke-width:0.25;"/>
<line x1="137.000000" y1="63.000000" x2="140.000000" y2="62.000000"  transform="rotate(0.000000,140.000000,62.000000)" style="stroke: black; stroke-width:0.25;"/>
<line x1="137.000000" y1="69.000000" x2="140.000000" y2="70.000000"  transform="rotate(0.000000,140.000000,70.000000)" style="stroke: black; stroke-width:0.25;"/>
<line x1="137.000000" y1="71.000000" x2="140.000000" y2="70.000000"  transform="rotate(0.000000,140.000000,70.000000)" style="stroke: black; stroke-width:0.25;"/>
<rect x="215.350000" y="74.000000" width="24.000000" height="24.000000" rx="0" ry="0" style="stroke:#000000;fill:#FFFFFF;"/>
<text x="227.350000" y="88.000000" font-family="Verdana" font-size="7" text-anchor="middle" fill="#000000">+</text>
<circle cx="217.350000" cy="76.000000" r="1"/>
<line x1="212.350000" y1="81.000000" x2="215.350000" y2="82.000000"  transform="rotate(0.000000,215.350000,82.000000)" style="stroke: black; stroke-width:0.25;"/>
<line x1="212.350000" y1="83.000000" x2="215.350000" y2="82.000000"  transform="rotate(0.000000,215.350000,82.000000)" style="stroke: black; stroke-width:0.25;"/>
<line x1="212.350000" y1="89.000000" x2="215.350000" y2="90.000000"  transform="rotate(0.000000,215.350000,90.000000)" style="stroke: black; stroke-width:0.25;"/>
<line x1="212.350000" y1="91.000000" x2="215.350000" y2="90.000000"  transform="rotate(0.000000,215.350000,90.000000)" style="stroke: black; stroke-width:0.25;"/>
<a xlink:href="aapp-0x6000014334e0.svg">
<rect x="228.000000" y="34.000000" width="38.700000" height="24.000000" rx="0" ry="0" style="stroke:#000000;fill:#FFFFFF;"/>
</a>
<a xlink:href="aapp-0x6000014334e0.svg">
<text x="247.350000" y="48.000000" font-family="Verdana" font-size="7" text-anchor="middle" fill="#000000">aapp(1)</text>
</a>
<circle cx="264.700000" cy="56.000000" r="1"/>
<rect x="188.000000" y="38.000000" width="24.000000" height="24.000000" rx="0" ry="0" style="stroke:#000000;fill:#FFFFFF;"/>
<text x="200.000000" y="52.000000" font-family="Verdana" font-size="7" text-anchor="middle" fill="#000000">*</text>
<circle cx="210.000000" cy="60.000000" r="1"/>
<line x1="215.000000" y1="53.000000" x2="212.000000" y2="54.000000"  transform="rotate(0.000000,212.000000,54.000000)" style="stroke: black; stroke-width:0.25;"/>
<line x1="215.000000" y1="55.000000" x2="212.000000" y2="54.000000"  transform="rotate(0.000000,212.000000,54.000000)" style="stroke: black; stroke-width:0.25;"/>
<line x1="215.000000" y1="45.000000" x2="212.000000" y2="46.000000"  transform="rotate(0.000000,212.000000,46.000000)" style="stroke: black; stroke-width:0.25;"/>
<line x1="215.000000" y1="47.000000" x2="212.000000" y2="46.000000"  transform="rotate(0.000000,212.000000,46.000000)" style="stroke: black; stroke-width:0.25;"/>
<line x1="268.700000" y1="86.000000" x2="268.700000" y2="82.000000"  style="stroke:black; stroke-linecap:round; stroke-width:0.25;"/>
<line x1="268.700000" y1="82.000000" x2="272.700000" y2="82.000000"  style="stroke:black; stroke-linecap:round; stroke-width:0.25;"/>
<line x1="272.700000" y1="82.000000" x2="272.700000" y2="86.000000"  style="stroke:black; stroke-linecap:round; stroke-width:0.25;"/>
<line x1="15.000000" y1="15.000000" x2="15.000000" y2="117.000000"  style="stroke: black; stroke-linecap:round; stroke-width:0.25; stroke-dasharray:3,3;"/>
<line x1="15.000000" y1="117.000000" x2="299.700000" y2="117.000000"  style="stroke: black; stroke-linecap:round; stroke-width:0.25; stroke-dasharray:3,3;"/>
<line x1="299.700000" y1="117.000000" x2="299.700000" y2="15.000000"  style="stroke: black; stroke-linecap:round; stroke-width:0.25; stroke-dasharray:3,3;"/>
<line x1="15.000000" y1="15.000000" x2="20.000000" y2="15.000000"  style="stroke: black; stroke-linecap:round; stroke-width:0.25; stroke-dasharray:3,3;"/>
<line x1="119.975000" y1="15.000000" x2="299.700000" y2="15.000000"  style="stroke: black; stroke-linecap:round; stroke-width:0.25; stroke-dasharray:3,3;"/>
<text x="20.000000" y="17.000000" font-family="Verdana" font-size="7">lp1p(2.718281...) : -) : pow)</text>
<line x1="301.700000" y1="65.000000" x2="304.700000" y2="66.000000"  transform="rotate(0.000000,304.700000,66.000000)" style="stroke: black; stroke-width:0.25;"/>
<line x1="301.700000" y1="67.000000" x2="304.700000" y2="66.000000"  transform="rotate(0.000000,304.700000,66.000000)" style="stroke: black; stroke-width:0.25;"/>
<line x1="10.000000" y1="66.000000" x2="20.000000" y2="66.000000"  style="stroke:black; stroke-linecap:round; stroke-width:0.25;"/>
<line x1="20.000000" y1="66.000000" x2="24.000000" y2="66.000000"  style="stroke:black; stroke-linecap:round; stroke-width:0.25;"/>
<line x1="24.000000" y1="66.000000" x2="28.000000" y2="66.000000"  style="stroke:black; stroke-linecap:round; stroke-width:0.25;"/>
<line x1="28.000000" y1="24.000000" x2="36.000000" y2="24.000000"  style="stroke:black; stroke-linecap:round; stroke-width:0.25;"/>
<line x1="28.000000" y1="66.000000" x2="28.000000" y2="24.000000"  style="stroke:black; stroke-linecap:round; stroke-width:0.25;"/>
<line x1="28.000000" y1="66.000000" x2="28.000000" y2="66.000000"  style="stroke:black; stroke-linecap:round; stroke-width:0.25;"/>
<line x1="36.000000" y1="24.000000" x2="82.000000" y2="24.000000"  style="stroke:black; stroke-linecap:round; stroke-width:0.25;"/>
<line x1="74.000000" y1="54.000000" x2="78.000000" y2="54.000000"  style="stroke:black; stroke-linecap:round; stroke-width:0.25;"/>
<line x1="78.000000" y1="54.000000" x2="88.000000" y2="54.000000"  style="stroke:black; stroke-linecap:round; stroke-width:0.25;"/>
<line x1="81.350000" y1="96.000000" x2="85.350000" y2="96.000000"  style="stroke:black; stroke-linecap:round; stroke-width:0.25;"/>
<line x1="82.000000" y1="24.000000" x2="128.000000" y2="24.000000"  style="stroke:black; stroke-linecap:round; stroke-width:0.25;"/>
<line x1="85.350000" y1="96.000000" x2="88.000000" y2="96.000000"  style="stroke:black; stroke-linecap:round; stroke-width:0.25;"/>
<line x1="88.000000" y1="54.000000" x2="96.000000" y2="54.000000"  style="stroke:black; stroke-linecap:round; stroke-width:0.25;"/>
<line x1="88.000000" y1="74.000000" x2="96.000000" y2="74.000000"  style="stroke:black; stroke-linecap:round; stroke-width:0.25;"/>
<line x1="88.000000" y1="96.000000" x2="88.000000" y2="74.000000"  style="stroke:black; stroke-linecap:round; stroke-width:0.25;"/>
<line x1="88.000000" y1="96.000000" x2="88.000000" y2="96.000000"  style="stroke:black; stroke-linecap:round; stroke-width:0.25;"/>
<line x1="96.000000" y1="54.000000" x2="96.000000" y2="66.000000"  style="stroke:black; stroke-linecap:round; stroke-width:0.25;"/>
<line x1="96.000000" y1="66.000000" x2="96.000000" y2="66.000000"  style="stroke:black; stroke-linecap:round; stroke-width:0.25;"/>
<line x1="96.000000" y1="66.000000" x2="100.000000" y2="66.000000"  style="stroke:black; stroke-linecap:round; stroke-width:0.25;"/>
<line x1="96.000000" y1="74.000000" x2="100.000000" y2="74.000000"  style="stroke:black; stroke-linecap:round; stroke-width:0.25;"/>
<line x1="124.000000" y1="70.000000" x2="128.000000" y2="70.000000"  style="stroke:black; stroke-linecap:round; stroke-width:0.25;"/>
<line x1="128.000000" y1="24.000000" x2="136.000000" y2="24.000000"  style="stroke:black; stroke-linecap:round; stroke-width:0.25;"/>
<line x1="128.000000" y1="70.000000" x2="136.000000" y2="70.000000"  style="stroke:black; stroke-linecap:round; stroke-width:0.25;"/>
<line x1="136.000000" y1="24.000000" x2="136.000000" y2="62.000000"  style="stroke:black; stroke-linecap:round; stroke-width:0.25;"/>
<line x1="136.000000" y1="62.000000" x2="136.000000" y2="62.000000"  style="stroke:black; stroke-linecap:round; stroke-width:0.25;"/>
<line x1="136.000000" y1="62.000000" x2="140.000000" y2="62.000000"  style="stroke:black; stroke-linecap:round; stroke-width:0.25;"/>
<line x1="136.000000" y1="70.000000" x2="140.000000" y2="70.000000"  style="stroke:black; stroke-linecap:round; stroke-width:0.25;"/>
<line x1="164.000000" y1="66.000000" x2="168.000000" y2="66.000000"  style="stroke:black; stroke-linecap:round; stroke-width:0.25;"/>
<line x1="168.000000" y1="66.000000" x2="176.000000" y2="66.000000"  style="stroke:black; stroke-linecap:round; stroke-width:0.25;"/>
<line x1="176.000000" y1="66.000000" x2="176.000000" y2="90.000000"  style="stroke:black; stroke-linecap:round; stroke-width:0.25;"/>
<line x1="176.000000" y1="90.000000" x2="176.000000" y2="90.000000"  style="stroke:black; stroke-linecap:round; stroke-width:0.25;"/>
<line x1="176.000000" y1="90.000000" x2="184.000000" y2="90.000000"  style="stroke:black; stroke-linecap:round; stroke-width:0.25;"/>
<line x1="184.000000" y1="50.000000" x2="184.000000" y2="50.000000"  style="stroke:black; stroke-linecap:round; stroke-width:0.25;"/>
<line x1="184.000000" y1="50.000000" x2="184.000000" y2="82.000000"  style="stroke:black; stroke-linecap:round; stroke-width:0.25;"/>
<line x1="184.000000" y1="82.000000" x2="184.000000" y2="82.000000"  style="stroke:black; stroke-linecap:round; stroke-width:0.25;"/>
<line x1="184.000000" y1="82.000000" x2="211.350000" y2="82.000000"  style="stroke:black; stroke-linecap:round; stroke-width:0.25;"/>
<line x1="184.000000" y1="90.000000" x2="211.350000" y2="90.000000"  style="stroke:black; stroke-linecap:round; stroke-width:0.25;"/>
<line x1="188.000000" y1="50.000000" x2="184.000000" y2="50.000000"  style="stroke:black; stroke-linecap:round; stroke-width:0.25;"/>
<line x1="211.350000" y1="82.000000" x2="215.350000" y2="82.000000"  style="stroke:black; stroke-linecap:round; stroke-width:0.25;"/>
<line x1="211.350000" y1="90.000000" x2="215.350000" y2="90.000000"  style="stroke:black; stroke-linecap:round; stroke-width:0.25;"/>
<line x1="216.000000" y1="46.000000" x2="212.000000" y2="46.000000"  style="stroke:black; stroke-linecap:round; stroke-width:0.25;"/>
<line x1="216.000000" y1="54.000000" x2="212.000000" y2="54.000000"  style="stroke:black; stroke-linecap:round; stroke-width:0.25;"/>
<line x1="216.000000" y1="54.000000" x2="216.000000" y2="54.000000"  style="stroke:black; stroke-linecap:round; stroke-width:0.25;"/>
<line x1="216.000000" y1="66.000000" x2="216.000000" y2="54.000000"  style="stroke:black; stroke-linecap:round; stroke-width:0.25;"/>
<line x1="224.000000" y1="46.000000" x2="216.000000" y2="46.000000"  style="stroke:black; stroke-linecap:round; stroke-width:0.25;"/>
<line x1="224.000000" y1="66.000000" x2="216.000000" y2="66.000000"  style="stroke:black; stroke-linecap:round; stroke-width:0.25;"/>
<line x1="228.000000" y1="46.000000" x2="224.000000" y2="46.000000"  style="stroke:black; stroke-linecap:round; stroke-width:0.25;"/>
<line x1="239.350000" y1="86.000000" x2="243.350000" y2="86.000000"  style="stroke:black; stroke-linecap:round; stroke-width:0.25;"/>
<line x1="243.350000" y1="86.000000" x2="270.700000" y2="86.000000"  style="stroke:black; stroke-linecap:round; stroke-width:0.25;"/>
<line x1="247.350000" y1="66.000000" x2="224.000000" y2="66.000000"  style="stroke:black; stroke-linecap:round; stroke-width:0.25;"/>
<line x1="270.700000" y1="66.000000" x2="247.350000" y2="66.000000"  style="stroke:black; stroke-linecap:round; stroke-width:0.25;"/>
<line x1="270.700000" y1="66.000000" x2="270.700000" y2="66.000000"  style="stroke:black; stroke-linecap:round; stroke-width:0.25;"/>
<line x1="270.700000" y1="82.000000" x2="270.700000" y2="66.000000"  style="stroke:black; stroke-linecap:round; stroke-width:0.25;"/>
<line x1="270.700000" y1="86.000000" x2="272.700000" y2="86.000000"  style="stroke:black; stroke-linecap:round; stroke-width:0.25;"/>
<line x1="272.700000" y1="86.000000" x2="278.700000" y2="86.000000"  style="stroke:black; stroke-linecap:round; stroke-width:0.25;"/>
<line x1="278.700000" y1="66.000000" x2="286.700000" y2="66.000000"  style="stroke:black; stroke-linecap:round; stroke-width:0.25;"/>
<line x1="278.700000" y1="86.000000" x2="278.700000" y2="66.000000"  style="stroke:black; stroke-linecap:round; stroke-width:0.25;"/>
<line x1="278.700000" y1="86.000000" x2="278.700000" y2="86.000000"  style="stroke:black; stroke-linecap:round; stroke-width:0.25;"/>
<line x1="286.700000" y1="66.000000" x2="290.700000" y2="66.000000"  style="stroke:black; stroke-linecap:round; stroke-width:0.25;"/>
<line x1="290.700000" y1="66.000000" x2="294.700000" y2="66.000000"  style="stroke:black; stroke-linecap:round; stroke-width:0.25;"/>
<line x1="294.700000" y1="66.000000" x2="304.700000" y2="66.000000"  style="stroke:black; stroke-linecap:round; stroke-width:0.25;"/>
</svg>
