<?xml version="1.0"?>
<svg xmlns="http://www.w3.org/2000/svg" xmlns:xlink="http://www.w3.org/1999/xlink" viewBox="0 0 639.400000 156.000000" width="319.700000mm" height="78.000000mm" version="1.1">
<a xlink:href="chord2-0x60001576f330.svg">
<rect x="0.000000" y="0.000000" width="638.400000" height="155.000000" rx="0" ry="0" style="stroke:#000000;fill:#FFFFFF;"/>
</a>
<text x="10.000000" y="7.000000" font-family="Verdana" font-size="7"></text>
<rect x="98.050000" y="34.000000" width="51.600000" height="24.000000" rx="0" ry="0" style="stroke:#000000;fill:#FFFFFF;"/>
<text x="123.850000" y="48.000000" font-family="Verdana" font-size="7" text-anchor="middle" fill="#000000">2.7182817f</text>
<circle cx="100.050000" cy="36.000000" r="1"/>
<line x1="89.050000" y1="25.000000" x2="89.050000" y2="67.000000"  style="stroke: black; stroke-linecap:round; stroke-width:0.25; stroke-dasharray:3,3;"/>
<line x1="89.050000" y1="67.000000" x2="158.650000" y2="67.000000"  style="stroke: black; stroke-linecap:round; stroke-width:0.25; stroke-dasharray:3,3;"/>
<line x1="158.650000" y1="67.000000" x2="158.650000" y2="25.000000"  style="stroke: black; stroke-linecap:round; stroke-width:0.25; stroke-dasharray:3,3;"/>
<line x1="89.050000" y1="25.000000" x2="94.050000" y2="25.000000"  style="stroke: black; stroke-linecap:round; stroke-width:0.25; stroke-dasharray:3,3;"/>
<line x1="103.725000" y1="25.000000" x2="158.650000" y2="25.000000"  style="stroke: black; stroke-linecap:round; stroke-width:0.25; stroke-dasharray:3,3;"/>
<text x="94.050000" y="27.000000" font-family="Verdana" font-size="7">E</text>
<a xlink:href="frequenzaPicc-0x6000054cf9f0.svg">
<rect x="40.000000" y="76.000000" width="167.700000" height="24.000000" rx="0" ry="0" style="stroke:#000000;fill:#FFFFFF;"/>
</a>
<a xlink:href="frequenzaPicc-0x6000054cf9f0.svg">
<text x="123.850000" y="90.000000" font-family="Verdana" font-size="7" text-anchor="middle" fill="#000000">frequenzaPicc...AYER2[nil]}])(1.5f)(2)</text>
</a>
<circle cx="42.000000" cy="78.000000" r="1"/>
<line x1="37.000000" y1="87.000000" x2="40.000000" y2="88.000000"  transform="rotate(0.000000,40.000000,88.000000)" style="stroke: black; stroke-width:0.25;"/>
<line x1="37.000000" y1="89.000000" x2="40.000000" y2="88.000000"  transform="rotate(0.000000,40.000000,88.000000)" style="stroke: black; stroke-width:0.25;"/>
<rect x="223.700000" y="50.000000" width="24.000000" height="24.000000" rx="0" ry="0" style="stroke:#000000;fill:#FFFFFF;"/>
<text x="235.700000" y="64.000000" font-family="Verdana" font-size="7" text-anchor="middle" fill="#000000">pow</text>
<circle cx="225.700000" cy="52.000000" r="1"/>
<line x1="220.700000" y1="57.000000" x2="223.700000" y2="58.000000"  transform="rotate(0.000000,223.700000,58.000000)" style="stroke: black; stroke-width:0.25;"/>
<line x1="220.700000" y1="59.000000" x2="223.700000" y2="58.000000"  transform="rotate(0.000000,223.700000,58.000000)" style="stroke: black; stroke-width:0.25;"/>
<line x1="220.700000" y1="65.000000" x2="223.700000" y2="66.000000"  transform="rotate(0.000000,223.700000,66.000000)" style="stroke: black; stroke-width:0.25;"/>
<line x1="220.700000" y1="67.000000" x2="223.700000" y2="66.000000"  transform="rotate(0.000000,223.700000,66.000000)" style="stroke: black; stroke-width:0.25;"/>
<rect x="131.850000" y="108.000000" width="24.000000" height="24.000000" rx="0" ry="0" style="stroke:#000000;fill:#FFFFFF;"/>
<text x="143.850000" y="122.000000" font-family="Verdana" font-size="7" text-anchor="middle" fill="#000000">2</text>
<circle cx="133.850000" cy="110.000000" r="1"/>
<rect x="263.700000" y="66.000000" width="24.000000" height="24.000000" rx="0" ry="0" style="stroke:#000000;fill:#FFFFFF;"/>
<text x="275.700000" y="80.000000" font-family="Verdana" font-size="7" text-anchor="middle" fill="#000000">*</text>
<circle cx="265.700000" cy="68.000000" r="1"/>
<line x1="260.700000" y1="73.000000" x2="263.700000" y2="74.000000"  transform="rotate(0.000000,263.700000,74.000000)" style="stroke: black; stroke-width:0.25;"/>
<line x1="260.700000" y1="75.000000" x2="263.700000" y2="74.000000"  transform="rotate(0.000000,263.700000,74.000000)" style="stroke: black; stroke-width:0.25;"/>
<line x1="260.700000" y1="81.000000" x2="263.700000" y2="82.000000"  transform="rotate(0.000000,263.700000,82.000000)" style="stroke: black; stroke-width:0.25;"/>
<line x1="260.700000" y1="83.000000" x2="263.700000" y2="82.000000"  transform="rotate(0.000000,263.700000,82.000000)" style="stroke: black; stroke-width:0.25;"/>
<rect x="303.700000" y="70.000000" width="24.000000" height="24.000000" rx="0" ry="0" style="stroke:#000000;fill:#FFFFFF;"/>
<text x="315.700000" y="84.000000" font-family="Verdana" font-size="7" text-anchor="middle" fill="#000000">200</text>
<circle cx="305.700000" cy="72.000000" r="1"/>
<rect x="343.700000" y="66.000000" width="24.000000" height="24.000000" rx="0" ry="0" style="stroke:#000000;fill:#FFFFFF;"/>
<text x="355.700000" y="80.000000" font-family="Verdana" font-size="7" text-anchor="middle" fill="#000000">+</text>
<circle cx="345.700000" cy="68.000000" r="1"/>
<line x1="340.700000" y1="73.000000" x2="343.700000" y2="74.000000"  transform="rotate(0.000000,343.700000,74.000000)" style="stroke: black; stroke-width:0.25;"/>
<line x1="340.700000" y1="75.000000" x2="343.700000" y2="74.000000"  transform="rotate(0.000000,343.700000,74.000000)" style="stroke: black; stroke-width:0.25;"/>
<line x1="340.700000" y1="81.000000" x2="343.700000" y2="82.000000"  transform="rotate(0.000000,343.700000,82.000000)" style="stroke: black; stroke-width:0.25;"/>
<line x1="340.700000" y1="83.000000" x2="343.700000" y2="82.000000"  transform="rotate(0.000000,343.700000,82.000000)" style="stroke: black; stroke-width:0.25;"/>
<rect x="383.700000" y="70.000000" width="25.800000" height="24.000000" rx="0" ry="0" style="stroke:#000000;fill:#FFFFFF;"/>
<text x="396.600000" y="84.000000" font-family="Verdana" font-size="7" text-anchor="middle" fill="#000000">1000</text>
<circle cx="385.700000" cy="72.000000" r="1"/>
<rect x="425.500000" y="66.000000" width="24.000000" height="24.000000" rx="0" ry="0" style="stroke:#000000;fill:#FFFFFF;"/>
<text x="437.500000" y="80.000000" font-family="Verdana" font-size="7" text-anchor="middle" fill="#000000">min</text>
<circle cx="427.500000" cy="68.000000" r="1"/>
<line x1="422.500000" y1="73.000000" x2="425.500000" y2="74.000000"  transform="rotate(0.000000,425.500000,74.000000)" style="stroke: black; stroke-width:0.25;"/>
<line x1="422.500000" y1="75.000000" x2="425.500000" y2="74.000000"  transform="rotate(0.000000,425.500000,74.000000)" style="stroke: black; stroke-width:0.25;"/>
<line x1="422.500000" y1="81.000000" x2="425.500000" y2="82.000000"  transform="rotate(0.000000,425.500000,82.000000)" style="stroke: black; stroke-width:0.25;"/>
<line x1="422.500000" y1="83.000000" x2="425.500000" y2="82.000000"  transform="rotate(0.000000,425.500000,82.000000)" style="stroke: black; stroke-width:0.25;"/>
<a xlink:href="peakHolder-0x6000054daf40.svg">
<rect x="457.500000" y="66.000000" width="64.500000" height="24.000000" rx="0" ry="0" style="stroke:#000000;fill:#FFFFFF;"/>
</a>
<a xlink:href="peakHolder-0x6000054daf40.svg">
<text x="489.750000" y="80.000000" font-family="Verdana" font-size="7" text-anchor="middle" fill="#000000">peakHolder(5)</text>
</a>
<circle cx="459.500000" cy="68.000000" r="1"/>
<line x1="454.500000" y1="77.000000" x2="457.500000" y2="78.000000"  transform="rotate(0.000000,457.500000,78.000000)" style="stroke: black; stroke-width:0.25;"/>
<line x1="454.500000" y1="79.000000" x2="457.500000" y2="78.000000"  transform="rotate(0.000000,457.500000,78.000000)" style="stroke: black; stroke-width:0.25;"/>
<a xlink:href="integrator-0x60000571a6d0.svg">
<rect x="530.000000" y="66.000000" width="77.400000" height="24.000000" rx="0" ry="0" style="stroke:#000000;fill:#FFFFFF;"/>
</a>
<a xlink:href="integrator-0x60000571a6d0.svg">
<text x="568.700000" y="80.000000" font-family="Verdana" font-size="7" text-anchor="middle" fill="#000000">integrator(0.3f)</text>
</a>
<circle cx="532.000000" cy="68.000000" r="1"/>
<line x1="527.000000" y1="77.000000" x2="530.000000" y2="78.000000"  transform="rotate(0.000000,530.000000,78.000000)" style="stroke: black; stroke-width:0.25;"/>
<line x1="527.000000" y1="79.000000" x2="530.000000" y2="78.000000"  transform="rotate(0.000000,530.000000,78.000000)" style="stroke: black; stroke-width:0.25;"/>
<line x1="15.000000" y1="15.000000" x2="15.000000" y2="141.000000"  style="stroke: black; stroke-linecap:round; stroke-width:0.25; stroke-dasharray:3,3;"/>
<line x1="15.000000" y1="141.000000" x2="624.400000" y2="141.000000"  style="stroke: black; stroke-linecap:round; stroke-width:0.25; stroke-dasharray:3,3;"/>
<line x1="624.400000" y1="141.000000" x2="624.400000" y2="15.000000"  style="stroke: black; stroke-linecap:round; stroke-width:0.25; stroke-dasharray:3,3;"/>
<line x1="15.000000" y1="15.000000" x2="20.000000" y2="15.000000"  style="stroke: black; stroke-linecap:round; stroke-width:0.25; stroke-dasharray:3,3;"/>
<line x1="94.175000" y1="15.000000" x2="624.400000" y2="15.000000"  style="stroke: black; stroke-linecap:round; stroke-width:0.25; stroke-dasharray:3,3;"/>
<text x="20.000000" y="17.000000" font-family="Verdana" font-size="7">mappingQfilter5(1.5f)</text>
<line x1="626.400000" y1="77.000000" x2="629.400000" y2="78.000000"  transform="rotate(0.000000,629.400000,78.000000)" style="stroke: black; stroke-width:0.25;"/>
<line x1="626.400000" y1="79.000000" x2="629.400000" y2="78.000000"  transform="rotate(0.000000,629.400000,78.000000)" style="stroke: black; stroke-width:0.25;"/>
<line x1="10.000000" y1="78.000000" x2="20.000000" y2="78.000000"  style="stroke:black; stroke-linecap:round; stroke-width:0.25;"/>
<line x1="20.000000" y1="78.000000" x2="24.000000" y2="78.000000"  style="stroke:black; stroke-linecap:round; stroke-width:0.25;"/>
<line x1="24.000000" y1="78.000000" x2="28.000000" y2="78.000000"  style="stroke:black; stroke-linecap:round; stroke-width:0.25;"/>
<line x1="28.000000" y1="78.000000" x2="36.000000" y2="78.000000"  style="stroke:black; stroke-linecap:round; stroke-width:0.25;"/>
<line x1="36.000000" y1="78.000000" x2="36.000000" y2="88.000000"  style="stroke:black; stroke-linecap:round; stroke-width:0.25;"/>
<line x1="36.000000" y1="88.000000" x2="36.000000" y2="88.000000"  style="stroke:black; stroke-linecap:round; stroke-width:0.25;"/>
<line x1="36.000000" y1="88.000000" x2="40.000000" y2="88.000000"  style="stroke:black; stroke-linecap:round; stroke-width:0.25;"/>
<line x1="149.650000" y1="46.000000" x2="153.650000" y2="46.000000"  style="stroke:black; stroke-linecap:round; stroke-width:0.25;"/>
<line x1="153.650000" y1="46.000000" x2="163.650000" y2="46.000000"  style="stroke:black; stroke-linecap:round; stroke-width:0.25;"/>
<line x1="155.850000" y1="120.000000" x2="159.850000" y2="120.000000"  style="stroke:black; stroke-linecap:round; stroke-width:0.25;"/>
<line x1="159.850000" y1="120.000000" x2="251.700000" y2="120.000000"  style="stroke:black; stroke-linecap:round; stroke-width:0.25;"/>
<line x1="163.650000" y1="46.000000" x2="211.700000" y2="46.000000"  style="stroke:black; stroke-linecap:round; stroke-width:0.25;"/>
<line x1="207.700000" y1="88.000000" x2="211.700000" y2="88.000000"  style="stroke:black; stroke-linecap:round; stroke-width:0.25;"/>
<line x1="211.700000" y1="46.000000" x2="219.700000" y2="46.000000"  style="stroke:black; stroke-linecap:round; stroke-width:0.25;"/>
<line x1="211.700000" y1="66.000000" x2="219.700000" y2="66.000000"  style="stroke:black; stroke-linecap:round; stroke-width:0.25;"/>
<line x1="211.700000" y1="88.000000" x2="211.700000" y2="66.000000"  style="stroke:black; stroke-linecap:round; stroke-width:0.25;"/>
<line x1="211.700000" y1="88.000000" x2="211.700000" y2="88.000000"  style="stroke:black; stroke-linecap:round; stroke-width:0.25;"/>
<line x1="219.700000" y1="46.000000" x2="219.700000" y2="58.000000"  style="stroke:black; stroke-linecap:round; stroke-width:0.25;"/>
<line x1="219.700000" y1="58.000000" x2="219.700000" y2="58.000000"  style="stroke:black; stroke-linecap:round; stroke-width:0.25;"/>
<line x1="219.700000" y1="58.000000" x2="223.700000" y2="58.000000"  style="stroke:black; stroke-linecap:round; stroke-width:0.25;"/>
<line x1="219.700000" y1="66.000000" x2="223.700000" y2="66.000000"  style="stroke:black; stroke-linecap:round; stroke-width:0.25;"/>
<line x1="247.700000" y1="62.000000" x2="251.700000" y2="62.000000"  style="stroke:black; stroke-linecap:round; stroke-width:0.25;"/>
<line x1="251.700000" y1="62.000000" x2="259.700000" y2="62.000000"  style="stroke:black; stroke-linecap:round; stroke-width:0.25;"/>
<line x1="251.700000" y1="82.000000" x2="259.700000" y2="82.000000"  style="stroke:black; stroke-linecap:round; stroke-width:0.25;"/>
<line x1="251.700000" y1="120.000000" x2="251.700000" y2="82.000000"  style="stroke:black; stroke-linecap:round; stroke-width:0.25;"/>
<line x1="251.700000" y1="120.000000" x2="251.700000" y2="120.000000"  style="stroke:black; stroke-linecap:round; stroke-width:0.25;"/>
<line x1="259.700000" y1="62.000000" x2="259.700000" y2="74.000000"  style="stroke:black; stroke-linecap:round; stroke-width:0.25;"/>
<line x1="259.700000" y1="74.000000" x2="259.700000" y2="74.000000"  style="stroke:black; stroke-linecap:round; stroke-width:0.25;"/>
<line x1="259.700000" y1="74.000000" x2="263.700000" y2="74.000000"  style="stroke:black; stroke-linecap:round; stroke-width:0.25;"/>
<line x1="259.700000" y1="82.000000" x2="263.700000" y2="82.000000"  style="stroke:black; stroke-linecap:round; stroke-width:0.25;"/>
<line x1="287.700000" y1="78.000000" x2="291.700000" y2="78.000000"  style="stroke:black; stroke-linecap:round; stroke-width:0.25;"/>
<line x1="291.700000" y1="62.000000" x2="299.700000" y2="62.000000"  style="stroke:black; stroke-linecap:round; stroke-width:0.25;"/>
<line x1="291.700000" y1="78.000000" x2="291.700000" y2="62.000000"  style="stroke:black; stroke-linecap:round; stroke-width:0.25;"/>
<line x1="291.700000" y1="78.000000" x2="291.700000" y2="78.000000"  style="stroke:black; stroke-linecap:round; stroke-width:0.25;"/>
<line x1="299.700000" y1="62.000000" x2="315.700000" y2="62.000000"  style="stroke:black; stroke-linecap:round; stroke-width:0.25;"/>
<line x1="315.700000" y1="62.000000" x2="331.700000" y2="62.000000"  style="stroke:black; stroke-linecap:round; stroke-width:0.25;"/>
<line x1="327.700000" y1="82.000000" x2="331.700000" y2="82.000000"  style="stroke:black; stroke-linecap:round; stroke-width:0.25;"/>
<line x1="331.700000" y1="62.000000" x2="339.700000" y2="62.000000"  style="stroke:black; stroke-linecap:round; stroke-width:0.25;"/>
<line x1="331.700000" y1="82.000000" x2="339.700000" y2="82.000000"  style="stroke:black; stroke-linecap:round; stroke-width:0.25;"/>
<line x1="339.700000" y1="62.000000" x2="339.700000" y2="74.000000"  style="stroke:black; stroke-linecap:round; stroke-width:0.25;"/>
<line x1="339.700000" y1="74.000000" x2="339.700000" y2="74.000000"  style="stroke:black; stroke-linecap:round; stroke-width:0.25;"/>
<line x1="339.700000" y1="74.000000" x2="343.700000" y2="74.000000"  style="stroke:black; stroke-linecap:round; stroke-width:0.25;"/>
<line x1="339.700000" y1="82.000000" x2="343.700000" y2="82.000000"  style="stroke:black; stroke-linecap:round; stroke-width:0.25;"/>
<line x1="367.700000" y1="78.000000" x2="371.700000" y2="78.000000"  style="stroke:black; stroke-linecap:round; stroke-width:0.25;"/>
<line x1="371.700000" y1="62.000000" x2="379.700000" y2="62.000000"  style="stroke:black; stroke-linecap:round; stroke-width:0.25;"/>
<line x1="371.700000" y1="78.000000" x2="371.700000" y2="62.000000"  style="stroke:black; stroke-linecap:round; stroke-width:0.25;"/>
<line x1="371.700000" y1="78.000000" x2="371.700000" y2="78.000000"  style="stroke:black; stroke-linecap:round; stroke-width:0.25;"/>
<line x1="379.700000" y1="62.000000" x2="396.600000" y2="62.000000"  style="stroke:black; stroke-linecap:round; stroke-width:0.25;"/>
<line x1="396.600000" y1="62.000000" x2="413.500000" y2="62.000000"  style="stroke:black; stroke-linecap:round; stroke-width:0.25;"/>
<line x1="409.500000" y1="82.000000" x2="413.500000" y2="82.000000"  style="stroke:black; stroke-linecap:round; stroke-width:0.25;"/>
<line x1="413.500000" y1="62.000000" x2="421.500000" y2="62.000000"  style="stroke:black; stroke-linecap:round; stroke-width:0.25;"/>
<line x1="413.500000" y1="82.000000" x2="421.500000" y2="82.000000"  style="stroke:black; stroke-linecap:round; stroke-width:0.25;"/>
<line x1="421.500000" y1="62.000000" x2="421.500000" y2="74.000000"  style="stroke:black; stroke-linecap:round; stroke-width:0.25;"/>
<line x1="421.500000" y1="74.000000" x2="421.500000" y2="74.000000"  style="stroke:black; stroke-linecap:round; stroke-width:0.25;"/>
<line x1="421.500000" y1="74.000000" x2="425.500000" y2="74.000000"  style="stroke:black; stroke-linecap:round; stroke-width:0.25;"/>
<line x1="421.500000" y1="82.000000" x2="425.500000" y2="82.000000"  style="stroke:black; stroke-linecap:round; stroke-width:0.25;"/>
<line x1="449.500000" y1="78.000000" x2="453.500000" y2="78.000000"  style="stroke:black; stroke-linecap:round; stroke-width:0.25;"/>
<line x1="453.500000" y1="78.000000" x2="453.500000" y2="78.000000"  style="stroke:black; stroke-linecap:round; stroke-width:0.25;"/>
<line x1="453.500000" y1="78.000000" x2="457.500000" y2="78.000000"  style="stroke:black; stroke-linecap:round; stroke-width:0.25;"/>
<line x1="522.000000" y1="78.000000" x2="526.000000" y2="78.000000"  style="stroke:black; stroke-linecap:round; stroke-width:0.25;"/>
<line x1="526.000000" y1="78.000000" x2="526.000000" y2="78.000000"  style="stroke:black; stroke-linecap:round; stroke-width:0.25;"/>
<line x1="526.000000" y1="78.000000" x2="530.000000" y2="78.000000"  style="stroke:black; stroke-linecap:round; stroke-width:0.25;"/>
<line x1="607.400000" y1="78.000000" x2="611.400000" y2="78.000000"  style="stroke:black; stroke-linecap:round; stroke-width:0.25;"/>
<line x1="611.400000" y1="78.000000" x2="611.400000" y2="78.000000"  style="stroke:black; stroke-linecap:round; stroke-width:0.25;"/>
<line x1="611.400000" y1="78.000000" x2="615.400000" y2="78.000000"  style="stroke:black; stroke-linecap:round; stroke-width:0.25;"/>
<line x1="615.400000" y1="78.000000" x2="619.400000" y2="78.000000"  style="stroke:black; stroke-linecap:round; stroke-width:0.25;"/>
<line x1="619.400000" y1="78.000000" x2="629.400000" y2="78.000000"  style="stroke:black; stroke-linecap:round; stroke-width:0.25;"/>
</svg>
