<?xml version="1.0"?>
<svg xmlns="http://www.w3.org/2000/svg" xmlns:xlink="http://www.w3.org/1999/xlink" viewBox="0 0 593.000000 452.000000" width="296.500000mm" height="226.000000mm" version="1.1">
<a xlink:href="mspan-0x6000156a5830.svg">
<rect x="0.000000" y="0.000000" width="592.000000" height="451.000000" rx="0" ry="0" style="stroke:#000000;fill:#FFFFFF;"/>
</a>
<text x="10.000000" y="7.000000" font-family="Verdana" font-size="7"></text>
<rect x="32.000000" y="214.000000" width="38.700000" height="24.000000" rx="0" ry="0" style="stroke:#000000;fill:#FFFFFF;"/>
<text x="51.350000" y="228.000000" font-family="Verdana" font-size="7" text-anchor="middle" fill="#000000">[426] in</text>
<circle cx="34.000000" cy="216.000000" r="1"/>
<line x1="29.000000" y1="225.000000" x2="32.000000" y2="226.000000"  transform="rotate(0.000000,32.000000,226.000000)" style="stroke: black; stroke-width:0.25;"/>
<line x1="29.000000" y1="227.000000" x2="32.000000" y2="226.000000"  transform="rotate(0.000000,32.000000,226.000000)" style="stroke: black; stroke-width:0.25;"/>
<rect x="260.500000" y="24.000000" width="38.700000" height="24.000000" rx="0" ry="0" style="stroke:#000000;fill:#FFFFFF;"/>
<text x="279.850000" y="38.000000" font-family="Verdana" font-size="7" text-anchor="middle" fill="#000000">[426] in</text>
<circle cx="262.500000" cy="26.000000" r="1"/>
<rect x="266.950000" y="66.000000" width="25.800000" height="24.000000" rx="0" ry="0" style="stroke:#000000;fill:#FFFFFF;"/>
<text x="279.850000" y="80.000000" font-family="Verdana" font-size="7" text-anchor="middle" fill="#000000">0.4f</text>
<circle cx="268.950000" cy="68.000000" r="1"/>
<line x1="257.950000" y1="57.000000" x2="257.950000" y2="99.000000"  style="stroke: black; stroke-linecap:round; stroke-width:0.25; stroke-dasharray:3,3;"/>
<line x1="257.950000" y1="99.000000" x2="301.750000" y2="99.000000"  style="stroke: black; stroke-linecap:round; stroke-width:0.25; stroke-dasharray:3,3;"/>
<line x1="301.750000" y1="99.000000" x2="301.750000" y2="57.000000"  style="stroke: black; stroke-linecap:round; stroke-width:0.25; stroke-dasharray:3,3;"/>
<line x1="257.950000" y1="57.000000" x2="262.950000" y2="57.000000"  style="stroke: black; stroke-linecap:round; stroke-width:0.25; stroke-dasharray:3,3;"/>
<line x1="301.750000" y1="57.000000" x2="301.750000" y2="57.000000"  style="stroke: black; stroke-linecap:round; stroke-width:0.25; stroke-dasharray:3,3;"/>
<text x="262.950000" y="59.000000" font-family="Verdana" font-size="7">fDev(0.4f)(x107)</text>
<rect x="318.750000" y="50.000000" width="24.000000" height="24.000000" rx="0" ry="0" style="stroke:#000000;fill:#FFFFFF;"/>
<text x="330.750000" y="64.000000" font-family="Verdana" font-size="7" text-anchor="middle" fill="#000000">*</text>
<circle cx="320.750000" cy="52.000000" r="1"/>
<line x1="315.750000" y1="57.000000" x2="318.750000" y2="58.000000"  transform="rotate(0.000000,318.750000,58.000000)" style="stroke: black; stroke-width:0.25;"/>
<line x1="315.750000" y1="59.000000" x2="318.750000" y2="58.000000"  transform="rotate(0.000000,318.750000,58.000000)" style="stroke: black; stroke-width:0.25;"/>
<line x1="315.750000" y1="65.000000" x2="318.750000" y2="66.000000"  transform="rotate(0.000000,318.750000,66.000000)" style="stroke: black; stroke-width:0.25;"/>
<line x1="315.750000" y1="67.000000" x2="318.750000" y2="66.000000"  transform="rotate(0.000000,318.750000,66.000000)" style="stroke: black; stroke-width:0.25;"/>
<rect x="240.500000" y="108.000000" width="38.700000" height="24.000000" rx="0" ry="0" style="stroke:#000000;fill:#FFFFFF;"/>
<text x="259.850000" y="122.000000" font-family="Verdana" font-size="7" text-anchor="middle" fill="#000000">[426] in</text>
<circle cx="242.500000" cy="110.000000" r="1"/>
<rect x="171.850000" y="150.000000" width="24.000000" height="24.000000" rx="0" ry="0" style="stroke:#000000;fill:#FFFFFF;"/>
<text x="183.850000" y="164.000000" font-family="Verdana" font-size="7" text-anchor="middle" fill="#000000">-1</text>
<circle cx="173.850000" cy="152.000000" r="1"/>
<line x1="162.850000" y1="141.000000" x2="162.850000" y2="183.000000"  style="stroke: black; stroke-linecap:round; stroke-width:0.25; stroke-dasharray:3,3;"/>
<line x1="162.850000" y1="183.000000" x2="204.850000" y2="183.000000"  style="stroke: black; stroke-linecap:round; stroke-width:0.25; stroke-dasharray:3,3;"/>
<line x1="204.850000" y1="183.000000" x2="204.850000" y2="141.000000"  style="stroke: black; stroke-linecap:round; stroke-width:0.25; stroke-dasharray:3,3;"/>
<line x1="162.850000" y1="141.000000" x2="167.850000" y2="141.000000"  style="stroke: black; stroke-linecap:round; stroke-width:0.25; stroke-dasharray:3,3;"/>
<line x1="204.850000" y1="141.000000" x2="204.850000" y2="141.000000"  style="stroke: black; stroke-linecap:round; stroke-width:0.25; stroke-dasharray:3,3;"/>
<text x="167.850000" y="143.000000" font-family="Verdana" font-size="7">signum(-269)</text>
<rect x="111.850000" y="192.000000" width="24.000000" height="24.000000" rx="0" ry="0" style="stroke:#000000;fill:#FFFFFF;"/>
<text x="123.850000" y="206.000000" font-family="Verdana" font-size="7" text-anchor="middle" fill="#000000">90</text>
<circle cx="113.850000" cy="194.000000" r="1"/>
<a xlink:href="radianFun-0x60001565e880.svg">
<rect x="78.700000" y="224.000000" width="90.300000" height="24.000000" rx="0" ry="0" style="stroke:#000000;fill:#FFFFFF;"/>
</a>
<a xlink:href="radianFun-0x60001565e880.svg">
<text x="123.850000" y="238.000000" font-family="Verdana" font-size="7" text-anchor="middle" fill="#000000">radianFun(2)(2)(x419)</text>
</a>
<circle cx="80.700000" cy="226.000000" r="1"/>
<rect x="185.000000" y="208.000000" width="24.000000" height="24.000000" rx="0" ry="0" style="stroke:#000000;fill:#FFFFFF;"/>
<text x="197.000000" y="222.000000" font-family="Verdana" font-size="7" text-anchor="middle" fill="#000000">+</text>
<circle cx="187.000000" cy="210.000000" r="1"/>
<line x1="182.000000" y1="215.000000" x2="185.000000" y2="216.000000"  transform="rotate(0.000000,185.000000,216.000000)" style="stroke: black; stroke-width:0.25;"/>
<line x1="182.000000" y1="217.000000" x2="185.000000" y2="216.000000"  transform="rotate(0.000000,185.000000,216.000000)" style="stroke: black; stroke-width:0.25;"/>
<line x1="182.000000" y1="223.000000" x2="185.000000" y2="224.000000"  transform="rotate(0.000000,185.000000,224.000000)" style="stroke: black; stroke-width:0.25;"/>
<line x1="182.000000" y1="225.000000" x2="185.000000" y2="224.000000"  transform="rotate(0.000000,185.000000,224.000000)" style="stroke: black; stroke-width:0.25;"/>
<a xlink:href="radianFun2-0x6000156a3570.svg">
<rect x="105.150000" y="256.000000" width="77.400000" height="24.000000" rx="0" ry="0" style="stroke:#000000;fill:#FFFFFF;"/>
</a>
<a xlink:href="radianFun2-0x6000156a3570.svg">
<text x="143.850000" y="270.000000" font-family="Verdana" font-size="7" text-anchor="middle" fill="#000000">radianFun2(x419)</text>
</a>
<circle cx="107.150000" cy="258.000000" r="1"/>
<rect x="225.000000" y="224.000000" width="24.000000" height="24.000000" rx="0" ry="0" style="stroke:#000000;fill:#FFFFFF;"/>
<text x="237.000000" y="238.000000" font-family="Verdana" font-size="7" text-anchor="middle" fill="#000000">+</text>
<circle cx="227.000000" cy="226.000000" r="1"/>
<line x1="222.000000" y1="231.000000" x2="225.000000" y2="232.000000"  transform="rotate(0.000000,225.000000,232.000000)" style="stroke: black; stroke-width:0.25;"/>
<line x1="222.000000" y1="233.000000" x2="225.000000" y2="232.000000"  transform="rotate(0.000000,225.000000,232.000000)" style="stroke: black; stroke-width:0.25;"/>
<line x1="222.000000" y1="239.000000" x2="225.000000" y2="240.000000"  transform="rotate(0.000000,225.000000,240.000000)" style="stroke: black; stroke-width:0.25;"/>
<line x1="222.000000" y1="241.000000" x2="225.000000" y2="240.000000"  transform="rotate(0.000000,225.000000,240.000000)" style="stroke: black; stroke-width:0.25;"/>
<rect x="151.850000" y="288.000000" width="24.000000" height="24.000000" rx="0" ry="0" style="stroke:#000000;fill:#FFFFFF;"/>
<text x="163.850000" y="302.000000" font-family="Verdana" font-size="7" text-anchor="middle" fill="#000000">2</text>
<circle cx="153.850000" cy="290.000000" r="1"/>
<rect x="265.000000" y="240.000000" width="24.000000" height="24.000000" rx="0" ry="0" style="stroke:#000000;fill:#FFFFFF;"/>
<text x="277.000000" y="254.000000" font-family="Verdana" font-size="7" text-anchor="middle" fill="#000000">*</text>
<circle cx="267.000000" cy="242.000000" r="1"/>
<line x1="262.000000" y1="247.000000" x2="265.000000" y2="248.000000"  transform="rotate(0.000000,265.000000,248.000000)" style="stroke: black; stroke-width:0.25;"/>
<line x1="262.000000" y1="249.000000" x2="265.000000" y2="248.000000"  transform="rotate(0.000000,265.000000,248.000000)" style="stroke: black; stroke-width:0.25;"/>
<line x1="262.000000" y1="255.000000" x2="265.000000" y2="256.000000"  transform="rotate(0.000000,265.000000,256.000000)" style="stroke: black; stroke-width:0.25;"/>
<line x1="262.000000" y1="257.000000" x2="265.000000" y2="256.000000"  transform="rotate(0.000000,265.000000,256.000000)" style="stroke: black; stroke-width:0.25;"/>
<rect x="305.000000" y="214.000000" width="24.000000" height="24.000000" rx="0" ry="0" style="stroke:#000000;fill:#FFFFFF;"/>
<text x="317.000000" y="228.000000" font-family="Verdana" font-size="7" text-anchor="middle" fill="#000000">*</text>
<circle cx="307.000000" cy="216.000000" r="1"/>
<line x1="302.000000" y1="221.000000" x2="305.000000" y2="222.000000"  transform="rotate(0.000000,305.000000,222.000000)" style="stroke: black; stroke-width:0.25;"/>
<line x1="302.000000" y1="223.000000" x2="305.000000" y2="222.000000"  transform="rotate(0.000000,305.000000,222.000000)" style="stroke: black; stroke-width:0.25;"/>
<line x1="302.000000" y1="229.000000" x2="305.000000" y2="230.000000"  transform="rotate(0.000000,305.000000,230.000000)" style="stroke: black; stroke-width:0.25;"/>
<line x1="302.000000" y1="231.000000" x2="305.000000" y2="230.000000"  transform="rotate(0.000000,305.000000,230.000000)" style="stroke: black; stroke-width:0.25;"/>
<rect x="178.050000" y="330.000000" width="51.600000" height="24.000000" rx="0" ry="0" style="stroke:#000000;fill:#FFFFFF;"/>
<text x="203.850000" y="344.000000" font-family="Verdana" font-size="7" text-anchor="middle" fill="#000000">3.1415927f</text>
<circle cx="180.050000" cy="332.000000" r="1"/>
<line x1="169.050000" y1="321.000000" x2="169.050000" y2="363.000000"  style="stroke: black; stroke-linecap:round; stroke-width:0.25; stroke-dasharray:3,3;"/>
<line x1="169.050000" y1="363.000000" x2="238.650000" y2="363.000000"  style="stroke: black; stroke-linecap:round; stroke-width:0.25; stroke-dasharray:3,3;"/>
<line x1="238.650000" y1="363.000000" x2="238.650000" y2="321.000000"  style="stroke: black; stroke-linecap:round; stroke-width:0.25; stroke-dasharray:3,3;"/>
<line x1="169.050000" y1="321.000000" x2="174.050000" y2="321.000000"  style="stroke: black; stroke-linecap:round; stroke-width:0.25; stroke-dasharray:3,3;"/>
<line x1="186.950000" y1="321.000000" x2="238.650000" y2="321.000000"  style="stroke: black; stroke-linecap:round; stroke-width:0.25; stroke-dasharray:3,3;"/>
<text x="174.050000" y="323.000000" font-family="Verdana" font-size="7">PI</text>
<rect x="345.000000" y="240.000000" width="24.000000" height="24.000000" rx="0" ry="0" style="stroke:#000000;fill:#FFFFFF;"/>
<text x="357.000000" y="254.000000" font-family="Verdana" font-size="7" text-anchor="middle" fill="#000000">*</text>
<circle cx="347.000000" cy="242.000000" r="1"/>
<line x1="342.000000" y1="247.000000" x2="345.000000" y2="248.000000"  transform="rotate(0.000000,345.000000,248.000000)" style="stroke: black; stroke-width:0.25;"/>
<line x1="342.000000" y1="249.000000" x2="345.000000" y2="248.000000"  transform="rotate(0.000000,345.000000,248.000000)" style="stroke: black; stroke-width:0.25;"/>
<line x1="342.000000" y1="255.000000" x2="345.000000" y2="256.000000"  transform="rotate(0.000000,345.000000,256.000000)" style="stroke: black; stroke-width:0.25;"/>
<line x1="342.000000" y1="257.000000" x2="345.000000" y2="256.000000"  transform="rotate(0.000000,345.000000,256.000000)" style="stroke: black; stroke-width:0.25;"/>
<rect x="211.850000" y="372.000000" width="24.000000" height="24.000000" rx="0" ry="0" style="stroke:#000000;fill:#FFFFFF;"/>
<text x="223.850000" y="386.000000" font-family="Verdana" font-size="7" text-anchor="middle" fill="#000000">180</text>
<circle cx="213.850000" cy="374.000000" r="1"/>
<rect x="385.000000" y="256.000000" width="24.000000" height="24.000000" rx="0" ry="0" style="stroke:#000000;fill:#FFFFFF;"/>
<text x="397.000000" y="270.000000" font-family="Verdana" font-size="7" text-anchor="middle" fill="#000000">/</text>
<circle cx="387.000000" cy="258.000000" r="1"/>
<line x1="382.000000" y1="263.000000" x2="385.000000" y2="264.000000"  transform="rotate(0.000000,385.000000,264.000000)" style="stroke: black; stroke-width:0.25;"/>
<line x1="382.000000" y1="265.000000" x2="385.000000" y2="264.000000"  transform="rotate(0.000000,385.000000,264.000000)" style="stroke: black; stroke-width:0.25;"/>
<line x1="382.000000" y1="271.000000" x2="385.000000" y2="272.000000"  transform="rotate(0.000000,385.000000,272.000000)" style="stroke: black; stroke-width:0.25;"/>
<line x1="382.000000" y1="273.000000" x2="385.000000" y2="272.000000"  transform="rotate(0.000000,385.000000,272.000000)" style="stroke: black; stroke-width:0.25;"/>
<rect x="417.000000" y="256.000000" width="24.000000" height="24.000000" rx="0" ry="0" style="stroke:#000000;fill:#FFFFFF;"/>
<text x="429.000000" y="270.000000" font-family="Verdana" font-size="7" text-anchor="middle" fill="#000000">cos</text>
<circle cx="419.000000" cy="258.000000" r="1"/>
<line x1="414.000000" y1="267.000000" x2="417.000000" y2="268.000000"  transform="rotate(0.000000,417.000000,268.000000)" style="stroke: black; stroke-width:0.25;"/>
<line x1="414.000000" y1="269.000000" x2="417.000000" y2="268.000000"  transform="rotate(0.000000,417.000000,268.000000)" style="stroke: black; stroke-width:0.25;"/>
<rect x="457.000000" y="240.000000" width="24.000000" height="24.000000" rx="0" ry="0" style="stroke:#000000;fill:#FFFFFF;"/>
<text x="469.000000" y="254.000000" font-family="Verdana" font-size="7" text-anchor="middle" fill="#000000">*</text>
<circle cx="459.000000" cy="242.000000" r="1"/>
<line x1="454.000000" y1="247.000000" x2="457.000000" y2="248.000000"  transform="rotate(0.000000,457.000000,248.000000)" style="stroke: black; stroke-width:0.25;"/>
<line x1="454.000000" y1="249.000000" x2="457.000000" y2="248.000000"  transform="rotate(0.000000,457.000000,248.000000)" style="stroke: black; stroke-width:0.25;"/>
<line x1="454.000000" y1="255.000000" x2="457.000000" y2="256.000000"  transform="rotate(0.000000,457.000000,256.000000)" style="stroke: black; stroke-width:0.25;"/>
<line x1="454.000000" y1="257.000000" x2="457.000000" y2="256.000000"  transform="rotate(0.000000,457.000000,256.000000)" style="stroke: black; stroke-width:0.25;"/>
<rect x="266.950000" y="404.000000" width="25.800000" height="24.000000" rx="0" ry="0" style="stroke:#000000;fill:#FFFFFF;"/>
<text x="279.850000" y="418.000000" font-family="Verdana" font-size="7" text-anchor="middle" fill="#000000">0.6f</text>
<circle cx="268.950000" cy="406.000000" r="1"/>
<rect x="497.000000" y="256.000000" width="24.000000" height="24.000000" rx="0" ry="0" style="stroke:#000000;fill:#FFFFFF;"/>
<text x="509.000000" y="270.000000" font-family="Verdana" font-size="7" text-anchor="middle" fill="#000000">*</text>
<circle cx="499.000000" cy="258.000000" r="1"/>
<line x1="494.000000" y1="263.000000" x2="497.000000" y2="264.000000"  transform="rotate(0.000000,497.000000,264.000000)" style="stroke: black; stroke-width:0.25;"/>
<line x1="494.000000" y1="265.000000" x2="497.000000" y2="264.000000"  transform="rotate(0.000000,497.000000,264.000000)" style="stroke: black; stroke-width:0.25;"/>
<line x1="494.000000" y1="271.000000" x2="497.000000" y2="272.000000"  transform="rotate(0.000000,497.000000,272.000000)" style="stroke: black; stroke-width:0.25;"/>
<line x1="494.000000" y1="273.000000" x2="497.000000" y2="272.000000"  transform="rotate(0.000000,497.000000,272.000000)" style="stroke: black; stroke-width:0.25;"/>
<rect x="537.000000" y="214.000000" width="24.000000" height="24.000000" rx="0" ry="0" style="stroke:#000000;fill:#FFFFFF;"/>
<text x="549.000000" y="228.000000" font-family="Verdana" font-size="7" text-anchor="middle" fill="#000000">+</text>
<circle cx="539.000000" cy="216.000000" r="1"/>
<line x1="534.000000" y1="221.000000" x2="537.000000" y2="222.000000"  transform="rotate(0.000000,537.000000,222.000000)" style="stroke: black; stroke-width:0.25;"/>
<line x1="534.000000" y1="223.000000" x2="537.000000" y2="222.000000"  transform="rotate(0.000000,537.000000,222.000000)" style="stroke: black; stroke-width:0.25;"/>
<line x1="534.000000" y1="229.000000" x2="537.000000" y2="230.000000"  transform="rotate(0.000000,537.000000,230.000000)" style="stroke: black; stroke-width:0.25;"/>
<line x1="534.000000" y1="231.000000" x2="537.000000" y2="230.000000"  transform="rotate(0.000000,537.000000,230.000000)" style="stroke: black; stroke-width:0.25;"/>
<line x1="15.000000" y1="15.000000" x2="15.000000" y2="437.000000"  style="stroke: black; stroke-linecap:round; stroke-width:0.25; stroke-dasharray:3,3;"/>
<line x1="15.000000" y1="437.000000" x2="578.000000" y2="437.000000"  style="stroke: black; stroke-linecap:round; stroke-width:0.25; stroke-dasharray:3,3;"/>
<line x1="578.000000" y1="437.000000" x2="578.000000" y2="15.000000"  style="stroke: black; stroke-linecap:round; stroke-width:0.25; stroke-dasharray:3,3;"/>
<line x1="15.000000" y1="15.000000" x2="20.000000" y2="15.000000"  style="stroke: black; stroke-linecap:round; stroke-width:0.25; stroke-dasharray:3,3;"/>
<line x1="36.125000" y1="15.000000" x2="578.000000" y2="15.000000"  style="stroke: black; stroke-linecap:round; stroke-width:0.25; stroke-dasharray:3,3;"/>
<text x="20.000000" y="17.000000" font-family="Verdana" font-size="7">mid</text>
<line x1="580.000000" y1="225.000000" x2="583.000000" y2="226.000000"  transform="rotate(0.000000,583.000000,226.000000)" style="stroke: black; stroke-width:0.25;"/>
<line x1="580.000000" y1="227.000000" x2="583.000000" y2="226.000000"  transform="rotate(0.000000,583.000000,226.000000)" style="stroke: black; stroke-width:0.25;"/>
<line x1="10.000000" y1="226.000000" x2="20.000000" y2="226.000000"  style="stroke:black; stroke-linecap:round; stroke-width:0.25;"/>
<line x1="20.000000" y1="226.000000" x2="24.000000" y2="226.000000"  style="stroke:black; stroke-linecap:round; stroke-width:0.25;"/>
<line x1="24.000000" y1="226.000000" x2="28.000000" y2="226.000000"  style="stroke:black; stroke-linecap:round; stroke-width:0.25;"/>
<line x1="28.000000" y1="226.000000" x2="28.000000" y2="226.000000"  style="stroke:black; stroke-linecap:round; stroke-width:0.25;"/>
<line x1="28.000000" y1="226.000000" x2="32.000000" y2="226.000000"  style="stroke:black; stroke-linecap:round; stroke-width:0.25;"/>
<line x1="135.850000" y1="204.000000" x2="139.850000" y2="204.000000"  style="stroke:black; stroke-linecap:round; stroke-width:0.25;"/>
<line x1="139.850000" y1="204.000000" x2="173.000000" y2="204.000000"  style="stroke:black; stroke-linecap:round; stroke-width:0.25;"/>
<line x1="169.000000" y1="236.000000" x2="173.000000" y2="236.000000"  style="stroke:black; stroke-linecap:round; stroke-width:0.25;"/>
<line x1="173.000000" y1="204.000000" x2="181.000000" y2="204.000000"  style="stroke:black; stroke-linecap:round; stroke-width:0.25;"/>
<line x1="173.000000" y1="224.000000" x2="181.000000" y2="224.000000"  style="stroke:black; stroke-linecap:round; stroke-width:0.25;"/>
<line x1="173.000000" y1="236.000000" x2="173.000000" y2="224.000000"  style="stroke:black; stroke-linecap:round; stroke-width:0.25;"/>
<line x1="173.000000" y1="236.000000" x2="173.000000" y2="236.000000"  style="stroke:black; stroke-linecap:round; stroke-width:0.25;"/>
<line x1="175.850000" y1="300.000000" x2="179.850000" y2="300.000000"  style="stroke:black; stroke-linecap:round; stroke-width:0.25;"/>
<line x1="179.850000" y1="300.000000" x2="253.000000" y2="300.000000"  style="stroke:black; stroke-linecap:round; stroke-width:0.25;"/>
<line x1="181.000000" y1="204.000000" x2="181.000000" y2="216.000000"  style="stroke:black; stroke-linecap:round; stroke-width:0.25;"/>
<line x1="181.000000" y1="216.000000" x2="181.000000" y2="216.000000"  style="stroke:black; stroke-linecap:round; stroke-width:0.25;"/>
<line x1="181.000000" y1="216.000000" x2="185.000000" y2="216.000000"  style="stroke:black; stroke-linecap:round; stroke-width:0.25;"/>
<line x1="181.000000" y1="224.000000" x2="185.000000" y2="224.000000"  style="stroke:black; stroke-linecap:round; stroke-width:0.25;"/>
<line x1="182.550000" y1="268.000000" x2="186.550000" y2="268.000000"  style="stroke:black; stroke-linecap:round; stroke-width:0.25;"/>
<line x1="186.550000" y1="268.000000" x2="213.000000" y2="268.000000"  style="stroke:black; stroke-linecap:round; stroke-width:0.25;"/>
<line x1="195.850000" y1="162.000000" x2="199.850000" y2="162.000000"  style="stroke:black; stroke-linecap:round; stroke-width:0.25;"/>
<line x1="199.850000" y1="162.000000" x2="209.850000" y2="162.000000"  style="stroke:black; stroke-linecap:round; stroke-width:0.25;"/>
<line x1="209.000000" y1="220.000000" x2="213.000000" y2="220.000000"  style="stroke:black; stroke-linecap:round; stroke-width:0.25;"/>
<line x1="209.850000" y1="162.000000" x2="293.000000" y2="162.000000"  style="stroke:black; stroke-linecap:round; stroke-width:0.25;"/>
<line x1="213.000000" y1="220.000000" x2="221.000000" y2="220.000000"  style="stroke:black; stroke-linecap:round; stroke-width:0.25;"/>
<line x1="213.000000" y1="240.000000" x2="221.000000" y2="240.000000"  style="stroke:black; stroke-linecap:round; stroke-width:0.25;"/>
<line x1="213.000000" y1="268.000000" x2="213.000000" y2="240.000000"  style="stroke:black; stroke-linecap:round; stroke-width:0.25;"/>
<line x1="213.000000" y1="268.000000" x2="213.000000" y2="268.000000"  style="stroke:black; stroke-linecap:round; stroke-width:0.25;"/>
<line x1="221.000000" y1="220.000000" x2="221.000000" y2="232.000000"  style="stroke:black; stroke-linecap:round; stroke-width:0.25;"/>
<line x1="221.000000" y1="232.000000" x2="221.000000" y2="232.000000"  style="stroke:black; stroke-linecap:round; stroke-width:0.25;"/>
<line x1="221.000000" y1="232.000000" x2="225.000000" y2="232.000000"  style="stroke:black; stroke-linecap:round; stroke-width:0.25;"/>
<line x1="221.000000" y1="240.000000" x2="225.000000" y2="240.000000"  style="stroke:black; stroke-linecap:round; stroke-width:0.25;"/>
<line x1="229.650000" y1="342.000000" x2="233.650000" y2="342.000000"  style="stroke:black; stroke-linecap:round; stroke-width:0.25;"/>
<line x1="233.650000" y1="342.000000" x2="243.650000" y2="342.000000"  style="stroke:black; stroke-linecap:round; stroke-width:0.25;"/>
<line x1="235.850000" y1="384.000000" x2="239.850000" y2="384.000000"  style="stroke:black; stroke-linecap:round; stroke-width:0.25;"/>
<line x1="239.850000" y1="384.000000" x2="373.000000" y2="384.000000"  style="stroke:black; stroke-linecap:round; stroke-width:0.25;"/>
<line x1="243.650000" y1="342.000000" x2="333.000000" y2="342.000000"  style="stroke:black; stroke-linecap:round; stroke-width:0.25;"/>
<line x1="249.000000" y1="236.000000" x2="253.000000" y2="236.000000"  style="stroke:black; stroke-linecap:round; stroke-width:0.25;"/>
<line x1="253.000000" y1="236.000000" x2="261.000000" y2="236.000000"  style="stroke:black; stroke-linecap:round; stroke-width:0.25;"/>
<line x1="253.000000" y1="256.000000" x2="261.000000" y2="256.000000"  style="stroke:black; stroke-linecap:round; stroke-width:0.25;"/>
<line x1="253.000000" y1="300.000000" x2="253.000000" y2="256.000000"  style="stroke:black; stroke-linecap:round; stroke-width:0.25;"/>
<line x1="253.000000" y1="300.000000" x2="253.000000" y2="300.000000"  style="stroke:black; stroke-linecap:round; stroke-width:0.25;"/>
<line x1="261.000000" y1="236.000000" x2="261.000000" y2="248.000000"  style="stroke:black; stroke-linecap:round; stroke-width:0.25;"/>
<line x1="261.000000" y1="248.000000" x2="261.000000" y2="248.000000"  style="stroke:black; stroke-linecap:round; stroke-width:0.25;"/>
<line x1="261.000000" y1="248.000000" x2="265.000000" y2="248.000000"  style="stroke:black; stroke-linecap:round; stroke-width:0.25;"/>
<line x1="261.000000" y1="256.000000" x2="265.000000" y2="256.000000"  style="stroke:black; stroke-linecap:round; stroke-width:0.25;"/>
<line x1="279.200000" y1="120.000000" x2="283.200000" y2="120.000000"  style="stroke:black; stroke-linecap:round; stroke-width:0.25;"/>
<line x1="283.200000" y1="120.000000" x2="445.000000" y2="120.000000"  style="stroke:black; stroke-linecap:round; stroke-width:0.25;"/>
<line x1="289.000000" y1="252.000000" x2="293.000000" y2="252.000000"  style="stroke:black; stroke-linecap:round; stroke-width:0.25;"/>
<line x1="292.750000" y1="78.000000" x2="296.750000" y2="78.000000"  style="stroke:black; stroke-linecap:round; stroke-width:0.25;"/>
<line x1="292.750000" y1="416.000000" x2="296.750000" y2="416.000000"  style="stroke:black; stroke-linecap:round; stroke-width:0.25;"/>
<line x1="293.000000" y1="162.000000" x2="301.000000" y2="162.000000"  style="stroke:black; stroke-linecap:round; stroke-width:0.25;"/>
<line x1="293.000000" y1="230.000000" x2="301.000000" y2="230.000000"  style="stroke:black; stroke-linecap:round; stroke-width:0.25;"/>
<line x1="293.000000" y1="252.000000" x2="293.000000" y2="230.000000"  style="stroke:black; stroke-linecap:round; stroke-width:0.25;"/>
<line x1="293.000000" y1="252.000000" x2="293.000000" y2="252.000000"  style="stroke:black; stroke-linecap:round; stroke-width:0.25;"/>
<line x1="296.750000" y1="78.000000" x2="306.750000" y2="78.000000"  style="stroke:black; stroke-linecap:round; stroke-width:0.25;"/>
<line x1="296.750000" y1="416.000000" x2="485.000000" y2="416.000000"  style="stroke:black; stroke-linecap:round; stroke-width:0.25;"/>
<line x1="299.200000" y1="36.000000" x2="303.200000" y2="36.000000"  style="stroke:black; stroke-linecap:round; stroke-width:0.25;"/>
<line x1="301.000000" y1="162.000000" x2="301.000000" y2="222.000000"  style="stroke:black; stroke-linecap:round; stroke-width:0.25;"/>
<line x1="301.000000" y1="222.000000" x2="301.000000" y2="222.000000"  style="stroke:black; stroke-linecap:round; stroke-width:0.25;"/>
<line x1="301.000000" y1="222.000000" x2="305.000000" y2="222.000000"  style="stroke:black; stroke-linecap:round; stroke-width:0.25;"/>
<line x1="301.000000" y1="230.000000" x2="305.000000" y2="230.000000"  style="stroke:black; stroke-linecap:round; stroke-width:0.25;"/>
<line x1="303.200000" y1="36.000000" x2="306.750000" y2="36.000000"  style="stroke:black; stroke-linecap:round; stroke-width:0.25;"/>
<line x1="306.750000" y1="36.000000" x2="314.750000" y2="36.000000"  style="stroke:black; stroke-linecap:round; stroke-width:0.25;"/>
<line x1="306.750000" y1="66.000000" x2="314.750000" y2="66.000000"  style="stroke:black; stroke-linecap:round; stroke-width:0.25;"/>
<line x1="306.750000" y1="78.000000" x2="306.750000" y2="66.000000"  style="stroke:black; stroke-linecap:round; stroke-width:0.25;"/>
<line x1="306.750000" y1="78.000000" x2="306.750000" y2="78.000000"  style="stroke:black; stroke-linecap:round; stroke-width:0.25;"/>
<line x1="314.750000" y1="36.000000" x2="314.750000" y2="58.000000"  style="stroke:black; stroke-linecap:round; stroke-width:0.25;"/>
<line x1="314.750000" y1="58.000000" x2="314.750000" y2="58.000000"  style="stroke:black; stroke-linecap:round; stroke-width:0.25;"/>
<line x1="314.750000" y1="58.000000" x2="318.750000" y2="58.000000"  style="stroke:black; stroke-linecap:round; stroke-width:0.25;"/>
<line x1="314.750000" y1="66.000000" x2="318.750000" y2="66.000000"  style="stroke:black; stroke-linecap:round; stroke-width:0.25;"/>
<line x1="329.000000" y1="226.000000" x2="333.000000" y2="226.000000"  style="stroke:black; stroke-linecap:round; stroke-width:0.25;"/>
<line x1="333.000000" y1="226.000000" x2="341.000000" y2="226.000000"  style="stroke:black; stroke-linecap:round; stroke-width:0.25;"/>
<line x1="333.000000" y1="256.000000" x2="341.000000" y2="256.000000"  style="stroke:black; stroke-linecap:round; stroke-width:0.25;"/>
<line x1="333.000000" y1="342.000000" x2="333.000000" y2="256.000000"  style="stroke:black; stroke-linecap:round; stroke-width:0.25;"/>
<line x1="333.000000" y1="342.000000" x2="333.000000" y2="342.000000"  style="stroke:black; stroke-linecap:round; stroke-width:0.25;"/>
<line x1="341.000000" y1="226.000000" x2="341.000000" y2="248.000000"  style="stroke:black; stroke-linecap:round; stroke-width:0.25;"/>
<line x1="341.000000" y1="248.000000" x2="341.000000" y2="248.000000"  style="stroke:black; stroke-linecap:round; stroke-width:0.25;"/>
<line x1="341.000000" y1="248.000000" x2="345.000000" y2="248.000000"  style="stroke:black; stroke-linecap:round; stroke-width:0.25;"/>
<line x1="341.000000" y1="256.000000" x2="345.000000" y2="256.000000"  style="stroke:black; stroke-linecap:round; stroke-width:0.25;"/>
<line x1="342.750000" y1="62.000000" x2="346.750000" y2="62.000000"  style="stroke:black; stroke-linecap:round; stroke-width:0.25;"/>
<line x1="346.750000" y1="62.000000" x2="525.000000" y2="62.000000"  style="stroke:black; stroke-linecap:round; stroke-width:0.25;"/>
<line x1="369.000000" y1="252.000000" x2="373.000000" y2="252.000000"  style="stroke:black; stroke-linecap:round; stroke-width:0.25;"/>
<line x1="373.000000" y1="252.000000" x2="381.000000" y2="252.000000"  style="stroke:black; stroke-linecap:round; stroke-width:0.25;"/>
<line x1="373.000000" y1="272.000000" x2="381.000000" y2="272.000000"  style="stroke:black; stroke-linecap:round; stroke-width:0.25;"/>
<line x1="373.000000" y1="384.000000" x2="373.000000" y2="272.000000"  style="stroke:black; stroke-linecap:round; stroke-width:0.25;"/>
<line x1="373.000000" y1="384.000000" x2="373.000000" y2="384.000000"  style="stroke:black; stroke-linecap:round; stroke-width:0.25;"/>
<line x1="381.000000" y1="252.000000" x2="381.000000" y2="264.000000"  style="stroke:black; stroke-linecap:round; stroke-width:0.25;"/>
<line x1="381.000000" y1="264.000000" x2="381.000000" y2="264.000000"  style="stroke:black; stroke-linecap:round; stroke-width:0.25;"/>
<line x1="381.000000" y1="264.000000" x2="385.000000" y2="264.000000"  style="stroke:black; stroke-linecap:round; stroke-width:0.25;"/>
<line x1="381.000000" y1="272.000000" x2="385.000000" y2="272.000000"  style="stroke:black; stroke-linecap:round; stroke-width:0.25;"/>
<line x1="409.000000" y1="268.000000" x2="413.000000" y2="268.000000"  style="stroke:black; stroke-linecap:round; stroke-width:0.25;"/>
<line x1="413.000000" y1="268.000000" x2="413.000000" y2="268.000000"  style="stroke:black; stroke-linecap:round; stroke-width:0.25;"/>
<line x1="413.000000" y1="268.000000" x2="417.000000" y2="268.000000"  style="stroke:black; stroke-linecap:round; stroke-width:0.25;"/>
<line x1="441.000000" y1="268.000000" x2="445.000000" y2="268.000000"  style="stroke:black; stroke-linecap:round; stroke-width:0.25;"/>
<line x1="445.000000" y1="120.000000" x2="453.000000" y2="120.000000"  style="stroke:black; stroke-linecap:round; stroke-width:0.25;"/>
<line x1="445.000000" y1="256.000000" x2="453.000000" y2="256.000000"  style="stroke:black; stroke-linecap:round; stroke-width:0.25;"/>
<line x1="445.000000" y1="268.000000" x2="445.000000" y2="256.000000"  style="stroke:black; stroke-linecap:round; stroke-width:0.25;"/>
<line x1="445.000000" y1="268.000000" x2="445.000000" y2="268.000000"  style="stroke:black; stroke-linecap:round; stroke-width:0.25;"/>
<line x1="453.000000" y1="120.000000" x2="453.000000" y2="248.000000"  style="stroke:black; stroke-linecap:round; stroke-width:0.25;"/>
<line x1="453.000000" y1="248.000000" x2="453.000000" y2="248.000000"  style="stroke:black; stroke-linecap:round; stroke-width:0.25;"/>
<line x1="453.000000" y1="248.000000" x2="457.000000" y2="248.000000"  style="stroke:black; stroke-linecap:round; stroke-width:0.25;"/>
<line x1="453.000000" y1="256.000000" x2="457.000000" y2="256.000000"  style="stroke:black; stroke-linecap:round; stroke-width:0.25;"/>
<line x1="481.000000" y1="252.000000" x2="485.000000" y2="252.000000"  style="stroke:black; stroke-linecap:round; stroke-width:0.25;"/>
<line x1="485.000000" y1="252.000000" x2="493.000000" y2="252.000000"  style="stroke:black; stroke-linecap:round; stroke-width:0.25;"/>
<line x1="485.000000" y1="272.000000" x2="493.000000" y2="272.000000"  style="stroke:black; stroke-linecap:round; stroke-width:0.25;"/>
<line x1="485.000000" y1="416.000000" x2="485.000000" y2="272.000000"  style="stroke:black; stroke-linecap:round; stroke-width:0.25;"/>
<line x1="485.000000" y1="416.000000" x2="485.000000" y2="416.000000"  style="stroke:black; stroke-linecap:round; stroke-width:0.25;"/>
<line x1="493.000000" y1="252.000000" x2="493.000000" y2="264.000000"  style="stroke:black; stroke-linecap:round; stroke-width:0.25;"/>
<line x1="493.000000" y1="264.000000" x2="493.000000" y2="264.000000"  style="stroke:black; stroke-linecap:round; stroke-width:0.25;"/>
<line x1="493.000000" y1="264.000000" x2="497.000000" y2="264.000000"  style="stroke:black; stroke-linecap:round; stroke-width:0.25;"/>
<line x1="493.000000" y1="272.000000" x2="497.000000" y2="272.000000"  style="stroke:black; stroke-linecap:round; stroke-width:0.25;"/>
<line x1="521.000000" y1="268.000000" x2="525.000000" y2="268.000000"  style="stroke:black; stroke-linecap:round; stroke-width:0.25;"/>
<line x1="525.000000" y1="62.000000" x2="533.000000" y2="62.000000"  style="stroke:black; stroke-linecap:round; stroke-width:0.25;"/>
<line x1="525.000000" y1="230.000000" x2="533.000000" y2="230.000000"  style="stroke:black; stroke-linecap:round; stroke-width:0.25;"/>
<line x1="525.000000" y1="268.000000" x2="525.000000" y2="230.000000"  style="stroke:black; stroke-linecap:round; stroke-width:0.25;"/>
<line x1="525.000000" y1="268.000000" x2="525.000000" y2="268.000000"  style="stroke:black; stroke-linecap:round; stroke-width:0.25;"/>
<line x1="533.000000" y1="62.000000" x2="533.000000" y2="222.000000"  style="stroke:black; stroke-linecap:round; stroke-width:0.25;"/>
<line x1="533.000000" y1="222.000000" x2="533.000000" y2="222.000000"  style="stroke:black; stroke-linecap:round; stroke-width:0.25;"/>
<line x1="533.000000" y1="222.000000" x2="537.000000" y2="222.000000"  style="stroke:black; stroke-linecap:round; stroke-width:0.25;"/>
<line x1="533.000000" y1="230.000000" x2="537.000000" y2="230.000000"  style="stroke:black; stroke-linecap:round; stroke-width:0.25;"/>
<line x1="561.000000" y1="226.000000" x2="565.000000" y2="226.000000"  style="stroke:black; stroke-linecap:round; stroke-width:0.25;"/>
<line x1="565.000000" y1="226.000000" x2="565.000000" y2="226.000000"  style="stroke:black; stroke-linecap:round; stroke-width:0.25;"/>
<line x1="565.000000" y1="226.000000" x2="569.000000" y2="226.000000"  style="stroke:black; stroke-linecap:round; stroke-width:0.25;"/>
<line x1="569.000000" y1="226.000000" x2="573.000000" y2="226.000000"  style="stroke:black; stroke-linecap:round; stroke-width:0.25;"/>
<line x1="573.000000" y1="226.000000" x2="583.000000" y2="226.000000"  style="stroke:black; stroke-linecap:round; stroke-width:0.25;"/>
</svg>
