<?xml version="1.0"?>
<svg xmlns="http://www.w3.org/2000/svg" xmlns:xlink="http://www.w3.org/1999/xlink" viewBox="0 0 326.400000 124.000000" width="163.200000mm" height="62.000000mm" version="1.1">
<a xlink:href="radianFun2-0x6000094f7180.svg">
<rect x="0.000000" y="0.000000" width="325.400000" height="123.000000" rx="0" ry="0" style="stroke:#000000;fill:#FFFFFF;"/>
</a>
<text x="10.000000" y="7.000000" font-family="Verdana" font-size="7"></text>
<rect x="32.000000" y="50.000000" width="38.700000" height="24.000000" rx="0" ry="0" style="stroke:#000000;fill:#FFFFFF;"/>
<text x="51.350000" y="64.000000" font-family="Verdana" font-size="7" text-anchor="middle" fill="#000000">[174] x</text>
<circle cx="34.000000" cy="52.000000" r="1"/>
<line x1="29.000000" y1="61.000000" x2="32.000000" y2="62.000000"  transform="rotate(0.000000,32.000000,62.000000)" style="stroke: black; stroke-width:0.25;"/>
<line x1="29.000000" y1="63.000000" x2="32.000000" y2="62.000000"  transform="rotate(0.000000,32.000000,62.000000)" style="stroke: black; stroke-width:0.25;"/>
<rect x="137.650000" y="34.000000" width="24.000000" height="24.000000" rx="0" ry="0" style="stroke:#000000;fill:#FFFFFF;"/>
<text x="149.650000" y="48.000000" font-family="Verdana" font-size="7" text-anchor="middle" fill="#000000">0</text>
<circle cx="139.650000" cy="36.000000" r="1"/>
<line x1="128.650000" y1="25.000000" x2="128.650000" y2="67.000000"  style="stroke: black; stroke-linecap:round; stroke-width:0.25; stroke-dasharray:3,3;"/>
<line x1="128.650000" y1="67.000000" x2="170.650000" y2="67.000000"  style="stroke: black; stroke-linecap:round; stroke-width:0.25; stroke-dasharray:3,3;"/>
<line x1="170.650000" y1="67.000000" x2="170.650000" y2="25.000000"  style="stroke: black; stroke-linecap:round; stroke-width:0.25; stroke-dasharray:3,3;"/>
<line x1="128.650000" y1="25.000000" x2="133.650000" y2="25.000000"  style="stroke: black; stroke-linecap:round; stroke-width:0.25; stroke-dasharray:3,3;"/>
<line x1="153.000000" y1="25.000000" x2="170.650000" y2="25.000000"  style="stroke: black; stroke-linecap:round; stroke-width:0.25; stroke-dasharray:3,3;"/>
<text x="133.650000" y="27.000000" font-family="Verdana" font-size="7">SAFE</text>
<a xlink:href="movingAverage-0x6000094f6880.svg">
<rect x="78.700000" y="76.000000" width="141.900000" height="24.000000" rx="0" ry="0" style="stroke:#000000;fill:#FFFFFF;"/>
</a>
<a xlink:href="movingAverage-0x6000094f6880.svg">
<text x="149.650000" y="90.000000" font-family="Verdana" font-size="7" text-anchor="middle" fill="#000000">movingAverage(0.1f)(x174,2 : pow)</text>
</a>
<circle cx="80.700000" cy="78.000000" r="1"/>
<rect x="236.600000" y="50.000000" width="24.000000" height="24.000000" rx="0" ry="0" style="stroke:#000000;fill:#FFFFFF;"/>
<text x="248.600000" y="64.000000" font-family="Verdana" font-size="7" text-anchor="middle" fill="#000000">max</text>
<circle cx="238.600000" cy="52.000000" r="1"/>
<line x1="233.600000" y1="57.000000" x2="236.600000" y2="58.000000"  transform="rotate(0.000000,236.600000,58.000000)" style="stroke: black; stroke-width:0.25;"/>
<line x1="233.600000" y1="59.000000" x2="236.600000" y2="58.000000"  transform="rotate(0.000000,236.600000,58.000000)" style="stroke: black; stroke-width:0.25;"/>
<line x1="233.600000" y1="65.000000" x2="236.600000" y2="66.000000"  transform="rotate(0.000000,236.600000,66.000000)" style="stroke: black; stroke-width:0.25;"/>
<line x1="233.600000" y1="67.000000" x2="236.600000" y2="66.000000"  transform="rotate(0.000000,236.600000,66.000000)" style="stroke: black; stroke-width:0.25;"/>
<rect x="268.600000" y="50.000000" width="25.800000" height="24.000000" rx="0" ry="0" style="stroke:#000000;fill:#FFFFFF;"/>
<text x="281.500000" y="64.000000" font-family="Verdana" font-size="7" text-anchor="middle" fill="#000000">sqrt</text>
<circle cx="270.600000" cy="52.000000" r="1"/>
<line x1="265.600000" y1="61.000000" x2="268.600000" y2="62.000000"  transform="rotate(0.000000,268.600000,62.000000)" style="stroke: black; stroke-width:0.25;"/>
<line x1="265.600000" y1="63.000000" x2="268.600000" y2="62.000000"  transform="rotate(0.000000,268.600000,62.000000)" style="stroke: black; stroke-width:0.25;"/>
<line x1="15.000000" y1="15.000000" x2="15.000000" y2="109.000000"  style="stroke: black; stroke-linecap:round; stroke-width:0.25; stroke-dasharray:3,3;"/>
<line x1="15.000000" y1="109.000000" x2="311.400000" y2="109.000000"  style="stroke: black; stroke-linecap:round; stroke-width:0.25; stroke-dasharray:3,3;"/>
<line x1="311.400000" y1="109.000000" x2="311.400000" y2="15.000000"  style="stroke: black; stroke-linecap:round; stroke-width:0.25; stroke-dasharray:3,3;"/>
<line x1="15.000000" y1="15.000000" x2="20.000000" y2="15.000000"  style="stroke: black; stroke-linecap:round; stroke-width:0.25; stroke-dasharray:3,3;"/>
<line x1="97.400000" y1="15.000000" x2="311.400000" y2="15.000000"  style="stroke: black; stroke-linecap:round; stroke-width:0.25; stroke-dasharray:3,3;"/>
<text x="20.000000" y="17.000000" font-family="Verdana" font-size="7">movingAverageRMS(0.1f)</text>
<line x1="313.400000" y1="61.000000" x2="316.400000" y2="62.000000"  transform="rotate(0.000000,316.400000,62.000000)" style="stroke: black; stroke-width:0.25;"/>
<line x1="313.400000" y1="63.000000" x2="316.400000" y2="62.000000"  transform="rotate(0.000000,316.400000,62.000000)" style="stroke: black; stroke-width:0.25;"/>
<line x1="10.000000" y1="62.000000" x2="20.000000" y2="62.000000"  style="stroke:black; stroke-linecap:round; stroke-width:0.25;"/>
<line x1="20.000000" y1="62.000000" x2="24.000000" y2="62.000000"  style="stroke:black; stroke-linecap:round; stroke-width:0.25;"/>
<line x1="24.000000" y1="62.000000" x2="28.000000" y2="62.000000"  style="stroke:black; stroke-linecap:round; stroke-width:0.25;"/>
<line x1="28.000000" y1="62.000000" x2="28.000000" y2="62.000000"  style="stroke:black; stroke-linecap:round; stroke-width:0.25;"/>
<line x1="28.000000" y1="62.000000" x2="32.000000" y2="62.000000"  style="stroke:black; stroke-linecap:round; stroke-width:0.25;"/>
<line x1="161.650000" y1="46.000000" x2="165.650000" y2="46.000000"  style="stroke:black; stroke-linecap:round; stroke-width:0.25;"/>
<line x1="165.650000" y1="46.000000" x2="175.650000" y2="46.000000"  style="stroke:black; stroke-linecap:round; stroke-width:0.25;"/>
<line x1="175.650000" y1="46.000000" x2="224.600000" y2="46.000000"  style="stroke:black; stroke-linecap:round; stroke-width:0.25;"/>
<line x1="220.600000" y1="88.000000" x2="224.600000" y2="88.000000"  style="stroke:black; stroke-linecap:round; stroke-width:0.25;"/>
<line x1="224.600000" y1="46.000000" x2="232.600000" y2="46.000000"  style="stroke:black; stroke-linecap:round; stroke-width:0.25;"/>
<line x1="224.600000" y1="66.000000" x2="232.600000" y2="66.000000"  style="stroke:black; stroke-linecap:round; stroke-width:0.25;"/>
<line x1="224.600000" y1="88.000000" x2="224.600000" y2="66.000000"  style="stroke:black; stroke-linecap:round; stroke-width:0.25;"/>
<line x1="224.600000" y1="88.000000" x2="224.600000" y2="88.000000"  style="stroke:black; stroke-linecap:round; stroke-width:0.25;"/>
<line x1="232.600000" y1="46.000000" x2="232.600000" y2="58.000000"  style="stroke:black; stroke-linecap:round; stroke-width:0.25;"/>
<line x1="232.600000" y1="58.000000" x2="232.600000" y2="58.000000"  style="stroke:black; stroke-linecap:round; stroke-width:0.25;"/>
<line x1="232.600000" y1="58.000000" x2="236.600000" y2="58.000000"  style="stroke:black; stroke-linecap:round; stroke-width:0.25;"/>
<line x1="232.600000" y1="66.000000" x2="236.600000" y2="66.000000"  style="stroke:black; stroke-linecap:round; stroke-width:0.25;"/>
<line x1="260.600000" y1="62.000000" x2="264.600000" y2="62.000000"  style="stroke:black; stroke-linecap:round; stroke-width:0.25;"/>
<line x1="264.600000" y1="62.000000" x2="264.600000" y2="62.000000"  style="stroke:black; stroke-linecap:round; stroke-width:0.25;"/>
<line x1="264.600000" y1="62.000000" x2="268.600000" y2="62.000000"  style="stroke:black; stroke-linecap:round; stroke-width:0.25;"/>
<line x1="294.400000" y1="62.000000" x2="298.400000" y2="62.000000"  style="stroke:black; stroke-linecap:round; stroke-width:0.25;"/>
<line x1="298.400000" y1="62.000000" x2="302.400000" y2="62.000000"  style="stroke:black; stroke-linecap:round; stroke-width:0.25;"/>
<line x1="298.400000" y1="62.000000" x2="298.400000" y2="62.000000"  style="stroke:black; stroke-linecap:round; stroke-width:0.25;"/>
<line x1="302.400000" y1="62.000000" x2="306.400000" y2="62.000000"  style="stroke:black; stroke-linecap:round; stroke-width:0.25;"/>
<line x1="306.400000" y1="62.000000" x2="316.400000" y2="62.000000"  style="stroke:black; stroke-linecap:round; stroke-width:0.25;"/>
</svg>
