<?xml version="1.0"?>
<svg xmlns="http://www.w3.org/2000/svg" xmlns:xlink="http://www.w3.org/1999/xlink" viewBox="0 0 336.500000 232.000000" width="168.250000mm" height="116.000000mm" version="1.1">
<a xlink:href="movingAverageRMS-0x60000d46ba80.svg">
<rect x="0.000000" y="0.000000" width="335.500000" height="231.000000" rx="0" ry="0" style="stroke:#000000;fill:#FFFFFF;"/>
</a>
<text x="10.000000" y="7.000000" font-family="Verdana" font-size="7"></text>
<rect x="44.000000" y="24.000000" width="38.700000" height="24.000000" rx="0" ry="0" style="stroke:#000000;fill:#FFFFFF;"/>
<text x="63.350000" y="38.000000" font-family="Verdana" font-size="7" text-anchor="middle" fill="#000000">[295] x</text>
<circle cx="46.000000" cy="26.000000" r="1"/>
<rect x="51.350000" y="56.000000" width="24.000000" height="24.000000" rx="0" ry="0" style="stroke:#000000;fill:#FFFFFF;"/>
<text x="63.350000" y="70.000000" font-family="Verdana" font-size="7" text-anchor="middle" fill="#000000">2</text>
<circle cx="53.350000" cy="58.000000" r="1"/>
<rect x="98.700000" y="40.000000" width="24.000000" height="24.000000" rx="0" ry="0" style="stroke:#000000;fill:#FFFFFF;"/>
<text x="110.700000" y="54.000000" font-family="Verdana" font-size="7" text-anchor="middle" fill="#000000">pow</text>
<circle cx="100.700000" cy="42.000000" r="1"/>
<line x1="95.700000" y1="47.000000" x2="98.700000" y2="48.000000"  transform="rotate(0.000000,98.700000,48.000000)" style="stroke: black; stroke-width:0.25;"/>
<line x1="95.700000" y1="49.000000" x2="98.700000" y2="48.000000"  transform="rotate(0.000000,98.700000,48.000000)" style="stroke: black; stroke-width:0.25;"/>
<line x1="95.700000" y1="55.000000" x2="98.700000" y2="56.000000"  transform="rotate(0.000000,98.700000,56.000000)" style="stroke: black; stroke-width:0.25;"/>
<line x1="95.700000" y1="57.000000" x2="98.700000" y2="56.000000"  transform="rotate(0.000000,98.700000,56.000000)" style="stroke: black; stroke-width:0.25;"/>
<rect x="24.000000" y="88.000000" width="38.700000" height="24.000000" rx="0" ry="0" style="stroke:#000000;fill:#FFFFFF;"/>
<text x="43.350000" y="102.000000" font-family="Verdana" font-size="7" text-anchor="middle" fill="#000000">[295] x</text>
<circle cx="26.000000" cy="90.000000" r="1"/>
<rect x="31.350000" y="120.000000" width="24.000000" height="24.000000" rx="0" ry="0" style="stroke:#000000;fill:#FFFFFF;"/>
<text x="43.350000" y="134.000000" font-family="Verdana" font-size="7" text-anchor="middle" fill="#000000">2</text>
<circle cx="33.350000" cy="122.000000" r="1"/>
<rect x="78.700000" y="104.000000" width="24.000000" height="24.000000" rx="0" ry="0" style="stroke:#000000;fill:#FFFFFF;"/>
<text x="90.700000" y="118.000000" font-family="Verdana" font-size="7" text-anchor="middle" fill="#000000">pow</text>
<circle cx="80.700000" cy="106.000000" r="1"/>
<line x1="75.700000" y1="111.000000" x2="78.700000" y2="112.000000"  transform="rotate(0.000000,78.700000,112.000000)" style="stroke: black; stroke-width:0.25;"/>
<line x1="75.700000" y1="113.000000" x2="78.700000" y2="112.000000"  transform="rotate(0.000000,78.700000,112.000000)" style="stroke: black; stroke-width:0.25;"/>
<line x1="75.700000" y1="119.000000" x2="78.700000" y2="120.000000"  transform="rotate(0.000000,78.700000,120.000000)" style="stroke: black; stroke-width:0.25;"/>
<line x1="75.700000" y1="121.000000" x2="78.700000" y2="120.000000"  transform="rotate(0.000000,78.700000,120.000000)" style="stroke: black; stroke-width:0.25;"/>
<rect x="30.450000" y="152.000000" width="25.800000" height="24.000000" rx="0" ry="0" style="stroke:#000000;fill:#FFFFFF;"/>
<text x="43.350000" y="166.000000" font-family="Verdana" font-size="7" text-anchor="middle" fill="#000000">0.5f</text>
<circle cx="32.450000" cy="154.000000" r="1"/>
<a xlink:href="SR-0x6000017c2e20.svg">
<rect x="31.350000" y="184.000000" width="24.000000" height="24.000000" rx="0" ry="0" style="stroke:#000000;fill:#FFFFFF;"/>
</a>
<a xlink:href="SR-0x6000017c2e20.svg">
<text x="43.350000" y="198.000000" font-family="Verdana" font-size="7" text-anchor="middle" fill="#000000">SR</text>
</a>
<circle cx="33.350000" cy="186.000000" r="1"/>
<rect x="72.250000" y="168.000000" width="24.000000" height="24.000000" rx="0" ry="0" style="stroke:#000000;fill:#FFFFFF;"/>
<text x="84.250000" y="182.000000" font-family="Verdana" font-size="7" text-anchor="middle" fill="#000000">*</text>
<circle cx="74.250000" cy="170.000000" r="1"/>
<line x1="69.250000" y1="175.000000" x2="72.250000" y2="176.000000"  transform="rotate(0.000000,72.250000,176.000000)" style="stroke: black; stroke-width:0.25;"/>
<line x1="69.250000" y1="177.000000" x2="72.250000" y2="176.000000"  transform="rotate(0.000000,72.250000,176.000000)" style="stroke: black; stroke-width:0.25;"/>
<line x1="69.250000" y1="183.000000" x2="72.250000" y2="184.000000"  transform="rotate(0.000000,72.250000,184.000000)" style="stroke: black; stroke-width:0.25;"/>
<line x1="69.250000" y1="185.000000" x2="72.250000" y2="184.000000"  transform="rotate(0.000000,72.250000,184.000000)" style="stroke: black; stroke-width:0.25;"/>
<rect x="118.700000" y="136.000000" width="24.000000" height="24.000000" rx="0" ry="0" style="stroke:#000000;fill:#FFFFFF;"/>
<text x="130.700000" y="150.000000" font-family="Verdana" font-size="7" text-anchor="middle" fill="#000000">@</text>
<circle cx="120.700000" cy="138.000000" r="1"/>
<line x1="115.700000" y1="143.000000" x2="118.700000" y2="144.000000"  transform="rotate(0.000000,118.700000,144.000000)" style="stroke: black; stroke-width:0.25;"/>
<line x1="115.700000" y1="145.000000" x2="118.700000" y2="144.000000"  transform="rotate(0.000000,118.700000,144.000000)" style="stroke: black; stroke-width:0.25;"/>
<line x1="115.700000" y1="151.000000" x2="118.700000" y2="152.000000"  transform="rotate(0.000000,118.700000,152.000000)" style="stroke: black; stroke-width:0.25;"/>
<line x1="115.700000" y1="153.000000" x2="118.700000" y2="152.000000"  transform="rotate(0.000000,118.700000,152.000000)" style="stroke: black; stroke-width:0.25;"/>
<rect x="158.700000" y="104.000000" width="24.000000" height="24.000000" rx="0" ry="0" style="stroke:#000000;fill:#FFFFFF;"/>
<text x="170.700000" y="118.000000" font-family="Verdana" font-size="7" text-anchor="middle" fill="#000000">-</text>
<circle cx="160.700000" cy="106.000000" r="1"/>
<line x1="155.700000" y1="111.000000" x2="158.700000" y2="112.000000"  transform="rotate(0.000000,158.700000,112.000000)" style="stroke: black; stroke-width:0.25;"/>
<line x1="155.700000" y1="113.000000" x2="158.700000" y2="112.000000"  transform="rotate(0.000000,158.700000,112.000000)" style="stroke: black; stroke-width:0.25;"/>
<line x1="155.700000" y1="119.000000" x2="158.700000" y2="120.000000"  transform="rotate(0.000000,158.700000,120.000000)" style="stroke: black; stroke-width:0.25;"/>
<line x1="155.700000" y1="121.000000" x2="158.700000" y2="120.000000"  transform="rotate(0.000000,158.700000,120.000000)" style="stroke: black; stroke-width:0.25;"/>
<a xlink:href="pole-0x6000056bcd80.svg">
<rect x="212.250000" y="72.000000" width="38.700000" height="24.000000" rx="0" ry="0" style="stroke:#000000;fill:#FFFFFF;"/>
</a>
<a xlink:href="pole-0x6000056bcd80.svg">
<text x="231.600000" y="86.000000" font-family="Verdana" font-size="7" text-anchor="middle" fill="#000000">pole(1)</text>
</a>
<circle cx="214.250000" cy="74.000000" r="1"/>
<line x1="209.250000" y1="83.000000" x2="212.250000" y2="84.000000"  transform="rotate(0.000000,212.250000,84.000000)" style="stroke: black; stroke-width:0.25;"/>
<line x1="209.250000" y1="85.000000" x2="212.250000" y2="84.000000"  transform="rotate(0.000000,212.250000,84.000000)" style="stroke: black; stroke-width:0.25;"/>
<rect x="198.700000" y="104.000000" width="25.800000" height="24.000000" rx="0" ry="0" style="stroke:#000000;fill:#FFFFFF;"/>
<text x="211.600000" y="118.000000" font-family="Verdana" font-size="7" text-anchor="middle" fill="#000000">0.5f</text>
<circle cx="200.700000" cy="106.000000" r="1"/>
<a xlink:href="SR-0x6000017c2e20.svg">
<rect x="199.600000" y="136.000000" width="24.000000" height="24.000000" rx="0" ry="0" style="stroke:#000000;fill:#FFFFFF;"/>
</a>
<a xlink:href="SR-0x6000017c2e20.svg">
<text x="211.600000" y="150.000000" font-family="Verdana" font-size="7" text-anchor="middle" fill="#000000">SR</text>
</a>
<circle cx="201.600000" cy="138.000000" r="1"/>
<rect x="240.500000" y="120.000000" width="24.000000" height="24.000000" rx="0" ry="0" style="stroke:#000000;fill:#FFFFFF;"/>
<text x="252.500000" y="134.000000" font-family="Verdana" font-size="7" text-anchor="middle" fill="#000000">*</text>
<circle cx="242.500000" cy="122.000000" r="1"/>
<line x1="237.500000" y1="127.000000" x2="240.500000" y2="128.000000"  transform="rotate(0.000000,240.500000,128.000000)" style="stroke: black; stroke-width:0.25;"/>
<line x1="237.500000" y1="129.000000" x2="240.500000" y2="128.000000"  transform="rotate(0.000000,240.500000,128.000000)" style="stroke: black; stroke-width:0.25;"/>
<line x1="237.500000" y1="135.000000" x2="240.500000" y2="136.000000"  transform="rotate(0.000000,240.500000,136.000000)" style="stroke: black; stroke-width:0.25;"/>
<line x1="237.500000" y1="137.000000" x2="240.500000" y2="136.000000"  transform="rotate(0.000000,240.500000,136.000000)" style="stroke: black; stroke-width:0.25;"/>
<rect x="280.500000" y="104.000000" width="24.000000" height="24.000000" rx="0" ry="0" style="stroke:#000000;fill:#FFFFFF;"/>
<text x="292.500000" y="118.000000" font-family="Verdana" font-size="7" text-anchor="middle" fill="#000000">/</text>
<circle cx="282.500000" cy="106.000000" r="1"/>
<line x1="277.500000" y1="111.000000" x2="280.500000" y2="112.000000"  transform="rotate(0.000000,280.500000,112.000000)" style="stroke: black; stroke-width:0.25;"/>
<line x1="277.500000" y1="113.000000" x2="280.500000" y2="112.000000"  transform="rotate(0.000000,280.500000,112.000000)" style="stroke: black; stroke-width:0.25;"/>
<line x1="277.500000" y1="119.000000" x2="280.500000" y2="120.000000"  transform="rotate(0.000000,280.500000,120.000000)" style="stroke: black; stroke-width:0.25;"/>
<line x1="277.500000" y1="121.000000" x2="280.500000" y2="120.000000"  transform="rotate(0.000000,280.500000,120.000000)" style="stroke: black; stroke-width:0.25;"/>
<line x1="15.000000" y1="15.000000" x2="15.000000" y2="217.000000"  style="stroke: black; stroke-linecap:round; stroke-width:0.25; stroke-dasharray:3,3;"/>
<line x1="15.000000" y1="217.000000" x2="321.500000" y2="217.000000"  style="stroke: black; stroke-linecap:round; stroke-width:0.25; stroke-dasharray:3,3;"/>
<line x1="321.500000" y1="217.000000" x2="321.500000" y2="15.000000"  style="stroke: black; stroke-linecap:round; stroke-width:0.25; stroke-dasharray:3,3;"/>
<line x1="15.000000" y1="15.000000" x2="20.000000" y2="15.000000"  style="stroke: black; stroke-linecap:round; stroke-width:0.25; stroke-dasharray:3,3;"/>
<line x1="132.875000" y1="15.000000" x2="321.500000" y2="15.000000"  style="stroke: black; stroke-linecap:round; stroke-width:0.25; stroke-dasharray:3,3;"/>
<text x="20.000000" y="17.000000" font-family="Verdana" font-size="7">movingAverage(0.5f)(x295,2 : pow)</text>
<line x1="323.500000" y1="115.000000" x2="326.500000" y2="116.000000"  transform="rotate(0.000000,326.500000,116.000000)" style="stroke: black; stroke-width:0.25;"/>
<line x1="323.500000" y1="117.000000" x2="326.500000" y2="116.000000"  transform="rotate(0.000000,326.500000,116.000000)" style="stroke: black; stroke-width:0.25;"/>
<line x1="55.350000" y1="132.000000" x2="59.350000" y2="132.000000"  style="stroke:black; stroke-linecap:round; stroke-width:0.25;"/>
<line x1="55.350000" y1="196.000000" x2="59.350000" y2="196.000000"  style="stroke:black; stroke-linecap:round; stroke-width:0.25;"/>
<line x1="56.250000" y1="164.000000" x2="60.250000" y2="164.000000"  style="stroke:black; stroke-linecap:round; stroke-width:0.25;"/>
<line x1="59.350000" y1="132.000000" x2="66.700000" y2="132.000000"  style="stroke:black; stroke-linecap:round; stroke-width:0.25;"/>
<line x1="59.350000" y1="196.000000" x2="60.250000" y2="196.000000"  style="stroke:black; stroke-linecap:round; stroke-width:0.25;"/>
<line x1="60.250000" y1="164.000000" x2="68.250000" y2="164.000000"  style="stroke:black; stroke-linecap:round; stroke-width:0.25;"/>
<line x1="60.250000" y1="184.000000" x2="68.250000" y2="184.000000"  style="stroke:black; stroke-linecap:round; stroke-width:0.25;"/>
<line x1="60.250000" y1="196.000000" x2="60.250000" y2="184.000000"  style="stroke:black; stroke-linecap:round; stroke-width:0.25;"/>
<line x1="60.250000" y1="196.000000" x2="60.250000" y2="196.000000"  style="stroke:black; stroke-linecap:round; stroke-width:0.25;"/>
<line x1="62.700000" y1="100.000000" x2="66.700000" y2="100.000000"  style="stroke:black; stroke-linecap:round; stroke-width:0.25;"/>
<line x1="66.700000" y1="100.000000" x2="74.700000" y2="100.000000"  style="stroke:black; stroke-linecap:round; stroke-width:0.25;"/>
<line x1="66.700000" y1="120.000000" x2="74.700000" y2="120.000000"  style="stroke:black; stroke-linecap:round; stroke-width:0.25;"/>
<line x1="66.700000" y1="132.000000" x2="66.700000" y2="120.000000"  style="stroke:black; stroke-linecap:round; stroke-width:0.25;"/>
<line x1="66.700000" y1="132.000000" x2="66.700000" y2="132.000000"  style="stroke:black; stroke-linecap:round; stroke-width:0.25;"/>
<line x1="68.250000" y1="164.000000" x2="68.250000" y2="176.000000"  style="stroke:black; stroke-linecap:round; stroke-width:0.25;"/>
<line x1="68.250000" y1="176.000000" x2="68.250000" y2="176.000000"  style="stroke:black; stroke-linecap:round; stroke-width:0.25;"/>
<line x1="68.250000" y1="176.000000" x2="72.250000" y2="176.000000"  style="stroke:black; stroke-linecap:round; stroke-width:0.25;"/>
<line x1="68.250000" y1="184.000000" x2="72.250000" y2="184.000000"  style="stroke:black; stroke-linecap:round; stroke-width:0.25;"/>
<line x1="74.700000" y1="100.000000" x2="74.700000" y2="112.000000"  style="stroke:black; stroke-linecap:round; stroke-width:0.25;"/>
<line x1="74.700000" y1="112.000000" x2="74.700000" y2="112.000000"  style="stroke:black; stroke-linecap:round; stroke-width:0.25;"/>
<line x1="74.700000" y1="112.000000" x2="78.700000" y2="112.000000"  style="stroke:black; stroke-linecap:round; stroke-width:0.25;"/>
<line x1="74.700000" y1="120.000000" x2="78.700000" y2="120.000000"  style="stroke:black; stroke-linecap:round; stroke-width:0.25;"/>
<line x1="75.350000" y1="68.000000" x2="79.350000" y2="68.000000"  style="stroke:black; stroke-linecap:round; stroke-width:0.25;"/>
<line x1="79.350000" y1="68.000000" x2="86.700000" y2="68.000000"  style="stroke:black; stroke-linecap:round; stroke-width:0.25;"/>
<line x1="82.700000" y1="36.000000" x2="86.700000" y2="36.000000"  style="stroke:black; stroke-linecap:round; stroke-width:0.25;"/>
<line x1="86.700000" y1="36.000000" x2="94.700000" y2="36.000000"  style="stroke:black; stroke-linecap:round; stroke-width:0.25;"/>
<line x1="86.700000" y1="56.000000" x2="94.700000" y2="56.000000"  style="stroke:black; stroke-linecap:round; stroke-width:0.25;"/>
<line x1="86.700000" y1="68.000000" x2="86.700000" y2="56.000000"  style="stroke:black; stroke-linecap:round; stroke-width:0.25;"/>
<line x1="86.700000" y1="68.000000" x2="86.700000" y2="68.000000"  style="stroke:black; stroke-linecap:round; stroke-width:0.25;"/>
<line x1="94.700000" y1="36.000000" x2="94.700000" y2="48.000000"  style="stroke:black; stroke-linecap:round; stroke-width:0.25;"/>
<line x1="94.700000" y1="48.000000" x2="94.700000" y2="48.000000"  style="stroke:black; stroke-linecap:round; stroke-width:0.25;"/>
<line x1="94.700000" y1="48.000000" x2="98.700000" y2="48.000000"  style="stroke:black; stroke-linecap:round; stroke-width:0.25;"/>
<line x1="94.700000" y1="56.000000" x2="98.700000" y2="56.000000"  style="stroke:black; stroke-linecap:round; stroke-width:0.25;"/>
<line x1="96.250000" y1="180.000000" x2="100.250000" y2="180.000000"  style="stroke:black; stroke-linecap:round; stroke-width:0.25;"/>
<line x1="100.250000" y1="180.000000" x2="106.700000" y2="180.000000"  style="stroke:black; stroke-linecap:round; stroke-width:0.25;"/>
<line x1="102.700000" y1="116.000000" x2="106.700000" y2="116.000000"  style="stroke:black; stroke-linecap:round; stroke-width:0.25;"/>
<line x1="106.700000" y1="116.000000" x2="114.700000" y2="116.000000"  style="stroke:black; stroke-linecap:round; stroke-width:0.25;"/>
<line x1="106.700000" y1="152.000000" x2="114.700000" y2="152.000000"  style="stroke:black; stroke-linecap:round; stroke-width:0.25;"/>
<line x1="106.700000" y1="180.000000" x2="106.700000" y2="152.000000"  style="stroke:black; stroke-linecap:round; stroke-width:0.25;"/>
<line x1="106.700000" y1="180.000000" x2="106.700000" y2="180.000000"  style="stroke:black; stroke-linecap:round; stroke-width:0.25;"/>
<line x1="114.700000" y1="116.000000" x2="114.700000" y2="144.000000"  style="stroke:black; stroke-linecap:round; stroke-width:0.25;"/>
<line x1="114.700000" y1="144.000000" x2="114.700000" y2="144.000000"  style="stroke:black; stroke-linecap:round; stroke-width:0.25;"/>
<line x1="114.700000" y1="144.000000" x2="118.700000" y2="144.000000"  style="stroke:black; stroke-linecap:round; stroke-width:0.25;"/>
<line x1="114.700000" y1="152.000000" x2="118.700000" y2="152.000000"  style="stroke:black; stroke-linecap:round; stroke-width:0.25;"/>
<line x1="122.700000" y1="52.000000" x2="126.700000" y2="52.000000"  style="stroke:black; stroke-linecap:round; stroke-width:0.25;"/>
<line x1="126.700000" y1="52.000000" x2="146.700000" y2="52.000000"  style="stroke:black; stroke-linecap:round; stroke-width:0.25;"/>
<line x1="142.700000" y1="148.000000" x2="146.700000" y2="148.000000"  style="stroke:black; stroke-linecap:round; stroke-width:0.25;"/>
<line x1="146.700000" y1="52.000000" x2="154.700000" y2="52.000000"  style="stroke:black; stroke-linecap:round; stroke-width:0.25;"/>
<line x1="146.700000" y1="120.000000" x2="154.700000" y2="120.000000"  style="stroke:black; stroke-linecap:round; stroke-width:0.25;"/>
<line x1="146.700000" y1="148.000000" x2="146.700000" y2="120.000000"  style="stroke:black; stroke-linecap:round; stroke-width:0.25;"/>
<line x1="146.700000" y1="148.000000" x2="146.700000" y2="148.000000"  style="stroke:black; stroke-linecap:round; stroke-width:0.25;"/>
<line x1="154.700000" y1="52.000000" x2="154.700000" y2="112.000000"  style="stroke:black; stroke-linecap:round; stroke-width:0.25;"/>
<line x1="154.700000" y1="112.000000" x2="154.700000" y2="112.000000"  style="stroke:black; stroke-linecap:round; stroke-width:0.25;"/>
<line x1="154.700000" y1="112.000000" x2="158.700000" y2="112.000000"  style="stroke:black; stroke-linecap:round; stroke-width:0.25;"/>
<line x1="154.700000" y1="120.000000" x2="158.700000" y2="120.000000"  style="stroke:black; stroke-linecap:round; stroke-width:0.25;"/>
<line x1="182.700000" y1="116.000000" x2="186.700000" y2="116.000000"  style="stroke:black; stroke-linecap:round; stroke-width:0.25;"/>
<line x1="186.700000" y1="84.000000" x2="194.700000" y2="84.000000"  style="stroke:black; stroke-linecap:round; stroke-width:0.25;"/>
<line x1="186.700000" y1="116.000000" x2="186.700000" y2="84.000000"  style="stroke:black; stroke-linecap:round; stroke-width:0.25;"/>
<line x1="186.700000" y1="116.000000" x2="186.700000" y2="116.000000"  style="stroke:black; stroke-linecap:round; stroke-width:0.25;"/>
<line x1="194.700000" y1="84.000000" x2="208.250000" y2="84.000000"  style="stroke:black; stroke-linecap:round; stroke-width:0.25;"/>
<line x1="208.250000" y1="84.000000" x2="212.250000" y2="84.000000"  style="stroke:black; stroke-linecap:round; stroke-width:0.25;"/>
<line x1="223.600000" y1="148.000000" x2="227.600000" y2="148.000000"  style="stroke:black; stroke-linecap:round; stroke-width:0.25;"/>
<line x1="224.500000" y1="116.000000" x2="228.500000" y2="116.000000"  style="stroke:black; stroke-linecap:round; stroke-width:0.25;"/>
<line x1="227.600000" y1="148.000000" x2="228.500000" y2="148.000000"  style="stroke:black; stroke-linecap:round; stroke-width:0.25;"/>
<line x1="228.500000" y1="116.000000" x2="236.500000" y2="116.000000"  style="stroke:black; stroke-linecap:round; stroke-width:0.25;"/>
<line x1="228.500000" y1="136.000000" x2="236.500000" y2="136.000000"  style="stroke:black; stroke-linecap:round; stroke-width:0.25;"/>
<line x1="228.500000" y1="148.000000" x2="228.500000" y2="136.000000"  style="stroke:black; stroke-linecap:round; stroke-width:0.25;"/>
<line x1="228.500000" y1="148.000000" x2="228.500000" y2="148.000000"  style="stroke:black; stroke-linecap:round; stroke-width:0.25;"/>
<line x1="236.500000" y1="116.000000" x2="236.500000" y2="128.000000"  style="stroke:black; stroke-linecap:round; stroke-width:0.25;"/>
<line x1="236.500000" y1="128.000000" x2="236.500000" y2="128.000000"  style="stroke:black; stroke-linecap:round; stroke-width:0.25;"/>
<line x1="236.500000" y1="128.000000" x2="240.500000" y2="128.000000"  style="stroke:black; stroke-linecap:round; stroke-width:0.25;"/>
<line x1="236.500000" y1="136.000000" x2="240.500000" y2="136.000000"  style="stroke:black; stroke-linecap:round; stroke-width:0.25;"/>
<line x1="250.950000" y1="84.000000" x2="254.950000" y2="84.000000"  style="stroke:black; stroke-linecap:round; stroke-width:0.25;"/>
<line x1="254.950000" y1="84.000000" x2="268.500000" y2="84.000000"  style="stroke:black; stroke-linecap:round; stroke-width:0.25;"/>
<line x1="264.500000" y1="132.000000" x2="268.500000" y2="132.000000"  style="stroke:black; stroke-linecap:round; stroke-width:0.25;"/>
<line x1="268.500000" y1="84.000000" x2="276.500000" y2="84.000000"  style="stroke:black; stroke-linecap:round; stroke-width:0.25;"/>
<line x1="268.500000" y1="120.000000" x2="276.500000" y2="120.000000"  style="stroke:black; stroke-linecap:round; stroke-width:0.25;"/>
<line x1="268.500000" y1="132.000000" x2="268.500000" y2="120.000000"  style="stroke:black; stroke-linecap:round; stroke-width:0.25;"/>
<line x1="268.500000" y1="132.000000" x2="268.500000" y2="132.000000"  style="stroke:black; stroke-linecap:round; stroke-width:0.25;"/>
<line x1="276.500000" y1="84.000000" x2="276.500000" y2="112.000000"  style="stroke:black; stroke-linecap:round; stroke-width:0.25;"/>
<line x1="276.500000" y1="112.000000" x2="276.500000" y2="112.000000"  style="stroke:black; stroke-linecap:round; stroke-width:0.25;"/>
<line x1="276.500000" y1="112.000000" x2="280.500000" y2="112.000000"  style="stroke:black; stroke-linecap:round; stroke-width:0.25;"/>
<line x1="276.500000" y1="120.000000" x2="280.500000" y2="120.000000"  style="stroke:black; stroke-linecap:round; stroke-width:0.25;"/>
<line x1="304.500000" y1="116.000000" x2="308.500000" y2="116.000000"  style="stroke:black; stroke-linecap:round; stroke-width:0.25;"/>
<line x1="308.500000" y1="116.000000" x2="308.500000" y2="116.000000"  style="stroke:black; stroke-linecap:round; stroke-width:0.25;"/>
<line x1="308.500000" y1="116.000000" x2="312.500000" y2="116.000000"  style="stroke:black; stroke-linecap:round; stroke-width:0.25;"/>
<line x1="312.500000" y1="116.000000" x2="316.500000" y2="116.000000"  style="stroke:black; stroke-linecap:round; stroke-width:0.25;"/>
<line x1="316.500000" y1="116.000000" x2="326.500000" y2="116.000000"  style="stroke:black; stroke-linecap:round; stroke-width:0.25;"/>
</svg>
