<?xml version="1.0"?>
<svg xmlns="http://www.w3.org/2000/svg" xmlns:xlink="http://www.w3.org/1999/xlink" viewBox="0 0 335.200000 200.000000" width="167.600000mm" height="100.000000mm" version="1.1">
<a xlink:href="movingAverageRMS-0x60002175d200.svg">
<rect x="0.000000" y="0.000000" width="334.200000" height="199.000000" rx="0" ry="0" style="stroke:#000000;fill:#FFFFFF;"/>
</a>
<text x="10.000000" y="7.000000" font-family="Verdana" font-size="7"></text>
<rect x="44.000000" y="24.000000" width="38.700000" height="24.000000" rx="0" ry="0" style="stroke:#000000;fill:#FFFFFF;"/>
<text x="63.350000" y="38.000000" font-family="Verdana" font-size="7" text-anchor="middle" fill="#000000">[810] x</text>
<circle cx="46.000000" cy="26.000000" r="1"/>
<rect x="51.350000" y="56.000000" width="24.000000" height="24.000000" rx="0" ry="0" style="stroke:#000000;fill:#FFFFFF;"/>
<text x="63.350000" y="70.000000" font-family="Verdana" font-size="7" text-anchor="middle" fill="#000000">2</text>
<circle cx="53.350000" cy="58.000000" r="1"/>
<rect x="98.700000" y="40.000000" width="24.000000" height="24.000000" rx="0" ry="0" style="stroke:#000000;fill:#FFFFFF;"/>
<text x="110.700000" y="54.000000" font-family="Verdana" font-size="7" text-anchor="middle" fill="#000000">pow</text>
<circle cx="100.700000" cy="42.000000" r="1"/>
<line x1="95.700000" y1="47.000000" x2="98.700000" y2="48.000000"  transform="rotate(0.000000,98.700000,48.000000)" style="stroke: black; stroke-width:0.25;"/>
<line x1="95.700000" y1="49.000000" x2="98.700000" y2="48.000000"  transform="rotate(0.000000,98.700000,48.000000)" style="stroke: black; stroke-width:0.25;"/>
<line x1="95.700000" y1="55.000000" x2="98.700000" y2="56.000000"  transform="rotate(0.000000,98.700000,56.000000)" style="stroke: black; stroke-width:0.25;"/>
<line x1="95.700000" y1="57.000000" x2="98.700000" y2="56.000000"  transform="rotate(0.000000,98.700000,56.000000)" style="stroke: black; stroke-width:0.25;"/>
<rect x="24.000000" y="88.000000" width="38.700000" height="24.000000" rx="0" ry="0" style="stroke:#000000;fill:#FFFFFF;"/>
<text x="43.350000" y="102.000000" font-family="Verdana" font-size="7" text-anchor="middle" fill="#000000">[810] x</text>
<circle cx="26.000000" cy="90.000000" r="1"/>
<rect x="31.350000" y="120.000000" width="24.000000" height="24.000000" rx="0" ry="0" style="stroke:#000000;fill:#FFFFFF;"/>
<text x="43.350000" y="134.000000" font-family="Verdana" font-size="7" text-anchor="middle" fill="#000000">2</text>
<circle cx="33.350000" cy="122.000000" r="1"/>
<rect x="78.700000" y="104.000000" width="24.000000" height="24.000000" rx="0" ry="0" style="stroke:#000000;fill:#FFFFFF;"/>
<text x="90.700000" y="118.000000" font-family="Verdana" font-size="7" text-anchor="middle" fill="#000000">pow</text>
<circle cx="80.700000" cy="106.000000" r="1"/>
<line x1="75.700000" y1="111.000000" x2="78.700000" y2="112.000000"  transform="rotate(0.000000,78.700000,112.000000)" style="stroke: black; stroke-width:0.25;"/>
<line x1="75.700000" y1="113.000000" x2="78.700000" y2="112.000000"  transform="rotate(0.000000,78.700000,112.000000)" style="stroke: black; stroke-width:0.25;"/>
<line x1="75.700000" y1="119.000000" x2="78.700000" y2="120.000000"  transform="rotate(0.000000,78.700000,120.000000)" style="stroke: black; stroke-width:0.25;"/>
<line x1="75.700000" y1="121.000000" x2="78.700000" y2="120.000000"  transform="rotate(0.000000,78.700000,120.000000)" style="stroke: black; stroke-width:0.25;"/>
<a xlink:href="sec2samp-0x600005434cf0.svg">
<rect x="31.100000" y="152.000000" width="64.500000" height="24.000000" rx="0" ry="0" style="stroke:#000000;fill:#FFFFFF;"/>
</a>
<a xlink:href="sec2samp-0x600005434cf0.svg">
<text x="63.350000" y="166.000000" font-family="Verdana" font-size="7" text-anchor="middle" fill="#000000">sec2samp(0.1f)</text>
</a>
<circle cx="33.100000" cy="154.000000" r="1"/>
<rect x="118.700000" y="120.000000" width="24.000000" height="24.000000" rx="0" ry="0" style="stroke:#000000;fill:#FFFFFF;"/>
<text x="130.700000" y="134.000000" font-family="Verdana" font-size="7" text-anchor="middle" fill="#000000">@</text>
<circle cx="120.700000" cy="122.000000" r="1"/>
<line x1="115.700000" y1="127.000000" x2="118.700000" y2="128.000000"  transform="rotate(0.000000,118.700000,128.000000)" style="stroke: black; stroke-width:0.25;"/>
<line x1="115.700000" y1="129.000000" x2="118.700000" y2="128.000000"  transform="rotate(0.000000,118.700000,128.000000)" style="stroke: black; stroke-width:0.25;"/>
<line x1="115.700000" y1="135.000000" x2="118.700000" y2="136.000000"  transform="rotate(0.000000,118.700000,136.000000)" style="stroke: black; stroke-width:0.25;"/>
<line x1="115.700000" y1="137.000000" x2="118.700000" y2="136.000000"  transform="rotate(0.000000,118.700000,136.000000)" style="stroke: black; stroke-width:0.25;"/>
<rect x="158.700000" y="88.000000" width="24.000000" height="24.000000" rx="0" ry="0" style="stroke:#000000;fill:#FFFFFF;"/>
<text x="170.700000" y="102.000000" font-family="Verdana" font-size="7" text-anchor="middle" fill="#000000">-</text>
<circle cx="160.700000" cy="90.000000" r="1"/>
<line x1="155.700000" y1="95.000000" x2="158.700000" y2="96.000000"  transform="rotate(0.000000,158.700000,96.000000)" style="stroke: black; stroke-width:0.25;"/>
<line x1="155.700000" y1="97.000000" x2="158.700000" y2="96.000000"  transform="rotate(0.000000,158.700000,96.000000)" style="stroke: black; stroke-width:0.25;"/>
<line x1="155.700000" y1="103.000000" x2="158.700000" y2="104.000000"  transform="rotate(0.000000,158.700000,104.000000)" style="stroke: black; stroke-width:0.25;"/>
<line x1="155.700000" y1="105.000000" x2="158.700000" y2="104.000000"  transform="rotate(0.000000,158.700000,104.000000)" style="stroke: black; stroke-width:0.25;"/>
<a xlink:href="pole-0x6000056bcd80.svg">
<rect x="211.600000" y="72.000000" width="38.700000" height="24.000000" rx="0" ry="0" style="stroke:#000000;fill:#FFFFFF;"/>
</a>
<a xlink:href="pole-0x6000056bcd80.svg">
<text x="230.950000" y="86.000000" font-family="Verdana" font-size="7" text-anchor="middle" fill="#000000">pole(1)</text>
</a>
<circle cx="213.600000" cy="74.000000" r="1"/>
<line x1="208.600000" y1="83.000000" x2="211.600000" y2="84.000000"  transform="rotate(0.000000,211.600000,84.000000)" style="stroke: black; stroke-width:0.25;"/>
<line x1="208.600000" y1="85.000000" x2="211.600000" y2="84.000000"  transform="rotate(0.000000,211.600000,84.000000)" style="stroke: black; stroke-width:0.25;"/>
<a xlink:href="sec2samp-0x600005434cf0.svg">
<rect x="198.700000" y="104.000000" width="64.500000" height="24.000000" rx="0" ry="0" style="stroke:#000000;fill:#FFFFFF;"/>
</a>
<a xlink:href="sec2samp-0x600005434cf0.svg">
<text x="230.950000" y="118.000000" font-family="Verdana" font-size="7" text-anchor="middle" fill="#000000">sec2samp(0.1f)</text>
</a>
<circle cx="200.700000" cy="106.000000" r="1"/>
<rect x="279.200000" y="88.000000" width="24.000000" height="24.000000" rx="0" ry="0" style="stroke:#000000;fill:#FFFFFF;"/>
<text x="291.200000" y="102.000000" font-family="Verdana" font-size="7" text-anchor="middle" fill="#000000">/</text>
<circle cx="281.200000" cy="90.000000" r="1"/>
<line x1="276.200000" y1="95.000000" x2="279.200000" y2="96.000000"  transform="rotate(0.000000,279.200000,96.000000)" style="stroke: black; stroke-width:0.25;"/>
<line x1="276.200000" y1="97.000000" x2="279.200000" y2="96.000000"  transform="rotate(0.000000,279.200000,96.000000)" style="stroke: black; stroke-width:0.25;"/>
<line x1="276.200000" y1="103.000000" x2="279.200000" y2="104.000000"  transform="rotate(0.000000,279.200000,104.000000)" style="stroke: black; stroke-width:0.25;"/>
<line x1="276.200000" y1="105.000000" x2="279.200000" y2="104.000000"  transform="rotate(0.000000,279.200000,104.000000)" style="stroke: black; stroke-width:0.25;"/>
<line x1="15.000000" y1="15.000000" x2="15.000000" y2="185.000000"  style="stroke: black; stroke-linecap:round; stroke-width:0.25; stroke-dasharray:3,3;"/>
<line x1="15.000000" y1="185.000000" x2="320.200000" y2="185.000000"  style="stroke: black; stroke-linecap:round; stroke-width:0.25; stroke-dasharray:3,3;"/>
<line x1="320.200000" y1="185.000000" x2="320.200000" y2="15.000000"  style="stroke: black; stroke-linecap:round; stroke-width:0.25; stroke-dasharray:3,3;"/>
<line x1="15.000000" y1="15.000000" x2="20.000000" y2="15.000000"  style="stroke: black; stroke-linecap:round; stroke-width:0.25; stroke-dasharray:3,3;"/>
<line x1="132.875000" y1="15.000000" x2="320.200000" y2="15.000000"  style="stroke: black; stroke-linecap:round; stroke-width:0.25; stroke-dasharray:3,3;"/>
<text x="20.000000" y="17.000000" font-family="Verdana" font-size="7">movingAverage(0.1f)(x810,2 : pow)</text>
<line x1="322.200000" y1="99.000000" x2="325.200000" y2="100.000000"  transform="rotate(0.000000,325.200000,100.000000)" style="stroke: black; stroke-width:0.25;"/>
<line x1="322.200000" y1="101.000000" x2="325.200000" y2="100.000000"  transform="rotate(0.000000,325.200000,100.000000)" style="stroke: black; stroke-width:0.25;"/>
<line x1="55.350000" y1="132.000000" x2="59.350000" y2="132.000000"  style="stroke:black; stroke-linecap:round; stroke-width:0.25;"/>
<line x1="59.350000" y1="132.000000" x2="66.700000" y2="132.000000"  style="stroke:black; stroke-linecap:round; stroke-width:0.25;"/>
<line x1="62.700000" y1="100.000000" x2="66.700000" y2="100.000000"  style="stroke:black; stroke-linecap:round; stroke-width:0.25;"/>
<line x1="66.700000" y1="100.000000" x2="74.700000" y2="100.000000"  style="stroke:black; stroke-linecap:round; stroke-width:0.25;"/>
<line x1="66.700000" y1="120.000000" x2="74.700000" y2="120.000000"  style="stroke:black; stroke-linecap:round; stroke-width:0.25;"/>
<line x1="66.700000" y1="132.000000" x2="66.700000" y2="120.000000"  style="stroke:black; stroke-linecap:round; stroke-width:0.25;"/>
<line x1="66.700000" y1="132.000000" x2="66.700000" y2="132.000000"  style="stroke:black; stroke-linecap:round; stroke-width:0.25;"/>
<line x1="74.700000" y1="100.000000" x2="74.700000" y2="112.000000"  style="stroke:black; stroke-linecap:round; stroke-width:0.25;"/>
<line x1="74.700000" y1="112.000000" x2="74.700000" y2="112.000000"  style="stroke:black; stroke-linecap:round; stroke-width:0.25;"/>
<line x1="74.700000" y1="112.000000" x2="78.700000" y2="112.000000"  style="stroke:black; stroke-linecap:round; stroke-width:0.25;"/>
<line x1="74.700000" y1="120.000000" x2="78.700000" y2="120.000000"  style="stroke:black; stroke-linecap:round; stroke-width:0.25;"/>
<line x1="75.350000" y1="68.000000" x2="79.350000" y2="68.000000"  style="stroke:black; stroke-linecap:round; stroke-width:0.25;"/>
<line x1="79.350000" y1="68.000000" x2="86.700000" y2="68.000000"  style="stroke:black; stroke-linecap:round; stroke-width:0.25;"/>
<line x1="82.700000" y1="36.000000" x2="86.700000" y2="36.000000"  style="stroke:black; stroke-linecap:round; stroke-width:0.25;"/>
<line x1="86.700000" y1="36.000000" x2="94.700000" y2="36.000000"  style="stroke:black; stroke-linecap:round; stroke-width:0.25;"/>
<line x1="86.700000" y1="56.000000" x2="94.700000" y2="56.000000"  style="stroke:black; stroke-linecap:round; stroke-width:0.25;"/>
<line x1="86.700000" y1="68.000000" x2="86.700000" y2="56.000000"  style="stroke:black; stroke-linecap:round; stroke-width:0.25;"/>
<line x1="86.700000" y1="68.000000" x2="86.700000" y2="68.000000"  style="stroke:black; stroke-linecap:round; stroke-width:0.25;"/>
<line x1="94.700000" y1="36.000000" x2="94.700000" y2="48.000000"  style="stroke:black; stroke-linecap:round; stroke-width:0.25;"/>
<line x1="94.700000" y1="48.000000" x2="94.700000" y2="48.000000"  style="stroke:black; stroke-linecap:round; stroke-width:0.25;"/>
<line x1="94.700000" y1="48.000000" x2="98.700000" y2="48.000000"  style="stroke:black; stroke-linecap:round; stroke-width:0.25;"/>
<line x1="94.700000" y1="56.000000" x2="98.700000" y2="56.000000"  style="stroke:black; stroke-linecap:round; stroke-width:0.25;"/>
<line x1="95.600000" y1="164.000000" x2="99.600000" y2="164.000000"  style="stroke:black; stroke-linecap:round; stroke-width:0.25;"/>
<line x1="99.600000" y1="164.000000" x2="106.700000" y2="164.000000"  style="stroke:black; stroke-linecap:round; stroke-width:0.25;"/>
<line x1="102.700000" y1="116.000000" x2="106.700000" y2="116.000000"  style="stroke:black; stroke-linecap:round; stroke-width:0.25;"/>
<line x1="106.700000" y1="116.000000" x2="114.700000" y2="116.000000"  style="stroke:black; stroke-linecap:round; stroke-width:0.25;"/>
<line x1="106.700000" y1="136.000000" x2="114.700000" y2="136.000000"  style="stroke:black; stroke-linecap:round; stroke-width:0.25;"/>
<line x1="106.700000" y1="164.000000" x2="106.700000" y2="136.000000"  style="stroke:black; stroke-linecap:round; stroke-width:0.25;"/>
<line x1="106.700000" y1="164.000000" x2="106.700000" y2="164.000000"  style="stroke:black; stroke-linecap:round; stroke-width:0.25;"/>
<line x1="114.700000" y1="116.000000" x2="114.700000" y2="128.000000"  style="stroke:black; stroke-linecap:round; stroke-width:0.25;"/>
<line x1="114.700000" y1="128.000000" x2="114.700000" y2="128.000000"  style="stroke:black; stroke-linecap:round; stroke-width:0.25;"/>
<line x1="114.700000" y1="128.000000" x2="118.700000" y2="128.000000"  style="stroke:black; stroke-linecap:round; stroke-width:0.25;"/>
<line x1="114.700000" y1="136.000000" x2="118.700000" y2="136.000000"  style="stroke:black; stroke-linecap:round; stroke-width:0.25;"/>
<line x1="122.700000" y1="52.000000" x2="126.700000" y2="52.000000"  style="stroke:black; stroke-linecap:round; stroke-width:0.25;"/>
<line x1="126.700000" y1="52.000000" x2="146.700000" y2="52.000000"  style="stroke:black; stroke-linecap:round; stroke-width:0.25;"/>
<line x1="142.700000" y1="132.000000" x2="146.700000" y2="132.000000"  style="stroke:black; stroke-linecap:round; stroke-width:0.25;"/>
<line x1="146.700000" y1="52.000000" x2="154.700000" y2="52.000000"  style="stroke:black; stroke-linecap:round; stroke-width:0.25;"/>
<line x1="146.700000" y1="104.000000" x2="154.700000" y2="104.000000"  style="stroke:black; stroke-linecap:round; stroke-width:0.25;"/>
<line x1="146.700000" y1="132.000000" x2="146.700000" y2="104.000000"  style="stroke:black; stroke-linecap:round; stroke-width:0.25;"/>
<line x1="146.700000" y1="132.000000" x2="146.700000" y2="132.000000"  style="stroke:black; stroke-linecap:round; stroke-width:0.25;"/>
<line x1="154.700000" y1="52.000000" x2="154.700000" y2="96.000000"  style="stroke:black; stroke-linecap:round; stroke-width:0.25;"/>
<line x1="154.700000" y1="96.000000" x2="154.700000" y2="96.000000"  style="stroke:black; stroke-linecap:round; stroke-width:0.25;"/>
<line x1="154.700000" y1="96.000000" x2="158.700000" y2="96.000000"  style="stroke:black; stroke-linecap:round; stroke-width:0.25;"/>
<line x1="154.700000" y1="104.000000" x2="158.700000" y2="104.000000"  style="stroke:black; stroke-linecap:round; stroke-width:0.25;"/>
<line x1="182.700000" y1="100.000000" x2="186.700000" y2="100.000000"  style="stroke:black; stroke-linecap:round; stroke-width:0.25;"/>
<line x1="186.700000" y1="84.000000" x2="194.700000" y2="84.000000"  style="stroke:black; stroke-linecap:round; stroke-width:0.25;"/>
<line x1="186.700000" y1="100.000000" x2="186.700000" y2="84.000000"  style="stroke:black; stroke-linecap:round; stroke-width:0.25;"/>
<line x1="186.700000" y1="100.000000" x2="186.700000" y2="100.000000"  style="stroke:black; stroke-linecap:round; stroke-width:0.25;"/>
<line x1="194.700000" y1="84.000000" x2="207.600000" y2="84.000000"  style="stroke:black; stroke-linecap:round; stroke-width:0.25;"/>
<line x1="207.600000" y1="84.000000" x2="211.600000" y2="84.000000"  style="stroke:black; stroke-linecap:round; stroke-width:0.25;"/>
<line x1="250.300000" y1="84.000000" x2="254.300000" y2="84.000000"  style="stroke:black; stroke-linecap:round; stroke-width:0.25;"/>
<line x1="254.300000" y1="84.000000" x2="267.200000" y2="84.000000"  style="stroke:black; stroke-linecap:round; stroke-width:0.25;"/>
<line x1="263.200000" y1="116.000000" x2="267.200000" y2="116.000000"  style="stroke:black; stroke-linecap:round; stroke-width:0.25;"/>
<line x1="267.200000" y1="84.000000" x2="275.200000" y2="84.000000"  style="stroke:black; stroke-linecap:round; stroke-width:0.25;"/>
<line x1="267.200000" y1="104.000000" x2="275.200000" y2="104.000000"  style="stroke:black; stroke-linecap:round; stroke-width:0.25;"/>
<line x1="267.200000" y1="116.000000" x2="267.200000" y2="104.000000"  style="stroke:black; stroke-linecap:round; stroke-width:0.25;"/>
<line x1="267.200000" y1="116.000000" x2="267.200000" y2="116.000000"  style="stroke:black; stroke-linecap:round; stroke-width:0.25;"/>
<line x1="275.200000" y1="84.000000" x2="275.200000" y2="96.000000"  style="stroke:black; stroke-linecap:round; stroke-width:0.25;"/>
<line x1="275.200000" y1="96.000000" x2="275.200000" y2="96.000000"  style="stroke:black; stroke-linecap:round; stroke-width:0.25;"/>
<line x1="275.200000" y1="96.000000" x2="279.200000" y2="96.000000"  style="stroke:black; stroke-linecap:round; stroke-width:0.25;"/>
<line x1="275.200000" y1="104.000000" x2="279.200000" y2="104.000000"  style="stroke:black; stroke-linecap:round; stroke-width:0.25;"/>
<line x1="303.200000" y1="100.000000" x2="307.200000" y2="100.000000"  style="stroke:black; stroke-linecap:round; stroke-width:0.25;"/>
<line x1="307.200000" y1="100.000000" x2="307.200000" y2="100.000000"  style="stroke:black; stroke-linecap:round; stroke-width:0.25;"/>
<line x1="307.200000" y1="100.000000" x2="311.200000" y2="100.000000"  style="stroke:black; stroke-linecap:round; stroke-width:0.25;"/>
<line x1="311.200000" y1="100.000000" x2="315.200000" y2="100.000000"  style="stroke:black; stroke-linecap:round; stroke-width:0.25;"/>
<line x1="315.200000" y1="100.000000" x2="325.200000" y2="100.000000"  style="stroke:black; stroke-linecap:round; stroke-width:0.25;"/>
</svg>
