<?xml version="1.0"?>
<svg xmlns="http://www.w3.org/2000/svg" xmlns:xlink="http://www.w3.org/1999/xlink" viewBox="0 0 313.500000 124.000000" width="156.750000mm" height="62.000000mm" version="1.1">
<a xlink:href="gainReve2-0x6000056bd7a0.svg">
<rect x="0.000000" y="0.000000" width="312.500000" height="123.000000" rx="0" ry="0" style="stroke:#000000;fill:#FFFFFF;"/>
</a>
<text x="10.000000" y="7.000000" font-family="Verdana" font-size="7"></text>
<rect x="32.000000" y="50.000000" width="25.800000" height="24.000000" rx="0" ry="0" style="stroke:#000000;fill:#FFFFFF;"/>
<text x="44.900000" y="64.000000" font-family="Verdana" font-size="7" text-anchor="middle" fill="#000000">[19] x</text>
<circle cx="34.000000" cy="52.000000" r="1"/>
<line x1="29.000000" y1="61.000000" x2="32.000000" y2="62.000000"  transform="rotate(0.000000,32.000000,62.000000)" style="stroke: black; stroke-width:0.25;"/>
<line x1="29.000000" y1="63.000000" x2="32.000000" y2="62.000000"  transform="rotate(0.000000,32.000000,62.000000)" style="stroke: black; stroke-width:0.25;"/>
<rect x="124.750000" y="34.000000" width="24.000000" height="24.000000" rx="0" ry="0" style="stroke:#000000;fill:#FFFFFF;"/>
<text x="136.750000" y="48.000000" font-family="Verdana" font-size="7" text-anchor="middle" fill="#000000">0</text>
<circle cx="126.750000" cy="36.000000" r="1"/>
<line x1="115.750000" y1="25.000000" x2="115.750000" y2="67.000000"  style="stroke: black; stroke-linecap:round; stroke-width:0.25; stroke-dasharray:3,3;"/>
<line x1="115.750000" y1="67.000000" x2="157.750000" y2="67.000000"  style="stroke: black; stroke-linecap:round; stroke-width:0.25; stroke-dasharray:3,3;"/>
<line x1="157.750000" y1="67.000000" x2="157.750000" y2="25.000000"  style="stroke: black; stroke-linecap:round; stroke-width:0.25; stroke-dasharray:3,3;"/>
<line x1="115.750000" y1="25.000000" x2="120.750000" y2="25.000000"  style="stroke: black; stroke-linecap:round; stroke-width:0.25; stroke-dasharray:3,3;"/>
<line x1="140.100000" y1="25.000000" x2="157.750000" y2="25.000000"  style="stroke: black; stroke-linecap:round; stroke-width:0.25; stroke-dasharray:3,3;"/>
<text x="120.750000" y="27.000000" font-family="Verdana" font-size="7">SAFE</text>
<a xlink:href="movingAverage-0x6000056bd050.svg">
<rect x="65.800000" y="76.000000" width="141.900000" height="24.000000" rx="0" ry="0" style="stroke:#000000;fill:#FFFFFF;"/>
</a>
<a xlink:href="movingAverage-0x6000056bd050.svg">
<text x="136.750000" y="90.000000" font-family="Verdana" font-size="7" text-anchor="middle" fill="#000000">movingAverage(0.5f)(x19,2 : pow)</text>
</a>
<circle cx="67.800000" cy="78.000000" r="1"/>
<rect x="223.700000" y="50.000000" width="24.000000" height="24.000000" rx="0" ry="0" style="stroke:#000000;fill:#FFFFFF;"/>
<text x="235.700000" y="64.000000" font-family="Verdana" font-size="7" text-anchor="middle" fill="#000000">max</text>
<circle cx="225.700000" cy="52.000000" r="1"/>
<line x1="220.700000" y1="57.000000" x2="223.700000" y2="58.000000"  transform="rotate(0.000000,223.700000,58.000000)" style="stroke: black; stroke-width:0.25;"/>
<line x1="220.700000" y1="59.000000" x2="223.700000" y2="58.000000"  transform="rotate(0.000000,223.700000,58.000000)" style="stroke: black; stroke-width:0.25;"/>
<line x1="220.700000" y1="65.000000" x2="223.700000" y2="66.000000"  transform="rotate(0.000000,223.700000,66.000000)" style="stroke: black; stroke-width:0.25;"/>
<line x1="220.700000" y1="67.000000" x2="223.700000" y2="66.000000"  transform="rotate(0.000000,223.700000,66.000000)" style="stroke: black; stroke-width:0.25;"/>
<rect x="255.700000" y="50.000000" width="25.800000" height="24.000000" rx="0" ry="0" style="stroke:#000000;fill:#FFFFFF;"/>
<text x="268.600000" y="64.000000" font-family="Verdana" font-size="7" text-anchor="middle" fill="#000000">sqrt</text>
<circle cx="257.700000" cy="52.000000" r="1"/>
<line x1="252.700000" y1="61.000000" x2="255.700000" y2="62.000000"  transform="rotate(0.000000,255.700000,62.000000)" style="stroke: black; stroke-width:0.25;"/>
<line x1="252.700000" y1="63.000000" x2="255.700000" y2="62.000000"  transform="rotate(0.000000,255.700000,62.000000)" style="stroke: black; stroke-width:0.25;"/>
<line x1="15.000000" y1="15.000000" x2="15.000000" y2="109.000000"  style="stroke: black; stroke-linecap:round; stroke-width:0.25; stroke-dasharray:3,3;"/>
<line x1="15.000000" y1="109.000000" x2="298.500000" y2="109.000000"  style="stroke: black; stroke-linecap:round; stroke-width:0.25; stroke-dasharray:3,3;"/>
<line x1="298.500000" y1="109.000000" x2="298.500000" y2="15.000000"  style="stroke: black; stroke-linecap:round; stroke-width:0.25; stroke-dasharray:3,3;"/>
<line x1="15.000000" y1="15.000000" x2="20.000000" y2="15.000000"  style="stroke: black; stroke-linecap:round; stroke-width:0.25; stroke-dasharray:3,3;"/>
<line x1="97.400000" y1="15.000000" x2="298.500000" y2="15.000000"  style="stroke: black; stroke-linecap:round; stroke-width:0.25; stroke-dasharray:3,3;"/>
<text x="20.000000" y="17.000000" font-family="Verdana" font-size="7">movingAverageRMS(0.5f)</text>
<line x1="300.500000" y1="61.000000" x2="303.500000" y2="62.000000"  transform="rotate(0.000000,303.500000,62.000000)" style="stroke: black; stroke-width:0.25;"/>
<line x1="300.500000" y1="63.000000" x2="303.500000" y2="62.000000"  transform="rotate(0.000000,303.500000,62.000000)" style="stroke: black; stroke-width:0.25;"/>
<line x1="10.000000" y1="62.000000" x2="20.000000" y2="62.000000"  style="stroke:black; stroke-linecap:round; stroke-width:0.25;"/>
<line x1="20.000000" y1="62.000000" x2="24.000000" y2="62.000000"  style="stroke:black; stroke-linecap:round; stroke-width:0.25;"/>
<line x1="24.000000" y1="62.000000" x2="28.000000" y2="62.000000"  style="stroke:black; stroke-linecap:round; stroke-width:0.25;"/>
<line x1="28.000000" y1="62.000000" x2="28.000000" y2="62.000000"  style="stroke:black; stroke-linecap:round; stroke-width:0.25;"/>
<line x1="28.000000" y1="62.000000" x2="32.000000" y2="62.000000"  style="stroke:black; stroke-linecap:round; stroke-width:0.25;"/>
<line x1="148.750000" y1="46.000000" x2="152.750000" y2="46.000000"  style="stroke:black; stroke-linecap:round; stroke-width:0.25;"/>
<line x1="152.750000" y1="46.000000" x2="162.750000" y2="46.000000"  style="stroke:black; stroke-linecap:round; stroke-width:0.25;"/>
<line x1="162.750000" y1="46.000000" x2="211.700000" y2="46.000000"  style="stroke:black; stroke-linecap:round; stroke-width:0.25;"/>
<line x1="207.700000" y1="88.000000" x2="211.700000" y2="88.000000"  style="stroke:black; stroke-linecap:round; stroke-width:0.25;"/>
<line x1="211.700000" y1="46.000000" x2="219.700000" y2="46.000000"  style="stroke:black; stroke-linecap:round; stroke-width:0.25;"/>
<line x1="211.700000" y1="66.000000" x2="219.700000" y2="66.000000"  style="stroke:black; stroke-linecap:round; stroke-width:0.25;"/>
<line x1="211.700000" y1="88.000000" x2="211.700000" y2="66.000000"  style="stroke:black; stroke-linecap:round; stroke-width:0.25;"/>
<line x1="211.700000" y1="88.000000" x2="211.700000" y2="88.000000"  style="stroke:black; stroke-linecap:round; stroke-width:0.25;"/>
<line x1="219.700000" y1="46.000000" x2="219.700000" y2="58.000000"  style="stroke:black; stroke-linecap:round; stroke-width:0.25;"/>
<line x1="219.700000" y1="58.000000" x2="219.700000" y2="58.000000"  style="stroke:black; stroke-linecap:round; stroke-width:0.25;"/>
<line x1="219.700000" y1="58.000000" x2="223.700000" y2="58.000000"  style="stroke:black; stroke-linecap:round; stroke-width:0.25;"/>
<line x1="219.700000" y1="66.000000" x2="223.700000" y2="66.000000"  style="stroke:black; stroke-linecap:round; stroke-width:0.25;"/>
<line x1="247.700000" y1="62.000000" x2="251.700000" y2="62.000000"  style="stroke:black; stroke-linecap:round; stroke-width:0.25;"/>
<line x1="251.700000" y1="62.000000" x2="251.700000" y2="62.000000"  style="stroke:black; stroke-linecap:round; stroke-width:0.25;"/>
<line x1="251.700000" y1="62.000000" x2="255.700000" y2="62.000000"  style="stroke:black; stroke-linecap:round; stroke-width:0.25;"/>
<line x1="281.500000" y1="62.000000" x2="285.500000" y2="62.000000"  style="stroke:black; stroke-linecap:round; stroke-width:0.25;"/>
<line x1="285.500000" y1="62.000000" x2="285.500000" y2="62.000000"  style="stroke:black; stroke-linecap:round; stroke-width:0.25;"/>
<line x1="285.500000" y1="62.000000" x2="289.500000" y2="62.000000"  style="stroke:black; stroke-linecap:round; stroke-width:0.25;"/>
<line x1="289.500000" y1="62.000000" x2="293.500000" y2="62.000000"  style="stroke:black; stroke-linecap:round; stroke-width:0.25;"/>
<line x1="293.500000" y1="62.000000" x2="303.500000" y2="62.000000"  style="stroke:black; stroke-linecap:round; stroke-width:0.25;"/>
</svg>
