<?xml version="1.0"?>
<svg xmlns="http://www.w3.org/2000/svg" xmlns:xlink="http://www.w3.org/1999/xlink" viewBox="0 0 123.800000 104.000000" width="61.900000mm" height="52.000000mm" version="1.1">
<a xlink:href="makeMidSide4-0x600021708630.svg">
<rect x="0.000000" y="0.000000" width="122.800000" height="103.000000" rx="0" ry="0" style="stroke:#000000;fill:#FFFFFF;"/>
</a>
<text x="10.000000" y="7.000000" font-family="Verdana" font-size="7"></text>
<a xlink:href="mid-0x600021707180.svg">
<rect x="58.900000" y="24.000000" width="24.000000" height="24.000000" rx="0" ry="0" style="stroke:#000000;fill:#FFFFFF;"/>
</a>
<a xlink:href="mid-0x600021707180.svg">
<text x="70.900000" y="38.000000" font-family="Verdana" font-size="7" text-anchor="middle" fill="#000000">mid</text>
</a>
<circle cx="60.900000" cy="26.000000" r="1"/>
<line x1="55.900000" y1="35.000000" x2="58.900000" y2="36.000000"  transform="rotate(0.000000,58.900000,36.000000)" style="stroke: black; stroke-width:0.25;"/>
<line x1="55.900000" y1="37.000000" x2="58.900000" y2="36.000000"  transform="rotate(0.000000,58.900000,36.000000)" style="stroke: black; stroke-width:0.25;"/>
<a xlink:href="side-0x6000217083f0.svg">
<rect x="58.000000" y="56.000000" width="25.800000" height="24.000000" rx="0" ry="0" style="stroke:#000000;fill:#FFFFFF;"/>
</a>
<a xlink:href="side-0x6000217083f0.svg">
<text x="70.900000" y="70.000000" font-family="Verdana" font-size="7" text-anchor="middle" fill="#000000">side</text>
</a>
<circle cx="60.000000" cy="58.000000" r="1"/>
<line x1="55.000000" y1="67.000000" x2="58.000000" y2="68.000000"  transform="rotate(0.000000,58.000000,68.000000)" style="stroke: black; stroke-width:0.25;"/>
<line x1="55.000000" y1="69.000000" x2="58.000000" y2="68.000000"  transform="rotate(0.000000,58.000000,68.000000)" style="stroke: black; stroke-width:0.25;"/>
<line x1="15.000000" y1="15.000000" x2="15.000000" y2="89.000000"  style="stroke: black; stroke-linecap:round; stroke-width:0.25; stroke-dasharray:3,3;"/>
<line x1="15.000000" y1="89.000000" x2="108.800000" y2="89.000000"  style="stroke: black; stroke-linecap:round; stroke-width:0.25; stroke-dasharray:3,3;"/>
<line x1="108.800000" y1="89.000000" x2="108.800000" y2="15.000000"  style="stroke: black; stroke-linecap:round; stroke-width:0.25; stroke-dasharray:3,3;"/>
<line x1="15.000000" y1="15.000000" x2="20.000000" y2="15.000000"  style="stroke: black; stroke-linecap:round; stroke-width:0.25; stroke-dasharray:3,3;"/>
<line x1="108.800000" y1="15.000000" x2="108.800000" y2="15.000000"  style="stroke: black; stroke-linecap:round; stroke-width:0.25; stroke-dasharray:3,3;"/>
<text x="20.000000" y="17.000000" font-family="Verdana" font-size="7">mspan(0.6f)((...: *),180 : /)</text>
<line x1="110.800000" y1="47.000000" x2="113.800000" y2="48.000000"  transform="rotate(0.000000,113.800000,48.000000)" style="stroke: black; stroke-width:0.25;"/>
<line x1="110.800000" y1="49.000000" x2="113.800000" y2="48.000000"  transform="rotate(0.000000,113.800000,48.000000)" style="stroke: black; stroke-width:0.25;"/>
<line x1="110.800000" y1="55.000000" x2="113.800000" y2="56.000000"  transform="rotate(0.000000,113.800000,56.000000)" style="stroke: black; stroke-width:0.25;"/>
<line x1="110.800000" y1="57.000000" x2="113.800000" y2="56.000000"  transform="rotate(0.000000,113.800000,56.000000)" style="stroke: black; stroke-width:0.25;"/>
<line x1="10.000000" y1="52.000000" x2="20.000000" y2="52.000000"  style="stroke:black; stroke-linecap:round; stroke-width:0.25;"/>
<line x1="20.000000" y1="52.000000" x2="24.000000" y2="52.000000"  style="stroke:black; stroke-linecap:round; stroke-width:0.25;"/>
<line x1="24.000000" y1="52.000000" x2="28.000000" y2="52.000000"  style="stroke:black; stroke-linecap:round; stroke-width:0.25;"/>
<line x1="28.000000" y1="52.000000" x2="28.000000" y2="52.000000"  style="stroke:black; stroke-linecap:round; stroke-width:0.25;"/>
<line x1="28.000000" y1="52.000000" x2="32.000000" y2="52.000000"  style="stroke:black; stroke-linecap:round; stroke-width:0.25;"/>
<line x1="32.000000" y1="52.000000" x2="36.000000" y2="52.000000"  style="stroke:black; stroke-linecap:round; stroke-width:0.25;"/>
<line x1="36.000000" y1="52.000000" x2="54.000000" y2="36.000000"  style="stroke:black; stroke-linecap:round; stroke-width:0.25;"/>
<line x1="36.000000" y1="52.000000" x2="54.000000" y2="68.000000"  style="stroke:black; stroke-linecap:round; stroke-width:0.25;"/>
<line x1="54.000000" y1="36.000000" x2="54.900000" y2="36.000000"  style="stroke:black; stroke-linecap:round; stroke-width:0.25;"/>
<line x1="54.000000" y1="68.000000" x2="58.000000" y2="68.000000"  style="stroke:black; stroke-linecap:round; stroke-width:0.25;"/>
<line x1="54.900000" y1="36.000000" x2="58.900000" y2="36.000000"  style="stroke:black; stroke-linecap:round; stroke-width:0.25;"/>
<line x1="82.900000" y1="36.000000" x2="86.900000" y2="36.000000"  style="stroke:black; stroke-linecap:round; stroke-width:0.25;"/>
<line x1="83.800000" y1="68.000000" x2="87.800000" y2="68.000000"  style="stroke:black; stroke-linecap:round; stroke-width:0.25;"/>
<line x1="86.900000" y1="36.000000" x2="87.800000" y2="36.000000"  style="stroke:black; stroke-linecap:round; stroke-width:0.25;"/>
<line x1="87.800000" y1="56.000000" x2="95.800000" y2="56.000000"  style="stroke:black; stroke-linecap:round; stroke-width:0.25;"/>
<line x1="87.800000" y1="68.000000" x2="87.800000" y2="56.000000"  style="stroke:black; stroke-linecap:round; stroke-width:0.25;"/>
<line x1="87.800000" y1="68.000000" x2="87.800000" y2="68.000000"  style="stroke:black; stroke-linecap:round; stroke-width:0.25;"/>
<line x1="87.800000" y1="36.000000" x2="95.800000" y2="36.000000"  style="stroke:black; stroke-linecap:round; stroke-width:0.25;"/>
<line x1="95.800000" y1="48.000000" x2="99.800000" y2="48.000000"  style="stroke:black; stroke-linecap:round; stroke-width:0.25;"/>
<line x1="95.800000" y1="56.000000" x2="99.800000" y2="56.000000"  style="stroke:black; stroke-linecap:round; stroke-width:0.25;"/>
<line x1="95.800000" y1="36.000000" x2="95.800000" y2="48.000000"  style="stroke:black; stroke-linecap:round; stroke-width:0.25;"/>
<line x1="95.800000" y1="48.000000" x2="95.800000" y2="48.000000"  style="stroke:black; stroke-linecap:round; stroke-width:0.25;"/>
<line x1="99.800000" y1="48.000000" x2="103.800000" y2="48.000000"  style="stroke:black; stroke-linecap:round; stroke-width:0.25;"/>
<line x1="99.800000" y1="56.000000" x2="103.800000" y2="56.000000"  style="stroke:black; stroke-linecap:round; stroke-width:0.25;"/>
<line x1="103.800000" y1="48.000000" x2="113.800000" y2="48.000000"  style="stroke:black; stroke-linecap:round; stroke-width:0.25;"/>
<line x1="103.800000" y1="56.000000" x2="113.800000" y2="56.000000"  style="stroke:black; stroke-linecap:round; stroke-width:0.25;"/>
</svg>
