<?xml version="1.0"?>
<svg xmlns="http://www.w3.org/2000/svg" xmlns:xlink="http://www.w3.org/1999/xlink" viewBox="0 0 282.700000 336.000000" width="141.350000mm" height="168.000000mm" version="1.1">
<a xlink:href="ctrl-0x60000d42ff00.svg">
<rect x="0.000000" y="0.000000" width="281.700000" height="335.000000" rx="0" ry="0" style="stroke:#000000;fill:#FFFFFF;"/>
</a>
<text x="10.000000" y="7.000000" font-family="Verdana" font-size="7"></text>
<rect x="46.650000" y="24.000000" width="38.700000" height="24.000000" rx="0" ry="0" style="stroke:#000000;fill:#FFFFFF;"/>
<text x="66.000000" y="38.000000" font-family="Verdana" font-size="7" text-anchor="middle" fill="#000000">[274] ip</text>
<circle cx="48.650000" cy="26.000000" r="1"/>
<rect x="53.100000" y="56.000000" width="25.800000" height="24.000000" rx="0" ry="0" style="stroke:#000000;fill:#FFFFFF;"/>
<text x="66.000000" y="70.000000" font-family="Verdana" font-size="7" text-anchor="middle" fill="#000000">1.0f</text>
<circle cx="55.100000" cy="58.000000" r="1"/>
<rect x="101.350000" y="40.000000" width="24.000000" height="24.000000" rx="0" ry="0" style="stroke:#000000;fill:#FFFFFF;"/>
<text x="113.350000" y="54.000000" font-family="Verdana" font-size="7" text-anchor="middle" fill="#000000">&gt;=</text>
<circle cx="103.350000" cy="42.000000" r="1"/>
<line x1="98.350000" y1="47.000000" x2="101.350000" y2="48.000000"  transform="rotate(0.000000,101.350000,48.000000)" style="stroke: black; stroke-width:0.25;"/>
<line x1="98.350000" y1="49.000000" x2="101.350000" y2="48.000000"  transform="rotate(0.000000,101.350000,48.000000)" style="stroke: black; stroke-width:0.25;"/>
<line x1="98.350000" y1="55.000000" x2="101.350000" y2="56.000000"  transform="rotate(0.000000,101.350000,56.000000)" style="stroke: black; stroke-width:0.25;"/>
<line x1="98.350000" y1="57.000000" x2="101.350000" y2="56.000000"  transform="rotate(0.000000,101.350000,56.000000)" style="stroke: black; stroke-width:0.25;"/>
<rect x="46.650000" y="88.000000" width="38.700000" height="24.000000" rx="0" ry="0" style="stroke:#000000;fill:#FFFFFF;"/>
<text x="66.000000" y="102.000000" font-family="Verdana" font-size="7" text-anchor="middle" fill="#000000">[276] d1</text>
<circle cx="48.650000" cy="90.000000" r="1"/>
<a xlink:href="t3-0x600005490990.svg">
<rect x="34.000000" y="120.000000" width="24.000000" height="24.000000" rx="0" ry="0" style="stroke:#000000;fill:#FFFFFF;"/>
</a>
<a xlink:href="t3-0x600005490990.svg">
<text x="46.000000" y="134.000000" font-family="Verdana" font-size="7" text-anchor="middle" fill="#000000">t3</text>
</a>
<circle cx="36.000000" cy="122.000000" r="1"/>
<rect x="34.000000" y="162.000000" width="24.000000" height="24.000000" rx="0" ry="0" style="stroke:#000000;fill:#FFFFFF;"/>
<text x="46.000000" y="176.000000" font-family="Verdana" font-size="7" text-anchor="middle" fill="#000000">1</text>
<circle cx="36.000000" cy="164.000000" r="1"/>
<line x1="25.000000" y1="153.000000" x2="25.000000" y2="195.000000"  style="stroke: black; stroke-linecap:round; stroke-width:0.25; stroke-dasharray:3,3;"/>
<line x1="25.000000" y1="195.000000" x2="67.000000" y2="195.000000"  style="stroke: black; stroke-linecap:round; stroke-width:0.25; stroke-dasharray:3,3;"/>
<line x1="67.000000" y1="195.000000" x2="67.000000" y2="153.000000"  style="stroke: black; stroke-linecap:round; stroke-width:0.25; stroke-dasharray:3,3;"/>
<line x1="25.000000" y1="153.000000" x2="30.000000" y2="153.000000"  style="stroke: black; stroke-linecap:round; stroke-width:0.25; stroke-dasharray:3,3;"/>
<line x1="67.000000" y1="153.000000" x2="67.000000" y2="153.000000"  style="stroke: black; stroke-linecap:round; stroke-width:0.25; stroke-dasharray:3,3;"/>
<text x="30.000000" y="155.000000" font-family="Verdana" font-size="7">signum(90)</text>
<rect x="84.000000" y="146.000000" width="24.000000" height="24.000000" rx="0" ry="0" style="stroke:#000000;fill:#FFFFFF;"/>
<text x="96.000000" y="160.000000" font-family="Verdana" font-size="7" text-anchor="middle" fill="#000000">-</text>
<circle cx="86.000000" cy="148.000000" r="1"/>
<line x1="81.000000" y1="153.000000" x2="84.000000" y2="154.000000"  transform="rotate(0.000000,84.000000,154.000000)" style="stroke: black; stroke-width:0.25;"/>
<line x1="81.000000" y1="155.000000" x2="84.000000" y2="154.000000"  transform="rotate(0.000000,84.000000,154.000000)" style="stroke: black; stroke-width:0.25;"/>
<line x1="81.000000" y1="161.000000" x2="84.000000" y2="162.000000"  transform="rotate(0.000000,84.000000,162.000000)" style="stroke: black; stroke-width:0.25;"/>
<line x1="81.000000" y1="163.000000" x2="84.000000" y2="162.000000"  transform="rotate(0.000000,84.000000,162.000000)" style="stroke: black; stroke-width:0.25;"/>
<rect x="124.000000" y="130.000000" width="24.000000" height="24.000000" rx="0" ry="0" style="stroke:#000000;fill:#FFFFFF;"/>
<text x="136.000000" y="144.000000" font-family="Verdana" font-size="7" text-anchor="middle" fill="#000000">!=</text>
<circle cx="126.000000" cy="132.000000" r="1"/>
<line x1="121.000000" y1="137.000000" x2="124.000000" y2="138.000000"  transform="rotate(0.000000,124.000000,138.000000)" style="stroke: black; stroke-width:0.25;"/>
<line x1="121.000000" y1="139.000000" x2="124.000000" y2="138.000000"  transform="rotate(0.000000,124.000000,138.000000)" style="stroke: black; stroke-width:0.25;"/>
<line x1="121.000000" y1="145.000000" x2="124.000000" y2="146.000000"  transform="rotate(0.000000,124.000000,146.000000)" style="stroke: black; stroke-width:0.25;"/>
<line x1="121.000000" y1="147.000000" x2="124.000000" y2="146.000000"  transform="rotate(0.000000,124.000000,146.000000)" style="stroke: black; stroke-width:0.25;"/>
<rect x="164.000000" y="98.000000" width="24.000000" height="24.000000" rx="0" ry="0" style="stroke:#000000;fill:#FFFFFF;"/>
<text x="176.000000" y="112.000000" font-family="Verdana" font-size="7" text-anchor="middle" fill="#000000">&amp;</text>
<circle cx="166.000000" cy="100.000000" r="1"/>
<line x1="161.000000" y1="105.000000" x2="164.000000" y2="106.000000"  transform="rotate(0.000000,164.000000,106.000000)" style="stroke: black; stroke-width:0.25;"/>
<line x1="161.000000" y1="107.000000" x2="164.000000" y2="106.000000"  transform="rotate(0.000000,164.000000,106.000000)" style="stroke: black; stroke-width:0.25;"/>
<line x1="161.000000" y1="113.000000" x2="164.000000" y2="114.000000"  transform="rotate(0.000000,164.000000,114.000000)" style="stroke: black; stroke-width:0.25;"/>
<line x1="161.000000" y1="115.000000" x2="164.000000" y2="114.000000"  transform="rotate(0.000000,164.000000,114.000000)" style="stroke: black; stroke-width:0.25;"/>
<rect x="86.650000" y="204.000000" width="38.700000" height="24.000000" rx="0" ry="0" style="stroke:#000000;fill:#FFFFFF;"/>
<text x="106.000000" y="218.000000" font-family="Verdana" font-size="7" text-anchor="middle" fill="#000000">[275] d0</text>
<circle cx="88.650000" cy="206.000000" r="1"/>
<a xlink:href="t3-0x600005490990.svg">
<rect x="74.000000" y="236.000000" width="24.000000" height="24.000000" rx="0" ry="0" style="stroke:#000000;fill:#FFFFFF;"/>
</a>
<a xlink:href="t3-0x600005490990.svg">
<text x="86.000000" y="250.000000" font-family="Verdana" font-size="7" text-anchor="middle" fill="#000000">t3</text>
</a>
<circle cx="76.000000" cy="238.000000" r="1"/>
<rect x="74.000000" y="278.000000" width="24.000000" height="24.000000" rx="0" ry="0" style="stroke:#000000;fill:#FFFFFF;"/>
<text x="86.000000" y="292.000000" font-family="Verdana" font-size="7" text-anchor="middle" fill="#000000">1</text>
<circle cx="76.000000" cy="280.000000" r="1"/>
<line x1="65.000000" y1="269.000000" x2="65.000000" y2="311.000000"  style="stroke: black; stroke-linecap:round; stroke-width:0.25; stroke-dasharray:3,3;"/>
<line x1="65.000000" y1="311.000000" x2="107.000000" y2="311.000000"  style="stroke: black; stroke-linecap:round; stroke-width:0.25; stroke-dasharray:3,3;"/>
<line x1="107.000000" y1="311.000000" x2="107.000000" y2="269.000000"  style="stroke: black; stroke-linecap:round; stroke-width:0.25; stroke-dasharray:3,3;"/>
<line x1="65.000000" y1="269.000000" x2="70.000000" y2="269.000000"  style="stroke: black; stroke-linecap:round; stroke-width:0.25; stroke-dasharray:3,3;"/>
<line x1="107.000000" y1="269.000000" x2="107.000000" y2="269.000000"  style="stroke: black; stroke-linecap:round; stroke-width:0.25; stroke-dasharray:3,3;"/>
<text x="70.000000" y="271.000000" font-family="Verdana" font-size="7">signum(90)</text>
<rect x="124.000000" y="262.000000" width="24.000000" height="24.000000" rx="0" ry="0" style="stroke:#000000;fill:#FFFFFF;"/>
<text x="136.000000" y="276.000000" font-family="Verdana" font-size="7" text-anchor="middle" fill="#000000">-</text>
<circle cx="126.000000" cy="264.000000" r="1"/>
<line x1="121.000000" y1="269.000000" x2="124.000000" y2="270.000000"  transform="rotate(0.000000,124.000000,270.000000)" style="stroke: black; stroke-width:0.25;"/>
<line x1="121.000000" y1="271.000000" x2="124.000000" y2="270.000000"  transform="rotate(0.000000,124.000000,270.000000)" style="stroke: black; stroke-width:0.25;"/>
<line x1="121.000000" y1="277.000000" x2="124.000000" y2="278.000000"  transform="rotate(0.000000,124.000000,278.000000)" style="stroke: black; stroke-width:0.25;"/>
<line x1="121.000000" y1="279.000000" x2="124.000000" y2="278.000000"  transform="rotate(0.000000,124.000000,278.000000)" style="stroke: black; stroke-width:0.25;"/>
<rect x="212.000000" y="156.000000" width="38.700000" height="24.000000" rx="0" ry="0" style="stroke:#000000;fill:#FFFFFF;"/>
<text x="231.350000" y="170.000000" font-family="Verdana" font-size="7" text-anchor="middle" fill="#000000">select2</text>
<circle cx="214.000000" cy="158.000000" r="1"/>
<line x1="209.000000" y1="159.000000" x2="212.000000" y2="160.000000"  transform="rotate(0.000000,212.000000,160.000000)" style="stroke: black; stroke-width:0.25;"/>
<line x1="209.000000" y1="161.000000" x2="212.000000" y2="160.000000"  transform="rotate(0.000000,212.000000,160.000000)" style="stroke: black; stroke-width:0.25;"/>
<line x1="209.000000" y1="167.000000" x2="212.000000" y2="168.000000"  transform="rotate(0.000000,212.000000,168.000000)" style="stroke: black; stroke-width:0.25;"/>
<line x1="209.000000" y1="169.000000" x2="212.000000" y2="168.000000"  transform="rotate(0.000000,212.000000,168.000000)" style="stroke: black; stroke-width:0.25;"/>
<line x1="209.000000" y1="175.000000" x2="212.000000" y2="176.000000"  transform="rotate(0.000000,212.000000,176.000000)" style="stroke: black; stroke-width:0.25;"/>
<line x1="209.000000" y1="177.000000" x2="212.000000" y2="176.000000"  transform="rotate(0.000000,212.000000,176.000000)" style="stroke: black; stroke-width:0.25;"/>
<line x1="15.000000" y1="15.000000" x2="15.000000" y2="321.000000"  style="stroke: black; stroke-linecap:round; stroke-width:0.25; stroke-dasharray:3,3;"/>
<line x1="15.000000" y1="321.000000" x2="267.700000" y2="321.000000"  style="stroke: black; stroke-linecap:round; stroke-width:0.25; stroke-dasharray:3,3;"/>
<line x1="267.700000" y1="321.000000" x2="267.700000" y2="15.000000"  style="stroke: black; stroke-linecap:round; stroke-width:0.25; stroke-dasharray:3,3;"/>
<line x1="15.000000" y1="15.000000" x2="20.000000" y2="15.000000"  style="stroke: black; stroke-linecap:round; stroke-width:0.25; stroke-dasharray:3,3;"/>
<line x1="36.125000" y1="15.000000" x2="267.700000" y2="15.000000"  style="stroke: black; stroke-linecap:round; stroke-width:0.25; stroke-dasharray:3,3;"/>
<text x="20.000000" y="17.000000" font-family="Verdana" font-size="7">nd0</text>
<line x1="269.700000" y1="167.000000" x2="272.700000" y2="168.000000"  transform="rotate(0.000000,272.700000,168.000000)" style="stroke: black; stroke-width:0.25;"/>
<line x1="269.700000" y1="169.000000" x2="272.700000" y2="168.000000"  transform="rotate(0.000000,272.700000,168.000000)" style="stroke: black; stroke-width:0.25;"/>
<line x1="58.000000" y1="132.000000" x2="62.000000" y2="132.000000"  style="stroke:black; stroke-linecap:round; stroke-width:0.25;"/>
<line x1="58.000000" y1="174.000000" x2="62.000000" y2="174.000000"  style="stroke:black; stroke-linecap:round; stroke-width:0.25;"/>
<line x1="62.000000" y1="132.000000" x2="72.000000" y2="132.000000"  style="stroke:black; stroke-linecap:round; stroke-width:0.25;"/>
<line x1="62.000000" y1="174.000000" x2="72.000000" y2="174.000000"  style="stroke:black; stroke-linecap:round; stroke-width:0.25;"/>
<line x1="72.000000" y1="132.000000" x2="80.000000" y2="132.000000"  style="stroke:black; stroke-linecap:round; stroke-width:0.25;"/>
<line x1="72.000000" y1="162.000000" x2="80.000000" y2="162.000000"  style="stroke:black; stroke-linecap:round; stroke-width:0.25;"/>
<line x1="72.000000" y1="174.000000" x2="72.000000" y2="162.000000"  style="stroke:black; stroke-linecap:round; stroke-width:0.25;"/>
<line x1="72.000000" y1="174.000000" x2="72.000000" y2="174.000000"  style="stroke:black; stroke-linecap:round; stroke-width:0.25;"/>
<line x1="78.900000" y1="68.000000" x2="82.900000" y2="68.000000"  style="stroke:black; stroke-linecap:round; stroke-width:0.25;"/>
<line x1="80.000000" y1="132.000000" x2="80.000000" y2="154.000000"  style="stroke:black; stroke-linecap:round; stroke-width:0.25;"/>
<line x1="80.000000" y1="154.000000" x2="80.000000" y2="154.000000"  style="stroke:black; stroke-linecap:round; stroke-width:0.25;"/>
<line x1="80.000000" y1="154.000000" x2="84.000000" y2="154.000000"  style="stroke:black; stroke-linecap:round; stroke-width:0.25;"/>
<line x1="80.000000" y1="162.000000" x2="84.000000" y2="162.000000"  style="stroke:black; stroke-linecap:round; stroke-width:0.25;"/>
<line x1="82.900000" y1="68.000000" x2="89.350000" y2="68.000000"  style="stroke:black; stroke-linecap:round; stroke-width:0.25;"/>
<line x1="85.350000" y1="36.000000" x2="89.350000" y2="36.000000"  style="stroke:black; stroke-linecap:round; stroke-width:0.25;"/>
<line x1="85.350000" y1="100.000000" x2="89.350000" y2="100.000000"  style="stroke:black; stroke-linecap:round; stroke-width:0.25;"/>
<line x1="89.350000" y1="36.000000" x2="97.350000" y2="36.000000"  style="stroke:black; stroke-linecap:round; stroke-width:0.25;"/>
<line x1="89.350000" y1="100.000000" x2="112.000000" y2="100.000000"  style="stroke:black; stroke-linecap:round; stroke-width:0.25;"/>
<line x1="89.350000" y1="56.000000" x2="97.350000" y2="56.000000"  style="stroke:black; stroke-linecap:round; stroke-width:0.25;"/>
<line x1="89.350000" y1="68.000000" x2="89.350000" y2="56.000000"  style="stroke:black; stroke-linecap:round; stroke-width:0.25;"/>
<line x1="89.350000" y1="68.000000" x2="89.350000" y2="68.000000"  style="stroke:black; stroke-linecap:round; stroke-width:0.25;"/>
<line x1="97.350000" y1="36.000000" x2="97.350000" y2="48.000000"  style="stroke:black; stroke-linecap:round; stroke-width:0.25;"/>
<line x1="97.350000" y1="48.000000" x2="97.350000" y2="48.000000"  style="stroke:black; stroke-linecap:round; stroke-width:0.25;"/>
<line x1="97.350000" y1="48.000000" x2="101.350000" y2="48.000000"  style="stroke:black; stroke-linecap:round; stroke-width:0.25;"/>
<line x1="97.350000" y1="56.000000" x2="101.350000" y2="56.000000"  style="stroke:black; stroke-linecap:round; stroke-width:0.25;"/>
<line x1="98.000000" y1="248.000000" x2="102.000000" y2="248.000000"  style="stroke:black; stroke-linecap:round; stroke-width:0.25;"/>
<line x1="98.000000" y1="290.000000" x2="102.000000" y2="290.000000"  style="stroke:black; stroke-linecap:round; stroke-width:0.25;"/>
<line x1="102.000000" y1="248.000000" x2="112.000000" y2="248.000000"  style="stroke:black; stroke-linecap:round; stroke-width:0.25;"/>
<line x1="102.000000" y1="290.000000" x2="112.000000" y2="290.000000"  style="stroke:black; stroke-linecap:round; stroke-width:0.25;"/>
<line x1="108.000000" y1="158.000000" x2="112.000000" y2="158.000000"  style="stroke:black; stroke-linecap:round; stroke-width:0.25;"/>
<line x1="112.000000" y1="100.000000" x2="120.000000" y2="100.000000"  style="stroke:black; stroke-linecap:round; stroke-width:0.25;"/>
<line x1="112.000000" y1="146.000000" x2="120.000000" y2="146.000000"  style="stroke:black; stroke-linecap:round; stroke-width:0.25;"/>
<line x1="112.000000" y1="158.000000" x2="112.000000" y2="146.000000"  style="stroke:black; stroke-linecap:round; stroke-width:0.25;"/>
<line x1="112.000000" y1="158.000000" x2="112.000000" y2="158.000000"  style="stroke:black; stroke-linecap:round; stroke-width:0.25;"/>
<line x1="112.000000" y1="248.000000" x2="120.000000" y2="248.000000"  style="stroke:black; stroke-linecap:round; stroke-width:0.25;"/>
<line x1="112.000000" y1="278.000000" x2="120.000000" y2="278.000000"  style="stroke:black; stroke-linecap:round; stroke-width:0.25;"/>
<line x1="112.000000" y1="290.000000" x2="112.000000" y2="278.000000"  style="stroke:black; stroke-linecap:round; stroke-width:0.25;"/>
<line x1="112.000000" y1="290.000000" x2="112.000000" y2="290.000000"  style="stroke:black; stroke-linecap:round; stroke-width:0.25;"/>
<line x1="120.000000" y1="100.000000" x2="120.000000" y2="138.000000"  style="stroke:black; stroke-linecap:round; stroke-width:0.25;"/>
<line x1="120.000000" y1="138.000000" x2="120.000000" y2="138.000000"  style="stroke:black; stroke-linecap:round; stroke-width:0.25;"/>
<line x1="120.000000" y1="138.000000" x2="124.000000" y2="138.000000"  style="stroke:black; stroke-linecap:round; stroke-width:0.25;"/>
<line x1="120.000000" y1="146.000000" x2="124.000000" y2="146.000000"  style="stroke:black; stroke-linecap:round; stroke-width:0.25;"/>
<line x1="120.000000" y1="248.000000" x2="120.000000" y2="270.000000"  style="stroke:black; stroke-linecap:round; stroke-width:0.25;"/>
<line x1="120.000000" y1="270.000000" x2="120.000000" y2="270.000000"  style="stroke:black; stroke-linecap:round; stroke-width:0.25;"/>
<line x1="120.000000" y1="270.000000" x2="124.000000" y2="270.000000"  style="stroke:black; stroke-linecap:round; stroke-width:0.25;"/>
<line x1="120.000000" y1="278.000000" x2="124.000000" y2="278.000000"  style="stroke:black; stroke-linecap:round; stroke-width:0.25;"/>
<line x1="125.350000" y1="52.000000" x2="129.350000" y2="52.000000"  style="stroke:black; stroke-linecap:round; stroke-width:0.25;"/>
<line x1="125.350000" y1="216.000000" x2="129.350000" y2="216.000000"  style="stroke:black; stroke-linecap:round; stroke-width:0.25;"/>
<line x1="129.350000" y1="52.000000" x2="152.000000" y2="52.000000"  style="stroke:black; stroke-linecap:round; stroke-width:0.25;"/>
<line x1="129.350000" y1="216.000000" x2="152.000000" y2="216.000000"  style="stroke:black; stroke-linecap:round; stroke-width:0.25;"/>
<line x1="148.000000" y1="142.000000" x2="152.000000" y2="142.000000"  style="stroke:black; stroke-linecap:round; stroke-width:0.25;"/>
<line x1="148.000000" y1="274.000000" x2="152.000000" y2="274.000000"  style="stroke:black; stroke-linecap:round; stroke-width:0.25;"/>
<line x1="152.000000" y1="52.000000" x2="160.000000" y2="52.000000"  style="stroke:black; stroke-linecap:round; stroke-width:0.25;"/>
<line x1="152.000000" y1="114.000000" x2="160.000000" y2="114.000000"  style="stroke:black; stroke-linecap:round; stroke-width:0.25;"/>
<line x1="152.000000" y1="142.000000" x2="152.000000" y2="114.000000"  style="stroke:black; stroke-linecap:round; stroke-width:0.25;"/>
<line x1="152.000000" y1="142.000000" x2="152.000000" y2="142.000000"  style="stroke:black; stroke-linecap:round; stroke-width:0.25;"/>
<line x1="152.000000" y1="216.000000" x2="192.000000" y2="216.000000"  style="stroke:black; stroke-linecap:round; stroke-width:0.25;"/>
<line x1="152.000000" y1="274.000000" x2="192.000000" y2="274.000000"  style="stroke:black; stroke-linecap:round; stroke-width:0.25;"/>
<line x1="160.000000" y1="52.000000" x2="160.000000" y2="106.000000"  style="stroke:black; stroke-linecap:round; stroke-width:0.25;"/>
<line x1="160.000000" y1="106.000000" x2="160.000000" y2="106.000000"  style="stroke:black; stroke-linecap:round; stroke-width:0.25;"/>
<line x1="160.000000" y1="106.000000" x2="164.000000" y2="106.000000"  style="stroke:black; stroke-linecap:round; stroke-width:0.25;"/>
<line x1="160.000000" y1="114.000000" x2="164.000000" y2="114.000000"  style="stroke:black; stroke-linecap:round; stroke-width:0.25;"/>
<line x1="188.000000" y1="110.000000" x2="192.000000" y2="110.000000"  style="stroke:black; stroke-linecap:round; stroke-width:0.25;"/>
<line x1="192.000000" y1="110.000000" x2="208.000000" y2="110.000000"  style="stroke:black; stroke-linecap:round; stroke-width:0.25;"/>
<line x1="192.000000" y1="168.000000" x2="208.000000" y2="168.000000"  style="stroke:black; stroke-linecap:round; stroke-width:0.25;"/>
<line x1="192.000000" y1="216.000000" x2="192.000000" y2="168.000000"  style="stroke:black; stroke-linecap:round; stroke-width:0.25;"/>
<line x1="192.000000" y1="216.000000" x2="192.000000" y2="216.000000"  style="stroke:black; stroke-linecap:round; stroke-width:0.25;"/>
<line x1="192.000000" y1="274.000000" x2="200.000000" y2="274.000000"  style="stroke:black; stroke-linecap:round; stroke-width:0.25;"/>
<line x1="200.000000" y1="176.000000" x2="208.000000" y2="176.000000"  style="stroke:black; stroke-linecap:round; stroke-width:0.25;"/>
<line x1="200.000000" y1="274.000000" x2="200.000000" y2="176.000000"  style="stroke:black; stroke-linecap:round; stroke-width:0.25;"/>
<line x1="208.000000" y1="110.000000" x2="208.000000" y2="160.000000"  style="stroke:black; stroke-linecap:round; stroke-width:0.25;"/>
<line x1="208.000000" y1="160.000000" x2="208.000000" y2="160.000000"  style="stroke:black; stroke-linecap:round; stroke-width:0.25;"/>
<line x1="208.000000" y1="160.000000" x2="212.000000" y2="160.000000"  style="stroke:black; stroke-linecap:round; stroke-width:0.25;"/>
<line x1="208.000000" y1="168.000000" x2="212.000000" y2="168.000000"  style="stroke:black; stroke-linecap:round; stroke-width:0.25;"/>
<line x1="208.000000" y1="176.000000" x2="212.000000" y2="176.000000"  style="stroke:black; stroke-linecap:round; stroke-width:0.25;"/>
<line x1="250.700000" y1="168.000000" x2="254.700000" y2="168.000000"  style="stroke:black; stroke-linecap:round; stroke-width:0.25;"/>
<line x1="254.700000" y1="168.000000" x2="254.700000" y2="168.000000"  style="stroke:black; stroke-linecap:round; stroke-width:0.25;"/>
<line x1="254.700000" y1="168.000000" x2="258.700000" y2="168.000000"  style="stroke:black; stroke-linecap:round; stroke-width:0.25;"/>
<line x1="258.700000" y1="168.000000" x2="262.700000" y2="168.000000"  style="stroke:black; stroke-linecap:round; stroke-width:0.25;"/>
<line x1="262.700000" y1="168.000000" x2="272.700000" y2="168.000000"  style="stroke:black; stroke-linecap:round; stroke-width:0.25;"/>
</svg>
