<?xml version="1.0"?>
<svg xmlns="http://www.w3.org/2000/svg" xmlns:xlink="http://www.w3.org/1999/xlink" viewBox="0 0 298.300000 104.000000" width="149.150000mm" height="52.000000mm" version="1.1">
<a xlink:href="ctrl-0x60001d648090.svg">
<rect x="0.000000" y="0.000000" width="297.300000" height="103.000000" rx="0" ry="0" style="stroke:#000000;fill:#FFFFFF;"/>
</a>
<text x="10.000000" y="7.000000" font-family="Verdana" font-size="7"></text>
<rect x="24.000000" y="24.000000" width="38.700000" height="24.000000" rx="0" ry="0" style="stroke:#000000;fill:#FFFFFF;"/>
<text x="43.350000" y="38.000000" font-family="Verdana" font-size="7" text-anchor="middle" fill="#000000">[666] ip</text>
<circle cx="26.000000" cy="26.000000" r="1"/>
<a xlink:href="nv-0x60001d67dc20.svg">
<rect x="31.350000" y="56.000000" width="24.000000" height="24.000000" rx="0" ry="0" style="stroke:#000000;fill:#FFFFFF;"/>
</a>
<a xlink:href="nv-0x60001d67dc20.svg">
<text x="43.350000" y="70.000000" font-family="Verdana" font-size="7" text-anchor="middle" fill="#000000">nv</text>
</a>
<circle cx="33.350000" cy="58.000000" r="1"/>
<rect x="78.700000" y="40.000000" width="24.000000" height="24.000000" rx="0" ry="0" style="stroke:#000000;fill:#FFFFFF;"/>
<text x="90.700000" y="54.000000" font-family="Verdana" font-size="7" text-anchor="middle" fill="#000000">+</text>
<circle cx="80.700000" cy="42.000000" r="1"/>
<line x1="75.700000" y1="47.000000" x2="78.700000" y2="48.000000"  transform="rotate(0.000000,78.700000,48.000000)" style="stroke: black; stroke-width:0.25;"/>
<line x1="75.700000" y1="49.000000" x2="78.700000" y2="48.000000"  transform="rotate(0.000000,78.700000,48.000000)" style="stroke: black; stroke-width:0.25;"/>
<line x1="75.700000" y1="55.000000" x2="78.700000" y2="56.000000"  transform="rotate(0.000000,78.700000,56.000000)" style="stroke: black; stroke-width:0.25;"/>
<line x1="75.700000" y1="57.000000" x2="78.700000" y2="56.000000"  transform="rotate(0.000000,78.700000,56.000000)" style="stroke: black; stroke-width:0.25;"/>
<rect x="118.700000" y="36.000000" width="25.800000" height="24.000000" rx="0" ry="0" style="stroke:#000000;fill:#FFFFFF;"/>
<text x="131.600000" y="50.000000" font-family="Verdana" font-size="7" text-anchor="middle" fill="#000000">1.0f</text>
<circle cx="120.700000" cy="38.000000" r="1"/>
<rect x="160.500000" y="40.000000" width="24.000000" height="24.000000" rx="0" ry="0" style="stroke:#000000;fill:#FFFFFF;"/>
<text x="172.500000" y="54.000000" font-family="Verdana" font-size="7" text-anchor="middle" fill="#000000">min</text>
<circle cx="162.500000" cy="42.000000" r="1"/>
<line x1="157.500000" y1="47.000000" x2="160.500000" y2="48.000000"  transform="rotate(0.000000,160.500000,48.000000)" style="stroke: black; stroke-width:0.25;"/>
<line x1="157.500000" y1="49.000000" x2="160.500000" y2="48.000000"  transform="rotate(0.000000,160.500000,48.000000)" style="stroke: black; stroke-width:0.25;"/>
<line x1="157.500000" y1="55.000000" x2="160.500000" y2="56.000000"  transform="rotate(0.000000,160.500000,56.000000)" style="stroke: black; stroke-width:0.25;"/>
<line x1="157.500000" y1="57.000000" x2="160.500000" y2="56.000000"  transform="rotate(0.000000,160.500000,56.000000)" style="stroke: black; stroke-width:0.25;"/>
<rect x="200.500000" y="36.000000" width="25.800000" height="24.000000" rx="0" ry="0" style="stroke:#000000;fill:#FFFFFF;"/>
<text x="213.400000" y="50.000000" font-family="Verdana" font-size="7" text-anchor="middle" fill="#000000">0.0f</text>
<circle cx="202.500000" cy="38.000000" r="1"/>
<rect x="242.300000" y="40.000000" width="24.000000" height="24.000000" rx="0" ry="0" style="stroke:#000000;fill:#FFFFFF;"/>
<text x="254.300000" y="54.000000" font-family="Verdana" font-size="7" text-anchor="middle" fill="#000000">max</text>
<circle cx="244.300000" cy="42.000000" r="1"/>
<line x1="239.300000" y1="47.000000" x2="242.300000" y2="48.000000"  transform="rotate(0.000000,242.300000,48.000000)" style="stroke: black; stroke-width:0.25;"/>
<line x1="239.300000" y1="49.000000" x2="242.300000" y2="48.000000"  transform="rotate(0.000000,242.300000,48.000000)" style="stroke: black; stroke-width:0.25;"/>
<line x1="239.300000" y1="55.000000" x2="242.300000" y2="56.000000"  transform="rotate(0.000000,242.300000,56.000000)" style="stroke: black; stroke-width:0.25;"/>
<line x1="239.300000" y1="57.000000" x2="242.300000" y2="56.000000"  transform="rotate(0.000000,242.300000,56.000000)" style="stroke: black; stroke-width:0.25;"/>
<line x1="15.000000" y1="15.000000" x2="15.000000" y2="89.000000"  style="stroke: black; stroke-linecap:round; stroke-width:0.25; stroke-dasharray:3,3;"/>
<line x1="15.000000" y1="89.000000" x2="283.300000" y2="89.000000"  style="stroke: black; stroke-linecap:round; stroke-width:0.25; stroke-dasharray:3,3;"/>
<line x1="283.300000" y1="89.000000" x2="283.300000" y2="15.000000"  style="stroke: black; stroke-linecap:round; stroke-width:0.25; stroke-dasharray:3,3;"/>
<line x1="15.000000" y1="15.000000" x2="20.000000" y2="15.000000"  style="stroke: black; stroke-linecap:round; stroke-width:0.25; stroke-dasharray:3,3;"/>
<line x1="36.125000" y1="15.000000" x2="283.300000" y2="15.000000"  style="stroke: black; stroke-linecap:round; stroke-width:0.25; stroke-dasharray:3,3;"/>
<text x="20.000000" y="17.000000" font-family="Verdana" font-size="7">nip</text>
<line x1="285.300000" y1="51.000000" x2="288.300000" y2="52.000000"  transform="rotate(0.000000,288.300000,52.000000)" style="stroke: black; stroke-width:0.25;"/>
<line x1="285.300000" y1="53.000000" x2="288.300000" y2="52.000000"  transform="rotate(0.000000,288.300000,52.000000)" style="stroke: black; stroke-width:0.25;"/>
<line x1="55.350000" y1="68.000000" x2="59.350000" y2="68.000000"  style="stroke:black; stroke-linecap:round; stroke-width:0.25;"/>
<line x1="59.350000" y1="68.000000" x2="66.700000" y2="68.000000"  style="stroke:black; stroke-linecap:round; stroke-width:0.25;"/>
<line x1="62.700000" y1="36.000000" x2="66.700000" y2="36.000000"  style="stroke:black; stroke-linecap:round; stroke-width:0.25;"/>
<line x1="66.700000" y1="36.000000" x2="74.700000" y2="36.000000"  style="stroke:black; stroke-linecap:round; stroke-width:0.25;"/>
<line x1="66.700000" y1="56.000000" x2="74.700000" y2="56.000000"  style="stroke:black; stroke-linecap:round; stroke-width:0.25;"/>
<line x1="66.700000" y1="68.000000" x2="66.700000" y2="56.000000"  style="stroke:black; stroke-linecap:round; stroke-width:0.25;"/>
<line x1="66.700000" y1="68.000000" x2="66.700000" y2="68.000000"  style="stroke:black; stroke-linecap:round; stroke-width:0.25;"/>
<line x1="74.700000" y1="36.000000" x2="74.700000" y2="48.000000"  style="stroke:black; stroke-linecap:round; stroke-width:0.25;"/>
<line x1="74.700000" y1="48.000000" x2="74.700000" y2="48.000000"  style="stroke:black; stroke-linecap:round; stroke-width:0.25;"/>
<line x1="74.700000" y1="48.000000" x2="78.700000" y2="48.000000"  style="stroke:black; stroke-linecap:round; stroke-width:0.25;"/>
<line x1="74.700000" y1="56.000000" x2="78.700000" y2="56.000000"  style="stroke:black; stroke-linecap:round; stroke-width:0.25;"/>
<line x1="102.700000" y1="52.000000" x2="106.700000" y2="52.000000"  style="stroke:black; stroke-linecap:round; stroke-width:0.25;"/>
<line x1="106.700000" y1="52.000000" x2="114.700000" y2="52.000000"  style="stroke:black; stroke-linecap:round; stroke-width:0.25;"/>
<line x1="114.700000" y1="52.000000" x2="114.700000" y2="68.000000"  style="stroke:black; stroke-linecap:round; stroke-width:0.25;"/>
<line x1="114.700000" y1="68.000000" x2="114.700000" y2="68.000000"  style="stroke:black; stroke-linecap:round; stroke-width:0.25;"/>
<line x1="114.700000" y1="68.000000" x2="131.600000" y2="68.000000"  style="stroke:black; stroke-linecap:round; stroke-width:0.25;"/>
<line x1="131.600000" y1="68.000000" x2="148.500000" y2="68.000000"  style="stroke:black; stroke-linecap:round; stroke-width:0.25;"/>
<line x1="144.500000" y1="48.000000" x2="148.500000" y2="48.000000"  style="stroke:black; stroke-linecap:round; stroke-width:0.25;"/>
<line x1="148.500000" y1="48.000000" x2="156.500000" y2="48.000000"  style="stroke:black; stroke-linecap:round; stroke-width:0.25;"/>
<line x1="148.500000" y1="56.000000" x2="156.500000" y2="56.000000"  style="stroke:black; stroke-linecap:round; stroke-width:0.25;"/>
<line x1="148.500000" y1="68.000000" x2="148.500000" y2="56.000000"  style="stroke:black; stroke-linecap:round; stroke-width:0.25;"/>
<line x1="148.500000" y1="68.000000" x2="148.500000" y2="68.000000"  style="stroke:black; stroke-linecap:round; stroke-width:0.25;"/>
<line x1="156.500000" y1="48.000000" x2="160.500000" y2="48.000000"  style="stroke:black; stroke-linecap:round; stroke-width:0.25;"/>
<line x1="156.500000" y1="56.000000" x2="160.500000" y2="56.000000"  style="stroke:black; stroke-linecap:round; stroke-width:0.25;"/>
<line x1="184.500000" y1="52.000000" x2="188.500000" y2="52.000000"  style="stroke:black; stroke-linecap:round; stroke-width:0.25;"/>
<line x1="188.500000" y1="52.000000" x2="196.500000" y2="52.000000"  style="stroke:black; stroke-linecap:round; stroke-width:0.25;"/>
<line x1="196.500000" y1="52.000000" x2="196.500000" y2="68.000000"  style="stroke:black; stroke-linecap:round; stroke-width:0.25;"/>
<line x1="196.500000" y1="68.000000" x2="196.500000" y2="68.000000"  style="stroke:black; stroke-linecap:round; stroke-width:0.25;"/>
<line x1="196.500000" y1="68.000000" x2="213.400000" y2="68.000000"  style="stroke:black; stroke-linecap:round; stroke-width:0.25;"/>
<line x1="213.400000" y1="68.000000" x2="230.300000" y2="68.000000"  style="stroke:black; stroke-linecap:round; stroke-width:0.25;"/>
<line x1="226.300000" y1="48.000000" x2="230.300000" y2="48.000000"  style="stroke:black; stroke-linecap:round; stroke-width:0.25;"/>
<line x1="230.300000" y1="48.000000" x2="238.300000" y2="48.000000"  style="stroke:black; stroke-linecap:round; stroke-width:0.25;"/>
<line x1="230.300000" y1="56.000000" x2="238.300000" y2="56.000000"  style="stroke:black; stroke-linecap:round; stroke-width:0.25;"/>
<line x1="230.300000" y1="68.000000" x2="230.300000" y2="56.000000"  style="stroke:black; stroke-linecap:round; stroke-width:0.25;"/>
<line x1="230.300000" y1="68.000000" x2="230.300000" y2="68.000000"  style="stroke:black; stroke-linecap:round; stroke-width:0.25;"/>
<line x1="238.300000" y1="48.000000" x2="242.300000" y2="48.000000"  style="stroke:black; stroke-linecap:round; stroke-width:0.25;"/>
<line x1="238.300000" y1="56.000000" x2="242.300000" y2="56.000000"  style="stroke:black; stroke-linecap:round; stroke-width:0.25;"/>
<line x1="266.300000" y1="52.000000" x2="270.300000" y2="52.000000"  style="stroke:black; stroke-linecap:round; stroke-width:0.25;"/>
<line x1="270.300000" y1="52.000000" x2="274.300000" y2="52.000000"  style="stroke:black; stroke-linecap:round; stroke-width:0.25;"/>
<line x1="270.300000" y1="52.000000" x2="270.300000" y2="52.000000"  style="stroke:black; stroke-linecap:round; stroke-width:0.25;"/>
<line x1="274.300000" y1="52.000000" x2="278.300000" y2="52.000000"  style="stroke:black; stroke-linecap:round; stroke-width:0.25;"/>
<line x1="278.300000" y1="52.000000" x2="288.300000" y2="52.000000"  style="stroke:black; stroke-linecap:round; stroke-width:0.25;"/>
</svg>
