<?xml version="1.0"?>
<svg xmlns="http://www.w3.org/2000/svg" xmlns:xlink="http://www.w3.org/1999/xlink" viewBox="0 0 180.500000 124.000000" width="90.250000mm" height="62.000000mm" version="1.1">
<a xlink:href="inNoise-0x6000096154d0.svg">
<rect x="0.000000" y="0.000000" width="179.500000" height="123.000000" rx="0" ry="0" style="stroke:#000000;fill:#FFFFFF;"/>
</a>
<text x="10.000000" y="7.000000" font-family="Verdana" font-size="7"></text>
<a xlink:href="random-0x600009614ab0.svg">
<rect x="53.350000" y="24.000000" width="25.800000" height="24.000000" rx="0" ry="0" style="stroke:#000000;fill:#FFFFFF;"/>
</a>
<a xlink:href="random-0x600009614ab0.svg">
<text x="66.250000" y="38.000000" font-family="Verdana" font-size="7" text-anchor="middle" fill="#000000">random</text>
</a>
<circle cx="55.350000" cy="26.000000" r="1"/>
<rect x="34.000000" y="66.000000" width="64.500000" height="24.000000" rx="0" ry="0" style="stroke:#000000;fill:#FFFFFF;"/>
<text x="66.250000" y="80.000000" font-family="Verdana" font-size="7" text-anchor="middle" fill="#000000">2.1474836e+09f</text>
<circle cx="36.000000" cy="68.000000" r="1"/>
<line x1="25.000000" y1="57.000000" x2="25.000000" y2="99.000000"  style="stroke: black; stroke-linecap:round; stroke-width:0.25; stroke-dasharray:3,3;"/>
<line x1="25.000000" y1="99.000000" x2="107.500000" y2="99.000000"  style="stroke: black; stroke-linecap:round; stroke-width:0.25; stroke-dasharray:3,3;"/>
<line x1="107.500000" y1="99.000000" x2="107.500000" y2="57.000000"  style="stroke: black; stroke-linecap:round; stroke-width:0.25; stroke-dasharray:3,3;"/>
<line x1="25.000000" y1="57.000000" x2="30.000000" y2="57.000000"  style="stroke: black; stroke-linecap:round; stroke-width:0.25; stroke-dasharray:3,3;"/>
<line x1="59.025000" y1="57.000000" x2="107.500000" y2="57.000000"  style="stroke: black; stroke-linecap:round; stroke-width:0.25; stroke-dasharray:3,3;"/>
<text x="30.000000" y="59.000000" font-family="Verdana" font-size="7">RANDMAX</text>
<rect x="124.500000" y="50.000000" width="24.000000" height="24.000000" rx="0" ry="0" style="stroke:#000000;fill:#FFFFFF;"/>
<text x="136.500000" y="64.000000" font-family="Verdana" font-size="7" text-anchor="middle" fill="#000000">/</text>
<circle cx="126.500000" cy="52.000000" r="1"/>
<line x1="121.500000" y1="57.000000" x2="124.500000" y2="58.000000"  transform="rotate(0.000000,124.500000,58.000000)" style="stroke: black; stroke-width:0.25;"/>
<line x1="121.500000" y1="59.000000" x2="124.500000" y2="58.000000"  transform="rotate(0.000000,124.500000,58.000000)" style="stroke: black; stroke-width:0.25;"/>
<line x1="121.500000" y1="65.000000" x2="124.500000" y2="66.000000"  transform="rotate(0.000000,124.500000,66.000000)" style="stroke: black; stroke-width:0.25;"/>
<line x1="121.500000" y1="67.000000" x2="124.500000" y2="66.000000"  transform="rotate(0.000000,124.500000,66.000000)" style="stroke: black; stroke-width:0.25;"/>
<line x1="15.000000" y1="15.000000" x2="15.000000" y2="109.000000"  style="stroke: black; stroke-linecap:round; stroke-width:0.25; stroke-dasharray:3,3;"/>
<line x1="15.000000" y1="109.000000" x2="165.500000" y2="109.000000"  style="stroke: black; stroke-linecap:round; stroke-width:0.25; stroke-dasharray:3,3;"/>
<line x1="165.500000" y1="109.000000" x2="165.500000" y2="15.000000"  style="stroke: black; stroke-linecap:round; stroke-width:0.25; stroke-dasharray:3,3;"/>
<line x1="15.000000" y1="15.000000" x2="20.000000" y2="15.000000"  style="stroke: black; stroke-linecap:round; stroke-width:0.25; stroke-dasharray:3,3;"/>
<line x1="42.575000" y1="15.000000" x2="165.500000" y2="15.000000"  style="stroke: black; stroke-linecap:round; stroke-width:0.25; stroke-dasharray:3,3;"/>
<text x="20.000000" y="17.000000" font-family="Verdana" font-size="7">noise</text>
<line x1="167.500000" y1="61.000000" x2="170.500000" y2="62.000000"  transform="rotate(0.000000,170.500000,62.000000)" style="stroke: black; stroke-width:0.25;"/>
<line x1="167.500000" y1="63.000000" x2="170.500000" y2="62.000000"  transform="rotate(0.000000,170.500000,62.000000)" style="stroke: black; stroke-width:0.25;"/>
<line x1="79.150000" y1="36.000000" x2="83.150000" y2="36.000000"  style="stroke:black; stroke-linecap:round; stroke-width:0.25;"/>
<line x1="83.150000" y1="36.000000" x2="112.500000" y2="36.000000"  style="stroke:black; stroke-linecap:round; stroke-width:0.25;"/>
<line x1="98.500000" y1="78.000000" x2="102.500000" y2="78.000000"  style="stroke:black; stroke-linecap:round; stroke-width:0.25;"/>
<line x1="102.500000" y1="78.000000" x2="112.500000" y2="78.000000"  style="stroke:black; stroke-linecap:round; stroke-width:0.25;"/>
<line x1="112.500000" y1="36.000000" x2="120.500000" y2="36.000000"  style="stroke:black; stroke-linecap:round; stroke-width:0.25;"/>
<line x1="112.500000" y1="66.000000" x2="120.500000" y2="66.000000"  style="stroke:black; stroke-linecap:round; stroke-width:0.25;"/>
<line x1="112.500000" y1="78.000000" x2="112.500000" y2="66.000000"  style="stroke:black; stroke-linecap:round; stroke-width:0.25;"/>
<line x1="112.500000" y1="78.000000" x2="112.500000" y2="78.000000"  style="stroke:black; stroke-linecap:round; stroke-width:0.25;"/>
<line x1="120.500000" y1="36.000000" x2="120.500000" y2="58.000000"  style="stroke:black; stroke-linecap:round; stroke-width:0.25;"/>
<line x1="120.500000" y1="58.000000" x2="120.500000" y2="58.000000"  style="stroke:black; stroke-linecap:round; stroke-width:0.25;"/>
<line x1="120.500000" y1="58.000000" x2="124.500000" y2="58.000000"  style="stroke:black; stroke-linecap:round; stroke-width:0.25;"/>
<line x1="120.500000" y1="66.000000" x2="124.500000" y2="66.000000"  style="stroke:black; stroke-linecap:round; stroke-width:0.25;"/>
<line x1="148.500000" y1="62.000000" x2="152.500000" y2="62.000000"  style="stroke:black; stroke-linecap:round; stroke-width:0.25;"/>
<line x1="152.500000" y1="62.000000" x2="152.500000" y2="62.000000"  style="stroke:black; stroke-linecap:round; stroke-width:0.25;"/>
<line x1="152.500000" y1="62.000000" x2="156.500000" y2="62.000000"  style="stroke:black; stroke-linecap:round; stroke-width:0.25;"/>
<line x1="156.500000" y1="62.000000" x2="160.500000" y2="62.000000"  style="stroke:black; stroke-linecap:round; stroke-width:0.25;"/>
<line x1="160.500000" y1="62.000000" x2="170.500000" y2="62.000000"  style="stroke:black; stroke-linecap:round; stroke-width:0.25;"/>
</svg>
