<?xml version="1.0"?>
<svg xmlns="http://www.w3.org/2000/svg" xmlns:xlink="http://www.w3.org/1999/xlink" viewBox="0 0 167.600000 124.000000" width="83.800000mm" height="62.000000mm" version="1.1">
<a xlink:href="aapp-0x6000014334e0.svg">
<rect x="0.000000" y="0.000000" width="166.600000" height="123.000000" rx="0" ry="0" style="stroke:#000000;fill:#FFFFFF;"/>
</a>
<text x="10.000000" y="7.000000" font-family="Verdana" font-size="7"></text>
<rect x="34.000000" y="34.000000" width="51.600000" height="24.000000" rx="0" ry="0" style="stroke:#000000;fill:#FFFFFF;"/>
<text x="59.800000" y="48.000000" font-family="Verdana" font-size="7" text-anchor="middle" fill="#000000">6.2831855f</text>
<circle cx="36.000000" cy="36.000000" r="1"/>
<line x1="25.000000" y1="25.000000" x2="25.000000" y2="67.000000"  style="stroke: black; stroke-linecap:round; stroke-width:0.25; stroke-dasharray:3,3;"/>
<line x1="25.000000" y1="67.000000" x2="94.600000" y2="67.000000"  style="stroke: black; stroke-linecap:round; stroke-width:0.25; stroke-dasharray:3,3;"/>
<line x1="94.600000" y1="67.000000" x2="94.600000" y2="25.000000"  style="stroke: black; stroke-linecap:round; stroke-width:0.25; stroke-dasharray:3,3;"/>
<line x1="25.000000" y1="25.000000" x2="30.000000" y2="25.000000"  style="stroke: black; stroke-linecap:round; stroke-width:0.25; stroke-dasharray:3,3;"/>
<line x1="52.575000" y1="25.000000" x2="94.600000" y2="25.000000"  style="stroke: black; stroke-linecap:round; stroke-width:0.25; stroke-dasharray:3,3;"/>
<text x="30.000000" y="27.000000" font-family="Verdana" font-size="7">twopi</text>
<a xlink:href="SR-0x6000017c2e20.svg">
<rect x="47.800000" y="76.000000" width="24.000000" height="24.000000" rx="0" ry="0" style="stroke:#000000;fill:#FFFFFF;"/>
</a>
<a xlink:href="SR-0x6000017c2e20.svg">
<text x="59.800000" y="90.000000" font-family="Verdana" font-size="7" text-anchor="middle" fill="#000000">SR</text>
</a>
<circle cx="49.800000" cy="78.000000" r="1"/>
<rect x="111.600000" y="50.000000" width="24.000000" height="24.000000" rx="0" ry="0" style="stroke:#000000;fill:#FFFFFF;"/>
<text x="123.600000" y="64.000000" font-family="Verdana" font-size="7" text-anchor="middle" fill="#000000">/</text>
<circle cx="113.600000" cy="52.000000" r="1"/>
<line x1="108.600000" y1="57.000000" x2="111.600000" y2="58.000000"  transform="rotate(0.000000,111.600000,58.000000)" style="stroke: black; stroke-width:0.25;"/>
<line x1="108.600000" y1="59.000000" x2="111.600000" y2="58.000000"  transform="rotate(0.000000,111.600000,58.000000)" style="stroke: black; stroke-width:0.25;"/>
<line x1="108.600000" y1="65.000000" x2="111.600000" y2="66.000000"  transform="rotate(0.000000,111.600000,66.000000)" style="stroke: black; stroke-width:0.25;"/>
<line x1="108.600000" y1="67.000000" x2="111.600000" y2="66.000000"  transform="rotate(0.000000,111.600000,66.000000)" style="stroke: black; stroke-width:0.25;"/>
<line x1="15.000000" y1="15.000000" x2="15.000000" y2="109.000000"  style="stroke: black; stroke-linecap:round; stroke-width:0.25; stroke-dasharray:3,3;"/>
<line x1="15.000000" y1="109.000000" x2="152.600000" y2="109.000000"  style="stroke: black; stroke-linecap:round; stroke-width:0.25; stroke-dasharray:3,3;"/>
<line x1="152.600000" y1="109.000000" x2="152.600000" y2="15.000000"  style="stroke: black; stroke-linecap:round; stroke-width:0.25; stroke-dasharray:3,3;"/>
<line x1="15.000000" y1="15.000000" x2="20.000000" y2="15.000000"  style="stroke: black; stroke-linecap:round; stroke-width:0.25; stroke-dasharray:3,3;"/>
<line x1="52.250000" y1="15.000000" x2="152.600000" y2="15.000000"  style="stroke: black; stroke-linecap:round; stroke-width:0.25; stroke-dasharray:3,3;"/>
<text x="20.000000" y="17.000000" font-family="Verdana" font-size="7">omega(1)</text>
<line x1="154.600000" y1="61.000000" x2="157.600000" y2="62.000000"  transform="rotate(0.000000,157.600000,62.000000)" style="stroke: black; stroke-width:0.25;"/>
<line x1="154.600000" y1="63.000000" x2="157.600000" y2="62.000000"  transform="rotate(0.000000,157.600000,62.000000)" style="stroke: black; stroke-width:0.25;"/>
<line x1="71.800000" y1="88.000000" x2="75.800000" y2="88.000000"  style="stroke:black; stroke-linecap:round; stroke-width:0.25;"/>
<line x1="75.800000" y1="88.000000" x2="99.600000" y2="88.000000"  style="stroke:black; stroke-linecap:round; stroke-width:0.25;"/>
<line x1="85.600000" y1="46.000000" x2="89.600000" y2="46.000000"  style="stroke:black; stroke-linecap:round; stroke-width:0.25;"/>
<line x1="89.600000" y1="46.000000" x2="99.600000" y2="46.000000"  style="stroke:black; stroke-linecap:round; stroke-width:0.25;"/>
<line x1="99.600000" y1="46.000000" x2="107.600000" y2="46.000000"  style="stroke:black; stroke-linecap:round; stroke-width:0.25;"/>
<line x1="99.600000" y1="66.000000" x2="107.600000" y2="66.000000"  style="stroke:black; stroke-linecap:round; stroke-width:0.25;"/>
<line x1="99.600000" y1="88.000000" x2="99.600000" y2="66.000000"  style="stroke:black; stroke-linecap:round; stroke-width:0.25;"/>
<line x1="99.600000" y1="88.000000" x2="99.600000" y2="88.000000"  style="stroke:black; stroke-linecap:round; stroke-width:0.25;"/>
<line x1="107.600000" y1="46.000000" x2="107.600000" y2="58.000000"  style="stroke:black; stroke-linecap:round; stroke-width:0.25;"/>
<line x1="107.600000" y1="58.000000" x2="107.600000" y2="58.000000"  style="stroke:black; stroke-linecap:round; stroke-width:0.25;"/>
<line x1="107.600000" y1="58.000000" x2="111.600000" y2="58.000000"  style="stroke:black; stroke-linecap:round; stroke-width:0.25;"/>
<line x1="107.600000" y1="66.000000" x2="111.600000" y2="66.000000"  style="stroke:black; stroke-linecap:round; stroke-width:0.25;"/>
<line x1="135.600000" y1="62.000000" x2="139.600000" y2="62.000000"  style="stroke:black; stroke-linecap:round; stroke-width:0.25;"/>
<line x1="139.600000" y1="62.000000" x2="139.600000" y2="62.000000"  style="stroke:black; stroke-linecap:round; stroke-width:0.25;"/>
<line x1="139.600000" y1="62.000000" x2="143.600000" y2="62.000000"  style="stroke:black; stroke-linecap:round; stroke-width:0.25;"/>
<line x1="143.600000" y1="62.000000" x2="147.600000" y2="62.000000"  style="stroke:black; stroke-linecap:round; stroke-width:0.25;"/>
<line x1="147.600000" y1="62.000000" x2="157.600000" y2="62.000000"  style="stroke:black; stroke-linecap:round; stroke-width:0.25;"/>
</svg>
