<?xml version="1.0"?>
<svg xmlns="http://www.w3.org/2000/svg" xmlns:xlink="http://www.w3.org/1999/xlink" viewBox="0 0 279.700000 156.000000" width="139.850000mm" height="78.000000mm" version="1.1">
<a xlink:href="g-0x60001d4ea880.svg">
<rect x="0.000000" y="0.000000" width="278.700000" height="155.000000" rx="0" ry="0" style="stroke:#000000;fill:#FFFFFF;"/>
</a>
<text x="10.000000" y="7.000000" font-family="Verdana" font-size="7"></text>
<rect x="91.600000" y="34.000000" width="25.800000" height="24.000000" rx="0" ry="0" style="stroke:#000000;fill:#FFFFFF;"/>
<text x="104.500000" y="48.000000" font-family="Verdana" font-size="7" text-anchor="middle" fill="#000000">65536</text>
<circle cx="93.600000" cy="36.000000" r="1"/>
<line x1="82.600000" y1="25.000000" x2="82.600000" y2="67.000000"  style="stroke: black; stroke-linecap:round; stroke-width:0.25; stroke-dasharray:3,3;"/>
<line x1="82.600000" y1="67.000000" x2="126.400000" y2="67.000000"  style="stroke: black; stroke-linecap:round; stroke-width:0.25; stroke-dasharray:3,3;"/>
<line x1="126.400000" y1="67.000000" x2="126.400000" y2="25.000000"  style="stroke: black; stroke-linecap:round; stroke-width:0.25; stroke-dasharray:3,3;"/>
<line x1="82.600000" y1="25.000000" x2="87.600000" y2="25.000000"  style="stroke: black; stroke-linecap:round; stroke-width:0.25; stroke-dasharray:3,3;"/>
<line x1="123.075000" y1="25.000000" x2="126.400000" y2="25.000000"  style="stroke: black; stroke-linecap:round; stroke-width:0.25; stroke-dasharray:3,3;"/>
<text x="87.600000" y="27.000000" font-family="Verdana" font-size="7">tablesize</text>
<a xlink:href="sinwaveform-0x6000096c15f0.svg">
<rect x="65.800000" y="76.000000" width="77.400000" height="24.000000" rx="0" ry="0" style="stroke:#000000;fill:#FFFFFF;"/>
</a>
<a xlink:href="sinwaveform-0x6000096c15f0.svg">
<text x="104.500000" y="90.000000" font-family="Verdana" font-size="7" text-anchor="middle" fill="#000000">sinwaveform(65536)</text>
</a>
<circle cx="67.800000" cy="78.000000" r="1"/>
<a xlink:href="phasor-0x600009431830.svg">
<rect x="24.000000" y="108.000000" width="129.000000" height="24.000000" rx="0" ry="0" style="stroke:#000000;fill:#FFFFFF;"/>
</a>
<a xlink:href="phasor-0x600009431830.svg">
<text x="88.500000" y="122.000000" font-family="Verdana" font-size="7" text-anchor="middle" fill="#000000">phasor(65536)...,10 : *) : +)</text>
</a>
<circle cx="26.000000" cy="110.000000" r="1"/>
<rect x="161.000000" y="108.000000" width="24.000000" height="24.000000" rx="0" ry="0" style="stroke:#000000;fill:#FFFFFF;"/>
<text x="173.000000" y="122.000000" font-family="Verdana" font-size="7" text-anchor="middle" fill="#000000">int</text>
<circle cx="163.000000" cy="110.000000" r="1"/>
<line x1="158.000000" y1="119.000000" x2="161.000000" y2="120.000000"  transform="rotate(0.000000,161.000000,120.000000)" style="stroke: black; stroke-width:0.25;"/>
<line x1="158.000000" y1="121.000000" x2="161.000000" y2="120.000000"  transform="rotate(0.000000,161.000000,120.000000)" style="stroke: black; stroke-width:0.25;"/>
<rect x="209.000000" y="66.000000" width="38.700000" height="24.000000" rx="0" ry="0" style="stroke:#000000;fill:#FFFFFF;"/>
<text x="228.350000" y="80.000000" font-family="Verdana" font-size="7" text-anchor="middle" fill="#000000">rdtable</text>
<circle cx="211.000000" cy="68.000000" r="1"/>
<line x1="206.000000" y1="69.000000" x2="209.000000" y2="70.000000"  transform="rotate(0.000000,209.000000,70.000000)" style="stroke: black; stroke-width:0.25;"/>
<line x1="206.000000" y1="71.000000" x2="209.000000" y2="70.000000"  transform="rotate(0.000000,209.000000,70.000000)" style="stroke: black; stroke-width:0.25;"/>
<line x1="206.000000" y1="77.000000" x2="209.000000" y2="78.000000"  transform="rotate(0.000000,209.000000,78.000000)" style="stroke: black; stroke-width:0.25;"/>
<line x1="206.000000" y1="79.000000" x2="209.000000" y2="78.000000"  transform="rotate(0.000000,209.000000,78.000000)" style="stroke: black; stroke-width:0.25;"/>
<line x1="206.000000" y1="85.000000" x2="209.000000" y2="86.000000"  transform="rotate(0.000000,209.000000,86.000000)" style="stroke: black; stroke-width:0.25;"/>
<line x1="206.000000" y1="87.000000" x2="209.000000" y2="86.000000"  transform="rotate(0.000000,209.000000,86.000000)" style="stroke: black; stroke-width:0.25;"/>
<line x1="15.000000" y1="15.000000" x2="15.000000" y2="141.000000"  style="stroke: black; stroke-linecap:round; stroke-width:0.25; stroke-dasharray:3,3;"/>
<line x1="15.000000" y1="141.000000" x2="264.700000" y2="141.000000"  style="stroke: black; stroke-linecap:round; stroke-width:0.25; stroke-dasharray:3,3;"/>
<line x1="264.700000" y1="141.000000" x2="264.700000" y2="15.000000"  style="stroke: black; stroke-linecap:round; stroke-width:0.25; stroke-dasharray:3,3;"/>
<line x1="15.000000" y1="15.000000" x2="20.000000" y2="15.000000"  style="stroke: black; stroke-linecap:round; stroke-width:0.25; stroke-dasharray:3,3;"/>
<line x1="119.975000" y1="15.000000" x2="264.700000" y2="15.000000"  style="stroke: black; stroke-linecap:round; stroke-width:0.25; stroke-dasharray:3,3;"/>
<text x="20.000000" y="17.000000" font-family="Verdana" font-size="7">osc(1,((65536...,10 : *) : +)</text>
<line x1="266.700000" y1="77.000000" x2="269.700000" y2="78.000000"  transform="rotate(0.000000,269.700000,78.000000)" style="stroke: black; stroke-width:0.25;"/>
<line x1="266.700000" y1="79.000000" x2="269.700000" y2="78.000000"  transform="rotate(0.000000,269.700000,78.000000)" style="stroke: black; stroke-width:0.25;"/>
<line x1="117.400000" y1="46.000000" x2="121.400000" y2="46.000000"  style="stroke:black; stroke-linecap:round; stroke-width:0.25;"/>
<line x1="121.400000" y1="46.000000" x2="131.400000" y2="46.000000"  style="stroke:black; stroke-linecap:round; stroke-width:0.25;"/>
<line x1="131.400000" y1="46.000000" x2="189.000000" y2="46.000000"  style="stroke:black; stroke-linecap:round; stroke-width:0.25;"/>
<line x1="143.200000" y1="88.000000" x2="147.200000" y2="88.000000"  style="stroke:black; stroke-linecap:round; stroke-width:0.25;"/>
<line x1="147.200000" y1="88.000000" x2="189.000000" y2="88.000000"  style="stroke:black; stroke-linecap:round; stroke-width:0.25;"/>
<line x1="153.000000" y1="120.000000" x2="157.000000" y2="120.000000"  style="stroke:black; stroke-linecap:round; stroke-width:0.25;"/>
<line x1="157.000000" y1="120.000000" x2="157.000000" y2="120.000000"  style="stroke:black; stroke-linecap:round; stroke-width:0.25;"/>
<line x1="157.000000" y1="120.000000" x2="161.000000" y2="120.000000"  style="stroke:black; stroke-linecap:round; stroke-width:0.25;"/>
<line x1="185.000000" y1="120.000000" x2="189.000000" y2="120.000000"  style="stroke:black; stroke-linecap:round; stroke-width:0.25;"/>
<line x1="189.000000" y1="46.000000" x2="205.000000" y2="46.000000"  style="stroke:black; stroke-linecap:round; stroke-width:0.25;"/>
<line x1="189.000000" y1="78.000000" x2="205.000000" y2="78.000000"  style="stroke:black; stroke-linecap:round; stroke-width:0.25;"/>
<line x1="189.000000" y1="88.000000" x2="189.000000" y2="78.000000"  style="stroke:black; stroke-linecap:round; stroke-width:0.25;"/>
<line x1="189.000000" y1="88.000000" x2="189.000000" y2="88.000000"  style="stroke:black; stroke-linecap:round; stroke-width:0.25;"/>
<line x1="189.000000" y1="120.000000" x2="197.000000" y2="120.000000"  style="stroke:black; stroke-linecap:round; stroke-width:0.25;"/>
<line x1="197.000000" y1="86.000000" x2="205.000000" y2="86.000000"  style="stroke:black; stroke-linecap:round; stroke-width:0.25;"/>
<line x1="197.000000" y1="120.000000" x2="197.000000" y2="86.000000"  style="stroke:black; stroke-linecap:round; stroke-width:0.25;"/>
<line x1="205.000000" y1="46.000000" x2="205.000000" y2="70.000000"  style="stroke:black; stroke-linecap:round; stroke-width:0.25;"/>
<line x1="205.000000" y1="70.000000" x2="205.000000" y2="70.000000"  style="stroke:black; stroke-linecap:round; stroke-width:0.25;"/>
<line x1="205.000000" y1="70.000000" x2="209.000000" y2="70.000000"  style="stroke:black; stroke-linecap:round; stroke-width:0.25;"/>
<line x1="205.000000" y1="78.000000" x2="209.000000" y2="78.000000"  style="stroke:black; stroke-linecap:round; stroke-width:0.25;"/>
<line x1="205.000000" y1="86.000000" x2="209.000000" y2="86.000000"  style="stroke:black; stroke-linecap:round; stroke-width:0.25;"/>
<line x1="247.700000" y1="78.000000" x2="251.700000" y2="78.000000"  style="stroke:black; stroke-linecap:round; stroke-width:0.25;"/>
<line x1="251.700000" y1="78.000000" x2="251.700000" y2="78.000000"  style="stroke:black; stroke-linecap:round; stroke-width:0.25;"/>
<line x1="251.700000" y1="78.000000" x2="255.700000" y2="78.000000"  style="stroke:black; stroke-linecap:round; stroke-width:0.25;"/>
<line x1="255.700000" y1="78.000000" x2="259.700000" y2="78.000000"  style="stroke:black; stroke-linecap:round; stroke-width:0.25;"/>
<line x1="259.700000" y1="78.000000" x2="269.700000" y2="78.000000"  style="stroke:black; stroke-linecap:round; stroke-width:0.25;"/>
</svg>
