<?xml version="1.0"?>
<svg xmlns="http://www.w3.org/2000/svg" xmlns:xlink="http://www.w3.org/1999/xlink" viewBox="0 0 181.400000 136.000000" width="90.700000mm" height="68.000000mm" version="1.1">
<a xlink:href="loop-0x60002149fcc0.svg">
<rect x="0.000000" y="0.000000" width="180.400000" height="135.000000" rx="0" ry="0" style="stroke:#000000;fill:#FFFFFF;"/>
</a>
<text x="10.000000" y="7.000000" font-family="Verdana" font-size="7"></text>
<a xlink:href="bypass-0x600021499050.svg">
<rect x="46.450000" y="24.000000" width="25.800000" height="24.000000" rx="0" ry="0" style="stroke:#000000;fill:#FFFFFF;"/>
</a>
<a xlink:href="bypass-0x600021499050.svg">
<text x="59.350000" y="38.000000" font-family="Verdana" font-size="7" text-anchor="middle" fill="#000000">bypass</text>
</a>
<circle cx="48.450000" cy="26.000000" r="1"/>
<rect x="27.100000" y="56.000000" width="64.500000" height="24.000000" rx="0" ry="0" style="stroke:#000000;fill:#FFFFFF;"/>
<text x="59.350000" y="70.000000" font-family="Verdana" font-size="7" text-anchor="middle" fill="#000000">[886] outState</text>
<circle cx="29.100000" cy="58.000000" r="1"/>
<rect x="24.000000" y="88.000000" width="38.700000" height="24.000000" rx="0" ry="0" style="stroke:#000000;fill:#FFFFFF;"/>
<text x="43.350000" y="102.000000" font-family="Verdana" font-size="7" text-anchor="middle" fill="#000000">[884] x</text>
<circle cx="26.000000" cy="90.000000" r="1"/>
<rect x="70.700000" y="88.000000" width="24.000000" height="24.000000" rx="0" ry="0" style="stroke:#000000;fill:#FFFFFF;"/>
<text x="82.700000" y="102.000000" font-family="Verdana" font-size="7" text-anchor="middle" fill="#000000">abs</text>
<circle cx="72.700000" cy="90.000000" r="1"/>
<line x1="67.700000" y1="99.000000" x2="70.700000" y2="100.000000"  transform="rotate(0.000000,70.700000,100.000000)" style="stroke: black; stroke-width:0.25;"/>
<line x1="67.700000" y1="101.000000" x2="70.700000" y2="100.000000"  transform="rotate(0.000000,70.700000,100.000000)" style="stroke: black; stroke-width:0.25;"/>
<rect x="110.700000" y="56.000000" width="38.700000" height="24.000000" rx="0" ry="0" style="stroke:#000000;fill:#FFFFFF;"/>
<text x="130.050000" y="70.000000" font-family="Verdana" font-size="7" text-anchor="middle" fill="#000000">select2</text>
<circle cx="112.700000" cy="58.000000" r="1"/>
<line x1="107.700000" y1="59.000000" x2="110.700000" y2="60.000000"  transform="rotate(0.000000,110.700000,60.000000)" style="stroke: black; stroke-width:0.25;"/>
<line x1="107.700000" y1="61.000000" x2="110.700000" y2="60.000000"  transform="rotate(0.000000,110.700000,60.000000)" style="stroke: black; stroke-width:0.25;"/>
<line x1="107.700000" y1="67.000000" x2="110.700000" y2="68.000000"  transform="rotate(0.000000,110.700000,68.000000)" style="stroke: black; stroke-width:0.25;"/>
<line x1="107.700000" y1="69.000000" x2="110.700000" y2="68.000000"  transform="rotate(0.000000,110.700000,68.000000)" style="stroke: black; stroke-width:0.25;"/>
<line x1="107.700000" y1="75.000000" x2="110.700000" y2="76.000000"  transform="rotate(0.000000,110.700000,76.000000)" style="stroke: black; stroke-width:0.25;"/>
<line x1="107.700000" y1="77.000000" x2="110.700000" y2="76.000000"  transform="rotate(0.000000,110.700000,76.000000)" style="stroke: black; stroke-width:0.25;"/>
<line x1="15.000000" y1="15.000000" x2="15.000000" y2="121.000000"  style="stroke: black; stroke-linecap:round; stroke-width:0.25; stroke-dasharray:3,3;"/>
<line x1="15.000000" y1="121.000000" x2="166.400000" y2="121.000000"  style="stroke: black; stroke-linecap:round; stroke-width:0.25; stroke-dasharray:3,3;"/>
<line x1="166.400000" y1="121.000000" x2="166.400000" y2="15.000000"  style="stroke: black; stroke-linecap:round; stroke-width:0.25; stroke-dasharray:3,3;"/>
<line x1="15.000000" y1="15.000000" x2="20.000000" y2="15.000000"  style="stroke: black; stroke-linecap:round; stroke-width:0.25; stroke-dasharray:3,3;"/>
<line x1="45.800000" y1="15.000000" x2="166.400000" y2="15.000000"  style="stroke: black; stroke-linecap:round; stroke-width:0.25; stroke-dasharray:3,3;"/>
<text x="20.000000" y="17.000000" font-family="Verdana" font-size="7">output</text>
<line x1="168.400000" y1="67.000000" x2="171.400000" y2="68.000000"  transform="rotate(0.000000,171.400000,68.000000)" style="stroke: black; stroke-width:0.25;"/>
<line x1="168.400000" y1="69.000000" x2="171.400000" y2="68.000000"  transform="rotate(0.000000,171.400000,68.000000)" style="stroke: black; stroke-width:0.25;"/>
<line x1="62.700000" y1="100.000000" x2="66.700000" y2="100.000000"  style="stroke:black; stroke-linecap:round; stroke-width:0.25;"/>
<line x1="66.700000" y1="100.000000" x2="66.700000" y2="100.000000"  style="stroke:black; stroke-linecap:round; stroke-width:0.25;"/>
<line x1="66.700000" y1="100.000000" x2="70.700000" y2="100.000000"  style="stroke:black; stroke-linecap:round; stroke-width:0.25;"/>
<line x1="72.250000" y1="36.000000" x2="76.250000" y2="36.000000"  style="stroke:black; stroke-linecap:round; stroke-width:0.25;"/>
<line x1="76.250000" y1="36.000000" x2="98.700000" y2="36.000000"  style="stroke:black; stroke-linecap:round; stroke-width:0.25;"/>
<line x1="91.600000" y1="68.000000" x2="95.600000" y2="68.000000"  style="stroke:black; stroke-linecap:round; stroke-width:0.25;"/>
<line x1="94.700000" y1="100.000000" x2="98.700000" y2="100.000000"  style="stroke:black; stroke-linecap:round; stroke-width:0.25;"/>
<line x1="95.600000" y1="68.000000" x2="98.700000" y2="68.000000"  style="stroke:black; stroke-linecap:round; stroke-width:0.25;"/>
<line x1="98.700000" y1="36.000000" x2="106.700000" y2="36.000000"  style="stroke:black; stroke-linecap:round; stroke-width:0.25;"/>
<line x1="98.700000" y1="68.000000" x2="106.700000" y2="68.000000"  style="stroke:black; stroke-linecap:round; stroke-width:0.25;"/>
<line x1="98.700000" y1="76.000000" x2="106.700000" y2="76.000000"  style="stroke:black; stroke-linecap:round; stroke-width:0.25;"/>
<line x1="98.700000" y1="100.000000" x2="98.700000" y2="76.000000"  style="stroke:black; stroke-linecap:round; stroke-width:0.25;"/>
<line x1="98.700000" y1="100.000000" x2="98.700000" y2="100.000000"  style="stroke:black; stroke-linecap:round; stroke-width:0.25;"/>
<line x1="106.700000" y1="36.000000" x2="106.700000" y2="60.000000"  style="stroke:black; stroke-linecap:round; stroke-width:0.25;"/>
<line x1="106.700000" y1="60.000000" x2="106.700000" y2="60.000000"  style="stroke:black; stroke-linecap:round; stroke-width:0.25;"/>
<line x1="106.700000" y1="60.000000" x2="110.700000" y2="60.000000"  style="stroke:black; stroke-linecap:round; stroke-width:0.25;"/>
<line x1="106.700000" y1="68.000000" x2="110.700000" y2="68.000000"  style="stroke:black; stroke-linecap:round; stroke-width:0.25;"/>
<line x1="106.700000" y1="76.000000" x2="110.700000" y2="76.000000"  style="stroke:black; stroke-linecap:round; stroke-width:0.25;"/>
<line x1="149.400000" y1="68.000000" x2="153.400000" y2="68.000000"  style="stroke:black; stroke-linecap:round; stroke-width:0.25;"/>
<line x1="153.400000" y1="68.000000" x2="153.400000" y2="68.000000"  style="stroke:black; stroke-linecap:round; stroke-width:0.25;"/>
<line x1="153.400000" y1="68.000000" x2="157.400000" y2="68.000000"  style="stroke:black; stroke-linecap:round; stroke-width:0.25;"/>
<line x1="157.400000" y1="68.000000" x2="161.400000" y2="68.000000"  style="stroke:black; stroke-linecap:round; stroke-width:0.25;"/>
<line x1="161.400000" y1="68.000000" x2="171.400000" y2="68.000000"  style="stroke:black; stroke-linecap:round; stroke-width:0.25;"/>
</svg>
