<?xml version="1.0"?>
<svg xmlns="http://www.w3.org/2000/svg" xmlns:xlink="http://www.w3.org/1999/xlink" viewBox="0 0 160.500000 80.000000" width="80.250000mm" height="40.000000mm" version="1.1">
<a xlink:href="rilevatorePic-0x6000216ea400.svg">
<rect x="0.000000" y="0.000000" width="159.500000" height="79.000000" rx="0" ry="0" style="stroke:#000000;fill:#FFFFFF;"/>
</a>
<text x="10.000000" y="7.000000" font-family="Verdana" font-size="7"></text>
<rect x="32.000000" y="28.000000" width="38.700000" height="24.000000" rx="0" ry="0" style="stroke:#000000;fill:#FFFFFF;"/>
<text x="51.350000" y="42.000000" font-family="Verdana" font-size="7" text-anchor="middle" fill="#000000">[775] x</text>
<circle cx="34.000000" cy="30.000000" r="1"/>
<line x1="29.000000" y1="39.000000" x2="32.000000" y2="40.000000"  transform="rotate(0.000000,32.000000,40.000000)" style="stroke: black; stroke-width:0.25;"/>
<line x1="29.000000" y1="41.000000" x2="32.000000" y2="40.000000"  transform="rotate(0.000000,32.000000,40.000000)" style="stroke: black; stroke-width:0.25;"/>
<a xlink:href="loop-0x6000216e32a0.svg">
<rect x="86.700000" y="32.000000" width="25.800000" height="24.000000" rx="0" ry="0" style="stroke:#000000;fill:#FFFFFF;"/>
</a>
<a xlink:href="loop-0x6000216e32a0.svg">
<text x="99.600000" y="46.000000" font-family="Verdana" font-size="7" text-anchor="middle" fill="#000000">loop</text>
</a>
<circle cx="88.700000" cy="34.000000" r="1"/>
<line x1="83.700000" y1="43.000000" x2="86.700000" y2="44.000000"  transform="rotate(0.000000,86.700000,44.000000)" style="stroke: black; stroke-width:0.25;"/>
<line x1="83.700000" y1="45.000000" x2="86.700000" y2="44.000000"  transform="rotate(0.000000,86.700000,44.000000)" style="stroke: black; stroke-width:0.25;"/>
<line x1="114.500000" y1="44.000000" x2="114.500000" y2="40.000000"  style="stroke:black; stroke-linecap:round; stroke-width:0.25;"/>
<line x1="114.500000" y1="40.000000" x2="118.500000" y2="40.000000"  style="stroke:black; stroke-linecap:round; stroke-width:0.25;"/>
<line x1="118.500000" y1="40.000000" x2="118.500000" y2="44.000000"  style="stroke:black; stroke-linecap:round; stroke-width:0.25;"/>
<line x1="15.000000" y1="15.000000" x2="15.000000" y2="65.000000"  style="stroke: black; stroke-linecap:round; stroke-width:0.25; stroke-dasharray:3,3;"/>
<line x1="15.000000" y1="65.000000" x2="145.500000" y2="65.000000"  style="stroke: black; stroke-linecap:round; stroke-width:0.25; stroke-dasharray:3,3;"/>
<line x1="145.500000" y1="65.000000" x2="145.500000" y2="15.000000"  style="stroke: black; stroke-linecap:round; stroke-width:0.25; stroke-dasharray:3,3;"/>
<line x1="15.000000" y1="15.000000" x2="20.000000" y2="15.000000"  style="stroke: black; stroke-linecap:round; stroke-width:0.25; stroke-dasharray:3,3;"/>
<line x1="84.500000" y1="15.000000" x2="145.500000" y2="15.000000"  style="stroke: black; stroke-linecap:round; stroke-width:0.25; stroke-dasharray:3,3;"/>
<text x="20.000000" y="17.000000" font-family="Verdana" font-size="7">peakenvelope(0.1f)</text>
<line x1="147.500000" y1="39.000000" x2="150.500000" y2="40.000000"  transform="rotate(0.000000,150.500000,40.000000)" style="stroke: black; stroke-width:0.25;"/>
<line x1="147.500000" y1="41.000000" x2="150.500000" y2="40.000000"  transform="rotate(0.000000,150.500000,40.000000)" style="stroke: black; stroke-width:0.25;"/>
<line x1="10.000000" y1="40.000000" x2="20.000000" y2="40.000000"  style="stroke:black; stroke-linecap:round; stroke-width:0.25;"/>
<line x1="20.000000" y1="40.000000" x2="24.000000" y2="40.000000"  style="stroke:black; stroke-linecap:round; stroke-width:0.25;"/>
<line x1="24.000000" y1="40.000000" x2="28.000000" y2="40.000000"  style="stroke:black; stroke-linecap:round; stroke-width:0.25;"/>
<line x1="28.000000" y1="40.000000" x2="28.000000" y2="40.000000"  style="stroke:black; stroke-linecap:round; stroke-width:0.25;"/>
<line x1="28.000000" y1="40.000000" x2="32.000000" y2="40.000000"  style="stroke:black; stroke-linecap:round; stroke-width:0.25;"/>
<line x1="82.700000" y1="24.000000" x2="82.700000" y2="24.000000"  style="stroke:black; stroke-linecap:round; stroke-width:0.25;"/>
<line x1="82.700000" y1="24.000000" x2="82.700000" y2="44.000000"  style="stroke:black; stroke-linecap:round; stroke-width:0.25;"/>
<line x1="82.700000" y1="44.000000" x2="82.700000" y2="44.000000"  style="stroke:black; stroke-linecap:round; stroke-width:0.25;"/>
<line x1="82.700000" y1="44.000000" x2="86.700000" y2="44.000000"  style="stroke:black; stroke-linecap:round; stroke-width:0.25;"/>
<line x1="99.600000" y1="24.000000" x2="82.700000" y2="24.000000"  style="stroke:black; stroke-linecap:round; stroke-width:0.25;"/>
<line x1="112.500000" y1="44.000000" x2="116.500000" y2="44.000000"  style="stroke:black; stroke-linecap:round; stroke-width:0.25;"/>
<line x1="116.500000" y1="24.000000" x2="116.500000" y2="24.000000"  style="stroke:black; stroke-linecap:round; stroke-width:0.25;"/>
<line x1="116.500000" y1="40.000000" x2="116.500000" y2="24.000000"  style="stroke:black; stroke-linecap:round; stroke-width:0.25;"/>
<line x1="116.500000" y1="44.000000" x2="118.500000" y2="44.000000"  style="stroke:black; stroke-linecap:round; stroke-width:0.25;"/>
<line x1="116.500000" y1="24.000000" x2="99.600000" y2="24.000000"  style="stroke:black; stroke-linecap:round; stroke-width:0.25;"/>
<line x1="118.500000" y1="44.000000" x2="124.500000" y2="44.000000"  style="stroke:black; stroke-linecap:round; stroke-width:0.25;"/>
<line x1="124.500000" y1="40.000000" x2="132.500000" y2="40.000000"  style="stroke:black; stroke-linecap:round; stroke-width:0.25;"/>
<line x1="124.500000" y1="44.000000" x2="124.500000" y2="40.000000"  style="stroke:black; stroke-linecap:round; stroke-width:0.25;"/>
<line x1="124.500000" y1="44.000000" x2="124.500000" y2="44.000000"  style="stroke:black; stroke-linecap:round; stroke-width:0.25;"/>
<line x1="132.500000" y1="40.000000" x2="136.500000" y2="40.000000"  style="stroke:black; stroke-linecap:round; stroke-width:0.25;"/>
<line x1="136.500000" y1="40.000000" x2="140.500000" y2="40.000000"  style="stroke:black; stroke-linecap:round; stroke-width:0.25;"/>
<line x1="140.500000" y1="40.000000" x2="150.500000" y2="40.000000"  style="stroke:black; stroke-linecap:round; stroke-width:0.25;"/>
</svg>
