<?xml version="1.0"?>
<svg xmlns="http://www.w3.org/2000/svg" xmlns:xlink="http://www.w3.org/1999/xlink" viewBox="0 0 265.000000 112.000000" width="132.500000mm" height="56.000000mm" version="1.1">
<a xlink:href="frequenzaPicc-0x6000157dc2d0.svg">
<rect x="0.000000" y="0.000000" width="264.000000" height="111.000000" rx="0" ry="0" style="stroke:#000000;fill:#FFFFFF;"/>
</a>
<text x="10.000000" y="7.000000" font-family="Verdana" font-size="7"></text>
<rect x="120.500000" y="64.000000" width="24.000000" height="24.000000" rx="0" ry="0" style="stroke:#000000;fill:#FFFFFF;"/>
<text x="132.500000" y="78.000000" font-family="Verdana" font-size="7" text-anchor="middle" fill="#000000">max</text>
<circle cx="122.500000" cy="66.000000" r="1"/>
<line x1="117.500000" y1="71.000000" x2="120.500000" y2="72.000000"  transform="rotate(0.000000,120.500000,72.000000)" style="stroke: black; stroke-width:0.25;"/>
<line x1="117.500000" y1="73.000000" x2="120.500000" y2="72.000000"  transform="rotate(0.000000,120.500000,72.000000)" style="stroke: black; stroke-width:0.25;"/>
<line x1="117.500000" y1="79.000000" x2="120.500000" y2="80.000000"  transform="rotate(0.000000,120.500000,80.000000)" style="stroke: black; stroke-width:0.25;"/>
<line x1="117.500000" y1="81.000000" x2="120.500000" y2="80.000000"  transform="rotate(0.000000,120.500000,80.000000)" style="stroke: black; stroke-width:0.25;"/>
<a xlink:href="reset-0x6000057bbba0.svg">
<rect x="88.000000" y="24.000000" width="129.000000" height="24.000000" rx="0" ry="0" style="stroke:#000000;fill:#FFFFFF;"/>
</a>
<a xlink:href="reset-0x6000057bbba0.svg">
<text x="152.500000" y="38.000000" font-family="Verdana" font-size="7" text-anchor="middle" fill="#000000">reset(1.7f,(1...in) : /) : -)</text>
</a>
<circle cx="215.000000" cy="46.000000" r="1"/>
<rect x="48.000000" y="28.000000" width="24.000000" height="24.000000" rx="0" ry="0" style="stroke:#000000;fill:#FFFFFF;"/>
<text x="60.000000" y="42.000000" font-family="Verdana" font-size="7" text-anchor="middle" fill="#000000">*</text>
<circle cx="70.000000" cy="50.000000" r="1"/>
<line x1="75.000000" y1="43.000000" x2="72.000000" y2="44.000000"  transform="rotate(0.000000,72.000000,44.000000)" style="stroke: black; stroke-width:0.25;"/>
<line x1="75.000000" y1="45.000000" x2="72.000000" y2="44.000000"  transform="rotate(0.000000,72.000000,44.000000)" style="stroke: black; stroke-width:0.25;"/>
<line x1="75.000000" y1="35.000000" x2="72.000000" y2="36.000000"  transform="rotate(0.000000,72.000000,36.000000)" style="stroke: black; stroke-width:0.25;"/>
<line x1="75.000000" y1="37.000000" x2="72.000000" y2="36.000000"  transform="rotate(0.000000,72.000000,36.000000)" style="stroke: black; stroke-width:0.25;"/>
<line x1="219.000000" y1="76.000000" x2="219.000000" y2="72.000000"  style="stroke:black; stroke-linecap:round; stroke-width:0.25;"/>
<line x1="219.000000" y1="72.000000" x2="223.000000" y2="72.000000"  style="stroke:black; stroke-linecap:round; stroke-width:0.25;"/>
<line x1="223.000000" y1="72.000000" x2="223.000000" y2="76.000000"  style="stroke:black; stroke-linecap:round; stroke-width:0.25;"/>
<line x1="15.000000" y1="15.000000" x2="15.000000" y2="97.000000"  style="stroke: black; stroke-linecap:round; stroke-width:0.25; stroke-dasharray:3,3;"/>
<line x1="15.000000" y1="97.000000" x2="250.000000" y2="97.000000"  style="stroke: black; stroke-linecap:round; stroke-width:0.25; stroke-dasharray:3,3;"/>
<line x1="250.000000" y1="97.000000" x2="250.000000" y2="15.000000"  style="stroke: black; stroke-linecap:round; stroke-width:0.25; stroke-dasharray:3,3;"/>
<line x1="15.000000" y1="15.000000" x2="20.000000" y2="15.000000"  style="stroke: black; stroke-linecap:round; stroke-width:0.25; stroke-dasharray:3,3;"/>
<line x1="84.500000" y1="15.000000" x2="250.000000" y2="15.000000"  style="stroke: black; stroke-linecap:round; stroke-width:0.25; stroke-dasharray:3,3;"/>
<text x="20.000000" y="17.000000" font-family="Verdana" font-size="7">peakMaxTimer(1.7f)</text>
<line x1="252.000000" y1="55.000000" x2="255.000000" y2="56.000000"  transform="rotate(0.000000,255.000000,56.000000)" style="stroke: black; stroke-width:0.25;"/>
<line x1="252.000000" y1="57.000000" x2="255.000000" y2="56.000000"  transform="rotate(0.000000,255.000000,56.000000)" style="stroke: black; stroke-width:0.25;"/>
<line x1="10.000000" y1="56.000000" x2="20.000000" y2="56.000000"  style="stroke:black; stroke-linecap:round; stroke-width:0.25;"/>
<line x1="20.000000" y1="56.000000" x2="24.000000" y2="56.000000"  style="stroke:black; stroke-linecap:round; stroke-width:0.25;"/>
<line x1="24.000000" y1="56.000000" x2="28.000000" y2="56.000000"  style="stroke:black; stroke-linecap:round; stroke-width:0.25;"/>
<line x1="28.000000" y1="56.000000" x2="36.000000" y2="56.000000"  style="stroke:black; stroke-linecap:round; stroke-width:0.25;"/>
<line x1="36.000000" y1="56.000000" x2="36.000000" y2="80.000000"  style="stroke:black; stroke-linecap:round; stroke-width:0.25;"/>
<line x1="36.000000" y1="80.000000" x2="36.000000" y2="80.000000"  style="stroke:black; stroke-linecap:round; stroke-width:0.25;"/>
<line x1="36.000000" y1="80.000000" x2="44.000000" y2="80.000000"  style="stroke:black; stroke-linecap:round; stroke-width:0.25;"/>
<line x1="44.000000" y1="40.000000" x2="44.000000" y2="40.000000"  style="stroke:black; stroke-linecap:round; stroke-width:0.25;"/>
<line x1="44.000000" y1="40.000000" x2="44.000000" y2="72.000000"  style="stroke:black; stroke-linecap:round; stroke-width:0.25;"/>
<line x1="44.000000" y1="72.000000" x2="44.000000" y2="72.000000"  style="stroke:black; stroke-linecap:round; stroke-width:0.25;"/>
<line x1="44.000000" y1="72.000000" x2="116.500000" y2="72.000000"  style="stroke:black; stroke-linecap:round; stroke-width:0.25;"/>
<line x1="44.000000" y1="80.000000" x2="116.500000" y2="80.000000"  style="stroke:black; stroke-linecap:round; stroke-width:0.25;"/>
<line x1="48.000000" y1="40.000000" x2="44.000000" y2="40.000000"  style="stroke:black; stroke-linecap:round; stroke-width:0.25;"/>
<line x1="76.000000" y1="36.000000" x2="72.000000" y2="36.000000"  style="stroke:black; stroke-linecap:round; stroke-width:0.25;"/>
<line x1="76.000000" y1="44.000000" x2="72.000000" y2="44.000000"  style="stroke:black; stroke-linecap:round; stroke-width:0.25;"/>
<line x1="76.000000" y1="44.000000" x2="76.000000" y2="44.000000"  style="stroke:black; stroke-linecap:round; stroke-width:0.25;"/>
<line x1="76.000000" y1="56.000000" x2="76.000000" y2="44.000000"  style="stroke:black; stroke-linecap:round; stroke-width:0.25;"/>
<line x1="84.000000" y1="36.000000" x2="76.000000" y2="36.000000"  style="stroke:black; stroke-linecap:round; stroke-width:0.25;"/>
<line x1="84.000000" y1="56.000000" x2="76.000000" y2="56.000000"  style="stroke:black; stroke-linecap:round; stroke-width:0.25;"/>
<line x1="88.000000" y1="36.000000" x2="84.000000" y2="36.000000"  style="stroke:black; stroke-linecap:round; stroke-width:0.25;"/>
<line x1="116.500000" y1="72.000000" x2="120.500000" y2="72.000000"  style="stroke:black; stroke-linecap:round; stroke-width:0.25;"/>
<line x1="116.500000" y1="80.000000" x2="120.500000" y2="80.000000"  style="stroke:black; stroke-linecap:round; stroke-width:0.25;"/>
<line x1="144.500000" y1="76.000000" x2="148.500000" y2="76.000000"  style="stroke:black; stroke-linecap:round; stroke-width:0.25;"/>
<line x1="148.500000" y1="76.000000" x2="221.000000" y2="76.000000"  style="stroke:black; stroke-linecap:round; stroke-width:0.25;"/>
<line x1="152.500000" y1="56.000000" x2="84.000000" y2="56.000000"  style="stroke:black; stroke-linecap:round; stroke-width:0.25;"/>
<line x1="221.000000" y1="56.000000" x2="152.500000" y2="56.000000"  style="stroke:black; stroke-linecap:round; stroke-width:0.25;"/>
<line x1="221.000000" y1="56.000000" x2="221.000000" y2="56.000000"  style="stroke:black; stroke-linecap:round; stroke-width:0.25;"/>
<line x1="221.000000" y1="72.000000" x2="221.000000" y2="56.000000"  style="stroke:black; stroke-linecap:round; stroke-width:0.25;"/>
<line x1="221.000000" y1="76.000000" x2="223.000000" y2="76.000000"  style="stroke:black; stroke-linecap:round; stroke-width:0.25;"/>
<line x1="223.000000" y1="76.000000" x2="229.000000" y2="76.000000"  style="stroke:black; stroke-linecap:round; stroke-width:0.25;"/>
<line x1="229.000000" y1="56.000000" x2="237.000000" y2="56.000000"  style="stroke:black; stroke-linecap:round; stroke-width:0.25;"/>
<line x1="229.000000" y1="76.000000" x2="229.000000" y2="56.000000"  style="stroke:black; stroke-linecap:round; stroke-width:0.25;"/>
<line x1="229.000000" y1="76.000000" x2="229.000000" y2="76.000000"  style="stroke:black; stroke-linecap:round; stroke-width:0.25;"/>
<line x1="237.000000" y1="56.000000" x2="241.000000" y2="56.000000"  style="stroke:black; stroke-linecap:round; stroke-width:0.25;"/>
<line x1="241.000000" y1="56.000000" x2="245.000000" y2="56.000000"  style="stroke:black; stroke-linecap:round; stroke-width:0.25;"/>
<line x1="245.000000" y1="56.000000" x2="255.000000" y2="56.000000"  style="stroke:black; stroke-linecap:round; stroke-width:0.25;"/>
</svg>
