<?xml version="1.0"?>
<svg xmlns="http://www.w3.org/2000/svg" xmlns:xlink="http://www.w3.org/1999/xlink" viewBox="0 0 192.500000 88.000000" width="96.250000mm" height="44.000000mm" version="1.1">
<a xlink:href="fDev3-0x6000196b4c60.svg">
<rect x="0.000000" y="0.000000" width="191.500000" height="87.000000" rx="0" ry="0" style="stroke:#000000;fill:#FFFFFF;"/>
</a>
<text x="10.000000" y="7.000000" font-family="Verdana" font-size="7"></text>
<rect x="32.000000" y="32.000000" width="38.700000" height="24.000000" rx="0" ry="0" style="stroke:#000000;fill:#FFFFFF;"/>
<text x="51.350000" y="46.000000" font-family="Verdana" font-size="7" text-anchor="middle" fill="#000000">[535] x</text>
<circle cx="34.000000" cy="34.000000" r="1"/>
<line x1="29.000000" y1="43.000000" x2="32.000000" y2="44.000000"  transform="rotate(0.000000,32.000000,44.000000)" style="stroke: black; stroke-width:0.25;"/>
<line x1="29.000000" y1="45.000000" x2="32.000000" y2="44.000000"  transform="rotate(0.000000,32.000000,44.000000)" style="stroke: black; stroke-width:0.25;"/>
<a xlink:href="loop-0x6000196b47e0.svg">
<rect x="94.700000" y="40.000000" width="25.800000" height="24.000000" rx="0" ry="0" style="stroke:#000000;fill:#FFFFFF;"/>
</a>
<a xlink:href="loop-0x6000196b47e0.svg">
<text x="107.600000" y="54.000000" font-family="Verdana" font-size="7" text-anchor="middle" fill="#000000">loop</text>
</a>
<circle cx="96.700000" cy="42.000000" r="1"/>
<line x1="91.700000" y1="47.000000" x2="94.700000" y2="48.000000"  transform="rotate(0.000000,94.700000,48.000000)" style="stroke: black; stroke-width:0.25;"/>
<line x1="91.700000" y1="49.000000" x2="94.700000" y2="48.000000"  transform="rotate(0.000000,94.700000,48.000000)" style="stroke: black; stroke-width:0.25;"/>
<line x1="91.700000" y1="55.000000" x2="94.700000" y2="56.000000"  transform="rotate(0.000000,94.700000,56.000000)" style="stroke: black; stroke-width:0.25;"/>
<line x1="91.700000" y1="57.000000" x2="94.700000" y2="56.000000"  transform="rotate(0.000000,94.700000,56.000000)" style="stroke: black; stroke-width:0.25;"/>
<line x1="122.500000" y1="48.000000" x2="122.500000" y2="44.000000"  style="stroke:black; stroke-linecap:round; stroke-width:0.25;"/>
<line x1="122.500000" y1="44.000000" x2="126.500000" y2="44.000000"  style="stroke:black; stroke-linecap:round; stroke-width:0.25;"/>
<line x1="126.500000" y1="44.000000" x2="126.500000" y2="48.000000"  style="stroke:black; stroke-linecap:round; stroke-width:0.25;"/>
<line x1="130.500000" y1="56.000000" x2="130.500000" y2="52.000000"  style="stroke:black; stroke-linecap:round; stroke-width:0.25;"/>
<line x1="130.500000" y1="52.000000" x2="134.500000" y2="52.000000"  style="stroke:black; stroke-linecap:round; stroke-width:0.25;"/>
<line x1="134.500000" y1="52.000000" x2="134.500000" y2="56.000000"  style="stroke:black; stroke-linecap:round; stroke-width:0.25;"/>
<line x1="15.000000" y1="15.000000" x2="15.000000" y2="73.000000"  style="stroke: black; stroke-linecap:round; stroke-width:0.25; stroke-dasharray:3,3;"/>
<line x1="15.000000" y1="73.000000" x2="177.500000" y2="73.000000"  style="stroke: black; stroke-linecap:round; stroke-width:0.25; stroke-dasharray:3,3;"/>
<line x1="177.500000" y1="73.000000" x2="177.500000" y2="15.000000"  style="stroke: black; stroke-linecap:round; stroke-width:0.25; stroke-dasharray:3,3;"/>
<line x1="15.000000" y1="15.000000" x2="20.000000" y2="15.000000"  style="stroke: black; stroke-linecap:round; stroke-width:0.25; stroke-dasharray:3,3;"/>
<line x1="68.375000" y1="15.000000" x2="177.500000" y2="15.000000"  style="stroke: black; stroke-linecap:round; stroke-width:0.25; stroke-dasharray:3,3;"/>
<text x="20.000000" y="17.000000" font-family="Verdana" font-size="7">peakHolder(6)</text>
<line x1="179.500000" y1="43.000000" x2="182.500000" y2="44.000000"  transform="rotate(0.000000,182.500000,44.000000)" style="stroke: black; stroke-width:0.25;"/>
<line x1="179.500000" y1="45.000000" x2="182.500000" y2="44.000000"  transform="rotate(0.000000,182.500000,44.000000)" style="stroke: black; stroke-width:0.25;"/>
<line x1="10.000000" y1="44.000000" x2="20.000000" y2="44.000000"  style="stroke:black; stroke-linecap:round; stroke-width:0.25;"/>
<line x1="20.000000" y1="44.000000" x2="24.000000" y2="44.000000"  style="stroke:black; stroke-linecap:round; stroke-width:0.25;"/>
<line x1="24.000000" y1="44.000000" x2="28.000000" y2="44.000000"  style="stroke:black; stroke-linecap:round; stroke-width:0.25;"/>
<line x1="28.000000" y1="44.000000" x2="28.000000" y2="44.000000"  style="stroke:black; stroke-linecap:round; stroke-width:0.25;"/>
<line x1="28.000000" y1="44.000000" x2="32.000000" y2="44.000000"  style="stroke:black; stroke-linecap:round; stroke-width:0.25;"/>
<line x1="82.700000" y1="24.000000" x2="82.700000" y2="56.000000"  style="stroke:black; stroke-linecap:round; stroke-width:0.25;"/>
<line x1="82.700000" y1="56.000000" x2="90.700000" y2="56.000000"  style="stroke:black; stroke-linecap:round; stroke-width:0.25;"/>
<line x1="90.700000" y1="24.000000" x2="82.700000" y2="24.000000"  style="stroke:black; stroke-linecap:round; stroke-width:0.25;"/>
<line x1="90.700000" y1="32.000000" x2="90.700000" y2="32.000000"  style="stroke:black; stroke-linecap:round; stroke-width:0.25;"/>
<line x1="90.700000" y1="32.000000" x2="90.700000" y2="48.000000"  style="stroke:black; stroke-linecap:round; stroke-width:0.25;"/>
<line x1="90.700000" y1="48.000000" x2="90.700000" y2="48.000000"  style="stroke:black; stroke-linecap:round; stroke-width:0.25;"/>
<line x1="90.700000" y1="48.000000" x2="94.700000" y2="48.000000"  style="stroke:black; stroke-linecap:round; stroke-width:0.25;"/>
<line x1="90.700000" y1="56.000000" x2="94.700000" y2="56.000000"  style="stroke:black; stroke-linecap:round; stroke-width:0.25;"/>
<line x1="107.600000" y1="24.000000" x2="90.700000" y2="24.000000"  style="stroke:black; stroke-linecap:round; stroke-width:0.25;"/>
<line x1="107.600000" y1="32.000000" x2="90.700000" y2="32.000000"  style="stroke:black; stroke-linecap:round; stroke-width:0.25;"/>
<line x1="120.500000" y1="48.000000" x2="124.500000" y2="48.000000"  style="stroke:black; stroke-linecap:round; stroke-width:0.25;"/>
<line x1="120.500000" y1="56.000000" x2="124.500000" y2="56.000000"  style="stroke:black; stroke-linecap:round; stroke-width:0.25;"/>
<line x1="124.500000" y1="32.000000" x2="124.500000" y2="32.000000"  style="stroke:black; stroke-linecap:round; stroke-width:0.25;"/>
<line x1="124.500000" y1="44.000000" x2="124.500000" y2="32.000000"  style="stroke:black; stroke-linecap:round; stroke-width:0.25;"/>
<line x1="124.500000" y1="48.000000" x2="126.500000" y2="48.000000"  style="stroke:black; stroke-linecap:round; stroke-width:0.25;"/>
<line x1="124.500000" y1="56.000000" x2="134.500000" y2="56.000000"  style="stroke:black; stroke-linecap:round; stroke-width:0.25;"/>
<line x1="124.500000" y1="24.000000" x2="107.600000" y2="24.000000"  style="stroke:black; stroke-linecap:round; stroke-width:0.25;"/>
<line x1="124.500000" y1="32.000000" x2="107.600000" y2="32.000000"  style="stroke:black; stroke-linecap:round; stroke-width:0.25;"/>
<line x1="132.500000" y1="24.000000" x2="124.500000" y2="24.000000"  style="stroke:black; stroke-linecap:round; stroke-width:0.25;"/>
<line x1="132.500000" y1="52.000000" x2="132.500000" y2="24.000000"  style="stroke:black; stroke-linecap:round; stroke-width:0.25;"/>
<line x1="134.500000" y1="56.000000" x2="140.500000" y2="56.000000"  style="stroke:black; stroke-linecap:round; stroke-width:0.25;"/>
<line x1="140.500000" y1="56.000000" x2="148.500000" y2="56.000000"  style="stroke:black; stroke-linecap:round; stroke-width:0.25;"/>
<line x1="148.500000" y1="44.040000" x2="156.500000" y2="44.040000"  style="stroke:black; stroke-linecap:round; stroke-width:0.25;"/>
<line x1="148.500000" y1="56.000000" x2="148.500000" y2="44.040000"  style="stroke:black; stroke-linecap:round; stroke-width:0.25;"/>
<line x1="156.500000" y1="44.000000" x2="164.500000" y2="44.000000"  style="stroke:black; stroke-linecap:round; stroke-width:0.25;"/>
<line x1="156.500000" y1="44.040000" x2="156.500000" y2="44.000000"  style="stroke:black; stroke-linecap:round; stroke-width:0.25;"/>
<line x1="156.500000" y1="44.040000" x2="156.500000" y2="44.040000"  style="stroke:black; stroke-linecap:round; stroke-width:0.25;"/>
<line x1="164.500000" y1="44.000000" x2="168.500000" y2="44.000000"  style="stroke:black; stroke-linecap:round; stroke-width:0.25;"/>
<line x1="168.500000" y1="44.000000" x2="172.500000" y2="44.000000"  style="stroke:black; stroke-linecap:round; stroke-width:0.25;"/>
<line x1="172.500000" y1="44.000000" x2="182.500000" y2="44.000000"  style="stroke:black; stroke-linecap:round; stroke-width:0.25;"/>
</svg>
