<?xml version="1.0"?>
<svg xmlns="http://www.w3.org/2000/svg" xmlns:xlink="http://www.w3.org/1999/xlink" viewBox="0 0 305.500000 80.000000" width="152.750000mm" height="40.000000mm" version="1.1">
<a xlink:href="osc-0x600009431a70.svg">
<rect x="0.000000" y="0.000000" width="304.500000" height="79.000000" rx="0" ry="0" style="stroke:#000000;fill:#FFFFFF;"/>
</a>
<text x="10.000000" y="7.000000" font-family="Verdana" font-size="7"></text>
<a xlink:href="phasor-0x6000094317a0.svg">
<rect x="24.000000" y="28.000000" width="154.800000" height="24.000000" rx="0" ry="0" style="stroke:#000000;fill:#FFFFFF;"/>
</a>
<a xlink:href="phasor-0x6000094317a0.svg">
<text x="101.400000" y="42.000000" font-family="Verdana" font-size="7" text-anchor="middle" fill="#000000">phasor_imp(1,...,10 : *) : +)(0)(0)</text>
</a>
<circle cx="26.000000" cy="30.000000" r="1"/>
<rect x="194.800000" y="32.000000" width="38.700000" height="24.000000" rx="0" ry="0" style="stroke:#000000;fill:#FFFFFF;"/>
<text x="214.150000" y="46.000000" font-family="Verdana" font-size="7" text-anchor="middle" fill="#000000">65536.0f</text>
<circle cx="196.800000" cy="34.000000" r="1"/>
<rect x="249.500000" y="28.000000" width="24.000000" height="24.000000" rx="0" ry="0" style="stroke:#000000;fill:#FFFFFF;"/>
<text x="261.500000" y="42.000000" font-family="Verdana" font-size="7" text-anchor="middle" fill="#000000">*</text>
<circle cx="251.500000" cy="30.000000" r="1"/>
<line x1="246.500000" y1="35.000000" x2="249.500000" y2="36.000000"  transform="rotate(0.000000,249.500000,36.000000)" style="stroke: black; stroke-width:0.25;"/>
<line x1="246.500000" y1="37.000000" x2="249.500000" y2="36.000000"  transform="rotate(0.000000,249.500000,36.000000)" style="stroke: black; stroke-width:0.25;"/>
<line x1="246.500000" y1="43.000000" x2="249.500000" y2="44.000000"  transform="rotate(0.000000,249.500000,44.000000)" style="stroke: black; stroke-width:0.25;"/>
<line x1="246.500000" y1="45.000000" x2="249.500000" y2="44.000000"  transform="rotate(0.000000,249.500000,44.000000)" style="stroke: black; stroke-width:0.25;"/>
<line x1="15.000000" y1="15.000000" x2="15.000000" y2="65.000000"  style="stroke: black; stroke-linecap:round; stroke-width:0.25; stroke-dasharray:3,3;"/>
<line x1="15.000000" y1="65.000000" x2="290.500000" y2="65.000000"  style="stroke: black; stroke-linecap:round; stroke-width:0.25; stroke-dasharray:3,3;"/>
<line x1="290.500000" y1="65.000000" x2="290.500000" y2="15.000000"  style="stroke: black; stroke-linecap:round; stroke-width:0.25; stroke-dasharray:3,3;"/>
<line x1="15.000000" y1="15.000000" x2="20.000000" y2="15.000000"  style="stroke: black; stroke-linecap:round; stroke-width:0.25; stroke-dasharray:3,3;"/>
<line x1="119.975000" y1="15.000000" x2="290.500000" y2="15.000000"  style="stroke: black; stroke-linecap:round; stroke-width:0.25; stroke-dasharray:3,3;"/>
<text x="20.000000" y="17.000000" font-family="Verdana" font-size="7">phasor(65536)...,10 : *) : +)</text>
<line x1="292.500000" y1="39.000000" x2="295.500000" y2="40.000000"  transform="rotate(0.000000,295.500000,40.000000)" style="stroke: black; stroke-width:0.25;"/>
<line x1="292.500000" y1="41.000000" x2="295.500000" y2="40.000000"  transform="rotate(0.000000,295.500000,40.000000)" style="stroke: black; stroke-width:0.25;"/>
<line x1="178.800000" y1="40.000000" x2="182.800000" y2="40.000000"  style="stroke:black; stroke-linecap:round; stroke-width:0.25;"/>
<line x1="182.800000" y1="24.000000" x2="190.800000" y2="24.000000"  style="stroke:black; stroke-linecap:round; stroke-width:0.25;"/>
<line x1="182.800000" y1="40.000000" x2="182.800000" y2="24.000000"  style="stroke:black; stroke-linecap:round; stroke-width:0.25;"/>
<line x1="182.800000" y1="40.000000" x2="182.800000" y2="40.000000"  style="stroke:black; stroke-linecap:round; stroke-width:0.25;"/>
<line x1="190.800000" y1="24.000000" x2="214.150000" y2="24.000000"  style="stroke:black; stroke-linecap:round; stroke-width:0.25;"/>
<line x1="214.150000" y1="24.000000" x2="237.500000" y2="24.000000"  style="stroke:black; stroke-linecap:round; stroke-width:0.25;"/>
<line x1="233.500000" y1="44.000000" x2="237.500000" y2="44.000000"  style="stroke:black; stroke-linecap:round; stroke-width:0.25;"/>
<line x1="237.500000" y1="24.000000" x2="245.500000" y2="24.000000"  style="stroke:black; stroke-linecap:round; stroke-width:0.25;"/>
<line x1="237.500000" y1="44.000000" x2="245.500000" y2="44.000000"  style="stroke:black; stroke-linecap:round; stroke-width:0.25;"/>
<line x1="245.500000" y1="24.000000" x2="245.500000" y2="36.000000"  style="stroke:black; stroke-linecap:round; stroke-width:0.25;"/>
<line x1="245.500000" y1="36.000000" x2="245.500000" y2="36.000000"  style="stroke:black; stroke-linecap:round; stroke-width:0.25;"/>
<line x1="245.500000" y1="36.000000" x2="249.500000" y2="36.000000"  style="stroke:black; stroke-linecap:round; stroke-width:0.25;"/>
<line x1="245.500000" y1="44.000000" x2="249.500000" y2="44.000000"  style="stroke:black; stroke-linecap:round; stroke-width:0.25;"/>
<line x1="273.500000" y1="40.000000" x2="277.500000" y2="40.000000"  style="stroke:black; stroke-linecap:round; stroke-width:0.25;"/>
<line x1="277.500000" y1="40.000000" x2="277.500000" y2="40.000000"  style="stroke:black; stroke-linecap:round; stroke-width:0.25;"/>
<line x1="277.500000" y1="40.000000" x2="281.500000" y2="40.000000"  style="stroke:black; stroke-linecap:round; stroke-width:0.25;"/>
<line x1="281.500000" y1="40.000000" x2="285.500000" y2="40.000000"  style="stroke:black; stroke-linecap:round; stroke-width:0.25;"/>
<line x1="285.500000" y1="40.000000" x2="295.500000" y2="40.000000"  style="stroke:black; stroke-linecap:round; stroke-width:0.25;"/>
</svg>
