<?xml version="1.0"?>
<svg xmlns="http://www.w3.org/2000/svg" xmlns:xlink="http://www.w3.org/1999/xlink" viewBox="0 0 364.500000 240.000000" width="182.250000mm" height="120.000000mm" version="1.1">
<a xlink:href="reset-0x600005710630.svg">
<rect x="0.000000" y="0.000000" width="363.500000" height="239.000000" rx="0" ry="0" style="stroke:#000000;fill:#FFFFFF;"/>
</a>
<text x="10.000000" y="7.000000" font-family="Verdana" font-size="7"></text>
<rect x="64.250000" y="34.000000" width="24.000000" height="24.000000" rx="0" ry="0" style="stroke:#000000;fill:#FFFFFF;"/>
<text x="76.250000" y="48.000000" font-family="Verdana" font-size="7" text-anchor="middle" fill="#000000">1</text>
<circle cx="66.250000" cy="36.000000" r="1"/>
<line x1="55.250000" y1="25.000000" x2="55.250000" y2="67.000000"  style="stroke: black; stroke-linecap:round; stroke-width:0.25; stroke-dasharray:3,3;"/>
<line x1="55.250000" y1="67.000000" x2="97.250000" y2="67.000000"  style="stroke: black; stroke-linecap:round; stroke-width:0.25; stroke-dasharray:3,3;"/>
<line x1="97.250000" y1="67.000000" x2="97.250000" y2="25.000000"  style="stroke: black; stroke-linecap:round; stroke-width:0.25; stroke-dasharray:3,3;"/>
<line x1="55.250000" y1="25.000000" x2="60.250000" y2="25.000000"  style="stroke: black; stroke-linecap:round; stroke-width:0.25; stroke-dasharray:3,3;"/>
<line x1="97.250000" y1="25.000000" x2="97.250000" y2="25.000000"  style="stroke: black; stroke-linecap:round; stroke-width:0.25; stroke-dasharray:3,3;"/>
<text x="60.250000" y="27.000000" font-family="Verdana" font-size="7">signum(90)</text>
<a xlink:href="SR-0x6000017c2e20.svg">
<rect x="64.250000" y="76.000000" width="24.000000" height="24.000000" rx="0" ry="0" style="stroke:#000000;fill:#FFFFFF;"/>
</a>
<a xlink:href="SR-0x6000017c2e20.svg">
<text x="76.250000" y="90.000000" font-family="Verdana" font-size="7" text-anchor="middle" fill="#000000">SR</text>
</a>
<circle cx="66.250000" cy="78.000000" r="1"/>
<rect x="114.250000" y="50.000000" width="24.000000" height="24.000000" rx="0" ry="0" style="stroke:#000000;fill:#FFFFFF;"/>
<text x="126.250000" y="64.000000" font-family="Verdana" font-size="7" text-anchor="middle" fill="#000000">/</text>
<circle cx="116.250000" cy="52.000000" r="1"/>
<line x1="111.250000" y1="57.000000" x2="114.250000" y2="58.000000"  transform="rotate(0.000000,114.250000,58.000000)" style="stroke: black; stroke-width:0.25;"/>
<line x1="111.250000" y1="59.000000" x2="114.250000" y2="58.000000"  transform="rotate(0.000000,114.250000,58.000000)" style="stroke: black; stroke-width:0.25;"/>
<line x1="111.250000" y1="65.000000" x2="114.250000" y2="66.000000"  transform="rotate(0.000000,114.250000,66.000000)" style="stroke: black; stroke-width:0.25;"/>
<line x1="111.250000" y1="67.000000" x2="114.250000" y2="66.000000"  transform="rotate(0.000000,114.250000,66.000000)" style="stroke: black; stroke-width:0.25;"/>
<rect x="64.250000" y="118.000000" width="24.000000" height="24.000000" rx="0" ry="0" style="stroke:#000000;fill:#FFFFFF;"/>
<text x="76.250000" y="132.000000" font-family="Verdana" font-size="7" text-anchor="middle" fill="#000000">1</text>
<circle cx="66.250000" cy="120.000000" r="1"/>
<line x1="55.250000" y1="109.000000" x2="55.250000" y2="151.000000"  style="stroke: black; stroke-linecap:round; stroke-width:0.25; stroke-dasharray:3,3;"/>
<line x1="55.250000" y1="151.000000" x2="97.250000" y2="151.000000"  style="stroke: black; stroke-linecap:round; stroke-width:0.25; stroke-dasharray:3,3;"/>
<line x1="97.250000" y1="151.000000" x2="97.250000" y2="109.000000"  style="stroke: black; stroke-linecap:round; stroke-width:0.25; stroke-dasharray:3,3;"/>
<line x1="55.250000" y1="109.000000" x2="60.250000" y2="109.000000"  style="stroke: black; stroke-linecap:round; stroke-width:0.25; stroke-dasharray:3,3;"/>
<line x1="97.250000" y1="109.000000" x2="97.250000" y2="109.000000"  style="stroke: black; stroke-linecap:round; stroke-width:0.25; stroke-dasharray:3,3;"/>
<text x="60.250000" y="111.000000" font-family="Verdana" font-size="7">signum(90)</text>
<rect x="43.350000" y="160.000000" width="25.800000" height="24.000000" rx="0" ry="0" style="stroke:#000000;fill:#FFFFFF;"/>
<text x="56.250000" y="174.000000" font-family="Verdana" font-size="7" text-anchor="middle" fill="#000000">1.5f</text>
<circle cx="45.350000" cy="162.000000" r="1"/>
<a xlink:href="samp2sec-0x6000014250e0.svg">
<rect x="24.000000" y="192.000000" width="64.500000" height="24.000000" rx="0" ry="0" style="stroke:#000000;fill:#FFFFFF;"/>
</a>
<a xlink:href="samp2sec-0x6000014250e0.svg">
<text x="56.250000" y="206.000000" font-family="Verdana" font-size="7" text-anchor="middle" fill="#000000">samp2sec(100)</text>
</a>
<circle cx="26.000000" cy="194.000000" r="1"/>
<rect x="104.500000" y="176.000000" width="24.000000" height="24.000000" rx="0" ry="0" style="stroke:#000000;fill:#FFFFFF;"/>
<text x="116.500000" y="190.000000" font-family="Verdana" font-size="7" text-anchor="middle" fill="#000000">-</text>
<circle cx="106.500000" cy="178.000000" r="1"/>
<line x1="101.500000" y1="183.000000" x2="104.500000" y2="184.000000"  transform="rotate(0.000000,104.500000,184.000000)" style="stroke: black; stroke-width:0.25;"/>
<line x1="101.500000" y1="185.000000" x2="104.500000" y2="184.000000"  transform="rotate(0.000000,104.500000,184.000000)" style="stroke: black; stroke-width:0.25;"/>
<line x1="101.500000" y1="191.000000" x2="104.500000" y2="192.000000"  transform="rotate(0.000000,104.500000,192.000000)" style="stroke: black; stroke-width:0.25;"/>
<line x1="101.500000" y1="193.000000" x2="104.500000" y2="192.000000"  transform="rotate(0.000000,104.500000,192.000000)" style="stroke: black; stroke-width:0.25;"/>
<rect x="144.500000" y="150.000000" width="24.000000" height="24.000000" rx="0" ry="0" style="stroke:#000000;fill:#FFFFFF;"/>
<text x="156.500000" y="164.000000" font-family="Verdana" font-size="7" text-anchor="middle" fill="#000000">/</text>
<circle cx="146.500000" cy="152.000000" r="1"/>
<line x1="141.500000" y1="157.000000" x2="144.500000" y2="158.000000"  transform="rotate(0.000000,144.500000,158.000000)" style="stroke: black; stroke-width:0.25;"/>
<line x1="141.500000" y1="159.000000" x2="144.500000" y2="158.000000"  transform="rotate(0.000000,144.500000,158.000000)" style="stroke: black; stroke-width:0.25;"/>
<line x1="141.500000" y1="165.000000" x2="144.500000" y2="166.000000"  transform="rotate(0.000000,144.500000,166.000000)" style="stroke: black; stroke-width:0.25;"/>
<line x1="141.500000" y1="167.000000" x2="144.500000" y2="166.000000"  transform="rotate(0.000000,144.500000,166.000000)" style="stroke: black; stroke-width:0.25;"/>
<rect x="184.500000" y="108.000000" width="24.000000" height="24.000000" rx="0" ry="0" style="stroke:#000000;fill:#FFFFFF;"/>
<text x="196.500000" y="122.000000" font-family="Verdana" font-size="7" text-anchor="middle" fill="#000000">*</text>
<circle cx="186.500000" cy="110.000000" r="1"/>
<line x1="181.500000" y1="115.000000" x2="184.500000" y2="116.000000"  transform="rotate(0.000000,184.500000,116.000000)" style="stroke: black; stroke-width:0.25;"/>
<line x1="181.500000" y1="117.000000" x2="184.500000" y2="116.000000"  transform="rotate(0.000000,184.500000,116.000000)" style="stroke: black; stroke-width:0.25;"/>
<line x1="181.500000" y1="123.000000" x2="184.500000" y2="124.000000"  transform="rotate(0.000000,184.500000,124.000000)" style="stroke: black; stroke-width:0.25;"/>
<line x1="181.500000" y1="125.000000" x2="184.500000" y2="124.000000"  transform="rotate(0.000000,184.500000,124.000000)" style="stroke: black; stroke-width:0.25;"/>
<rect x="262.500000" y="138.000000" width="24.000000" height="24.000000" rx="0" ry="0" style="stroke:#000000;fill:#FFFFFF;"/>
<text x="274.500000" y="152.000000" font-family="Verdana" font-size="7" text-anchor="middle" fill="#000000">+</text>
<circle cx="264.500000" cy="140.000000" r="1"/>
<line x1="259.500000" y1="145.000000" x2="262.500000" y2="146.000000"  transform="rotate(0.000000,262.500000,146.000000)" style="stroke: black; stroke-width:0.25;"/>
<line x1="259.500000" y1="147.000000" x2="262.500000" y2="146.000000"  transform="rotate(0.000000,262.500000,146.000000)" style="stroke: black; stroke-width:0.25;"/>
<line x1="259.500000" y1="153.000000" x2="262.500000" y2="154.000000"  transform="rotate(0.000000,262.500000,154.000000)" style="stroke: black; stroke-width:0.25;"/>
<line x1="259.500000" y1="155.000000" x2="262.500000" y2="154.000000"  transform="rotate(0.000000,262.500000,154.000000)" style="stroke: black; stroke-width:0.25;"/>
<rect x="282.500000" y="88.000000" width="24.000000" height="24.000000" rx="0" ry="0" style="stroke:#000000;fill:#FFFFFF;"/>
<text x="294.500000" y="102.000000" font-family="Verdana" font-size="7" text-anchor="middle" fill="#000000">1</text>
<circle cx="304.500000" cy="110.000000" r="1"/>
<line x1="273.500000" y1="79.000000" x2="273.500000" y2="121.000000"  style="stroke: black; stroke-linecap:round; stroke-width:0.25; stroke-dasharray:3,3;"/>
<line x1="273.500000" y1="121.000000" x2="315.500000" y2="121.000000"  style="stroke: black; stroke-linecap:round; stroke-width:0.25; stroke-dasharray:3,3;"/>
<line x1="315.500000" y1="121.000000" x2="315.500000" y2="79.000000"  style="stroke: black; stroke-linecap:round; stroke-width:0.25; stroke-dasharray:3,3;"/>
<line x1="273.500000" y1="79.000000" x2="278.500000" y2="79.000000"  style="stroke: black; stroke-linecap:round; stroke-width:0.25; stroke-dasharray:3,3;"/>
<line x1="315.500000" y1="79.000000" x2="315.500000" y2="79.000000"  style="stroke: black; stroke-linecap:round; stroke-width:0.25; stroke-dasharray:3,3;"/>
<text x="278.500000" y="81.000000" font-family="Verdana" font-size="7">signum(90)</text>
<rect x="232.500000" y="92.000000" width="24.000000" height="24.000000" rx="0" ry="0" style="stroke:#000000;fill:#FFFFFF;"/>
<text x="244.500000" y="106.000000" font-family="Verdana" font-size="7" text-anchor="middle" fill="#000000">%</text>
<circle cx="254.500000" cy="114.000000" r="1"/>
<line x1="259.500000" y1="107.000000" x2="256.500000" y2="108.000000"  transform="rotate(0.000000,256.500000,108.000000)" style="stroke: black; stroke-width:0.25;"/>
<line x1="259.500000" y1="109.000000" x2="256.500000" y2="108.000000"  transform="rotate(0.000000,256.500000,108.000000)" style="stroke: black; stroke-width:0.25;"/>
<line x1="259.500000" y1="99.000000" x2="256.500000" y2="100.000000"  transform="rotate(0.000000,256.500000,100.000000)" style="stroke: black; stroke-width:0.25;"/>
<line x1="259.500000" y1="101.000000" x2="256.500000" y2="100.000000"  transform="rotate(0.000000,256.500000,100.000000)" style="stroke: black; stroke-width:0.25;"/>
<line x1="318.500000" y1="150.000000" x2="318.500000" y2="146.000000"  style="stroke:black; stroke-linecap:round; stroke-width:0.25;"/>
<line x1="318.500000" y1="146.000000" x2="322.500000" y2="146.000000"  style="stroke:black; stroke-linecap:round; stroke-width:0.25;"/>
<line x1="322.500000" y1="146.000000" x2="322.500000" y2="150.000000"  style="stroke:black; stroke-linecap:round; stroke-width:0.25;"/>
<line x1="15.000000" y1="15.000000" x2="15.000000" y2="225.000000"  style="stroke: black; stroke-linecap:round; stroke-width:0.25; stroke-dasharray:3,3;"/>
<line x1="15.000000" y1="225.000000" x2="349.500000" y2="225.000000"  style="stroke: black; stroke-linecap:round; stroke-width:0.25; stroke-dasharray:3,3;"/>
<line x1="349.500000" y1="225.000000" x2="349.500000" y2="15.000000"  style="stroke: black; stroke-linecap:round; stroke-width:0.25; stroke-dasharray:3,3;"/>
<line x1="15.000000" y1="15.000000" x2="20.000000" y2="15.000000"  style="stroke: black; stroke-linecap:round; stroke-width:0.25; stroke-dasharray:3,3;"/>
<line x1="119.975000" y1="15.000000" x2="349.500000" y2="15.000000"  style="stroke: black; stroke-linecap:round; stroke-width:0.25; stroke-dasharray:3,3;"/>
<text x="20.000000" y="17.000000" font-family="Verdana" font-size="7">phasor(1,(1.5... /) : -) : /)</text>
<line x1="351.500000" y1="119.000000" x2="354.500000" y2="120.000000"  transform="rotate(0.000000,354.500000,120.000000)" style="stroke: black; stroke-width:0.25;"/>
<line x1="351.500000" y1="121.000000" x2="354.500000" y2="120.000000"  transform="rotate(0.000000,354.500000,120.000000)" style="stroke: black; stroke-width:0.25;"/>
<line x1="69.150000" y1="172.000000" x2="73.150000" y2="172.000000"  style="stroke:black; stroke-linecap:round; stroke-width:0.25;"/>
<line x1="73.150000" y1="172.000000" x2="92.500000" y2="172.000000"  style="stroke:black; stroke-linecap:round; stroke-width:0.25;"/>
<line x1="88.250000" y1="46.000000" x2="92.250000" y2="46.000000"  style="stroke:black; stroke-linecap:round; stroke-width:0.25;"/>
<line x1="88.250000" y1="88.000000" x2="92.250000" y2="88.000000"  style="stroke:black; stroke-linecap:round; stroke-width:0.25;"/>
<line x1="88.250000" y1="130.000000" x2="92.250000" y2="130.000000"  style="stroke:black; stroke-linecap:round; stroke-width:0.25;"/>
<line x1="88.500000" y1="204.000000" x2="92.500000" y2="204.000000"  style="stroke:black; stroke-linecap:round; stroke-width:0.25;"/>
<line x1="92.250000" y1="46.000000" x2="102.250000" y2="46.000000"  style="stroke:black; stroke-linecap:round; stroke-width:0.25;"/>
<line x1="92.250000" y1="88.000000" x2="102.250000" y2="88.000000"  style="stroke:black; stroke-linecap:round; stroke-width:0.25;"/>
<line x1="92.250000" y1="130.000000" x2="102.250000" y2="130.000000"  style="stroke:black; stroke-linecap:round; stroke-width:0.25;"/>
<line x1="92.500000" y1="172.000000" x2="100.500000" y2="172.000000"  style="stroke:black; stroke-linecap:round; stroke-width:0.25;"/>
<line x1="92.500000" y1="192.000000" x2="100.500000" y2="192.000000"  style="stroke:black; stroke-linecap:round; stroke-width:0.25;"/>
<line x1="92.500000" y1="204.000000" x2="92.500000" y2="192.000000"  style="stroke:black; stroke-linecap:round; stroke-width:0.25;"/>
<line x1="92.500000" y1="204.000000" x2="92.500000" y2="204.000000"  style="stroke:black; stroke-linecap:round; stroke-width:0.25;"/>
<line x1="100.500000" y1="172.000000" x2="100.500000" y2="184.000000"  style="stroke:black; stroke-linecap:round; stroke-width:0.25;"/>
<line x1="100.500000" y1="184.000000" x2="100.500000" y2="184.000000"  style="stroke:black; stroke-linecap:round; stroke-width:0.25;"/>
<line x1="100.500000" y1="184.000000" x2="104.500000" y2="184.000000"  style="stroke:black; stroke-linecap:round; stroke-width:0.25;"/>
<line x1="100.500000" y1="192.000000" x2="104.500000" y2="192.000000"  style="stroke:black; stroke-linecap:round; stroke-width:0.25;"/>
<line x1="102.250000" y1="46.000000" x2="110.250000" y2="46.000000"  style="stroke:black; stroke-linecap:round; stroke-width:0.25;"/>
<line x1="102.250000" y1="66.000000" x2="110.250000" y2="66.000000"  style="stroke:black; stroke-linecap:round; stroke-width:0.25;"/>
<line x1="102.250000" y1="88.000000" x2="102.250000" y2="66.000000"  style="stroke:black; stroke-linecap:round; stroke-width:0.25;"/>
<line x1="102.250000" y1="88.000000" x2="102.250000" y2="88.000000"  style="stroke:black; stroke-linecap:round; stroke-width:0.25;"/>
<line x1="102.250000" y1="130.000000" x2="132.500000" y2="130.000000"  style="stroke:black; stroke-linecap:round; stroke-width:0.25;"/>
<line x1="110.250000" y1="46.000000" x2="110.250000" y2="58.000000"  style="stroke:black; stroke-linecap:round; stroke-width:0.25;"/>
<line x1="110.250000" y1="58.000000" x2="110.250000" y2="58.000000"  style="stroke:black; stroke-linecap:round; stroke-width:0.25;"/>
<line x1="110.250000" y1="58.000000" x2="114.250000" y2="58.000000"  style="stroke:black; stroke-linecap:round; stroke-width:0.25;"/>
<line x1="110.250000" y1="66.000000" x2="114.250000" y2="66.000000"  style="stroke:black; stroke-linecap:round; stroke-width:0.25;"/>
<line x1="128.500000" y1="188.000000" x2="132.500000" y2="188.000000"  style="stroke:black; stroke-linecap:round; stroke-width:0.25;"/>
<line x1="132.500000" y1="130.000000" x2="140.500000" y2="130.000000"  style="stroke:black; stroke-linecap:round; stroke-width:0.25;"/>
<line x1="132.500000" y1="166.000000" x2="140.500000" y2="166.000000"  style="stroke:black; stroke-linecap:round; stroke-width:0.25;"/>
<line x1="132.500000" y1="188.000000" x2="132.500000" y2="166.000000"  style="stroke:black; stroke-linecap:round; stroke-width:0.25;"/>
<line x1="132.500000" y1="188.000000" x2="132.500000" y2="188.000000"  style="stroke:black; stroke-linecap:round; stroke-width:0.25;"/>
<line x1="138.250000" y1="62.000000" x2="142.250000" y2="62.000000"  style="stroke:black; stroke-linecap:round; stroke-width:0.25;"/>
<line x1="140.500000" y1="130.000000" x2="140.500000" y2="158.000000"  style="stroke:black; stroke-linecap:round; stroke-width:0.25;"/>
<line x1="140.500000" y1="158.000000" x2="140.500000" y2="158.000000"  style="stroke:black; stroke-linecap:round; stroke-width:0.25;"/>
<line x1="140.500000" y1="158.000000" x2="144.500000" y2="158.000000"  style="stroke:black; stroke-linecap:round; stroke-width:0.25;"/>
<line x1="140.500000" y1="166.000000" x2="144.500000" y2="166.000000"  style="stroke:black; stroke-linecap:round; stroke-width:0.25;"/>
<line x1="142.250000" y1="62.000000" x2="172.500000" y2="62.000000"  style="stroke:black; stroke-linecap:round; stroke-width:0.25;"/>
<line x1="168.500000" y1="162.000000" x2="172.500000" y2="162.000000"  style="stroke:black; stroke-linecap:round; stroke-width:0.25;"/>
<line x1="172.500000" y1="62.000000" x2="180.500000" y2="62.000000"  style="stroke:black; stroke-linecap:round; stroke-width:0.25;"/>
<line x1="172.500000" y1="124.000000" x2="180.500000" y2="124.000000"  style="stroke:black; stroke-linecap:round; stroke-width:0.25;"/>
<line x1="172.500000" y1="162.000000" x2="172.500000" y2="124.000000"  style="stroke:black; stroke-linecap:round; stroke-width:0.25;"/>
<line x1="172.500000" y1="162.000000" x2="172.500000" y2="162.000000"  style="stroke:black; stroke-linecap:round; stroke-width:0.25;"/>
<line x1="180.500000" y1="62.000000" x2="180.500000" y2="116.000000"  style="stroke:black; stroke-linecap:round; stroke-width:0.25;"/>
<line x1="180.500000" y1="116.000000" x2="180.500000" y2="116.000000"  style="stroke:black; stroke-linecap:round; stroke-width:0.25;"/>
<line x1="180.500000" y1="116.000000" x2="184.500000" y2="116.000000"  style="stroke:black; stroke-linecap:round; stroke-width:0.25;"/>
<line x1="180.500000" y1="124.000000" x2="184.500000" y2="124.000000"  style="stroke:black; stroke-linecap:round; stroke-width:0.25;"/>
<line x1="208.500000" y1="120.000000" x2="212.500000" y2="120.000000"  style="stroke:black; stroke-linecap:round; stroke-width:0.25;"/>
<line x1="212.500000" y1="120.000000" x2="220.500000" y2="120.000000"  style="stroke:black; stroke-linecap:round; stroke-width:0.25;"/>
<line x1="220.500000" y1="120.000000" x2="220.500000" y2="154.000000"  style="stroke:black; stroke-linecap:round; stroke-width:0.25;"/>
<line x1="220.500000" y1="154.000000" x2="220.500000" y2="154.000000"  style="stroke:black; stroke-linecap:round; stroke-width:0.25;"/>
<line x1="220.500000" y1="154.000000" x2="228.500000" y2="154.000000"  style="stroke:black; stroke-linecap:round; stroke-width:0.25;"/>
<line x1="228.500000" y1="104.000000" x2="228.500000" y2="104.000000"  style="stroke:black; stroke-linecap:round; stroke-width:0.25;"/>
<line x1="228.500000" y1="104.000000" x2="228.500000" y2="146.000000"  style="stroke:black; stroke-linecap:round; stroke-width:0.25;"/>
<line x1="228.500000" y1="146.000000" x2="228.500000" y2="146.000000"  style="stroke:black; stroke-linecap:round; stroke-width:0.25;"/>
<line x1="228.500000" y1="146.000000" x2="258.500000" y2="146.000000"  style="stroke:black; stroke-linecap:round; stroke-width:0.25;"/>
<line x1="228.500000" y1="154.000000" x2="258.500000" y2="154.000000"  style="stroke:black; stroke-linecap:round; stroke-width:0.25;"/>
<line x1="232.500000" y1="104.000000" x2="228.500000" y2="104.000000"  style="stroke:black; stroke-linecap:round; stroke-width:0.25;"/>
<line x1="258.500000" y1="146.000000" x2="262.500000" y2="146.000000"  style="stroke:black; stroke-linecap:round; stroke-width:0.25;"/>
<line x1="258.500000" y1="154.000000" x2="262.500000" y2="154.000000"  style="stroke:black; stroke-linecap:round; stroke-width:0.25;"/>
<line x1="260.500000" y1="100.000000" x2="256.500000" y2="100.000000"  style="stroke:black; stroke-linecap:round; stroke-width:0.25;"/>
<line x1="260.500000" y1="108.000000" x2="256.500000" y2="108.000000"  style="stroke:black; stroke-linecap:round; stroke-width:0.25;"/>
<line x1="260.500000" y1="108.000000" x2="260.500000" y2="108.000000"  style="stroke:black; stroke-linecap:round; stroke-width:0.25;"/>
<line x1="260.500000" y1="130.000000" x2="260.500000" y2="108.000000"  style="stroke:black; stroke-linecap:round; stroke-width:0.25;"/>
<line x1="268.500000" y1="100.000000" x2="260.500000" y2="100.000000"  style="stroke:black; stroke-linecap:round; stroke-width:0.25;"/>
<line x1="268.500000" y1="130.000000" x2="260.500000" y2="130.000000"  style="stroke:black; stroke-linecap:round; stroke-width:0.25;"/>
<line x1="278.500000" y1="100.000000" x2="268.500000" y2="100.000000"  style="stroke:black; stroke-linecap:round; stroke-width:0.25;"/>
<line x1="282.500000" y1="100.000000" x2="278.500000" y2="100.000000"  style="stroke:black; stroke-linecap:round; stroke-width:0.25;"/>
<line x1="286.500000" y1="150.000000" x2="290.500000" y2="150.000000"  style="stroke:black; stroke-linecap:round; stroke-width:0.25;"/>
<line x1="290.500000" y1="150.000000" x2="320.500000" y2="150.000000"  style="stroke:black; stroke-linecap:round; stroke-width:0.25;"/>
<line x1="294.500000" y1="130.000000" x2="268.500000" y2="130.000000"  style="stroke:black; stroke-linecap:round; stroke-width:0.25;"/>
<line x1="320.500000" y1="130.000000" x2="294.500000" y2="130.000000"  style="stroke:black; stroke-linecap:round; stroke-width:0.25;"/>
<line x1="320.500000" y1="130.000000" x2="320.500000" y2="130.000000"  style="stroke:black; stroke-linecap:round; stroke-width:0.25;"/>
<line x1="320.500000" y1="146.000000" x2="320.500000" y2="130.000000"  style="stroke:black; stroke-linecap:round; stroke-width:0.25;"/>
<line x1="320.500000" y1="150.000000" x2="322.500000" y2="150.000000"  style="stroke:black; stroke-linecap:round; stroke-width:0.25;"/>
<line x1="322.500000" y1="150.000000" x2="328.500000" y2="150.000000"  style="stroke:black; stroke-linecap:round; stroke-width:0.25;"/>
<line x1="328.500000" y1="120.000000" x2="336.500000" y2="120.000000"  style="stroke:black; stroke-linecap:round; stroke-width:0.25;"/>
<line x1="328.500000" y1="150.000000" x2="328.500000" y2="120.000000"  style="stroke:black; stroke-linecap:round; stroke-width:0.25;"/>
<line x1="328.500000" y1="150.000000" x2="328.500000" y2="150.000000"  style="stroke:black; stroke-linecap:round; stroke-width:0.25;"/>
<line x1="336.500000" y1="120.000000" x2="340.500000" y2="120.000000"  style="stroke:black; stroke-linecap:round; stroke-width:0.25;"/>
<line x1="340.500000" y1="120.000000" x2="344.500000" y2="120.000000"  style="stroke:black; stroke-linecap:round; stroke-width:0.25;"/>
<line x1="344.500000" y1="120.000000" x2="354.500000" y2="120.000000"  style="stroke:black; stroke-linecap:round; stroke-width:0.25;"/>
</svg>
