<?xml version="1.0"?>
<svg xmlns="http://www.w3.org/2000/svg" xmlns:xlink="http://www.w3.org/1999/xlink" viewBox="0 0 126.700000 72.000000" width="63.350000mm" height="36.000000mm" version="1.1">
<a xlink:href="rilevatorePic-0x60001d719170.svg">
<rect x="0.000000" y="0.000000" width="125.700000" height="71.000000" rx="0" ry="0" style="stroke:#000000;fill:#FFFFFF;"/>
</a>
<text x="10.000000" y="7.000000" font-family="Verdana" font-size="7"></text>
<a xlink:href="tr-0x6000054c8360.svg">
<rect x="24.000000" y="24.000000" width="24.000000" height="24.000000" rx="0" ry="0" style="stroke:#000000;fill:#FFFFFF;"/>
</a>
<a xlink:href="tr-0x6000054c8360.svg">
<text x="36.000000" y="38.000000" font-family="Verdana" font-size="7" text-anchor="middle" fill="#000000">tr</text>
</a>
<circle cx="26.000000" cy="26.000000" r="1"/>
<a xlink:href="db2linear-0x6000054c9440.svg">
<rect x="56.000000" y="24.000000" width="38.700000" height="24.000000" rx="0" ry="0" style="stroke:#000000;fill:#FFFFFF;"/>
</a>
<a xlink:href="db2linear-0x6000054c9440.svg">
<text x="75.350000" y="38.000000" font-family="Verdana" font-size="7" text-anchor="middle" fill="#000000">db2linear</text>
</a>
<circle cx="58.000000" cy="26.000000" r="1"/>
<line x1="53.000000" y1="35.000000" x2="56.000000" y2="36.000000"  transform="rotate(0.000000,56.000000,36.000000)" style="stroke: black; stroke-width:0.25;"/>
<line x1="53.000000" y1="37.000000" x2="56.000000" y2="36.000000"  transform="rotate(0.000000,56.000000,36.000000)" style="stroke: black; stroke-width:0.25;"/>
<line x1="15.000000" y1="15.000000" x2="15.000000" y2="57.000000"  style="stroke: black; stroke-linecap:round; stroke-width:0.25; stroke-dasharray:3,3;"/>
<line x1="15.000000" y1="57.000000" x2="111.700000" y2="57.000000"  style="stroke: black; stroke-linecap:round; stroke-width:0.25; stroke-dasharray:3,3;"/>
<line x1="111.700000" y1="57.000000" x2="111.700000" y2="15.000000"  style="stroke: black; stroke-linecap:round; stroke-width:0.25; stroke-dasharray:3,3;"/>
<line x1="15.000000" y1="15.000000" x2="20.000000" y2="15.000000"  style="stroke: black; stroke-linecap:round; stroke-width:0.25; stroke-dasharray:3,3;"/>
<line x1="49.025000" y1="15.000000" x2="111.700000" y2="15.000000"  style="stroke: black; stroke-linecap:round; stroke-width:0.25; stroke-dasharray:3,3;"/>
<text x="20.000000" y="17.000000" font-family="Verdana" font-size="7">pkTresh</text>
<line x1="113.700000" y1="35.000000" x2="116.700000" y2="36.000000"  transform="rotate(0.000000,116.700000,36.000000)" style="stroke: black; stroke-width:0.25;"/>
<line x1="113.700000" y1="37.000000" x2="116.700000" y2="36.000000"  transform="rotate(0.000000,116.700000,36.000000)" style="stroke: black; stroke-width:0.25;"/>
<line x1="48.000000" y1="36.000000" x2="52.000000" y2="36.000000"  style="stroke:black; stroke-linecap:round; stroke-width:0.25;"/>
<line x1="52.000000" y1="36.000000" x2="52.000000" y2="36.000000"  style="stroke:black; stroke-linecap:round; stroke-width:0.25;"/>
<line x1="52.000000" y1="36.000000" x2="56.000000" y2="36.000000"  style="stroke:black; stroke-linecap:round; stroke-width:0.25;"/>
<line x1="94.700000" y1="36.000000" x2="98.700000" y2="36.000000"  style="stroke:black; stroke-linecap:round; stroke-width:0.25;"/>
<line x1="98.700000" y1="36.000000" x2="98.700000" y2="36.000000"  style="stroke:black; stroke-linecap:round; stroke-width:0.25;"/>
<line x1="98.700000" y1="36.000000" x2="102.700000" y2="36.000000"  style="stroke:black; stroke-linecap:round; stroke-width:0.25;"/>
<line x1="102.700000" y1="36.000000" x2="106.700000" y2="36.000000"  style="stroke:black; stroke-linecap:round; stroke-width:0.25;"/>
<line x1="106.700000" y1="36.000000" x2="116.700000" y2="36.000000"  style="stroke:black; stroke-linecap:round; stroke-width:0.25;"/>
</svg>
