<?xml version="1.0"?>
<svg xmlns="http://www.w3.org/2000/svg" xmlns:xlink="http://www.w3.org/1999/xlink" viewBox="0 0 403.300000 136.000000" width="201.650000mm" height="68.000000mm" version="1.1">
<a xlink:href="side-0x6000194b2be0.svg">
<rect x="0.000000" y="0.000000" width="402.300000" height="135.000000" rx="0" ry="0" style="stroke:#000000;fill:#FFFFFF;"/>
</a>
<text x="10.000000" y="7.000000" font-family="Verdana" font-size="7"></text>
<rect x="24.000000" y="56.000000" width="38.700000" height="24.000000" rx="0" ry="0" style="stroke:#000000;fill:#FFFFFF;"/>
<text x="43.350000" y="70.000000" font-family="Verdana" font-size="7" text-anchor="middle" fill="#000000">[613] in</text>
<circle cx="26.000000" cy="58.000000" r="1"/>
<a xlink:href="movingAverageRMS-0x6000194b06c0.svg">
<rect x="102.700000" y="24.000000" width="103.200000" height="24.000000" rx="0" ry="0" style="stroke:#000000;fill:#FFFFFF;"/>
</a>
<a xlink:href="movingAverageRMS-0x6000194b06c0.svg">
<text x="154.300000" y="38.000000" font-family="Verdana" font-size="7" text-anchor="middle" fill="#000000">movingAverageRMS(0.1f)</text>
</a>
<circle cx="104.700000" cy="26.000000" r="1"/>
<line x1="99.700000" y1="35.000000" x2="102.700000" y2="36.000000"  transform="rotate(0.000000,102.700000,36.000000)" style="stroke: black; stroke-width:0.25;"/>
<line x1="99.700000" y1="37.000000" x2="102.700000" y2="36.000000"  transform="rotate(0.000000,102.700000,36.000000)" style="stroke: black; stroke-width:0.25;"/>
<rect x="142.300000" y="56.000000" width="24.000000" height="24.000000" rx="0" ry="0" style="stroke:#000000;fill:#FFFFFF;"/>
<text x="154.300000" y="70.000000" font-family="Verdana" font-size="7" text-anchor="middle" fill="#000000">50</text>
<circle cx="144.300000" cy="58.000000" r="1"/>
<rect x="221.900000" y="40.000000" width="24.000000" height="24.000000" rx="0" ry="0" style="stroke:#000000;fill:#FFFFFF;"/>
<text x="233.900000" y="54.000000" font-family="Verdana" font-size="7" text-anchor="middle" fill="#000000">*</text>
<circle cx="223.900000" cy="42.000000" r="1"/>
<line x1="218.900000" y1="47.000000" x2="221.900000" y2="48.000000"  transform="rotate(0.000000,221.900000,48.000000)" style="stroke: black; stroke-width:0.25;"/>
<line x1="218.900000" y1="49.000000" x2="221.900000" y2="48.000000"  transform="rotate(0.000000,221.900000,48.000000)" style="stroke: black; stroke-width:0.25;"/>
<line x1="218.900000" y1="55.000000" x2="221.900000" y2="56.000000"  transform="rotate(0.000000,221.900000,56.000000)" style="stroke: black; stroke-width:0.25;"/>
<line x1="218.900000" y1="57.000000" x2="221.900000" y2="56.000000"  transform="rotate(0.000000,221.900000,56.000000)" style="stroke: black; stroke-width:0.25;"/>
<a xlink:href="integrator-0x6000094a0870.svg">
<rect x="253.900000" y="40.000000" width="77.400000" height="24.000000" rx="0" ry="0" style="stroke:#000000;fill:#FFFFFF;"/>
</a>
<a xlink:href="integrator-0x6000094a0870.svg">
<text x="292.600000" y="54.000000" font-family="Verdana" font-size="7" text-anchor="middle" fill="#000000">integrator(1.2f)</text>
</a>
<circle cx="255.900000" cy="42.000000" r="1"/>
<line x1="250.900000" y1="51.000000" x2="253.900000" y2="52.000000"  transform="rotate(0.000000,253.900000,52.000000)" style="stroke: black; stroke-width:0.25;"/>
<line x1="250.900000" y1="53.000000" x2="253.900000" y2="52.000000"  transform="rotate(0.000000,253.900000,52.000000)" style="stroke: black; stroke-width:0.25;"/>
<rect x="205.000000" y="88.000000" width="24.000000" height="24.000000" rx="0" ry="0" style="stroke:#000000;fill:#FFFFFF;"/>
<text x="217.000000" y="102.000000" font-family="Verdana" font-size="7" text-anchor="middle" fill="#000000">2</text>
<circle cx="207.000000" cy="90.000000" r="1"/>
<rect x="347.300000" y="56.000000" width="24.000000" height="24.000000" rx="0" ry="0" style="stroke:#000000;fill:#FFFFFF;"/>
<text x="359.300000" y="70.000000" font-family="Verdana" font-size="7" text-anchor="middle" fill="#000000">pow</text>
<circle cx="349.300000" cy="58.000000" r="1"/>
<line x1="344.300000" y1="63.000000" x2="347.300000" y2="64.000000"  transform="rotate(0.000000,347.300000,64.000000)" style="stroke: black; stroke-width:0.25;"/>
<line x1="344.300000" y1="65.000000" x2="347.300000" y2="64.000000"  transform="rotate(0.000000,347.300000,64.000000)" style="stroke: black; stroke-width:0.25;"/>
<line x1="344.300000" y1="71.000000" x2="347.300000" y2="72.000000"  transform="rotate(0.000000,347.300000,72.000000)" style="stroke: black; stroke-width:0.25;"/>
<line x1="344.300000" y1="73.000000" x2="347.300000" y2="72.000000"  transform="rotate(0.000000,347.300000,72.000000)" style="stroke: black; stroke-width:0.25;"/>
<line x1="15.000000" y1="15.000000" x2="15.000000" y2="121.000000"  style="stroke: black; stroke-linecap:round; stroke-width:0.25; stroke-dasharray:3,3;"/>
<line x1="15.000000" y1="121.000000" x2="388.300000" y2="121.000000"  style="stroke: black; stroke-linecap:round; stroke-width:0.25; stroke-dasharray:3,3;"/>
<line x1="388.300000" y1="121.000000" x2="388.300000" y2="15.000000"  style="stroke: black; stroke-linecap:round; stroke-width:0.25; stroke-dasharray:3,3;"/>
<line x1="15.000000" y1="15.000000" x2="20.000000" y2="15.000000"  style="stroke: black; stroke-linecap:round; stroke-width:0.25; stroke-dasharray:3,3;"/>
<line x1="78.050000" y1="15.000000" x2="388.300000" y2="15.000000"  style="stroke: black; stroke-linecap:round; stroke-width:0.25; stroke-dasharray:3,3;"/>
<text x="20.000000" y="17.000000" font-family="Verdana" font-size="7">radianFun2(x613)</text>
<line x1="390.300000" y1="67.000000" x2="393.300000" y2="68.000000"  transform="rotate(0.000000,393.300000,68.000000)" style="stroke: black; stroke-width:0.25;"/>
<line x1="390.300000" y1="69.000000" x2="393.300000" y2="68.000000"  transform="rotate(0.000000,393.300000,68.000000)" style="stroke: black; stroke-width:0.25;"/>
<line x1="62.700000" y1="68.000000" x2="66.700000" y2="68.000000"  style="stroke:black; stroke-linecap:round; stroke-width:0.25;"/>
<line x1="66.700000" y1="68.000000" x2="98.700000" y2="36.000000"  style="stroke:black; stroke-linecap:round; stroke-width:0.25;"/>
<line x1="98.700000" y1="36.000000" x2="102.700000" y2="36.000000"  style="stroke:black; stroke-linecap:round; stroke-width:0.25;"/>
<line x1="166.300000" y1="68.000000" x2="170.300000" y2="68.000000"  style="stroke:black; stroke-linecap:round; stroke-width:0.25;"/>
<line x1="170.300000" y1="68.000000" x2="209.900000" y2="68.000000"  style="stroke:black; stroke-linecap:round; stroke-width:0.25;"/>
<line x1="205.900000" y1="36.000000" x2="209.900000" y2="36.000000"  style="stroke:black; stroke-linecap:round; stroke-width:0.25;"/>
<line x1="209.900000" y1="36.000000" x2="217.900000" y2="36.000000"  style="stroke:black; stroke-linecap:round; stroke-width:0.25;"/>
<line x1="209.900000" y1="56.000000" x2="217.900000" y2="56.000000"  style="stroke:black; stroke-linecap:round; stroke-width:0.25;"/>
<line x1="209.900000" y1="68.000000" x2="209.900000" y2="56.000000"  style="stroke:black; stroke-linecap:round; stroke-width:0.25;"/>
<line x1="209.900000" y1="68.000000" x2="209.900000" y2="68.000000"  style="stroke:black; stroke-linecap:round; stroke-width:0.25;"/>
<line x1="217.900000" y1="36.000000" x2="217.900000" y2="48.000000"  style="stroke:black; stroke-linecap:round; stroke-width:0.25;"/>
<line x1="217.900000" y1="48.000000" x2="217.900000" y2="48.000000"  style="stroke:black; stroke-linecap:round; stroke-width:0.25;"/>
<line x1="217.900000" y1="48.000000" x2="221.900000" y2="48.000000"  style="stroke:black; stroke-linecap:round; stroke-width:0.25;"/>
<line x1="217.900000" y1="56.000000" x2="221.900000" y2="56.000000"  style="stroke:black; stroke-linecap:round; stroke-width:0.25;"/>
<line x1="229.000000" y1="100.000000" x2="233.000000" y2="100.000000"  style="stroke:black; stroke-linecap:round; stroke-width:0.25;"/>
<line x1="233.000000" y1="100.000000" x2="335.300000" y2="100.000000"  style="stroke:black; stroke-linecap:round; stroke-width:0.25;"/>
<line x1="245.900000" y1="52.000000" x2="249.900000" y2="52.000000"  style="stroke:black; stroke-linecap:round; stroke-width:0.25;"/>
<line x1="249.900000" y1="52.000000" x2="249.900000" y2="52.000000"  style="stroke:black; stroke-linecap:round; stroke-width:0.25;"/>
<line x1="249.900000" y1="52.000000" x2="253.900000" y2="52.000000"  style="stroke:black; stroke-linecap:round; stroke-width:0.25;"/>
<line x1="331.300000" y1="52.000000" x2="335.300000" y2="52.000000"  style="stroke:black; stroke-linecap:round; stroke-width:0.25;"/>
<line x1="335.300000" y1="52.000000" x2="343.300000" y2="52.000000"  style="stroke:black; stroke-linecap:round; stroke-width:0.25;"/>
<line x1="335.300000" y1="72.000000" x2="343.300000" y2="72.000000"  style="stroke:black; stroke-linecap:round; stroke-width:0.25;"/>
<line x1="335.300000" y1="100.000000" x2="335.300000" y2="72.000000"  style="stroke:black; stroke-linecap:round; stroke-width:0.25;"/>
<line x1="335.300000" y1="100.000000" x2="335.300000" y2="100.000000"  style="stroke:black; stroke-linecap:round; stroke-width:0.25;"/>
<line x1="343.300000" y1="52.000000" x2="343.300000" y2="64.000000"  style="stroke:black; stroke-linecap:round; stroke-width:0.25;"/>
<line x1="343.300000" y1="64.000000" x2="343.300000" y2="64.000000"  style="stroke:black; stroke-linecap:round; stroke-width:0.25;"/>
<line x1="343.300000" y1="64.000000" x2="347.300000" y2="64.000000"  style="stroke:black; stroke-linecap:round; stroke-width:0.25;"/>
<line x1="343.300000" y1="72.000000" x2="347.300000" y2="72.000000"  style="stroke:black; stroke-linecap:round; stroke-width:0.25;"/>
<line x1="371.300000" y1="68.000000" x2="375.300000" y2="68.000000"  style="stroke:black; stroke-linecap:round; stroke-width:0.25;"/>
<line x1="375.300000" y1="68.000000" x2="375.300000" y2="68.000000"  style="stroke:black; stroke-linecap:round; stroke-width:0.25;"/>
<line x1="375.300000" y1="68.000000" x2="379.300000" y2="68.000000"  style="stroke:black; stroke-linecap:round; stroke-width:0.25;"/>
<line x1="379.300000" y1="68.000000" x2="383.300000" y2="68.000000"  style="stroke:black; stroke-linecap:round; stroke-width:0.25;"/>
<line x1="383.300000" y1="68.000000" x2="393.300000" y2="68.000000"  style="stroke:black; stroke-linecap:round; stroke-width:0.25;"/>
</svg>
