<?xml version="1.0"?>
<svg xmlns="http://www.w3.org/2000/svg" xmlns:xlink="http://www.w3.org/1999/xlink" viewBox="0 0 147.600000 124.000000" width="73.800000mm" height="62.000000mm" version="1.1">
<a xlink:href="counter-0x600009451b00.svg">
<rect x="0.000000" y="0.000000" width="146.600000" height="123.000000" rx="0" ry="0" style="stroke:#000000;fill:#FFFFFF;"/>
</a>
<text x="10.000000" y="7.000000" font-family="Verdana" font-size="7"></text>
<a xlink:href="phasor-0x600009451440.svg">
<rect x="24.000000" y="24.000000" width="51.600000" height="24.000000" rx="0" ry="0" style="stroke:#000000;fill:#FFFFFF;"/>
</a>
<a xlink:href="phasor-0x600009451440.svg">
<text x="49.800000" y="38.000000" font-family="Verdana" font-size="7" text-anchor="middle" fill="#000000">phasor(0.5f)</text>
</a>
<circle cx="26.000000" cy="26.000000" r="1"/>
<rect x="37.800000" y="66.000000" width="24.000000" height="24.000000" rx="0" ry="0" style="stroke:#000000;fill:#FFFFFF;"/>
<text x="49.800000" y="80.000000" font-family="Verdana" font-size="7" text-anchor="middle" fill="#000000">1</text>
<circle cx="39.800000" cy="68.000000" r="1"/>
<line x1="28.800000" y1="57.000000" x2="28.800000" y2="99.000000"  style="stroke: black; stroke-linecap:round; stroke-width:0.25; stroke-dasharray:3,3;"/>
<line x1="28.800000" y1="99.000000" x2="70.800000" y2="99.000000"  style="stroke: black; stroke-linecap:round; stroke-width:0.25; stroke-dasharray:3,3;"/>
<line x1="70.800000" y1="99.000000" x2="70.800000" y2="57.000000"  style="stroke: black; stroke-linecap:round; stroke-width:0.25; stroke-dasharray:3,3;"/>
<line x1="28.800000" y1="57.000000" x2="33.800000" y2="57.000000"  style="stroke: black; stroke-linecap:round; stroke-width:0.25; stroke-dasharray:3,3;"/>
<line x1="70.800000" y1="57.000000" x2="70.800000" y2="57.000000"  style="stroke: black; stroke-linecap:round; stroke-width:0.25; stroke-dasharray:3,3;"/>
<text x="33.800000" y="59.000000" font-family="Verdana" font-size="7">signum(90)</text>
<rect x="91.600000" y="50.000000" width="24.000000" height="24.000000" rx="0" ry="0" style="stroke:#000000;fill:#FFFFFF;"/>
<text x="103.600000" y="64.000000" font-family="Verdana" font-size="7" text-anchor="middle" fill="#000000">&lt;</text>
<circle cx="93.600000" cy="52.000000" r="1"/>
<line x1="88.600000" y1="57.000000" x2="91.600000" y2="58.000000"  transform="rotate(0.000000,91.600000,58.000000)" style="stroke: black; stroke-width:0.25;"/>
<line x1="88.600000" y1="59.000000" x2="91.600000" y2="58.000000"  transform="rotate(0.000000,91.600000,58.000000)" style="stroke: black; stroke-width:0.25;"/>
<line x1="88.600000" y1="65.000000" x2="91.600000" y2="66.000000"  transform="rotate(0.000000,91.600000,66.000000)" style="stroke: black; stroke-width:0.25;"/>
<line x1="88.600000" y1="67.000000" x2="91.600000" y2="66.000000"  transform="rotate(0.000000,91.600000,66.000000)" style="stroke: black; stroke-width:0.25;"/>
<line x1="15.000000" y1="15.000000" x2="15.000000" y2="109.000000"  style="stroke: black; stroke-linecap:round; stroke-width:0.25; stroke-dasharray:3,3;"/>
<line x1="15.000000" y1="109.000000" x2="132.600000" y2="109.000000"  style="stroke: black; stroke-linecap:round; stroke-width:0.25; stroke-dasharray:3,3;"/>
<line x1="132.600000" y1="109.000000" x2="132.600000" y2="15.000000"  style="stroke: black; stroke-linecap:round; stroke-width:0.25; stroke-dasharray:3,3;"/>
<line x1="15.000000" y1="15.000000" x2="20.000000" y2="15.000000"  style="stroke: black; stroke-linecap:round; stroke-width:0.25; stroke-dasharray:3,3;"/>
<line x1="52.250000" y1="15.000000" x2="132.600000" y2="15.000000"  style="stroke: black; stroke-linecap:round; stroke-width:0.25; stroke-dasharray:3,3;"/>
<text x="20.000000" y="17.000000" font-family="Verdana" font-size="7">reset(2)</text>
<line x1="134.600000" y1="61.000000" x2="137.600000" y2="62.000000"  transform="rotate(0.000000,137.600000,62.000000)" style="stroke: black; stroke-width:0.25;"/>
<line x1="134.600000" y1="63.000000" x2="137.600000" y2="62.000000"  transform="rotate(0.000000,137.600000,62.000000)" style="stroke: black; stroke-width:0.25;"/>
<line x1="61.800000" y1="78.000000" x2="65.800000" y2="78.000000"  style="stroke:black; stroke-linecap:round; stroke-width:0.25;"/>
<line x1="65.800000" y1="78.000000" x2="75.800000" y2="78.000000"  style="stroke:black; stroke-linecap:round; stroke-width:0.25;"/>
<line x1="75.600000" y1="36.000000" x2="79.600000" y2="36.000000"  style="stroke:black; stroke-linecap:round; stroke-width:0.25;"/>
<line x1="75.800000" y1="78.000000" x2="79.600000" y2="78.000000"  style="stroke:black; stroke-linecap:round; stroke-width:0.25;"/>
<line x1="79.600000" y1="36.000000" x2="87.600000" y2="36.000000"  style="stroke:black; stroke-linecap:round; stroke-width:0.25;"/>
<line x1="79.600000" y1="66.000000" x2="87.600000" y2="66.000000"  style="stroke:black; stroke-linecap:round; stroke-width:0.25;"/>
<line x1="79.600000" y1="78.000000" x2="79.600000" y2="66.000000"  style="stroke:black; stroke-linecap:round; stroke-width:0.25;"/>
<line x1="79.600000" y1="78.000000" x2="79.600000" y2="78.000000"  style="stroke:black; stroke-linecap:round; stroke-width:0.25;"/>
<line x1="87.600000" y1="36.000000" x2="87.600000" y2="58.000000"  style="stroke:black; stroke-linecap:round; stroke-width:0.25;"/>
<line x1="87.600000" y1="58.000000" x2="87.600000" y2="58.000000"  style="stroke:black; stroke-linecap:round; stroke-width:0.25;"/>
<line x1="87.600000" y1="58.000000" x2="91.600000" y2="58.000000"  style="stroke:black; stroke-linecap:round; stroke-width:0.25;"/>
<line x1="87.600000" y1="66.000000" x2="91.600000" y2="66.000000"  style="stroke:black; stroke-linecap:round; stroke-width:0.25;"/>
<line x1="115.600000" y1="62.000000" x2="119.600000" y2="62.000000"  style="stroke:black; stroke-linecap:round; stroke-width:0.25;"/>
<line x1="119.600000" y1="62.000000" x2="119.600000" y2="62.000000"  style="stroke:black; stroke-linecap:round; stroke-width:0.25;"/>
<line x1="119.600000" y1="62.000000" x2="123.600000" y2="62.000000"  style="stroke:black; stroke-linecap:round; stroke-width:0.25;"/>
<line x1="123.600000" y1="62.000000" x2="127.600000" y2="62.000000"  style="stroke:black; stroke-linecap:round; stroke-width:0.25;"/>
<line x1="127.600000" y1="62.000000" x2="137.600000" y2="62.000000"  style="stroke:black; stroke-linecap:round; stroke-width:0.25;"/>
</svg>
