<?xml version="1.0"?>
<svg xmlns="http://www.w3.org/2000/svg" xmlns:xlink="http://www.w3.org/1999/xlink" viewBox="0 0 186.300000 124.000000" width="93.150000mm" height="62.000000mm" version="1.1">
<a xlink:href="counter-0x6000014219e0.svg">
<rect x="0.000000" y="0.000000" width="185.300000" height="123.000000" rx="0" ry="0" style="stroke:#000000;fill:#FFFFFF;"/>
</a>
<text x="10.000000" y="7.000000" font-family="Verdana" font-size="7"></text>
<a xlink:href="phasor-0x600001421290.svg">
<rect x="24.000000" y="24.000000" width="90.300000" height="24.000000" rx="0" ry="0" style="stroke:#000000;fill:#FFFFFF;"/>
</a>
<a xlink:href="phasor-0x600001421290.svg">
<text x="69.150000" y="38.000000" font-family="Verdana" font-size="7" text-anchor="middle" fill="#000000">phasor(0.33333334f)</text>
</a>
<circle cx="26.000000" cy="26.000000" r="1"/>
<rect x="57.150000" y="66.000000" width="24.000000" height="24.000000" rx="0" ry="0" style="stroke:#000000;fill:#FFFFFF;"/>
<text x="69.150000" y="80.000000" font-family="Verdana" font-size="7" text-anchor="middle" fill="#000000">1</text>
<circle cx="59.150000" cy="68.000000" r="1"/>
<line x1="48.150000" y1="57.000000" x2="48.150000" y2="99.000000"  style="stroke: black; stroke-linecap:round; stroke-width:0.25; stroke-dasharray:3,3;"/>
<line x1="48.150000" y1="99.000000" x2="90.150000" y2="99.000000"  style="stroke: black; stroke-linecap:round; stroke-width:0.25; stroke-dasharray:3,3;"/>
<line x1="90.150000" y1="99.000000" x2="90.150000" y2="57.000000"  style="stroke: black; stroke-linecap:round; stroke-width:0.25; stroke-dasharray:3,3;"/>
<line x1="48.150000" y1="57.000000" x2="53.150000" y2="57.000000"  style="stroke: black; stroke-linecap:round; stroke-width:0.25; stroke-dasharray:3,3;"/>
<line x1="90.150000" y1="57.000000" x2="90.150000" y2="57.000000"  style="stroke: black; stroke-linecap:round; stroke-width:0.25; stroke-dasharray:3,3;"/>
<text x="53.150000" y="59.000000" font-family="Verdana" font-size="7">signum(90)</text>
<rect x="130.300000" y="50.000000" width="24.000000" height="24.000000" rx="0" ry="0" style="stroke:#000000;fill:#FFFFFF;"/>
<text x="142.300000" y="64.000000" font-family="Verdana" font-size="7" text-anchor="middle" fill="#000000">&lt;</text>
<circle cx="132.300000" cy="52.000000" r="1"/>
<line x1="127.300000" y1="57.000000" x2="130.300000" y2="58.000000"  transform="rotate(0.000000,130.300000,58.000000)" style="stroke: black; stroke-width:0.25;"/>
<line x1="127.300000" y1="59.000000" x2="130.300000" y2="58.000000"  transform="rotate(0.000000,130.300000,58.000000)" style="stroke: black; stroke-width:0.25;"/>
<line x1="127.300000" y1="65.000000" x2="130.300000" y2="66.000000"  transform="rotate(0.000000,130.300000,66.000000)" style="stroke: black; stroke-width:0.25;"/>
<line x1="127.300000" y1="67.000000" x2="130.300000" y2="66.000000"  transform="rotate(0.000000,130.300000,66.000000)" style="stroke: black; stroke-width:0.25;"/>
<line x1="15.000000" y1="15.000000" x2="15.000000" y2="109.000000"  style="stroke: black; stroke-linecap:round; stroke-width:0.25; stroke-dasharray:3,3;"/>
<line x1="15.000000" y1="109.000000" x2="171.300000" y2="109.000000"  style="stroke: black; stroke-linecap:round; stroke-width:0.25; stroke-dasharray:3,3;"/>
<line x1="171.300000" y1="109.000000" x2="171.300000" y2="15.000000"  style="stroke: black; stroke-linecap:round; stroke-width:0.25; stroke-dasharray:3,3;"/>
<line x1="15.000000" y1="15.000000" x2="20.000000" y2="15.000000"  style="stroke: black; stroke-linecap:round; stroke-width:0.25; stroke-dasharray:3,3;"/>
<line x1="52.250000" y1="15.000000" x2="171.300000" y2="15.000000"  style="stroke: black; stroke-linecap:round; stroke-width:0.25; stroke-dasharray:3,3;"/>
<text x="20.000000" y="17.000000" font-family="Verdana" font-size="7">reset(3)</text>
<line x1="173.300000" y1="61.000000" x2="176.300000" y2="62.000000"  transform="rotate(0.000000,176.300000,62.000000)" style="stroke: black; stroke-width:0.25;"/>
<line x1="173.300000" y1="63.000000" x2="176.300000" y2="62.000000"  transform="rotate(0.000000,176.300000,62.000000)" style="stroke: black; stroke-width:0.25;"/>
<line x1="81.150000" y1="78.000000" x2="85.150000" y2="78.000000"  style="stroke:black; stroke-linecap:round; stroke-width:0.25;"/>
<line x1="85.150000" y1="78.000000" x2="95.150000" y2="78.000000"  style="stroke:black; stroke-linecap:round; stroke-width:0.25;"/>
<line x1="95.150000" y1="78.000000" x2="118.300000" y2="78.000000"  style="stroke:black; stroke-linecap:round; stroke-width:0.25;"/>
<line x1="114.300000" y1="36.000000" x2="118.300000" y2="36.000000"  style="stroke:black; stroke-linecap:round; stroke-width:0.25;"/>
<line x1="118.300000" y1="36.000000" x2="126.300000" y2="36.000000"  style="stroke:black; stroke-linecap:round; stroke-width:0.25;"/>
<line x1="118.300000" y1="66.000000" x2="126.300000" y2="66.000000"  style="stroke:black; stroke-linecap:round; stroke-width:0.25;"/>
<line x1="118.300000" y1="78.000000" x2="118.300000" y2="66.000000"  style="stroke:black; stroke-linecap:round; stroke-width:0.25;"/>
<line x1="118.300000" y1="78.000000" x2="118.300000" y2="78.000000"  style="stroke:black; stroke-linecap:round; stroke-width:0.25;"/>
<line x1="126.300000" y1="36.000000" x2="126.300000" y2="58.000000"  style="stroke:black; stroke-linecap:round; stroke-width:0.25;"/>
<line x1="126.300000" y1="58.000000" x2="126.300000" y2="58.000000"  style="stroke:black; stroke-linecap:round; stroke-width:0.25;"/>
<line x1="126.300000" y1="58.000000" x2="130.300000" y2="58.000000"  style="stroke:black; stroke-linecap:round; stroke-width:0.25;"/>
<line x1="126.300000" y1="66.000000" x2="130.300000" y2="66.000000"  style="stroke:black; stroke-linecap:round; stroke-width:0.25;"/>
<line x1="154.300000" y1="62.000000" x2="158.300000" y2="62.000000"  style="stroke:black; stroke-linecap:round; stroke-width:0.25;"/>
<line x1="158.300000" y1="62.000000" x2="158.300000" y2="62.000000"  style="stroke:black; stroke-linecap:round; stroke-width:0.25;"/>
<line x1="158.300000" y1="62.000000" x2="162.300000" y2="62.000000"  style="stroke:black; stroke-linecap:round; stroke-width:0.25;"/>
<line x1="162.300000" y1="62.000000" x2="166.300000" y2="62.000000"  style="stroke:black; stroke-linecap:round; stroke-width:0.25;"/>
<line x1="166.300000" y1="62.000000" x2="176.300000" y2="62.000000"  style="stroke:black; stroke-linecap:round; stroke-width:0.25;"/>
</svg>
