<?xml version="1.0"?>
<svg xmlns="http://www.w3.org/2000/svg" xmlns:xlink="http://www.w3.org/1999/xlink" viewBox="0 0 492.100000 156.000000" width="246.050000mm" height="78.000000mm" version="1.1">
<a xlink:href="frequenzaPicc-0x6000217015f0.svg">
<rect x="0.000000" y="0.000000" width="491.100000" height="155.000000" rx="0" ry="0" style="stroke:#000000;fill:#FFFFFF;"/>
</a>
<text x="10.000000" y="7.000000" font-family="Verdana" font-size="7"></text>
<a xlink:href="peakenvelope-0x60002173a370.svg">
<rect x="71.000000" y="50.000000" width="77.400000" height="24.000000" rx="0" ry="0" style="stroke:#000000;fill:#FFFFFF;"/>
</a>
<a xlink:href="peakenvelope-0x60002173a370.svg">
<text x="109.700000" y="64.000000" font-family="Verdana" font-size="7" text-anchor="middle" fill="#000000">peakenvelope(0.1f)</text>
</a>
<circle cx="73.000000" cy="52.000000" r="1"/>
<line x1="68.000000" y1="61.000000" x2="71.000000" y2="62.000000"  transform="rotate(0.000000,71.000000,62.000000)" style="stroke: black; stroke-width:0.25;"/>
<line x1="68.000000" y1="63.000000" x2="71.000000" y2="62.000000"  transform="rotate(0.000000,71.000000,62.000000)" style="stroke: black; stroke-width:0.25;"/>
<a xlink:href="pkTresh-0x6000094ea130.svg">
<rect x="90.350000" y="82.000000" width="38.700000" height="24.000000" rx="0" ry="0" style="stroke:#000000;fill:#FFFFFF;"/>
</a>
<a xlink:href="pkTresh-0x6000094ea130.svg">
<text x="109.700000" y="96.000000" font-family="Verdana" font-size="7" text-anchor="middle" fill="#000000">pkTresh</text>
</a>
<circle cx="92.350000" cy="84.000000" r="1"/>
<rect x="164.400000" y="66.000000" width="24.000000" height="24.000000" rx="0" ry="0" style="stroke:#000000;fill:#FFFFFF;"/>
<text x="176.400000" y="80.000000" font-family="Verdana" font-size="7" text-anchor="middle" fill="#000000">&gt;</text>
<circle cx="166.400000" cy="68.000000" r="1"/>
<line x1="161.400000" y1="73.000000" x2="164.400000" y2="74.000000"  transform="rotate(0.000000,164.400000,74.000000)" style="stroke: black; stroke-width:0.25;"/>
<line x1="161.400000" y1="75.000000" x2="164.400000" y2="74.000000"  transform="rotate(0.000000,164.400000,74.000000)" style="stroke: black; stroke-width:0.25;"/>
<line x1="161.400000" y1="81.000000" x2="164.400000" y2="82.000000"  transform="rotate(0.000000,164.400000,82.000000)" style="stroke: black; stroke-width:0.25;"/>
<line x1="161.400000" y1="83.000000" x2="164.400000" y2="82.000000"  transform="rotate(0.000000,164.400000,82.000000)" style="stroke: black; stroke-width:0.25;"/>
<a xlink:href="line-0x6000217010e0.svg">
<rect x="204.400000" y="24.000000" width="129.000000" height="24.000000" rx="0" ry="0" style="stroke:#000000;fill:#FFFFFF;"/>
</a>
<a xlink:href="line-0x6000217010e0.svg">
<text x="268.900000" y="38.000000" font-family="Verdana" font-size="7" text-anchor="middle" fill="#000000">line((1.92e+0...in),0.1f : *)</text>
</a>
<circle cx="206.400000" cy="26.000000" r="1"/>
<line x1="201.400000" y1="35.000000" x2="204.400000" y2="36.000000"  transform="rotate(0.000000,204.400000,36.000000)" style="stroke: black; stroke-width:0.25;"/>
<line x1="201.400000" y1="37.000000" x2="204.400000" y2="36.000000"  transform="rotate(0.000000,204.400000,36.000000)" style="stroke: black; stroke-width:0.25;"/>
<a xlink:href="break-0x6000017db8d0.svg">
<rect x="256.000000" y="56.000000" width="25.800000" height="24.000000" rx="0" ry="0" style="stroke:#000000;fill:#FFFFFF;"/>
</a>
<a xlink:href="break-0x6000017db8d0.svg">
<text x="268.900000" y="70.000000" font-family="Verdana" font-size="7" text-anchor="middle" fill="#000000">break</text>
</a>
<circle cx="258.000000" cy="58.000000" r="1"/>
<rect x="349.400000" y="40.000000" width="24.000000" height="24.000000" rx="0" ry="0" style="stroke:#000000;fill:#FFFFFF;"/>
<text x="361.400000" y="54.000000" font-family="Verdana" font-size="7" text-anchor="middle" fill="#000000">/</text>
<circle cx="351.400000" cy="42.000000" r="1"/>
<line x1="346.400000" y1="47.000000" x2="349.400000" y2="48.000000"  transform="rotate(0.000000,349.400000,48.000000)" style="stroke: black; stroke-width:0.25;"/>
<line x1="346.400000" y1="49.000000" x2="349.400000" y2="48.000000"  transform="rotate(0.000000,349.400000,48.000000)" style="stroke: black; stroke-width:0.25;"/>
<line x1="346.400000" y1="55.000000" x2="349.400000" y2="56.000000"  transform="rotate(0.000000,349.400000,56.000000)" style="stroke: black; stroke-width:0.25;"/>
<line x1="346.400000" y1="57.000000" x2="349.400000" y2="56.000000"  transform="rotate(0.000000,349.400000,56.000000)" style="stroke: black; stroke-width:0.25;"/>
<rect x="276.900000" y="98.000000" width="24.000000" height="24.000000" rx="0" ry="0" style="stroke:#000000;fill:#FFFFFF;"/>
<text x="288.900000" y="112.000000" font-family="Verdana" font-size="7" text-anchor="middle" fill="#000000">0</text>
<circle cx="278.900000" cy="100.000000" r="1"/>
<line x1="267.900000" y1="89.000000" x2="267.900000" y2="131.000000"  style="stroke: black; stroke-linecap:round; stroke-width:0.25; stroke-dasharray:3,3;"/>
<line x1="267.900000" y1="131.000000" x2="309.900000" y2="131.000000"  style="stroke: black; stroke-linecap:round; stroke-width:0.25; stroke-dasharray:3,3;"/>
<line x1="309.900000" y1="131.000000" x2="309.900000" y2="89.000000"  style="stroke: black; stroke-linecap:round; stroke-width:0.25; stroke-dasharray:3,3;"/>
<line x1="267.900000" y1="89.000000" x2="272.900000" y2="89.000000"  style="stroke: black; stroke-linecap:round; stroke-width:0.25; stroke-dasharray:3,3;"/>
<line x1="292.250000" y1="89.000000" x2="309.900000" y2="89.000000"  style="stroke: black; stroke-linecap:round; stroke-width:0.25; stroke-dasharray:3,3;"/>
<text x="272.900000" y="91.000000" font-family="Verdana" font-size="7">SAFE</text>
<rect x="389.400000" y="66.000000" width="24.000000" height="24.000000" rx="0" ry="0" style="stroke:#000000;fill:#FFFFFF;"/>
<text x="401.400000" y="80.000000" font-family="Verdana" font-size="7" text-anchor="middle" fill="#000000">&gt;</text>
<circle cx="391.400000" cy="68.000000" r="1"/>
<line x1="386.400000" y1="73.000000" x2="389.400000" y2="74.000000"  transform="rotate(0.000000,389.400000,74.000000)" style="stroke: black; stroke-width:0.25;"/>
<line x1="386.400000" y1="75.000000" x2="389.400000" y2="74.000000"  transform="rotate(0.000000,389.400000,74.000000)" style="stroke: black; stroke-width:0.25;"/>
<line x1="386.400000" y1="81.000000" x2="389.400000" y2="82.000000"  transform="rotate(0.000000,389.400000,82.000000)" style="stroke: black; stroke-width:0.25;"/>
<line x1="386.400000" y1="83.000000" x2="389.400000" y2="82.000000"  transform="rotate(0.000000,389.400000,82.000000)" style="stroke: black; stroke-width:0.25;"/>
<a xlink:href="diffTresh-0x6000094f2010.svg">
<rect x="421.400000" y="66.000000" width="38.700000" height="24.000000" rx="0" ry="0" style="stroke:#000000;fill:#FFFFFF;"/>
</a>
<a xlink:href="diffTresh-0x6000094f2010.svg">
<text x="440.750000" y="80.000000" font-family="Verdana" font-size="7" text-anchor="middle" fill="#000000">diffTresh</text>
</a>
<circle cx="423.400000" cy="68.000000" r="1"/>
<line x1="418.400000" y1="77.000000" x2="421.400000" y2="78.000000"  transform="rotate(0.000000,421.400000,78.000000)" style="stroke: black; stroke-width:0.25;"/>
<line x1="418.400000" y1="79.000000" x2="421.400000" y2="78.000000"  transform="rotate(0.000000,421.400000,78.000000)" style="stroke: black; stroke-width:0.25;"/>
<line x1="15.000000" y1="15.000000" x2="15.000000" y2="141.000000"  style="stroke: black; stroke-linecap:round; stroke-width:0.25; stroke-dasharray:3,3;"/>
<line x1="15.000000" y1="141.000000" x2="477.100000" y2="141.000000"  style="stroke: black; stroke-linecap:round; stroke-width:0.25; stroke-dasharray:3,3;"/>
<line x1="477.100000" y1="141.000000" x2="477.100000" y2="15.000000"  style="stroke: black; stroke-linecap:round; stroke-width:0.25; stroke-dasharray:3,3;"/>
<line x1="15.000000" y1="15.000000" x2="20.000000" y2="15.000000"  style="stroke: black; stroke-linecap:round; stroke-width:0.25; stroke-dasharray:3,3;"/>
<line x1="119.975000" y1="15.000000" x2="477.100000" y2="15.000000"  style="stroke: black; stroke-linecap:round; stroke-width:0.25; stroke-dasharray:3,3;"/>
<text x="20.000000" y="17.000000" font-family="Verdana" font-size="7">rilevatorePic...AYER2[nil]}])</text>
<line x1="479.100000" y1="77.000000" x2="482.100000" y2="78.000000"  transform="rotate(0.000000,482.100000,78.000000)" style="stroke: black; stroke-width:0.25;"/>
<line x1="479.100000" y1="79.000000" x2="482.100000" y2="78.000000"  transform="rotate(0.000000,482.100000,78.000000)" style="stroke: black; stroke-width:0.25;"/>
<line x1="10.000000" y1="78.000000" x2="20.000000" y2="78.000000"  style="stroke:black; stroke-linecap:round; stroke-width:0.25;"/>
<line x1="20.000000" y1="78.000000" x2="24.000000" y2="78.000000"  style="stroke:black; stroke-linecap:round; stroke-width:0.25;"/>
<line x1="24.000000" y1="78.000000" x2="28.000000" y2="78.000000"  style="stroke:black; stroke-linecap:round; stroke-width:0.25;"/>
<line x1="28.000000" y1="78.000000" x2="28.000000" y2="78.000000"  style="stroke:black; stroke-linecap:round; stroke-width:0.25;"/>
<line x1="28.000000" y1="78.000000" x2="32.000000" y2="78.000000"  style="stroke:black; stroke-linecap:round; stroke-width:0.25;"/>
<line x1="32.000000" y1="78.000000" x2="36.000000" y2="78.000000"  style="stroke:black; stroke-linecap:round; stroke-width:0.25;"/>
<line x1="36.000000" y1="78.000000" x2="67.000000" y2="62.000000"  style="stroke:black; stroke-linecap:round; stroke-width:0.25;"/>
<line x1="67.000000" y1="62.000000" x2="71.000000" y2="62.000000"  style="stroke:black; stroke-linecap:round; stroke-width:0.25;"/>
<line x1="129.050000" y1="94.000000" x2="133.050000" y2="94.000000"  style="stroke:black; stroke-linecap:round; stroke-width:0.25;"/>
<line x1="133.050000" y1="94.000000" x2="152.400000" y2="94.000000"  style="stroke:black; stroke-linecap:round; stroke-width:0.25;"/>
<line x1="148.400000" y1="62.000000" x2="152.400000" y2="62.000000"  style="stroke:black; stroke-linecap:round; stroke-width:0.25;"/>
<line x1="152.400000" y1="62.000000" x2="160.400000" y2="62.000000"  style="stroke:black; stroke-linecap:round; stroke-width:0.25;"/>
<line x1="152.400000" y1="82.000000" x2="160.400000" y2="82.000000"  style="stroke:black; stroke-linecap:round; stroke-width:0.25;"/>
<line x1="152.400000" y1="94.000000" x2="152.400000" y2="82.000000"  style="stroke:black; stroke-linecap:round; stroke-width:0.25;"/>
<line x1="152.400000" y1="94.000000" x2="152.400000" y2="94.000000"  style="stroke:black; stroke-linecap:round; stroke-width:0.25;"/>
<line x1="160.400000" y1="62.000000" x2="160.400000" y2="74.000000"  style="stroke:black; stroke-linecap:round; stroke-width:0.25;"/>
<line x1="160.400000" y1="74.000000" x2="160.400000" y2="74.000000"  style="stroke:black; stroke-linecap:round; stroke-width:0.25;"/>
<line x1="160.400000" y1="74.000000" x2="164.400000" y2="74.000000"  style="stroke:black; stroke-linecap:round; stroke-width:0.25;"/>
<line x1="160.400000" y1="82.000000" x2="164.400000" y2="82.000000"  style="stroke:black; stroke-linecap:round; stroke-width:0.25;"/>
<line x1="188.400000" y1="78.000000" x2="192.400000" y2="78.000000"  style="stroke:black; stroke-linecap:round; stroke-width:0.25;"/>
<line x1="192.400000" y1="36.000000" x2="200.400000" y2="36.000000"  style="stroke:black; stroke-linecap:round; stroke-width:0.25;"/>
<line x1="192.400000" y1="78.000000" x2="192.400000" y2="36.000000"  style="stroke:black; stroke-linecap:round; stroke-width:0.25;"/>
<line x1="192.400000" y1="78.000000" x2="192.400000" y2="78.000000"  style="stroke:black; stroke-linecap:round; stroke-width:0.25;"/>
<line x1="200.400000" y1="36.000000" x2="204.400000" y2="36.000000"  style="stroke:black; stroke-linecap:round; stroke-width:0.25;"/>
<line x1="281.800000" y1="68.000000" x2="285.800000" y2="68.000000"  style="stroke:black; stroke-linecap:round; stroke-width:0.25;"/>
<line x1="285.800000" y1="68.000000" x2="337.400000" y2="68.000000"  style="stroke:black; stroke-linecap:round; stroke-width:0.25;"/>
<line x1="300.900000" y1="110.000000" x2="304.900000" y2="110.000000"  style="stroke:black; stroke-linecap:round; stroke-width:0.25;"/>
<line x1="304.900000" y1="110.000000" x2="314.900000" y2="110.000000"  style="stroke:black; stroke-linecap:round; stroke-width:0.25;"/>
<line x1="314.900000" y1="110.000000" x2="377.400000" y2="110.000000"  style="stroke:black; stroke-linecap:round; stroke-width:0.25;"/>
<line x1="333.400000" y1="36.000000" x2="337.400000" y2="36.000000"  style="stroke:black; stroke-linecap:round; stroke-width:0.25;"/>
<line x1="337.400000" y1="36.000000" x2="345.400000" y2="36.000000"  style="stroke:black; stroke-linecap:round; stroke-width:0.25;"/>
<line x1="337.400000" y1="56.000000" x2="345.400000" y2="56.000000"  style="stroke:black; stroke-linecap:round; stroke-width:0.25;"/>
<line x1="337.400000" y1="68.000000" x2="337.400000" y2="56.000000"  style="stroke:black; stroke-linecap:round; stroke-width:0.25;"/>
<line x1="337.400000" y1="68.000000" x2="337.400000" y2="68.000000"  style="stroke:black; stroke-linecap:round; stroke-width:0.25;"/>
<line x1="345.400000" y1="36.000000" x2="345.400000" y2="48.000000"  style="stroke:black; stroke-linecap:round; stroke-width:0.25;"/>
<line x1="345.400000" y1="48.000000" x2="345.400000" y2="48.000000"  style="stroke:black; stroke-linecap:round; stroke-width:0.25;"/>
<line x1="345.400000" y1="48.000000" x2="349.400000" y2="48.000000"  style="stroke:black; stroke-linecap:round; stroke-width:0.25;"/>
<line x1="345.400000" y1="56.000000" x2="349.400000" y2="56.000000"  style="stroke:black; stroke-linecap:round; stroke-width:0.25;"/>
<line x1="373.400000" y1="52.000000" x2="377.400000" y2="52.000000"  style="stroke:black; stroke-linecap:round; stroke-width:0.25;"/>
<line x1="377.400000" y1="52.000000" x2="385.400000" y2="52.000000"  style="stroke:black; stroke-linecap:round; stroke-width:0.25;"/>
<line x1="377.400000" y1="82.000000" x2="385.400000" y2="82.000000"  style="stroke:black; stroke-linecap:round; stroke-width:0.25;"/>
<line x1="377.400000" y1="110.000000" x2="377.400000" y2="82.000000"  style="stroke:black; stroke-linecap:round; stroke-width:0.25;"/>
<line x1="377.400000" y1="110.000000" x2="377.400000" y2="110.000000"  style="stroke:black; stroke-linecap:round; stroke-width:0.25;"/>
<line x1="385.400000" y1="52.000000" x2="385.400000" y2="74.000000"  style="stroke:black; stroke-linecap:round; stroke-width:0.25;"/>
<line x1="385.400000" y1="74.000000" x2="385.400000" y2="74.000000"  style="stroke:black; stroke-linecap:round; stroke-width:0.25;"/>
<line x1="385.400000" y1="74.000000" x2="389.400000" y2="74.000000"  style="stroke:black; stroke-linecap:round; stroke-width:0.25;"/>
<line x1="385.400000" y1="82.000000" x2="389.400000" y2="82.000000"  style="stroke:black; stroke-linecap:round; stroke-width:0.25;"/>
<line x1="413.400000" y1="78.000000" x2="417.400000" y2="78.000000"  style="stroke:black; stroke-linecap:round; stroke-width:0.25;"/>
<line x1="417.400000" y1="78.000000" x2="417.400000" y2="78.000000"  style="stroke:black; stroke-linecap:round; stroke-width:0.25;"/>
<line x1="417.400000" y1="78.000000" x2="421.400000" y2="78.000000"  style="stroke:black; stroke-linecap:round; stroke-width:0.25;"/>
<line x1="460.100000" y1="78.000000" x2="464.100000" y2="78.000000"  style="stroke:black; stroke-linecap:round; stroke-width:0.25;"/>
<line x1="464.100000" y1="78.000000" x2="464.100000" y2="78.000000"  style="stroke:black; stroke-linecap:round; stroke-width:0.25;"/>
<line x1="464.100000" y1="78.000000" x2="468.100000" y2="78.000000"  style="stroke:black; stroke-linecap:round; stroke-width:0.25;"/>
<line x1="468.100000" y1="78.000000" x2="472.100000" y2="78.000000"  style="stroke:black; stroke-linecap:round; stroke-width:0.25;"/>
<line x1="472.100000" y1="78.000000" x2="482.100000" y2="78.000000"  style="stroke:black; stroke-linecap:round; stroke-width:0.25;"/>
</svg>
