<?xml version="1.0"?>
<svg xmlns="http://www.w3.org/2000/svg" xmlns:xlink="http://www.w3.org/1999/xlink" viewBox="0 0 261.400000 424.000000" width="130.700000mm" height="212.000000mm" version="1.1">
<a xlink:href="noiseFbkBank2-0x60001d4ec6c0.svg">
<rect x="0.000000" y="0.000000" width="260.400000" height="423.000000" rx="0" ry="0" style="stroke:#000000;fill:#FFFFFF;"/>
</a>
<text x="10.000000" y="7.000000" font-family="Verdana" font-size="7"></text>
<rect x="80.000000" y="24.000000" width="38.700000" height="24.000000" rx="0" ry="0" style="stroke:#000000;fill:#FFFFFF;"/>
<text x="99.350000" y="38.000000" font-family="Verdana" font-size="7" text-anchor="middle" fill="#000000">[141] i1</text>
<circle cx="82.000000" cy="26.000000" r="1"/>
<line x1="77.000000" y1="35.000000" x2="80.000000" y2="36.000000"  transform="rotate(0.000000,80.000000,36.000000)" style="stroke: black; stroke-width:0.25;"/>
<line x1="77.000000" y1="37.000000" x2="80.000000" y2="36.000000"  transform="rotate(0.000000,80.000000,36.000000)" style="stroke: black; stroke-width:0.25;"/>
<rect x="80.000000" y="56.000000" width="38.700000" height="24.000000" rx="0" ry="0" style="stroke:#000000;fill:#FFFFFF;"/>
<text x="99.350000" y="70.000000" font-family="Verdana" font-size="7" text-anchor="middle" fill="#000000">[142] i2</text>
<circle cx="82.000000" cy="58.000000" r="1"/>
<line x1="77.000000" y1="67.000000" x2="80.000000" y2="68.000000"  transform="rotate(0.000000,80.000000,68.000000)" style="stroke: black; stroke-width:0.25;"/>
<line x1="77.000000" y1="69.000000" x2="80.000000" y2="68.000000"  transform="rotate(0.000000,80.000000,68.000000)" style="stroke: black; stroke-width:0.25;"/>
<rect x="80.000000" y="88.000000" width="38.700000" height="24.000000" rx="0" ry="0" style="stroke:#000000;fill:#FFFFFF;"/>
<text x="99.350000" y="102.000000" font-family="Verdana" font-size="7" text-anchor="middle" fill="#000000">[143] i3</text>
<circle cx="82.000000" cy="90.000000" r="1"/>
<line x1="77.000000" y1="99.000000" x2="80.000000" y2="100.000000"  transform="rotate(0.000000,80.000000,100.000000)" style="stroke: black; stroke-width:0.25;"/>
<line x1="77.000000" y1="101.000000" x2="80.000000" y2="100.000000"  transform="rotate(0.000000,80.000000,100.000000)" style="stroke: black; stroke-width:0.25;"/>
<rect x="80.000000" y="120.000000" width="38.700000" height="24.000000" rx="0" ry="0" style="stroke:#000000;fill:#FFFFFF;"/>
<text x="99.350000" y="134.000000" font-family="Verdana" font-size="7" text-anchor="middle" fill="#000000">[144] i4</text>
<circle cx="82.000000" cy="122.000000" r="1"/>
<line x1="77.000000" y1="131.000000" x2="80.000000" y2="132.000000"  transform="rotate(0.000000,80.000000,132.000000)" style="stroke: black; stroke-width:0.25;"/>
<line x1="77.000000" y1="133.000000" x2="80.000000" y2="132.000000"  transform="rotate(0.000000,80.000000,132.000000)" style="stroke: black; stroke-width:0.25;"/>
<rect x="80.000000" y="152.000000" width="38.700000" height="24.000000" rx="0" ry="0" style="stroke:#000000;fill:#FFFFFF;"/>
<text x="99.350000" y="166.000000" font-family="Verdana" font-size="7" text-anchor="middle" fill="#000000">[145] i5</text>
<circle cx="82.000000" cy="154.000000" r="1"/>
<line x1="77.000000" y1="163.000000" x2="80.000000" y2="164.000000"  transform="rotate(0.000000,80.000000,164.000000)" style="stroke: black; stroke-width:0.25;"/>
<line x1="77.000000" y1="165.000000" x2="80.000000" y2="164.000000"  transform="rotate(0.000000,80.000000,164.000000)" style="stroke: black; stroke-width:0.25;"/>
<rect x="80.000000" y="184.000000" width="38.700000" height="24.000000" rx="0" ry="0" style="stroke:#000000;fill:#FFFFFF;"/>
<text x="99.350000" y="198.000000" font-family="Verdana" font-size="7" text-anchor="middle" fill="#000000">[146] i6</text>
<circle cx="82.000000" cy="186.000000" r="1"/>
<line x1="77.000000" y1="195.000000" x2="80.000000" y2="196.000000"  transform="rotate(0.000000,80.000000,196.000000)" style="stroke: black; stroke-width:0.25;"/>
<line x1="77.000000" y1="197.000000" x2="80.000000" y2="196.000000"  transform="rotate(0.000000,80.000000,196.000000)" style="stroke: black; stroke-width:0.25;"/>
<rect x="80.000000" y="216.000000" width="38.700000" height="24.000000" rx="0" ry="0" style="stroke:#000000;fill:#FFFFFF;"/>
<text x="99.350000" y="230.000000" font-family="Verdana" font-size="7" text-anchor="middle" fill="#000000">[147] e1</text>
<circle cx="82.000000" cy="218.000000" r="1"/>
<line x1="77.000000" y1="227.000000" x2="80.000000" y2="228.000000"  transform="rotate(0.000000,80.000000,228.000000)" style="stroke: black; stroke-width:0.25;"/>
<line x1="77.000000" y1="229.000000" x2="80.000000" y2="228.000000"  transform="rotate(0.000000,80.000000,228.000000)" style="stroke: black; stroke-width:0.25;"/>
<rect x="80.000000" y="248.000000" width="38.700000" height="24.000000" rx="0" ry="0" style="stroke:#000000;fill:#FFFFFF;"/>
<text x="99.350000" y="262.000000" font-family="Verdana" font-size="7" text-anchor="middle" fill="#000000">[148] e2</text>
<circle cx="82.000000" cy="250.000000" r="1"/>
<line x1="77.000000" y1="259.000000" x2="80.000000" y2="260.000000"  transform="rotate(0.000000,80.000000,260.000000)" style="stroke: black; stroke-width:0.25;"/>
<line x1="77.000000" y1="261.000000" x2="80.000000" y2="260.000000"  transform="rotate(0.000000,80.000000,260.000000)" style="stroke: black; stroke-width:0.25;"/>
<rect x="80.000000" y="280.000000" width="38.700000" height="24.000000" rx="0" ry="0" style="stroke:#000000;fill:#FFFFFF;"/>
<text x="99.350000" y="294.000000" font-family="Verdana" font-size="7" text-anchor="middle" fill="#000000">[149] e3</text>
<circle cx="82.000000" cy="282.000000" r="1"/>
<line x1="77.000000" y1="291.000000" x2="80.000000" y2="292.000000"  transform="rotate(0.000000,80.000000,292.000000)" style="stroke: black; stroke-width:0.25;"/>
<line x1="77.000000" y1="293.000000" x2="80.000000" y2="292.000000"  transform="rotate(0.000000,80.000000,292.000000)" style="stroke: black; stroke-width:0.25;"/>
<rect x="80.000000" y="312.000000" width="38.700000" height="24.000000" rx="0" ry="0" style="stroke:#000000;fill:#FFFFFF;"/>
<text x="99.350000" y="326.000000" font-family="Verdana" font-size="7" text-anchor="middle" fill="#000000">[150] e4</text>
<circle cx="82.000000" cy="314.000000" r="1"/>
<line x1="77.000000" y1="323.000000" x2="80.000000" y2="324.000000"  transform="rotate(0.000000,80.000000,324.000000)" style="stroke: black; stroke-width:0.25;"/>
<line x1="77.000000" y1="325.000000" x2="80.000000" y2="324.000000"  transform="rotate(0.000000,80.000000,324.000000)" style="stroke: black; stroke-width:0.25;"/>
<rect x="80.000000" y="344.000000" width="38.700000" height="24.000000" rx="0" ry="0" style="stroke:#000000;fill:#FFFFFF;"/>
<text x="99.350000" y="358.000000" font-family="Verdana" font-size="7" text-anchor="middle" fill="#000000">[151] e5</text>
<circle cx="82.000000" cy="346.000000" r="1"/>
<line x1="77.000000" y1="355.000000" x2="80.000000" y2="356.000000"  transform="rotate(0.000000,80.000000,356.000000)" style="stroke: black; stroke-width:0.25;"/>
<line x1="77.000000" y1="357.000000" x2="80.000000" y2="356.000000"  transform="rotate(0.000000,80.000000,356.000000)" style="stroke: black; stroke-width:0.25;"/>
<rect x="80.000000" y="376.000000" width="38.700000" height="24.000000" rx="0" ry="0" style="stroke:#000000;fill:#FFFFFF;"/>
<text x="99.350000" y="390.000000" font-family="Verdana" font-size="7" text-anchor="middle" fill="#000000">[152] e6</text>
<circle cx="82.000000" cy="378.000000" r="1"/>
<line x1="77.000000" y1="387.000000" x2="80.000000" y2="388.000000"  transform="rotate(0.000000,80.000000,388.000000)" style="stroke: black; stroke-width:0.25;"/>
<line x1="77.000000" y1="389.000000" x2="80.000000" y2="388.000000"  transform="rotate(0.000000,80.000000,388.000000)" style="stroke: black; stroke-width:0.25;"/>
<rect x="126.700000" y="24.000000" width="38.700000" height="24.000000" rx="0" ry="0" style="stroke:#000000;fill:#FFFFFF;"/>
<text x="146.050000" y="38.000000" font-family="Verdana" font-size="7" text-anchor="middle" fill="#000000">[141] i1</text>
<circle cx="128.700000" cy="26.000000" r="1"/>
<rect x="126.700000" y="56.000000" width="38.700000" height="24.000000" rx="0" ry="0" style="stroke:#000000;fill:#FFFFFF;"/>
<text x="146.050000" y="70.000000" font-family="Verdana" font-size="7" text-anchor="middle" fill="#000000">[147] e1</text>
<circle cx="128.700000" cy="58.000000" r="1"/>
<rect x="181.400000" y="40.000000" width="24.000000" height="24.000000" rx="0" ry="0" style="stroke:#000000;fill:#FFFFFF;"/>
<text x="193.400000" y="54.000000" font-family="Verdana" font-size="7" text-anchor="middle" fill="#000000">*</text>
<circle cx="183.400000" cy="42.000000" r="1"/>
<line x1="178.400000" y1="47.000000" x2="181.400000" y2="48.000000"  transform="rotate(0.000000,181.400000,48.000000)" style="stroke: black; stroke-width:0.25;"/>
<line x1="178.400000" y1="49.000000" x2="181.400000" y2="48.000000"  transform="rotate(0.000000,181.400000,48.000000)" style="stroke: black; stroke-width:0.25;"/>
<line x1="178.400000" y1="55.000000" x2="181.400000" y2="56.000000"  transform="rotate(0.000000,181.400000,56.000000)" style="stroke: black; stroke-width:0.25;"/>
<line x1="178.400000" y1="57.000000" x2="181.400000" y2="56.000000"  transform="rotate(0.000000,181.400000,56.000000)" style="stroke: black; stroke-width:0.25;"/>
<rect x="126.700000" y="88.000000" width="38.700000" height="24.000000" rx="0" ry="0" style="stroke:#000000;fill:#FFFFFF;"/>
<text x="146.050000" y="102.000000" font-family="Verdana" font-size="7" text-anchor="middle" fill="#000000">[142] i2</text>
<circle cx="128.700000" cy="90.000000" r="1"/>
<rect x="126.700000" y="120.000000" width="38.700000" height="24.000000" rx="0" ry="0" style="stroke:#000000;fill:#FFFFFF;"/>
<text x="146.050000" y="134.000000" font-family="Verdana" font-size="7" text-anchor="middle" fill="#000000">[148] e2</text>
<circle cx="128.700000" cy="122.000000" r="1"/>
<rect x="181.400000" y="104.000000" width="24.000000" height="24.000000" rx="0" ry="0" style="stroke:#000000;fill:#FFFFFF;"/>
<text x="193.400000" y="118.000000" font-family="Verdana" font-size="7" text-anchor="middle" fill="#000000">*</text>
<circle cx="183.400000" cy="106.000000" r="1"/>
<line x1="178.400000" y1="111.000000" x2="181.400000" y2="112.000000"  transform="rotate(0.000000,181.400000,112.000000)" style="stroke: black; stroke-width:0.25;"/>
<line x1="178.400000" y1="113.000000" x2="181.400000" y2="112.000000"  transform="rotate(0.000000,181.400000,112.000000)" style="stroke: black; stroke-width:0.25;"/>
<line x1="178.400000" y1="119.000000" x2="181.400000" y2="120.000000"  transform="rotate(0.000000,181.400000,120.000000)" style="stroke: black; stroke-width:0.25;"/>
<line x1="178.400000" y1="121.000000" x2="181.400000" y2="120.000000"  transform="rotate(0.000000,181.400000,120.000000)" style="stroke: black; stroke-width:0.25;"/>
<rect x="126.700000" y="152.000000" width="38.700000" height="24.000000" rx="0" ry="0" style="stroke:#000000;fill:#FFFFFF;"/>
<text x="146.050000" y="166.000000" font-family="Verdana" font-size="7" text-anchor="middle" fill="#000000">[143] i3</text>
<circle cx="128.700000" cy="154.000000" r="1"/>
<rect x="126.700000" y="184.000000" width="38.700000" height="24.000000" rx="0" ry="0" style="stroke:#000000;fill:#FFFFFF;"/>
<text x="146.050000" y="198.000000" font-family="Verdana" font-size="7" text-anchor="middle" fill="#000000">[149] e3</text>
<circle cx="128.700000" cy="186.000000" r="1"/>
<rect x="181.400000" y="168.000000" width="24.000000" height="24.000000" rx="0" ry="0" style="stroke:#000000;fill:#FFFFFF;"/>
<text x="193.400000" y="182.000000" font-family="Verdana" font-size="7" text-anchor="middle" fill="#000000">*</text>
<circle cx="183.400000" cy="170.000000" r="1"/>
<line x1="178.400000" y1="175.000000" x2="181.400000" y2="176.000000"  transform="rotate(0.000000,181.400000,176.000000)" style="stroke: black; stroke-width:0.25;"/>
<line x1="178.400000" y1="177.000000" x2="181.400000" y2="176.000000"  transform="rotate(0.000000,181.400000,176.000000)" style="stroke: black; stroke-width:0.25;"/>
<line x1="178.400000" y1="183.000000" x2="181.400000" y2="184.000000"  transform="rotate(0.000000,181.400000,184.000000)" style="stroke: black; stroke-width:0.25;"/>
<line x1="178.400000" y1="185.000000" x2="181.400000" y2="184.000000"  transform="rotate(0.000000,181.400000,184.000000)" style="stroke: black; stroke-width:0.25;"/>
<rect x="126.700000" y="216.000000" width="38.700000" height="24.000000" rx="0" ry="0" style="stroke:#000000;fill:#FFFFFF;"/>
<text x="146.050000" y="230.000000" font-family="Verdana" font-size="7" text-anchor="middle" fill="#000000">[144] i4</text>
<circle cx="128.700000" cy="218.000000" r="1"/>
<rect x="126.700000" y="248.000000" width="38.700000" height="24.000000" rx="0" ry="0" style="stroke:#000000;fill:#FFFFFF;"/>
<text x="146.050000" y="262.000000" font-family="Verdana" font-size="7" text-anchor="middle" fill="#000000">[150] e4</text>
<circle cx="128.700000" cy="250.000000" r="1"/>
<rect x="181.400000" y="232.000000" width="24.000000" height="24.000000" rx="0" ry="0" style="stroke:#000000;fill:#FFFFFF;"/>
<text x="193.400000" y="246.000000" font-family="Verdana" font-size="7" text-anchor="middle" fill="#000000">*</text>
<circle cx="183.400000" cy="234.000000" r="1"/>
<line x1="178.400000" y1="239.000000" x2="181.400000" y2="240.000000"  transform="rotate(0.000000,181.400000,240.000000)" style="stroke: black; stroke-width:0.25;"/>
<line x1="178.400000" y1="241.000000" x2="181.400000" y2="240.000000"  transform="rotate(0.000000,181.400000,240.000000)" style="stroke: black; stroke-width:0.25;"/>
<line x1="178.400000" y1="247.000000" x2="181.400000" y2="248.000000"  transform="rotate(0.000000,181.400000,248.000000)" style="stroke: black; stroke-width:0.25;"/>
<line x1="178.400000" y1="249.000000" x2="181.400000" y2="248.000000"  transform="rotate(0.000000,181.400000,248.000000)" style="stroke: black; stroke-width:0.25;"/>
<rect x="126.700000" y="280.000000" width="38.700000" height="24.000000" rx="0" ry="0" style="stroke:#000000;fill:#FFFFFF;"/>
<text x="146.050000" y="294.000000" font-family="Verdana" font-size="7" text-anchor="middle" fill="#000000">[145] i5</text>
<circle cx="128.700000" cy="282.000000" r="1"/>
<rect x="126.700000" y="312.000000" width="38.700000" height="24.000000" rx="0" ry="0" style="stroke:#000000;fill:#FFFFFF;"/>
<text x="146.050000" y="326.000000" font-family="Verdana" font-size="7" text-anchor="middle" fill="#000000">[151] e5</text>
<circle cx="128.700000" cy="314.000000" r="1"/>
<rect x="181.400000" y="296.000000" width="24.000000" height="24.000000" rx="0" ry="0" style="stroke:#000000;fill:#FFFFFF;"/>
<text x="193.400000" y="310.000000" font-family="Verdana" font-size="7" text-anchor="middle" fill="#000000">*</text>
<circle cx="183.400000" cy="298.000000" r="1"/>
<line x1="178.400000" y1="303.000000" x2="181.400000" y2="304.000000"  transform="rotate(0.000000,181.400000,304.000000)" style="stroke: black; stroke-width:0.25;"/>
<line x1="178.400000" y1="305.000000" x2="181.400000" y2="304.000000"  transform="rotate(0.000000,181.400000,304.000000)" style="stroke: black; stroke-width:0.25;"/>
<line x1="178.400000" y1="311.000000" x2="181.400000" y2="312.000000"  transform="rotate(0.000000,181.400000,312.000000)" style="stroke: black; stroke-width:0.25;"/>
<line x1="178.400000" y1="313.000000" x2="181.400000" y2="312.000000"  transform="rotate(0.000000,181.400000,312.000000)" style="stroke: black; stroke-width:0.25;"/>
<rect x="126.700000" y="344.000000" width="38.700000" height="24.000000" rx="0" ry="0" style="stroke:#000000;fill:#FFFFFF;"/>
<text x="146.050000" y="358.000000" font-family="Verdana" font-size="7" text-anchor="middle" fill="#000000">[146] i6</text>
<circle cx="128.700000" cy="346.000000" r="1"/>
<rect x="126.700000" y="376.000000" width="38.700000" height="24.000000" rx="0" ry="0" style="stroke:#000000;fill:#FFFFFF;"/>
<text x="146.050000" y="390.000000" font-family="Verdana" font-size="7" text-anchor="middle" fill="#000000">[152] e6</text>
<circle cx="128.700000" cy="378.000000" r="1"/>
<rect x="181.400000" y="360.000000" width="24.000000" height="24.000000" rx="0" ry="0" style="stroke:#000000;fill:#FFFFFF;"/>
<text x="193.400000" y="374.000000" font-family="Verdana" font-size="7" text-anchor="middle" fill="#000000">*</text>
<circle cx="183.400000" cy="362.000000" r="1"/>
<line x1="178.400000" y1="367.000000" x2="181.400000" y2="368.000000"  transform="rotate(0.000000,181.400000,368.000000)" style="stroke: black; stroke-width:0.25;"/>
<line x1="178.400000" y1="369.000000" x2="181.400000" y2="368.000000"  transform="rotate(0.000000,181.400000,368.000000)" style="stroke: black; stroke-width:0.25;"/>
<line x1="178.400000" y1="375.000000" x2="181.400000" y2="376.000000"  transform="rotate(0.000000,181.400000,376.000000)" style="stroke: black; stroke-width:0.25;"/>
<line x1="178.400000" y1="377.000000" x2="181.400000" y2="376.000000"  transform="rotate(0.000000,181.400000,376.000000)" style="stroke: black; stroke-width:0.25;"/>
<line x1="15.000000" y1="15.000000" x2="15.000000" y2="409.000000"  style="stroke: black; stroke-linecap:round; stroke-width:0.25; stroke-dasharray:3,3;"/>
<line x1="15.000000" y1="409.000000" x2="246.400000" y2="409.000000"  style="stroke: black; stroke-linecap:round; stroke-width:0.25; stroke-dasharray:3,3;"/>
<line x1="246.400000" y1="409.000000" x2="246.400000" y2="15.000000"  style="stroke: black; stroke-linecap:round; stroke-width:0.25; stroke-dasharray:3,3;"/>
<line x1="15.000000" y1="15.000000" x2="20.000000" y2="15.000000"  style="stroke: black; stroke-linecap:round; stroke-width:0.25; stroke-dasharray:3,3;"/>
<line x1="58.700000" y1="15.000000" x2="246.400000" y2="15.000000"  style="stroke: black; stroke-linecap:round; stroke-width:0.25; stroke-dasharray:3,3;"/>
<text x="20.000000" y="17.000000" font-family="Verdana" font-size="7">routingEnv</text>
<line x1="248.400000" y1="191.000000" x2="251.400000" y2="192.000000"  transform="rotate(0.000000,251.400000,192.000000)" style="stroke: black; stroke-width:0.25;"/>
<line x1="248.400000" y1="193.000000" x2="251.400000" y2="192.000000"  transform="rotate(0.000000,251.400000,192.000000)" style="stroke: black; stroke-width:0.25;"/>
<line x1="248.400000" y1="199.000000" x2="251.400000" y2="200.000000"  transform="rotate(0.000000,251.400000,200.000000)" style="stroke: black; stroke-width:0.25;"/>
<line x1="248.400000" y1="201.000000" x2="251.400000" y2="200.000000"  transform="rotate(0.000000,251.400000,200.000000)" style="stroke: black; stroke-width:0.25;"/>
<line x1="248.400000" y1="207.000000" x2="251.400000" y2="208.000000"  transform="rotate(0.000000,251.400000,208.000000)" style="stroke: black; stroke-width:0.25;"/>
<line x1="248.400000" y1="209.000000" x2="251.400000" y2="208.000000"  transform="rotate(0.000000,251.400000,208.000000)" style="stroke: black; stroke-width:0.25;"/>
<line x1="248.400000" y1="215.000000" x2="251.400000" y2="216.000000"  transform="rotate(0.000000,251.400000,216.000000)" style="stroke: black; stroke-width:0.25;"/>
<line x1="248.400000" y1="217.000000" x2="251.400000" y2="216.000000"  transform="rotate(0.000000,251.400000,216.000000)" style="stroke: black; stroke-width:0.25;"/>
<line x1="248.400000" y1="223.000000" x2="251.400000" y2="224.000000"  transform="rotate(0.000000,251.400000,224.000000)" style="stroke: black; stroke-width:0.25;"/>
<line x1="248.400000" y1="225.000000" x2="251.400000" y2="224.000000"  transform="rotate(0.000000,251.400000,224.000000)" style="stroke: black; stroke-width:0.25;"/>
<line x1="248.400000" y1="231.000000" x2="251.400000" y2="232.000000"  transform="rotate(0.000000,251.400000,232.000000)" style="stroke: black; stroke-width:0.25;"/>
<line x1="248.400000" y1="233.000000" x2="251.400000" y2="232.000000"  transform="rotate(0.000000,251.400000,232.000000)" style="stroke: black; stroke-width:0.25;"/>
<line x1="10.000000" y1="168.000000" x2="20.000000" y2="168.000000"  style="stroke:black; stroke-linecap:round; stroke-width:0.25;"/>
<line x1="10.000000" y1="176.000000" x2="20.000000" y2="176.000000"  style="stroke:black; stroke-linecap:round; stroke-width:0.25;"/>
<line x1="10.000000" y1="184.000000" x2="20.000000" y2="184.000000"  style="stroke:black; stroke-linecap:round; stroke-width:0.25;"/>
<line x1="10.000000" y1="192.000000" x2="20.000000" y2="192.000000"  style="stroke:black; stroke-linecap:round; stroke-width:0.25;"/>
<line x1="10.000000" y1="200.000000" x2="20.000000" y2="200.000000"  style="stroke:black; stroke-linecap:round; stroke-width:0.25;"/>
<line x1="10.000000" y1="208.000000" x2="20.000000" y2="208.000000"  style="stroke:black; stroke-linecap:round; stroke-width:0.25;"/>
<line x1="10.000000" y1="216.000000" x2="20.000000" y2="216.000000"  style="stroke:black; stroke-linecap:round; stroke-width:0.25;"/>
<line x1="10.000000" y1="224.000000" x2="20.000000" y2="224.000000"  style="stroke:black; stroke-linecap:round; stroke-width:0.25;"/>
<line x1="10.000000" y1="232.000000" x2="20.000000" y2="232.000000"  style="stroke:black; stroke-linecap:round; stroke-width:0.25;"/>
<line x1="10.000000" y1="240.000000" x2="20.000000" y2="240.000000"  style="stroke:black; stroke-linecap:round; stroke-width:0.25;"/>
<line x1="10.000000" y1="248.000000" x2="20.000000" y2="248.000000"  style="stroke:black; stroke-linecap:round; stroke-width:0.25;"/>
<line x1="10.000000" y1="256.000000" x2="20.000000" y2="256.000000"  style="stroke:black; stroke-linecap:round; stroke-width:0.25;"/>
<line x1="20.000000" y1="168.000000" x2="24.000000" y2="168.000000"  style="stroke:black; stroke-linecap:round; stroke-width:0.25;"/>
<line x1="20.000000" y1="176.000000" x2="24.000000" y2="176.000000"  style="stroke:black; stroke-linecap:round; stroke-width:0.25;"/>
<line x1="20.000000" y1="184.000000" x2="24.000000" y2="184.000000"  style="stroke:black; stroke-linecap:round; stroke-width:0.25;"/>
<line x1="20.000000" y1="192.000000" x2="24.000000" y2="192.000000"  style="stroke:black; stroke-linecap:round; stroke-width:0.25;"/>
<line x1="20.000000" y1="200.000000" x2="24.000000" y2="200.000000"  style="stroke:black; stroke-linecap:round; stroke-width:0.25;"/>
<line x1="20.000000" y1="208.000000" x2="24.000000" y2="208.000000"  style="stroke:black; stroke-linecap:round; stroke-width:0.25;"/>
<line x1="20.000000" y1="216.000000" x2="24.000000" y2="216.000000"  style="stroke:black; stroke-linecap:round; stroke-width:0.25;"/>
<line x1="20.000000" y1="224.000000" x2="24.000000" y2="224.000000"  style="stroke:black; stroke-linecap:round; stroke-width:0.25;"/>
<line x1="20.000000" y1="232.000000" x2="24.000000" y2="232.000000"  style="stroke:black; stroke-linecap:round; stroke-width:0.25;"/>
<line x1="20.000000" y1="240.000000" x2="24.000000" y2="240.000000"  style="stroke:black; stroke-linecap:round; stroke-width:0.25;"/>
<line x1="20.000000" y1="248.000000" x2="24.000000" y2="248.000000"  style="stroke:black; stroke-linecap:round; stroke-width:0.25;"/>
<line x1="20.000000" y1="256.000000" x2="24.000000" y2="256.000000"  style="stroke:black; stroke-linecap:round; stroke-width:0.25;"/>
<line x1="24.000000" y1="168.000000" x2="28.000000" y2="168.000000"  style="stroke:black; stroke-linecap:round; stroke-width:0.25;"/>
<line x1="24.000000" y1="176.000000" x2="28.000000" y2="176.000000"  style="stroke:black; stroke-linecap:round; stroke-width:0.25;"/>
<line x1="24.000000" y1="184.000000" x2="28.000000" y2="184.000000"  style="stroke:black; stroke-linecap:round; stroke-width:0.25;"/>
<line x1="24.000000" y1="192.000000" x2="28.000000" y2="192.000000"  style="stroke:black; stroke-linecap:round; stroke-width:0.25;"/>
<line x1="24.000000" y1="200.000000" x2="28.000000" y2="200.000000"  style="stroke:black; stroke-linecap:round; stroke-width:0.25;"/>
<line x1="24.000000" y1="208.000000" x2="28.000000" y2="208.000000"  style="stroke:black; stroke-linecap:round; stroke-width:0.25;"/>
<line x1="24.000000" y1="216.000000" x2="28.000000" y2="216.000000"  style="stroke:black; stroke-linecap:round; stroke-width:0.25;"/>
<line x1="24.000000" y1="224.000000" x2="28.000000" y2="224.000000"  style="stroke:black; stroke-linecap:round; stroke-width:0.25;"/>
<line x1="24.000000" y1="232.000000" x2="28.000000" y2="232.000000"  style="stroke:black; stroke-linecap:round; stroke-width:0.25;"/>
<line x1="24.000000" y1="240.000000" x2="28.000000" y2="240.000000"  style="stroke:black; stroke-linecap:round; stroke-width:0.25;"/>
<line x1="24.000000" y1="248.000000" x2="28.000000" y2="248.000000"  style="stroke:black; stroke-linecap:round; stroke-width:0.25;"/>
<line x1="24.000000" y1="256.000000" x2="28.000000" y2="256.000000"  style="stroke:black; stroke-linecap:round; stroke-width:0.25;"/>
<line x1="28.000000" y1="36.000000" x2="76.000000" y2="36.000000"  style="stroke:black; stroke-linecap:round; stroke-width:0.25;"/>
<line x1="28.000000" y1="168.000000" x2="28.000000" y2="36.000000"  style="stroke:black; stroke-linecap:round; stroke-width:0.25;"/>
<line x1="28.000000" y1="168.000000" x2="28.000000" y2="168.000000"  style="stroke:black; stroke-linecap:round; stroke-width:0.25;"/>
<line x1="28.000000" y1="176.000000" x2="36.000000" y2="176.000000"  style="stroke:black; stroke-linecap:round; stroke-width:0.25;"/>
<line x1="28.000000" y1="184.000000" x2="44.000000" y2="184.000000"  style="stroke:black; stroke-linecap:round; stroke-width:0.25;"/>
<line x1="28.000000" y1="192.000000" x2="52.000000" y2="192.000000"  style="stroke:black; stroke-linecap:round; stroke-width:0.25;"/>
<line x1="28.000000" y1="200.000000" x2="60.000000" y2="200.000000"  style="stroke:black; stroke-linecap:round; stroke-width:0.25;"/>
<line x1="28.000000" y1="208.000000" x2="68.000000" y2="208.000000"  style="stroke:black; stroke-linecap:round; stroke-width:0.25;"/>
<line x1="28.000000" y1="216.000000" x2="76.000000" y2="216.000000"  style="stroke:black; stroke-linecap:round; stroke-width:0.25;"/>
<line x1="28.000000" y1="224.000000" x2="68.000000" y2="224.000000"  style="stroke:black; stroke-linecap:round; stroke-width:0.25;"/>
<line x1="28.000000" y1="232.000000" x2="60.000000" y2="232.000000"  style="stroke:black; stroke-linecap:round; stroke-width:0.25;"/>
<line x1="28.000000" y1="240.000000" x2="52.000000" y2="240.000000"  style="stroke:black; stroke-linecap:round; stroke-width:0.25;"/>
<line x1="28.000000" y1="248.000000" x2="44.000000" y2="248.000000"  style="stroke:black; stroke-linecap:round; stroke-width:0.25;"/>
<line x1="28.000000" y1="256.000000" x2="36.000000" y2="256.000000"  style="stroke:black; stroke-linecap:round; stroke-width:0.25;"/>
<line x1="36.000000" y1="68.000000" x2="76.000000" y2="68.000000"  style="stroke:black; stroke-linecap:round; stroke-width:0.25;"/>
<line x1="36.000000" y1="176.000000" x2="36.000000" y2="68.000000"  style="stroke:black; stroke-linecap:round; stroke-width:0.25;"/>
<line x1="36.000000" y1="256.000000" x2="36.000000" y2="388.000000"  style="stroke:black; stroke-linecap:round; stroke-width:0.25;"/>
<line x1="36.000000" y1="388.000000" x2="76.000000" y2="388.000000"  style="stroke:black; stroke-linecap:round; stroke-width:0.25;"/>
<line x1="44.000000" y1="100.000000" x2="76.000000" y2="100.000000"  style="stroke:black; stroke-linecap:round; stroke-width:0.25;"/>
<line x1="44.000000" y1="184.000000" x2="44.000000" y2="100.000000"  style="stroke:black; stroke-linecap:round; stroke-width:0.25;"/>
<line x1="44.000000" y1="248.000000" x2="44.000000" y2="356.000000"  style="stroke:black; stroke-linecap:round; stroke-width:0.25;"/>
<line x1="44.000000" y1="356.000000" x2="76.000000" y2="356.000000"  style="stroke:black; stroke-linecap:round; stroke-width:0.25;"/>
<line x1="52.000000" y1="132.000000" x2="76.000000" y2="132.000000"  style="stroke:black; stroke-linecap:round; stroke-width:0.25;"/>
<line x1="52.000000" y1="192.000000" x2="52.000000" y2="132.000000"  style="stroke:black; stroke-linecap:round; stroke-width:0.25;"/>
<line x1="52.000000" y1="240.000000" x2="52.000000" y2="324.000000"  style="stroke:black; stroke-linecap:round; stroke-width:0.25;"/>
<line x1="52.000000" y1="324.000000" x2="76.000000" y2="324.000000"  style="stroke:black; stroke-linecap:round; stroke-width:0.25;"/>
<line x1="60.000000" y1="164.000000" x2="76.000000" y2="164.000000"  style="stroke:black; stroke-linecap:round; stroke-width:0.25;"/>
<line x1="60.000000" y1="200.000000" x2="60.000000" y2="164.000000"  style="stroke:black; stroke-linecap:round; stroke-width:0.25;"/>
<line x1="60.000000" y1="232.000000" x2="60.000000" y2="292.000000"  style="stroke:black; stroke-linecap:round; stroke-width:0.25;"/>
<line x1="60.000000" y1="292.000000" x2="76.000000" y2="292.000000"  style="stroke:black; stroke-linecap:round; stroke-width:0.25;"/>
<line x1="68.000000" y1="196.000000" x2="76.000000" y2="196.000000"  style="stroke:black; stroke-linecap:round; stroke-width:0.25;"/>
<line x1="68.000000" y1="208.000000" x2="68.000000" y2="196.000000"  style="stroke:black; stroke-linecap:round; stroke-width:0.25;"/>
<line x1="68.000000" y1="224.000000" x2="68.000000" y2="260.000000"  style="stroke:black; stroke-linecap:round; stroke-width:0.25;"/>
<line x1="68.000000" y1="260.000000" x2="76.000000" y2="260.000000"  style="stroke:black; stroke-linecap:round; stroke-width:0.25;"/>
<line x1="76.000000" y1="36.000000" x2="80.000000" y2="36.000000"  style="stroke:black; stroke-linecap:round; stroke-width:0.25;"/>
<line x1="76.000000" y1="68.000000" x2="80.000000" y2="68.000000"  style="stroke:black; stroke-linecap:round; stroke-width:0.25;"/>
<line x1="76.000000" y1="100.000000" x2="80.000000" y2="100.000000"  style="stroke:black; stroke-linecap:round; stroke-width:0.25;"/>
<line x1="76.000000" y1="132.000000" x2="80.000000" y2="132.000000"  style="stroke:black; stroke-linecap:round; stroke-width:0.25;"/>
<line x1="76.000000" y1="164.000000" x2="80.000000" y2="164.000000"  style="stroke:black; stroke-linecap:round; stroke-width:0.25;"/>
<line x1="76.000000" y1="196.000000" x2="80.000000" y2="196.000000"  style="stroke:black; stroke-linecap:round; stroke-width:0.25;"/>
<line x1="76.000000" y1="216.000000" x2="76.000000" y2="228.000000"  style="stroke:black; stroke-linecap:round; stroke-width:0.25;"/>
<line x1="76.000000" y1="228.000000" x2="76.000000" y2="228.000000"  style="stroke:black; stroke-linecap:round; stroke-width:0.25;"/>
<line x1="76.000000" y1="228.000000" x2="80.000000" y2="228.000000"  style="stroke:black; stroke-linecap:round; stroke-width:0.25;"/>
<line x1="76.000000" y1="260.000000" x2="80.000000" y2="260.000000"  style="stroke:black; stroke-linecap:round; stroke-width:0.25;"/>
<line x1="76.000000" y1="292.000000" x2="80.000000" y2="292.000000"  style="stroke:black; stroke-linecap:round; stroke-width:0.25;"/>
<line x1="76.000000" y1="324.000000" x2="80.000000" y2="324.000000"  style="stroke:black; stroke-linecap:round; stroke-width:0.25;"/>
<line x1="76.000000" y1="356.000000" x2="80.000000" y2="356.000000"  style="stroke:black; stroke-linecap:round; stroke-width:0.25;"/>
<line x1="76.000000" y1="388.000000" x2="80.000000" y2="388.000000"  style="stroke:black; stroke-linecap:round; stroke-width:0.25;"/>
<line x1="165.400000" y1="36.000000" x2="169.400000" y2="36.000000"  style="stroke:black; stroke-linecap:round; stroke-width:0.25;"/>
<line x1="165.400000" y1="68.000000" x2="169.400000" y2="68.000000"  style="stroke:black; stroke-linecap:round; stroke-width:0.25;"/>
<line x1="165.400000" y1="100.000000" x2="169.400000" y2="100.000000"  style="stroke:black; stroke-linecap:round; stroke-width:0.25;"/>
<line x1="165.400000" y1="132.000000" x2="169.400000" y2="132.000000"  style="stroke:black; stroke-linecap:round; stroke-width:0.25;"/>
<line x1="165.400000" y1="164.000000" x2="169.400000" y2="164.000000"  style="stroke:black; stroke-linecap:round; stroke-width:0.25;"/>
<line x1="165.400000" y1="196.000000" x2="169.400000" y2="196.000000"  style="stroke:black; stroke-linecap:round; stroke-width:0.25;"/>
<line x1="165.400000" y1="228.000000" x2="169.400000" y2="228.000000"  style="stroke:black; stroke-linecap:round; stroke-width:0.25;"/>
<line x1="165.400000" y1="260.000000" x2="169.400000" y2="260.000000"  style="stroke:black; stroke-linecap:round; stroke-width:0.25;"/>
<line x1="165.400000" y1="292.000000" x2="169.400000" y2="292.000000"  style="stroke:black; stroke-linecap:round; stroke-width:0.25;"/>
<line x1="165.400000" y1="324.000000" x2="169.400000" y2="324.000000"  style="stroke:black; stroke-linecap:round; stroke-width:0.25;"/>
<line x1="165.400000" y1="356.000000" x2="169.400000" y2="356.000000"  style="stroke:black; stroke-linecap:round; stroke-width:0.25;"/>
<line x1="165.400000" y1="388.000000" x2="169.400000" y2="388.000000"  style="stroke:black; stroke-linecap:round; stroke-width:0.25;"/>
<line x1="169.400000" y1="36.000000" x2="177.400000" y2="36.000000"  style="stroke:black; stroke-linecap:round; stroke-width:0.25;"/>
<line x1="169.400000" y1="56.000000" x2="177.400000" y2="56.000000"  style="stroke:black; stroke-linecap:round; stroke-width:0.25;"/>
<line x1="169.400000" y1="68.000000" x2="169.400000" y2="56.000000"  style="stroke:black; stroke-linecap:round; stroke-width:0.25;"/>
<line x1="169.400000" y1="68.000000" x2="169.400000" y2="68.000000"  style="stroke:black; stroke-linecap:round; stroke-width:0.25;"/>
<line x1="169.400000" y1="100.000000" x2="177.400000" y2="100.000000"  style="stroke:black; stroke-linecap:round; stroke-width:0.25;"/>
<line x1="169.400000" y1="120.000000" x2="177.400000" y2="120.000000"  style="stroke:black; stroke-linecap:round; stroke-width:0.25;"/>
<line x1="169.400000" y1="132.000000" x2="169.400000" y2="120.000000"  style="stroke:black; stroke-linecap:round; stroke-width:0.25;"/>
<line x1="169.400000" y1="132.000000" x2="169.400000" y2="132.000000"  style="stroke:black; stroke-linecap:round; stroke-width:0.25;"/>
<line x1="169.400000" y1="164.000000" x2="177.400000" y2="164.000000"  style="stroke:black; stroke-linecap:round; stroke-width:0.25;"/>
<line x1="169.400000" y1="184.000000" x2="177.400000" y2="184.000000"  style="stroke:black; stroke-linecap:round; stroke-width:0.25;"/>
<line x1="169.400000" y1="196.000000" x2="169.400000" y2="184.000000"  style="stroke:black; stroke-linecap:round; stroke-width:0.25;"/>
<line x1="169.400000" y1="196.000000" x2="169.400000" y2="196.000000"  style="stroke:black; stroke-linecap:round; stroke-width:0.25;"/>
<line x1="169.400000" y1="228.000000" x2="177.400000" y2="228.000000"  style="stroke:black; stroke-linecap:round; stroke-width:0.25;"/>
<line x1="169.400000" y1="248.000000" x2="177.400000" y2="248.000000"  style="stroke:black; stroke-linecap:round; stroke-width:0.25;"/>
<line x1="169.400000" y1="260.000000" x2="169.400000" y2="248.000000"  style="stroke:black; stroke-linecap:round; stroke-width:0.25;"/>
<line x1="169.400000" y1="260.000000" x2="169.400000" y2="260.000000"  style="stroke:black; stroke-linecap:round; stroke-width:0.25;"/>
<line x1="169.400000" y1="292.000000" x2="177.400000" y2="292.000000"  style="stroke:black; stroke-linecap:round; stroke-width:0.25;"/>
<line x1="169.400000" y1="312.000000" x2="177.400000" y2="312.000000"  style="stroke:black; stroke-linecap:round; stroke-width:0.25;"/>
<line x1="169.400000" y1="324.000000" x2="169.400000" y2="312.000000"  style="stroke:black; stroke-linecap:round; stroke-width:0.25;"/>
<line x1="169.400000" y1="324.000000" x2="169.400000" y2="324.000000"  style="stroke:black; stroke-linecap:round; stroke-width:0.25;"/>
<line x1="169.400000" y1="356.000000" x2="177.400000" y2="356.000000"  style="stroke:black; stroke-linecap:round; stroke-width:0.25;"/>
<line x1="169.400000" y1="376.000000" x2="177.400000" y2="376.000000"  style="stroke:black; stroke-linecap:round; stroke-width:0.25;"/>
<line x1="169.400000" y1="388.000000" x2="169.400000" y2="376.000000"  style="stroke:black; stroke-linecap:round; stroke-width:0.25;"/>
<line x1="169.400000" y1="388.000000" x2="169.400000" y2="388.000000"  style="stroke:black; stroke-linecap:round; stroke-width:0.25;"/>
<line x1="177.400000" y1="36.000000" x2="177.400000" y2="48.000000"  style="stroke:black; stroke-linecap:round; stroke-width:0.25;"/>
<line x1="177.400000" y1="48.000000" x2="177.400000" y2="48.000000"  style="stroke:black; stroke-linecap:round; stroke-width:0.25;"/>
<line x1="177.400000" y1="48.000000" x2="181.400000" y2="48.000000"  style="stroke:black; stroke-linecap:round; stroke-width:0.25;"/>
<line x1="177.400000" y1="56.000000" x2="181.400000" y2="56.000000"  style="stroke:black; stroke-linecap:round; stroke-width:0.25;"/>
<line x1="177.400000" y1="100.000000" x2="177.400000" y2="112.000000"  style="stroke:black; stroke-linecap:round; stroke-width:0.25;"/>
<line x1="177.400000" y1="112.000000" x2="177.400000" y2="112.000000"  style="stroke:black; stroke-linecap:round; stroke-width:0.25;"/>
<line x1="177.400000" y1="112.000000" x2="181.400000" y2="112.000000"  style="stroke:black; stroke-linecap:round; stroke-width:0.25;"/>
<line x1="177.400000" y1="120.000000" x2="181.400000" y2="120.000000"  style="stroke:black; stroke-linecap:round; stroke-width:0.25;"/>
<line x1="177.400000" y1="164.000000" x2="177.400000" y2="176.000000"  style="stroke:black; stroke-linecap:round; stroke-width:0.25;"/>
<line x1="177.400000" y1="176.000000" x2="177.400000" y2="176.000000"  style="stroke:black; stroke-linecap:round; stroke-width:0.25;"/>
<line x1="177.400000" y1="176.000000" x2="181.400000" y2="176.000000"  style="stroke:black; stroke-linecap:round; stroke-width:0.25;"/>
<line x1="177.400000" y1="184.000000" x2="181.400000" y2="184.000000"  style="stroke:black; stroke-linecap:round; stroke-width:0.25;"/>
<line x1="177.400000" y1="228.000000" x2="177.400000" y2="240.000000"  style="stroke:black; stroke-linecap:round; stroke-width:0.25;"/>
<line x1="177.400000" y1="240.000000" x2="177.400000" y2="240.000000"  style="stroke:black; stroke-linecap:round; stroke-width:0.25;"/>
<line x1="177.400000" y1="240.000000" x2="181.400000" y2="240.000000"  style="stroke:black; stroke-linecap:round; stroke-width:0.25;"/>
<line x1="177.400000" y1="248.000000" x2="181.400000" y2="248.000000"  style="stroke:black; stroke-linecap:round; stroke-width:0.25;"/>
<line x1="177.400000" y1="292.000000" x2="177.400000" y2="304.000000"  style="stroke:black; stroke-linecap:round; stroke-width:0.25;"/>
<line x1="177.400000" y1="304.000000" x2="177.400000" y2="304.000000"  style="stroke:black; stroke-linecap:round; stroke-width:0.25;"/>
<line x1="177.400000" y1="304.000000" x2="181.400000" y2="304.000000"  style="stroke:black; stroke-linecap:round; stroke-width:0.25;"/>
<line x1="177.400000" y1="312.000000" x2="181.400000" y2="312.000000"  style="stroke:black; stroke-linecap:round; stroke-width:0.25;"/>
<line x1="177.400000" y1="356.000000" x2="177.400000" y2="368.000000"  style="stroke:black; stroke-linecap:round; stroke-width:0.25;"/>
<line x1="177.400000" y1="368.000000" x2="177.400000" y2="368.000000"  style="stroke:black; stroke-linecap:round; stroke-width:0.25;"/>
<line x1="177.400000" y1="368.000000" x2="181.400000" y2="368.000000"  style="stroke:black; stroke-linecap:round; stroke-width:0.25;"/>
<line x1="177.400000" y1="376.000000" x2="181.400000" y2="376.000000"  style="stroke:black; stroke-linecap:round; stroke-width:0.25;"/>
<line x1="205.400000" y1="52.000000" x2="209.400000" y2="52.000000"  style="stroke:black; stroke-linecap:round; stroke-width:0.25;"/>
<line x1="205.400000" y1="116.000000" x2="209.400000" y2="116.000000"  style="stroke:black; stroke-linecap:round; stroke-width:0.25;"/>
<line x1="205.400000" y1="180.000000" x2="209.400000" y2="180.000000"  style="stroke:black; stroke-linecap:round; stroke-width:0.25;"/>
<line x1="205.400000" y1="244.000000" x2="209.400000" y2="244.000000"  style="stroke:black; stroke-linecap:round; stroke-width:0.25;"/>
<line x1="205.400000" y1="308.000000" x2="209.400000" y2="308.000000"  style="stroke:black; stroke-linecap:round; stroke-width:0.25;"/>
<line x1="205.400000" y1="372.000000" x2="209.400000" y2="372.000000"  style="stroke:black; stroke-linecap:round; stroke-width:0.25;"/>
<line x1="209.400000" y1="52.000000" x2="233.400000" y2="52.000000"  style="stroke:black; stroke-linecap:round; stroke-width:0.25;"/>
<line x1="209.400000" y1="116.000000" x2="225.400000" y2="116.000000"  style="stroke:black; stroke-linecap:round; stroke-width:0.25;"/>
<line x1="209.400000" y1="180.000000" x2="217.400000" y2="180.000000"  style="stroke:black; stroke-linecap:round; stroke-width:0.25;"/>
<line x1="209.400000" y1="216.000000" x2="233.400000" y2="216.000000"  style="stroke:black; stroke-linecap:round; stroke-width:0.25;"/>
<line x1="209.400000" y1="244.000000" x2="209.400000" y2="216.000000"  style="stroke:black; stroke-linecap:round; stroke-width:0.25;"/>
<line x1="209.400000" y1="244.000000" x2="209.400000" y2="244.000000"  style="stroke:black; stroke-linecap:round; stroke-width:0.25;"/>
<line x1="209.400000" y1="308.000000" x2="217.400000" y2="308.000000"  style="stroke:black; stroke-linecap:round; stroke-width:0.25;"/>
<line x1="209.400000" y1="372.000000" x2="225.400000" y2="372.000000"  style="stroke:black; stroke-linecap:round; stroke-width:0.25;"/>
<line x1="217.400000" y1="180.000000" x2="217.400000" y2="208.000000"  style="stroke:black; stroke-linecap:round; stroke-width:0.25;"/>
<line x1="217.400000" y1="208.000000" x2="233.400000" y2="208.000000"  style="stroke:black; stroke-linecap:round; stroke-width:0.25;"/>
<line x1="217.400000" y1="224.000000" x2="233.400000" y2="224.000000"  style="stroke:black; stroke-linecap:round; stroke-width:0.25;"/>
<line x1="217.400000" y1="308.000000" x2="217.400000" y2="224.000000"  style="stroke:black; stroke-linecap:round; stroke-width:0.25;"/>
<line x1="225.400000" y1="116.000000" x2="225.400000" y2="200.000000"  style="stroke:black; stroke-linecap:round; stroke-width:0.25;"/>
<line x1="225.400000" y1="200.000000" x2="233.400000" y2="200.000000"  style="stroke:black; stroke-linecap:round; stroke-width:0.25;"/>
<line x1="225.400000" y1="232.000000" x2="233.400000" y2="232.000000"  style="stroke:black; stroke-linecap:round; stroke-width:0.25;"/>
<line x1="225.400000" y1="372.000000" x2="225.400000" y2="232.000000"  style="stroke:black; stroke-linecap:round; stroke-width:0.25;"/>
<line x1="233.400000" y1="52.000000" x2="233.400000" y2="192.000000"  style="stroke:black; stroke-linecap:round; stroke-width:0.25;"/>
<line x1="233.400000" y1="192.000000" x2="233.400000" y2="192.000000"  style="stroke:black; stroke-linecap:round; stroke-width:0.25;"/>
<line x1="233.400000" y1="192.000000" x2="237.400000" y2="192.000000"  style="stroke:black; stroke-linecap:round; stroke-width:0.25;"/>
<line x1="233.400000" y1="200.000000" x2="237.400000" y2="200.000000"  style="stroke:black; stroke-linecap:round; stroke-width:0.25;"/>
<line x1="233.400000" y1="208.000000" x2="237.400000" y2="208.000000"  style="stroke:black; stroke-linecap:round; stroke-width:0.25;"/>
<line x1="233.400000" y1="216.000000" x2="237.400000" y2="216.000000"  style="stroke:black; stroke-linecap:round; stroke-width:0.25;"/>
<line x1="233.400000" y1="224.000000" x2="237.400000" y2="224.000000"  style="stroke:black; stroke-linecap:round; stroke-width:0.25;"/>
<line x1="233.400000" y1="232.000000" x2="237.400000" y2="232.000000"  style="stroke:black; stroke-linecap:round; stroke-width:0.25;"/>
<line x1="237.400000" y1="192.000000" x2="241.400000" y2="192.000000"  style="stroke:black; stroke-linecap:round; stroke-width:0.25;"/>
<line x1="237.400000" y1="200.000000" x2="241.400000" y2="200.000000"  style="stroke:black; stroke-linecap:round; stroke-width:0.25;"/>
<line x1="237.400000" y1="208.000000" x2="241.400000" y2="208.000000"  style="stroke:black; stroke-linecap:round; stroke-width:0.25;"/>
<line x1="237.400000" y1="216.000000" x2="241.400000" y2="216.000000"  style="stroke:black; stroke-linecap:round; stroke-width:0.25;"/>
<line x1="237.400000" y1="224.000000" x2="241.400000" y2="224.000000"  style="stroke:black; stroke-linecap:round; stroke-width:0.25;"/>
<line x1="237.400000" y1="232.000000" x2="241.400000" y2="232.000000"  style="stroke:black; stroke-linecap:round; stroke-width:0.25;"/>
<line x1="241.400000" y1="192.000000" x2="251.400000" y2="192.000000"  style="stroke:black; stroke-linecap:round; stroke-width:0.25;"/>
<line x1="241.400000" y1="200.000000" x2="251.400000" y2="200.000000"  style="stroke:black; stroke-linecap:round; stroke-width:0.25;"/>
<line x1="241.400000" y1="208.000000" x2="251.400000" y2="208.000000"  style="stroke:black; stroke-linecap:round; stroke-width:0.25;"/>
<line x1="241.400000" y1="216.000000" x2="251.400000" y2="216.000000"  style="stroke:black; stroke-linecap:round; stroke-width:0.25;"/>
<line x1="241.400000" y1="224.000000" x2="251.400000" y2="224.000000"  style="stroke:black; stroke-linecap:round; stroke-width:0.25;"/>
<line x1="241.400000" y1="232.000000" x2="251.400000" y2="232.000000"  style="stroke:black; stroke-linecap:round; stroke-width:0.25;"/>
</svg>
