<?xml version="1.0"?>
<svg xmlns="http://www.w3.org/2000/svg" xmlns:xlink="http://www.w3.org/1999/xlink" viewBox="0 0 346.000000 80.000000" width="173.000000mm" height="40.000000mm" version="1.1">
<a xlink:href="dflcVARfir-0x60000d79f570.svg">
<rect x="0.000000" y="0.000000" width="345.000000" height="79.000000" rx="0" ry="0" style="stroke:#000000;fill:#FFFFFF;"/>
</a>
<text x="10.000000" y="7.000000" font-family="Verdana" font-size="7"></text>
<a xlink:href="ctrl-0x60000d792eb0.svg">
<rect x="40.000000" y="24.000000" width="129.000000" height="24.000000" rx="0" ry="0" style="stroke:#000000;fill:#FFFFFF;"/>
</a>
<a xlink:href="ctrl-0x60000d792eb0.svg">
<text x="104.500000" y="38.000000" font-family="Verdana" font-size="7" text-anchor="middle" fill="#000000">ctrl((1.92e+0...: int),1 : -)</text>
</a>
<circle cx="42.000000" cy="26.000000" r="1"/>
<a xlink:href="ddi-0x60000d79f330.svg">
<rect x="185.000000" y="24.000000" width="129.000000" height="32.000000" rx="0" ry="0" style="stroke:#000000;fill:#FFFFFF;"/>
</a>
<a xlink:href="ddi-0x60000d79f330.svg">
<text x="249.500000" y="42.000000" font-family="Verdana" font-size="7" text-anchor="middle" fill="#000000">ddi(1.92e+05f...: max) : min)</text>
</a>
<circle cx="187.000000" cy="26.000000" r="1"/>
<line x1="182.000000" y1="27.000000" x2="185.000000" y2="28.000000"  transform="rotate(0.000000,185.000000,28.000000)" style="stroke: black; stroke-width:0.25;"/>
<line x1="182.000000" y1="29.000000" x2="185.000000" y2="28.000000"  transform="rotate(0.000000,185.000000,28.000000)" style="stroke: black; stroke-width:0.25;"/>
<line x1="182.000000" y1="35.000000" x2="185.000000" y2="36.000000"  transform="rotate(0.000000,185.000000,36.000000)" style="stroke: black; stroke-width:0.25;"/>
<line x1="182.000000" y1="37.000000" x2="185.000000" y2="36.000000"  transform="rotate(0.000000,185.000000,36.000000)" style="stroke: black; stroke-width:0.25;"/>
<line x1="182.000000" y1="43.000000" x2="185.000000" y2="44.000000"  transform="rotate(0.000000,185.000000,44.000000)" style="stroke: black; stroke-width:0.25;"/>
<line x1="182.000000" y1="45.000000" x2="185.000000" y2="44.000000"  transform="rotate(0.000000,185.000000,44.000000)" style="stroke: black; stroke-width:0.25;"/>
<line x1="182.000000" y1="51.000000" x2="185.000000" y2="52.000000"  transform="rotate(0.000000,185.000000,52.000000)" style="stroke: black; stroke-width:0.25;"/>
<line x1="182.000000" y1="53.000000" x2="185.000000" y2="52.000000"  transform="rotate(0.000000,185.000000,52.000000)" style="stroke: black; stroke-width:0.25;"/>
<line x1="15.000000" y1="15.000000" x2="15.000000" y2="65.000000"  style="stroke: black; stroke-linecap:round; stroke-width:0.25; stroke-dasharray:3,3;"/>
<line x1="15.000000" y1="65.000000" x2="331.000000" y2="65.000000"  style="stroke: black; stroke-linecap:round; stroke-width:0.25; stroke-dasharray:3,3;"/>
<line x1="331.000000" y1="65.000000" x2="331.000000" y2="15.000000"  style="stroke: black; stroke-linecap:round; stroke-width:0.25; stroke-dasharray:3,3;"/>
<line x1="15.000000" y1="15.000000" x2="20.000000" y2="15.000000"  style="stroke: black; stroke-linecap:round; stroke-width:0.25; stroke-dasharray:3,3;"/>
<line x1="119.975000" y1="15.000000" x2="331.000000" y2="15.000000"  style="stroke: black; stroke-linecap:round; stroke-width:0.25; stroke-dasharray:3,3;"/>
<text x="20.000000" y="17.000000" font-family="Verdana" font-size="7">sdelay(1.92e+...: int),1 : -)</text>
<line x1="333.000000" y1="39.000000" x2="336.000000" y2="40.000000"  transform="rotate(0.000000,336.000000,40.000000)" style="stroke: black; stroke-width:0.25;"/>
<line x1="333.000000" y1="41.000000" x2="336.000000" y2="40.000000"  transform="rotate(0.000000,336.000000,40.000000)" style="stroke: black; stroke-width:0.25;"/>
<line x1="10.000000" y1="40.000000" x2="20.000000" y2="40.000000"  style="stroke:black; stroke-linecap:round; stroke-width:0.25;"/>
<line x1="20.000000" y1="40.000000" x2="24.000000" y2="40.000000"  style="stroke:black; stroke-linecap:round; stroke-width:0.25;"/>
<line x1="24.000000" y1="40.000000" x2="28.000000" y2="40.000000"  style="stroke:black; stroke-linecap:round; stroke-width:0.25;"/>
<line x1="28.000000" y1="40.000000" x2="36.000000" y2="40.000000"  style="stroke:black; stroke-linecap:round; stroke-width:0.25;"/>
<line x1="36.000000" y1="40.000000" x2="36.000000" y2="56.000000"  style="stroke:black; stroke-linecap:round; stroke-width:0.25;"/>
<line x1="36.000000" y1="56.000000" x2="36.000000" y2="56.000000"  style="stroke:black; stroke-linecap:round; stroke-width:0.25;"/>
<line x1="36.000000" y1="56.000000" x2="104.500000" y2="56.000000"  style="stroke:black; stroke-linecap:round; stroke-width:0.25;"/>
<line x1="104.500000" y1="56.000000" x2="173.000000" y2="56.000000"  style="stroke:black; stroke-linecap:round; stroke-width:0.25;"/>
<line x1="169.000000" y1="28.000000" x2="173.000000" y2="28.000000"  style="stroke:black; stroke-linecap:round; stroke-width:0.25;"/>
<line x1="169.000000" y1="36.000000" x2="173.000000" y2="36.000000"  style="stroke:black; stroke-linecap:round; stroke-width:0.25;"/>
<line x1="169.000000" y1="44.000000" x2="173.000000" y2="44.000000"  style="stroke:black; stroke-linecap:round; stroke-width:0.25;"/>
<line x1="173.000000" y1="28.000000" x2="181.000000" y2="28.000000"  style="stroke:black; stroke-linecap:round; stroke-width:0.25;"/>
<line x1="173.000000" y1="36.000000" x2="181.000000" y2="36.000000"  style="stroke:black; stroke-linecap:round; stroke-width:0.25;"/>
<line x1="173.000000" y1="44.000000" x2="181.000000" y2="44.000000"  style="stroke:black; stroke-linecap:round; stroke-width:0.25;"/>
<line x1="173.000000" y1="52.000000" x2="181.000000" y2="52.000000"  style="stroke:black; stroke-linecap:round; stroke-width:0.25;"/>
<line x1="173.000000" y1="56.000000" x2="173.000000" y2="52.000000"  style="stroke:black; stroke-linecap:round; stroke-width:0.25;"/>
<line x1="173.000000" y1="56.000000" x2="173.000000" y2="56.000000"  style="stroke:black; stroke-linecap:round; stroke-width:0.25;"/>
<line x1="181.000000" y1="28.000000" x2="185.000000" y2="28.000000"  style="stroke:black; stroke-linecap:round; stroke-width:0.25;"/>
<line x1="181.000000" y1="36.000000" x2="185.000000" y2="36.000000"  style="stroke:black; stroke-linecap:round; stroke-width:0.25;"/>
<line x1="181.000000" y1="44.000000" x2="185.000000" y2="44.000000"  style="stroke:black; stroke-linecap:round; stroke-width:0.25;"/>
<line x1="181.000000" y1="52.000000" x2="185.000000" y2="52.000000"  style="stroke:black; stroke-linecap:round; stroke-width:0.25;"/>
<line x1="314.000000" y1="40.000000" x2="318.000000" y2="40.000000"  style="stroke:black; stroke-linecap:round; stroke-width:0.25;"/>
<line x1="318.000000" y1="40.000000" x2="318.000000" y2="40.000000"  style="stroke:black; stroke-linecap:round; stroke-width:0.25;"/>
<line x1="318.000000" y1="40.000000" x2="322.000000" y2="40.000000"  style="stroke:black; stroke-linecap:round; stroke-width:0.25;"/>
<line x1="322.000000" y1="40.000000" x2="326.000000" y2="40.000000"  style="stroke:black; stroke-linecap:round; stroke-width:0.25;"/>
<line x1="326.000000" y1="40.000000" x2="336.000000" y2="40.000000"  style="stroke:black; stroke-linecap:round; stroke-width:0.25;"/>
</svg>
