<?xml version="1.0"?>
<svg xmlns="http://www.w3.org/2000/svg" xmlns:xlink="http://www.w3.org/1999/xlink" viewBox="0 0 513.000000 336.000000" width="256.500000mm" height="168.000000mm" version="1.1">
<a xlink:href="mspan-0x60000d6fccf0.svg">
<rect x="0.000000" y="0.000000" width="512.000000" height="335.000000" rx="0" ry="0" style="stroke:#000000;fill:#FFFFFF;"/>
</a>
<text x="10.000000" y="7.000000" font-family="Verdana" font-size="7"></text>
<rect x="32.000000" y="156.000000" width="38.700000" height="24.000000" rx="0" ry="0" style="stroke:#000000;fill:#FFFFFF;"/>
<text x="51.350000" y="170.000000" font-family="Verdana" font-size="7" text-anchor="middle" fill="#000000">[220] in</text>
<circle cx="34.000000" cy="158.000000" r="1"/>
<line x1="29.000000" y1="167.000000" x2="32.000000" y2="168.000000"  transform="rotate(0.000000,32.000000,168.000000)" style="stroke: black; stroke-width:0.25;"/>
<line x1="29.000000" y1="169.000000" x2="32.000000" y2="168.000000"  transform="rotate(0.000000,32.000000,168.000000)" style="stroke: black; stroke-width:0.25;"/>
<rect x="240.500000" y="24.000000" width="38.700000" height="24.000000" rx="0" ry="0" style="stroke:#000000;fill:#FFFFFF;"/>
<text x="259.850000" y="38.000000" font-family="Verdana" font-size="7" text-anchor="middle" fill="#000000">[220] in</text>
<circle cx="242.500000" cy="26.000000" r="1"/>
<rect x="171.850000" y="66.000000" width="24.000000" height="24.000000" rx="0" ry="0" style="stroke:#000000;fill:#FFFFFF;"/>
<text x="183.850000" y="80.000000" font-family="Verdana" font-size="7" text-anchor="middle" fill="#000000">1</text>
<circle cx="173.850000" cy="68.000000" r="1"/>
<line x1="162.850000" y1="57.000000" x2="162.850000" y2="99.000000"  style="stroke: black; stroke-linecap:round; stroke-width:0.25; stroke-dasharray:3,3;"/>
<line x1="162.850000" y1="99.000000" x2="204.850000" y2="99.000000"  style="stroke: black; stroke-linecap:round; stroke-width:0.25; stroke-dasharray:3,3;"/>
<line x1="204.850000" y1="99.000000" x2="204.850000" y2="57.000000"  style="stroke: black; stroke-linecap:round; stroke-width:0.25; stroke-dasharray:3,3;"/>
<line x1="162.850000" y1="57.000000" x2="167.850000" y2="57.000000"  style="stroke: black; stroke-linecap:round; stroke-width:0.25; stroke-dasharray:3,3;"/>
<line x1="204.850000" y1="57.000000" x2="204.850000" y2="57.000000"  style="stroke: black; stroke-linecap:round; stroke-width:0.25; stroke-dasharray:3,3;"/>
<text x="167.850000" y="59.000000" font-family="Verdana" font-size="7">signum(90)</text>
<rect x="111.850000" y="108.000000" width="24.000000" height="24.000000" rx="0" ry="0" style="stroke:#000000;fill:#FFFFFF;"/>
<text x="123.850000" y="122.000000" font-family="Verdana" font-size="7" text-anchor="middle" fill="#000000">270</text>
<circle cx="113.850000" cy="110.000000" r="1"/>
<a xlink:href="radianFun-0x60000d6f5d40.svg">
<rect x="78.700000" y="140.000000" width="90.300000" height="24.000000" rx="0" ry="0" style="stroke:#000000;fill:#FFFFFF;"/>
</a>
<a xlink:href="radianFun-0x60000d6f5d40.svg">
<text x="123.850000" y="154.000000" font-family="Verdana" font-size="7" text-anchor="middle" fill="#000000">radianFun(2)(2)(x206)</text>
</a>
<circle cx="80.700000" cy="142.000000" r="1"/>
<rect x="185.000000" y="124.000000" width="24.000000" height="24.000000" rx="0" ry="0" style="stroke:#000000;fill:#FFFFFF;"/>
<text x="197.000000" y="138.000000" font-family="Verdana" font-size="7" text-anchor="middle" fill="#000000">+</text>
<circle cx="187.000000" cy="126.000000" r="1"/>
<line x1="182.000000" y1="131.000000" x2="185.000000" y2="132.000000"  transform="rotate(0.000000,185.000000,132.000000)" style="stroke: black; stroke-width:0.25;"/>
<line x1="182.000000" y1="133.000000" x2="185.000000" y2="132.000000"  transform="rotate(0.000000,185.000000,132.000000)" style="stroke: black; stroke-width:0.25;"/>
<line x1="182.000000" y1="139.000000" x2="185.000000" y2="140.000000"  transform="rotate(0.000000,185.000000,140.000000)" style="stroke: black; stroke-width:0.25;"/>
<line x1="182.000000" y1="141.000000" x2="185.000000" y2="140.000000"  transform="rotate(0.000000,185.000000,140.000000)" style="stroke: black; stroke-width:0.25;"/>
<a xlink:href="radianFun2-0x60000d6faa30.svg">
<rect x="105.150000" y="172.000000" width="77.400000" height="24.000000" rx="0" ry="0" style="stroke:#000000;fill:#FFFFFF;"/>
</a>
<a xlink:href="radianFun2-0x60000d6faa30.svg">
<text x="143.850000" y="186.000000" font-family="Verdana" font-size="7" text-anchor="middle" fill="#000000">radianFun2(x206)</text>
</a>
<circle cx="107.150000" cy="174.000000" r="1"/>
<rect x="225.000000" y="140.000000" width="24.000000" height="24.000000" rx="0" ry="0" style="stroke:#000000;fill:#FFFFFF;"/>
<text x="237.000000" y="154.000000" font-family="Verdana" font-size="7" text-anchor="middle" fill="#000000">+</text>
<circle cx="227.000000" cy="142.000000" r="1"/>
<line x1="222.000000" y1="147.000000" x2="225.000000" y2="148.000000"  transform="rotate(0.000000,225.000000,148.000000)" style="stroke: black; stroke-width:0.25;"/>
<line x1="222.000000" y1="149.000000" x2="225.000000" y2="148.000000"  transform="rotate(0.000000,225.000000,148.000000)" style="stroke: black; stroke-width:0.25;"/>
<line x1="222.000000" y1="155.000000" x2="225.000000" y2="156.000000"  transform="rotate(0.000000,225.000000,156.000000)" style="stroke: black; stroke-width:0.25;"/>
<line x1="222.000000" y1="157.000000" x2="225.000000" y2="156.000000"  transform="rotate(0.000000,225.000000,156.000000)" style="stroke: black; stroke-width:0.25;"/>
<rect x="151.850000" y="204.000000" width="24.000000" height="24.000000" rx="0" ry="0" style="stroke:#000000;fill:#FFFFFF;"/>
<text x="163.850000" y="218.000000" font-family="Verdana" font-size="7" text-anchor="middle" fill="#000000">2</text>
<circle cx="153.850000" cy="206.000000" r="1"/>
<rect x="265.000000" y="156.000000" width="24.000000" height="24.000000" rx="0" ry="0" style="stroke:#000000;fill:#FFFFFF;"/>
<text x="277.000000" y="170.000000" font-family="Verdana" font-size="7" text-anchor="middle" fill="#000000">*</text>
<circle cx="267.000000" cy="158.000000" r="1"/>
<line x1="262.000000" y1="163.000000" x2="265.000000" y2="164.000000"  transform="rotate(0.000000,265.000000,164.000000)" style="stroke: black; stroke-width:0.25;"/>
<line x1="262.000000" y1="165.000000" x2="265.000000" y2="164.000000"  transform="rotate(0.000000,265.000000,164.000000)" style="stroke: black; stroke-width:0.25;"/>
<line x1="262.000000" y1="171.000000" x2="265.000000" y2="172.000000"  transform="rotate(0.000000,265.000000,172.000000)" style="stroke: black; stroke-width:0.25;"/>
<line x1="262.000000" y1="173.000000" x2="265.000000" y2="172.000000"  transform="rotate(0.000000,265.000000,172.000000)" style="stroke: black; stroke-width:0.25;"/>
<rect x="305.000000" y="130.000000" width="24.000000" height="24.000000" rx="0" ry="0" style="stroke:#000000;fill:#FFFFFF;"/>
<text x="317.000000" y="144.000000" font-family="Verdana" font-size="7" text-anchor="middle" fill="#000000">*</text>
<circle cx="307.000000" cy="132.000000" r="1"/>
<line x1="302.000000" y1="137.000000" x2="305.000000" y2="138.000000"  transform="rotate(0.000000,305.000000,138.000000)" style="stroke: black; stroke-width:0.25;"/>
<line x1="302.000000" y1="139.000000" x2="305.000000" y2="138.000000"  transform="rotate(0.000000,305.000000,138.000000)" style="stroke: black; stroke-width:0.25;"/>
<line x1="302.000000" y1="145.000000" x2="305.000000" y2="146.000000"  transform="rotate(0.000000,305.000000,146.000000)" style="stroke: black; stroke-width:0.25;"/>
<line x1="302.000000" y1="147.000000" x2="305.000000" y2="146.000000"  transform="rotate(0.000000,305.000000,146.000000)" style="stroke: black; stroke-width:0.25;"/>
<rect x="178.050000" y="246.000000" width="51.600000" height="24.000000" rx="0" ry="0" style="stroke:#000000;fill:#FFFFFF;"/>
<text x="203.850000" y="260.000000" font-family="Verdana" font-size="7" text-anchor="middle" fill="#000000">3.1415927f</text>
<circle cx="180.050000" cy="248.000000" r="1"/>
<line x1="169.050000" y1="237.000000" x2="169.050000" y2="279.000000"  style="stroke: black; stroke-linecap:round; stroke-width:0.25; stroke-dasharray:3,3;"/>
<line x1="169.050000" y1="279.000000" x2="238.650000" y2="279.000000"  style="stroke: black; stroke-linecap:round; stroke-width:0.25; stroke-dasharray:3,3;"/>
<line x1="238.650000" y1="279.000000" x2="238.650000" y2="237.000000"  style="stroke: black; stroke-linecap:round; stroke-width:0.25; stroke-dasharray:3,3;"/>
<line x1="169.050000" y1="237.000000" x2="174.050000" y2="237.000000"  style="stroke: black; stroke-linecap:round; stroke-width:0.25; stroke-dasharray:3,3;"/>
<line x1="186.950000" y1="237.000000" x2="238.650000" y2="237.000000"  style="stroke: black; stroke-linecap:round; stroke-width:0.25; stroke-dasharray:3,3;"/>
<text x="174.050000" y="239.000000" font-family="Verdana" font-size="7">PI</text>
<rect x="345.000000" y="156.000000" width="24.000000" height="24.000000" rx="0" ry="0" style="stroke:#000000;fill:#FFFFFF;"/>
<text x="357.000000" y="170.000000" font-family="Verdana" font-size="7" text-anchor="middle" fill="#000000">*</text>
<circle cx="347.000000" cy="158.000000" r="1"/>
<line x1="342.000000" y1="163.000000" x2="345.000000" y2="164.000000"  transform="rotate(0.000000,345.000000,164.000000)" style="stroke: black; stroke-width:0.25;"/>
<line x1="342.000000" y1="165.000000" x2="345.000000" y2="164.000000"  transform="rotate(0.000000,345.000000,164.000000)" style="stroke: black; stroke-width:0.25;"/>
<line x1="342.000000" y1="171.000000" x2="345.000000" y2="172.000000"  transform="rotate(0.000000,345.000000,172.000000)" style="stroke: black; stroke-width:0.25;"/>
<line x1="342.000000" y1="173.000000" x2="345.000000" y2="172.000000"  transform="rotate(0.000000,345.000000,172.000000)" style="stroke: black; stroke-width:0.25;"/>
<rect x="211.850000" y="288.000000" width="24.000000" height="24.000000" rx="0" ry="0" style="stroke:#000000;fill:#FFFFFF;"/>
<text x="223.850000" y="302.000000" font-family="Verdana" font-size="7" text-anchor="middle" fill="#000000">180</text>
<circle cx="213.850000" cy="290.000000" r="1"/>
<rect x="385.000000" y="172.000000" width="24.000000" height="24.000000" rx="0" ry="0" style="stroke:#000000;fill:#FFFFFF;"/>
<text x="397.000000" y="186.000000" font-family="Verdana" font-size="7" text-anchor="middle" fill="#000000">/</text>
<circle cx="387.000000" cy="174.000000" r="1"/>
<line x1="382.000000" y1="179.000000" x2="385.000000" y2="180.000000"  transform="rotate(0.000000,385.000000,180.000000)" style="stroke: black; stroke-width:0.25;"/>
<line x1="382.000000" y1="181.000000" x2="385.000000" y2="180.000000"  transform="rotate(0.000000,385.000000,180.000000)" style="stroke: black; stroke-width:0.25;"/>
<line x1="382.000000" y1="187.000000" x2="385.000000" y2="188.000000"  transform="rotate(0.000000,385.000000,188.000000)" style="stroke: black; stroke-width:0.25;"/>
<line x1="382.000000" y1="189.000000" x2="385.000000" y2="188.000000"  transform="rotate(0.000000,385.000000,188.000000)" style="stroke: black; stroke-width:0.25;"/>
<rect x="417.000000" y="172.000000" width="24.000000" height="24.000000" rx="0" ry="0" style="stroke:#000000;fill:#FFFFFF;"/>
<text x="429.000000" y="186.000000" font-family="Verdana" font-size="7" text-anchor="middle" fill="#000000">sin</text>
<circle cx="419.000000" cy="174.000000" r="1"/>
<line x1="414.000000" y1="183.000000" x2="417.000000" y2="184.000000"  transform="rotate(0.000000,417.000000,184.000000)" style="stroke: black; stroke-width:0.25;"/>
<line x1="414.000000" y1="185.000000" x2="417.000000" y2="184.000000"  transform="rotate(0.000000,417.000000,184.000000)" style="stroke: black; stroke-width:0.25;"/>
<rect x="457.000000" y="156.000000" width="24.000000" height="24.000000" rx="0" ry="0" style="stroke:#000000;fill:#FFFFFF;"/>
<text x="469.000000" y="170.000000" font-family="Verdana" font-size="7" text-anchor="middle" fill="#000000">*</text>
<circle cx="459.000000" cy="158.000000" r="1"/>
<line x1="454.000000" y1="163.000000" x2="457.000000" y2="164.000000"  transform="rotate(0.000000,457.000000,164.000000)" style="stroke: black; stroke-width:0.25;"/>
<line x1="454.000000" y1="165.000000" x2="457.000000" y2="164.000000"  transform="rotate(0.000000,457.000000,164.000000)" style="stroke: black; stroke-width:0.25;"/>
<line x1="454.000000" y1="171.000000" x2="457.000000" y2="172.000000"  transform="rotate(0.000000,457.000000,172.000000)" style="stroke: black; stroke-width:0.25;"/>
<line x1="454.000000" y1="173.000000" x2="457.000000" y2="172.000000"  transform="rotate(0.000000,457.000000,172.000000)" style="stroke: black; stroke-width:0.25;"/>
<line x1="15.000000" y1="15.000000" x2="15.000000" y2="321.000000"  style="stroke: black; stroke-linecap:round; stroke-width:0.25; stroke-dasharray:3,3;"/>
<line x1="15.000000" y1="321.000000" x2="498.000000" y2="321.000000"  style="stroke: black; stroke-linecap:round; stroke-width:0.25; stroke-dasharray:3,3;"/>
<line x1="498.000000" y1="321.000000" x2="498.000000" y2="15.000000"  style="stroke: black; stroke-linecap:round; stroke-width:0.25; stroke-dasharray:3,3;"/>
<line x1="15.000000" y1="15.000000" x2="20.000000" y2="15.000000"  style="stroke: black; stroke-linecap:round; stroke-width:0.25; stroke-dasharray:3,3;"/>
<line x1="39.350000" y1="15.000000" x2="498.000000" y2="15.000000"  style="stroke: black; stroke-linecap:round; stroke-width:0.25; stroke-dasharray:3,3;"/>
<text x="20.000000" y="17.000000" font-family="Verdana" font-size="7">side</text>
<line x1="500.000000" y1="167.000000" x2="503.000000" y2="168.000000"  transform="rotate(0.000000,503.000000,168.000000)" style="stroke: black; stroke-width:0.25;"/>
<line x1="500.000000" y1="169.000000" x2="503.000000" y2="168.000000"  transform="rotate(0.000000,503.000000,168.000000)" style="stroke: black; stroke-width:0.25;"/>
<line x1="10.000000" y1="168.000000" x2="20.000000" y2="168.000000"  style="stroke:black; stroke-linecap:round; stroke-width:0.25;"/>
<line x1="20.000000" y1="168.000000" x2="24.000000" y2="168.000000"  style="stroke:black; stroke-linecap:round; stroke-width:0.25;"/>
<line x1="24.000000" y1="168.000000" x2="28.000000" y2="168.000000"  style="stroke:black; stroke-linecap:round; stroke-width:0.25;"/>
<line x1="28.000000" y1="168.000000" x2="28.000000" y2="168.000000"  style="stroke:black; stroke-linecap:round; stroke-width:0.25;"/>
<line x1="28.000000" y1="168.000000" x2="32.000000" y2="168.000000"  style="stroke:black; stroke-linecap:round; stroke-width:0.25;"/>
<line x1="135.850000" y1="120.000000" x2="139.850000" y2="120.000000"  style="stroke:black; stroke-linecap:round; stroke-width:0.25;"/>
<line x1="139.850000" y1="120.000000" x2="173.000000" y2="120.000000"  style="stroke:black; stroke-linecap:round; stroke-width:0.25;"/>
<line x1="169.000000" y1="152.000000" x2="173.000000" y2="152.000000"  style="stroke:black; stroke-linecap:round; stroke-width:0.25;"/>
<line x1="173.000000" y1="120.000000" x2="181.000000" y2="120.000000"  style="stroke:black; stroke-linecap:round; stroke-width:0.25;"/>
<line x1="173.000000" y1="140.000000" x2="181.000000" y2="140.000000"  style="stroke:black; stroke-linecap:round; stroke-width:0.25;"/>
<line x1="173.000000" y1="152.000000" x2="173.000000" y2="140.000000"  style="stroke:black; stroke-linecap:round; stroke-width:0.25;"/>
<line x1="173.000000" y1="152.000000" x2="173.000000" y2="152.000000"  style="stroke:black; stroke-linecap:round; stroke-width:0.25;"/>
<line x1="175.850000" y1="216.000000" x2="179.850000" y2="216.000000"  style="stroke:black; stroke-linecap:round; stroke-width:0.25;"/>
<line x1="179.850000" y1="216.000000" x2="253.000000" y2="216.000000"  style="stroke:black; stroke-linecap:round; stroke-width:0.25;"/>
<line x1="181.000000" y1="120.000000" x2="181.000000" y2="132.000000"  style="stroke:black; stroke-linecap:round; stroke-width:0.25;"/>
<line x1="181.000000" y1="132.000000" x2="181.000000" y2="132.000000"  style="stroke:black; stroke-linecap:round; stroke-width:0.25;"/>
<line x1="181.000000" y1="132.000000" x2="185.000000" y2="132.000000"  style="stroke:black; stroke-linecap:round; stroke-width:0.25;"/>
<line x1="181.000000" y1="140.000000" x2="185.000000" y2="140.000000"  style="stroke:black; stroke-linecap:round; stroke-width:0.25;"/>
<line x1="182.550000" y1="184.000000" x2="186.550000" y2="184.000000"  style="stroke:black; stroke-linecap:round; stroke-width:0.25;"/>
<line x1="186.550000" y1="184.000000" x2="213.000000" y2="184.000000"  style="stroke:black; stroke-linecap:round; stroke-width:0.25;"/>
<line x1="195.850000" y1="78.000000" x2="199.850000" y2="78.000000"  style="stroke:black; stroke-linecap:round; stroke-width:0.25;"/>
<line x1="199.850000" y1="78.000000" x2="209.850000" y2="78.000000"  style="stroke:black; stroke-linecap:round; stroke-width:0.25;"/>
<line x1="209.000000" y1="136.000000" x2="213.000000" y2="136.000000"  style="stroke:black; stroke-linecap:round; stroke-width:0.25;"/>
<line x1="209.850000" y1="78.000000" x2="293.000000" y2="78.000000"  style="stroke:black; stroke-linecap:round; stroke-width:0.25;"/>
<line x1="213.000000" y1="136.000000" x2="221.000000" y2="136.000000"  style="stroke:black; stroke-linecap:round; stroke-width:0.25;"/>
<line x1="213.000000" y1="156.000000" x2="221.000000" y2="156.000000"  style="stroke:black; stroke-linecap:round; stroke-width:0.25;"/>
<line x1="213.000000" y1="184.000000" x2="213.000000" y2="156.000000"  style="stroke:black; stroke-linecap:round; stroke-width:0.25;"/>
<line x1="213.000000" y1="184.000000" x2="213.000000" y2="184.000000"  style="stroke:black; stroke-linecap:round; stroke-width:0.25;"/>
<line x1="221.000000" y1="136.000000" x2="221.000000" y2="148.000000"  style="stroke:black; stroke-linecap:round; stroke-width:0.25;"/>
<line x1="221.000000" y1="148.000000" x2="221.000000" y2="148.000000"  style="stroke:black; stroke-linecap:round; stroke-width:0.25;"/>
<line x1="221.000000" y1="148.000000" x2="225.000000" y2="148.000000"  style="stroke:black; stroke-linecap:round; stroke-width:0.25;"/>
<line x1="221.000000" y1="156.000000" x2="225.000000" y2="156.000000"  style="stroke:black; stroke-linecap:round; stroke-width:0.25;"/>
<line x1="229.650000" y1="258.000000" x2="233.650000" y2="258.000000"  style="stroke:black; stroke-linecap:round; stroke-width:0.25;"/>
<line x1="233.650000" y1="258.000000" x2="243.650000" y2="258.000000"  style="stroke:black; stroke-linecap:round; stroke-width:0.25;"/>
<line x1="235.850000" y1="300.000000" x2="239.850000" y2="300.000000"  style="stroke:black; stroke-linecap:round; stroke-width:0.25;"/>
<line x1="239.850000" y1="300.000000" x2="373.000000" y2="300.000000"  style="stroke:black; stroke-linecap:round; stroke-width:0.25;"/>
<line x1="243.650000" y1="258.000000" x2="333.000000" y2="258.000000"  style="stroke:black; stroke-linecap:round; stroke-width:0.25;"/>
<line x1="249.000000" y1="152.000000" x2="253.000000" y2="152.000000"  style="stroke:black; stroke-linecap:round; stroke-width:0.25;"/>
<line x1="253.000000" y1="152.000000" x2="261.000000" y2="152.000000"  style="stroke:black; stroke-linecap:round; stroke-width:0.25;"/>
<line x1="253.000000" y1="172.000000" x2="261.000000" y2="172.000000"  style="stroke:black; stroke-linecap:round; stroke-width:0.25;"/>
<line x1="253.000000" y1="216.000000" x2="253.000000" y2="172.000000"  style="stroke:black; stroke-linecap:round; stroke-width:0.25;"/>
<line x1="253.000000" y1="216.000000" x2="253.000000" y2="216.000000"  style="stroke:black; stroke-linecap:round; stroke-width:0.25;"/>
<line x1="261.000000" y1="152.000000" x2="261.000000" y2="164.000000"  style="stroke:black; stroke-linecap:round; stroke-width:0.25;"/>
<line x1="261.000000" y1="164.000000" x2="261.000000" y2="164.000000"  style="stroke:black; stroke-linecap:round; stroke-width:0.25;"/>
<line x1="261.000000" y1="164.000000" x2="265.000000" y2="164.000000"  style="stroke:black; stroke-linecap:round; stroke-width:0.25;"/>
<line x1="261.000000" y1="172.000000" x2="265.000000" y2="172.000000"  style="stroke:black; stroke-linecap:round; stroke-width:0.25;"/>
<line x1="279.200000" y1="36.000000" x2="283.200000" y2="36.000000"  style="stroke:black; stroke-linecap:round; stroke-width:0.25;"/>
<line x1="283.200000" y1="36.000000" x2="445.000000" y2="36.000000"  style="stroke:black; stroke-linecap:round; stroke-width:0.25;"/>
<line x1="289.000000" y1="168.000000" x2="293.000000" y2="168.000000"  style="stroke:black; stroke-linecap:round; stroke-width:0.25;"/>
<line x1="293.000000" y1="78.000000" x2="301.000000" y2="78.000000"  style="stroke:black; stroke-linecap:round; stroke-width:0.25;"/>
<line x1="293.000000" y1="146.000000" x2="301.000000" y2="146.000000"  style="stroke:black; stroke-linecap:round; stroke-width:0.25;"/>
<line x1="293.000000" y1="168.000000" x2="293.000000" y2="146.000000"  style="stroke:black; stroke-linecap:round; stroke-width:0.25;"/>
<line x1="293.000000" y1="168.000000" x2="293.000000" y2="168.000000"  style="stroke:black; stroke-linecap:round; stroke-width:0.25;"/>
<line x1="301.000000" y1="78.000000" x2="301.000000" y2="138.000000"  style="stroke:black; stroke-linecap:round; stroke-width:0.25;"/>
<line x1="301.000000" y1="138.000000" x2="301.000000" y2="138.000000"  style="stroke:black; stroke-linecap:round; stroke-width:0.25;"/>
<line x1="301.000000" y1="138.000000" x2="305.000000" y2="138.000000"  style="stroke:black; stroke-linecap:round; stroke-width:0.25;"/>
<line x1="301.000000" y1="146.000000" x2="305.000000" y2="146.000000"  style="stroke:black; stroke-linecap:round; stroke-width:0.25;"/>
<line x1="329.000000" y1="142.000000" x2="333.000000" y2="142.000000"  style="stroke:black; stroke-linecap:round; stroke-width:0.25;"/>
<line x1="333.000000" y1="142.000000" x2="341.000000" y2="142.000000"  style="stroke:black; stroke-linecap:round; stroke-width:0.25;"/>
<line x1="333.000000" y1="172.000000" x2="341.000000" y2="172.000000"  style="stroke:black; stroke-linecap:round; stroke-width:0.25;"/>
<line x1="333.000000" y1="258.000000" x2="333.000000" y2="172.000000"  style="stroke:black; stroke-linecap:round; stroke-width:0.25;"/>
<line x1="333.000000" y1="258.000000" x2="333.000000" y2="258.000000"  style="stroke:black; stroke-linecap:round; stroke-width:0.25;"/>
<line x1="341.000000" y1="142.000000" x2="341.000000" y2="164.000000"  style="stroke:black; stroke-linecap:round; stroke-width:0.25;"/>
<line x1="341.000000" y1="164.000000" x2="341.000000" y2="164.000000"  style="stroke:black; stroke-linecap:round; stroke-width:0.25;"/>
<line x1="341.000000" y1="164.000000" x2="345.000000" y2="164.000000"  style="stroke:black; stroke-linecap:round; stroke-width:0.25;"/>
<line x1="341.000000" y1="172.000000" x2="345.000000" y2="172.000000"  style="stroke:black; stroke-linecap:round; stroke-width:0.25;"/>
<line x1="369.000000" y1="168.000000" x2="373.000000" y2="168.000000"  style="stroke:black; stroke-linecap:round; stroke-width:0.25;"/>
<line x1="373.000000" y1="168.000000" x2="381.000000" y2="168.000000"  style="stroke:black; stroke-linecap:round; stroke-width:0.25;"/>
<line x1="373.000000" y1="188.000000" x2="381.000000" y2="188.000000"  style="stroke:black; stroke-linecap:round; stroke-width:0.25;"/>
<line x1="373.000000" y1="300.000000" x2="373.000000" y2="188.000000"  style="stroke:black; stroke-linecap:round; stroke-width:0.25;"/>
<line x1="373.000000" y1="300.000000" x2="373.000000" y2="300.000000"  style="stroke:black; stroke-linecap:round; stroke-width:0.25;"/>
<line x1="381.000000" y1="168.000000" x2="381.000000" y2="180.000000"  style="stroke:black; stroke-linecap:round; stroke-width:0.25;"/>
<line x1="381.000000" y1="180.000000" x2="381.000000" y2="180.000000"  style="stroke:black; stroke-linecap:round; stroke-width:0.25;"/>
<line x1="381.000000" y1="180.000000" x2="385.000000" y2="180.000000"  style="stroke:black; stroke-linecap:round; stroke-width:0.25;"/>
<line x1="381.000000" y1="188.000000" x2="385.000000" y2="188.000000"  style="stroke:black; stroke-linecap:round; stroke-width:0.25;"/>
<line x1="409.000000" y1="184.000000" x2="413.000000" y2="184.000000"  style="stroke:black; stroke-linecap:round; stroke-width:0.25;"/>
<line x1="413.000000" y1="184.000000" x2="413.000000" y2="184.000000"  style="stroke:black; stroke-linecap:round; stroke-width:0.25;"/>
<line x1="413.000000" y1="184.000000" x2="417.000000" y2="184.000000"  style="stroke:black; stroke-linecap:round; stroke-width:0.25;"/>
<line x1="441.000000" y1="184.000000" x2="445.000000" y2="184.000000"  style="stroke:black; stroke-linecap:round; stroke-width:0.25;"/>
<line x1="445.000000" y1="36.000000" x2="453.000000" y2="36.000000"  style="stroke:black; stroke-linecap:round; stroke-width:0.25;"/>
<line x1="445.000000" y1="172.000000" x2="453.000000" y2="172.000000"  style="stroke:black; stroke-linecap:round; stroke-width:0.25;"/>
<line x1="445.000000" y1="184.000000" x2="445.000000" y2="172.000000"  style="stroke:black; stroke-linecap:round; stroke-width:0.25;"/>
<line x1="445.000000" y1="184.000000" x2="445.000000" y2="184.000000"  style="stroke:black; stroke-linecap:round; stroke-width:0.25;"/>
<line x1="453.000000" y1="36.000000" x2="453.000000" y2="164.000000"  style="stroke:black; stroke-linecap:round; stroke-width:0.25;"/>
<line x1="453.000000" y1="164.000000" x2="453.000000" y2="164.000000"  style="stroke:black; stroke-linecap:round; stroke-width:0.25;"/>
<line x1="453.000000" y1="164.000000" x2="457.000000" y2="164.000000"  style="stroke:black; stroke-linecap:round; stroke-width:0.25;"/>
<line x1="453.000000" y1="172.000000" x2="457.000000" y2="172.000000"  style="stroke:black; stroke-linecap:round; stroke-width:0.25;"/>
<line x1="481.000000" y1="168.000000" x2="485.000000" y2="168.000000"  style="stroke:black; stroke-linecap:round; stroke-width:0.25;"/>
<line x1="485.000000" y1="168.000000" x2="485.000000" y2="168.000000"  style="stroke:black; stroke-linecap:round; stroke-width:0.25;"/>
<line x1="485.000000" y1="168.000000" x2="489.000000" y2="168.000000"  style="stroke:black; stroke-linecap:round; stroke-width:0.25;"/>
<line x1="489.000000" y1="168.000000" x2="493.000000" y2="168.000000"  style="stroke:black; stroke-linecap:round; stroke-width:0.25;"/>
<line x1="493.000000" y1="168.000000" x2="503.000000" y2="168.000000"  style="stroke:black; stroke-linecap:round; stroke-width:0.25;"/>
</svg>
