<?xml version="1.0"?>
<svg xmlns="http://www.w3.org/2000/svg" xmlns:xlink="http://www.w3.org/1999/xlink" viewBox="0 0 236.100000 208.000000" width="118.050000mm" height="104.000000mm" version="1.1">
<a xlink:href="loop-0x600021482370.svg">
<rect x="0.000000" y="0.000000" width="235.100000" height="207.000000" rx="0" ry="0" style="stroke:#000000;fill:#FFFFFF;"/>
</a>
<text x="10.000000" y="7.000000" font-family="Verdana" font-size="7"></text>
<a xlink:href="bypass-0x6000214bb450.svg">
<rect x="69.800000" y="24.000000" width="25.800000" height="24.000000" rx="0" ry="0" style="stroke:#000000;fill:#FFFFFF;"/>
</a>
<a xlink:href="bypass-0x6000214bb450.svg">
<text x="82.700000" y="38.000000" font-family="Verdana" font-size="7" text-anchor="middle" fill="#000000">bypass</text>
</a>
<circle cx="71.800000" cy="26.000000" r="1"/>
<rect x="24.000000" y="56.000000" width="77.400000" height="24.000000" rx="0" ry="0" style="stroke:#000000;fill:#FFFFFF;"/>
<text x="62.700000" y="70.000000" font-family="Verdana" font-size="7" text-anchor="middle" fill="#000000">[877] timerState</text>
<circle cx="26.000000" cy="58.000000" r="1"/>
<rect x="50.700000" y="98.000000" width="24.000000" height="24.000000" rx="0" ry="0" style="stroke:#000000;fill:#FFFFFF;"/>
<text x="62.700000" y="112.000000" font-family="Verdana" font-size="7" text-anchor="middle" fill="#000000">1</text>
<circle cx="52.700000" cy="100.000000" r="1"/>
<line x1="41.700000" y1="89.000000" x2="41.700000" y2="131.000000"  style="stroke: black; stroke-linecap:round; stroke-width:0.25; stroke-dasharray:3,3;"/>
<line x1="41.700000" y1="131.000000" x2="83.700000" y2="131.000000"  style="stroke: black; stroke-linecap:round; stroke-width:0.25; stroke-dasharray:3,3;"/>
<line x1="83.700000" y1="131.000000" x2="83.700000" y2="89.000000"  style="stroke: black; stroke-linecap:round; stroke-width:0.25; stroke-dasharray:3,3;"/>
<line x1="41.700000" y1="89.000000" x2="46.700000" y2="89.000000"  style="stroke: black; stroke-linecap:round; stroke-width:0.25; stroke-dasharray:3,3;"/>
<line x1="83.700000" y1="89.000000" x2="83.700000" y2="89.000000"  style="stroke: black; stroke-linecap:round; stroke-width:0.25; stroke-dasharray:3,3;"/>
<text x="46.700000" y="91.000000" font-family="Verdana" font-size="7">signum(90)</text>
<rect x="117.400000" y="82.000000" width="24.000000" height="24.000000" rx="0" ry="0" style="stroke:#000000;fill:#FFFFFF;"/>
<text x="129.400000" y="96.000000" font-family="Verdana" font-size="7" text-anchor="middle" fill="#000000">+</text>
<circle cx="119.400000" cy="84.000000" r="1"/>
<line x1="114.400000" y1="89.000000" x2="117.400000" y2="90.000000"  transform="rotate(0.000000,117.400000,90.000000)" style="stroke: black; stroke-width:0.25;"/>
<line x1="114.400000" y1="91.000000" x2="117.400000" y2="90.000000"  transform="rotate(0.000000,117.400000,90.000000)" style="stroke: black; stroke-width:0.25;"/>
<line x1="114.400000" y1="97.000000" x2="117.400000" y2="98.000000"  transform="rotate(0.000000,117.400000,98.000000)" style="stroke: black; stroke-width:0.25;"/>
<line x1="114.400000" y1="99.000000" x2="117.400000" y2="98.000000"  transform="rotate(0.000000,117.400000,98.000000)" style="stroke: black; stroke-width:0.25;"/>
<rect x="70.700000" y="150.000000" width="24.000000" height="24.000000" rx="0" ry="0" style="stroke:#000000;fill:#FFFFFF;"/>
<text x="82.700000" y="164.000000" font-family="Verdana" font-size="7" text-anchor="middle" fill="#000000">0</text>
<circle cx="72.700000" cy="152.000000" r="1"/>
<line x1="61.700000" y1="141.000000" x2="61.700000" y2="183.000000"  style="stroke: black; stroke-linecap:round; stroke-width:0.25; stroke-dasharray:3,3;"/>
<line x1="61.700000" y1="183.000000" x2="103.700000" y2="183.000000"  style="stroke: black; stroke-linecap:round; stroke-width:0.25; stroke-dasharray:3,3;"/>
<line x1="103.700000" y1="183.000000" x2="103.700000" y2="141.000000"  style="stroke: black; stroke-linecap:round; stroke-width:0.25; stroke-dasharray:3,3;"/>
<line x1="61.700000" y1="141.000000" x2="66.700000" y2="141.000000"  style="stroke: black; stroke-linecap:round; stroke-width:0.25; stroke-dasharray:3,3;"/>
<line x1="86.050000" y1="141.000000" x2="103.700000" y2="141.000000"  style="stroke: black; stroke-linecap:round; stroke-width:0.25; stroke-dasharray:3,3;"/>
<text x="66.700000" y="143.000000" font-family="Verdana" font-size="7">SAFE</text>
<rect x="165.400000" y="92.000000" width="38.700000" height="24.000000" rx="0" ry="0" style="stroke:#000000;fill:#FFFFFF;"/>
<text x="184.750000" y="106.000000" font-family="Verdana" font-size="7" text-anchor="middle" fill="#000000">select2</text>
<circle cx="167.400000" cy="94.000000" r="1"/>
<line x1="162.400000" y1="95.000000" x2="165.400000" y2="96.000000"  transform="rotate(0.000000,165.400000,96.000000)" style="stroke: black; stroke-width:0.25;"/>
<line x1="162.400000" y1="97.000000" x2="165.400000" y2="96.000000"  transform="rotate(0.000000,165.400000,96.000000)" style="stroke: black; stroke-width:0.25;"/>
<line x1="162.400000" y1="103.000000" x2="165.400000" y2="104.000000"  transform="rotate(0.000000,165.400000,104.000000)" style="stroke: black; stroke-width:0.25;"/>
<line x1="162.400000" y1="105.000000" x2="165.400000" y2="104.000000"  transform="rotate(0.000000,165.400000,104.000000)" style="stroke: black; stroke-width:0.25;"/>
<line x1="162.400000" y1="111.000000" x2="165.400000" y2="112.000000"  transform="rotate(0.000000,165.400000,112.000000)" style="stroke: black; stroke-width:0.25;"/>
<line x1="162.400000" y1="113.000000" x2="165.400000" y2="112.000000"  transform="rotate(0.000000,165.400000,112.000000)" style="stroke: black; stroke-width:0.25;"/>
<line x1="15.000000" y1="15.000000" x2="15.000000" y2="193.000000"  style="stroke: black; stroke-linecap:round; stroke-width:0.25; stroke-dasharray:3,3;"/>
<line x1="15.000000" y1="193.000000" x2="221.100000" y2="193.000000"  style="stroke: black; stroke-linecap:round; stroke-width:0.25; stroke-dasharray:3,3;"/>
<line x1="221.100000" y1="193.000000" x2="221.100000" y2="15.000000"  style="stroke: black; stroke-linecap:round; stroke-width:0.25; stroke-dasharray:3,3;"/>
<line x1="15.000000" y1="15.000000" x2="20.000000" y2="15.000000"  style="stroke: black; stroke-linecap:round; stroke-width:0.25; stroke-dasharray:3,3;"/>
<line x1="42.575000" y1="15.000000" x2="221.100000" y2="15.000000"  style="stroke: black; stroke-linecap:round; stroke-width:0.25; stroke-dasharray:3,3;"/>
<text x="20.000000" y="17.000000" font-family="Verdana" font-size="7">timer</text>
<line x1="223.100000" y1="103.000000" x2="226.100000" y2="104.000000"  transform="rotate(0.000000,226.100000,104.000000)" style="stroke: black; stroke-width:0.25;"/>
<line x1="223.100000" y1="105.000000" x2="226.100000" y2="104.000000"  transform="rotate(0.000000,226.100000,104.000000)" style="stroke: black; stroke-width:0.25;"/>
<line x1="74.700000" y1="110.000000" x2="78.700000" y2="110.000000"  style="stroke:black; stroke-linecap:round; stroke-width:0.25;"/>
<line x1="78.700000" y1="110.000000" x2="88.700000" y2="110.000000"  style="stroke:black; stroke-linecap:round; stroke-width:0.25;"/>
<line x1="88.700000" y1="110.000000" x2="105.400000" y2="110.000000"  style="stroke:black; stroke-linecap:round; stroke-width:0.25;"/>
<line x1="94.700000" y1="162.000000" x2="98.700000" y2="162.000000"  style="stroke:black; stroke-linecap:round; stroke-width:0.25;"/>
<line x1="95.600000" y1="36.000000" x2="99.600000" y2="36.000000"  style="stroke:black; stroke-linecap:round; stroke-width:0.25;"/>
<line x1="98.700000" y1="162.000000" x2="108.700000" y2="162.000000"  style="stroke:black; stroke-linecap:round; stroke-width:0.25;"/>
<line x1="99.600000" y1="36.000000" x2="145.400000" y2="36.000000"  style="stroke:black; stroke-linecap:round; stroke-width:0.25;"/>
<line x1="101.400000" y1="68.000000" x2="105.400000" y2="68.000000"  style="stroke:black; stroke-linecap:round; stroke-width:0.25;"/>
<line x1="105.400000" y1="98.000000" x2="113.400000" y2="98.000000"  style="stroke:black; stroke-linecap:round; stroke-width:0.25;"/>
<line x1="105.400000" y1="110.000000" x2="105.400000" y2="98.000000"  style="stroke:black; stroke-linecap:round; stroke-width:0.25;"/>
<line x1="105.400000" y1="110.000000" x2="105.400000" y2="110.000000"  style="stroke:black; stroke-linecap:round; stroke-width:0.25;"/>
<line x1="105.400000" y1="68.000000" x2="113.400000" y2="68.000000"  style="stroke:black; stroke-linecap:round; stroke-width:0.25;"/>
<line x1="108.700000" y1="162.000000" x2="145.400000" y2="162.000000"  style="stroke:black; stroke-linecap:round; stroke-width:0.25;"/>
<line x1="113.400000" y1="68.000000" x2="113.400000" y2="90.000000"  style="stroke:black; stroke-linecap:round; stroke-width:0.25;"/>
<line x1="113.400000" y1="90.000000" x2="113.400000" y2="90.000000"  style="stroke:black; stroke-linecap:round; stroke-width:0.25;"/>
<line x1="113.400000" y1="90.000000" x2="117.400000" y2="90.000000"  style="stroke:black; stroke-linecap:round; stroke-width:0.25;"/>
<line x1="113.400000" y1="98.000000" x2="117.400000" y2="98.000000"  style="stroke:black; stroke-linecap:round; stroke-width:0.25;"/>
<line x1="141.400000" y1="94.000000" x2="145.400000" y2="94.000000"  style="stroke:black; stroke-linecap:round; stroke-width:0.25;"/>
<line x1="145.400000" y1="36.000000" x2="161.400000" y2="36.000000"  style="stroke:black; stroke-linecap:round; stroke-width:0.25;"/>
<line x1="145.400000" y1="94.000000" x2="153.400000" y2="94.000000"  style="stroke:black; stroke-linecap:round; stroke-width:0.25;"/>
<line x1="145.400000" y1="112.000000" x2="161.400000" y2="112.000000"  style="stroke:black; stroke-linecap:round; stroke-width:0.25;"/>
<line x1="145.400000" y1="162.000000" x2="145.400000" y2="112.000000"  style="stroke:black; stroke-linecap:round; stroke-width:0.25;"/>
<line x1="145.400000" y1="162.000000" x2="145.400000" y2="162.000000"  style="stroke:black; stroke-linecap:round; stroke-width:0.25;"/>
<line x1="153.400000" y1="94.000000" x2="153.400000" y2="104.000000"  style="stroke:black; stroke-linecap:round; stroke-width:0.25;"/>
<line x1="153.400000" y1="104.000000" x2="161.400000" y2="104.000000"  style="stroke:black; stroke-linecap:round; stroke-width:0.25;"/>
<line x1="161.400000" y1="36.000000" x2="161.400000" y2="96.000000"  style="stroke:black; stroke-linecap:round; stroke-width:0.25;"/>
<line x1="161.400000" y1="96.000000" x2="161.400000" y2="96.000000"  style="stroke:black; stroke-linecap:round; stroke-width:0.25;"/>
<line x1="161.400000" y1="96.000000" x2="165.400000" y2="96.000000"  style="stroke:black; stroke-linecap:round; stroke-width:0.25;"/>
<line x1="161.400000" y1="104.000000" x2="165.400000" y2="104.000000"  style="stroke:black; stroke-linecap:round; stroke-width:0.25;"/>
<line x1="161.400000" y1="112.000000" x2="165.400000" y2="112.000000"  style="stroke:black; stroke-linecap:round; stroke-width:0.25;"/>
<line x1="204.100000" y1="104.000000" x2="208.100000" y2="104.000000"  style="stroke:black; stroke-linecap:round; stroke-width:0.25;"/>
<line x1="208.100000" y1="104.000000" x2="208.100000" y2="104.000000"  style="stroke:black; stroke-linecap:round; stroke-width:0.25;"/>
<line x1="208.100000" y1="104.000000" x2="212.100000" y2="104.000000"  style="stroke:black; stroke-linecap:round; stroke-width:0.25;"/>
<line x1="212.100000" y1="104.000000" x2="216.100000" y2="104.000000"  style="stroke:black; stroke-linecap:round; stroke-width:0.25;"/>
<line x1="216.100000" y1="104.000000" x2="226.100000" y2="104.000000"  style="stroke:black; stroke-linecap:round; stroke-width:0.25;"/>
</svg>
